<svg id="Layer_1" data-name="Layer 1" xmlns="http://www.w3.org/2000/svg" viewBox="0 0 720.01 612.01"><defs><style>.cls-1,.cls-2{stroke:#fff;stroke-miterlimit:10;stroke-width:0.01px;}.cls-2{fill:none;}</style></defs><path class="cls-1" d="M.48,612.48V.48h720v612ZM344.65,297.33c-.67-.42-1.09-.63-1.46-.91a9.26,9.26,0,0,0-4.54-2,3.46,3.46,0,0,0-3.85,4.21q1.81,7.93,3.65,15.87a4.6,4.6,0,0,0,5.22,3.84c2.31-.17,4.61-.52,6.92-.59,4.88-.16,9.75-.23,14.63-.25a10.24,10.24,0,0,1,3.54.47,95.63,95.63,0,0,1,10.82,4.45c3,1.58,5.94,1.73,8.67.2a35.94,35.94,0,0,0,11.6-9.87,43.06,43.06,0,0,0,8.09-23c.54-7.09.76-14.21.94-21.32a156.37,156.37,0,0,0-3.05-32.87c-2.52-13.33-7.08-26-11.91-38.65a18.12,18.12,0,0,0-2.42-4.37c-1.95-2.56-5-2.48-6.85.1-2.94,4.07-5.87,8.16-8.71,12.3-3.39,4.93-6.56,10-10.06,14.89a80.47,80.47,0,0,0-12.66,26.43c-3.68,13.67-3.65,27.49-1.63,41.38.19,1.32.37,2.64.59,4.21C347.39,290.51,346.3,294.13,344.65,297.33Zm-18.44,8.21h.1c0-1.2,0-2.4,0-3.6-.23-7.38-1.23-14.55-4.06-21.5A85.09,85.09,0,0,0,308,257c-5.36-6.28-11.48-11.79-17.63-17.27a240.9,240.9,0,0,0-33.21-24.4,7.36,7.36,0,0,0-4.74-1.3,3.49,3.49,0,0,0-3.55,3.71c0,.79-.1,1.58-.16,2.37-.33,4.79-.83,9.57-.95,14.36-.23,10,1.78,19.71,3.55,29.45a146.45,146.45,0,0,0,9.88,31.24c2.51,5.88,5.16,11.69,9.48,16.57a108,108,0,0,0,10.45,9.85c6.56,5.68,14.2,9.46,21.9,13.19,2.26,1.1,5.87.62,7.55-1.78a15.54,15.54,0,0,1,6.24-5.12c1.08-.51,2-1.27,3.12-1.78a23.86,23.86,0,0,1,4-1.57c2.26-.63,3.15-1.61,3.05-3.87C326.74,315.59,326.46,310.56,326.21,305.54Zm-175.84,1.7a3.34,3.34,0,0,0-3.54,3.13,27.84,27.84,0,0,0,.25,2.86,18.59,18.59,0,0,1,.09,3.57,35.8,35.8,0,0,1-6.63,17c-4.56,6.07-9.16,12.14-14.19,17.81a127,127,0,0,0-13.88,18.31,36,36,0,0,0-5.16,13.57c-.39,2.74,1.24,4.46,4,4.25a8.41,8.41,0,0,0,4.85-1.79c1.61-1.32,3.32-2.52,4.9-3.86a14.18,14.18,0,0,1,6.45-3c10.2-2.13,20.48-2.11,30.81-1.62a30.47,30.47,0,0,1,11.74,3,7.47,7.47,0,0,0,.87.39,3.34,3.34,0,0,0,3.76-.77,3.28,3.28,0,0,0,.66-3.77,17.59,17.59,0,0,0-1.32-2.55,50.36,50.36,0,0,1-5.25-12.32,43.27,43.27,0,0,1-1.94-12.26c0-4.63-.29-9.27-.74-13.88-1-10.16-5.44-18.77-12.2-26.29A5.63,5.63,0,0,0,150.37,307.24ZM312.31,483.18c.15,1,.39,3,.79,4.93.48,2.36,1.68,4.12,4.29,4.55a7.88,7.88,0,0,1,1.77.73,93.85,93.85,0,0,0,26.35,6.84c6.58.84,13.25.57,19.78,1.95,3,.63,4.67-.88,4.39-3.93a24.88,24.88,0,0,0-1.12-4.6c-1-3.37-2.08-6.71-3.12-10.07-.52-1.67-1.1-3.33-1.56-5-2.08-7.55-4.11-15.11-6.19-22.66-1.7-6.16-3.45-12.31-5.17-18.46a9.2,9.2,0,0,0-.58-1.82c-1.78-3.33-4.6-4.78-8-1.16-2.46,2.62-4.73,5.42-7,8.17-3.9,4.66-7.82,9.31-11.63,14.05-2.84,3.54-5.69,7.12-8.23,10.88A26.71,26.71,0,0,0,312.31,483.18Zm-64.74-100.7c3.6.22,5.6-2.07,4.84-5.52a19.75,19.75,0,0,0-1-3.2c-1.41-3.39-2.8-6.8-4.36-10.12-2.35-5-4.83-9.91-7.27-14.85a13.79,13.79,0,0,0-1.27-2c-2.11-2.83-4.44-3.3-7.48-1.53l-.41.25a454.91,454.91,0,0,1-45.37,23.36,3.74,3.74,0,0,0-2.46,4.62c1.34,5.53,3,10.94,6.31,15.69a8.88,8.88,0,0,0,2.67,2.65c5,2.92,10.12,5.8,15.28,8.51,3.71,1.95,7.83,2.75,11.93,3.42a4.71,4.71,0,0,0,5.7-4.11c.23-1.25.23-2.54.39-3.81.64-5.28,2.71-9.7,7.68-12.21a16,16,0,0,1,8.61-1.66C243.44,382.11,245.51,382.3,247.57,382.48Zm13.66-31.35a33.49,33.49,0,0,0,5.52-1.43c3.67-1.55,7.21-3.43,10.8-5.15,2.54-1.22,3.11-2.9,1.81-5.46-1.46-2.85-3-5.66-4.37-8.54a39.76,39.76,0,0,0-6.77-10.14c-4.05-4.3-8.34-8.38-12.57-12.51a12.23,12.23,0,0,0-2.55-1.77,6.09,6.09,0,0,0-6.18-.31c-1.56.81-3,1.74-4.64,2.48a11.7,11.7,0,0,1-3.58,1.19,104.35,104.35,0,0,1-31.24-1.65,25.74,25.74,0,0,0-4.29-.4,3.23,3.23,0,0,0-3.24,2.05,3.33,3.33,0,0,0,.67,3.78c.6.64,1.29,1.2,1.93,1.8,3.83,3.62,7.78,7.12,11.46,10.89,2.84,2.91,5.39,6.11,8,9.27a5.78,5.78,0,0,0,3.85,2.14,13.7,13.7,0,0,0,7.31-.71c1.26-.51,2.52-1,3.76-1.58,1.89-.84,2.66-.73,3.92.88a60.7,60.7,0,0,1,4.13,5.6,21.47,21.47,0,0,0,5.35,5.76A18.63,18.63,0,0,0,261.23,351.13ZM627.87,213.68c0-5.94-.14-6.34-3.55-10.05-.16-.18-.33-.35-.49-.52a80,80,0,0,0-14.5-12.5c-4.91-3.28-10-6.24-15.05-9.36-1.72-1.06-3.25-1.2-4.44-.24-1.44,1.17-1.48,2.61-1,4.33a57.4,57.4,0,0,1,2.23,14.89,191.14,191.14,0,0,0,2.25,27.45c.69,4.45,1.3,8.85,4,12.63,2.6,3.61,5.66,6.59,10.36,7a34.91,34.91,0,0,0,7.37-.08,49.72,49.72,0,0,0,14.05-3.8c3.83-1.72,5.29-5.42,3.73-9.57-.81-2.17-1.6-4.35-2.4-6.52A46,46,0,0,1,627.87,213.68ZM477.81,258.35c3,.38,3,.38,5.83-1.32,2.22-1.34,3-2.88,2.3-5.43a61.87,61.87,0,0,0-2.21-7.33,219.84,219.84,0,0,0-16.25-34.16c-2.68-4.44-5.59-8.75-8.61-13-1.93-2.69-5-2.45-7,.25-.32.45-.6,1-1,1.37a84.26,84.26,0,0,0-12.33,20.47c-1.86,4.24-2.62,8.53-1,13,.34,1,.52,2,.8,3a21.42,21.42,0,0,0,5.73,9.82c.63.61,1.14,1.34,1.71,2l9,10.29a4.14,4.14,0,0,0,3.63,1.45c2.47-.19,4.94-.42,7.42-.47C469.83,258.29,473.82,258.35,477.81,258.35ZM91.75,342.55l-.41,0c.31,4.38.47,8.77,1,13.13a16.13,16.13,0,0,0,1.81,5.65c1.55,2.87,3.42,5.57,5.25,8.28a3.15,3.15,0,0,0,4.81.51,7.77,7.77,0,0,0,1.63-2.33,49,49,0,0,0,2.09-4.84,56.09,56.09,0,0,1,9-16c5-6.21,10.21-12.29,15.45-18.32a19.09,19.09,0,0,0,4.49-8.34,42.4,42.4,0,0,0,.77-10.73c-.14-5.41-2-10.5-2.92-15.76-.46-2.64-3.64-3.36-5.68-1.54-1.49,1.33-3,2.62-4.54,3.89-4.44,3.66-9,7.2-13.33,11a74.38,74.38,0,0,0-18.26,22.93,11.08,11.08,0,0,0-1.17,5.06C91.76,337.59,91.75,340.07,91.75,342.55Zm133.5-40c2.05-.21,6.19.16,10.08-1.89,4.83-2.54,5.1-4.17,3.18-8.24a7.93,7.93,0,0,0-1.27-2,68.44,68.44,0,0,0-6.05-6.11c-4.93-4.06-10.05-7.89-15.07-11.85a112.1,112.1,0,0,1-15.87-15.24,124.12,124.12,0,0,0-9.4-9.23,11,11,0,0,0-2.74-1.9,3.37,3.37,0,0,0-4.93,3.26c0,.4.13.79.16,1.19.2,2.46.57,4.92.53,7.38a103.25,103.25,0,0,1-3.3,22.48c-1,4.3-.07,8.21.51,12.28a4.18,4.18,0,0,0,.8,1.45c1.74,2.6,4.37,3.88,7.2,4.86,3.91,1.36,8,1.47,12.06,1.64a34.5,34.5,0,0,1,7.12.77A50.23,50.23,0,0,0,225.25,302.58Zm133.4,22.8c-2.31.14-4.62.26-6.94.42a90.43,90.43,0,0,0-25.95,5.42,7.42,7.42,0,0,0-3.16,2c-2.44,3.06-4.77,6.21-6.93,9.47s-1.84,5,.5,8a20.86,20.86,0,0,0,9.7,6.77A107.28,107.28,0,0,1,341.05,364a16.29,16.29,0,0,0,9.55,1.66c1.2-.11,2.38-.33,3.57-.42a42.86,42.86,0,0,0,18.07-5.94,5.66,5.66,0,0,0,2.71-2.92,62.4,62.4,0,0,0,2.84-8.61,81.24,81.24,0,0,0,1.17-10.7,4.36,4.36,0,0,0-1-2.79,32,32,0,0,0-3.9-3.53C369.55,327.07,364.73,324.44,358.65,325.38Zm323-78.63a7.58,7.58,0,0,0-1.12-2c-2.42-2.54-4.88-5-7.43-7.45-6.62-6.26-13.34-12.41-21.09-17.3-3-1.87-5.81-3.94-8.69-5.95a3.36,3.36,0,0,0-3.61-.41,3.18,3.18,0,0,0-1.88,3.09,7.5,7.5,0,0,0,.27,1.89c.43,1.71.85,3.41,1.37,5.09,1.52,5,3.09,9.91,4.65,14.86,1,3.16.65,5.91-2,8.24a29.75,29.75,0,0,1-11.81,6.59,38.27,38.27,0,0,1-10.65,1.44c-3.06-.05-4.42,1.72-3.68,4.64.92,3.63,1.8,7.29,2.91,10.87,1.72,5.56,3.61,11.08,5.46,16.61a3.62,3.62,0,0,0,3.42,2.55,3.58,3.58,0,0,0,3.69-2.1c1.58-2.77,3.24-5.51,4.93-8.22a94.22,94.22,0,0,1,18.14-21.56,16.06,16.06,0,0,1,3.71-2.61c6.15-2.84,12.54-4.7,19.44-4.17C679.84,251.05,681.59,249.41,681.61,246.75Zm-97.82-32.39.18,0c-.43-5.65-.79-11.31-1.31-17-.55-6-1.26-12.07-1.86-18.11a4.36,4.36,0,0,0-1.66-3.06,20.67,20.67,0,0,0-6.57-3.32c-4-1.41-7.37-.32-10.55,2-4.29,3.19-8.53,6.47-12.84,9.63q-9.37,6.87-18.84,13.61c-1.36,1-2.19,2.09-1.91,3.8s1.49,2.27,2.91,2.83c3.19,1.25,6.39,2.52,9.48,4,10.74,5.11,21.44,10.33,32.18,15.44a28,28,0,0,0,5.41,1.89c2.54.61,4.41-.62,5-3.15a13.61,13.61,0,0,0,.33-2.85C583.83,218.19,583.79,216.27,583.79,214.36Zm-59.2,99.46c.16,1.2.21,1.83.32,2.46,1.1,6.45,2.22,12.9,3.31,19.36.43,2.52.79,5.05,1.27,7.56a3.14,3.14,0,0,0,2.76,2.63,3.26,3.26,0,0,0,3.45-1.64,11.66,11.66,0,0,0,.68-1.53c1.12-2.47,2.08-5,3.38-7.4,6.85-12.58,18.12-19.92,30.75-25.54,3.27-1.45,4.07-2.74,2.78-6-.17-.45-.4-.87-.61-1.31a114.71,114.71,0,0,0-12.31-21.06c-.53-.7-.91-1.5-1.42-2.22-2-2.81-3.92-5.63-5.93-8.4-1.28-1.75-3.1-1.82-5-1.23a4.86,4.86,0,0,0-3.16,3.64c-.93,3.21-1.74,6.46-2.75,9.65-3.34,10.62-7.72,20.65-16.14,28.41A8.24,8.24,0,0,0,524.59,313.82Zm-357.32-68.6-.07-.19c-6.46,1-13,1.63-19.38,3-11.18,2.43-21.89,6.46-32.5,10.7a114.41,114.41,0,0,0-26.78,14.78,9.87,9.87,0,0,0-1.94,1.76c-1.61,2.15-.83,4.58,1.65,5.62A42.62,42.62,0,0,1,92.54,283q8,4.44,15.86,9a5.57,5.57,0,0,0,6.5-.27c2.21-1.58,4.38-3.2,6.56-4.84,8.87-6.67,17.62-13.52,26.66-20,6.35-4.53,12.62-9.24,19.76-12.61a13.58,13.58,0,0,0,3.81-3.23,3.23,3.23,0,0,0-1.38-5.27A17.92,17.92,0,0,0,167.27,245.22Zm373.21-8.4c.16-4-1.42-5.62-4.23-5.06-10,2-19.87,4.14-29.37,7.79a36.15,36.15,0,0,0-6.13,3.21c-2.16,1.37-2.69,3.47-1.75,5.85,1.47,3.72,2.86,7.47,4.49,11.11q7.11,15.86,14.4,31.63a23.66,23.66,0,0,0,2.78,4.45c2.48,3.21,6.64,2.89,8.71-.64a21,21,0,0,0,2.09-4.29c1.09-3.59,2.14-7.2,2.88-10.87a121.84,121.84,0,0,0,2.83-18.92,108,108,0,0,1,2.22-17.81C539.91,240.85,540.22,238.39,540.48,236.82ZM82.2,318.6c3.61.19,6.13-.19,7.88-1.47a71.78,71.78,0,0,0,13.65-13.38c1.46-1.82,1-3.87-1-5.13-1.08-.68-2.25-1.21-3.37-1.81-6.68-3.62-13.36-7.21-20-10.86-2.11-1.15-4.16-1.21-6,.29a81.2,81.2,0,0,0-19.15,20.92c-2.37,3.86-4.28,8-6.33,12.07-5.31,10.47-8.2,21.77-11.24,33a3.41,3.41,0,0,0,1.93,4,3.34,3.34,0,0,0,4.24-1.17,131.41,131.41,0,0,0,11.49-17.64,42.51,42.51,0,0,1,5.27-8C65.5,322.68,72.73,318.2,82.2,318.6ZM529.44,166.33c-4.23.21-8.46.36-12.68.64a126,126,0,0,0-26.17,4.44c-6.71,1.89-13.21,4.34-18.83,8.66a4.08,4.08,0,0,0-1.93,2.59c-.34,2.18.73,3.76,3.06,4.42,3.23.9,6.53,1.6,9.68,2.72a201.09,201.09,0,0,0,27.64,7.77,8,8,0,0,0,6-.75c10.61-6.25,20.86-13,30.92-20.14a11.83,11.83,0,0,0,2.9-3.12,3.48,3.48,0,0,0-1.81-5.29,12.84,12.84,0,0,0-1.39-.35C541.12,166.48,535.28,166.46,529.44,166.33ZM421,312.13a19.56,19.56,0,0,0,3.22-1.66,139.15,139.15,0,0,0,18.12-15.28,64.64,64.64,0,0,0,8.3-10.51,7.27,7.27,0,0,0,.81-7.22c-.21-.51-.4-1-.64-1.55-1.64-3.55-3.17-7.16-5-10.62-2.42-4.68-5-9.28-7.62-13.84-1.6-2.76-3.44-5.38-5.15-8.07a3.3,3.3,0,0,0-5.29-.83,8.13,8.13,0,0,0-1.49,1.86A70.4,70.4,0,0,0,419,261c-1.29,4.21-2.2,8.37-1.59,12.91.7,5.21.75,10.51,1,15.78a45.8,45.8,0,0,1-.15,5.74c-.36,4.29-.84,8.57-1.24,12.85C416.83,310.51,418.23,312.1,421,312.13Zm55.54-43.87v-.09c-3.82.23-7.65.45-11.47.7-2.78.18-4.13,2.55-3.12,5.15,1.24,3.19,2.33,6.44,3.48,9.66a2.48,2.48,0,0,1-.89,3.15,42.45,42.45,0,0,0-3.72,3.39c-1.43,1.39-2.71,2.94-4.22,4.25-2.36,2-2.61,3.44-.74,5.88.29.38.6.75.89,1.13,3.73,4.89,7.5,9.75,11.17,14.68,2.14,2.87,4.31,3,6.6.29s4.8-5.35,7.2-8c3.43-3.8,7-7.5,10.25-11.41a74.45,74.45,0,0,0,8.8-13.12,6.2,6.2,0,0,0,.58-3.91c-.7-5.49-2.83-10.46-5.34-15.3a8.26,8.26,0,0,0-1.76-2.23c-1.75-1.59-3.6-1.45-5.25.26-1.34,1.37-2.67,2.75-4,4.11a4.5,4.5,0,0,1-3.87,1.45C479.62,268.14,478.09,268.26,476.57,268.26Zm-393,64.83c-.21-4.54-3.11-6.24-6-4.47-1,.62-2.15,1.05-3.19,1.64-7.26,4.16-12.68,10.18-17.14,17.13a69.06,69.06,0,0,1-10.06,12.16,132.61,132.61,0,0,0-13.51,14.92,9,9,0,0,0-1.35,2.24A3.92,3.92,0,0,0,33,381a3.44,3.44,0,0,0,4,.81c1.11-.42,2.15-1,3.24-1.5,12.49-5.37,25.41-7.34,38.9-5.09a15.12,15.12,0,0,1,7.36,3.22,4.74,4.74,0,0,0,1.44.83,3.6,3.6,0,0,0,4.64-4.44,26.79,26.79,0,0,0-4.22-8.55c-2.09-3.13-4.29-6.17-6.34-9.32a11.11,11.11,0,0,1-1.37-3.25c-1.51-5.82-.39-11.4,1.69-16.87C82.89,335.4,83.3,334,83.58,333.09ZM556,228.09c-4.08-.09-5.38,1-5.74,4q-.3,2.37-.48,4.77-.62,8.72-1.18,17.45a4.32,4.32,0,0,0,1.44,3.62q8.6,8.19,17.07,16.5c1.64,1.61,3,3.52,4.59,5.19a20.17,20.17,0,0,0,3.23,2.75c1.6,1.09,3.13.78,4.59-.49a12.46,12.46,0,0,0,3.59-6.37q3-10.37,5.82-20.76c.45-1.61.76-3.26,1.08-4.91a3.55,3.55,0,0,0-1.89-4,24,24,0,0,1-2.75-1.9,93.4,93.4,0,0,0-21.57-13.29A68.82,68.82,0,0,0,556,228.09ZM288.07,475.87c0,2.4,0,4.8,0,7.19a3.44,3.44,0,0,0,1.73,3.23,16.51,16.51,0,0,0,8.69,2.28c2.15-.12,4.1-.79,5-3.07a36.34,36.34,0,0,0,1.84-4.9c.77-3.34,1.37-6.73,1.89-10.12,1-6.89,1-6.92,6-11.89a21.31,21.31,0,0,0,4.75-6.84,9.34,9.34,0,0,0,.82-5.1,67.17,67.17,0,0,0-8-23.19A32.65,32.65,0,0,0,308,419c-2.72-3.47-5.71-3-7.57,0a9.84,9.84,0,0,0-.77,1.21,91.44,91.44,0,0,0-3.92,9.75c-1.72,6.06-3,12.23-4.54,18.35A110.46,110.46,0,0,0,288.07,475.87ZM172.79,327.37c.52,4.78,1.08,11.95,2.16,19.05a64.34,64.34,0,0,0,3.17,11c.75,2.17,2.17,2.74,4.38,2.31,1.4-.27,2.81-.6,4.18-1,7.72-2.26,15-5.38,21.4-10.41,2.59-2,4.27-4.64,2.23-8.34a56.37,56.37,0,0,0-3.27-5.57c-3.33-4.68-6.8-9.28-10.2-13.92A80.58,80.58,0,0,0,182,305.6a10.91,10.91,0,0,0-2-1.29,3.18,3.18,0,0,0-4.22,1.1,6,6,0,0,0-.86,2.21A120.75,120.75,0,0,0,172.79,327.37Zm300.71-132c-2.37,0-3.83,1.34-4,3.36A5,5,0,0,0,470.6,202a197.6,197.6,0,0,0,13.54,17.39c2.55,3,4.95,6.07,7.63,8.92a9.45,9.45,0,0,0,9.91,3c9.14-2.28,18.39-4.09,27.58-6.16,2.72-.62,5.4-1.39,8.07-2.22a3,3,0,0,0,2.2-3.09,3.12,3.12,0,0,0-1.95-3c-2.16-1-4.34-2-6.56-2.87-17.88-6.94-36-13.26-54.59-17.9C475.35,195.73,474.26,195.5,473.5,195.33ZM367,393.49l2.89,1c.9.31,1.8.66,2.72.93a4.93,4.93,0,0,0,5.79-2.23c.34-.54.59-1.13.95-1.66,1.49-2.21,1.2-4.37-.19-6.49-.83-1.27-1.65-2.55-2.56-3.76a5.33,5.33,0,0,1-1.15-3.56,35,35,0,0,0-.09-3.83c-.23-3.55-2.68-5.12-5.93-3.82a24.38,24.38,0,0,1-2.68,1,46.42,46.42,0,0,1-7.2,1.69,48.69,48.69,0,0,1-15.73-.79c-4.67-1.06-6.17.49-5.73,5.29.15,1.64.25,3.29.38,5.07-1.27.12-2.21.18-3.15.3s-2.07.24-3.09.42c-2.45.45-3.52,2.11-2.95,4.53a5.57,5.57,0,0,0,.45,1.36,5.23,5.23,0,0,1-.45,5.81,9.89,9.89,0,0,0-1.17,2.61,3.26,3.26,0,0,0,3.38,4.48c1.11,0,2.22-.25,3.34-.36s2-.17,2.95-.24a39.88,39.88,0,0,0,1.65,4.27c1.39,2.67,4.09,3,6,.68,1.45-1.7,2.8-3.49,4.2-5.23.74-.92,1.51-1.81,2.14-2.56a2.4,2.4,0,0,1,.55,0l7.4,2.81c3.49,1.31,5,.55,6-3C366.21,396.75,366.55,395.21,367,393.49Zm154.34-53.13a74.55,74.55,0,0,0-3.29-15.7,54.81,54.81,0,0,1-1.55-6,48.6,48.6,0,0,0-8.16-20.5c-1.85-2.6-5.67-2.74-7,.54a14.3,14.3,0,0,1-1.57,2.66c-2.27,3.19-4.61,6.33-6.86,9.53a56.41,56.41,0,0,1-11.63,12.65,38.62,38.62,0,0,0-4,3.48,32,32,0,0,0-3.73,4.34,5.33,5.33,0,0,0-.71,5.62,5.74,5.74,0,0,0,7.6,2.84c3.54-1.67,7.21-3.06,10.84-4.51a11.92,11.92,0,0,1,7.28-.5c6.19,1.42,11.53,4.62,16.81,7.94,1.39.87,2.69,1.42,4.21.55A3.2,3.2,0,0,0,521.31,340.36Zm-98.75-3.47c-3.35-.05-5.26,1.61-5.93,4.72-.46,2.1-.9,4.2-1.3,6.31-.83,4.39-1.59,8.79-2.44,13.18a5,5,0,0,0,.9,4.27c2.88,3.73,5.66,7.53,8.53,11.26a3.61,3.61,0,0,0,4.68,1.29,19.62,19.62,0,0,0,3.79-2c3.24-2.19,6.5-4.37,9.61-6.75,6-4.61,12-9.28,17.88-14.07,2.9-2.37,2.23-5.14-1.34-6.46-3.07-1.14-6.15-2.24-9.19-3.45a170.15,170.15,0,0,0-19.86-7C426,337.68,424,337.24,422.56,336.89Zm197-35.36c-.91-6.08-1.95-12.52-4.45-18.65-3.62-8.87-8.83-16.83-13.86-24.89a3.32,3.32,0,0,0-3.67-1.68,3.39,3.39,0,0,0-2.69,2.75c-1.17,4.48-2.24,9-3.48,13.45s-2.44,8.94-4,13.29c-1.11,3.14-2.82,5.84-6.86,6.1a3.16,3.16,0,0,0-2.44,4.73c1.43,2.75,3,5.48,5.55,7.42a4.09,4.09,0,0,0,3.8.77A45.82,45.82,0,0,1,606,303.69c3.08.43,6.08,1.36,9.13,1.94C617.67,306.12,619.5,304.51,619.52,301.53ZM398.34,460.79a5.24,5.24,0,0,0,0-1q-1.47-11.28-3-22.55a8.2,8.2,0,0,0-.37-1.63c-1.8-5.25-6.37-5-8.94-2.26a28.19,28.19,0,0,0-3.1,4.49,21,21,0,0,1-5.49,6.52c-2.19,1.57-4,3.62-6.09,5.39-2.39,2.08-3.07,4.69-2.86,7.75a57,57,0,0,0,2.72,13.57q2.06,6.51,3.82,13.09c.49,1.84.52,3.79.86,5.67.4,2.17,1.44,3.18,3.2,3.28s2.84-.74,3.63-2.8,1.7-4.29,2.57-6.43c1.61-4,4.68-6.81,7.5-9.85C396.13,470.42,398.53,466.38,398.34,460.79Zm8.58-8.24h.17c-.08,1.67-.14,3.35-.24,5-.17,3,1.64,4.73,4.6,4.16a11,11,0,0,0,3.13-1.12,60.91,60.91,0,0,0,14.47-11.34,3.91,3.91,0,0,0,1.23-3.47,34.86,34.86,0,0,0-1.34-6c-3.42-9.32-8.37-17.91-13.05-26.61-2.53-4.71-5.2-9.35-7.8-14-.62-1.12-1.14-2.3-1.83-3.37a3.25,3.25,0,0,0-4-1.3A3.47,3.47,0,0,0,400,398c0,.31.16.62.2.93.85,6.73,2.23,13.39,2.07,20.22-.09,3.28-.08,6.56,0,9.83s.18,6.55,2,9.24a17.58,17.58,0,0,1,2.7,9.26C407,449.2,406.92,450.88,406.92,452.55Zm-2.15-117.18a4.26,4.26,0,0,1,.44-.59c4.62-3.57,4.86-5,1.73-9.89l-.12-.21c-1.35-2-3.53-2.42-5.37-.91-4.64,3.8-9.22,7.67-13.83,11.51a4.39,4.39,0,0,0-1.67,3.79c0,.72.08,1.44.07,2.16-.09,7.35-.85,14.53-5.43,20.72a4.32,4.32,0,0,0-.33,5c1.74,3,2.1,6.31,2.74,9.6a18.14,18.14,0,0,0,1.91,5.11,4.26,4.26,0,0,0,2.38,1.81,67,67,0,0,0,6.79,1.4,3.32,3.32,0,0,0,3.88-2.42,6.25,6.25,0,0,1,.56-1.79c1.34-1.82,1.28-3.41-.2-5.19s-.92-3.59.84-4.87a31.18,31.18,0,0,0,3.42-2.61c1.89-1.8,2-3.08.58-5.3l-1.37-2.22c1.3-1.1,2.51-2,3.6-3.06,1.78-1.71,1.87-3.35.37-5.3-1-1.26-2-2.48-3.06-3.82,1.46-1.61,2.9-3.1,4.22-4.69,1.71-2.05,1.68-3.48,0-5.54C406.24,337.16,405.53,336.3,404.77,335.37Zm-12.63,65.57h.12c0-.4,0-.8,0-1.2a3.28,3.28,0,0,0-1.85-3.57,3.55,3.55,0,0,0-4,.67c-.84.72-1.69,1.44-2.56,2.14-4.1,3.3-8.2,6.61-12.33,9.87a4.76,4.76,0,0,1-2.07,1c-2.05.31-4.12.51-6.18.62a4.11,4.11,0,0,0-4.18,4.91q1,7.37,1.94,14.72c.37,2.77.67,5.55,1.12,8.31.57,3.51,2.95,4.78,6.07,3.06a13.34,13.34,0,0,0,3.93-3.4c3.23-4.17,6.27-8.48,9.39-12.73,2.7-3.68,1.52-3.7,6.73-2.53,3.37.75,5.81-1.26,5.75-4.75a7.7,7.7,0,0,0,0-1c-.36-3.25-.74-6.5-1.11-9.76Q392.5,404.15,392.14,400.94ZM315,385.35c.14,1.31.19,2.34.38,3.35a3.27,3.27,0,0,0,5.15,2.19,5,5,0,0,0,1.87-2.38,20.26,20.26,0,0,0,.82-4.9,6.71,6.71,0,0,1,3.91-6.11c4.09-2,4.94-6.52,1.76-9.78a14,14,0,0,0-3.44-2.53c-3.82-2-7.85-3.57-11.54-5.75-5.75-3.4-11.88-6.29-16.26-11.66a3.56,3.56,0,0,0-4.41-.76c-2.08,1.2-3.67,2.76-3.71,5.44,0,2.07-.3,4.14-.44,6.21a11,11,0,0,0,0,2.15c.37,2.62,1.43,3.59,4.07,3.8,1.08.09,2.17.14,3.23.21.72,3.15,1.32,6,2.06,8.89a4.49,4.49,0,0,0,5.32,3.28l3.31-.62c0,1.73,0,3.24,0,4.74-.09,3.49,1.72,5.13,5.21,4.69C313.06,385.71,313.83,385.55,315,385.35Zm-23.49-10.93c-.25-2.91-1.07-3.94-3.88-4.55a16,16,0,0,0-2.36-.41,3.8,3.8,0,0,1-3.49-2.74c-1.18-2.88-2.44-5.73-3.8-8.52-1.26-2.57-2.6-3.23-5.44-2.72-2.43.43-4.83,1-7.24,1.6s-4.63,1.22-7,1.74c-2.75.62-3.79,2.49-2.74,5.18q3.74,9.58,7.53,19.17a8.09,8.09,0,0,0,1.45,2.43c4.13,4.67,9.63,7,15.45,8.58,2.36.66,3.75-.15,4.78-2.41,1.53-3.34,3.11-6.66,4.46-10.08C290.17,379.34,290.74,376.85,291.48,374.42Zm-127.4-68.08c2.44,0,3.72-.75,4.11-2.61.82-3.9,1.61-7.82,2.12-11.77.67-5.22.94-10.49,1.61-15.71a40.65,40.65,0,0,1,2.69-11.36,3.37,3.37,0,0,0-.55-3.81,3.29,3.29,0,0,0-4-.76A53.45,53.45,0,0,0,165,263a72.43,72.43,0,0,0-16.75,12.68,88.2,88.2,0,0,0-5.74,7,3.45,3.45,0,0,0,.14,4.64,37.29,37.29,0,0,0,5.16,5.27,68,68,0,0,1,8.85,8,42.74,42.74,0,0,0,5.15,4.63A8.65,8.65,0,0,0,164.08,306.34Zm299.63,26.41a11.92,11.92,0,0,0-.4-1.8c-.69-1.95-1.4-3.91-2.22-5.82-2.54-5.89-6.17-11.18-9.54-16.6a3.25,3.25,0,0,0-4.25-1.17,23.78,23.78,0,0,0-3.58,1.93q-5.79,3.61-11.55,7.3c-2.56,1.63-5.14,3.24-7.6,5-2.23,1.63-2.17,4.43.19,5.76,3.87,2.2,7.55,4.81,12,5.87,1.71.41,3.33,1.14,5,1.57,5.1,1.31,10,3.41,15.28,4C461.14,339.28,463.57,337.36,463.71,332.75ZM313.54,398.31a3.78,3.78,0,0,0-3.37,1.08c-1.7,1.89-2.42,6.8-1.18,9a55.86,55.86,0,0,0,3.08,4.85c5.12,7.11,11.64,13.18,15.58,21.2,1.17,2.38,4.5,2.47,6.38.51a29.2,29.2,0,0,0,2.8-3.28,28.2,28.2,0,0,1,9.62-8.14c1.32-.74,2.67-1.43,4-2.17,2.5-1.4,3.14-4.29,1.58-7.06-1.35-2.42-3-2.71-5.84-1.06a6.07,6.07,0,0,0-.81.5,6.19,6.19,0,0,1-4.73,1.31c-1.59-.13-3.18-.32-4.75-.6a11.29,11.29,0,0,1-6.06-3.07c-4.07-3.94-8.36-7.67-12.55-11.49C316.19,398.91,315,398.08,313.54,398.31Zm-32.45,19.95a32.87,32.87,0,0,0,1.51,4.56,4.62,4.62,0,0,0,7.6.85,9.76,9.76,0,0,0,1.35-2c4.23-8.41,8.36-16.86,11.36-25.82a3.82,3.82,0,0,0-.68-4,61,61,0,0,0-4.27-4.53,3.31,3.31,0,0,0-5.4,1c-1.53,3.25-3,6.51-4.41,9.82-1.89,4.55-3.73,9.14-5.44,13.76A60.23,60.23,0,0,0,281.09,418.26Zm143.67-20.7a28.92,28.92,0,0,0-1.23-4.07c-1.19-2.62-2.58-5.14-3.87-7.7a51.18,51.18,0,0,0-6.82-10.1,4.07,4.07,0,0,0-5.76-.56c-2.26,2-2.58,4.63-.78,6.51a7.29,7.29,0,0,1,1.16,1.2c2.84,4.71,6.13,9.16,8,14.43a17.84,17.84,0,0,0,2.08,4,3.4,3.4,0,0,0,4.66,1C423.78,401.24,424.4,399.63,424.76,397.56Z" transform="translate(-0.48 -0.48)"/><path class="cls-2" d="M344.65,297.33c1.65-3.2,2.74-6.82,7.53-5.46-.22-1.57-.4-2.89-.59-4.21-2-13.89-2-27.71,1.63-41.38a80.47,80.47,0,0,1,12.66-26.43c3.5-4.86,6.67-10,10.06-14.89,2.84-4.14,5.77-8.23,8.71-12.3,1.87-2.58,4.9-2.66,6.85-.1a18.12,18.12,0,0,1,2.42,4.37c4.83,12.62,9.39,25.32,11.91,38.65a156.37,156.37,0,0,1,3.05,32.87c-.18,7.11-.4,14.23-.94,21.32a43.06,43.06,0,0,1-8.09,23,35.94,35.94,0,0,1-11.6,9.87c-2.73,1.53-5.66,1.38-8.67-.2A95.63,95.63,0,0,0,368.76,318a10.24,10.24,0,0,0-3.54-.47c-4.88,0-9.75.09-14.63.25-2.31.07-4.61.42-6.92.59a4.6,4.6,0,0,1-5.22-3.84q-1.83-7.94-3.65-15.87a3.46,3.46,0,0,1,3.85-4.21,9.26,9.26,0,0,1,4.54,2C343.56,296.7,344,296.91,344.65,297.33Z" transform="translate(-0.48 -0.48)"/><path class="cls-2" d="M326.21,305.54c.25,5,.53,10,.76,15.08.1,2.26-.79,3.24-3.05,3.87a23.86,23.86,0,0,0-4,1.57c-1.08.51-2,1.27-3.12,1.78a15.54,15.54,0,0,0-6.24,5.12c-1.68,2.4-5.29,2.88-7.55,1.78-7.7-3.73-15.34-7.51-21.9-13.19a108,108,0,0,1-10.45-9.85c-4.32-4.88-7-10.69-9.48-16.57a146.45,146.45,0,0,1-9.88-31.24c-1.77-9.74-3.78-19.48-3.55-29.45.12-4.79.62-9.57.95-14.36.06-.79.12-1.58.16-2.37a3.49,3.49,0,0,1,3.55-3.71,7.36,7.36,0,0,1,4.74,1.3,240.9,240.9,0,0,1,33.21,24.4c6.15,5.48,12.27,11,17.63,17.27a85.09,85.09,0,0,1,14.23,23.46c2.83,6.95,3.83,14.12,4.06,21.5,0,1.2,0,2.4,0,3.6Z" transform="translate(-0.48 -0.48)"/><path class="cls-2" d="M150.37,307.24a5.63,5.63,0,0,1,3.54,1.85c6.76,7.52,11.21,16.13,12.2,26.29.45,4.61.72,9.25.74,13.88a43.27,43.27,0,0,0,1.94,12.26A50.36,50.36,0,0,0,174,373.84a17.59,17.59,0,0,1,1.32,2.55,3.28,3.28,0,0,1-.66,3.77,3.34,3.34,0,0,1-3.76.77,7.47,7.47,0,0,1-.87-.39,30.47,30.47,0,0,0-11.74-3c-10.33-.49-20.61-.51-30.81,1.62a14.18,14.18,0,0,0-6.45,3c-1.58,1.34-3.29,2.54-4.9,3.86a8.41,8.41,0,0,1-4.85,1.79c-2.77.21-4.4-1.51-4-4.25a36,36,0,0,1,5.16-13.57,127,127,0,0,1,13.88-18.31c5-5.67,9.63-11.74,14.19-17.81a35.8,35.8,0,0,0,6.63-17,18.59,18.59,0,0,0-.09-3.57,27.84,27.84,0,0,1-.25-2.86A3.34,3.34,0,0,1,150.37,307.24Z" transform="translate(-0.48 -0.48)"/><path class="cls-2" d="M312.31,483.18A26.71,26.71,0,0,1,317,467.56c2.54-3.76,5.39-7.34,8.23-10.88,3.81-4.74,7.73-9.39,11.63-14.05,2.31-2.75,4.58-5.55,7-8.17,3.41-3.62,6.23-2.17,8,1.16a9.2,9.2,0,0,1,.58,1.82c1.72,6.15,3.47,12.3,5.17,18.46,2.08,7.55,4.11,15.11,6.19,22.66.46,1.69,1,3.35,1.56,5,1,3.36,2.11,6.7,3.12,10.07a24.88,24.88,0,0,1,1.12,4.6c.28,3.05-1.38,4.56-4.39,3.93-6.53-1.38-13.2-1.11-19.78-1.95a93.85,93.85,0,0,1-26.35-6.84,7.88,7.88,0,0,0-1.77-.73c-2.61-.43-3.81-2.19-4.29-4.55C312.7,486.16,312.46,484.18,312.31,483.18Z" transform="translate(-0.48 -0.48)"/><path class="cls-2" d="M247.57,382.48c-2.06-.18-4.13-.37-6.2-.54a16,16,0,0,0-8.61,1.66c-5,2.51-7,6.93-7.68,12.21-.16,1.27-.16,2.56-.39,3.81a4.71,4.71,0,0,1-5.7,4.11c-4.1-.67-8.22-1.47-11.93-3.42-5.16-2.71-10.24-5.59-15.28-8.51a8.88,8.88,0,0,1-2.67-2.65c-3.26-4.75-5-10.16-6.31-15.69a3.74,3.74,0,0,1,2.46-4.62,454.91,454.91,0,0,0,45.37-23.36l.41-.25c3-1.77,5.37-1.3,7.48,1.53a13.79,13.79,0,0,1,1.27,2c2.44,4.94,4.92,9.86,7.27,14.85,1.56,3.32,2.95,6.73,4.36,10.12a19.75,19.75,0,0,1,1,3.2C253.17,380.41,251.17,382.7,247.57,382.48Z" transform="translate(-0.48 -0.48)"/><path class="cls-2" d="M261.23,351.13a18.63,18.63,0,0,1-10.94-3.81,21.47,21.47,0,0,1-5.35-5.76,60.7,60.7,0,0,0-4.13-5.6c-1.26-1.61-2-1.72-3.92-.88-1.24.56-2.5,1.07-3.76,1.58a13.7,13.7,0,0,1-7.31.71,5.78,5.78,0,0,1-3.85-2.14c-2.59-3.16-5.14-6.36-8-9.27-3.68-3.77-7.63-7.27-11.46-10.89-.64-.6-1.33-1.16-1.93-1.8a3.33,3.33,0,0,1-.67-3.78,3.23,3.23,0,0,1,3.24-2.05,25.74,25.74,0,0,1,4.29.4,104.35,104.35,0,0,0,31.24,1.65,11.7,11.7,0,0,0,3.58-1.19c1.59-.74,3.08-1.67,4.64-2.48a6.09,6.09,0,0,1,6.18.31,12.23,12.23,0,0,1,2.55,1.77c4.23,4.13,8.52,8.21,12.57,12.51A39.76,39.76,0,0,1,275,330.55c1.39,2.88,2.91,5.69,4.37,8.54,1.3,2.56.73,4.24-1.81,5.46-3.59,1.72-7.13,3.6-10.8,5.15A33.49,33.49,0,0,1,261.23,351.13Z" transform="translate(-0.48 -0.48)"/><path class="cls-2" d="M627.87,213.68a46,46,0,0,0,2.56,13.63c.8,2.17,1.59,4.35,2.4,6.52,1.56,4.15.1,7.85-3.73,9.57a49.72,49.72,0,0,1-14.05,3.8,34.91,34.91,0,0,1-7.37.08c-4.7-.38-7.76-3.36-10.36-7-2.71-3.78-3.32-8.18-4-12.63a191.14,191.14,0,0,1-2.25-27.45,57.4,57.4,0,0,0-2.23-14.89c-.47-1.72-.43-3.16,1-4.33,1.19-1,2.72-.82,4.44.24,5,3.12,10.14,6.08,15.05,9.36a80,80,0,0,1,14.5,12.5c.16.17.33.34.49.52C627.73,207.34,627.88,207.74,627.87,213.68Z" transform="translate(-0.48 -0.48)"/><path class="cls-2" d="M477.81,258.35c-4,0-8-.06-12,0-2.48.05-4.95.28-7.42.47a4.14,4.14,0,0,1-3.63-1.45l-9-10.29c-.57-.66-1.08-1.39-1.71-2a21.42,21.42,0,0,1-5.73-9.82c-.28-1-.46-2-.8-3-1.58-4.51-.82-8.8,1-13a84.26,84.26,0,0,1,12.33-20.47c.36-.42.64-.92,1-1.37,2-2.7,5.05-2.94,7-.25,3,4.22,5.93,8.53,8.61,13a219.84,219.84,0,0,1,16.25,34.16,61.87,61.87,0,0,1,2.21,7.33c.66,2.55-.08,4.09-2.3,5.43C480.79,258.73,480.79,258.73,477.81,258.35Z" transform="translate(-0.48 -0.48)"/><path class="cls-2" d="M91.75,342.55c0-2.48,0-5,0-7.44a11.08,11.08,0,0,1,1.17-5.06,74.38,74.38,0,0,1,18.26-22.93c4.34-3.78,8.89-7.32,13.33-11,1.53-1.27,3-2.56,4.54-3.89,2-1.82,5.22-1.1,5.68,1.54.92,5.26,2.78,10.35,2.92,15.76a42.4,42.4,0,0,1-.77,10.73,19.09,19.09,0,0,1-4.49,8.34c-5.24,6-10.43,12.11-15.45,18.32a56.09,56.09,0,0,0-9,16,49,49,0,0,1-2.09,4.84,7.77,7.77,0,0,1-1.63,2.33,3.15,3.15,0,0,1-4.81-.51c-1.83-2.71-3.7-5.41-5.25-8.28a16.13,16.13,0,0,1-1.81-5.65c-.51-4.36-.67-8.75-1-13.13Z" transform="translate(-0.48 -0.48)"/><path class="cls-2" d="M225.25,302.58a50.23,50.23,0,0,1-17-1.17,34.5,34.5,0,0,0-7.12-.77c-4.08-.17-8.15-.28-12.06-1.64-2.83-1-5.46-2.26-7.2-4.86a4.18,4.18,0,0,1-.8-1.45c-.58-4.07-1.53-8-.51-12.28a103.25,103.25,0,0,0,3.3-22.48c0-2.46-.33-4.92-.53-7.38,0-.4-.15-.79-.16-1.19a3.37,3.37,0,0,1,4.93-3.26,11,11,0,0,1,2.74,1.9,124.12,124.12,0,0,1,9.4,9.23,112.1,112.1,0,0,0,15.87,15.24c5,4,10.14,7.79,15.07,11.85a68.44,68.44,0,0,1,6.05,6.11,7.93,7.93,0,0,1,1.27,2c1.92,4.07,1.65,5.7-3.18,8.24C231.44,302.74,227.3,302.37,225.25,302.58Z" transform="translate(-0.48 -0.48)"/><path class="cls-2" d="M358.65,325.38c6.08-.94,10.9,1.69,15.36,5.35a32,32,0,0,1,3.9,3.53,4.36,4.36,0,0,1,1,2.79,81.24,81.24,0,0,1-1.17,10.7,62.4,62.4,0,0,1-2.84,8.61,5.66,5.66,0,0,1-2.71,2.92,42.86,42.86,0,0,1-18.07,5.94c-1.19.09-2.37.31-3.57.42a16.29,16.29,0,0,1-9.55-1.66,107.28,107.28,0,0,0-15.18-6.46,20.86,20.86,0,0,1-9.7-6.77c-2.34-3-2.59-4.89-.5-8s4.49-6.41,6.93-9.47a7.42,7.42,0,0,1,3.16-2,90.43,90.43,0,0,1,25.95-5.42C354,325.64,356.34,325.52,358.65,325.38ZM327.2,343.94c.19,1,.31,2.05.59,3a3.12,3.12,0,0,0,3.33,2.51,3.5,3.5,0,0,0,3.56-2.65,5.65,5.65,0,0,0-.86-5c-.68-.91-1.3-1.83-2.53-2C329.19,339.46,327.2,340.69,327.2,343.94Zm41.24-5.33a17.36,17.36,0,0,0-.85-3,3.57,3.57,0,0,0-3.79-1.89,3.39,3.39,0,0,0-2.62,3,8.21,8.21,0,0,0,.62,4.67,3.23,3.23,0,0,0,5.86.16A20.28,20.28,0,0,0,368.44,338.61Z" transform="translate(-0.48 -0.48)"/><path class="cls-2" d="M681.61,246.75c0,2.66-1.77,4.3-4,4.13-6.9-.53-13.29,1.33-19.44,4.17a16.06,16.06,0,0,0-3.71,2.61,94.22,94.22,0,0,0-18.14,21.56c-1.69,2.71-3.35,5.45-4.93,8.22a3.58,3.58,0,0,1-3.69,2.1,3.62,3.62,0,0,1-3.42-2.55c-1.85-5.53-3.74-11.05-5.46-16.61-1.11-3.58-2-7.24-2.91-10.87-.74-2.92.62-4.69,3.68-4.64a38.27,38.27,0,0,0,10.65-1.44,29.75,29.75,0,0,0,11.81-6.59c2.68-2.33,3-5.08,2-8.24-1.56-4.95-3.13-9.9-4.65-14.86-.52-1.68-.94-3.38-1.37-5.09a7.5,7.5,0,0,1-.27-1.89,3.18,3.18,0,0,1,1.88-3.09,3.36,3.36,0,0,1,3.61.41c2.88,2,5.72,4.08,8.69,5.95,7.75,4.89,14.47,11,21.09,17.3,2.55,2.41,5,4.91,7.43,7.45A7.58,7.58,0,0,1,681.61,246.75Z" transform="translate(-0.48 -0.48)"/><path class="cls-2" d="M583.79,214.36c0,1.91,0,3.83,0,5.75a13.61,13.61,0,0,1-.33,2.85c-.63,2.53-2.5,3.76-5,3.15a28,28,0,0,1-5.41-1.89c-10.74-5.11-21.44-10.33-32.18-15.44-3.09-1.47-6.29-2.74-9.48-4-1.42-.56-2.64-1.17-2.91-2.83s.55-2.83,1.91-3.8q9.46-6.75,18.84-13.61c4.31-3.16,8.55-6.44,12.84-9.63,3.18-2.35,6.58-3.44,10.55-2a20.67,20.67,0,0,1,6.57,3.32,4.36,4.36,0,0,1,1.66,3.06c.6,6,1.31,12.07,1.86,18.11.52,5.65.88,11.31,1.31,17Z" transform="translate(-0.48 -0.48)"/><path class="cls-2" d="M524.59,313.82a8.24,8.24,0,0,1,1.4-2.65c8.42-7.76,12.8-17.79,16.14-28.41,1-3.19,1.82-6.44,2.75-9.65a4.86,4.86,0,0,1,3.16-3.64c1.88-.59,3.7-.52,5,1.23,2,2.77,4,5.59,5.93,8.4.51.72.89,1.52,1.42,2.22a114.71,114.71,0,0,1,12.31,21.06c.21.44.44.86.61,1.31,1.29,3.29.49,4.58-2.78,6-12.63,5.62-23.9,13-30.75,25.54-1.3,2.38-2.26,4.93-3.38,7.4a11.66,11.66,0,0,1-.68,1.53,3.26,3.26,0,0,1-3.45,1.64,3.14,3.14,0,0,1-2.76-2.63c-.48-2.51-.84-5-1.27-7.56-1.09-6.46-2.21-12.91-3.31-19.36C524.8,315.65,524.75,315,524.59,313.82Z" transform="translate(-0.48 -0.48)"/><path class="cls-2" d="M167.27,245.22a17.92,17.92,0,0,1,3,.56,3.23,3.23,0,0,1,1.38,5.27,13.58,13.58,0,0,1-3.81,3.23c-7.14,3.37-13.41,8.08-19.76,12.61-9,6.46-17.79,13.31-26.66,20-2.18,1.64-4.35,3.26-6.56,4.84a5.57,5.57,0,0,1-6.5.27q-7.91-4.53-15.86-9a42.62,42.62,0,0,0-4.29-2.11c-2.48-1-3.26-3.47-1.65-5.62a9.87,9.87,0,0,1,1.94-1.76,114.41,114.41,0,0,1,26.78-14.78c10.61-4.24,21.32-8.27,32.5-10.7,6.38-1.39,12.92-2,19.38-3Z" transform="translate(-0.48 -0.48)"/><path class="cls-2" d="M540.48,236.82c-.26,1.57-.57,4-1.08,6.45a108,108,0,0,0-2.22,17.81A121.84,121.84,0,0,1,534.35,280c-.74,3.67-1.79,7.28-2.88,10.87a21,21,0,0,1-2.09,4.29c-2.07,3.53-6.23,3.85-8.71.64a23.66,23.66,0,0,1-2.78-4.45q-7.28-15.78-14.4-31.63c-1.63-3.64-3-7.39-4.49-11.11-.94-2.38-.41-4.48,1.75-5.85a36.15,36.15,0,0,1,6.13-3.21c9.5-3.65,19.42-5.82,29.37-7.79C539.06,231.2,540.64,232.83,540.48,236.82Z" transform="translate(-0.48 -0.48)"/><path class="cls-2" d="M82.2,318.6c-9.47-.4-16.7,4.08-22.69,10.85a42.51,42.51,0,0,0-5.27,8,131.41,131.41,0,0,1-11.49,17.64,3.34,3.34,0,0,1-4.24,1.17,3.41,3.41,0,0,1-1.93-4c3-11.25,5.93-22.55,11.24-33,2-4.06,4-8.21,6.33-12.07A81.2,81.2,0,0,1,73.3,286.24c1.89-1.5,3.94-1.44,6-.29,6.65,3.65,13.33,7.24,20,10.86,1.12.6,2.29,1.13,3.37,1.81,2,1.26,2.46,3.31,1,5.13a71.78,71.78,0,0,1-13.65,13.38C88.33,318.41,85.81,318.79,82.2,318.6Z" transform="translate(-0.48 -0.48)"/><path class="cls-2" d="M529.44,166.33c5.84.13,11.68.15,17.39,1.59a12.84,12.84,0,0,1,1.39.35,3.48,3.48,0,0,1,1.81,5.29,11.83,11.83,0,0,1-2.9,3.12c-10.06,7.1-20.31,13.89-30.92,20.14a8,8,0,0,1-6,.75,201.09,201.09,0,0,1-27.64-7.77c-3.15-1.12-6.45-1.82-9.68-2.72-2.33-.66-3.4-2.24-3.06-4.42a4.08,4.08,0,0,1,1.93-2.59c5.62-4.32,12.12-6.77,18.83-8.66A126,126,0,0,1,516.76,167C521,166.69,525.21,166.54,529.44,166.33Z" transform="translate(-0.48 -0.48)"/><path class="cls-2" d="M421,312.13c-2.8,0-4.2-1.62-4-3.82.4-4.28.88-8.56,1.24-12.85a45.8,45.8,0,0,0,.15-5.74c-.25-5.27-.3-10.57-1-15.78-.61-4.54.3-8.7,1.59-12.91a70.4,70.4,0,0,1,7.3-16.62,8.13,8.13,0,0,1,1.49-1.86,3.3,3.3,0,0,1,5.29.83c1.71,2.69,3.55,5.31,5.15,8.07,2.63,4.56,5.2,9.16,7.62,13.84,1.8,3.46,3.33,7.07,5,10.62.24.51.43,1,.64,1.55a7.27,7.27,0,0,1-.81,7.22,64.64,64.64,0,0,1-8.3,10.51,139.15,139.15,0,0,1-18.12,15.28A19.56,19.56,0,0,1,421,312.13Z" transform="translate(-0.48 -0.48)"/><path class="cls-2" d="M476.57,268.26c1.52,0,3.05-.12,4.55,0a4.5,4.5,0,0,0,3.87-1.45c1.36-1.36,2.69-2.74,4-4.11,1.65-1.71,3.5-1.85,5.25-.26A8.26,8.26,0,0,1,496,264.7c2.51,4.84,4.64,9.81,5.34,15.3a6.2,6.2,0,0,1-.58,3.91A74.45,74.45,0,0,1,492,297c-3.28,3.91-6.82,7.61-10.25,11.41-2.4,2.66-4.86,5.29-7.2,8s-4.46,2.58-6.6-.29c-3.67-4.93-7.44-9.79-11.17-14.68-.29-.38-.6-.75-.89-1.13-1.87-2.44-1.62-3.83.74-5.88,1.51-1.31,2.79-2.86,4.22-4.25a42.45,42.45,0,0,1,3.72-3.39,2.48,2.48,0,0,0,.89-3.15c-1.15-3.22-2.24-6.47-3.48-9.66-1-2.6.34-5,3.12-5.15,3.82-.25,7.65-.47,11.47-.7Z" transform="translate(-0.48 -0.48)"/><path class="cls-2" d="M83.58,333.09c-.28.86-.69,2.31-1.23,3.72-2.08,5.47-3.2,11.05-1.69,16.87A11.11,11.11,0,0,0,82,356.93c2,3.15,4.25,6.19,6.34,9.32a26.79,26.79,0,0,1,4.22,8.55A3.6,3.6,0,0,1,88,379.24a4.74,4.74,0,0,1-1.44-.83,15.12,15.12,0,0,0-7.36-3.22c-13.49-2.25-26.41-.28-38.9,5.09-1.09.47-2.13,1.08-3.24,1.5a3.44,3.44,0,0,1-4-.81,3.92,3.92,0,0,1-.71-4.26,9,9,0,0,1,1.35-2.24,132.61,132.61,0,0,1,13.51-14.92,69.06,69.06,0,0,0,10.06-12.16c4.46-6.95,9.88-13,17.14-17.13,1-.59,2.17-1,3.19-1.64C80.47,326.85,83.37,328.55,83.58,333.09Z" transform="translate(-0.48 -0.48)"/><path class="cls-2" d="M556,228.09a68.82,68.82,0,0,1,7.8,2.5,93.4,93.4,0,0,1,21.57,13.29,24,24,0,0,0,2.75,1.9,3.55,3.55,0,0,1,1.89,4c-.32,1.65-.63,3.3-1.08,4.91q-2.87,10.39-5.82,20.76a12.46,12.46,0,0,1-3.59,6.37c-1.46,1.27-3,1.58-4.59.49a20.17,20.17,0,0,1-3.23-2.75c-1.59-1.67-3-3.58-4.59-5.19q-8.46-8.33-17.07-16.5a4.32,4.32,0,0,1-1.44-3.62q.57-8.73,1.18-17.45.18-2.4.48-4.77C550.63,229.1,551.93,228,556,228.09Z" transform="translate(-0.48 -0.48)"/><path class="cls-2" d="M288.07,475.87a110.46,110.46,0,0,1,3.15-27.52c1.52-6.12,2.82-12.29,4.54-18.35a91.44,91.44,0,0,1,3.92-9.75,9.84,9.84,0,0,1,.77-1.21c1.86-3,4.85-3.51,7.57,0a32.65,32.65,0,0,1,2.79,4.46,67.17,67.17,0,0,1,8,23.19,9.34,9.34,0,0,1-.82,5.1,21.31,21.31,0,0,1-4.75,6.84c-5,5-5,5-6,11.89-.52,3.39-1.12,6.78-1.89,10.12a36.34,36.34,0,0,1-1.84,4.9c-.88,2.28-2.83,2.95-5,3.07a16.51,16.51,0,0,1-8.69-2.28,3.44,3.44,0,0,1-1.73-3.23C288.06,480.67,288.07,478.27,288.07,475.87Z" transform="translate(-0.48 -0.48)"/><path class="cls-2" d="M172.79,327.37a120.75,120.75,0,0,1,2.12-19.75,6,6,0,0,1,.86-2.21,3.18,3.18,0,0,1,4.22-1.1,10.91,10.91,0,0,1,2,1.29,80.58,80.58,0,0,1,14.84,14.91c3.4,4.64,6.87,9.24,10.2,13.92a56.37,56.37,0,0,1,3.27,5.57c2,3.7.36,6.29-2.23,8.34-6.37,5-13.68,8.15-21.4,10.41-1.37.4-2.78.73-4.18,1-2.21.43-3.63-.14-4.38-2.31a64.34,64.34,0,0,1-3.17-11C173.87,339.32,173.31,332.15,172.79,327.37Z" transform="translate(-0.48 -0.48)"/><path class="cls-2" d="M473.5,195.33c.76.17,1.85.4,2.93.67,18.63,4.64,36.71,11,54.59,17.9,2.22.86,4.4,1.87,6.56,2.87a3.12,3.12,0,0,1,1.95,3,3,3,0,0,1-2.2,3.09c-2.67.83-5.35,1.6-8.07,2.22-9.19,2.07-18.44,3.88-27.58,6.16a9.45,9.45,0,0,1-9.91-3c-2.68-2.85-5.08-5.95-7.63-8.92A197.6,197.6,0,0,1,470.6,202a5,5,0,0,1-1.12-3.31C469.67,196.67,471.13,195.33,473.5,195.33Z" transform="translate(-0.48 -0.48)"/><path class="cls-2" d="M367,393.49c-.42,1.72-.76,3.26-1.19,4.77-1,3.56-2.56,4.32-6,3l-7.4-2.81a2.4,2.4,0,0,0-.55,0c-.63.75-1.4,1.64-2.14,2.56-1.4,1.74-2.75,3.53-4.2,5.23-1.95,2.29-4.65,2-6-.68a39.88,39.88,0,0,1-1.65-4.27c-.94.07-1.95.14-2.95.24s-2.23.34-3.34.36a3.26,3.26,0,0,1-3.38-4.48,9.89,9.89,0,0,1,1.17-2.61,5.23,5.23,0,0,0,.45-5.81,5.57,5.57,0,0,1-.45-1.36c-.57-2.42.5-4.08,2.95-4.53,1-.18,2.06-.3,3.09-.42s1.88-.18,3.15-.3c-.13-1.78-.23-3.43-.38-5.07-.44-4.8,1.06-6.35,5.73-5.29a48.69,48.69,0,0,0,15.73.79,46.42,46.42,0,0,0,7.2-1.69,24.38,24.38,0,0,0,2.68-1c3.25-1.3,5.7.27,5.93,3.82a35,35,0,0,1,.09,3.83,5.33,5.33,0,0,0,1.15,3.56c.91,1.21,1.73,2.49,2.56,3.76,1.39,2.12,1.68,4.28.19,6.49-.36.53-.61,1.12-.95,1.66a4.93,4.93,0,0,1-5.79,2.23c-.92-.27-1.82-.62-2.72-.93Z" transform="translate(-0.48 -0.48)"/><path class="cls-2" d="M521.31,340.36a3.2,3.2,0,0,1-1.77,2.92c-1.52.87-2.82.32-4.21-.55-5.28-3.32-10.62-6.52-16.81-7.94a11.92,11.92,0,0,0-7.28.5c-3.63,1.45-7.3,2.84-10.84,4.51a5.74,5.74,0,0,1-7.6-2.84,5.33,5.33,0,0,1,.71-5.62,32,32,0,0,1,3.73-4.34,38.62,38.62,0,0,1,4-3.48,56.41,56.41,0,0,0,11.63-12.65c2.25-3.2,4.59-6.34,6.86-9.53a14.3,14.3,0,0,0,1.57-2.66c1.37-3.28,5.19-3.14,7-.54a48.6,48.6,0,0,1,8.16,20.5,54.81,54.81,0,0,0,1.55,6A74.55,74.55,0,0,1,521.31,340.36Z" transform="translate(-0.48 -0.48)"/><path class="cls-2" d="M422.56,336.89c1.46.35,3.41.79,5.33,1.29a170.15,170.15,0,0,1,19.86,7c3,1.21,6.12,2.31,9.19,3.45,3.57,1.32,4.24,4.09,1.34,6.46-5.88,4.79-11.86,9.46-17.88,14.07-3.11,2.38-6.37,4.56-9.61,6.75a19.62,19.62,0,0,1-3.79,2,3.61,3.61,0,0,1-4.68-1.29c-2.87-3.73-5.65-7.53-8.53-11.26a5,5,0,0,1-.9-4.27c.85-4.39,1.61-8.79,2.44-13.18.4-2.11.84-4.21,1.3-6.31C417.3,338.5,419.21,336.84,422.56,336.89Z" transform="translate(-0.48 -0.48)"/><path class="cls-2" d="M619.52,301.53c0,3-1.85,4.59-4.43,4.1-3.05-.58-6.05-1.51-9.13-1.94a45.82,45.82,0,0,0-18.53,1.13,4.09,4.09,0,0,1-3.8-.77c-2.59-1.94-4.12-4.67-5.55-7.42a3.16,3.16,0,0,1,2.44-4.73c4-.26,5.75-3,6.86-6.1,1.55-4.35,2.76-8.83,4-13.29s2.31-9,3.48-13.45a3.39,3.39,0,0,1,2.69-2.75,3.32,3.32,0,0,1,3.67,1.68c5,8.06,10.24,16,13.86,24.89C617.57,289,618.61,295.45,619.52,301.53Z" transform="translate(-0.48 -0.48)"/><path class="cls-2" d="M398.34,460.79c.19,5.59-2.21,9.63-5.55,13.25-2.82,3-5.89,5.89-7.5,9.85-.87,2.14-1.75,4.27-2.57,6.43s-1.84,2.91-3.63,2.8-2.8-1.11-3.2-3.28c-.34-1.88-.37-3.83-.86-5.67q-1.75-6.59-3.82-13.09a57,57,0,0,1-2.72-13.57c-.21-3.06.47-5.67,2.86-7.75,2-1.77,3.9-3.82,6.09-5.39a21,21,0,0,0,5.49-6.52,28.19,28.19,0,0,1,3.1-4.49c2.57-2.77,7.14-3,8.94,2.26a8.2,8.2,0,0,1,.37,1.63q1.52,11.28,3,22.55A5.24,5.24,0,0,1,398.34,460.79Z" transform="translate(-0.48 -0.48)"/><path class="cls-2" d="M406.92,452.55c0-1.67.07-3.35,0-5a17.58,17.58,0,0,0-2.7-9.26c-1.79-2.69-1.93-6-2-9.24s-.07-6.55,0-9.83c.16-6.83-1.22-13.49-2.07-20.22,0-.31-.17-.62-.2-.93a3.47,3.47,0,0,1,2.29-3.56,3.25,3.25,0,0,1,4,1.3c.69,1.07,1.21,2.25,1.83,3.37,2.6,4.67,5.27,9.31,7.8,14,4.68,8.7,9.63,17.29,13.05,26.61a34.86,34.86,0,0,1,1.34,6,3.91,3.91,0,0,1-1.23,3.47,60.91,60.91,0,0,1-14.47,11.34,11,11,0,0,1-3.13,1.12c-3,.57-4.77-1.13-4.6-4.16.1-1.67.16-3.35.24-5Z" transform="translate(-0.48 -0.48)"/><path class="cls-2" d="M404.77,335.37c.76.93,1.47,1.79,2.17,2.66,1.66,2.06,1.69,3.49,0,5.54-1.32,1.59-2.76,3.08-4.22,4.69,1.07,1.34,2.09,2.56,3.06,3.82,1.5,1.95,1.41,3.59-.37,5.3-1.09,1-2.3,2-3.6,3.06l1.37,2.22c1.38,2.22,1.31,3.5-.58,5.3a31.18,31.18,0,0,1-3.42,2.61c-1.76,1.28-2.22,3.21-.84,4.87s1.54,3.37.2,5.19a6.25,6.25,0,0,0-.56,1.79,3.32,3.32,0,0,1-3.88,2.42,67,67,0,0,1-6.79-1.4,4.26,4.26,0,0,1-2.38-1.81,18.14,18.14,0,0,1-1.91-5.11c-.64-3.29-1-6.61-2.74-9.6a4.32,4.32,0,0,1,.33-5c4.58-6.19,5.34-13.37,5.43-20.72,0-.72,0-1.44-.07-2.16a4.39,4.39,0,0,1,1.67-3.79c4.61-3.84,9.19-7.71,13.83-11.51,1.84-1.51,4-1.07,5.37.91l.12.21c3.13,4.92,2.89,6.32-1.73,9.89A4.26,4.26,0,0,0,404.77,335.37Z" transform="translate(-0.48 -0.48)"/><path class="cls-2" d="M392.14,400.94q.36,3.21.73,6.42c.37,3.26.75,6.51,1.11,9.76a7.7,7.7,0,0,1,0,1c.06,3.49-2.38,5.5-5.75,4.75-5.21-1.17-4-1.15-6.73,2.53-3.12,4.25-6.16,8.56-9.39,12.73a13.34,13.34,0,0,1-3.93,3.4c-3.12,1.72-5.5.45-6.07-3.06-.45-2.76-.75-5.54-1.12-8.31q-1-7.37-1.94-14.72a4.11,4.11,0,0,1,4.18-4.91c2.06-.11,4.13-.31,6.18-.62a4.76,4.76,0,0,0,2.07-1c4.13-3.26,8.23-6.57,12.33-9.87.87-.7,1.72-1.42,2.56-2.14a3.55,3.55,0,0,1,4-.67,3.28,3.28,0,0,1,1.85,3.57c0,.4,0,.8,0,1.2Z" transform="translate(-0.48 -0.48)"/><path class="cls-2" d="M315,385.35c-1.14.2-1.91.36-2.69.46-3.49.44-5.3-1.2-5.21-4.69,0-1.5,0-3,0-4.74l-3.31.62a4.49,4.49,0,0,1-5.32-3.28c-.74-2.85-1.34-5.74-2.06-8.89-1.06-.07-2.15-.12-3.23-.21-2.64-.21-3.7-1.18-4.07-3.8a11,11,0,0,1,0-2.15c.14-2.07.41-4.14.44-6.21,0-2.68,1.63-4.24,3.71-5.44a3.56,3.56,0,0,1,4.41.76c4.38,5.37,10.51,8.26,16.26,11.66,3.69,2.18,7.72,3.78,11.54,5.75a14,14,0,0,1,3.44,2.53c3.18,3.26,2.33,7.74-1.76,9.78a6.71,6.71,0,0,0-3.91,6.11,20.26,20.26,0,0,1-.82,4.9,5,5,0,0,1-1.87,2.38,3.27,3.27,0,0,1-5.15-2.19C315.16,387.69,315.11,386.66,315,385.35Z" transform="translate(-0.48 -0.48)"/><path class="cls-2" d="M291.48,374.42c-.74,2.43-1.31,4.92-2.24,7.27-1.35,3.42-2.93,6.74-4.46,10.08-1,2.26-2.42,3.07-4.78,2.41-5.82-1.62-11.32-3.91-15.45-8.58a8.09,8.09,0,0,1-1.45-2.43q-3.81-9.57-7.53-19.17c-1-2.69,0-4.56,2.74-5.18,2.33-.52,4.63-1.19,7-1.74s4.81-1.17,7.24-1.6c2.84-.51,4.18.15,5.44,2.72,1.36,2.79,2.62,5.64,3.8,8.52a3.8,3.8,0,0,0,3.49,2.74,16,16,0,0,1,2.36.41C290.41,370.48,291.23,371.51,291.48,374.42Z" transform="translate(-0.48 -0.48)"/><path class="cls-2" d="M164.08,306.34a8.65,8.65,0,0,1-2.24-1,42.74,42.74,0,0,1-5.15-4.63,68,68,0,0,0-8.85-8,37.29,37.29,0,0,1-5.16-5.27,3.45,3.45,0,0,1-.14-4.64,88.2,88.2,0,0,1,5.74-7A72.43,72.43,0,0,1,165,263a53.45,53.45,0,0,1,5.06-2.7,3.29,3.29,0,0,1,4,.76,3.37,3.37,0,0,1,.55,3.81,40.65,40.65,0,0,0-2.69,11.36c-.67,5.22-.94,10.49-1.61,15.71-.51,4-1.3,7.87-2.12,11.77C167.8,305.59,166.52,306.38,164.08,306.34Z" transform="translate(-0.48 -0.48)"/><path class="cls-2" d="M463.71,332.75c-.14,4.61-2.57,6.53-6.64,6.07-5.29-.6-10.18-2.7-15.28-4-1.7-.43-3.32-1.16-5-1.57-4.45-1.06-8.13-3.67-12-5.87-2.36-1.33-2.42-4.13-.19-5.76,2.46-1.78,5-3.39,7.6-5q5.76-3.69,11.55-7.3a23.78,23.78,0,0,1,3.58-1.93,3.25,3.25,0,0,1,4.25,1.17c3.37,5.42,7,10.71,9.54,16.6.82,1.91,1.53,3.87,2.22,5.82A11.92,11.92,0,0,1,463.71,332.75Z" transform="translate(-0.48 -0.48)"/><path class="cls-2" d="M313.54,398.31c1.5-.23,2.65.6,3.74,1.6,4.19,3.82,8.48,7.55,12.55,11.49a11.29,11.29,0,0,0,6.06,3.07c1.57.28,3.16.47,4.75.6a6.19,6.19,0,0,0,4.73-1.31,6.07,6.07,0,0,1,.81-.5c2.87-1.65,4.49-1.36,5.84,1.06,1.56,2.77.92,5.66-1.58,7.06-1.32.74-2.67,1.43-4,2.17a28.2,28.2,0,0,0-9.62,8.14A29.2,29.2,0,0,1,334,435c-1.88,2-5.21,1.87-6.38-.51-3.94-8-10.46-14.09-15.58-21.2a55.86,55.86,0,0,1-3.08-4.85c-1.24-2.22-.52-7.13,1.18-9A3.78,3.78,0,0,1,313.54,398.31Z" transform="translate(-0.48 -0.48)"/><path class="cls-2" d="M281.09,418.26a60.23,60.23,0,0,1,1.62-6.28c1.71-4.62,3.55-9.21,5.44-13.76,1.38-3.31,2.88-6.57,4.41-9.82a3.31,3.31,0,0,1,5.4-1,61,61,0,0,1,4.27,4.53,3.82,3.82,0,0,1,.68,4c-3,9-7.13,17.41-11.36,25.82a9.76,9.76,0,0,1-1.35,2,4.62,4.62,0,0,1-7.6-.85A32.87,32.87,0,0,1,281.09,418.26Z" transform="translate(-0.48 -0.48)"/><path class="cls-2" d="M424.76,397.56c-.36,2.07-1,3.68-2.57,4.72a3.4,3.4,0,0,1-4.66-1,17.84,17.84,0,0,1-2.08-4c-1.86-5.27-5.15-9.72-8-14.43a7.29,7.29,0,0,0-1.16-1.2c-1.8-1.88-1.48-4.55.78-6.51a4.07,4.07,0,0,1,5.76.56,51.18,51.18,0,0,1,6.82,10.1c1.29,2.56,2.68,5.08,3.87,7.7A28.92,28.92,0,0,1,424.76,397.56Z" transform="translate(-0.48 -0.48)"/><path class="cls-1" d="M327.2,343.94c0-3.25,2-4.48,4.09-4.15,1.23.2,1.85,1.12,2.53,2a5.65,5.65,0,0,1,.86,5,3.5,3.5,0,0,1-3.56,2.65,3.12,3.12,0,0,1-3.33-2.51C327.51,346,327.39,345,327.2,343.94Z" transform="translate(-0.48 -0.48)"/><path class="cls-1" d="M368.44,338.61a20.28,20.28,0,0,1-.78,2.95,3.23,3.23,0,0,1-5.86-.16,8.21,8.21,0,0,1-.62-4.67,3.39,3.39,0,0,1,2.62-3,3.57,3.57,0,0,1,3.79,1.89A17.36,17.36,0,0,1,368.44,338.61Z" transform="translate(-0.48 -0.48)"/></svg>