<svg id="Layer_1" data-name="Layer 1" xmlns="http://www.w3.org/2000/svg" viewBox="0 0 720 612"><defs><style>.cls-1{fill:none;stroke:#000;stroke-miterlimit:10;stroke-width:0.01px;}</style></defs><path d="M.48,612.48V.48h720v612ZM235.74,106.93c-6.86.49-13.71,1-20.56,1.5a117.07,117.07,0,0,0-38.3,10,11,11,0,0,0-2.82,1.77,3.4,3.4,0,0,0,1.11,6c.66.26,1.39.38,2.07.6a11.08,11.08,0,0,1,7.94,11,18.79,18.79,0,0,1-1.46,7.46,13.85,13.85,0,0,0-.43,10.74c1.43,3.86,4.27,5.77,8.34,5.31a18.67,18.67,0,0,0,5.25-1.51,34.24,34.24,0,0,0,9.72-6.51,11.33,11.33,0,0,1,10.22-2.83c1.17.21,2.33.54,3.51.77a8.2,8.2,0,0,1,6.19,4.71c2.25,4.48,7.41,6.93,12.38,6.49a35,35,0,0,0,14.57-5.12,27,27,0,0,0,12-15,65.09,65.09,0,0,0,3.86-17c.22-3.34.34-6.69.49-10,.13-2.8-1.11-4.93-5.18-5.8A122,122,0,0,0,235.74,106.93Zm-175.26,288a17.86,17.86,0,0,1-1.41,1.24q-2.57,1.75-5.18,3.46c-1.67,1.09-2.35,2.42-2,4s1.5,2.4,3.56,2.59c.52.05,1,.2,1.6.31-.15.4-.18.68-.33.82-2.41,2.18-4.39,4.89-7.59,6.11a7.14,7.14,0,0,0-1.81,1.16,3.32,3.32,0,0,0-1.21,3.83,3.16,3.16,0,0,0,3.11,2.2c.84,0,1.68.08,2.68.12a9.26,9.26,0,0,1-.41,1.34c-1.56,3-4.16,4.51-7.3,5.3q-2.91.74-3,3.25a3.45,3.45,0,0,0,3,3.53c.74.17,1.52.19,2.82.34a17.21,17.21,0,0,1-2.41,2c-3.36,1.84-6.75,3.61-10.16,5.35a3.42,3.42,0,0,0-2.09,3,3.2,3.2,0,0,0,1.64,3l1.43.85c-.31.71-.58,1.28-.81,1.87-2.05,5-2.14,10,1,14.63.85,1.26,1.7,2.51,2.59,3.75,4.74,6.61,11.43,10.83,18.3,14.83,3.45,2,6.92,4,10.38,6,2.05,1.18,5.65.39,6.52-1.67a21.29,21.29,0,0,0,1.52-5.51c.48-3.87.55-7.8,1-11.67a39.42,39.42,0,0,1,1.9-9.34,71.57,71.57,0,0,1,5.75-11.31c3.65-6,7.73-11.75,11.38-17.76a36.7,36.7,0,0,0,3.56-8.08,13.94,13.94,0,0,0-2-12.56,51.27,51.27,0,0,0-6.73-7.46q-9.28-9.16-18.61-18.31a5.29,5.29,0,0,0-6.78-.76c-1.72,1-3.46,2-5.17,3A3.33,3.33,0,0,0,59,394.1,13.8,13.8,0,0,0,60.48,394.91Zm80-188.13c0,3.66.53,7.07,2.73,9.9a24.63,24.63,0,0,0,8.09,7c6,3.09,11.85,6.3,17.78,9.45.56.3,1.16.54,1.73.82a5.87,5.87,0,0,0,7.4-1.32c3.32-3.34,6.85-6.49,10.09-9.91a40.51,40.51,0,0,0,6.45-8A22.67,22.67,0,0,0,197,200.29c-.65-4.5-1.39-9-.94-13.58s-2-8-5.51-10.56a50.59,50.59,0,0,0-6.69-3.72c-3.46-1.81-7.14-3.2-9.94-6.14a4.28,4.28,0,0,1-1.56-3.53c.08-.8.1-1.6.2-2.39.64-5.16,1.31-10.31,2-15.46a10.77,10.77,0,0,0-5.2-11,16.24,16.24,0,0,0-18.83,1.08,39.16,39.16,0,0,0-8.34,9.52,5.85,5.85,0,0,0-.55,5.47,24.61,24.61,0,0,0,1.43,3q2.23,4.11,4.53,8.18a66.63,66.63,0,0,1,5.18,12.36,7.65,7.65,0,0,1-.39,6.06c-1.38,2.69-2.83,5.36-4.31,8-1.6,2.86-3.4,5.61-4.87,8.53A22.37,22.37,0,0,0,140.5,206.78ZM80,287.49l.34.49c-.75,1-1.51,2-2.25,3a3.36,3.36,0,0,0,3,5.42c1.67-.15,3.33-.47,5-.53a26.74,26.74,0,0,1,5.94.17,49.17,49.17,0,0,1,6.83,2.16c6.37,2.25,12.28,1.64,17.54-2.83,2.56-2.17,5-4.48,7.51-6.71a73.82,73.82,0,0,1,6.14-5.34c8.85-6.28,16.32-13.78,21.68-23.32a26.85,26.85,0,0,0,3.63-11.8c.29-5.06-.82-9.62-4.9-13.17-3.35-2.91-8.64-3.71-12.49-1.42a25.22,25.22,0,0,0-3.21,2.45c-4.35,3.65-8.74,7.24-13,11s-9,4.12-13.94,2.74a22.53,22.53,0,0,1-9-5.21,56.22,56.22,0,0,0-11-7.68c-2.93-1.61-5.32-1.18-6.79,1.76-2.14,4.29-4.12,8.65-6,13.06-1,2.44.76,4.7,3.46,4.61.68,0,1.37-.13,2.15-.2a5.66,5.66,0,0,1-.07,1.12,30.82,30.82,0,0,1-3.75,8.77A18.3,18.3,0,0,0,75.09,269a3.51,3.51,0,0,0,2.52,5,19.12,19.12,0,0,0,2,.26,11.25,11.25,0,0,1-.8,2.1c-1.2,1.88-2.41,3.77-3.77,5.53-1.23,1.59-1.61,3-.83,4.36s2.17,1.91,4.14,1.5C78.88,287.63,79.42,287.57,80,287.49Zm269.86,86a2.74,2.74,0,0,1,.18.38c.74,2.22,1.7,3.11,3.39,3.12s3-1,3.46-3.33a40.46,40.46,0,0,0,.83-7.11,15.27,15.27,0,0,0-4.48-10.78,20.65,20.65,0,0,0-12.29-6.41c-1.19-.19-2.37-.38-3.53-.68a119.29,119.29,0,0,0-17-2.76,31.92,31.92,0,0,1-7.16-1.77,37.33,37.33,0,0,1-5.53-2.81,23.94,23.94,0,0,1-4-2.6,21,21,0,0,0-6.13-3.67,5.66,5.66,0,0,0-3.75-.16,17.64,17.64,0,0,0-8.62,5.8q-3.85,4.42-7.62,8.94A69.1,69.1,0,0,0,268.42,364a5.56,5.56,0,0,0,.09,5.5,13.76,13.76,0,0,0,2.4,3.24c2.11,1.95,4.38,3.73,6.6,5.56,1.47,1.22,2.95,2.44,4.47,3.61a2.62,2.62,0,0,1,1,3.19,48.5,48.5,0,0,1-2.09,5.06c-.86,1.73-.87,3.28.23,4.43a3.44,3.44,0,0,0,4.59.29c3.44-2.19,6.84-4.43,10.26-6.65.63-.41,1.23-.86,1.84-1.29a6.57,6.57,0,0,1-.07,3.2c-.79,3.05.73,5.31,3.84,5.52a5.62,5.62,0,0,0,4.31-1.1q3.38-3,6.63-6.19a34,34,0,0,0,2.27-2.67l.43.22a29.49,29.49,0,0,1-.89,2.85,3.46,3.46,0,0,0,.48,3.82,3.28,3.28,0,0,0,3.94.85,25.42,25.42,0,0,0,4.58-2A63.32,63.32,0,0,0,335,382.21c.36-.36.79-.65,1.26-1,.79,3.85,4.21,4.29,6.61,2a15.45,15.45,0,0,0,2.26-2.46C346.71,378.4,348.23,376,349.81,373.53Zm-56.54-260c-2.47.14-4.95.24-7.41.42a3.67,3.67,0,0,0-3.48,2.83,45.08,45.08,0,0,0-1.2,4.38,12,12,0,0,0,3.71,11.52c4.06,3.84,8.22,7.57,12.28,11.42,6.8,6.43,13.68,12.76,21.57,17.87a26.29,26.29,0,0,1,3.35,2.71,102.34,102.34,0,0,0,14.62,11.6c7.12,4.47,14.52,5.09,22.16,1.73,6-2.62,10.26-8.87,6.52-16.53a27.39,27.39,0,0,1-1.84-6.16,6.4,6.4,0,0,1,1.25-5.66,24.72,24.72,0,0,1,5.17-5.25c3.24-2.13,3.21-5.57.2-7.71a4.57,4.57,0,0,0-2-.81,47.36,47.36,0,0,0-4.76-.48,11.3,11.3,0,0,1-5-1.55c-4.44-2.53-8.86-5.11-13.47-7.29-9.71-4.62-20-7.62-30.43-10C307.55,115,300.52,113.61,293.27,113.53Zm114.49,233.2c-.15,1-.25,1.73-.39,2.49a41.27,41.27,0,0,1-3.61,10.12c-.87,1.82-1,3.56.33,5.17a5.25,5.25,0,0,0,5.69,1.33,27.08,27.08,0,0,0,5.3-2.73,11.68,11.68,0,0,1,12.41-1.33,11.36,11.36,0,0,1,4.13,2.72c.86.94,1.72,1.9,2.66,2.75a26,26,0,0,1,6.82,10,19.14,19.14,0,0,0,4.14,6.38c4.08,4.23,10.42,5.6,14.88,2.79,5.71-3.61,9.51-8.65,10.23-15.67a27.43,27.43,0,0,1,1.54-7.21,11.55,11.55,0,0,0,.15-8.38,130,130,0,0,0-6-14.83c-2.83-5.84-6.23-11.34-9.19-17.09a13.19,13.19,0,0,0-1.25-1.74,4.63,4.63,0,0,0-3.7-1.87c-4.1-.29-7.64,1.26-11.14,3.12a47,47,0,0,1-5.2,2.39c-3,1.14-5.44.44-7.87-1.76-4.43-4-9.1-7.8-13.79-11.52a12.22,12.22,0,0,0-4.31-1.89,3,3,0,0,0-3.49,1.51c-1.37,2.23-2.73,4.47-4.06,6.73-1.84,3.13-.81,5.47,2.71,6.19,1.23.25,2.48.44,3.92.69a11.74,11.74,0,0,1-.39,2.46c-1.21,3.12-2.47,6.22-3.81,9.28-.76,1.76-1.85,3.38-2.52,5.16-1.1,2.93.68,5.14,3.79,4.89C406.33,346.86,406.94,346.8,407.76,346.73ZM119.15,464.91c1,.42,1.68.78,2.41,1a3.45,3.45,0,0,0,4.42-4.47,32,32,0,0,1-1.66-6.21c-.36-3.78-2.36-6.06-5.57-7.74-2.89-1.52-5.63-3.34-8.44-5a6.93,6.93,0,0,0-4.34-1,10.55,10.55,0,0,0-6.1,3.08,24.92,24.92,0,0,0-5.8,8.15,73.46,73.46,0,0,0-5.69,18c-1.24,6.75-2.81,13.44-4.31,20.15a5,5,0,0,0,.86,4.47,18.68,18.68,0,0,0,5.31,4.76,78.33,78.33,0,0,0,17,7.78c5.66,1.85,11.54,2.43,17.4,3.23a65.46,65.46,0,0,0,24.51-1.27,20.83,20.83,0,0,0,12.42-8.8,6.62,6.62,0,0,0,.74-6.82q-2.08-4.71-4.39-9.31c-1.86-3.72-5.35-5.51-9-6.65a20.88,20.88,0,0,0-10.22-.31c-2.11.41-4.3,1.05-6.39.86a30.18,30.18,0,0,1-10.81-2.95,3.48,3.48,0,0,1-1.58-1.91A21.88,21.88,0,0,1,119.15,464.91ZM150,410.26a.77.77,0,0,1,.25.24,3.36,3.36,0,0,0,3.64,2.15,3.85,3.85,0,0,0,3.15-2.93c.79-2.43,1.75-4.81,2.49-7.25a24.23,24.23,0,0,0,1-10.17,62.34,62.34,0,0,0-1.83-7.93,17.75,17.75,0,0,0-5.3-9.2c-2.35-2.05-4.75-4.06-6.91-6.3a72.42,72.42,0,0,0-14.09-11.09c-5.35-3.35-11-4.71-17-1.16-6.53,3.93-9.15,8.93-7,16.27,1,3.52,2,7.07,3.06,10.59a43.31,43.31,0,0,1,1.81,11.32,51.06,51.06,0,0,1-3.44,20.65c-3.31,8.27.77,15.51,6.79,20.46,1.54,1.26,3.2,2.38,4.71,3.68,2,1.72,3.9,3.54,5.84,5.32a4.4,4.4,0,0,0,5.06,1c1.55-.85,2-2.18,1.69-4.55-.25-1.8-.44-3.61-.67-5.5a8.62,8.62,0,0,1,.94.08c3.3.74,5.07-.93,4.53-4.3-.16-1-.49-2-.68-3-.3-1.56-.64-3.12-.8-4.7-.07-.74,0-1.81,1.07-1.83.54,0,1.19.61,1.62,1.1a6.38,6.38,0,0,1,.68,1.52A3.3,3.3,0,0,0,147,423.6c.08-.63,0-1.28.18-1.89C148.11,417.91,149.07,414.12,150,410.26Zm63.66-166.7c0,2.62.45,5.31-1.56,7.62-1.1,1.27-2,2.68-3.06,4a15.84,15.84,0,0,0-3.56,11.38,12.13,12.13,0,0,0,2.64,6.83c2.45,3,6.87,3.73,10.75,2a19.13,19.13,0,0,0,7.47-5.47,2.35,2.35,0,0,1,2.42-1.08,58,58,0,0,0,16.49.09,2.53,2.53,0,0,1,1.67.51c1.7,1.33,3.26,2.82,5,4.11a11.93,11.93,0,0,0,7.55,2.66c3.33-.12,6.92-3.22,7.66-6.64a15,15,0,0,0-.43-9c-1.62-3.92-3.84-7.37-7.82-9.33a4.85,4.85,0,0,1-1.21-.76,2.06,2.06,0,0,1-.7-1.14c-.07-2.06,0-4.13,0-6.36a5,5,0,0,1,1.66.36,25.46,25.46,0,0,1,3.82,2.82,15,15,0,0,0,5.42,3.42c4.39,1.59,8.19-2.15,8.21-5.78a12,12,0,0,0-2-6.8c-2.85-4.43-5.69-8.87-8.57-13.28-1.94-3-4.69-3.66-7.88-2-2.55,1.31-5.07,2.72-7.67,3.95a22.42,22.42,0,0,1-5.15,1.88,39.64,39.64,0,0,1-23.53-2c-3.22-1.36-6.49-2.79-8.89-5.52a5.05,5.05,0,0,0-8,.17c-1.21,1.58-2.16,3.35-3.24,5a60.49,60.49,0,0,0-7.42,15,10.88,10.88,0,0,0,.23,8.16,6.57,6.57,0,0,0,7.82,3.89,10.61,10.61,0,0,0,5.5-3.65c1.15-1.33,2.21-2.74,3.27-4.14A2.51,2.51,0,0,1,213.69,243.56Zm76.91-11.93c7.65-.53,13.37-1.46,18.9-3.52a16.78,16.78,0,0,0,9.64-9.14c2.85-6.17,5.65-12.36,8.48-18.53a10.9,10.9,0,0,0-.29-10.56c-1.24-2.14-2.71-4.15-3.88-6.33a38.46,38.46,0,0,0-11.68-12.84,36,36,0,0,1-8-8.15,61.43,61.43,0,0,0-8.84-10.08,53,53,0,0,0-15.27-9.31,4.16,4.16,0,0,0-5.15,1.3c-2.1,2.4-3.07,5.38-4.2,8.28a6.88,6.88,0,0,0,.71,6.17,23.55,23.55,0,0,0,7,7.8c2.77,2,5.42,4.23,8,6.44,2,1.64,2.16,2.47,1,4.8a56.79,56.79,0,0,1-3.31,5.55c-2.2,3.42-4.63,6.72-6.64,10.25a22.26,22.26,0,0,0-2.59,15.05c1.11,6.53,4.13,12.18,7.84,17.58C284.84,230,287.85,232.14,290.6,231.63Zm175.88,51.3A42.78,42.78,0,0,0,463,271.08c-1.8-4-4.35-7.64-5.55-11.93-.76-2.69-1.86-5.28-2.69-7.95s-1.46-5.39-2.22-8.08-1.46-5.57-2.48-8.25a9.39,9.39,0,0,0-11.16-5.9,14.65,14.65,0,0,0-9.12,6.1c-5.94,8.15-9.43,17.38-12.12,27-1.54,5.47-2.8,11-4.5,16.42a64,64,0,0,1-3.88,8.73c-.56,1.13-1.56,2-2.24,3.11-1.87,3-1.2,5.61,1.93,7.16a34.34,34.34,0,0,0,4.28,1.49A27.43,27.43,0,0,1,418,300.6a29.48,29.48,0,0,1,6.88,5.17,42.71,42.71,0,0,0,5.45,4.68,9.4,9.4,0,0,0,12-.42c1.34-1.12,2.4-2.57,3.68-3.77a72.17,72.17,0,0,1,6.43-5.7,86.15,86.15,0,0,1,7.92-5C464.73,293,466.51,289.11,466.48,282.93ZM429.37,166.1a29,29,0,0,0-3.36,0,45.49,45.49,0,0,0-7.57,1.14c-4.09,1.21-6.19,4.49-6.93,8.45a83,83,0,0,1-4.12,13.22,30.39,30.39,0,0,1-6.82,11.16c-1.67,1.71-3.3,3.49-4.86,5.3a13.06,13.06,0,0,0-1,14.56,19.39,19.39,0,0,0,14.64,9.31c2.64.31,5.31.63,7.27-1.83a1.28,1.28,0,0,1,.4-.27c6.48-3.46,12.81-7.23,19.75-9.73a5.48,5.48,0,0,1,2.78-.36c3.22.61,6.39,1.44,9.59,2.12a5,5,0,0,1,3.37,2.44q1.33,2.15,2.8,4.19c1.81,2.52,4.18,2.75,6.2.46a78.36,78.36,0,0,0,5.16-6.59c2-2.83,1.56-5.77-.17-8.55-2-3.25-4-6.56-6.32-9.59a29.09,29.09,0,0,1-5.06-11.26Q453.4,183.18,452,176a8.08,8.08,0,0,0-4.75-6.13A40.81,40.81,0,0,0,429.37,166.1ZM165.18,309.9a8.88,8.88,0,0,1,0-1.72c1.09-5.56,2.3-11.1,3.31-16.68.7-3.82,3.07-5.81,6.61-6.71a26,26,0,0,1,3.52-.66c4.53-.49,9.07-.87,13.59-1.4a7.14,7.14,0,0,0,6.63-7.8,11.93,11.93,0,0,0-.14-2.62c-.88-3.1-2.06-6-4.88-8s-5.91-2.29-8.93-3.26-5.62-2.26-6.43-5.73c-.5-2.09-1.2-4.14-1.89-6.18-.84-2.43-2.12-3.3-4.64-3.36a7.8,7.8,0,0,0-6.51,3.46,17.14,17.14,0,0,0-3.24,8.12c-.32,2.05-.51,4.12-.69,6.19a11.16,11.16,0,0,1-2.32,5.7,166.17,166.17,0,0,1-16.65,19.49A177.22,177.22,0,0,1,123.35,305a12.3,12.3,0,0,0-4.34,5.28c-.88,2.21-1,4.35.9,6.19,2.74,2.69,5.5,5.35,8.16,8.11a11.85,11.85,0,0,0,5.77,3.49c5.49,1.44,10.93,3,16.63,3.38,1.74.12,3.46.58,5.2.79,2.69.33,5.38.66,8.09.82,3.08.19,5.33-1.35,7-3.8a19.16,19.16,0,0,1,1.9-2.75,12.17,12.17,0,0,0,2.63-5.29c1.33-4.36-.6-7.85-5-9.39C168.6,311.26,166.91,310.56,165.18,309.9Zm-24-133.81L141,176c0-.24,0-.48,0-.72-.45-6.44-3.32-12.12-5.76-17.91-.74-1.75-2.1-2.13-4-1.86a7.62,7.62,0,0,0-4.7,3.07c-2.36,2.81-4.71,5.63-7.09,8.42-1,1.21-2.24,2.28-3.19,3.54-3.42,4.52-6.74,9.11-10.15,13.64A17.19,17.19,0,0,1,99.89,189c-2.5,1.26-5,2.56-7.46,3.84-6.85,3.54-12.44,8.66-17.7,14.17-1.74,1.82-1.47,3.92.53,5.35s4,2.91,6.12,4.2a32.62,32.62,0,0,0,6.54,3.47c4,1.32,6.53,4.06,8.62,7.52a92.15,92.15,0,0,0,5.62,8.34,16.34,16.34,0,0,0,4.09,3.63c5.39,3.46,10,2.91,14.48-1.57,2.16-2.14,4.26-4.34,6.46-6.43a10.19,10.19,0,0,0,2.78-4.67,52.48,52.48,0,0,0,2.1-15.62,94.3,94.3,0,0,1,.5-10.76,27.22,27.22,0,0,1,3.43-10.9,65.68,65.68,0,0,0,3.81-8A42.27,42.27,0,0,0,141.23,176.09Zm257-37.43c-1.52,0-3,0-4.56,0-5.33-.17-9.42,2.34-12.58,6.3-4,5.05-5.72,10.65-2.93,17,.84,1.9,1.43,3.91,2.24,5.82a8.11,8.11,0,0,1-1,8.4,21.23,21.23,0,0,1-10.66,8.18,66,66,0,0,1-16,2.85c-3.82.22-7.64.73-11.48,0a3.51,3.51,0,0,0-3.8,2c-2,3.28-1.59,6.75-.13,9.91a37.42,37.42,0,0,0,12.05,15.22c.64.46,1.17,1.08,1.78,1.6a6.07,6.07,0,0,0,1.52,1.13,83.68,83.68,0,0,0,8.29,3.11c7.47,2.07,12.64.05,16.94-6.43,1.19-1.8,2.25-3.68,3.26-5.59a71,71,0,0,1,11.77-16.25,39.59,39.59,0,0,0,4.3-5.72c3.69-5.57,5.41-11.91,6.9-18.3a5.61,5.61,0,0,1,3-4.05l1.89-1A24.52,24.52,0,0,0,419,153a16.24,16.24,0,0,0,1.84-7.6,3.21,3.21,0,0,0-2.06-3.23,35.19,35.19,0,0,0-5.38-2A59.08,59.08,0,0,0,398.2,138.66ZM224.83,171.82a27.07,27.07,0,0,1-.9-3.18c-.55-3.71-2.78-6.18-5.78-8.12a7.77,7.77,0,0,0-4.79-1.23A14.1,14.1,0,0,0,201,168.47a9.15,9.15,0,0,0,3.22,10.65c1.22.88,2.54,1.62,3.8,2.42-.47,2.16-1,4.24-1.36,6.35a24,24,0,0,0,2.95,16.64c3.54,5.82,9,9.54,15,12.24,2.62,1.17,5.72,1.35,8.63,1.77,6.67.94,13.08.14,19-3.33a23.21,23.21,0,0,0,11.26-14.84,29.76,29.76,0,0,0,.37-10.73c-.2-1.78-.15-1.76,1.54-2.4,1.12-.43,2.21-.9,3.29-1.41,5.23-2.46,5.46-7.87,4.13-11.7a11.92,11.92,0,0,0-9.72-8.28,9.23,9.23,0,0,0-9.55,3.51c-1,1.31-1.86,2.75-2.8,4.16C242.44,170.76,234,169.18,224.83,171.82ZM72.3,364.75l.3.54a23,23,0,0,1-2,1.93c-1.59,1.2-3.27,2.29-4.87,3.48a3.68,3.68,0,0,0,.82,6.54c.73.3,1.54.42,2.3.67a26.15,26.15,0,0,1,3.33,1.14c5,2.36,8.88,6.23,13.39,9.25a4.66,4.66,0,0,1,1,1c2.62,3.32,6.39,5.25,9.59,7.88a3.19,3.19,0,0,0,4,.12,3.35,3.35,0,0,0,1.37-3.8c-.38-1.63-.85-3.24-1.24-4.87-1.54-6.31-2.16-12.75-2.9-19.19a37.49,37.49,0,0,1,1.52-15.36c2.37-7.78,7.09-12,15.58-11.91.88,0,1.76.05,2.64,0,4.37-.13,6.29-3.14,4.54-7.2a18.15,18.15,0,0,0-5.1-6.58c-4.5-3.85-9-7.67-13.6-11.41a87.17,87.17,0,0,0-8.44-6.29c-3.51-2.21-7.25-4.06-10.92-6a6.74,6.74,0,0,0-9.25,3.91A17.56,17.56,0,0,1,73.09,312c-1.09,1.94-2.28,3.82-3.55,5.64-1.06,1.52-1.23,3.12-.22,4.42a3.37,3.37,0,0,0,4.1.94c.42-.17.81-.4,1.27-.63a11.5,11.5,0,0,1-2.09,6.86c-1,1.63-2.08,3.22-3,4.88a3,3,0,0,0,.36,3.59,3.19,3.19,0,0,0,3.2,1.2c.58-.09,1.14-.26,2-.46a12.37,12.37,0,0,1-4.06,7.2c-.49.41-1.07.72-1.53,1.16a3.44,3.44,0,0,0-.74,4,3.3,3.3,0,0,0,3.62,1.73,16.49,16.49,0,0,0,1.75-.51c0,.29.12.45.08.58a2.73,2.73,0,0,1-.28.66A12.29,12.29,0,0,1,68.18,359a3.17,3.17,0,0,0-1.69,4,3.36,3.36,0,0,0,4,2.16C71.12,365.11,71.71,364.91,72.3,364.75ZM462.23,241a31.35,31.35,0,0,0,3,12.75,58.63,58.63,0,0,0,7.52,11.66c2.6,3.24,6,4.69,10.17,3.78,3.36-.73,6.68-1.47,9.71-3.3a7.45,7.45,0,0,0,3.13-3.11c1.46-2.93,3.08-5.79,4.49-8.74,1.67-3.51,4.57-5.07,8.23-5.26a33,33,0,0,1,10.24.71,6.75,6.75,0,0,0,2.83,0c2.56-.46,4.17-2.3,5.54-4.29,2-2.89,3.88-5.86,5.71-8.86s3.56-6.07,5.27-9.14c1.47-2.63,1.37-4.28-.67-6.26-3.66-3.56-7.4-7.06-11.23-10.44a36.55,36.55,0,0,0-12.31-6.81,9.92,9.92,0,0,0-4.21-.31,9.59,9.59,0,0,0-5.06,2.57,24.46,24.46,0,0,0-6.45,8.54c-1.45,3-2.84,6.08-4.25,9.13A10.53,10.53,0,0,1,487,229.8c-7,1.84-14.13,3.38-21.22,5-1.74.4-2.92,1.27-3.22,3.08C462.4,239,462.31,240.24,462.23,241ZM251.12,284.74a9.77,9.77,0,0,0-9.27,4.07,5.46,5.46,0,0,1-.68.68c-3.14,2.78-4.33,6.37-4.52,10.46-.24,5.26-.48,10.54-1,15.78-.59,6.5-2,12.79-5.77,18.32a3.15,3.15,0,0,0,.48,4.16c.48.54,1,1,1.47,1.57a39,39,0,0,0,16.54,10.62c1.05.37,2.09.77,3.12,1.18,3.37,1.35,6.8,2.3,10.49,1.81a5.33,5.33,0,0,0,4.17-2.46c.76-1.22,1.71-2.32,2.47-3.54a78.17,78.17,0,0,1,16.48-18.27c2.4-2,4.86-3.91,7.2-6s2.9-4.11,1.92-6.84c-1.19-3.29-3.16-5-6.27-5a18,18,0,0,0-4.91.84c-2.62.75-5.19,1.62-8,1.39a9.34,9.34,0,0,1-6.86-3.43,8.35,8.35,0,0,1-1.6-7.58C268,296,265,288.17,257,285.77A47.69,47.69,0,0,0,251.12,284.74ZM462.7,509.53c.22.67.4,1.11.52,1.56.81,3.12,2.85,4.61,6,4.75s6.38.44,9.57.59c6.47.32,12.93.66,19.4.85,8.79.27,17.58.43,26.37.58,1.83,0,3.67-.28,5.5-.24,3.2.06,6.39.22,9.58.43,5,.33,7.6-3.51,6.85-7.83-.28-1.57-.75-3.11-1.06-4.67A8.22,8.22,0,0,0,541.6,500a41.35,41.35,0,0,0-16.47-6.19c-5.16-.68-10.17.32-15.15,1.64a48.08,48.08,0,0,1-7,1.26,6.36,6.36,0,0,1-3.22-.64,29.85,29.85,0,0,1-12.05-10.33,26.06,26.06,0,0,0-15.53-10.91c-5.13-1.3-9.91-.41-13.84,3.27-5.65,5.3-7.9,12.24-9,19.66a3.2,3.2,0,0,0,1.79,3.39,3.27,3.27,0,0,0,3.81-.36c.54-.41,1-.86,2-1.64-.31,1.69-.54,2.85-.73,4a35,35,0,0,0-.68,4.73,3.8,3.8,0,0,0,2.6,3.91c1.82.53,3.09-.26,4.05-1.75A5.32,5.32,0,0,1,462.7,509.53ZM378.51,350.44a6.26,6.26,0,0,1,1.62,3.43A3.11,3.11,0,0,0,385,356a22,22,0,0,0,4.94-4.77,22.29,22.29,0,0,0,3-20.76c-1.19-3.5-2.35-6.94-1.59-10.74.34-1.7-.68-2.83-2.21-3.58a107.87,107.87,0,0,1-10.21-5.24c-3.57-2.26-7.57-2.92-11.49-3.92a11.27,11.27,0,0,0-3.8,0c-3.3.35-6,2.09-8.64,3.9-1.91,1.29-4,2.34-6,3.44a5.23,5.23,0,0,1-3.72.38,46.51,46.51,0,0,0-16.67-.75c-2.44.37-4.86.92-7.28,1.44a14.16,14.16,0,0,0-9.15,6,5.46,5.46,0,0,0-.09,5.9,66.17,66.17,0,0,0,3.53,5.63,11.32,11.32,0,0,0,5.31,4.33,34.24,34.24,0,0,0,11.39,2.6,84.91,84.91,0,0,0,16.48-1.12,15.92,15.92,0,0,1,17.7,10.94,8.33,8.33,0,0,1,.36,2.11A14.59,14.59,0,0,1,365.5,359a3.34,3.34,0,0,0,4.67,4.4,8.75,8.75,0,0,0,2.85-2.08,44.57,44.57,0,0,0,3.79-6.06A36,36,0,0,0,378.51,350.44ZM615.86,235.27c-2.53.38-5.84.87-9.14,1.39-6.94,1.1-13.87,2.35-20.83,3.27-3.42.44-6.6,3.61-5.12,7.73a23.32,23.32,0,0,0,2.08,4.26c.78,1.3,1.91,2.38,2.69,3.67,2.51,4.15,2.63,4.65-.5,7.85a11.62,11.62,0,0,0-3.63,9.09A41.89,41.89,0,0,0,583.84,283c1.5,4.13,5.56,6,9.86,5a13.2,13.2,0,0,0,2.92-1A43.69,43.69,0,0,1,608,283.19c6.52-1.15,13.1-2.06,19.59-3.38a90,90,0,0,1,12.53-1.57,62.48,62.48,0,0,0,6.63-1c1.52-.27,2.79-1,3.07-2.63a4.84,4.84,0,0,0-1.56-4.79c-2-1.62-4.05-3.09-6.09-4.63-.89-.67-1.82-1.3-2.67-2-3.56-3.07-6.31-6.55-6-11.66.08-1.1-.26-2.22-.26-3.34,0-5.76-6-11.73-11.3-12.31C620.17,235.64,618.42,235.5,615.86,235.27Zm-358,156.84c-.27,1.34-.54,2.38-.7,3.44-.44,2.86,1.46,4.59,4.3,4A16.51,16.51,0,0,0,272.42,392a3.3,3.3,0,0,0-1-5c-2.51-1.55-5.08-3-7.68-4.41a8.16,8.16,0,0,1-2.8-2.52c-1.48-2-1.45-4.42-1.61-6.66a10.56,10.56,0,0,0-6-9.32c-9-5-18-10-28.08-12.67-2.47-.66-4.94-.61-7,1.26a36.13,36.13,0,0,0-3.22,3.21c-2.44,2.85-4.68,5.89-7.24,8.63-2.88,3.1-4.32,6.78-5.34,10.78a17.79,17.79,0,0,1-2.5,5.9A24,24,0,0,1,190,389.3a3.38,3.38,0,0,0-2.31,3.53,3.77,3.77,0,0,0,2.85,3.19,14.3,14.3,0,0,0,2.83.47,36.73,36.73,0,0,0,15.79-2.07c2.34-.93,4.65-1.94,7-2.92a4.79,4.79,0,0,1-1.18,2.24,3.54,3.54,0,0,0-.86,4,3.88,3.88,0,0,0,3.65,2.29,12,12,0,0,0,6.72-1.38c2.59-1.43,5.06-3.05,7.6-4.55,1.4-.83,2.84-1.57,4.26-2.35l.47.42c-.5,1.22-.94,2.47-1.51,3.66-.74,1.53-1.14,3,.06,4.48s2.78,1.14,4.42.89c3.38-.53,6-2.39,8.68-4.34a34.85,34.85,0,0,1,4.07-2.45c1.19-.65,2.43-1.22,3.66-1.78A13,13,0,0,1,257.9,392.11Zm80.61-86.76c4.38,0,4.65-.13,7.77-3.28.11-.12.21-.24.33-.35,2.31-1.94,2.54-3.66.61-6.53a47.69,47.69,0,0,0-5.79-7c-4-4.06-7.23-8.49-8-14.36-.26-2.05-1.83-3.1-3.59-3.84-9.11-3.78-18.71-5.9-28.2-8.39a61.3,61.3,0,0,0-6.62-1.09c-2.51-.36-5-.6-7.56-1-3.79-.59-6.94,1.87-6.84,5.44.07,2.31.31,4.61.4,6.93a30.41,30.41,0,0,1-.06,4.27,34.19,34.19,0,0,1-2.78,9.63c-1.08,2.58-2.07,5.2-2.89,7.87-1.76,5.74,1.54,10.69,7.57,10.73a27.38,27.38,0,0,0,2.87-.06,20.43,20.43,0,0,1,12.47,2.48,10.83,10.83,0,0,0,9.89.55,45.69,45.69,0,0,0,9.52-5,3.64,3.64,0,0,1,3.36-.66c2.46.7,4.95,1.26,7.4,2A34.52,34.52,0,0,0,338.51,305.35Zm134.72-102.7c.4,4.32,1.75,8.64,5.47,11.93,2.83,2.52,6,2.26,8.57-.61s3.83-6.24,5-9.74a14.3,14.3,0,0,1,4-6.16,40,40,0,0,1,9.72-6.53,14.47,14.47,0,0,1,3.18-1c4.45-1,8.89-2,13-4.11a6.84,6.84,0,0,0,3.94-5.11,49.13,49.13,0,0,0,.56-5c.2-3.51.2-7,.49-10.54.27-3.1.71-6.21,2.86-8.74a49.5,49.5,0,0,1,14.82-12.37,7.34,7.34,0,0,0,.82-.48c2.12-1.53,2.32-4,.33-5.7a13.39,13.39,0,0,0-3.62-2.3c-4.61-1.8-9.2-3.7-14-5.06a46.22,46.22,0,0,0-17.33-1.68c-2.6.26-3.8,1.66-3.32,4.2a60.58,60.58,0,0,1,.57,12.9,14.07,14.07,0,0,1-.48,3.55,28.54,28.54,0,0,1-7.7,13.08c-6,5.74-11,12.42-16.71,18.47a12.85,12.85,0,0,0-1.47,1.9c-2.13,3.38-4.31,6.73-6.33,10.17A18.22,18.22,0,0,0,473.23,202.65Zm-62.86,50.86c0-4.92-1.62-8.4-5-10.88a47.56,47.56,0,0,0-6.14-3.69c-3.54-1.86-7.16-3.56-9.83-6.69a21.76,21.76,0,0,0-1.85-1.87c-2.66-2.51-5.08-2.6-7.86-.25a9.55,9.55,0,0,0-3.37,8.32,36,36,0,0,1-1.38,12.3,27.5,27.5,0,0,1-5.76,10.67c-2.51,2.9-5.21,5.65-9.32,6.23a1.23,1.23,0,0,0-.45.17c-3.22,1.68-5.91,3.86-6.78,7.6a10.75,10.75,0,0,0,5.92,12.17c1.77.91,3.65,1.62,5.41,2.57a37.32,37.32,0,0,1,10,7.22c4.42,4.73,9.79,4.84,14.81.83a29.55,29.55,0,0,0,8.89-10.83c3.16-7,6.44-13.9,9.61-20.88C409.25,262.15,409.73,257.44,410.37,253.51ZM212.44,340.14c1.37.21,2.54.44,3.73.56a3.2,3.2,0,0,0,3.75-2.57,18.35,18.35,0,0,0,.45-3.55,37.52,37.52,0,0,1,1.81-11.08c.79-2.26,1.65-4.49,2.54-6.72,2.64-6.58,3.82-13.52,5-20.44a12.51,12.51,0,0,0-.7-7.07,5.34,5.34,0,0,0-5.68-3.41c-4.69.55-9.39,1-14.05,1.71q-13.26,2-26.49,4.33a17.53,17.53,0,0,0-5.56,2.1c-3.16,1.84-4.68,6.74-1.46,9.91,2.19,2.17,4.88,3.85,7.25,5.85a30.13,30.13,0,0,1,4.65,4.44c2.09,2.75,1.71,5.23-.67,7.72a49,49,0,0,0-4.34,4.79,8.56,8.56,0,0,0-.91,9.07,15,15,0,0,0,7.36,7.6c2,.93,4.15,1.66,6.23,2.49a44.46,44.46,0,0,1,4.39,1.81c3.78,2,7.83,1.48,10.13-2.92C210.67,343.28,211.51,341.83,212.44,340.14ZM467.22,448.68a29.67,29.67,0,0,0,1.34,9.44c1,3.06,2.84,5.07,6.13,5.7a42.66,42.66,0,0,1,6.46,1.79,12.64,12.64,0,0,1,4.12,2.3,96.41,96.41,0,0,1,6.8,7.06c2,2.27,3.84,4.71,5.79,7a8.73,8.73,0,0,0,1.72,1.66,5.33,5.33,0,0,0,5.65.64c1.89-.95,2.32-2.74,2.21-4.69a19.2,19.2,0,0,0-.39-2.6c-.22-1.18-.54-2.34-.73-3.52-.71-4.25-1.28-8.53-2.09-12.77a68.62,68.62,0,0,1-1.29-13.34c0-6.4.38-12.77,1-19.15a100.59,100.59,0,0,1,4.6-22.5,40.45,40.45,0,0,1,2.95-6.25,4,4,0,0,0,.57-3.43c-1.38-3.33-3.3-6.25-7.08-7.25a36,36,0,0,0-4-.72,5.77,5.77,0,0,0-6.23,3.07,20.47,20.47,0,0,0-3.13,9.46,17.48,17.48,0,0,1-3.13,9.44,77.15,77.15,0,0,1-7.72,9.46A59.57,59.57,0,0,0,473,429,33.56,33.56,0,0,0,467.22,448.68ZM505.69,269.5A61.73,61.73,0,0,0,508,284.06c1,3.35,2.44,6.59,3.49,9.93a67.09,67.09,0,0,0,7.83,16.65c3.54,5.41,7.43,10.6,13,14.2,2.51,1.61,5.15,1.42,7-.87a9.67,9.67,0,0,0,1.82-3.06,54.33,54.33,0,0,1,5.92-11.74,24.29,24.29,0,0,1,6.35-7.43c2.39-1.71,5.06-3,7.52-4.68a56.38,56.38,0,0,0,6.72-4.94,10.06,10.06,0,0,0,3.16-8,7.28,7.28,0,0,0-8.91-6.89,23.29,23.29,0,0,0-7.29,3.51,34.6,34.6,0,0,1-5.27,2.73,2.15,2.15,0,0,1-1.93-.32,59.78,59.78,0,0,1-6.09-7c-3.24-4.8-6.73-9.31-11.31-12.93A13.24,13.24,0,0,0,525,260.6a30.89,30.89,0,0,0-13.76-.47c-3.37.66-4.88,2.09-5.27,5.46C505.81,267,505.76,268.46,505.69,269.5ZM412.83,392a24.65,24.65,0,0,1,.39,3.44,27.39,27.39,0,0,1-2,9.58c-1.32,3.25-2.78,6.44-4.18,9.66-.8,1.83-.58,3.55.62,4.65s2.85,1.08,4.64,0c1.16-.69,2.38-1.29,3.58-1.92,2.18-1.15,4.34-2.37,6.57-3.42a10.29,10.29,0,0,1,3.8-1.21,17.85,17.85,0,0,1,11.77,4.06c2.83,2.2,5.38,4.75,8,7.17,1.24,1.12,2.39,2.37,3.69,3.41a8.54,8.54,0,0,0,7.2,1.76,10.28,10.28,0,0,0,6.47-4.22c2.41-3.28,4.73-6.64,6.95-10.05,3.74-5.76,7-11.83,11.47-17.1a6.63,6.63,0,0,0,.7-1c1.34-2.33,1.16-6-.63-7.36a8.94,8.94,0,0,0-6.49-1.91c-3.76.47-6.87,2.53-10.15,4.13A89.65,89.65,0,0,1,449,397.79a29.83,29.83,0,0,1-4.74.61,3.28,3.28,0,0,1-2.92-1.29Q435,390,428.7,383c-1.77-1.95-3.64-3.82-5.45-5.73-3.87-4.07-12.43-2.47-14.84,2.16-.51,1-1.13,1.93-1.65,2.92-1.43,2.76-2.89,5.51-4.22,8.32a4.79,4.79,0,0,0-.48,2.71,3.22,3.22,0,0,0,4.88,2.09C408.84,394.44,410.65,393.28,412.83,392ZM580.52,406.4c.19,3.83,1.64,7.42,5.86,9.15a57.56,57.56,0,0,0,6.87,2c2.46.67,5,1.21,7.39,2a5.34,5.34,0,0,1,2.31,1.6,28.88,28.88,0,0,1,2.93,4.08,11.45,11.45,0,0,0,6.51,5.34,51.89,51.89,0,0,0,7.66,1.88c3.65.58,7.25,1.09,10.37,3.34a3.53,3.53,0,0,0,5.41-3.84c-1-4.34-1.86-8.76-3.26-13-1.33-4-3.37-7.75-4.94-11.67-3.33-8.36-7.86-16-12.64-23.63-2-3.1-3.74-6.3-5.59-9.46-1.54-2.62-3.51-4.54-6.8-4.54-1.83,0-3.68.1-5.5-.07-2.84-.26-4.44,1.29-5.76,3.47a14.16,14.16,0,0,0-1.7,10.38,6.41,6.41,0,0,1-.64,4.86c-1.61,2.57-3.19,5.16-5,7.63A19.25,19.25,0,0,0,580.52,406.4ZM299.43,478.77c4.62.09,8.77.23,12.93.25a14.32,14.32,0,0,0,6.71-1.49,4.94,4.94,0,0,0,3-4.33c0-4.8-1.74-8.79-6.25-10.94a42,42,0,0,0-7.25-2.41c-4-1.07-8.06-2-12.09-3a3.43,3.43,0,0,1-2.79-2.89,24.26,24.26,0,0,0-3.47-7.86c-3.53-5.63-8.27-10.14-13.41-14.24a18.18,18.18,0,0,0-7.22-3.66,32.91,32.91,0,0,0-14-.16c-5,1-9,3.43-11.5,8.15-1.47,2.83-.89,4.83,1.88,6.32A27.33,27.33,0,0,1,251.1,446c3.94,3.49,7.88,7,11,11.38,1.06,1.49,2.32,2.84,3.48,4.27,2.71,3.36,5.44,6.7,8.12,10.08,4.09,5.16,3.3,5,10.46,5.92C289.33,478.29,294.63,478.42,299.43,478.77Zm298.17,7.4c6.14.08,9.07-.7,12.84-3.06,1.56-1,3.07-2,4.55-3.11a53.55,53.55,0,0,0,15-15.94c2.75-4.63,3.15-9.25.54-14.08-2.49-4.62-5.92-8.08-11.2-9.32-1.09-.26-2.16-.62-3.26-.79-4-.62-8-.94-11.88.34a38.42,38.42,0,0,0-18,11.83,77.67,77.67,0,0,0-7.1,9.93,40.32,40.32,0,0,0-3.82,9,7,7,0,0,0,2.7,7.88c1.38,1.09,2.69,2.27,4.08,3.34a14,14,0,0,0,6.51,2.9C592.14,485.59,595.72,486,597.6,486.17Zm-118.92-355,0-.4c-4.39.21-8.78.38-13.16.64a148.5,148.5,0,0,0-30.38,5.37,4.61,4.61,0,0,0-3.5,5.46,11.78,11.78,0,0,0,2.92,5.94A20.38,20.38,0,0,0,445.05,155a33.58,33.58,0,0,1,12.35,6.15c3.94,3.09,6.73,6.79,6.36,12.15a3.23,3.23,0,0,0,1.5,2.85c2.18,1.64,4.32,1.8,6.85-.05a89.94,89.94,0,0,0,7.06-6.06c.83-.74,1.43-1.73,2.24-2.5,6.69-6.43,11.81-14,16.17-22.16a13.34,13.34,0,0,0,1.08-10.23c-.92-3.24-3.11-4.79-6.36-4.61ZM592.32,430.59a4.45,4.45,0,0,0-1.37-3.46,7.77,7.77,0,0,0-3.6-2.23c-4.62-1.24-8.31-4.37-12.54-6.39-1.9-.91-2.5-2.49-2.66-4.47-.23-2.94-.54-5.88-1-8.8a10.7,10.7,0,0,0-1.16-3.37,27.2,27.2,0,0,0-8.27-9.19,8.81,8.81,0,0,0-7.27-1.53,18.41,18.41,0,0,0-5.85,2.64,15.47,15.47,0,0,0-7.78,13.49c-.09,2.55.14,5.11.25,7.67a22.06,22.06,0,0,1-2.41,11.81,3.45,3.45,0,0,0,.21,4,20,20,0,0,0,2.79,3.27,59.55,59.55,0,0,0,6,4.37c7.53,4.78,16,7.61,24,11.49a2.39,2.39,0,0,0,.44.18,3.39,3.39,0,0,0,3.7-1.06,58.48,58.48,0,0,1,12.08-10.84c2.31-1.51,3-4,4.26-6.21A3.53,3.53,0,0,0,592.32,430.59Zm86.87-139.73c-.06-8.33-2.12-15-6.73-20.77a5.45,5.45,0,0,0-5.92-2.11c-1.51.51-3,1.13-4.49,1.67a5.31,5.31,0,0,0-3.86,5,13.68,13.68,0,0,0-.11,1.91,3.74,3.74,0,0,1-2.74,4,59.31,59.31,0,0,1-7.32,2.23,82.18,82.18,0,0,0-18.43,5.9c-2.67,1.27-3.58,3.38-3.08,6.29.32,1.88,1.53,3.1,2.79,4.33,3,3,6.3,5.7,9,8.91,3.15,3.7,5.78,7.84,8.72,11.72a12.05,12.05,0,0,0,2.46,2.13,15.75,15.75,0,0,0,1.67.91,54.33,54.33,0,0,0,11.57,5.11,5,5,0,0,0,5.92-2.33c1-1.69,2.14-3.35,3.34-4.93a29,29,0,0,0,5.12-10.72c1-4.23,1.13-8.54,1.54-12.82C678.9,294.8,679.07,292.33,679.19,290.86ZM539.34,170.12a20.24,20.24,0,0,0,1.41,8.69,4.34,4.34,0,0,0,2.59,2.67,44.33,44.33,0,0,0,5.69,1.83c4.69.95,9.42,1.75,14.16,2.5a7,7,0,0,1,4.35,2.16,78.88,78.88,0,0,1,11.25,14.29,4.58,4.58,0,0,0,4,2.68,4.47,4.47,0,0,1,1.15.31,19.55,19.55,0,0,0,12.26-.22,16.19,16.19,0,0,0,6.54-3.86,3.86,3.86,0,0,0,.95-4.79,42.39,42.39,0,0,0-3.06-5.42,81.59,81.59,0,0,0-12.76-14.27A24.92,24.92,0,0,1,585,173.5c-2.58-3.26-5.05-6.6-7.64-9.85-4.09-5.14-9.5-8.77-14.72-12.59a3.33,3.33,0,0,0-3.39-.51c-2.6,1-5.31,1.83-7.79,3.08C544.25,157.23,539.22,162.41,539.34,170.12ZM534,348.78a19.32,19.32,0,0,0-1.49-4c-2.26-3.48-4.67-6.86-7.13-10.21a5.1,5.1,0,0,0-5.93-1.71,150,150,0,0,0-29.08,14.06,9.37,9.37,0,0,0-4.32,5.54c-.61,2.06-1.53,4-2.33,6-1.61,4-3.33,8-4.79,12a18.72,18.72,0,0,0-.91,5.37c-.08,1.95,1,3.18,2.91,3.92a27.06,27.06,0,0,0,7.27,1.31,7.56,7.56,0,0,0,5.24-1.21c2-1.36,4-2.69,5.81-4.23,2-1.68,2.91-2.09,5.57.19.43.37.79.8,1.22,1.16,2,1.61,3.94,3.23,6,4.79a3,3,0,0,0,3.38.38c2.32-1.29,4.42-2.69,5.26-5.53,2.61-8.83,7.62-16.5,12-24.46A27.86,27.86,0,0,0,534,348.78ZM341.24,262.06a11.2,11.2,0,0,0,7.45-3.21c2.5-2.36,5.16-4.59,7.4-7.17a110.81,110.81,0,0,0,7.4-9.7c1.67-2.42,1.59-3.41-.27-5.57a18.7,18.7,0,0,0-4-3.39c-4.94-3.24-9.94-6.4-15-9.53a22.92,22.92,0,0,0-4.47-2.27c-4.38-1.53-8.38-.9-11.59,2.67a44,44,0,0,0-4.28,5.45,23.2,23.2,0,0,1-7,7.1,12.45,12.45,0,0,1-8.62,2.22,53.3,53.3,0,0,0-8.37-.51,8.32,8.32,0,0,0-8.23,6.16c-1.3,3.93.32,6.6,4.05,7.47,4,.93,8.17,1.48,12.26,2.19,7.79,1.35,15.56,2.74,23,5.58C334.28,260.79,337.83,261.25,341.24,262.06Zm-129,168.07.48.24a17.88,17.88,0,0,1-2.2,8.2,3.34,3.34,0,0,0,0,4,3.43,3.43,0,0,0,4.08,1.13A31.59,31.59,0,0,0,219,442a68.32,68.32,0,0,0,15.47-10.83,83.15,83.15,0,0,0,6.26-7.21c.2-.24.32-.59.57-.76,3.06-2,6-4.32,9.69-5.07,9.7-2,19-.6,28.1,3.14,1.25.51,2.44,1.16,3.68,1.72a3.39,3.39,0,0,0,4.89-1.92,17.72,17.72,0,0,0,.82-2.75q1.36-6.07,2.66-12.16a3.27,3.27,0,0,0-3.67-4.07,33.78,33.78,0,0,0-5.39,1c-7.45,2.11-14.79,4.53-22.68,4.7-6.78.15-13.56,1.14-20.33,1.08-8.21-.08-16.43-.73-24.62-1.42a24,24,0,0,1-8.5-2.33,8.92,8.92,0,0,0-3.94-.59,2.71,2.71,0,0,0-2.65,2.39c-.53,3.07-1,6.15-1.27,9.25a3.09,3.09,0,0,0,3.24,3.39,8.35,8.35,0,0,0,2.91-.91,22.89,22.89,0,0,0,2.55-1.63,26.73,26.73,0,0,1-1.39,9.47,9.74,9.74,0,0,0-.43,3,3.07,3.07,0,0,0,2.2,2.86,3.23,3.23,0,0,0,3.36-.66C211.1,431.2,211.65,430.66,212.2,430.13Zm-19.33-62.32c1.54.81,3,1.3,4.41.24a6.67,6.67,0,0,0,2.58-5.66,3.55,3.55,0,0,0-2.61-3.56,4.92,4.92,0,0,1-1-.68L177,344.66c-.46-.32-.89-.68-1.35-1a9.78,9.78,0,0,0-2.37-1.4,22.45,22.45,0,0,0-4.92-1c-6.46-.39-12.9-1-19.31-1.92-2-.3-4.06-.78-6.11-1.08a24.37,24.37,0,0,0-4.5-.34c-2.64.14-4.94,1.24-5.86,3.84s.11,5.15,2.16,7.14a83.69,83.69,0,0,0,10.31,8.1,125.35,125.35,0,0,0,11.1,6.66,29.2,29.2,0,0,1,11,11.07,3.92,3.92,0,0,1,.73,2c-.2,2.91,1,5.82-.32,8.75a3.13,3.13,0,0,0,1.95,4.11,3.23,3.23,0,0,0,4.19-1.78,43.89,43.89,0,0,0,1.47-4.55c.25-.79.51-1.58.79-2.45,1.4.8.82,1.85.93,2.73a3.21,3.21,0,0,0,2.71,2.93,3.17,3.17,0,0,0,3.56-1.82,8.67,8.67,0,0,0,.73-2.77c.11-1.81,0-3.63,0-5.45,1.62.23,1.62.23,3.26,1.69a3.4,3.4,0,0,0,5.77-1.81,10.82,10.82,0,0,0,.14-2.61C193.09,371.81,193,369.91,192.87,367.81ZM535.7,199.88c0,6.56.66,8.55,5.44,13.18,3,2.94,6.3,5.66,9.56,8.36,5.55,4.59,11.28,8.91,18,11.72a5.39,5.39,0,0,0,3.45.36c6.32-1.41,12.62-2.87,19-4a178.16,178.16,0,0,1,25.05-2.37,10.75,10.75,0,0,0,5.1-1.84,2.92,2.92,0,0,0,1.24-3.58,7,7,0,0,0-1.29-2.54,37.37,37.37,0,0,0-4.58-4.9,13.24,13.24,0,0,0-12.8-2.69C598,213.3,592,214.87,586.21,217c-5.22,1.88-14.39-1.57-17.61-7.23A175.78,175.78,0,0,0,558.81,195a9.45,9.45,0,0,0-6.89-4.35,39.29,39.29,0,0,0-11.43,1A5.49,5.49,0,0,0,535.9,197C535.81,198,535.77,198.92,535.7,199.88ZM515,411c.32,3.94,1.48,6.83,5,8.21a10.81,10.81,0,0,1,1.92,1c2.7,1.69,5.38,1,6.66-1.94a17.46,17.46,0,0,0,1.17-3.89A109.5,109.5,0,0,1,535.26,396a13.74,13.74,0,0,1,1.81-3.35,32.83,32.83,0,0,1,12.06-10.33,24.8,24.8,0,0,1,6.83-2.06,4.9,4.9,0,0,1,3.67.7c2.91,2,5.82,3.93,8.78,5.81a26.8,26.8,0,0,0,5,2.75,5.08,5.08,0,0,0,6.38-2.76c2.82-5.52,2.28-11-.4-16.32a5,5,0,0,0-4.31-3,6.43,6.43,0,0,1-2.29-.6c-2.7-1.19-5.34-2.51-8.06-3.66a42.81,42.81,0,0,1-9.52-5.94,22.6,22.6,0,0,0-4-2.53c-4.19-2-7.18-1.18-9.64,2.74a97.22,97.22,0,0,0-5,9.26c-2.86,5.88-5.57,11.85-8.38,17.76a32.36,32.36,0,0,1-1.91,3.32c-3.78,6.12-7.62,12.2-10.08,19C515.6,408.31,515.32,409.89,515,411ZM483.41,280v-.09c-.63,0-1.27-.13-1.91-.12a12.81,12.81,0,0,0-2.15.14,3.29,3.29,0,0,0-2.92,3.74c.08,1,.32,2.06.41,3.09.27,3,.63,6-.19,9.06a5.77,5.77,0,0,1-2.8,4,20.6,20.6,0,0,0-2.77,1.9,14,14,0,0,0-1.92,20.71,10.14,10.14,0,0,1,1.67,2.31,35.05,35.05,0,0,0,6.15,8.51c2.46,2.73,5.31,3.31,8.67,2.56a104.63,104.63,0,0,0,18.49-5.87,12.67,12.67,0,0,0,4.13-2.79c2.41-2.57,3.33-5.47,1-8.9-3-4.4-6.24-8.69-9.31-13.08a7.16,7.16,0,0,1-1.36-3,38.8,38.8,0,0,1-.56-8.1c.58-7.13-5.75-14.33-12.91-14.08C484.53,280,484,280,483.41,280Zm65.24,55.7a13.7,13.7,0,0,0,1.34,6.79c1.64,3.52,4.86,5.22,8,6.85,5.43,2.76,11.25,4.47,17.09,6.15a6.74,6.74,0,0,0,8.12-3.79c2.5-5.23,3.33-10.62,1.22-16.24-1.46-3.88-2.76-7.82-4.25-11.69a13.34,13.34,0,0,1-.6-7.29,36.73,36.73,0,0,1,3.77-10.3,41.7,41.7,0,0,0,2.28-5c.69-1.94.87-4-.87-5.54a22.15,22.15,0,0,0-4.17-2.79,5,5,0,0,0-6.11,1.12c-2.19,2.43-4.26,5-6.4,7.43a67.25,67.25,0,0,1-5.27,5.89,42,42,0,0,0-10.92,15.53A47.82,47.82,0,0,0,548.65,335.72Zm80.6-16.22c-.16-3.75-2.36-7.28-5-10.48-2.39-2.89-5.17-5.45-7.66-8.26a23,23,0,0,0-10.18-6.49,8.43,8.43,0,0,0-9.4,2.34c-3.87,4-6.23,8.77-5.68,14.47a94.89,94.89,0,0,0,1.87,11.33c1.75,7.94,3.11,15.85.65,23.89a14.74,14.74,0,0,0-.74,3.51,14.24,14.24,0,0,0,.27,4.23,5.61,5.61,0,0,0,5.29,4.14c2.55.24,3.76-1.46,4.76-3.31a28.65,28.65,0,0,0,1.68-4.23,26.32,26.32,0,0,1,9-12.16c1.59-1.22,3.22-2.38,4.81-3.58a37.33,37.33,0,0,0,8.3-8.25A11.69,11.69,0,0,0,629.25,319.5ZM438.74,472.87a14.67,14.67,0,0,1-.19,7.61,3.46,3.46,0,0,0,1.14,3.87c1.48,1.19,3.29.84,4.88-.78a45.46,45.46,0,0,0,11.66-21.41,13.83,13.83,0,0,0,.29-6.64,31.87,31.87,0,0,0-9.17-16.22c-5.12-4.82-11.06-8.36-17.05-11.88-2.63-1.54-5.49-1.54-8.35-1.54a3.23,3.23,0,0,0-2.06,1.07,39.62,39.62,0,0,0-2.82,3.82c-1.27,1.84-2.55,3.68-3.73,5.57a3.78,3.78,0,0,0,.72,5.17,3.41,3.41,0,0,0,5-1.11c.6-.86,1.17-1.74,1.76-2.61l.53.18c.17,1.48.39,2.95.52,4.43.37,4.27-.4,8.45-1.12,12.62-.31,1.83-.45,3.54,1.34,4.7s3.34.27,4.8-.84,2.86-2.14,4.77-3.56a33,33,0,0,1,0,3.78c-.52,3.95-1.07,7.9-1.72,11.84a3.54,3.54,0,0,0,5.34,4C436.35,474.3,437.43,473.63,438.74,472.87Zm-221-12.51a58.19,58.19,0,0,0-2,6.8,8.38,8.38,0,0,0,.33,4.91c2.12,4,4.82,7.5,10.08,7.63,11.19.27,22.37.55,33.53-.51,3-.3,4.28-2.19,3.36-5.17a7.08,7.08,0,0,0-.69-1.78c-2.43-3.74-4.48-7.76-7.88-10.8-.77-.69-1.45-1.49-2.15-2.25a30.78,30.78,0,0,0-15.87-8.87c-1.94-.47-3.94-.71-5.86-1.23a19.37,19.37,0,0,0-7.62-.21c-1.1.15-2.16.64-3.26.76-3.1.33-5.27,2.19-7.21,4.35a3.2,3.2,0,0,0,1.05,5.21A26.47,26.47,0,0,0,217.77,460.36ZM657.25,343.71c-.56-6.15-3-10.94-8.3-14a10.69,10.69,0,0,0-9.48-.81,21.27,21.27,0,0,0-5.51,3.25c-3.47,2.77-6,6.38-8.52,10a17,17,0,0,1-4.13,4.29c-2,1.44-4,2.91-5.95,4.44a9.88,9.88,0,0,0-3.75,5.42,4.62,4.62,0,0,0,2.58,5.79,69.38,69.38,0,0,0,6.56,2.88,13.5,13.5,0,0,1,6,4.2,25.55,25.55,0,0,0,1.7,2,4.66,4.66,0,0,0,5.37.64,3.39,3.39,0,0,0,1.93-3.77,33.94,33.94,0,0,0-.57-3.77,5.85,5.85,0,0,1,.63-4.39,9.32,9.32,0,0,1,4.7-4.25,16.23,16.23,0,0,1,8.21-1.12,23.06,23.06,0,0,0,4,.28,2.94,2.94,0,0,0,3-2.57C656.34,349.38,656.78,346.46,657.25,343.71Zm18.64-103c-.49-2.66-1-5.32-1.48-8a4.52,4.52,0,0,0-2.62-3.21,14.17,14.17,0,0,0-8.65-1.23,120.34,120.34,0,0,0-14.57,2.78c-3.86,1-6.8,3-7.85,7.44a33.29,33.29,0,0,0-1,12.55,10,10,0,0,0,2.15,4.72c2.74,3.6,6.62,5.51,10.7,6.94a11.34,11.34,0,0,0,8.66-.48c1.45-.67,2.91-1.32,4.37-2a12.63,12.63,0,0,0,5.41-4.59A30.75,30.75,0,0,0,675.89,240.72ZM541,247.93a55.94,55.94,0,0,0,5.74,21.49c1.77,3.54,2.64,3.87,6.37,2.49a4,4,0,0,1,.46-.14c5.24-1.32,9.91-4,14.66-6.42a14.79,14.79,0,0,0,3.28-2.4c4.75-4.51,3.92-7.45.49-10.78-2.4-2.33-5.12-4.33-7.53-6.65a53.82,53.82,0,0,0-9.78-7.24c-4-2.43-10.94-.37-12.38,3.63A44.77,44.77,0,0,0,541,247.93Zm108.32,114c-1.18.16-2.23.21-3.23.44a4.26,4.26,0,0,0-3,5.58,31.67,31.67,0,0,0,2.55,4.86,3.06,3.06,0,0,0,4.16,1.3,13.23,13.23,0,0,0,6.64-7.18,3.24,3.24,0,0,0-2.55-4.37C652.34,362.21,650.74,362.11,649.3,361.92Z" transform="translate(-0.48 -0.48)"/><path class="cls-1" d="M235.74,106.93a122,122,0,0,1,28.85,2.48c4.07.87,5.31,3,5.18,5.8-.15,3.34-.27,6.69-.49,10a65.09,65.09,0,0,1-3.86,17,27,27,0,0,1-12,15,35,35,0,0,1-14.57,5.12c-5,.44-10.13-2-12.38-6.49a8.2,8.2,0,0,0-6.19-4.71c-1.18-.23-2.34-.56-3.51-.77a11.33,11.33,0,0,0-10.22,2.83,34.24,34.24,0,0,1-9.72,6.51,18.67,18.67,0,0,1-5.25,1.51c-4.07.46-6.91-1.45-8.34-5.31a13.85,13.85,0,0,1,.43-10.74,18.79,18.79,0,0,0,1.46-7.46,11.08,11.08,0,0,0-7.94-11c-.68-.22-1.41-.34-2.07-.6a3.4,3.4,0,0,1-1.11-6,11,11,0,0,1,2.82-1.77,117.07,117.07,0,0,1,38.3-10C222,107.89,228.88,107.42,235.74,106.93Z" transform="translate(-0.48 -0.48)"/><path class="cls-1" d="M60.48,394.91A13.8,13.8,0,0,1,59,394.1a3.33,3.33,0,0,1,.34-5.76c1.71-1,3.45-2,5.17-3a5.29,5.29,0,0,1,6.78.76q9.33,9.14,18.61,18.31a51.27,51.27,0,0,1,6.73,7.46,13.94,13.94,0,0,1,2,12.56A36.7,36.7,0,0,1,95,432.5c-3.65,6-7.73,11.76-11.38,17.76a71.57,71.57,0,0,0-5.75,11.31,39.42,39.42,0,0,0-1.9,9.34c-.49,3.87-.56,7.8-1,11.67a21.29,21.29,0,0,1-1.52,5.51c-.87,2.06-4.47,2.85-6.52,1.67-3.46-2-6.93-4-10.38-6-6.87-4-13.56-8.22-18.3-14.83-.89-1.24-1.74-2.49-2.59-3.75-3.15-4.68-3.06-9.59-1-14.63.23-.59.5-1.16.81-1.87L34,447.87a3.2,3.2,0,0,1-1.64-3,3.42,3.42,0,0,1,2.09-3c3.41-1.74,6.8-3.51,10.16-5.35a17.21,17.21,0,0,0,2.41-2c-1.3-.15-2.08-.17-2.82-.34a3.45,3.45,0,0,1-3-3.53q.06-2.52,3-3.25c3.14-.79,5.74-2.33,7.3-5.3a9.26,9.26,0,0,0,.41-1.34c-1,0-1.84-.1-2.68-.12a3.16,3.16,0,0,1-3.11-2.2,3.32,3.32,0,0,1,1.21-3.83,7.14,7.14,0,0,1,1.81-1.16c3.2-1.22,5.18-3.93,7.59-6.11.15-.14.18-.42.33-.82-.58-.11-1.08-.26-1.6-.31-2.06-.19-3.21-1-3.56-2.59s.33-2.9,2-4,3.47-2.29,5.18-3.46A17.86,17.86,0,0,0,60.48,394.91Z" transform="translate(-0.48 -0.48)"/><path class="cls-1" d="M140.5,206.78a22.37,22.37,0,0,1,2.66-10.69c1.47-2.92,3.27-5.67,4.87-8.53,1.48-2.64,2.93-5.31,4.31-8a7.65,7.65,0,0,0,.39-6.06,66.63,66.63,0,0,0-5.18-12.36q-2.3-4.06-4.53-8.18a24.61,24.61,0,0,1-1.43-3,5.85,5.85,0,0,1,.55-5.47,39.16,39.16,0,0,1,8.34-9.52,16.24,16.24,0,0,1,18.83-1.08,10.77,10.77,0,0,1,5.2,11c-.65,5.15-1.32,10.3-2,15.46-.1.79-.12,1.59-.2,2.39a4.28,4.28,0,0,0,1.56,3.53c2.8,2.94,6.48,4.33,9.94,6.14a50.59,50.59,0,0,1,6.69,3.72c3.51,2.56,6,6,5.51,10.56s.29,9.08.94,13.58a22.67,22.67,0,0,1-2.22,14.45,40.51,40.51,0,0,1-6.45,8c-3.24,3.42-6.77,6.57-10.09,9.91a5.87,5.87,0,0,1-7.4,1.32c-.57-.28-1.17-.52-1.73-.82-5.93-3.15-11.82-6.36-17.78-9.45a24.63,24.63,0,0,1-8.09-7C141,213.85,140.49,210.44,140.5,206.78Z" transform="translate(-0.48 -0.48)"/><path class="cls-1" d="M80,287.49c-.53.08-1.07.14-1.59.24-2,.41-3.35-.08-4.14-1.5s-.4-2.77.83-4.36c1.36-1.76,2.57-3.65,3.77-5.53a11.25,11.25,0,0,0,.8-2.1,19.12,19.12,0,0,1-2-.26,3.51,3.51,0,0,1-2.52-5,18.3,18.3,0,0,1,1.66-2.92,30.82,30.82,0,0,0,3.75-8.77,5.66,5.66,0,0,0,.07-1.12c-.78.07-1.47.17-2.15.2-2.7.09-4.5-2.17-3.46-4.61,1.88-4.41,3.86-8.77,6-13.06,1.47-2.94,3.86-3.37,6.79-1.76a56.22,56.22,0,0,1,11,7.68,22.53,22.53,0,0,0,9,5.21c4.93,1.38,9.78.94,13.94-2.74s8.64-7.35,13-11a25.22,25.22,0,0,1,3.21-2.45c3.85-2.29,9.14-1.49,12.49,1.42,4.08,3.55,5.19,8.11,4.9,13.17a26.85,26.85,0,0,1-3.63,11.8c-5.36,9.54-12.83,17-21.68,23.32a73.82,73.82,0,0,0-6.14,5.34c-2.51,2.23-5,4.54-7.51,6.71-5.26,4.47-11.17,5.08-17.54,2.83A49.17,49.17,0,0,0,92,296.06a26.74,26.74,0,0,0-5.94-.17c-1.67.06-3.33.38-5,.53A3.36,3.36,0,0,1,78,291c.74-1,1.5-2,2.25-3Z" transform="translate(-0.48 -0.48)"/><path class="cls-1" d="M349.81,373.53c-1.58,2.44-3.1,4.87-4.73,7.22a15.45,15.45,0,0,1-2.26,2.46c-2.4,2.25-5.82,1.81-6.61-2-.47.39-.9.68-1.26,1a63.32,63.32,0,0,1-11.65,9.18,25.42,25.42,0,0,1-4.58,2,3.28,3.28,0,0,1-3.94-.85,3.46,3.46,0,0,1-.48-3.82,29.49,29.49,0,0,0,.89-2.85l-.43-.22a34,34,0,0,1-2.27,2.67q-3.25,3.15-6.63,6.19a5.62,5.62,0,0,1-4.31,1.1c-3.11-.21-4.63-2.47-3.84-5.52a6.57,6.57,0,0,0,.07-3.2c-.61.43-1.21.88-1.84,1.29-3.42,2.22-6.82,4.46-10.26,6.65a3.44,3.44,0,0,1-4.59-.29c-1.1-1.15-1.09-2.7-.23-4.43a48.5,48.5,0,0,0,2.09-5.06,2.62,2.62,0,0,0-1-3.19c-1.52-1.17-3-2.39-4.47-3.61-2.22-1.83-4.49-3.61-6.6-5.56a13.76,13.76,0,0,1-2.4-3.24,5.56,5.56,0,0,1-.09-5.5,69.1,69.1,0,0,1,9.16-14.29q3.76-4.51,7.62-8.94a17.64,17.64,0,0,1,8.62-5.8,5.66,5.66,0,0,1,3.75.16,21,21,0,0,1,6.13,3.67,23.94,23.94,0,0,0,4,2.6,37.33,37.33,0,0,0,5.53,2.81,31.92,31.92,0,0,0,7.16,1.77,119.29,119.29,0,0,1,17,2.76c1.16.3,2.34.49,3.53.68a20.65,20.65,0,0,1,12.29,6.41,15.27,15.27,0,0,1,4.48,10.78,40.46,40.46,0,0,1-.83,7.11c-.46,2.33-1.68,3.33-3.46,3.33s-2.65-.9-3.39-3.12A2.74,2.74,0,0,0,349.81,373.53Z" transform="translate(-0.48 -0.48)"/><path class="cls-1" d="M293.27,113.53c7.25.08,14.28,1.44,21.32,3,10.47,2.38,20.72,5.38,30.43,10,4.61,2.18,9,4.76,13.47,7.29a11.3,11.3,0,0,0,5,1.55,47.36,47.36,0,0,1,4.76.48,4.57,4.57,0,0,1,2,.81c3,2.14,3,5.58-.2,7.71a24.72,24.72,0,0,0-5.17,5.25,6.4,6.4,0,0,0-1.25,5.66,27.39,27.39,0,0,0,1.84,6.16c3.74,7.66-.53,13.91-6.52,16.53-7.64,3.36-15,2.74-22.16-1.73a102.34,102.34,0,0,1-14.62-11.6,26.29,26.29,0,0,0-3.35-2.71c-7.89-5.11-14.77-11.44-21.57-17.87-4.06-3.85-8.22-7.58-12.28-11.42a12,12,0,0,1-3.71-11.52,45.08,45.08,0,0,1,1.2-4.38,3.67,3.67,0,0,1,3.48-2.83C288.32,113.77,290.8,113.67,293.27,113.53Z" transform="translate(-0.48 -0.48)"/><path class="cls-1" d="M407.76,346.73c-.82.07-1.43.13-2,.17-3.11.25-4.89-2-3.79-4.89.67-1.78,1.76-3.4,2.52-5.16,1.34-3.06,2.6-6.16,3.81-9.28a11.74,11.74,0,0,0,.39-2.46c-1.44-.25-2.69-.44-3.92-.69-3.52-.72-4.55-3.06-2.71-6.19,1.33-2.26,2.69-4.5,4.06-6.73a3,3,0,0,1,3.49-1.51,12.22,12.22,0,0,1,4.31,1.89c4.69,3.72,9.36,7.5,13.79,11.52,2.43,2.2,4.9,2.9,7.87,1.76a47,47,0,0,0,5.2-2.39c3.5-1.86,7-3.41,11.14-3.12a4.63,4.63,0,0,1,3.7,1.87,13.19,13.19,0,0,1,1.25,1.74c3,5.75,6.36,11.25,9.19,17.09a130,130,0,0,1,6,14.83,11.55,11.55,0,0,1-.15,8.38,27.43,27.43,0,0,0-1.54,7.21c-.72,7-4.52,12.06-10.23,15.67-4.46,2.81-10.8,1.44-14.88-2.79a19.14,19.14,0,0,1-4.14-6.38,26,26,0,0,0-6.82-10c-.94-.85-1.8-1.81-2.66-2.75a11.36,11.36,0,0,0-4.13-2.72,11.68,11.68,0,0,0-12.41,1.33,27.08,27.08,0,0,1-5.3,2.73,5.25,5.25,0,0,1-5.69-1.33c-1.3-1.61-1.2-3.35-.33-5.17a41.27,41.27,0,0,0,3.61-10.12C407.51,348.46,407.61,347.69,407.76,346.73Z" transform="translate(-0.48 -0.48)"/><path class="cls-1" d="M119.15,464.91a21.88,21.88,0,0,0,.73,9,3.48,3.48,0,0,0,1.58,1.91,30.18,30.18,0,0,0,10.81,2.95c2.09.19,4.28-.45,6.39-.86a20.88,20.88,0,0,1,10.22.31c3.64,1.14,7.13,2.93,9,6.65q2.3,4.61,4.39,9.31a6.62,6.62,0,0,1-.74,6.82,20.83,20.83,0,0,1-12.42,8.8,65.46,65.46,0,0,1-24.51,1.27c-5.86-.8-11.74-1.38-17.4-3.23a78.33,78.33,0,0,1-17-7.78,18.68,18.68,0,0,1-5.31-4.76,5,5,0,0,1-.86-4.47c1.5-6.71,3.07-13.4,4.31-20.15a73.46,73.46,0,0,1,5.69-18,24.92,24.92,0,0,1,5.8-8.15,10.55,10.55,0,0,1,6.1-3.08,6.93,6.93,0,0,1,4.34,1c2.81,1.67,5.55,3.49,8.44,5,3.21,1.68,5.21,4,5.57,7.74a32,32,0,0,0,1.66,6.21,3.45,3.45,0,0,1-4.42,4.47C120.83,465.69,120.14,465.33,119.15,464.91Z" transform="translate(-0.48 -0.48)"/><path class="cls-1" d="M150,410.26c-1,3.86-1.92,7.65-2.85,11.45-.14.61-.1,1.26-.18,1.89a3.3,3.3,0,0,1-6.28,1.07,6.38,6.38,0,0,0-.68-1.52c-.43-.49-1.08-1.1-1.62-1.1-1,0-1.14,1.09-1.07,1.83.16,1.58.5,3.14.8,4.7.19,1,.52,2,.68,3,.54,3.37-1.23,5-4.53,4.3a8.62,8.62,0,0,0-.94-.08c.23,1.89.42,3.7.67,5.5.33,2.37-.14,3.7-1.69,4.55a4.4,4.4,0,0,1-5.06-1c-1.94-1.78-3.84-3.6-5.84-5.32-1.51-1.3-3.17-2.42-4.71-3.68-6-5-10.1-12.19-6.79-20.46a51.06,51.06,0,0,0,3.44-20.65,43.31,43.31,0,0,0-1.81-11.32c-1.06-3.52-2-7.07-3.06-10.59-2.15-7.34.47-12.34,7-16.27,5.92-3.55,11.6-2.19,17,1.16a72.42,72.42,0,0,1,14.09,11.09c2.16,2.24,4.56,4.25,6.91,6.3a17.75,17.75,0,0,1,5.3,9.2,62.34,62.34,0,0,1,1.83,7.93,24.23,24.23,0,0,1-1,10.17c-.74,2.44-1.7,4.82-2.49,7.25a3.85,3.85,0,0,1-3.15,2.93,3.36,3.36,0,0,1-3.64-2.15A.77.77,0,0,0,150,410.26Z" transform="translate(-0.48 -0.48)"/><path class="cls-1" d="M213.69,243.56a2.51,2.51,0,0,0-3.15.93c-1.06,1.4-2.12,2.81-3.27,4.14a10.61,10.61,0,0,1-5.5,3.65,6.57,6.57,0,0,1-7.82-3.89,10.88,10.88,0,0,1-.23-8.16,60.49,60.49,0,0,1,7.42-15c1.08-1.68,2-3.45,3.24-5a5.05,5.05,0,0,1,8-.17c2.4,2.73,5.67,4.16,8.89,5.52a39.64,39.64,0,0,0,23.53,2A22.42,22.42,0,0,0,250,225.7c2.6-1.23,5.12-2.64,7.67-3.95,3.19-1.64,5.94-.95,7.88,2,2.88,4.41,5.72,8.85,8.57,13.28a12,12,0,0,1,2,6.8c0,3.63-3.82,7.37-8.21,5.78a15,15,0,0,1-5.42-3.42,25.46,25.46,0,0,0-3.82-2.82A5,5,0,0,0,257,243c0,2.23,0,4.3,0,6.36a2.06,2.06,0,0,0,.7,1.14,4.85,4.85,0,0,0,1.21.76c4,2,6.2,5.41,7.82,9.33a15,15,0,0,1,.43,9c-.74,3.42-4.33,6.52-7.66,6.64a11.93,11.93,0,0,1-7.55-2.66c-1.72-1.29-3.28-2.78-5-4.11a2.53,2.53,0,0,0-1.67-.51,58,58,0,0,1-16.49-.09,2.35,2.35,0,0,0-2.42,1.08,19.13,19.13,0,0,1-7.47,5.47c-3.88,1.7-8.3,1-10.75-2a12.13,12.13,0,0,1-2.64-6.83,15.84,15.84,0,0,1,3.56-11.38c1-1.32,2-2.73,3.06-4C214.14,248.87,213.65,246.18,213.69,243.56Z" transform="translate(-0.48 -0.48)"/><path class="cls-1" d="M290.6,231.63c-2.75.51-5.76-1.62-8.25-5.24-3.71-5.4-6.73-11-7.84-17.58a22.26,22.26,0,0,1,2.59-15.05c2-3.53,4.44-6.83,6.64-10.25a56.79,56.79,0,0,0,3.31-5.55c1.13-2.33.92-3.16-1-4.8-2.62-2.21-5.27-4.42-8-6.44a23.55,23.55,0,0,1-7-7.8,6.88,6.88,0,0,1-.71-6.17c1.13-2.9,2.1-5.88,4.2-8.28a4.16,4.16,0,0,1,5.15-1.3,53,53,0,0,1,15.27,9.31,61.43,61.43,0,0,1,8.84,10.08,36,36,0,0,0,8,8.15,38.46,38.46,0,0,1,11.68,12.84c1.17,2.18,2.64,4.19,3.88,6.33a10.9,10.9,0,0,1,.29,10.56c-2.83,6.17-5.63,12.36-8.48,18.53a16.78,16.78,0,0,1-9.64,9.14C304,230.17,298.25,231.1,290.6,231.63Z" transform="translate(-0.48 -0.48)"/><path class="cls-1" d="M466.48,282.93c0,6.18-1.75,10.11-6.16,12.67a86.15,86.15,0,0,0-7.92,5,72.17,72.17,0,0,0-6.43,5.7c-1.28,1.2-2.34,2.65-3.68,3.77a9.4,9.4,0,0,1-12,.42,42.71,42.71,0,0,1-5.45-4.68A29.48,29.48,0,0,0,418,300.6a27.43,27.43,0,0,0-4.72-1.65,34.34,34.34,0,0,1-4.28-1.49c-3.13-1.55-3.8-4.15-1.93-7.16.68-1.08,1.68-2,2.24-3.11a64,64,0,0,0,3.88-8.73c1.7-5.41,3-10.95,4.5-16.42,2.69-9.59,6.18-18.82,12.12-27a14.65,14.65,0,0,1,9.12-6.1,9.39,9.39,0,0,1,11.16,5.9c1,2.68,1.69,5.49,2.48,8.25s1.4,5.41,2.22,8.08,1.93,5.26,2.69,7.95c1.2,4.29,3.75,7.93,5.55,11.93A42.78,42.78,0,0,1,466.48,282.93Z" transform="translate(-0.48 -0.48)"/><path class="cls-1" d="M429.37,166.1a40.81,40.81,0,0,1,17.88,3.78A8.08,8.08,0,0,1,452,176q1.41,7.17,3.08,14.28a29.09,29.09,0,0,0,5.06,11.26c2.33,3,4.3,6.34,6.32,9.59,1.73,2.78,2.17,5.72.17,8.55a78.36,78.36,0,0,1-5.16,6.59c-2,2.29-4.39,2.06-6.2-.46q-1.47-2-2.8-4.19a5,5,0,0,0-3.37-2.44c-3.2-.68-6.37-1.51-9.59-2.12a5.48,5.48,0,0,0-2.78.36c-6.94,2.5-13.27,6.27-19.75,9.73a1.28,1.28,0,0,0-.4.27c-2,2.46-4.63,2.14-7.27,1.83A19.39,19.39,0,0,1,394.67,220a13.06,13.06,0,0,1,1-14.56c1.56-1.81,3.19-3.59,4.86-5.3a30.39,30.39,0,0,0,6.82-11.16,83,83,0,0,0,4.12-13.22c.74-4,2.84-7.24,6.93-8.45a45.49,45.49,0,0,1,7.57-1.14A29,29,0,0,1,429.37,166.1Z" transform="translate(-0.48 -0.48)"/><path class="cls-1" d="M165.18,309.9c1.73.66,3.42,1.36,5.14,2,4.4,1.54,6.33,5,5,9.39a12.17,12.17,0,0,1-2.63,5.29,19.16,19.16,0,0,0-1.9,2.75c-1.7,2.45-3.95,4-7,3.8-2.71-.16-5.4-.49-8.09-.82-1.74-.21-3.46-.67-5.2-.79-5.7-.4-11.14-1.94-16.63-3.38a11.85,11.85,0,0,1-5.77-3.49c-2.66-2.76-5.42-5.42-8.16-8.11-1.88-1.84-1.78-4-.9-6.19a12.3,12.3,0,0,1,4.34-5.28,177.22,177.22,0,0,0,19.19-16.27,166.17,166.17,0,0,0,16.65-19.49,11.16,11.16,0,0,0,2.32-5.7c.18-2.07.37-4.14.69-6.19a17.14,17.14,0,0,1,3.24-8.12,7.8,7.8,0,0,1,6.51-3.46c2.52.06,3.8.93,4.64,3.36.69,2,1.39,4.09,1.89,6.18.81,3.47,3.5,4.79,6.43,5.73s6.21,1.35,8.93,3.26,4,4.87,4.88,8a11.93,11.93,0,0,1,.14,2.62,7.14,7.14,0,0,1-6.63,7.8c-4.52.53-9.06.91-13.59,1.4a26,26,0,0,0-3.52.66c-3.54.9-5.91,2.89-6.61,6.71-1,5.58-2.22,11.12-3.31,16.68A8.88,8.88,0,0,0,165.18,309.9Z" transform="translate(-0.48 -0.48)"/><path class="cls-1" d="M141.23,176.09a42.27,42.27,0,0,1-1.42,5.53,65.68,65.68,0,0,1-3.81,8,27.22,27.22,0,0,0-3.43,10.9,94.3,94.3,0,0,0-.5,10.76,52.48,52.48,0,0,1-2.1,15.62,10.19,10.19,0,0,1-2.78,4.67c-2.2,2.09-4.3,4.29-6.46,6.43-4.52,4.48-9.09,5-14.48,1.57a16.34,16.34,0,0,1-4.09-3.63,92.15,92.15,0,0,1-5.62-8.34c-2.09-3.46-4.59-6.2-8.62-7.52a32.62,32.62,0,0,1-6.54-3.47c-2.1-1.29-4.1-2.77-6.12-4.2s-2.27-3.53-.53-5.35c5.26-5.51,10.85-10.63,17.7-14.17,2.48-1.28,5-2.58,7.46-3.84a17.19,17.19,0,0,0,6.18-4.83c3.41-4.53,6.73-9.12,10.15-13.64,1-1.26,2.16-2.33,3.19-3.54,2.38-2.79,4.73-5.61,7.09-8.42a7.62,7.62,0,0,1,4.7-3.07c1.9-.27,3.26.11,4,1.86,2.44,5.79,5.31,11.47,5.76,17.91,0,.24,0,.48,0,.72Z" transform="translate(-0.48 -0.48)"/><path class="cls-1" d="M398.2,138.66a59.08,59.08,0,0,1,15.23,1.52,35.19,35.19,0,0,1,5.38,2,3.21,3.21,0,0,1,2.06,3.23A16.24,16.24,0,0,1,419,153,24.52,24.52,0,0,1,409,162.68l-1.89,1a5.61,5.61,0,0,0-3,4.05c-1.49,6.39-3.21,12.73-6.9,18.3a39.59,39.59,0,0,1-4.3,5.72A71,71,0,0,0,381.12,208c-1,1.91-2.07,3.79-3.26,5.59-4.3,6.48-9.47,8.5-16.94,6.43a83.68,83.68,0,0,1-8.29-3.11,6.07,6.07,0,0,1-1.52-1.13c-.61-.52-1.14-1.14-1.78-1.6A37.42,37.42,0,0,1,337.28,199c-1.46-3.16-1.82-6.63.13-9.91a3.51,3.51,0,0,1,3.8-2c3.84.77,7.66.26,11.48,0a66,66,0,0,0,16-2.85,21.23,21.23,0,0,0,10.66-8.18,8.11,8.11,0,0,0,1-8.4c-.81-1.91-1.4-3.92-2.24-5.82-2.79-6.33-1.08-11.93,2.93-17,3.16-4,7.25-6.47,12.58-6.3C395.16,138.7,396.68,138.66,398.2,138.66Z" transform="translate(-0.48 -0.48)"/><path class="cls-1" d="M224.83,171.82c9.15-2.64,17.61-1.06,25.9,1.7.94-1.41,1.79-2.85,2.8-4.16a9.23,9.23,0,0,1,9.55-3.51,11.92,11.92,0,0,1,9.72,8.28c1.33,3.83,1.1,9.24-4.13,11.7-1.08.51-2.17,1-3.29,1.41-1.69.64-1.74.62-1.54,2.4a29.76,29.76,0,0,1-.37,10.73,23.21,23.21,0,0,1-11.26,14.84c-5.91,3.47-12.32,4.27-19,3.33-2.91-.42-6-.6-8.63-1.77-6-2.7-11.45-6.42-15-12.24a24,24,0,0,1-2.95-16.64c.32-2.11.89-4.19,1.36-6.35-1.26-.8-2.58-1.54-3.8-2.42A9.15,9.15,0,0,1,201,168.47a14.1,14.1,0,0,1,12.37-9.18,7.77,7.77,0,0,1,4.79,1.23c3,1.94,5.23,4.41,5.78,8.12A27.07,27.07,0,0,0,224.83,171.82Z" transform="translate(-0.48 -0.48)"/><path class="cls-1" d="M72.3,364.75c-.59.16-1.18.36-1.78.48a3.36,3.36,0,0,1-4-2.16,3.17,3.17,0,0,1,1.69-4A12.29,12.29,0,0,0,74,353.22a2.73,2.73,0,0,0,.28-.66c0-.13,0-.29-.08-.58a16.49,16.49,0,0,1-1.75.51,3.3,3.3,0,0,1-3.62-1.73,3.44,3.44,0,0,1,.74-4c.46-.44,1-.75,1.53-1.16a12.37,12.37,0,0,0,4.06-7.2c-.89.2-1.45.37-2,.46a3.19,3.19,0,0,1-3.2-1.2,3,3,0,0,1-.36-3.59c1-1.66,2-3.25,3-4.88a11.5,11.5,0,0,0,2.09-6.86c-.46.23-.85.46-1.27.63a3.37,3.37,0,0,1-4.1-.94c-1-1.3-.84-2.9.22-4.42,1.27-1.82,2.46-3.7,3.55-5.64a17.56,17.56,0,0,0,1.28-3.35,6.74,6.74,0,0,1,9.25-3.91c3.67,1.95,7.41,3.8,10.92,6A87.17,87.17,0,0,1,103,317c4.59,3.74,9.1,7.56,13.6,11.41a18.15,18.15,0,0,1,5.1,6.58c1.75,4.06-.17,7.07-4.54,7.2-.88,0-1.76,0-2.64,0-8.49-.06-13.21,4.13-15.58,11.91a37.49,37.49,0,0,0-1.52,15.36c.74,6.44,1.36,12.88,2.9,19.19.39,1.63.86,3.24,1.24,4.87a3.35,3.35,0,0,1-1.37,3.8,3.19,3.19,0,0,1-4-.12c-3.2-2.63-7-4.56-9.59-7.88a4.66,4.66,0,0,0-1-1c-4.51-3-8.44-6.89-13.39-9.25a26.15,26.15,0,0,0-3.33-1.14c-.76-.25-1.57-.37-2.3-.67a3.68,3.68,0,0,1-.82-6.54c1.6-1.19,3.28-2.28,4.87-3.48a23,23,0,0,0,2-1.93Z" transform="translate(-0.48 -0.48)"/><path class="cls-1" d="M462.23,241c.08-.71.17-1.91.36-3.08.3-1.81,1.48-2.68,3.22-3.08,7.09-1.61,14.19-3.15,21.22-5a10.53,10.53,0,0,0,6.88-6.25c1.41-3.05,2.8-6.1,4.25-9.13a24.46,24.46,0,0,1,6.45-8.54,9.59,9.59,0,0,1,5.06-2.57,9.92,9.92,0,0,1,4.21.31,36.55,36.55,0,0,1,12.31,6.81c3.83,3.38,7.57,6.88,11.23,10.44,2,2,2.14,3.63.67,6.26-1.71,3.07-3.44,6.13-5.27,9.14s-3.72,6-5.71,8.86c-1.37,2-3,3.83-5.54,4.29a6.75,6.75,0,0,1-2.83,0,33,33,0,0,0-10.24-.71c-3.66.19-6.56,1.75-8.23,5.26-1.41,2.95-3,5.81-4.49,8.74a7.45,7.45,0,0,1-3.13,3.11c-3,1.83-6.35,2.57-9.71,3.3-4.19.91-7.57-.54-10.17-3.78a58.63,58.63,0,0,1-7.52-11.66A31.35,31.35,0,0,1,462.23,241Z" transform="translate(-0.48 -0.48)"/><path class="cls-1" d="M251.12,284.74a47.69,47.69,0,0,1,5.87,1c8.05,2.4,11,10.23,9.66,16.8a8.35,8.35,0,0,0,1.6,7.58,9.34,9.34,0,0,0,6.86,3.43c2.79.23,5.36-.64,8-1.39a18,18,0,0,1,4.91-.84c3.11,0,5.08,1.68,6.27,5,1,2.73.48,4.75-1.92,6.84s-4.8,4-7.2,6a78.17,78.17,0,0,0-16.48,18.27c-.76,1.22-1.71,2.32-2.47,3.54a5.33,5.33,0,0,1-4.17,2.46c-3.69.49-7.12-.46-10.49-1.81-1-.41-2.07-.81-3.12-1.18a39,39,0,0,1-16.54-10.62c-.47-.53-1-1-1.47-1.57a3.15,3.15,0,0,1-.48-4.16c3.79-5.53,5.18-11.82,5.77-18.32.47-5.24.71-10.52,1-15.78.19-4.09,1.38-7.68,4.52-10.46a5.46,5.46,0,0,0,.68-.68A9.77,9.77,0,0,1,251.12,284.74Z" transform="translate(-0.48 -0.48)"/><path class="cls-1" d="M462.7,509.53a5.32,5.32,0,0,0-.58.53c-1,1.49-2.23,2.28-4.05,1.75a3.8,3.8,0,0,1-2.6-3.91,35,35,0,0,1,.68-4.73c.19-1.16.42-2.32.73-4-.93.78-1.43,1.23-2,1.64a3.27,3.27,0,0,1-3.81.36,3.2,3.2,0,0,1-1.79-3.39c1.09-7.42,3.34-14.36,9-19.66,3.93-3.68,8.71-4.57,13.84-3.27a26.06,26.06,0,0,1,15.53,10.91,29.85,29.85,0,0,0,12.05,10.33,6.36,6.36,0,0,0,3.22.64,48.08,48.08,0,0,0,7-1.26c5-1.32,10-2.32,15.15-1.64A41.35,41.35,0,0,1,541.6,500a8.22,8.22,0,0,1,3.87,5.54c.31,1.56.78,3.1,1.06,4.67.75,4.32-1.84,8.16-6.85,7.83-3.19-.21-6.38-.37-9.58-.43-1.83,0-3.67.27-5.5.24-8.79-.15-17.58-.31-26.37-.58-6.47-.19-12.93-.53-19.4-.85-3.19-.15-6.38-.44-9.57-.59s-5.23-1.63-6-4.75C463.1,510.64,462.92,510.2,462.7,509.53Z" transform="translate(-0.48 -0.48)"/><path class="cls-1" d="M378.51,350.44a36,36,0,0,1-1.7,4.84,44.57,44.57,0,0,1-3.79,6.06,8.75,8.75,0,0,1-2.85,2.08,3.34,3.34,0,0,1-4.67-4.4,14.59,14.59,0,0,0,1.26-7.24,8.33,8.33,0,0,0-.36-2.11,15.92,15.92,0,0,0-17.7-10.94,84.91,84.91,0,0,1-16.48,1.12,34.24,34.24,0,0,1-11.39-2.6,11.32,11.32,0,0,1-5.31-4.33,66.17,66.17,0,0,1-3.53-5.63,5.46,5.46,0,0,1,.09-5.9,14.16,14.16,0,0,1,9.15-6c2.42-.52,4.84-1.07,7.28-1.44a46.51,46.51,0,0,1,16.67.75,5.23,5.23,0,0,0,3.72-.38c2-1.1,4.1-2.15,6-3.44,2.67-1.81,5.34-3.55,8.64-3.9a11.27,11.27,0,0,1,3.8,0c3.92,1,7.92,1.66,11.49,3.92a107.87,107.87,0,0,0,10.21,5.24c1.53.75,2.55,1.88,2.21,3.58-.76,3.8.4,7.24,1.59,10.74a22.29,22.29,0,0,1-3,20.76A22,22,0,0,1,385,356a3.11,3.11,0,0,1-4.82-2.1A6.26,6.26,0,0,0,378.51,350.44Z" transform="translate(-0.48 -0.48)"/><path class="cls-1" d="M615.86,235.27c2.56.23,4.31.37,6,.56,5.27.58,11.27,6.55,11.3,12.31,0,1.12.34,2.24.26,3.34-.33,5.11,2.42,8.59,6,11.66.85.73,1.78,1.36,2.67,2,2,1.54,4.12,3,6.09,4.63a4.84,4.84,0,0,1,1.56,4.79c-.28,1.6-1.55,2.36-3.07,2.63a62.48,62.48,0,0,1-6.63,1,90,90,0,0,0-12.53,1.57c-6.49,1.32-13.07,2.23-19.59,3.38A43.69,43.69,0,0,0,596.62,287a13.2,13.2,0,0,1-2.92,1c-4.3.94-8.36-.91-9.86-5a41.89,41.89,0,0,1-2.43-10.45,11.62,11.62,0,0,1,3.63-9.09c3.13-3.2,3-3.7.5-7.85-.78-1.29-1.91-2.37-2.69-3.67a23.32,23.32,0,0,1-2.08-4.26c-1.48-4.12,1.7-7.29,5.12-7.73,7-.92,13.89-2.17,20.83-3.27C610,236.14,613.33,235.65,615.86,235.27Z" transform="translate(-0.48 -0.48)"/><path class="cls-1" d="M257.9,392.11a13,13,0,0,0-1.68.49c-1.23.56-2.47,1.13-3.66,1.78a34.85,34.85,0,0,0-4.07,2.45c-2.65,1.95-5.3,3.81-8.68,4.34-1.64.25-3.2.58-4.42-.89s-.8-2.95-.06-4.48c.57-1.19,1-2.44,1.51-3.66l-.47-.42c-1.42.78-2.86,1.52-4.26,2.35-2.54,1.5-5,3.12-7.6,4.55a12,12,0,0,1-6.72,1.38,3.88,3.88,0,0,1-3.65-2.29,3.54,3.54,0,0,1,.86-4,4.79,4.79,0,0,0,1.18-2.24c-2.33,1-4.64,2-7,2.92a36.73,36.73,0,0,1-15.79,2.07,14.3,14.3,0,0,1-2.83-.47,3.77,3.77,0,0,1-2.85-3.19A3.38,3.38,0,0,1,190,389.3a24,24,0,0,0,9.93-8.06,17.79,17.79,0,0,0,2.5-5.9c1-4,2.46-7.68,5.34-10.78,2.56-2.74,4.8-5.78,7.24-8.63a36.13,36.13,0,0,1,3.22-3.21c2-1.87,4.52-1.92,7-1.26,10.06,2.67,19.05,7.68,28.08,12.67a10.56,10.56,0,0,1,6,9.32c.16,2.24.13,4.64,1.61,6.66a8.16,8.16,0,0,0,2.8,2.52c2.6,1.39,5.17,2.86,7.68,4.41a3.3,3.3,0,0,1,1,5,16.51,16.51,0,0,1-10.92,7.55c-2.84.58-4.74-1.15-4.3-4C257.36,394.49,257.63,393.45,257.9,392.11Z" transform="translate(-0.48 -0.48)"/><path class="cls-1" d="M338.51,305.35a34.52,34.52,0,0,1-10.13-1.64c-2.45-.73-4.94-1.29-7.4-2a3.64,3.64,0,0,0-3.36.66,45.69,45.69,0,0,1-9.52,5,10.83,10.83,0,0,1-9.89-.55,20.43,20.43,0,0,0-12.47-2.48,27.38,27.38,0,0,1-2.87.06c-6,0-9.33-5-7.57-10.73.82-2.67,1.81-5.29,2.89-7.87a34.19,34.19,0,0,0,2.78-9.63,30.41,30.41,0,0,0,.06-4.27c-.09-2.32-.33-4.62-.4-6.93-.1-3.57,3.05-6,6.84-5.44,2.51.4,5,.64,7.56,1a61.3,61.3,0,0,1,6.62,1.09c9.49,2.49,19.09,4.61,28.2,8.39,1.76.74,3.33,1.79,3.59,3.84.76,5.87,3.95,10.3,8,14.36a47.69,47.69,0,0,1,5.79,7c1.93,2.87,1.7,4.59-.61,6.53-.12.11-.22.23-.33.35C343.16,305.22,342.89,305.34,338.51,305.35Z" transform="translate(-0.48 -0.48)"/><path class="cls-1" d="M473.23,202.65a18.22,18.22,0,0,1,2.4-8.9c2-3.44,4.2-6.79,6.33-10.17a12.85,12.85,0,0,1,1.47-1.9c5.68-6.05,10.67-12.73,16.71-18.47a28.54,28.54,0,0,0,7.7-13.08,14.07,14.07,0,0,0,.48-3.55,60.58,60.58,0,0,0-.57-12.9c-.48-2.54.72-3.94,3.32-4.2a46.22,46.22,0,0,1,17.33,1.68c4.75,1.36,9.34,3.26,14,5.06a13.39,13.39,0,0,1,3.62,2.3c2,1.69,1.79,4.17-.33,5.7a7.34,7.34,0,0,1-.82.48A49.5,49.5,0,0,0,530,157.07c-2.15,2.53-2.59,5.64-2.86,8.74-.29,3.5-.29,7-.49,10.54a49.13,49.13,0,0,1-.56,5,6.84,6.84,0,0,1-3.94,5.11c-4.1,2.1-8.54,3.1-13,4.11a14.47,14.47,0,0,0-3.18,1,40,40,0,0,0-9.72,6.53,14.3,14.3,0,0,0-4,6.16c-1.16,3.5-2.49,6.91-5,9.74s-5.74,3.13-8.57.61C475,211.29,473.63,207,473.23,202.65Z" transform="translate(-0.48 -0.48)"/><path class="cls-1" d="M410.37,253.51c-.64,3.93-1.12,8.64-3.09,13-3.17,7-6.45,13.9-9.61,20.88a29.55,29.55,0,0,1-8.89,10.83c-5,4-10.39,3.9-14.81-.83a37.32,37.32,0,0,0-10-7.22c-1.76-1-3.64-1.66-5.41-2.57a10.75,10.75,0,0,1-5.92-12.17c.87-3.74,3.56-5.92,6.78-7.6a1.23,1.23,0,0,1,.45-.17c4.11-.58,6.81-3.33,9.32-6.23A27.5,27.5,0,0,0,375,250.75a36,36,0,0,0,1.38-12.3,9.55,9.55,0,0,1,3.37-8.32c2.78-2.35,5.2-2.26,7.86.25a21.76,21.76,0,0,1,1.85,1.87c2.67,3.13,6.29,4.83,9.83,6.69a47.56,47.56,0,0,1,6.14,3.69C408.75,245.11,410.33,248.59,410.37,253.51Z" transform="translate(-0.48 -0.48)"/><path class="cls-1" d="M212.44,340.14c-.93,1.69-1.77,3.14-2.54,4.62-2.3,4.4-6.35,4.95-10.13,2.92a44.46,44.46,0,0,0-4.39-1.81c-2.08-.83-4.2-1.56-6.23-2.49a15,15,0,0,1-7.36-7.6,8.56,8.56,0,0,1,.91-9.07,49,49,0,0,1,4.34-4.79c2.38-2.49,2.76-5,.67-7.72a30.13,30.13,0,0,0-4.65-4.44c-2.37-2-5.06-3.68-7.25-5.85-3.22-3.17-1.7-8.07,1.46-9.91a17.53,17.53,0,0,1,5.56-2.1q13.21-2.32,26.49-4.33c4.66-.71,9.36-1.16,14.05-1.71a5.34,5.34,0,0,1,5.68,3.41,12.51,12.51,0,0,1,.7,7.07c-1.21,6.92-2.39,13.86-5,20.44-.89,2.23-1.75,4.46-2.54,6.72a37.52,37.52,0,0,0-1.81,11.08,18.35,18.35,0,0,1-.45,3.55,3.2,3.2,0,0,1-3.75,2.57C215,340.58,213.81,340.35,212.44,340.14Z" transform="translate(-0.48 -0.48)"/><path class="cls-1" d="M467.22,448.68A33.56,33.56,0,0,1,473,429a59.57,59.57,0,0,1,7.69-9.46,77.15,77.15,0,0,0,7.72-9.46,17.48,17.48,0,0,0,3.13-9.44,20.47,20.47,0,0,1,3.13-9.46,5.77,5.77,0,0,1,6.23-3.07,36,36,0,0,1,4,.72c3.78,1,5.7,3.92,7.08,7.25a4,4,0,0,1-.57,3.43,40.45,40.45,0,0,0-2.95,6.25,100.59,100.59,0,0,0-4.6,22.5c-.58,6.38-.93,12.75-1,19.15a68.62,68.62,0,0,0,1.29,13.34c.81,4.24,1.38,8.52,2.09,12.77.19,1.18.51,2.34.73,3.52a19.2,19.2,0,0,1,.39,2.6c.11,1.95-.32,3.74-2.21,4.69a5.33,5.33,0,0,1-5.65-.64,8.73,8.73,0,0,1-1.72-1.66c-1.95-2.33-3.77-4.77-5.79-7a96.41,96.41,0,0,0-6.8-7.06,12.64,12.64,0,0,0-4.12-2.3,42.66,42.66,0,0,0-6.46-1.79c-3.29-.63-5.13-2.64-6.13-5.7A29.67,29.67,0,0,1,467.22,448.68Z" transform="translate(-0.48 -0.48)"/><path class="cls-1" d="M505.69,269.5c.07-1,.12-2.48.29-3.91.39-3.37,1.9-4.8,5.27-5.46a30.89,30.89,0,0,1,13.76.47,13.24,13.24,0,0,1,5.07,2.57c4.58,3.62,8.07,8.13,11.31,12.93a59.78,59.78,0,0,0,6.09,7,2.15,2.15,0,0,0,1.93.32,34.6,34.6,0,0,0,5.27-2.73,23.29,23.29,0,0,1,7.29-3.51,7.28,7.28,0,0,1,8.91,6.89,10.06,10.06,0,0,1-3.16,8,56.38,56.38,0,0,1-6.72,4.94c-2.46,1.64-5.13,3-7.52,4.68a24.29,24.29,0,0,0-6.35,7.43,54.33,54.33,0,0,0-5.92,11.74,9.67,9.67,0,0,1-1.82,3.06c-1.89,2.29-4.53,2.48-7,.87-5.59-3.6-9.48-8.79-13-14.2A67.09,67.09,0,0,1,511.5,294c-1.05-3.34-2.47-6.58-3.49-9.93A61.73,61.73,0,0,1,505.69,269.5Z" transform="translate(-0.48 -0.48)"/><path class="cls-1" d="M412.83,392c-2.18,1.29-4,2.45-5.89,3.44a3.22,3.22,0,0,1-4.88-2.09,4.79,4.79,0,0,1,.48-2.71c1.33-2.81,2.79-5.56,4.22-8.32.52-1,1.14-1.93,1.65-2.92,2.41-4.63,11-6.23,14.84-2.16,1.81,1.91,3.68,3.78,5.45,5.73q6.35,7,12.6,14.15a3.28,3.28,0,0,0,2.92,1.29,29.83,29.83,0,0,0,4.74-.61,89.65,89.65,0,0,0,16.36-6.08c3.28-1.6,6.39-3.66,10.15-4.13a8.94,8.94,0,0,1,6.49,1.91c1.79,1.32,2,5,.63,7.36a6.63,6.63,0,0,1-.7,1c-4.46,5.27-7.73,11.34-11.47,17.1-2.22,3.41-4.54,6.77-6.95,10.05a10.28,10.28,0,0,1-6.47,4.22,8.54,8.54,0,0,1-7.2-1.76c-1.3-1-2.45-2.29-3.69-3.41-2.66-2.42-5.21-5-8-7.17a17.85,17.85,0,0,0-11.77-4.06,10.29,10.29,0,0,0-3.8,1.21c-2.23,1.05-4.39,2.27-6.57,3.42-1.2.63-2.42,1.23-3.58,1.92-1.79,1.06-3.43,1.09-4.64,0s-1.42-2.82-.62-4.65c1.4-3.22,2.86-6.41,4.18-9.66a27.39,27.39,0,0,0,2-9.58A24.65,24.65,0,0,0,412.83,392Z" transform="translate(-0.48 -0.48)"/><path class="cls-1" d="M580.52,406.4a19.25,19.25,0,0,1,3.53-10.48c1.76-2.47,3.34-5.06,5-7.63a6.41,6.41,0,0,0,.64-4.86,14.16,14.16,0,0,1,1.7-10.38c1.32-2.18,2.92-3.73,5.76-3.47,1.82.17,3.67.08,5.5.07,3.29,0,5.26,1.92,6.8,4.54,1.85,3.16,3.64,6.36,5.59,9.46,4.78,7.58,9.31,15.27,12.64,23.63,1.57,3.92,3.61,7.67,4.94,11.67,1.4,4.22,2.22,8.64,3.26,13a3.53,3.53,0,0,1-5.41,3.84c-3.12-2.25-6.72-2.76-10.37-3.34a51.89,51.89,0,0,1-7.66-1.88,11.45,11.45,0,0,1-6.51-5.34,28.88,28.88,0,0,0-2.93-4.08,5.34,5.34,0,0,0-2.31-1.6c-2.43-.77-4.93-1.31-7.39-2a57.56,57.56,0,0,1-6.87-2C582.16,413.82,580.71,410.23,580.52,406.4Z" transform="translate(-0.48 -0.48)"/><path class="cls-1" d="M299.43,478.77c-4.8-.35-10.1-.48-15.32-1.16-7.16-.93-6.37-.76-10.46-5.92-2.68-3.38-5.41-6.72-8.12-10.08-1.16-1.43-2.42-2.78-3.48-4.27-3.07-4.36-7-7.89-11-11.38a27.33,27.33,0,0,0-5.18-3.42c-2.77-1.49-3.35-3.49-1.88-6.32,2.46-4.72,6.49-7.15,11.5-8.15a32.91,32.91,0,0,1,14,.16,18.18,18.18,0,0,1,7.22,3.66c5.14,4.1,9.88,8.61,13.41,14.24a24.26,24.26,0,0,1,3.47,7.86,3.43,3.43,0,0,0,2.79,2.89c4,1,8.08,1.9,12.09,3a42,42,0,0,1,7.25,2.41c4.51,2.15,6.28,6.14,6.25,10.94a4.94,4.94,0,0,1-3,4.33,14.32,14.32,0,0,1-6.71,1.49C308.2,479,304.05,478.86,299.43,478.77Z" transform="translate(-0.48 -0.48)"/><path class="cls-1" d="M597.6,486.17c-1.88-.22-5.46-.58-9-1.09a14,14,0,0,1-6.51-2.9c-1.39-1.07-2.7-2.25-4.08-3.34a7,7,0,0,1-2.7-7.88,40.32,40.32,0,0,1,3.82-9,77.67,77.67,0,0,1,7.1-9.93,38.42,38.42,0,0,1,18-11.83c3.87-1.28,7.9-1,11.88-.34,1.1.17,2.17.53,3.26.79,5.28,1.24,8.71,4.7,11.2,9.32,2.61,4.83,2.21,9.45-.54,14.08A53.55,53.55,0,0,1,615,480c-1.48,1.08-3,2.14-4.55,3.11C606.67,485.47,603.74,486.25,597.6,486.17Z" transform="translate(-0.48 -0.48)"/><path class="cls-1" d="M478.68,131.2l13.62-.7c3.25-.18,5.44,1.37,6.36,4.61a13.34,13.34,0,0,1-1.08,10.23c-4.36,8.13-9.48,15.73-16.17,22.16-.81.77-1.41,1.76-2.24,2.5a89.94,89.94,0,0,1-7.06,6.06c-2.53,1.85-4.67,1.69-6.85.05a3.23,3.23,0,0,1-1.5-2.85c.37-5.36-2.42-9.06-6.36-12.15A33.58,33.58,0,0,0,445.05,155a20.38,20.38,0,0,1-10.51-6.75,11.78,11.78,0,0,1-2.92-5.94,4.61,4.61,0,0,1,3.5-5.46,148.5,148.5,0,0,1,30.38-5.37c4.38-.26,8.77-.43,13.16-.64Z" transform="translate(-0.48 -0.48)"/><path class="cls-1" d="M592.32,430.59a3.53,3.53,0,0,1-.18,1.41c-1.27,2.16-1.95,4.7-4.26,6.21a58.48,58.48,0,0,0-12.08,10.84,3.39,3.39,0,0,1-3.7,1.06,2.39,2.39,0,0,1-.44-.18c-8-3.88-16.45-6.71-24-11.49a59.55,59.55,0,0,1-6-4.37,20,20,0,0,1-2.79-3.27,3.45,3.45,0,0,1-.21-4A22.06,22.06,0,0,0,541.1,415c-.11-2.56-.34-5.12-.25-7.67a15.47,15.47,0,0,1,7.78-13.49,18.41,18.41,0,0,1,5.85-2.64,8.81,8.81,0,0,1,7.27,1.53,27.2,27.2,0,0,1,8.27,9.19,10.7,10.7,0,0,1,1.16,3.37c.43,2.92.74,5.86,1,8.8.16,2,.76,3.56,2.66,4.47,4.23,2,7.92,5.15,12.54,6.39a7.77,7.77,0,0,1,3.6,2.23A4.45,4.45,0,0,1,592.32,430.59Z" transform="translate(-0.48 -0.48)"/><path class="cls-1" d="M679.19,290.86c-.12,1.47-.29,3.94-.52,6.4-.41,4.28-.5,8.59-1.54,12.82A29,29,0,0,1,672,320.8c-1.2,1.58-2.3,3.24-3.34,4.93a5,5,0,0,1-5.92,2.33A54.33,54.33,0,0,1,651.18,323a15.75,15.75,0,0,1-1.67-.91,12.05,12.05,0,0,1-2.46-2.13c-2.94-3.88-5.57-8-8.72-11.72-2.73-3.21-6-6-9-8.91-1.26-1.23-2.47-2.45-2.79-4.33-.5-2.91.41-5,3.08-6.29a82.18,82.18,0,0,1,18.43-5.9,59.31,59.31,0,0,0,7.32-2.23,3.74,3.74,0,0,0,2.74-4,13.68,13.68,0,0,1,.11-1.91,5.31,5.31,0,0,1,3.86-5c1.51-.54,3-1.16,4.49-1.67a5.45,5.45,0,0,1,5.92,2.11C677.07,275.88,679.13,282.53,679.19,290.86Zm-16.57,21.45a4.23,4.23,0,1,0-8.45.11,4.23,4.23,0,1,0,8.45-.11Z" transform="translate(-0.48 -0.48)"/><path class="cls-1" d="M539.34,170.12c-.12-7.71,4.91-12.89,12.07-16.49,2.48-1.25,5.19-2,7.79-3.08a3.33,3.33,0,0,1,3.39.51c5.22,3.82,10.63,7.45,14.72,12.59,2.59,3.25,5.06,6.59,7.64,9.85a24.92,24.92,0,0,0,2.88,3.19A81.59,81.59,0,0,1,600.59,191a42.39,42.39,0,0,1,3.06,5.42,3.86,3.86,0,0,1-.95,4.79,16.19,16.19,0,0,1-6.54,3.86,19.55,19.55,0,0,1-12.26.22,4.47,4.47,0,0,0-1.15-.31,4.58,4.58,0,0,1-4-2.68A78.88,78.88,0,0,0,567.54,188a7,7,0,0,0-4.35-2.16c-4.74-.75-9.47-1.55-14.16-2.5a44.33,44.33,0,0,1-5.69-1.83,4.34,4.34,0,0,1-2.59-2.67A20.24,20.24,0,0,1,539.34,170.12Z" transform="translate(-0.48 -0.48)"/><path class="cls-1" d="M534,348.78a27.86,27.86,0,0,1-1.32,3.37c-4.42,8-9.43,15.63-12,24.46-.84,2.84-2.94,4.24-5.26,5.53a3,3,0,0,1-3.38-.38c-2-1.56-4-3.18-6-4.79-.43-.36-.79-.79-1.22-1.16-2.66-2.28-3.56-1.87-5.57-.19-1.83,1.54-3.83,2.87-5.81,4.23a7.56,7.56,0,0,1-5.24,1.21,27.06,27.06,0,0,1-7.27-1.31c-1.88-.74-3-2-2.91-3.92a18.72,18.72,0,0,1,.91-5.37c1.46-4,3.18-8,4.79-12,.8-2,1.72-4,2.33-6a9.37,9.37,0,0,1,4.32-5.54,150,150,0,0,1,29.08-14.06,5.1,5.1,0,0,1,5.93,1.71c2.46,3.35,4.87,6.73,7.13,10.21A19.32,19.32,0,0,1,534,348.78Z" transform="translate(-0.48 -0.48)"/><path class="cls-1" d="M341.24,262.06c-3.41-.81-7-1.27-10.2-2.51-7.46-2.84-15.23-4.23-23-5.58-4.09-.71-8.22-1.26-12.26-2.19-3.73-.87-5.35-3.54-4.05-7.47a8.32,8.32,0,0,1,8.23-6.16,53.3,53.3,0,0,1,8.37.51,12.45,12.45,0,0,0,8.62-2.22,23.2,23.2,0,0,0,7-7.1,44,44,0,0,1,4.28-5.45c3.21-3.57,7.21-4.2,11.59-2.67a22.92,22.92,0,0,1,4.47,2.27c5,3.13,10,6.29,15,9.53a18.7,18.7,0,0,1,4,3.39c1.86,2.16,1.94,3.15.27,5.57a110.81,110.81,0,0,1-7.4,9.7c-2.24,2.58-4.9,4.81-7.4,7.17A11.2,11.2,0,0,1,341.24,262.06Z" transform="translate(-0.48 -0.48)"/><path class="cls-1" d="M212.2,430.13c-.55.53-1.1,1.07-1.67,1.59a3.23,3.23,0,0,1-3.36.66,3.07,3.07,0,0,1-2.2-2.86,9.74,9.74,0,0,1,.43-3,26.73,26.73,0,0,0,1.39-9.47,22.89,22.89,0,0,1-2.55,1.63,8.35,8.35,0,0,1-2.91.91,3.09,3.09,0,0,1-3.24-3.39c.27-3.1.74-6.18,1.27-9.25a2.71,2.71,0,0,1,2.65-2.39,8.92,8.92,0,0,1,3.94.59,24,24,0,0,0,8.5,2.33c8.19.69,16.41,1.34,24.62,1.42,6.77.06,13.55-.93,20.33-1.08,7.89-.17,15.23-2.59,22.68-4.7a33.78,33.78,0,0,1,5.39-1,3.27,3.27,0,0,1,3.67,4.07q-1.29,6.09-2.66,12.16a17.72,17.72,0,0,1-.82,2.75,3.39,3.39,0,0,1-4.89,1.92c-1.24-.56-2.43-1.21-3.68-1.72-9.07-3.74-18.4-5.12-28.1-3.14-3.7.75-6.63,3.07-9.69,5.07-.25.17-.37.52-.57.76a83.15,83.15,0,0,1-6.26,7.21A68.32,68.32,0,0,1,219,442a31.59,31.59,0,0,1-4.44,1.77,3.43,3.43,0,0,1-4.08-1.13,3.34,3.34,0,0,1,0-4,17.88,17.88,0,0,0,2.2-8.2Z" transform="translate(-0.48 -0.48)"/><path class="cls-1" d="M192.87,367.81c.1,2.1.22,4,.27,5.91a10.82,10.82,0,0,1-.14,2.61,3.4,3.4,0,0,1-5.77,1.81c-1.64-1.46-1.64-1.46-3.26-1.69,0,1.82.08,3.64,0,5.45a8.67,8.67,0,0,1-.73,2.77,3.17,3.17,0,0,1-3.56,1.82,3.21,3.21,0,0,1-2.71-2.93c-.11-.88.47-1.93-.93-2.73-.28.87-.54,1.66-.79,2.45a43.89,43.89,0,0,1-1.47,4.55,3.23,3.23,0,0,1-4.19,1.78,3.13,3.13,0,0,1-1.95-4.11c1.31-2.93.12-5.84.32-8.75a3.92,3.92,0,0,0-.73-2,29.2,29.2,0,0,0-11-11.07,125.35,125.35,0,0,1-11.1-6.66,83.69,83.69,0,0,1-10.31-8.1c-2.05-2-3.13-4.39-2.16-7.14s3.22-3.7,5.86-3.84a24.37,24.37,0,0,1,4.5.34c2.05.3,4.07.78,6.11,1.08,6.41.94,12.85,1.53,19.31,1.92a22.45,22.45,0,0,1,4.92,1,9.78,9.78,0,0,1,2.37,1.4c.46.31.89.67,1.35,1l19.26,13.49a4.92,4.92,0,0,0,1,.68,3.55,3.55,0,0,1,2.61,3.56,6.67,6.67,0,0,1-2.58,5.66C195.89,369.11,194.41,368.62,192.87,367.81Z" transform="translate(-0.48 -0.48)"/><path class="cls-1" d="M535.7,199.88c.07-1,.11-1.92.2-2.87a5.49,5.49,0,0,1,4.59-5.37,39.29,39.29,0,0,1,11.43-1,9.45,9.45,0,0,1,6.89,4.35,175.78,175.78,0,0,1,9.79,14.78c3.22,5.66,12.39,9.11,17.61,7.23,5.78-2.09,11.75-3.66,17.65-5.42a13.24,13.24,0,0,1,12.8,2.69,37.37,37.37,0,0,1,4.58,4.9,7,7,0,0,1,1.29,2.54,2.92,2.92,0,0,1-1.24,3.58,10.75,10.75,0,0,1-5.1,1.84,178.16,178.16,0,0,0-25.05,2.37c-6.37,1.17-12.67,2.63-19,4a5.39,5.39,0,0,1-3.45-.36c-6.72-2.81-12.45-7.13-18-11.72-3.26-2.7-6.52-5.42-9.56-8.36C536.36,208.43,535.66,206.44,535.7,199.88Z" transform="translate(-0.48 -0.48)"/><path class="cls-1" d="M515,411c.3-1.13.58-2.71,1.12-4.2,2.46-6.81,6.3-12.89,10.08-19a32.36,32.36,0,0,0,1.91-3.32c2.81-5.91,5.52-11.88,8.38-17.76a97.22,97.22,0,0,1,5-9.26c2.46-3.92,5.45-4.7,9.64-2.74a22.6,22.6,0,0,1,4,2.53,42.81,42.81,0,0,0,9.52,5.94c2.72,1.15,5.36,2.47,8.06,3.66a6.43,6.43,0,0,0,2.29.6,5,5,0,0,1,4.31,3c2.68,5.34,3.22,10.8.4,16.32a5.08,5.08,0,0,1-6.38,2.76,26.8,26.8,0,0,1-5-2.75c-3-1.88-5.87-3.85-8.78-5.81a4.9,4.9,0,0,0-3.67-.7,24.8,24.8,0,0,0-6.83,2.06,32.83,32.83,0,0,0-12.06,10.33,13.74,13.74,0,0,0-1.81,3.35,109.5,109.5,0,0,0-5.46,18.34,17.46,17.46,0,0,1-1.17,3.89c-1.28,2.91-4,3.63-6.66,1.94a10.81,10.81,0,0,0-1.92-1C516.5,417.85,515.34,415,515,411Z" transform="translate(-0.48 -0.48)"/><path class="cls-1" d="M483.41,280c.56,0,1.12,0,1.68,0,7.16-.25,13.49,6.95,12.91,14.08a38.8,38.8,0,0,0,.56,8.1,7.16,7.16,0,0,0,1.36,3c3.07,4.39,6.27,8.68,9.31,13.08,2.37,3.43,1.45,6.33-1,8.9a12.67,12.67,0,0,1-4.13,2.79,104.63,104.63,0,0,1-18.49,5.87c-3.36.75-6.21.17-8.67-2.56a35.05,35.05,0,0,1-6.15-8.51,10.14,10.14,0,0,0-1.67-2.31,14,14,0,0,1,1.92-20.71,20.6,20.6,0,0,1,2.77-1.9,5.77,5.77,0,0,0,2.8-4c.82-3,.46-6,.19-9.06-.09-1-.33-2-.41-3.09a3.29,3.29,0,0,1,2.92-3.74,12.81,12.81,0,0,1,2.15-.14c.64,0,1.28.08,1.91.12Z" transform="translate(-0.48 -0.48)"/><path class="cls-1" d="M548.65,335.72a47.82,47.82,0,0,1,3.28-12.89,42,42,0,0,1,10.92-15.53,67.25,67.25,0,0,0,5.27-5.89c2.14-2.47,4.21-5,6.4-7.43a5,5,0,0,1,6.11-1.12,22.15,22.15,0,0,1,4.17,2.79c1.74,1.52,1.56,3.6.87,5.54a41.7,41.7,0,0,1-2.28,5,36.73,36.73,0,0,0-3.77,10.3,13.34,13.34,0,0,0,.6,7.29c1.49,3.87,2.79,7.81,4.25,11.69,2.11,5.62,1.28,11-1.22,16.24a6.74,6.74,0,0,1-8.12,3.79c-5.84-1.68-11.66-3.39-17.09-6.15-3.19-1.63-6.41-3.33-8-6.85A13.7,13.7,0,0,1,548.65,335.72Z" transform="translate(-0.48 -0.48)"/><path class="cls-1" d="M629.25,319.5a11.69,11.69,0,0,1-2.1,7.15,37.33,37.33,0,0,1-8.3,8.25c-1.59,1.2-3.22,2.36-4.81,3.58a26.32,26.32,0,0,0-9,12.16,28.65,28.65,0,0,1-1.68,4.23c-1,1.85-2.21,3.55-4.76,3.31a5.61,5.61,0,0,1-5.29-4.14,14.24,14.24,0,0,1-.27-4.23,14.74,14.74,0,0,1,.74-3.51c2.46-8,1.1-15.95-.65-23.89a94.89,94.89,0,0,1-1.87-11.33c-.55-5.7,1.81-10.45,5.68-14.47a8.43,8.43,0,0,1,9.4-2.34,23,23,0,0,1,10.18,6.49c2.49,2.81,5.27,5.37,7.66,8.26C626.89,312.22,629.09,315.75,629.25,319.5Zm-14.15-4.86a4.28,4.28,0,0,0-4.33,4.18A4.21,4.21,0,0,0,615,323.1a4.13,4.13,0,0,0,4.29-4.14A4.2,4.2,0,0,0,615.1,314.64Z" transform="translate(-0.48 -0.48)"/><path class="cls-1" d="M438.74,472.87c-1.31.76-2.39,1.43-3.51,2a3.54,3.54,0,0,1-5.34-4c.65-3.94,1.2-7.89,1.72-11.84a33,33,0,0,0,0-3.78c-1.91,1.42-3.35,2.48-4.77,3.56s-3,2-4.8.84-1.65-2.87-1.34-4.7c.72-4.17,1.49-8.35,1.12-12.62-.13-1.48-.35-2.95-.52-4.43l-.53-.18c-.59.87-1.16,1.75-1.76,2.61a3.41,3.41,0,0,1-5,1.11,3.78,3.78,0,0,1-.72-5.17c1.18-1.89,2.46-3.73,3.73-5.57a39.62,39.62,0,0,1,2.82-3.82,3.23,3.23,0,0,1,2.06-1.07c2.86,0,5.72,0,8.35,1.54,6,3.52,11.93,7.06,17.05,11.88a31.87,31.87,0,0,1,9.17,16.22,13.83,13.83,0,0,1-.29,6.64,45.46,45.46,0,0,1-11.66,21.41c-1.59,1.62-3.4,2-4.88.78a3.46,3.46,0,0,1-1.14-3.87A14.67,14.67,0,0,0,438.74,472.87Z" transform="translate(-0.48 -0.48)"/><path class="cls-1" d="M217.77,460.36a26.47,26.47,0,0,1-4.15-1.16,3.2,3.2,0,0,1-1.05-5.21c1.94-2.16,4.11-4,7.21-4.35,1.1-.12,2.16-.61,3.26-.76a19.37,19.37,0,0,1,7.62.21c1.92.52,3.92.76,5.86,1.23a30.78,30.78,0,0,1,15.87,8.87c.7.76,1.38,1.56,2.15,2.25,3.4,3,5.45,7.06,7.88,10.8a7.08,7.08,0,0,1,.69,1.78c.92,3-.32,4.87-3.36,5.17-11.16,1.06-22.34.78-33.53.51-5.26-.13-8-3.61-10.08-7.63a8.38,8.38,0,0,1-.33-4.91A58.19,58.19,0,0,1,217.77,460.36Z" transform="translate(-0.48 -0.48)"/><path class="cls-1" d="M657.25,343.71c-.47,2.75-.91,5.67-1.48,8.57a2.94,2.94,0,0,1-3,2.57,23.06,23.06,0,0,1-4-.28,16.23,16.23,0,0,0-8.21,1.12,9.32,9.32,0,0,0-4.7,4.25,5.85,5.85,0,0,0-.63,4.39,33.94,33.94,0,0,1,.57,3.77,3.39,3.39,0,0,1-1.93,3.77,4.66,4.66,0,0,1-5.37-.64,25.55,25.55,0,0,1-1.7-2,13.5,13.5,0,0,0-6-4.2,69.38,69.38,0,0,1-6.56-2.88,4.62,4.62,0,0,1-2.58-5.79,9.88,9.88,0,0,1,3.75-5.42c1.94-1.53,3.94-3,5.95-4.44a17,17,0,0,0,4.13-4.29c2.49-3.62,5-7.23,8.52-10a21.27,21.27,0,0,1,5.51-3.25,10.69,10.69,0,0,1,9.48.81C654.24,332.77,656.69,337.56,657.25,343.71Z" transform="translate(-0.48 -0.48)"/><path class="cls-1" d="M675.89,240.72a30.75,30.75,0,0,1-4.9,15,12.63,12.63,0,0,1-5.41,4.59c-1.46.65-2.92,1.3-4.37,2a11.34,11.34,0,0,1-8.66.48c-4.08-1.43-8-3.34-10.7-6.94a10,10,0,0,1-2.15-4.72,33.29,33.29,0,0,1,1-12.55c1-4.41,4-6.48,7.85-7.44a120.34,120.34,0,0,1,14.57-2.78,14.17,14.17,0,0,1,8.65,1.23,4.52,4.52,0,0,1,2.62,3.21C674.9,235.4,675.4,238.06,675.89,240.72Z" transform="translate(-0.48 -0.48)"/><path class="cls-1" d="M541,247.93a44.77,44.77,0,0,1,1.31-6c1.44-4,8.35-6.06,12.38-3.63a53.82,53.82,0,0,1,9.78,7.24c2.41,2.32,5.13,4.32,7.53,6.65,3.43,3.33,4.26,6.27-.49,10.78a14.79,14.79,0,0,1-3.28,2.4c-4.75,2.45-9.42,5.1-14.66,6.42a4,4,0,0,0-.46.14c-3.73,1.38-4.6,1-6.37-2.49A55.94,55.94,0,0,1,541,247.93Z" transform="translate(-0.48 -0.48)"/><path class="cls-1" d="M649.3,361.92c1.44.19,3,.29,4.58.63a3.24,3.24,0,0,1,2.55,4.37,13.23,13.23,0,0,1-6.64,7.18,3.06,3.06,0,0,1-4.16-1.3,31.67,31.67,0,0,1-2.55-4.86,4.26,4.26,0,0,1,3-5.58C647.07,362.13,648.12,362.08,649.3,361.92Z" transform="translate(-0.48 -0.48)"/><path class="cls-1" d="M662.62,312.31a4.23,4.23,0,1,1-8.45.11,4.23,4.23,0,1,1,8.45-.11Z" transform="translate(-0.48 -0.48)"/><path class="cls-1" d="M615.1,314.64a4.2,4.2,0,0,1,4.15,4.32A4.13,4.13,0,0,1,615,323.1a4.21,4.21,0,0,1-4.19-4.28A4.28,4.28,0,0,1,615.1,314.64Z" transform="translate(-0.48 -0.48)"/></svg>