<svg id="Layer_1" data-name="Layer 1" xmlns="http://www.w3.org/2000/svg" viewBox="0 0 720 612"><defs><style>.cls-1{fill:none;stroke:#000;stroke-miterlimit:10;stroke-width:0.01px;}</style></defs><path d="M.48,612.48V.48h720v612ZM464.5,111c-3.42.27-6.86.41-10.26.86a44.13,44.13,0,0,0-17.62,5.86,8.86,8.86,0,0,0-4.07,5.12q-1.19,4-2.12,8.1c-1.14,5,.57,9.26,5.13,12.05a39.4,39.4,0,0,1,5.88,4.87c1.52,1.4,2.89,3,4.27,4.51,2.62,2.94,5.9,3.44,9.61,2.9s7.16-2.19,10.54-3.84a17.67,17.67,0,0,1,3.94-1.69c5.88-1.24,10.66.87,14.59,5.18.86.94,1.47,2.11,2.36,3,1.93,2,2.51,4.4,2.76,7,.11,1.19.11,2.39.15,3.59.14,3.35.23,6.7.42,10a20.55,20.55,0,0,0,6.41,14.06A22,22,0,0,0,511,198.84a54.18,54.18,0,0,0,25.39-5,23.45,23.45,0,0,0,9.07-6.93c1.18-1.55,2.45-3.38,2.7-5.23a19,19,0,0,0-3.78-14.89c-3-3.93-6.86-6.89-10.53-10.09-2.95-2.57-5.88-5.18-8.64-7.95a82.23,82.23,0,0,1-12.11-16.33c-2-3.35-4-6.79-7.36-9a68,68,0,0,0-6.9-4.32A78,78,0,0,0,464.5,111ZM361.9,163.65a15.7,15.7,0,0,0-.19-2.38,21.6,21.6,0,0,0-3.28-8.17c-3.71-5.29-7.65-10.45-9.87-16.63a3.42,3.42,0,0,0-.21-.43c-2-4.08-4.11-8.12-6.06-12.24-2.45-5.18-4.18-10.67-7.48-15.5-3.1-4.54-6.69-8.35-11.67-10.69a15.69,15.69,0,0,0-10.28-1.36,24.9,24.9,0,0,0-10,4.48,16.65,16.65,0,0,0-3.6,3.8c-2.1,3.2-4.08,6.5-5.88,9.87-1.57,2.95-2.78,6.1-4.26,9.1-2.38,4.8-4.93,9.51-7.25,14.34s-4.58,9.85-6.72,14.84c-1,2.35-1.84,4.72-3.58,6.72-1.56,1.8-1.17,3.76.55,5.53,2.59,2.66,5.91,4.08,9.27,5.33a10.16,10.16,0,0,0,4.47.34,22.43,22.43,0,0,0,10-3.81c3.87-2.54,6.86-6,9.82-9.44,2.51-2.94,5.74-3.61,9.31-2.76,4.16,1,7.28,3.8,9.9,6.86a99.26,99.26,0,0,1,7.62,11c1.37,2.13,2.91,4.18,3.56,6.74a8.2,8.2,0,0,0,1.52,2.41c1.47,2.07,3.1,4,4.4,6.2,1.88,3.13,6.21,4.11,8.69,2.2a16,16,0,0,0,5.58-8.42,63.28,63.28,0,0,1,3.43-9.44A20.87,20.87,0,0,0,361.9,163.65Zm-99.47,128a9.55,9.55,0,0,0-7.33,3.1,20.91,20.91,0,0,0-1.7,2.58l-18.3,27a37.53,37.53,0,0,0-5.75,13.34c-1.78,8.29-.87,16.56.64,24.75a91,91,0,0,0,2.95,10.11,16.6,16.6,0,0,0,4.41,7.31,7.31,7.31,0,0,0,9.83.75,20.16,20.16,0,0,0,2.87-2.52A45.86,45.86,0,0,0,257,368.9c1.33-2.31,2.75-2.43,4.74-.63a43.11,43.11,0,0,0,4.79,4c3,2.06,6.06,1.93,8.76-.56a38.28,38.28,0,0,0,4.95-5.81c2-2.76,3.41-2.77,5,.24a13,13,0,0,0,.76,1.49,38.92,38.92,0,0,0,3.74,4.95c2.42,2.41,5.66,2,7.54-.84a8.24,8.24,0,0,0,1-6.68c-.65-2.71-1.6-5.34-2.4-8a22.5,22.5,0,0,1-.68-2.53c-.89-5.44-1.53-10.92-2.68-16.3a142.3,142.3,0,0,1-3.26-22c-.23-4.3-.81-8.59-1.27-12.88a15.92,15.92,0,0,0-2.43-7.2c-1.13-1.73-2.56-3.06-4.87-2.94-1.42.07-2.86.05-4.29.07-3.75,0-7.51.17-11.17-1A23.47,23.47,0,0,0,262.43,291.68Zm85.37-33.37c.36.23.54.29.61.41.78,1.3,1.54,2.61,2.31,3.92,1.09,1.85,3,2.51,4.66,1.65s2.19-2.72,1.3-4.76a2.12,2.12,0,0,1-.11-.21c-1.83-3.9-3.57-7.84-5.53-11.67a23.79,23.79,0,0,0-3.09-4.22c-.7-.86-1.65-1.51-2.4-2.34a13.07,13.07,0,0,0-7.47-4,29.93,29.93,0,0,1-5.32-1.39c-3.26-1.28-6.13-3.06-7.05-6.86a19.67,19.67,0,0,0-1.49-3.78,3.35,3.35,0,0,0-3.91-2,7.32,7.32,0,0,0-6.21,4.23c-1.35,2.71-2.9,5.32-4.48,7.9a8.58,8.58,0,0,1-5,3.55c-2.31.72-3.92-.2-4.58-2.51-.33-1.15-.51-2.34-.85-3.49a37.34,37.34,0,0,0-1.57-4.76c-1.23-2.71-3.65-3.64-6.54-3-2.08.46-2.84,2-3.36,3.68-1.14,3.66-2.16,7.36-3.16,11.05-.87,3.24-1.61,6.51-2.47,9.75-1.36,5.12-4.84,8.3-9.54,10.38s-7.82.75-10.87-4.26c-2.43-4-6.77-6.81-11.44-6.38a8.49,8.49,0,0,0-5.21,2.16c-4.63,4.33-4,10.18,1.65,12.58,2,.84,3.94,1.78,6,2.46a7,7,0,0,1,4.69,4.39,33,33,0,0,0,5.37,8.76,9.46,9.46,0,0,0,5.4,3.31c1.94.47,3.8,0,5.71-.12a10.18,10.18,0,0,0,8.35-4.85c1.07-1.59,2.12-3.2,3.19-4.79,1.33-2,3.54-2.35,4.95-.53a10.44,10.44,0,0,1,2.28,4.63,124.53,124.53,0,0,1,1,12.66,11.49,11.49,0,0,0,1.11,5.06c1.53,3,3.37,3.61,6.14,1.76a6.44,6.44,0,0,0,1.93-2.06c2.68-4.57,4.88-9.34,5.57-14.68.12-.92.32-1.82.54-3,1.31.91,2.28,1.72,3.37,2.34a18.24,18.24,0,0,0,21.06-1.81l2.79-2.24a13.32,13.32,0,0,1,1.38,2.47,16.91,16.91,0,0,1,.93,4.66c0,3.91-.34,7.81-.53,11.72-.11,2.21.78,3.56,2.6,4a3.7,3.7,0,0,0,4.58-2.09,18.46,18.46,0,0,0,1.5-4.28,67,67,0,0,0-.42-26.65,6,6,0,0,1,.77-5.19A13.53,13.53,0,0,0,347.8,258.31Zm-14.58-48.8c3.6-.28,6.44-4.24,5.14-7.59a31.31,31.31,0,0,0-2.95-5.46c-2.38-3.69-4.74-7.4-7.36-10.91s-5.75-7.08-8.67-10.57a14.7,14.7,0,0,0-2.36-2.37,4.31,4.31,0,0,0-2.18-.82,18.44,18.44,0,0,0-11.26,2.57c-2.39,1.46-4.68,3.07-7,4.69a38.78,38.78,0,0,1-16.93,6.88,7.66,7.66,0,0,1-5.31-1c-2.11-1.3-4.22-2.6-6.27-4a10.77,10.77,0,0,1-1.55-1.78,44.67,44.67,0,0,0-3.2-3.53,3.75,3.75,0,0,0-4.46-.64,61.29,61.29,0,0,0-6.7,3.69c-5.85,3.94-10.41,9.2-14.52,14.84a67.69,67.69,0,0,0-4.43,7.12,3.73,3.73,0,0,0,.77,4.81c3.5,3.17,7.09,6.22,11.47,8.15.81.36,1.57.8,2.37,1.17a2,2,0,0,1,1.13,2.39,10.21,10.21,0,0,1-.5,1.6c-1.49,4.55-3,9.1-4.48,13.66-.74,2.27-.14,3.63,1.91,4.78,1.53.86,3,1.92,4.54,2.67a28.74,28.74,0,0,0,5.14,1.87c2.53.63,5.14.9,7.66,1.55a7.2,7.2,0,0,0,6.32-1.25,13.48,13.48,0,0,0,4.37-5.61q2.57-5.55,4.83-11.23c1.68-4.23,3.06-8.58,4.83-12.78a23.38,23.38,0,0,1,8.68-10c1.61-1.11,2.86-.56,3.42,1.38a19,19,0,0,1,.48,2.83,13.93,13.93,0,0,0,3.17,7.39c2.56,3,6,3.09,8.62.72.71-.64,1.34-1.37,2.06-2a20.47,20.47,0,0,1,2.75-2.27,61.3,61.3,0,0,1,5.67-3.13c3.42-1.64,6.76-2.13,10.14.42C329.86,208.73,331.66,209,333.22,209.51ZM583,279.32a14.1,14.1,0,0,0,6.58-1.18c2.36-.9,3.17-2.22,2.5-4.64a19.43,19.43,0,0,0-4.25-7.95c-1.39-1.54-2.8-3.07-4.25-4.55a7.77,7.77,0,0,1-2.37-4.35c-.32-2.37-.46-4.76-.79-7.13-.78-5.47-1.77-10.89-5-15.6q-6.18-9.12-12.32-18.28c-2.36-3.5-4.85-6.9-5.21-11.37a11,11,0,0,0-1.55-4.23,4.52,4.52,0,0,0-6.2-1.82,9.7,9.7,0,0,0-4.42,4.57,10.22,10.22,0,0,1-4.09,4.25,15.1,15.1,0,0,1-9.74,1.69c-4.26-.65-8.49-1.58-12.76-2.12A20.41,20.41,0,0,0,506,209a8.58,8.58,0,0,0-4.53,8.14,14.16,14.16,0,0,0,.37,2.84,2.61,2.61,0,0,1-.71,2.64c-.73.73-1.52,1.42-2.27,2.14a36,36,0,0,0-3.24,3.18,5.49,5.49,0,0,0,1.08,8.2,22.88,22.88,0,0,0,9.45,3.91c4.51.56,9,1.07,13.58,1.33a79.32,79.32,0,0,0,11-.08,22.19,22.19,0,0,1,6.62.57c3.64.8,7.28,5.31,5.43,9.82a20.77,20.77,0,0,0-1.29,9.43c.38,5.27,3.13,8.19,8.37,8.76s10.33-.44,15.48-.89c1.17-.1,1.83.08,2.38,1,.24.41.45.85.7,1.26C571.65,276.72,576.31,279.68,583,279.32ZM412.15,365.26c-.31,4.08.73,7.31,2.56,9.46a5.26,5.26,0,0,0,6,1.66,12.22,12.22,0,0,0,4.17-2.67,39.76,39.76,0,0,0,5.24-6.82c3.34-5.73,6.6-11.52,9.52-17.48a52,52,0,0,1,5.26-8.53,25.59,25.59,0,0,1,10.77-8.53c1.4-.58,2.69-1.43,4.1-2,6.63-2.67,10.56-11.79,7.55-19.54-1.3-3.35-2.53-6.73-3.72-10.12a5.57,5.57,0,0,0-3.66-3.53c-4.83-1.63-10.56.61-13.43,5-2.43,3.66-4.91,7.29-7.5,10.85a50.52,50.52,0,0,1-4.68,5.46c-1.42,1.45-3.24,2.68-5.35,1.84-2.29-.92-4.1-2.52-4.25-5.29,0-1,.05-1.93-.06-2.88a38.12,38.12,0,0,0-.89-5.66c-.88-3.09-4.62-6.89-8.86-6.38-3.86.47-7.2,2.15-9.23,5.41A92.87,92.87,0,0,0,399.89,317c-1.26,2.84-2,5.9-3.08,8.82a9.49,9.49,0,0,1-1.81,3.34,57.68,57.68,0,0,1-7.33,6.84A23.19,23.19,0,0,0,379,347.16a19.46,19.46,0,0,0-1,5.62,6.74,6.74,0,0,0,3.6,6.33,9.85,9.85,0,0,0,8.77.68,56.24,56.24,0,0,0,6.79-3,15.43,15.43,0,0,1,7.64-1.61,5.67,5.67,0,0,1,4.55,2.33A14,14,0,0,1,412.15,365.26Zm16.33-78.53c0,1,0,1.76,0,2.53a12.9,12.9,0,0,0,2.6,8.07c2.63,3.54,7,4.22,10.23.59a24.24,24.24,0,0,0,3.12-4.52c1.57-2.87,2.95-5.85,4.41-8.78s3.11-4,6.35-3.31a27.46,27.46,0,0,1,5.73,2.27c1.88.87,3.65,2,5.52,2.85a7,7,0,0,0,5.15.06,15.31,15.31,0,0,0,8.76-7c3.48-5.77,4.05-12,3.31-18.53-.33-2.92.09-3.77,2.82-5,1.32-.58,2.67-1.09,3.94-1.75,3.89-2,4.23-6.11.72-8.66a34.21,34.21,0,0,0-13.68-6.12c-2.35-.45-4.71-.89-7.05-1.39a6.06,6.06,0,0,1-4.21-2.53c-3.54-5.78-7.71-11.21-10.13-17.64a15.16,15.16,0,0,0-1.67-3.16c-1.18-1.72-2.78-2.31-4.58-1.37q-6.37,3.32-12.55,7c-1.78,1.07-2.11,2.87-1.35,4.86.23.59.55,1.15.78,1.75,1.27,3.27,2.57,6.54,3.77,9.84a17.07,17.07,0,0,1,.62,7.59c-.36,3.61-1.31,6.91-4.53,9.07-1.06.71-2.12,1.43-3.23,2a52.54,52.54,0,0,0-18.12,16.12c-.49.71-1.06,1.39-1.61,2.07A12.25,12.25,0,0,0,410.83,284a6.05,6.05,0,0,0,4.3,5,12,12,0,0,0,8-.31C424.85,288.08,426.55,287.42,428.48,286.73ZM404.81,186.8a70.82,70.82,0,0,0,.86,8.2c.52,2.52.92,5.22,2.83,7.26a22.69,22.69,0,0,0,12.24,7.07c1.64.34,3.3.62,4.95.88,5.82.92,11-.28,15.07-4.77,1.24-1.36,2.55-2.65,3.85-3.95a7.3,7.3,0,0,1,1.81-1.54c4.9-2.31,11.18-1.84,15.09,2.29a21.19,21.19,0,0,1,5.12,8.57,40.91,40.91,0,0,0,2,5.63,11.69,11.69,0,0,0,8.76,7.08c3.2.57,6-.76,8.54-2.48a7,7,0,0,0,3.34-6.94,15.88,15.88,0,0,1,0-2.39,28.32,28.32,0,0,0-2.53-13.51c-1.35-3-2.68-6-4-9-1.48-3.35-2.73-6.83-4.47-10-1.59-2.92-3.7-5.57-5.58-8.34a12.89,12.89,0,0,0-8.47-5.38A22.41,22.41,0,0,0,454,166a35.29,35.29,0,0,1-5.59,1.28c-3,.3-5.79-.22-7.69-3.15a34.43,34.43,0,0,1-4.39-8.47c-.92-3-2.85-5-6-5.45-3-.37-5,1.17-6.45,3.65a61.47,61.47,0,0,1-4.09,6.2c-2.63,3.4-5.38,6.72-8.19,10a37.21,37.21,0,0,1-4.32,4.1,4.1,4.1,0,0,0-1.72,3C405.32,180.05,405.09,183,404.81,186.8Zm9.24,65.63c3.89,0,7.15-1.09,9.26-4.31a23.06,23.06,0,0,0,2.5-5.4,9.13,9.13,0,0,0-2.46-9.91,30.52,30.52,0,0,0-5.39-3.93,53.59,53.59,0,0,0-5.54-2.85c-8.3-3.91-12.48-10.76-13.52-19.57-.87-7.45-1.36-15-1.92-22.44a4.13,4.13,0,0,0-2.91-4,9,9,0,0,0-3-.42c-5.49,0-10.84-.57-15.6-3.68a3.29,3.29,0,0,0-3.23-.17,6,6,0,0,0-3.39,2.89c-.67,1.54-1.41,3-1.94,4.63A47.85,47.85,0,0,1,360,197.2c-4.68,6.14-9.69,11.91-16.86,15.33a10.64,10.64,0,0,0-3.77,3.6,6.86,6.86,0,0,0,1.7,9.35,11.87,11.87,0,0,0,8.66,2,7.54,7.54,0,0,1,6.46,2.37c.52.49,1.06,1,1.62,1.42a14,14,0,0,0,8.61,3.13c2.61.09,4.84-.89,7.09-1.92a7.5,7.5,0,0,1,7.91.61,42,42,0,0,1,7.71,6.81,41.53,41.53,0,0,0,12.61,9.39A30.27,30.27,0,0,0,414.05,252.43ZM593.12,440a6.89,6.89,0,0,0,5.42-2.77c2.87-3.73,7-4.88,11.28-5.59,1.26-.21,2.55-.24,3.8-.48a3.65,3.65,0,0,0,2.94-2.83c.38-1.4-.36-2.41-1.13-3.48-2.2-3-4.52-6-6.41-9.23A102.35,102.35,0,0,1,598.51,390a24,24,0,0,0-5.66-10.17c-4.15-4.48-9.08-6.39-15.12-4.09a21.18,21.18,0,0,1-3.42,1.08,18.07,18.07,0,0,1-4.26.43,25.24,25.24,0,0,1-11-3,37,37,0,0,0-9.69-3.34c-4.2-1-7.48,1.4-7.79,5.77a28,28,0,0,0,.27,5.24,3.66,3.66,0,0,1-.86,3.3,10.39,10.39,0,0,0-2.54,6.81,7.51,7.51,0,0,0,3.15,6.86,15,15,0,0,1,2.22,1.81,23.12,23.12,0,0,0,6.5,4.84c5.13,2.77,10.31,5.45,15.44,8.22a5.45,5.45,0,0,1,1.92,1.68c1.55,2.32,3,4.7,4.43,7.11,3.76,6.44,9.47,10.94,15.24,15.38a9.16,9.16,0,0,0,2.54,1.32A28.89,28.89,0,0,0,593.12,440ZM118.25,352.79c.32,1.38.53,2.4.79,3.4.93,3.47,1.78,7,2.86,10.39a9.68,9.68,0,0,0,4.21,5.63,4.39,4.39,0,0,0,6.89-3.37c.23-2.15.27-4.31.35-6.47a22.25,22.25,0,0,1,5.09-13.18,7.21,7.21,0,0,1,10.78-.63c2.92,3.15,6.57,4.38,10.57,5.09a11.46,11.46,0,0,0,12.88-14.59c-1.31-4.51-2.25-9.17-5.12-13.08a3.27,3.27,0,0,1-.42-.86c-1.8-4.69-3.58-9.4-5.38-14.09s-3.64-9.55-5.58-14.28c-1-2.45-3.81-2.86-5.72-1a5.26,5.26,0,0,0-1.61,4.55,25.53,25.53,0,0,1-.08,6.42,11.44,11.44,0,0,1-2.11,4.19,2.71,2.71,0,0,1-3.44.85,9.13,9.13,0,0,1-4.69-3.14,3.74,3.74,0,0,0-4.6-1.6,11.7,11.7,0,0,1-10.34-1.08c-3.12-1.88-6.54.1-7,3.66a19.89,19.89,0,0,1-1.45,6c-2.32,4.87-5.43,9.22-10,12.28a3.91,3.91,0,0,0-1.87,4.51c1.16,5.22,2.26,10.46,3.48,15.66a21.8,21.8,0,0,0,1.7,4.72c1.64,3.27,4.89,3.91,7.79,1.68C116.82,354,117.4,353.48,118.25,352.79Zm186.06-11.63c-.12,3-.06,4.94,1,6.78,2,3.57,6.38,4.66,9.19,1.58a14,14,0,0,0,2.27-3.34,48.42,48.42,0,0,0,2.17-5.58,6.2,6.2,0,0,1,4.38-4.05c2.56-.83,4.85-.21,7.15,1a3.62,3.62,0,0,1,2.33,3c.2,1.9.6,3.79.86,5.69a12.34,12.34,0,0,0,4.31,7.52,5.89,5.89,0,0,0,4.63,1.56c3.29-.25,6.26-1.18,8.14-4.2,1.31-2.1,2.66-4.18,4-6.29,3.61-5.9,4.44-6.32,11.37-6.46a24.13,24.13,0,0,0,14.52-5.54c2.85-2.22,2.8-5.48.29-8.1A5.77,5.77,0,0,0,376,323c-2.07.11-4.12.47-6.19.64-3.54.3-5.83-2.13-5.19-5.55,1.2-6.43.29-12.74-.91-19.05a5.16,5.16,0,0,0-.42-1.11c-1.53-3.42-4.48-4.09-7.35-1.66a11.06,11.06,0,0,0-1.15,1.22,27.42,27.42,0,0,0-5,7.83,11.32,11.32,0,0,1-10.06,7.39,6.17,6.17,0,0,1-3.44-.64c-3.16-1.88-5.69-4.2-6.22-8.27a41.85,41.85,0,0,0-2.35-8.51,5.49,5.49,0,0,0-4.55-3.83c-2.71-.34-5.44-.31-7.84,1.34a6.83,6.83,0,0,0-3.06,3.85c-.74,2.77-1.72,5.5-2.24,8.31a6.65,6.65,0,0,1-1.92,3.43c-2.25,2.48-4.47,5-6.57,7.62a8.9,8.9,0,0,0-1.57,3.19,16.16,16.16,0,0,0,1.84,13.59A14,14,0,0,1,304.31,341.16ZM235,234.54c-.27-1.57-.44-3.17-.81-4.72a32.84,32.84,0,0,0-4-10.48c-2.17-3.36-5.61-4.22-8.88-2.17a9.3,9.3,0,0,0-3.55,4.4A67.27,67.27,0,0,1,207.37,239a42.1,42.1,0,0,1-10.4,9.15c-3.27,1.92-6.42,2-9.65-.24-2.62-1.8-6.7-.59-8.28,2.18-1.31,2.29-1.09,4.79-1.07,7.25.05,4.67,1.18,9.18,2.22,13.69a18.86,18.86,0,0,1-.6,11.49c-3.15,8.12-5.79,16.41-6.2,25.25-.15,3.23,2,5,5,3.87a9.68,9.68,0,0,0,4-3.28c4.74-5.83,9.61-11.57,14.16-17.54a20.34,20.34,0,0,1,9-6.77c7.27-2.93,14.3-6.35,20.31-11.6,4.27-3.73,7.24-8.13,8-13.77A119.44,119.44,0,0,0,235,234.54ZM354.91,404.05c1.44,0,2.88.05,4.32,0a29.47,29.47,0,0,0,8.73-1.36,5.53,5.53,0,0,0,3.49-3.35,23.43,23.43,0,0,1,2.28-4.46,80.41,80.41,0,0,1,17.52-18.6,13.5,13.5,0,0,0,1.8-1.57c2-2.13,2-5.6-.18-6.76-2-1.07-4.05-1.65-6.39-.53a40.87,40.87,0,0,1-7.84,2.85,13.61,13.61,0,0,1-5.43-.05c-1.95-.36-2.23-1.09-2.27-3.08a25,25,0,0,0-.32-4.75,4.82,4.82,0,0,0-5.91-3.46c-2.61.71-4.69,2.31-6.83,3.88a41.33,41.33,0,0,1-6.06,3.8,38.17,38.17,0,0,1-11.47,3.32,21.24,21.24,0,0,1-4.78,0,4.05,4.05,0,0,1-3.54-2.51c-1-2.25-1.93-4.54-2.83-6.84-.47-1.18-.69-2.47-1.23-3.62a3.18,3.18,0,0,0-4.41-1.7,54.35,54.35,0,0,0-10.88,6,10.53,10.53,0,0,0-4.48,9.29c.08,1.67.15,3.35.23,5,.17,3.43.62,6.88.45,10.29a8.18,8.18,0,0,0,3.37,7.49,37,37,0,0,0,7,4.05C330.64,402.32,342.75,403.38,354.91,404.05Zm-59.76,79.63c.23,2,.47,4.75.92,7.5a5,5,0,0,0,3.41,4.26c4.45,1.51,8.95,2.88,13.13,5.16a4.66,4.66,0,0,0,6.4-2.8,51.19,51.19,0,0,0,2.05-7.63c.75-4.64,1.14-9.34,1.75-14,1.34-10.13,2.76-20.26,4.08-30.4a164.3,164.3,0,0,1,3.37-19.34c.71-2.79,1.3-5.6,1.92-8.41.38-1.69.15-3.22-1.45-4.21-3.65-2.28-7.3-4.54-11-6.77-1.64-1-3.34-1.89-5-2.81a14.28,14.28,0,0,0-1.91-1c-2.87-1.1-5-.12-6.09,2.76a12.49,12.49,0,0,0-.39,1.63c-1.58,6.66-3.92,13-8.49,18.24a18.07,18.07,0,0,1-1.62,1.76,5,5,0,0,0-1.64,3.07c-1,5.25-.51,10.52-.33,15.77.21,6.23.71,12.44,1,18.66q.28,6,.32,12C295.6,479,295.34,480.93,295.15,483.68ZM150.91,381.86a5.1,5.1,0,0,1,.89.3,7.63,7.63,0,0,1,2.7,3.58,50.08,50.08,0,0,0,7.84,13.13,14.33,14.33,0,0,0,2.16,2.24c1.6,1.2,3.47,1.84,5.37.87s1.92-2.78,1.75-4.62c-.05-.57,0-1.16,0-1.75l.53-.23c.48.44,1,.88,1.44,1.34,2.55,2.54,5,5.19,7.67,7.58,2.88,2.57,4.76,2.38,7.48-.33.39-.39.72-.85,1.1-1.26,3-3.26,5.16-7.12,7.34-10.93,3.79-6.61,7.22-13.38,8.92-20.87a47.58,47.58,0,0,1,2.66-9.19,7.6,7.6,0,0,0,0-5.61A9.24,9.24,0,0,0,202.5,350a5.42,5.42,0,0,1-4-4.88,25.21,25.21,0,0,0-.93-4.2,3.59,3.59,0,0,0-3.15-2.57,4.58,4.58,0,0,0-4.58,1.39,16.15,16.15,0,0,0-2.12,2.58c-2.16,3.82-4.37,7.63-6.28,11.58-2,4.12-4.51,7.64-8.48,10.1a14.71,14.71,0,0,1-17-.85,50.42,50.42,0,0,0-5.72-3.93,8.67,8.67,0,0,0-3.63-1.06c-2.58-.19-5.65,2.09-5.84,4.37-.46,5.74-1,11.5.14,17.22a47.7,47.7,0,0,0,1.87,7.16c.71,2,2.34,2.73,4.42,2.43,1.75-.26,2.69-1.34,3-3.48C150.45,384.58,150.68,383.27,150.91,381.86Zm369.77-86.8a9,9,0,0,0-6.21,1.86c-7,4.66-11.29,11.08-12.31,19.41-1.41,11.45.4,22.65,3.71,33.59a54.3,54.3,0,0,0,9.24,18,23.64,23.64,0,0,1,2,3.26c1.88,3.42,3.72,6.87,5.6,10.29,1.37,2.5,2.85,3.39,4.91,3s3.22-1.7,3.7-4.42a7.81,7.81,0,0,0,.1-1c.13-3.43.24-6.86.38-10.29.14-3.27.28-6.54.45-9.81.11-2,1.44-3.16,3.2-3.76a14.19,14.19,0,0,1,3.06-.52,21.11,21.11,0,0,1,2.64-.07,6.32,6.32,0,0,0,6.23-4c.81-1.82,1.5-3.7,2.3-5.53a13.67,13.67,0,0,0,.68-8.66c-.75-3.5-2.49-5.69-6.86-6.08-1.83-.17-3.65-.45-5.47-.64-3.33-.36-5.23-2.2-5.66-5.49-.55-4.27-1-8.56-1.56-12.83-.43-3.32-.77-6.67-1.52-9.93A7.91,7.91,0,0,0,520.68,295.06Zm71.59,30.62h0c0-10.07-.08-20.14.06-30.21a5.67,5.67,0,0,0-4.15-5.7c-2.71-.94-5.45-1.81-8.19-2.68-3-1-6.07-1.94-9.13-2.82A7.76,7.76,0,0,0,568,284c-3.15.31-4.77,2.86-3.65,5.82a52.19,52.19,0,0,0,2.54,5.41c1,1.91,2.14,3.74,3.13,5.66a3.61,3.61,0,0,1,.59,2.25c-.76,2.52-1.58,5.1-4.45,6.11-4,1.41-8,2.9-12.23,3.31A7.5,7.5,0,0,0,549,314.7a4.36,4.36,0,0,0-1.22,2.7,5.64,5.64,0,0,0,1.86,4.25,11.82,11.82,0,0,0,8.71,3.33,5.4,5.4,0,0,1,5.63,3.6,36,36,0,0,1,2,5.65c1.42,6-.59,11.17-4.34,15.79a11.06,11.06,0,0,1-1.52,1.12,25.49,25.49,0,0,0-3.37,3,4.89,4.89,0,0,0,.51,6.69,8.37,8.37,0,0,0,3,1.84c5.9,1.71,11.8,3.47,18,3.95a16.56,16.56,0,0,0,9.1-1.38,7.78,7.78,0,0,0,4.44-5.57,19.58,19.58,0,0,0,.49-3.79C592.29,345.82,592.27,335.75,592.27,325.68ZM395.63,408.35c7.83-.65,15.08-1.22,22.32-1.87,3.19-.29,6.35-.75,9.52-1.15a118.65,118.65,0,0,0,25.13-6,18.23,18.23,0,0,0,9.06-6.8A49.6,49.6,0,0,0,469,376.79c1.23-4.73.36-8.84-3.08-12.37-.39-.4-.75-.83-1.16-1.21-3.69-3.33-4.41-7.41-3.08-12a19,19,0,0,0,.66-2.54,3.27,3.27,0,0,0-5-3.19,63.21,63.21,0,0,0-5.53,4.54c-2,1.88-2.88,4.54-4.21,6.89q-5.29,9.39-11.08,18.5c-2.22,3.5-4.71,6.9-8.28,9.21a14.9,14.9,0,0,1-5.34,2.54,13.33,13.33,0,0,1-11.54-3.33,7.43,7.43,0,0,0-7.54-1.87,15.63,15.63,0,0,0-4.57,2c-4.79,3.45-9.68,6.83-13,11.86-.89,1.33-1.8,2.65-2.75,3.93-2.51,3.38-1.85,5.74,2.06,7.15a11,11,0,0,0,2.31.62C390.63,407.85,393.41,408.11,395.63,408.35Zm-108.91-19c-3.08-2.06-3.56-2.62-4.63-5.23a3.3,3.3,0,0,0-5.48-1.27,41.07,41.07,0,0,0-4,4.73c-.95,1.24-1.66,2.69-3.21,3.5-1.93-1.73-3.76-3.36-4.85-5.68a9,9,0,0,0-1.81-2.49c-2.05-2-4.62-1.46-5.79,1.15a24.87,24.87,0,0,1-2.45,4.62,121.93,121.93,0,0,1-13,15.65,4.56,4.56,0,0,0-1.58,4.27c.39,2.45.73,4.91,1.27,7.32.66,2.95,1.31,6,3.19,8.46,1.58,2.1,3.2,4.2,4.94,6.17a16.81,16.81,0,0,0,7.31,4.85c1.73.59,3.42,1.3,5.17,1.83a7.75,7.75,0,0,0,2.79.33c2.49-.19,4.53-1.51,6.45-2.95,4.84-3.67,9.69-7.33,14.44-11.11a43.78,43.78,0,0,0,9.39-10.19,10,10,0,0,0,1.31-2.79c1.64-5.91,1.84-12,1.9-18.06a21.2,21.2,0,0,0-.24-3.82,4.13,4.13,0,0,0-5.93-3.23,14.34,14.34,0,0,0-2.8,1.8C288.28,387.82,287.56,388.58,286.72,389.34ZM132.65,293.67a12,12,0,0,0,1.82,1.48,15.47,15.47,0,0,0,3.9,1.66,3.09,3.09,0,0,0,3.76-2.52,5.81,5.81,0,0,0-1.27-4.94,22.73,22.73,0,0,1-6-15.75c0-3.19,0-6.4-.29-9.58a19.57,19.57,0,0,0-1.29-6c-1.59-3.74-3.56-7.32-5.36-11-1.95-3.94-4-7.85-4.37-12.34-.38-4.77-.69-9.55-1-14.33-.08-1.12-.06-2.24-.13-3.36a3.11,3.11,0,0,0-2.13-2.91,3.33,3.33,0,0,0-3.57.71,4.28,4.28,0,0,0-1.69,3.3c0,2.79-1,5.3-2,7.85-2.36,6.22-4.38,12.54-4.07,19.32.13,2.7.37,5.42.73,8.1a17.73,17.73,0,0,1-1.33,10.53,20.83,20.83,0,0,0-1.46,4.05c-1.85,7.36-3.72,14.71-5.42,22.1a69.1,69.1,0,0,0-2,19,24.48,24.48,0,0,0,.56,4.27c.44,2,1.56,2.93,3.21,3s3.05-.83,3.58-2.88c1.85-7.1,3.68-14.21,5.36-21.36a5.37,5.37,0,0,1,3.76-4.22c2-.66,3.37.65,4.46,2.06s2.06,3,3,4.58a4.66,4.66,0,0,0,7.82.61Zm271.17-19.49a11.18,11.18,0,0,0-6.38-10.69,33.07,33.07,0,0,0-5.39-1.89c-3.54-1.09-6.46-2.67-8.06-6.43a72.43,72.43,0,0,0-5.61-10,5.19,5.19,0,0,0-6.06-2.21c-.7.18-1.4.32-2.1.44a7.06,7.06,0,0,0-5.09,3.19,4,4,0,0,0,.06,4.7,1.94,1.94,0,0,1,.11.46c.66,2.62,1.33,5.23,2,7.86a6.72,6.72,0,0,1,.31,2.33,13,13,0,0,1-7.26,10.32,7.63,7.63,0,0,0-2.92,2.39c-2.53,4-1,10.76,4.51,11.93l2.1.47c2.33.53,4.65,1.12,7,1.57a4,4,0,0,1,3.49,3.92c.42,4,.87,7.93,1.38,11.89a21.45,21.45,0,0,0,1,4.66c1.55,4.15,5.41,6.16,9.78,5.44a9.54,9.54,0,0,0,5.86-3.85c4.6-5.65,6.14-12.33,6.51-19.41a14.49,14.49,0,0,1,.51-3.74c.7-2,1.63-4,2.52-5.95A17.72,17.72,0,0,0,403.82,274.18Zm83.81,111.55a9.62,9.62,0,0,0,.2,1.49c.54,2.08,1,4.19,1.72,6.23a64.14,64.14,0,0,0,3.26,8.47c2.13,4.19,4.49,8.28,7,12.26,3.67,5.84,7.68,11.36,14,14.77a11.42,11.42,0,0,1,5.29,5.38,17.44,17.44,0,0,0,2.09,3.49,31,31,0,0,0,3.84,4.53,3.91,3.91,0,0,0,5.26.31,5.62,5.62,0,0,0,1.85-5.15c-.36-1.55-.63-3.12-1-4.66-2-8,0-15.33,3.76-22.36.38-.71.78-1.4,1.12-2.12,1-2.11.9-3.17-.73-4.73a22.07,22.07,0,0,0-3.93-3.1c-6.75-4.07-13.05-8.62-17.91-15-2.89-3.79-5.39-7.72-6.33-12.47-.22-1.09-.38-2.2-.63-3.29-.74-3.17-3.71-4.19-5.91-1.88-3.64,3.82-7.14,7.77-10.64,11.71A9.66,9.66,0,0,0,487.63,385.73ZM245.28,288c-.13-1.08-.31-2.5-.5-3.92-.33-2.29-.54-4.61-1-6.86a3.72,3.72,0,0,0-4-3,6.26,6.26,0,0,0-4.41,2.62c-2.07,3.12-4.05,6.3-6.1,9.44a16.84,16.84,0,0,1-10.3,7.67,98.37,98.37,0,0,0-10.5,3.31,18.34,18.34,0,0,0-5.39,3,103.74,103.74,0,0,0-17.37,19.74,37.79,37.79,0,0,1-2.36,3,4.06,4.06,0,0,0-.78,4.85,3.39,3.39,0,0,0,4.06,1.76,15.8,15.8,0,0,0,4.19-1.61c1.89-1,3.64-2.32,5.47-3.46a3.74,3.74,0,0,1,4.82.27,11.71,11.71,0,0,1,4,5A21.37,21.37,0,0,0,207.2,334a14.94,14.94,0,0,0,2.81,3.23c3.55,2.94,7.58,2.25,9.89-1.77a18.79,18.79,0,0,0,2.19-5.53,19.91,19.91,0,0,1,2.51-6.43c1.15-1.92,2.28-3.86,3.57-5.68,4.47-6.34,9.05-12.59,13.5-18.94A19.39,19.39,0,0,0,245.28,288ZM630.6,449.75c0-2.48.13-5,0-7.43a7.17,7.17,0,0,0-8.52-6.62,5.29,5.29,0,0,0-3.34,2.51c-1,1.44-2.14,2.81-4,3.21l-5.34,1.17c-3.59.77-6,3-8,6-1.67,2.51-1.24,4.83.18,7.15a15,15,0,0,0,2,2.41c1,1.12,2.12,2.19,3.21,3.24a4.14,4.14,0,0,1,1.4,2.94c.08,2.72.2,5.47-.69,8.08-2.12,6.19-4.26,12.38-6.5,18.53-1.72,4.72-4.26,9.11-5.47,14-.67,2.75.05,5.13,2.53,6.54a10.07,10.07,0,0,0,10.31.3c4.47-2.47,9-5,12.31-9a8,8,0,0,0,1.6-2.61,122.9,122.9,0,0,0,3.78-13.59A279.77,279.77,0,0,0,630.6,449.75ZM187.89,204.3c-.17-2.53-.19-4.62-.46-6.67-.77-5.88-3.67-10.95-7-15.62-3.14-4.46-6.54-8.87-11-12.26-2-1.49-3.69-3.29-5.52-4.94a3.29,3.29,0,0,0-4.74,0,4.91,4.91,0,0,0-1.65,3.83,17.58,17.58,0,0,0,1.4,7,26,26,0,0,1,1.27,4.1c1.06,4.24.39,8.47-.57,12.57-1.87,7.94-7.63,12.88-15.71,14.08a16.31,16.31,0,0,0-9.11,4.48,6.75,6.75,0,0,0-2.39,4.31,82.1,82.1,0,0,0-.29,10.51c.22,3.34,3,4.78,6.11,3.33a10.15,10.15,0,0,0,3.53-2.73,63,63,0,0,0,4.92-7.08,10.3,10.3,0,0,1,5.07-4.18c3.52-1.49,5.36-.17,5.25,3.6a16.83,16.83,0,0,0,.34,4.49c.54,2.17,2.33,3.16,4.54,3a6,6,0,0,0,4.68-3c1.57-2.32,3-4.72,4.45-7.11.7-1.16,1.22-2.43,1.92-3.59.84-1.39,1.8-1.54,3.23-.81a4.5,4.5,0,0,1,2.36,4.15,5.22,5.22,0,0,0,1.67,3.6,3.35,3.35,0,0,0,5.47-.75,8.25,8.25,0,0,0,1-2.93C187.16,211.81,187.53,207.83,187.89,204.3Zm61.47,271a17.65,17.65,0,0,0-8.08,2.41,13.81,13.81,0,0,0-6.3,7.58,3.83,3.83,0,0,0,.29,3.68,70.24,70.24,0,0,0,6.73,8.39,56,56,0,0,0,8.71,6.73c5.56,3.6,11.22,7.08,17,10.37a46.07,46.07,0,0,0,17.64,5.76c2.44.29,4.41.9,6.05,2.79a11.27,11.27,0,0,0,6.69,3.46c3.28.64,6.55,1.34,9.82,2,1,.21,2,.55,3,.67,3.25.39,7.24-1.12,7.13-5.71a6.81,6.81,0,0,0-.51-2.57c-2.8-6.1-6.23-11.69-12.44-15a15.23,15.23,0,0,0-8.31-1.77,26.34,26.34,0,0,0-8.58,2,2.56,2.56,0,0,1-2.49,0c-4.4-2.47-8.75-5-12.28-8.69-4.4-4.64-8.89-9.19-13.25-13.87a39.43,39.43,0,0,1-2.84-4.11,10.4,10.4,0,0,0-1.82-2.13C253.71,475.94,251.48,475.59,249.36,475.33Zm241-199.74a17.6,17.6,0,0,0,1.12,3.48,9.53,9.53,0,0,0,7.67,5.1,55.89,55.89,0,0,0,9.33.18c4.07-.24,8.11-.91,12.17-1.22,6.17-.47,13.85,3.73,14.67,11.59.09,1,.23,1.91.36,2.86a8.94,8.94,0,0,0,9,7.63,13.29,13.29,0,0,0,10.48-5.53c2.25-3.12,2.59-6.25.42-9.16a19.06,19.06,0,0,0-7.34-6.39,7.32,7.32,0,0,1-1.63-1c-2.91-2.36-5.79-4.75-8.68-7.14a21,21,0,0,1-6-8.79,6,6,0,0,1-.39-2.09q0-3.24.25-6.46c.19-3.16-.67-4.77-3.5-6.07-5-2.29-9.82-1.81-14,1.59a55.38,55.38,0,0,1-14.43,8.39c-1,.39-1.83,1-2.76,1.44C492.56,266.33,491,270.42,490.39,275.59Zm81,290.94c1.75-.17,3.53-.19,5.24-.53,5.88-1.13,11.78-2.25,17.6-3.62s9.53-4.76,10.26-11.1c.49-4.3,2.23-8.3,4-12.26,2.09-4.64,4-9.37,6-14.08a4.65,4.65,0,0,0,.34-1.38c.31-3.25-1.47-5-4.71-4.65a6.65,6.65,0,0,0-1.41.28c-2.11.7-4.19,1.54-6.34,2.12-2.69.72-5.44,1.27-8.17,1.82a11.24,11.24,0,0,0-8.55,6.93c-1.46,3.37-2.88,6.76-4.3,10.15-1.07,2.53-2.63,4-5.69,4.23-6.34.43-12.52,1.74-17.8,5.66a7.45,7.45,0,0,0-1.31,1,8.31,8.31,0,0,0,2.6,12.51A26.48,26.48,0,0,0,571.39,566.53ZM495.66,347c-.38-2.93-.71-5.86-1.13-8.77-.5-3.4-1.13-6.78-1.61-10.18-.68-4.71-.08-9.39.21-14.1a25.8,25.8,0,0,1,2.92-10,39.48,39.48,0,0,0,2.12-5.08,4.84,4.84,0,0,0-3-6.4,10.5,10.5,0,0,0-6.58-.21c-4,1-7.19,3.4-9.91,6.41-2,2.26-3.62,4.67-3.84,8a23.06,23.06,0,0,0,1.57,11c.73,1.68,1.41,3.39,2.11,5.08a5.26,5.26,0,0,1,0,4.19c-1.4,3.39-2.54,6.91-4.14,10.2a39.07,39.07,0,0,0-2.7,8.14A11.42,11.42,0,0,0,475,356.86c3,2.91,3.65,6.4,2.85,10.31-.4,2-.91,3.89-1.26,5.85a3.05,3.05,0,0,0,1.57,3.47,3.52,3.52,0,0,0,4.05-.34,14.47,14.47,0,0,0,1.34-1.37c.66-.69,1.29-1.42,2-2.06a29.45,29.45,0,0,0,8.45-13.4C495.21,355.3,495.38,351.16,495.66,347Zm-284,110.14a15.65,15.65,0,0,0,.41,3.06c2.21,6.68,5.22,12.87,11.09,17.21a5,5,0,0,0,7.1-1.39,8.47,8.47,0,0,1,3.51-3.48c2.47-1.29,5-2.59,7.49-3.72a15,15,0,0,0,5.82-4.44c2.64-3.33,3.63-7.22,4.35-11.27a6,6,0,0,0-1.89-6.08,75.48,75.48,0,0,0-7.1-5.65c-4.93-3.34-8.38-7.57-9.19-13.64-.26-2-.61-3.95-.88-5.92-.3-2.14-1.21-3.27-2.92-3.58a4.38,4.38,0,0,0-4.65,2.2c-1.18,2.35-2.25,4.76-3.37,7.15-1.29,2.74-2.41,5.58-3.9,8.21C213.8,442.4,212.62,449.68,211.71,457.11ZM143,272.34a23.35,23.35,0,0,0,2.29,9.12c1.86,3.39,4.27,4.45,8,3.51,2.86-.73,4.4-.1,5.89,2.41.16.27.23.6.39.87a4.38,4.38,0,0,0,7.54.5,10.88,10.88,0,0,0,2.47-7.34c-.25-4.39-.38-8.8-.89-13.16-.54-4.68-1.42-9.32-2.22-14a7.32,7.32,0,0,1,2.15-6.78c1-1,2-1.86,2.92-2.84a21.27,21.27,0,0,0,5.27-7.92,8.44,8.44,0,0,0,.18-5.63,3.4,3.4,0,0,0-5.94-1.21,13.53,13.53,0,0,1-1.6,1.77c-3.18,2.42-6.37,4.84-9.63,7.14-2.26,1.59-3.46,1.17-4.65-1.36a5.2,5.2,0,0,1-.43-1.11,6.64,6.64,0,0,0-2.16-3.38c-2.39-2.32-4.5-2.14-6.26.66-1.52,2.43-3,4.91-4.45,7.39a24,24,0,0,0-1.38,2.78,5.85,5.85,0,0,0,0,4.86,25.14,25.14,0,0,0,4.16,7.23c1.65,1.84,1.71,3.86,1,6-.27.84-.66,1.64-.86,2.49C144.13,267.06,143.58,269.7,143,272.34ZM514.11,500.75c4.28-.09,5.32-.55,7.6-3a29.37,29.37,0,0,0,2.16-2.57c3-4.12,6.19-8.16,9-12.44,2.35-3.59,4.27-7.47,6.34-11.25a6.55,6.55,0,0,0,.49-4.89,24.79,24.79,0,0,0-1.27-4.11c-1.08-2.4-2.33-4.72-3.55-7.06a3.52,3.52,0,0,0-3.37-1.83,15.81,15.81,0,0,1-10.8-4.48c-2.35-2.28-3.71-5.16-5-8.09-.79-1.82-2-2.58-3.7-2.38a3.58,3.58,0,0,0-3.16,3.39,15.54,15.54,0,0,0,0,3.34,241.53,241.53,0,0,1,1.35,25.37,8.93,8.93,0,0,1-1.45,5.17c-2.69,4.25-5.27,8.57-7.84,12.9a3.92,3.92,0,0,0-.63,2.24,7.7,7.7,0,0,0,2.87,5.61A22.37,22.37,0,0,0,514.11,500.75Zm-26.62,44.4c2.2-.19,5.71-.35,9.17-.86a8.45,8.45,0,0,0,6.82-5.06c.36-.8.83-1.55,1.22-2.33a13.25,13.25,0,0,0,1.45-8.12,10.86,10.86,0,0,1,.65-5.89c.82-2,1.74-3.94,2.69-5.87,1.18-2.42.6-4.57-1.72-5.91-.69-.39-1.47-.62-2.19-1-2.16-1-4.32-2-6.45-3.11-.86-.43-1.62-1.06-2.49-1.44-3.9-1.75-7.83-.72-9.54,3.77-.83,2.16-1.48,4.39-2.22,6.58-.53,1.59-1,3.22-1.63,4.76-.78,1.84-1.38,2.13-3.35,1.89-.79-.09-1.57-.35-2.36-.4a70.86,70.86,0,0,0-8.09-.37,11.62,11.62,0,0,0-7,2.91c-4.34,3.66-3.84,11.62.12,15.56,2.37,2.34,5.43,3,8.52,3.37C476.13,544.26,481.15,544.6,487.49,545.15Zm-380-394.21c-2.25-1.25-4.31-2.46-6.44-3.53a3.16,3.16,0,0,0-4,.57,3,3,0,0,0-.56,4,52.65,52.65,0,0,0,3.76,5.19c.59.75,1.51,1.24,2,2,3.08,4.47,6.3,8.86,9,13.54,1.55,2.67,3.2,4.8,6.12,6,2.51,1.05,3.32,2.72,2.73,5.43a14.53,14.53,0,0,1-1.85,4.61c-1.23,1.94-1.07,4-.78,6a3.12,3.12,0,0,0,.93,1.61,6.11,6.11,0,0,0,8.25-.15,7.33,7.33,0,0,0,2.17-4.18,87.67,87.67,0,0,0,1.59-10.4,17.66,17.66,0,0,1,2.37-7.68,7.43,7.43,0,0,1,7.51-4.08,42.11,42.11,0,0,0,5,.17,4.13,4.13,0,0,0,4.31-3.43,36.76,36.76,0,0,0,.58-5,4.51,4.51,0,0,0-3.16-4.85,53.54,53.54,0,0,0-9.51-3.15c-4.77-.92-9.64-1.31-14.47-1.89-3.35-.4-6.38-1.42-8.52-4.23-1-1.27-1.91-2.57-2.94-3.79a6.08,6.08,0,0,0-1.78-1.54,3.29,3.29,0,0,0-3.73.81,3.24,3.24,0,0,0-.25,4.19A6.29,6.29,0,0,1,107.47,150.94ZM56.7,218.6a17.68,17.68,0,0,0,9-2.88c7.9-5.05,15.37-10.67,20.94-18.35,2.55-3.52,5.11-7.13,5.15-11.87a3.49,3.49,0,0,1,3-3.55c1.88-.31,3.77-.55,5.67-.69,2.86-.21,4.22-2.3,3.31-5-1.89-5.66-5.65-10.17-9.13-14.82A7.37,7.37,0,0,0,87,158.62a3.4,3.4,0,0,0-2.9,3.09,3.45,3.45,0,0,0,2.44,3.44,10.25,10.25,0,0,1,2,.81c1.65,1.06,1.48,2.44-.21,3.45a27.13,27.13,0,0,0-4.5,3.12,34.6,34.6,0,0,0-8.45,12.09A67.21,67.21,0,0,1,72,191.5c-2.17,3.71-4.69,7.11-9.57,7.4a11.82,11.82,0,0,0-2.1.48A25.34,25.34,0,0,0,51,203.54a7.23,7.23,0,0,0-3.16,4.05A8.75,8.75,0,0,0,56.7,218.6Zm568.14,59.07-.2-.08a11.5,11.5,0,0,0-.28-2.13,62.19,62.19,0,0,0-2.49-7c-1.31-2.81-2.89-5.5-4.44-8.18a48.17,48.17,0,0,0-4.2-6.68c-2.79-3.37-5.89-6.5-8.88-9.7a50.58,50.58,0,0,0-4.53-4.61c-3.61-3-7.35-5.87-11.07-8.73a3.44,3.44,0,0,0-4.24,0,3.3,3.3,0,0,0-1,4.09c.34.9.77,1.76,1.14,2.64,2,4.79,4.12,9.53,5.89,14.4s4.57,9,9.45,11.53a28.79,28.79,0,0,1,5.55,4.15c1.25,1.09,2.15,2.58,3.38,3.71a15.75,15.75,0,0,1,3.91,5.94,21.11,21.11,0,0,0,4.15,7.19c2.21,2.34,5.06,2.14,6.27-.84A50.47,50.47,0,0,0,624.84,277.67ZM63.23,226c-2.95,0-5.44,0-7.69,1.28-3.17,1.76-3.84,3.61-3.41,6.16a5.24,5.24,0,0,0,3.79,4.21,12.65,12.65,0,0,0,8.22.2c3.33-1.07,6.68-2,10-3.07,5.65-1.73,11.25-3.63,17-5.15a22.66,22.66,0,0,0,9.29-5.2c3.31-2.93,6.17-6.24,7.69-10.51.5-1.42,1.18-2.94.51-4.4-1.18-2.54-2.64-4.94-5.23-6.35a3.7,3.7,0,0,0-1.55-.57c-2.81-.09-5.6.07-8.1,1.57a5.24,5.24,0,0,0-1.58,1.42,74.58,74.58,0,0,0-4.65,7c-2.6,4.82-6,8.56-11.41,10.27-1.21.39-2.36,1-3.55,1.42C69.38,225.39,66.25,226.67,63.23,226ZM622.9,295.63c.5,2.64.86,5,1.43,7.32a70,70,0,0,0,2.09,7.12c1.86,5.19,3.82,10.34,5.76,15.49a6.5,6.5,0,0,0,.7,1.26c3.87,6.17,8.48,11.59,15,15.14a44.73,44.73,0,0,1,10.72,8.35c1.6,1.66,2.91,1.82,4.7.78,2.2-1.27,2.92-2.76,2.22-4.95a15.56,15.56,0,0,0-4.3-7.08c-4.33-3.9-8.51-8-13-11.63a22,22,0,0,1-6.94-9.25,51,51,0,0,1-1.92-5.17q-2.77-10-5.37-20.09c-.61-2.43-4.06-4.9-6.71-2.28-.85.84-1.93,1.46-2.71,2.35A16.89,16.89,0,0,0,622.9,295.63ZM277.23,529.47c-.72,0-1.44,0-2.16,0a16.09,16.09,0,0,0-8.11,2.66c-2.4,1.58-3.39,4.07-3.29,7,.13,3.64,1.76,6.08,5.25,7.12a23.3,23.3,0,0,0,5.36,1.14c3.75.17,7.51.11,11.26,0a26,26,0,0,1,7.8.94,19.07,19.07,0,0,0,4.26.56c3.63.15,6.24-1.66,8.18-4.56,1.12-1.65,1-2.77,0-4.43a11.43,11.43,0,0,0-5.54-4.38c-2.8-1.17-5.66-2.21-8.44-3.41C287.1,530.19,282.17,529.81,277.23,529.47ZM136.73,188.92a12.46,12.46,0,0,0,1.27,6.94,4.19,4.19,0,0,0,3,2.12c6.42,1.52,12.59-4.7,12.12-11a8.91,8.91,0,0,0-6.31-8.1,17.18,17.18,0,0,0-3-.64,5.08,5.08,0,0,0-5.47,3.28A18.31,18.31,0,0,0,136.73,188.92Zm-32.88,5.83c4.65,0,6.55-1.59,8.17-5.43a3.22,3.22,0,0,0-3.54-4.45,83.73,83.73,0,0,0-8.77,2.29,3.64,3.64,0,0,0-2.41,3.77,3.17,3.17,0,0,0,2.59,3C101.19,194.31,102.53,194.5,103.85,194.75Z" transform="translate(-0.48 -0.48)"/><path class="cls-1" d="M464.5,111a78,78,0,0,1,34.3,8,68,68,0,0,1,6.9,4.32c3.38,2.23,5.38,5.67,7.36,9a82.23,82.23,0,0,0,12.11,16.33c2.76,2.77,5.69,5.38,8.64,7.95,3.67,3.2,7.5,6.16,10.53,10.09a19,19,0,0,1,3.78,14.89c-.25,1.85-1.52,3.68-2.7,5.23a23.45,23.45,0,0,1-9.07,6.93,54.18,54.18,0,0,1-25.39,5,22,22,0,0,1-14.47-6.19,20.55,20.55,0,0,1-6.41-14.06c-.19-3.34-.28-6.69-.42-10,0-1.2,0-2.4-.15-3.59-.25-2.58-.83-5-2.76-7-.89-.91-1.5-2.08-2.36-3-3.93-4.31-8.71-6.42-14.59-5.18a17.67,17.67,0,0,0-3.94,1.69c-3.38,1.65-6.73,3.29-10.54,3.84s-7,0-9.61-2.9c-1.38-1.55-2.75-3.11-4.27-4.51a39.4,39.4,0,0,0-5.88-4.87c-4.56-2.79-6.27-7.05-5.13-12.05q.93-4.08,2.12-8.1a8.86,8.86,0,0,1,4.07-5.12,44.13,44.13,0,0,1,17.62-5.86C457.64,111.45,461.08,111.31,464.5,111Z" transform="translate(-0.48 -0.48)"/><path class="cls-1" d="M361.9,163.65a20.87,20.87,0,0,1-2.21,8.5,63.28,63.28,0,0,0-3.43,9.44,16,16,0,0,1-5.58,8.42c-2.48,1.91-6.81.93-8.69-2.2-1.3-2.17-2.93-4.13-4.4-6.2a8.2,8.2,0,0,1-1.52-2.41c-.65-2.56-2.19-4.61-3.56-6.74a99.26,99.26,0,0,0-7.62-11c-2.62-3.06-5.74-5.88-9.9-6.86-3.57-.85-6.8-.18-9.31,2.76-3,3.47-5.95,6.9-9.82,9.44a22.43,22.43,0,0,1-10,3.81,10.16,10.16,0,0,1-4.47-.34c-3.36-1.25-6.68-2.67-9.27-5.33-1.72-1.77-2.11-3.73-.55-5.53,1.74-2,2.57-4.37,3.58-6.72,2.14-5,4.37-10,6.72-14.84s4.87-9.54,7.25-14.34c1.48-3,2.69-6.15,4.26-9.1,1.8-3.37,3.78-6.67,5.88-9.87a16.65,16.65,0,0,1,3.6-3.8,24.9,24.9,0,0,1,10-4.48,15.69,15.69,0,0,1,10.28,1.36c5,2.34,8.57,6.15,11.67,10.69,3.3,4.83,5,10.32,7.48,15.5,1.95,4.12,4,8.16,6.06,12.24a3.42,3.42,0,0,1,.21.43c2.22,6.18,6.16,11.34,9.87,16.63a21.6,21.6,0,0,1,3.28,8.17A15.7,15.7,0,0,1,361.9,163.65Z" transform="translate(-0.48 -0.48)"/><path class="cls-1" d="M262.43,291.68a23.47,23.47,0,0,1,2.8.54c3.66,1.16,7.42,1,11.17,1,1.43,0,2.87,0,4.29-.07,2.31-.12,3.74,1.21,4.87,2.94a15.92,15.92,0,0,1,2.43,7.2c.46,4.29,1,8.58,1.27,12.88a142.3,142.3,0,0,0,3.26,22c1.15,5.38,1.79,10.86,2.68,16.3a22.5,22.5,0,0,0,.68,2.53c.8,2.68,1.75,5.31,2.4,8a8.24,8.24,0,0,1-1,6.68c-1.88,2.8-5.12,3.25-7.54.84A38.92,38.92,0,0,1,286,367.6a13,13,0,0,1-.76-1.49c-1.58-3-3-3-5-.24a38.28,38.28,0,0,1-4.95,5.81c-2.7,2.49-5.72,2.62-8.76.56a43.11,43.11,0,0,1-4.79-4c-2-1.8-3.41-1.68-4.74.63a45.86,45.86,0,0,1-6.91,9.17,20.16,20.16,0,0,1-2.87,2.52,7.31,7.31,0,0,1-9.83-.75,16.6,16.6,0,0,1-4.41-7.31A91,91,0,0,1,230,362.42c-1.51-8.19-2.42-16.46-.64-24.75a37.53,37.53,0,0,1,5.75-13.34l18.3-27a20.91,20.91,0,0,1,1.7-2.58A9.55,9.55,0,0,1,262.43,291.68Z" transform="translate(-0.48 -0.48)"/><path class="cls-1" d="M347.8,258.31a13.53,13.53,0,0,1-.89,1.56,6,6,0,0,0-.77,5.19,67,67,0,0,1,.42,26.65,18.46,18.46,0,0,1-1.5,4.28,3.7,3.7,0,0,1-4.58,2.09c-1.82-.44-2.71-1.79-2.6-4,.19-3.91.5-7.81.53-11.72a16.91,16.91,0,0,0-.93-4.66,13.32,13.32,0,0,0-1.38-2.47l-2.79,2.24a18.24,18.24,0,0,1-21.06,1.81c-1.09-.62-2.06-1.43-3.37-2.34-.22,1.16-.42,2.06-.54,3-.69,5.34-2.89,10.11-5.57,14.68a6.44,6.44,0,0,1-1.93,2.06c-2.77,1.85-4.61,1.21-6.14-1.76a11.49,11.49,0,0,1-1.11-5.06,124.53,124.53,0,0,0-1-12.66,10.44,10.44,0,0,0-2.28-4.63c-1.41-1.82-3.62-1.47-4.95.53-1.07,1.59-2.12,3.2-3.19,4.79a10.18,10.18,0,0,1-8.35,4.85c-1.91.09-3.77.59-5.71.12a9.46,9.46,0,0,1-5.4-3.31,33,33,0,0,1-5.37-8.76,7,7,0,0,0-4.69-4.39c-2-.68-4-1.62-6-2.46-5.65-2.4-6.28-8.25-1.65-12.58a8.49,8.49,0,0,1,5.21-2.16c4.67-.43,9,2.39,11.44,6.38,3.05,5,6.07,6.38,10.87,4.26s8.18-5.26,9.54-10.38c.86-3.24,1.6-6.51,2.47-9.75,1-3.69,2-7.39,3.16-11.05.52-1.68,1.28-3.22,3.36-3.68,2.89-.65,5.31.28,6.54,3a37.34,37.34,0,0,1,1.57,4.76c.34,1.15.52,2.34.85,3.49.66,2.31,2.27,3.23,4.58,2.51a8.58,8.58,0,0,0,5-3.55c1.58-2.58,3.13-5.19,4.48-7.9a7.32,7.32,0,0,1,6.21-4.23,3.35,3.35,0,0,1,3.91,2,19.67,19.67,0,0,1,1.49,3.78c.92,3.8,3.79,5.58,7.05,6.86a29.93,29.93,0,0,0,5.32,1.39,13.07,13.07,0,0,1,7.47,4c.75.83,1.7,1.48,2.4,2.34a23.79,23.79,0,0,1,3.09,4.22c2,3.83,3.7,7.77,5.53,11.67a2.12,2.12,0,0,0,.11.21c.89,2,.38,3.9-1.3,4.76s-3.57.2-4.66-1.65c-.77-1.31-1.53-2.62-2.31-3.92C348.34,258.6,348.16,258.54,347.8,258.31Z" transform="translate(-0.48 -0.48)"/><path class="cls-1" d="M333.22,209.51c-1.56-.55-3.36-.78-4.62-1.73-3.38-2.55-6.72-2.06-10.14-.42a61.3,61.3,0,0,0-5.67,3.13,20.47,20.47,0,0,0-2.75,2.27c-.72.63-1.35,1.36-2.06,2-2.62,2.37-6.06,2.32-8.62-.72a13.93,13.93,0,0,1-3.17-7.39,19,19,0,0,0-.48-2.83c-.56-1.94-1.81-2.49-3.42-1.38a23.38,23.38,0,0,0-8.68,10c-1.77,4.2-3.15,8.55-4.83,12.78q-2.26,5.69-4.83,11.23a13.48,13.48,0,0,1-4.37,5.61,7.2,7.2,0,0,1-6.32,1.25c-2.52-.65-5.13-.92-7.66-1.55a28.74,28.74,0,0,1-5.14-1.87c-1.58-.75-3-1.81-4.54-2.67-2-1.15-2.65-2.51-1.91-4.78,1.48-4.56,3-9.11,4.48-13.66a10.21,10.21,0,0,0,.5-1.6,2,2,0,0,0-1.13-2.39c-.8-.37-1.56-.81-2.37-1.17-4.38-1.93-8-5-11.47-8.15a3.73,3.73,0,0,1-.77-4.81,67.69,67.69,0,0,1,4.43-7.12c4.11-5.64,8.67-10.9,14.52-14.84a61.29,61.29,0,0,1,6.7-3.69,3.75,3.75,0,0,1,4.46.64,44.67,44.67,0,0,1,3.2,3.53,10.77,10.77,0,0,0,1.55,1.78c2.05,1.39,4.16,2.69,6.27,4a7.66,7.66,0,0,0,5.31,1,38.78,38.78,0,0,0,16.93-6.88c2.28-1.62,4.57-3.23,7-4.69a18.44,18.44,0,0,1,11.26-2.57,4.31,4.31,0,0,1,2.18.82,14.7,14.7,0,0,1,2.36,2.37c2.92,3.49,5.94,6.92,8.67,10.57s5,7.22,7.36,10.91a31.31,31.31,0,0,1,2.95,5.46C339.66,205.27,336.82,209.23,333.22,209.51Z" transform="translate(-0.48 -0.48)"/><path class="cls-1" d="M583,279.32c-6.71.36-11.37-2.6-14.61-8.08-.25-.41-.46-.85-.7-1.26-.55-.91-1.21-1.09-2.38-1-5.15.45-10.28,1.46-15.48.89s-8-3.49-8.37-8.76a20.77,20.77,0,0,1,1.29-9.43c1.85-4.51-1.79-9-5.43-9.82a22.19,22.19,0,0,0-6.62-.57,79.32,79.32,0,0,1-11,.08c-4.54-.26-9.07-.77-13.58-1.33a22.88,22.88,0,0,1-9.45-3.91,5.49,5.49,0,0,1-1.08-8.2,36,36,0,0,1,3.24-3.18c.75-.72,1.54-1.41,2.27-2.14a2.61,2.61,0,0,0,.71-2.64,14.16,14.16,0,0,1-.37-2.84A8.58,8.58,0,0,1,506,209a20.41,20.41,0,0,1,13.2-2.39c4.27.54,8.5,1.47,12.76,2.12a15.1,15.1,0,0,0,9.74-1.69,10.22,10.22,0,0,0,4.09-4.25,9.7,9.7,0,0,1,4.42-4.57,4.52,4.52,0,0,1,6.2,1.82,11,11,0,0,1,1.55,4.23c.36,4.47,2.85,7.87,5.21,11.37q6.15,9.15,12.32,18.28c3.2,4.71,4.19,10.13,5,15.6.33,2.37.47,4.76.79,7.13A7.77,7.77,0,0,0,583.6,261c1.45,1.48,2.86,3,4.25,4.55a19.43,19.43,0,0,1,4.25,7.95c.67,2.42-.14,3.74-2.5,4.64A14.1,14.1,0,0,1,583,279.32Z" transform="translate(-0.48 -0.48)"/><path class="cls-1" d="M412.15,365.26a14,14,0,0,0-2.85-7.75,5.67,5.67,0,0,0-4.55-2.33,15.43,15.43,0,0,0-7.64,1.61,56.24,56.24,0,0,1-6.79,3,9.85,9.85,0,0,1-8.77-.68,6.74,6.74,0,0,1-3.6-6.33,19.46,19.46,0,0,1,1-5.62A23.19,23.19,0,0,1,387.67,336a57.68,57.68,0,0,0,7.33-6.84,9.49,9.49,0,0,0,1.81-3.34c1.09-2.92,1.82-6,3.08-8.82a92.87,92.87,0,0,1,5.84-11.52c2-3.26,5.37-4.94,9.23-5.41,4.24-.51,8,3.29,8.86,6.38a38.12,38.12,0,0,1,.89,5.66c.11.95,0,1.92.06,2.88.15,2.77,2,4.37,4.25,5.29,2.11.84,3.93-.39,5.35-1.84a50.52,50.52,0,0,0,4.68-5.46c2.59-3.56,5.07-7.19,7.5-10.85,2.87-4.35,8.6-6.59,13.43-5a5.57,5.57,0,0,1,3.66,3.53c1.19,3.39,2.42,6.77,3.72,10.12,3,7.75-.92,16.87-7.55,19.54-1.41.56-2.7,1.41-4.1,2a25.59,25.59,0,0,0-10.77,8.53,52,52,0,0,0-5.26,8.53c-2.92,6-6.18,11.75-9.52,17.48a39.76,39.76,0,0,1-5.24,6.82,12.22,12.22,0,0,1-4.17,2.67,5.26,5.26,0,0,1-6-1.66C412.88,372.57,411.84,369.34,412.15,365.26Z" transform="translate(-0.48 -0.48)"/><path class="cls-1" d="M428.48,286.73c-1.93.69-3.63,1.35-5.36,1.9a12,12,0,0,1-8,.31,6.05,6.05,0,0,1-4.3-5,12.25,12.25,0,0,1,2.76-10.29c.55-.68,1.12-1.36,1.61-2.07a52.54,52.54,0,0,1,18.12-16.12c1.11-.61,2.17-1.33,3.23-2,3.22-2.16,4.17-5.46,4.53-9.07a17.07,17.07,0,0,0-.62-7.59c-1.2-3.3-2.5-6.57-3.77-9.84-.23-.6-.55-1.16-.78-1.75-.76-2-.43-3.79,1.35-4.86q6.17-3.68,12.55-7c1.8-.94,3.4-.35,4.58,1.37a15.16,15.16,0,0,1,1.67,3.16c2.42,6.43,6.59,11.86,10.13,17.64a6.06,6.06,0,0,0,4.21,2.53c2.34.5,4.7.94,7.05,1.39a34.21,34.21,0,0,1,13.68,6.12c3.51,2.55,3.17,6.66-.72,8.66-1.27.66-2.62,1.17-3.94,1.75-2.73,1.19-3.15,2-2.82,5,.74,6.5.17,12.76-3.31,18.53a15.31,15.31,0,0,1-8.76,7,7,7,0,0,1-5.15-.06c-1.87-.87-3.64-2-5.52-2.85a27.46,27.46,0,0,0-5.73-2.27c-3.24-.7-4.88.33-6.35,3.31s-2.84,5.91-4.41,8.78a24.24,24.24,0,0,1-3.12,4.52c-3.21,3.63-7.6,2.95-10.23-.59a12.9,12.9,0,0,1-2.6-8.07C428.49,288.49,428.48,287.72,428.48,286.73Z" transform="translate(-0.48 -0.48)"/><path class="cls-1" d="M404.81,186.8c.28-3.81.51-6.75.71-9.7a4.1,4.1,0,0,1,1.72-3,37.21,37.21,0,0,0,4.32-4.1c2.81-3.26,5.56-6.58,8.19-10a61.47,61.47,0,0,0,4.09-6.2c1.48-2.48,3.5-4,6.45-3.65,3.19.41,5.12,2.47,6,5.45a34.43,34.43,0,0,0,4.39,8.47c1.9,2.93,4.65,3.45,7.69,3.15A35.29,35.29,0,0,0,454,166a22.41,22.41,0,0,1,10.2-.49,12.89,12.89,0,0,1,8.47,5.38c1.88,2.77,4,5.42,5.58,8.34,1.74,3.21,3,6.69,4.47,10,1.32,3,2.65,6,4,9a28.32,28.32,0,0,1,2.53,13.51,15.88,15.88,0,0,0,0,2.39,7,7,0,0,1-3.34,6.94c-2.58,1.72-5.34,3.05-8.54,2.48a11.69,11.69,0,0,1-8.76-7.08,40.91,40.91,0,0,1-2-5.63,21.19,21.19,0,0,0-5.12-8.57c-3.91-4.13-10.19-4.6-15.09-2.29a7.3,7.3,0,0,0-1.81,1.54c-1.3,1.3-2.61,2.59-3.85,3.95-4.11,4.49-9.25,5.69-15.07,4.77-1.65-.26-3.31-.54-4.95-.88a22.69,22.69,0,0,1-12.24-7.07c-1.91-2-2.31-4.74-2.83-7.26A70.82,70.82,0,0,1,404.81,186.8Z" transform="translate(-0.48 -0.48)"/><path class="cls-1" d="M414.05,252.43a30.27,30.27,0,0,1-12.32-3.1,41.53,41.53,0,0,1-12.61-9.39,42,42,0,0,0-7.71-6.81,7.5,7.5,0,0,0-7.91-.61c-2.25,1-4.48,2-7.09,1.92a14,14,0,0,1-8.61-3.13c-.56-.45-1.1-.93-1.62-1.42a7.54,7.54,0,0,0-6.46-2.37,11.87,11.87,0,0,1-8.66-2,6.86,6.86,0,0,1-1.7-9.35,10.64,10.64,0,0,1,3.77-3.6c7.17-3.42,12.18-9.19,16.86-15.33a47.85,47.85,0,0,0,6.89-13.89c.53-1.58,1.27-3.09,1.94-4.63a6,6,0,0,1,3.39-2.89,3.29,3.29,0,0,1,3.23.17c4.76,3.11,10.11,3.65,15.6,3.68a9,9,0,0,1,3,.42,4.13,4.13,0,0,1,2.91,4c.56,7.49,1,15,1.92,22.44,1,8.81,5.22,15.66,13.52,19.57a53.59,53.59,0,0,1,5.54,2.85,30.52,30.52,0,0,1,5.39,3.93,9.13,9.13,0,0,1,2.46,9.91,23.06,23.06,0,0,1-2.5,5.4C421.2,251.34,417.94,252.47,414.05,252.43Z" transform="translate(-0.48 -0.48)"/><path class="cls-1" d="M593.12,440a28.89,28.89,0,0,1-3.24-.79,9.16,9.16,0,0,1-2.54-1.32c-5.77-4.44-11.48-8.94-15.24-15.38-1.4-2.41-2.88-4.79-4.43-7.11a5.45,5.45,0,0,0-1.92-1.68c-5.13-2.77-10.31-5.45-15.44-8.22a23.12,23.12,0,0,1-6.5-4.84,15,15,0,0,0-2.22-1.81,7.51,7.51,0,0,1-3.15-6.86,10.39,10.39,0,0,1,2.54-6.81,3.66,3.66,0,0,0,.86-3.3,28,28,0,0,1-.27-5.24c.31-4.37,3.59-6.73,7.79-5.77a37,37,0,0,1,9.69,3.34,25.24,25.24,0,0,0,11,3,18.07,18.07,0,0,0,4.26-.43,21.18,21.18,0,0,0,3.42-1.08c6-2.3,11-.39,15.12,4.09A24,24,0,0,1,598.51,390,102.35,102.35,0,0,0,609,415.59c1.89,3.22,4.21,6.19,6.41,9.23.77,1.07,1.51,2.08,1.13,3.48a3.65,3.65,0,0,1-2.94,2.83c-1.25.24-2.54.27-3.8.48-4.32.71-8.41,1.86-11.28,5.59A6.89,6.89,0,0,1,593.12,440Z" transform="translate(-0.48 -0.48)"/><path class="cls-1" d="M118.25,352.79c-.85.69-1.43,1.2-2,1.67-2.9,2.23-6.15,1.59-7.79-1.68a21.8,21.8,0,0,1-1.7-4.72c-1.22-5.2-2.32-10.44-3.48-15.66a3.91,3.91,0,0,1,1.87-4.51c4.59-3.06,7.7-7.41,10-12.28a19.89,19.89,0,0,0,1.45-6c.47-3.56,3.89-5.54,7-3.66A11.7,11.7,0,0,0,133.92,307a3.74,3.74,0,0,1,4.6,1.6,9.13,9.13,0,0,0,4.69,3.14,2.71,2.71,0,0,0,3.44-.85,11.44,11.44,0,0,0,2.11-4.19,25.53,25.53,0,0,0,.08-6.42,5.26,5.26,0,0,1,1.61-4.55c1.91-1.86,4.71-1.45,5.72,1,1.94,4.73,3.74,9.51,5.58,14.28s3.58,9.4,5.38,14.09a3.27,3.27,0,0,0,.42.86c2.87,3.91,3.81,8.57,5.12,13.08a11.46,11.46,0,0,1-12.88,14.59c-4-.71-7.65-1.94-10.57-5.09a7.21,7.21,0,0,0-10.78.63,22.25,22.25,0,0,0-5.09,13.18c-.08,2.16-.12,4.32-.35,6.47a4.39,4.39,0,0,1-6.89,3.37,9.68,9.68,0,0,1-4.21-5.63c-1.08-3.42-1.93-6.92-2.86-10.39C118.78,355.19,118.57,354.17,118.25,352.79Z" transform="translate(-0.48 -0.48)"/><path class="cls-1" d="M304.31,341.16a14,14,0,0,0-2.48-8.35A16.16,16.16,0,0,1,300,319.22a8.9,8.9,0,0,1,1.57-3.19c2.1-2.61,4.32-5.14,6.57-7.62a6.65,6.65,0,0,0,1.92-3.43c.52-2.81,1.5-5.54,2.24-8.31a6.83,6.83,0,0,1,3.06-3.85c2.4-1.65,5.13-1.68,7.84-1.34a5.49,5.49,0,0,1,4.55,3.83,41.85,41.85,0,0,1,2.35,8.51c.53,4.07,3.06,6.39,6.22,8.27a6.17,6.17,0,0,0,3.44.64,11.32,11.32,0,0,0,10.06-7.39,27.42,27.42,0,0,1,5-7.83,11.06,11.06,0,0,1,1.15-1.22c2.87-2.43,5.82-1.76,7.35,1.66a5.16,5.16,0,0,1,.42,1.11c1.2,6.31,2.11,12.62.91,19.05-.64,3.42,1.65,5.85,5.19,5.55,2.07-.17,4.12-.53,6.19-.64a5.77,5.77,0,0,1,4.8,1.7c2.51,2.62,2.56,5.88-.29,8.1A24.13,24.13,0,0,1,366,338.36c-6.93.14-7.76.56-11.37,6.46-1.29,2.11-2.64,4.19-4,6.29-1.88,3-4.85,3.95-8.14,4.2a5.89,5.89,0,0,1-4.63-1.56,12.34,12.34,0,0,1-4.31-7.52c-.26-1.9-.66-3.79-.86-5.69a3.62,3.62,0,0,0-2.33-3c-2.3-1.17-4.59-1.79-7.15-1a6.2,6.2,0,0,0-4.38,4.05,48.42,48.42,0,0,1-2.17,5.58,14,14,0,0,1-2.27,3.34c-2.81,3.08-7.21,2-9.19-1.58C304.25,346.1,304.19,344.13,304.31,341.16Z" transform="translate(-0.48 -0.48)"/><path class="cls-1" d="M235,234.54a119.44,119.44,0,0,1-1.17,24.13c-.74,5.64-3.71,10-8,13.77-6,5.25-13,8.67-20.31,11.6a20.34,20.34,0,0,0-9,6.77c-4.55,6-9.42,11.71-14.16,17.54a9.68,9.68,0,0,1-4,3.28c-3,1.15-5.14-.64-5-3.87.41-8.84,3.05-17.13,6.2-25.25a18.86,18.86,0,0,0,.6-11.49c-1-4.51-2.17-9-2.22-13.69,0-2.46-.24-5,1.07-7.25,1.58-2.77,5.66-4,8.28-2.18,3.23,2.23,6.38,2.16,9.65.24a42.1,42.1,0,0,0,10.4-9.15,67.27,67.27,0,0,0,10.43-17.42,9.3,9.3,0,0,1,3.55-4.4c3.27-2,6.71-1.19,8.88,2.17a32.84,32.84,0,0,1,4,10.48C234.58,231.37,234.75,233,235,234.54Z" transform="translate(-0.48 -0.48)"/><path class="cls-1" d="M354.91,404.05c-12.16-.67-24.27-1.73-35.63-6.64a37,37,0,0,1-7-4.05,8.18,8.18,0,0,1-3.37-7.49c.17-3.41-.28-6.86-.45-10.29-.08-1.68-.15-3.36-.23-5a10.53,10.53,0,0,1,4.48-9.29,54.35,54.35,0,0,1,10.88-6,3.18,3.18,0,0,1,4.41,1.7c.54,1.15.76,2.44,1.23,3.62.9,2.3,1.82,4.59,2.83,6.84a4.05,4.05,0,0,0,3.54,2.51,21.24,21.24,0,0,0,4.78,0,38.17,38.17,0,0,0,11.47-3.32,41.33,41.33,0,0,0,6.06-3.8c2.14-1.57,4.22-3.17,6.83-3.88a4.82,4.82,0,0,1,5.91,3.46,25,25,0,0,1,.32,4.75c0,2,.32,2.72,2.27,3.08a13.61,13.61,0,0,0,5.43.05,40.87,40.87,0,0,0,7.84-2.85c2.34-1.12,4.42-.54,6.39.53,2.14,1.16,2.16,4.63.18,6.76a13.5,13.5,0,0,1-1.8,1.57,80.41,80.41,0,0,0-17.52,18.6,23.43,23.43,0,0,0-2.28,4.46,5.53,5.53,0,0,1-3.49,3.35,29.47,29.47,0,0,1-8.73,1.36C357.79,404.1,356.35,404.05,354.91,404.05Z" transform="translate(-0.48 -0.48)"/><path class="cls-1" d="M295.15,483.68c.19-2.75.45-4.67.44-6.58q0-6-.32-12c-.3-6.22-.8-12.43-1-18.66-.18-5.25-.69-10.52.33-15.77a5,5,0,0,1,1.64-3.07,18.07,18.07,0,0,0,1.62-1.76c4.57-5.27,6.91-11.58,8.49-18.24a12.49,12.49,0,0,1,.39-1.63c1-2.88,3.22-3.86,6.09-2.76a14.28,14.28,0,0,1,1.91,1c1.68.92,3.38,1.82,5,2.81,3.68,2.23,7.33,4.49,11,6.77,1.6,1,1.83,2.52,1.45,4.21-.62,2.81-1.21,5.62-1.92,8.41a164.3,164.3,0,0,0-3.37,19.34c-1.32,10.14-2.74,20.27-4.08,30.4-.61,4.67-1,9.37-1.75,14A51.19,51.19,0,0,1,319,497.8a4.66,4.66,0,0,1-6.4,2.8c-4.18-2.28-8.68-3.65-13.13-5.16a5,5,0,0,1-3.41-4.26C295.62,488.43,295.38,485.64,295.15,483.68Z" transform="translate(-0.48 -0.48)"/><path class="cls-1" d="M150.91,381.86c-.23,1.41-.46,2.72-.67,4-.35,2.14-1.29,3.22-3,3.48-2.08.3-3.71-.43-4.42-2.43a47.7,47.7,0,0,1-1.87-7.16c-1.1-5.72-.6-11.48-.14-17.22.19-2.28,3.26-4.56,5.84-4.37a8.67,8.67,0,0,1,3.63,1.06,50.42,50.42,0,0,1,5.72,3.93,14.71,14.71,0,0,0,17,.85c4-2.46,6.49-6,8.48-10.1,1.91-3.95,4.12-7.76,6.28-11.58a16.15,16.15,0,0,1,2.12-2.58,4.58,4.58,0,0,1,4.58-1.39,3.59,3.59,0,0,1,3.15,2.57,25.21,25.21,0,0,1,.93,4.2,5.42,5.42,0,0,0,4,4.88,9.24,9.24,0,0,1,6.29,6.08,7.6,7.6,0,0,1,0,5.61,47.58,47.58,0,0,0-2.66,9.19c-1.7,7.49-5.13,14.26-8.92,20.87-2.18,3.81-4.33,7.67-7.34,10.93-.38.41-.71.87-1.1,1.26-2.72,2.71-4.6,2.9-7.48.33-2.68-2.39-5.12-5-7.67-7.58-.47-.46-1-.9-1.44-1.34l-.53.23c0,.59,0,1.18,0,1.75.17,1.84.1,3.67-1.75,4.62s-3.77.33-5.37-.87a14.33,14.33,0,0,1-2.16-2.24,50.08,50.08,0,0,1-7.84-13.13,7.63,7.63,0,0,0-2.7-3.58A5.1,5.1,0,0,0,150.91,381.86Z" transform="translate(-0.48 -0.48)"/><path class="cls-1" d="M520.68,295.06a7.91,7.91,0,0,1,8.63,6.45c.75,3.26,1.09,6.61,1.52,9.93.56,4.27,1,8.56,1.56,12.83.43,3.29,2.33,5.13,5.66,5.49,1.82.19,3.64.47,5.47.64,4.37.39,6.11,2.58,6.86,6.08a13.67,13.67,0,0,1-.68,8.66c-.8,1.83-1.49,3.71-2.3,5.53a6.32,6.32,0,0,1-6.23,4,21.11,21.11,0,0,0-2.64.07,14.19,14.19,0,0,0-3.06.52c-1.76.6-3.09,1.72-3.2,3.76-.17,3.27-.31,6.54-.45,9.81-.14,3.43-.25,6.86-.38,10.29a7.81,7.81,0,0,1-.1,1c-.48,2.72-1.57,4-3.7,4.42s-3.54-.51-4.91-3c-1.88-3.42-3.72-6.87-5.6-10.29a23.64,23.64,0,0,0-2-3.26,54.3,54.3,0,0,1-9.24-18c-3.31-10.94-5.12-22.14-3.71-33.59,1-8.33,5.35-14.75,12.31-19.41A9,9,0,0,1,520.68,295.06Z" transform="translate(-0.48 -0.48)"/><path class="cls-1" d="M592.27,325.68c0,10.07,0,20.14,0,30.21a19.58,19.58,0,0,1-.49,3.79,7.78,7.78,0,0,1-4.44,5.57,16.56,16.56,0,0,1-9.1,1.38c-6.17-.48-12.07-2.24-18-3.95a8.37,8.37,0,0,1-3-1.84,4.89,4.89,0,0,1-.51-6.69,25.49,25.49,0,0,1,3.37-3,11.06,11.06,0,0,0,1.52-1.12c3.75-4.62,5.76-9.77,4.34-15.79a36,36,0,0,0-2-5.65,5.4,5.4,0,0,0-5.63-3.6,11.82,11.82,0,0,1-8.71-3.33,5.64,5.64,0,0,1-1.86-4.25,4.36,4.36,0,0,1,1.22-2.7,7.5,7.5,0,0,1,4.93-2.18c4.27-.41,8.23-1.9,12.23-3.31,2.87-1,3.69-3.59,4.45-6.11a3.61,3.61,0,0,0-.59-2.25c-1-1.92-2.13-3.75-3.13-5.66a52.19,52.19,0,0,1-2.54-5.41c-1.12-3,.5-5.51,3.65-5.82a7.76,7.76,0,0,1,2.83.31c3.06.88,6.09,1.85,9.13,2.82,2.74.87,5.48,1.74,8.19,2.68a5.67,5.67,0,0,1,4.15,5.7c-.14,10.07-.06,20.14-.06,30.21Z" transform="translate(-0.48 -0.48)"/><path class="cls-1" d="M395.63,408.35c-2.22-.24-5-.5-7.76-.84a11,11,0,0,1-2.31-.62c-3.91-1.41-4.57-3.77-2.06-7.15.95-1.28,1.86-2.6,2.75-3.93,3.36-5,8.25-8.41,13-11.86a15.63,15.63,0,0,1,4.57-2,7.43,7.43,0,0,1,7.54,1.87,13.33,13.33,0,0,0,11.54,3.33,14.9,14.9,0,0,0,5.34-2.54c3.57-2.31,6.06-5.71,8.28-9.21q5.81-9.09,11.08-18.5c1.33-2.35,2.17-5,4.21-6.89a63.21,63.21,0,0,1,5.53-4.54,3.27,3.27,0,0,1,5,3.19,19,19,0,0,1-.66,2.54c-1.33,4.61-.61,8.69,3.08,12,.41.38.77.81,1.16,1.21,3.44,3.53,4.31,7.64,3.08,12.37a49.6,49.6,0,0,1-7.37,15.77,18.23,18.23,0,0,1-9.06,6.8,118.65,118.65,0,0,1-25.13,6c-3.17.4-6.33.86-9.52,1.15C410.71,407.13,403.46,407.7,395.63,408.35Z" transform="translate(-0.48 -0.48)"/><path class="cls-1" d="M286.72,389.34c.84-.76,1.56-1.52,2.37-2.14a14.34,14.34,0,0,1,2.8-1.8,4.13,4.13,0,0,1,5.93,3.23,21.2,21.2,0,0,1,.24,3.82c-.06,6.08-.26,12.15-1.9,18.06a10,10,0,0,1-1.31,2.79,43.78,43.78,0,0,1-9.39,10.19c-4.75,3.78-9.6,7.44-14.44,11.11-1.92,1.44-4,2.76-6.45,2.95a7.75,7.75,0,0,1-2.79-.33c-1.75-.53-3.44-1.24-5.17-1.83a16.81,16.81,0,0,1-7.31-4.85c-1.74-2-3.36-4.07-4.94-6.17-1.88-2.5-2.53-5.51-3.19-8.46-.54-2.41-.88-4.87-1.27-7.32a4.56,4.56,0,0,1,1.58-4.27,121.93,121.93,0,0,0,13-15.65,24.87,24.87,0,0,0,2.45-4.62c1.17-2.61,3.74-3.2,5.79-1.15a9,9,0,0,1,1.81,2.49c1.09,2.32,2.92,3.95,4.85,5.68,1.55-.81,2.26-2.26,3.21-3.5a41.07,41.07,0,0,1,4-4.73,3.3,3.3,0,0,1,5.48,1.27C283.16,386.72,283.64,387.28,286.72,389.34Z" transform="translate(-0.48 -0.48)"/><path class="cls-1" d="M132.65,293.67l-1.24,1.45a4.66,4.66,0,0,1-7.82-.61c-1-1.54-1.93-3.13-3-4.58s-2.44-2.72-4.46-2.06a5.37,5.37,0,0,0-3.76,4.22c-1.68,7.15-3.51,14.26-5.36,21.36-.53,2.05-1.85,3-3.58,2.88s-2.77-1-3.21-3a24.48,24.48,0,0,1-.56-4.27,69.1,69.1,0,0,1,2-19c1.7-7.39,3.57-14.74,5.42-22.1a20.83,20.83,0,0,1,1.46-4.05,17.73,17.73,0,0,0,1.33-10.53c-.36-2.68-.6-5.4-.73-8.1-.31-6.78,1.71-13.1,4.07-19.32,1-2.55,2-5.06,2-7.85a4.28,4.28,0,0,1,1.69-3.3,3.33,3.33,0,0,1,3.57-.71,3.11,3.11,0,0,1,2.13,2.91c.07,1.12,0,2.24.13,3.36.32,4.78.63,9.56,1,14.33.36,4.49,2.42,8.4,4.37,12.34,1.8,3.65,3.77,7.23,5.36,11a19.57,19.57,0,0,1,1.29,6c.27,3.18.29,6.39.29,9.58a22.73,22.73,0,0,0,6,15.75,5.81,5.81,0,0,1,1.27,4.94,3.09,3.09,0,0,1-3.76,2.52,15.47,15.47,0,0,1-3.9-1.66A12,12,0,0,1,132.65,293.67Z" transform="translate(-0.48 -0.48)"/><path class="cls-1" d="M403.82,274.18a17.72,17.72,0,0,1-1.8,7.39c-.89,2-1.82,3.91-2.52,5.95a14.49,14.49,0,0,0-.51,3.74c-.37,7.08-1.91,13.76-6.51,19.41a9.54,9.54,0,0,1-5.86,3.85c-4.37.72-8.23-1.29-9.78-5.44a21.45,21.45,0,0,1-1-4.66c-.51-4-1-7.92-1.38-11.89a4,4,0,0,0-3.49-3.92c-2.35-.45-4.67-1-7-1.57l-2.1-.47c-5.5-1.17-7-7.92-4.51-11.93a7.63,7.63,0,0,1,2.92-2.39,13,13,0,0,0,7.26-10.32,6.72,6.72,0,0,0-.31-2.33c-.63-2.63-1.3-5.24-2-7.86a1.94,1.94,0,0,0-.11-.46,4,4,0,0,1-.06-4.7,7.06,7.06,0,0,1,5.09-3.19c.7-.12,1.4-.26,2.1-.44a5.19,5.19,0,0,1,6.06,2.21,72.43,72.43,0,0,1,5.61,10c1.6,3.76,4.52,5.34,8.06,6.43a33.07,33.07,0,0,1,5.39,1.89A11.18,11.18,0,0,1,403.82,274.18Z" transform="translate(-0.48 -0.48)"/><path class="cls-1" d="M487.63,385.73a9.66,9.66,0,0,1,2.31-6.1c3.5-3.94,7-7.89,10.64-11.71,2.2-2.31,5.17-1.29,5.91,1.88.25,1.09.41,2.2.63,3.29.94,4.75,3.44,8.68,6.33,12.47,4.86,6.36,11.16,10.91,17.91,15a22.07,22.07,0,0,1,3.93,3.1c1.63,1.56,1.72,2.62.73,4.73-.34.72-.74,1.41-1.12,2.12-3.79,7-5.77,14.35-3.76,22.36.38,1.54.65,3.11,1,4.66a5.62,5.62,0,0,1-1.85,5.15,3.91,3.91,0,0,1-5.26-.31,31,31,0,0,1-3.84-4.53,17.44,17.44,0,0,1-2.09-3.49,11.42,11.42,0,0,0-5.29-5.38c-6.33-3.41-10.34-8.93-14-14.77-2.51-4-4.87-8.07-7-12.26a64.14,64.14,0,0,1-3.26-8.47c-.7-2-1.18-4.15-1.72-6.23A9.62,9.62,0,0,1,487.63,385.73Z" transform="translate(-0.48 -0.48)"/><path class="cls-1" d="M245.28,288a19.39,19.39,0,0,1-3.61,10.86c-4.45,6.35-9,12.6-13.5,18.94-1.29,1.82-2.42,3.76-3.57,5.68a19.91,19.91,0,0,0-2.51,6.43,18.79,18.79,0,0,1-2.19,5.53c-2.31,4-6.34,4.71-9.89,1.77A14.94,14.94,0,0,1,207.2,334,21.37,21.37,0,0,1,205,329.7a11.71,11.71,0,0,0-4-5,3.74,3.74,0,0,0-4.82-.27c-1.83,1.14-3.58,2.43-5.47,3.46a15.8,15.8,0,0,1-4.19,1.61,3.39,3.39,0,0,1-4.06-1.76,4.06,4.06,0,0,1,.78-4.85,37.79,37.79,0,0,0,2.36-3A103.74,103.74,0,0,1,203,300.18a18.34,18.34,0,0,1,5.39-3,98.37,98.37,0,0,1,10.5-3.31,16.84,16.84,0,0,0,10.3-7.67c2-3.14,4-6.32,6.1-9.44a6.26,6.26,0,0,1,4.41-2.62,3.72,3.72,0,0,1,4,3c.49,2.25.7,4.57,1,6.86C245,285.47,245.15,286.89,245.28,288Z" transform="translate(-0.48 -0.48)"/><path class="cls-1" d="M630.6,449.75a279.77,279.77,0,0,1-4.66,36.84,122.9,122.9,0,0,1-3.78,13.59,8,8,0,0,1-1.6,2.61c-3.36,4-7.84,6.54-12.31,9a10.07,10.07,0,0,1-10.31-.3c-2.48-1.41-3.2-3.79-2.53-6.54,1.21-4.93,3.75-9.32,5.47-14,2.24-6.15,4.38-12.34,6.5-18.53.89-2.61.77-5.36.69-8.08a4.14,4.14,0,0,0-1.4-2.94c-1.09-1.05-2.17-2.12-3.21-3.24a15,15,0,0,1-2-2.41c-1.42-2.32-1.85-4.64-.18-7.15,2-3,4.44-5.21,8-6l5.34-1.17c1.87-.4,3-1.77,4-3.21a5.29,5.29,0,0,1,3.34-2.51,7.17,7.17,0,0,1,8.52,6.62C630.73,444.79,630.6,447.27,630.6,449.75Z" transform="translate(-0.48 -0.48)"/><path class="cls-1" d="M187.89,204.3c-.36,3.53-.73,7.51-1.21,11.47a8.25,8.25,0,0,1-1,2.93,3.35,3.35,0,0,1-5.47.75,5.22,5.22,0,0,1-1.67-3.6,4.5,4.5,0,0,0-2.36-4.15c-1.43-.73-2.39-.58-3.23.81-.7,1.16-1.22,2.43-1.92,3.59-1.44,2.39-2.88,4.79-4.45,7.11a6,6,0,0,1-4.68,3c-2.21.13-4-.86-4.54-3a16.83,16.83,0,0,1-.34-4.49c.11-3.77-1.73-5.09-5.25-3.6a10.3,10.3,0,0,0-5.07,4.18,63,63,0,0,1-4.92,7.08,10.15,10.15,0,0,1-3.53,2.73c-3.07,1.45-5.89,0-6.11-3.33a82.1,82.1,0,0,1,.29-10.51,6.75,6.75,0,0,1,2.39-4.31,16.31,16.31,0,0,1,9.11-4.48c8.08-1.2,13.84-6.14,15.71-14.08,1-4.1,1.63-8.33.57-12.57a26,26,0,0,0-1.27-4.1,17.58,17.58,0,0,1-1.4-7,4.91,4.91,0,0,1,1.65-3.83,3.29,3.29,0,0,1,4.74,0c1.83,1.65,3.56,3.45,5.52,4.94,4.46,3.39,7.86,7.8,11,12.26,3.29,4.67,6.19,9.74,7,15.62C187.7,199.68,187.72,201.77,187.89,204.3Z" transform="translate(-0.48 -0.48)"/><path class="cls-1" d="M249.36,475.33c2.12.26,4.35.61,6.17,2.06a10.4,10.4,0,0,1,1.82,2.13,39.43,39.43,0,0,0,2.84,4.11c4.36,4.68,8.85,9.23,13.25,13.87,3.53,3.71,7.88,6.22,12.28,8.69a2.56,2.56,0,0,0,2.49,0,26.34,26.34,0,0,1,8.58-2,15.23,15.23,0,0,1,8.31,1.77c6.21,3.3,9.64,8.89,12.44,15a6.81,6.81,0,0,1,.51,2.57c.11,4.59-3.88,6.1-7.13,5.71-1-.12-2-.46-3-.67-3.27-.69-6.54-1.39-9.82-2a11.27,11.27,0,0,1-6.69-3.46c-1.64-1.89-3.61-2.5-6.05-2.79a46.07,46.07,0,0,1-17.64-5.76c-5.75-3.29-11.41-6.77-17-10.37a56,56,0,0,1-8.71-6.73,70.24,70.24,0,0,1-6.73-8.39,3.83,3.83,0,0,1-.29-3.68,13.81,13.81,0,0,1,6.3-7.58A17.65,17.65,0,0,1,249.36,475.33Z" transform="translate(-0.48 -0.48)"/><path class="cls-1" d="M490.39,275.59c.58-5.17,2.17-9.26,6.76-11.58.93-.47,1.8-1.05,2.76-1.44a55.38,55.38,0,0,0,14.43-8.39c4.16-3.4,9-3.88,14-1.59,2.83,1.3,3.69,2.91,3.5,6.07q-.21,3.22-.25,6.46a6,6,0,0,0,.39,2.09,21,21,0,0,0,6,8.79c2.89,2.39,5.77,4.78,8.68,7.14a7.32,7.32,0,0,0,1.63,1,19.06,19.06,0,0,1,7.34,6.39c2.17,2.91,1.83,6-.42,9.16a13.29,13.29,0,0,1-10.48,5.53,8.94,8.94,0,0,1-9-7.63c-.13-.95-.27-1.9-.36-2.86-.82-7.86-8.5-12.06-14.67-11.59-4.06.31-8.1,1-12.17,1.22a55.89,55.89,0,0,1-9.33-.18,9.53,9.53,0,0,1-7.67-5.1A17.6,17.6,0,0,1,490.39,275.59Z" transform="translate(-0.48 -0.48)"/><path class="cls-1" d="M571.39,566.53a26.48,26.48,0,0,1-12.27-2.89,8.31,8.31,0,0,1-2.6-12.51,7.45,7.45,0,0,1,1.31-1c5.28-3.92,11.46-5.23,17.8-5.66,3.06-.2,4.62-1.7,5.69-4.23,1.42-3.39,2.84-6.78,4.3-10.15a11.24,11.24,0,0,1,8.55-6.93c2.73-.55,5.48-1.1,8.17-1.82,2.15-.58,4.23-1.42,6.34-2.12a6.65,6.65,0,0,1,1.41-.28c3.24-.35,5,1.4,4.71,4.65a4.65,4.65,0,0,1-.34,1.38c-2,4.71-3.87,9.44-6,14.08-1.78,4-3.52,8-4,12.26-.73,6.34-4.44,9.74-10.26,11.1s-11.72,2.49-17.6,3.62C574.92,566.34,573.14,566.36,571.39,566.53Z" transform="translate(-0.48 -0.48)"/><path class="cls-1" d="M495.66,347c-.28,4.19-.45,8.33-1.7,12.35a29.45,29.45,0,0,1-8.45,13.4c-.71.64-1.34,1.37-2,2.06a14.47,14.47,0,0,1-1.34,1.37,3.52,3.52,0,0,1-4.05.34,3.05,3.05,0,0,1-1.57-3.47c.35-2,.86-3.89,1.26-5.85.8-3.91.18-7.4-2.85-10.31a11.42,11.42,0,0,1-3.25-11.63,39.07,39.07,0,0,1,2.7-8.14c1.6-3.29,2.74-6.81,4.14-10.2a5.26,5.26,0,0,0,0-4.19c-.7-1.69-1.38-3.4-2.11-5.08a23.06,23.06,0,0,1-1.57-11c.22-3.32,1.8-5.73,3.84-8,2.72-3,5.87-5.44,9.91-6.41a10.5,10.5,0,0,1,6.58.21,4.84,4.84,0,0,1,3,6.4,39.48,39.48,0,0,1-2.12,5.08,25.8,25.8,0,0,0-2.92,10c-.29,4.71-.89,9.39-.21,14.1.48,3.4,1.11,6.78,1.61,10.18C495,341.11,495.28,344,495.66,347Z" transform="translate(-0.48 -0.48)"/><path class="cls-1" d="M211.71,457.11c.91-7.43,2.09-14.71,5.87-21.34,1.49-2.63,2.61-5.47,3.9-8.21,1.12-2.39,2.19-4.8,3.37-7.15a4.38,4.38,0,0,1,4.65-2.2c1.71.31,2.62,1.44,2.92,3.58.27,2,.62,3.94.88,5.92.81,6.07,4.26,10.3,9.19,13.64a75.48,75.48,0,0,1,7.1,5.65,6,6,0,0,1,1.89,6.08c-.72,4.05-1.71,7.94-4.35,11.27a15,15,0,0,1-5.82,4.44c-2.54,1.13-5,2.43-7.49,3.72a8.47,8.47,0,0,0-3.51,3.48,5,5,0,0,1-7.1,1.39c-5.87-4.34-8.88-10.53-11.09-17.21A15.65,15.65,0,0,1,211.71,457.11Z" transform="translate(-0.48 -0.48)"/><path class="cls-1" d="M143,272.34c.58-2.64,1.13-5.28,1.74-7.92.2-.85.59-1.65.86-2.49.72-2.18.66-4.2-1-6a25.14,25.14,0,0,1-4.16-7.23,5.85,5.85,0,0,1,0-4.86,24,24,0,0,1,1.38-2.78c1.46-2.48,2.93-5,4.45-7.39,1.76-2.8,3.87-3,6.26-.66a6.64,6.64,0,0,1,2.16,3.38,5.2,5.2,0,0,0,.43,1.11c1.19,2.53,2.39,2.95,4.65,1.36,3.26-2.3,6.45-4.72,9.63-7.14a13.53,13.53,0,0,0,1.6-1.77,3.4,3.4,0,0,1,5.94,1.21,8.44,8.44,0,0,1-.18,5.63,21.27,21.27,0,0,1-5.27,7.92c-.93,1-2,1.88-2.92,2.84a7.32,7.32,0,0,0-2.15,6.78c.8,4.64,1.68,9.28,2.22,14,.51,4.36.64,8.77.89,13.16a10.88,10.88,0,0,1-2.47,7.34,4.38,4.38,0,0,1-7.54-.5c-.16-.27-.23-.6-.39-.87-1.49-2.51-3-3.14-5.89-2.41-3.71.94-6.12-.12-8-3.51A23.35,23.35,0,0,1,143,272.34Z" transform="translate(-0.48 -0.48)"/><path class="cls-1" d="M514.11,500.75a22.37,22.37,0,0,1-10.93-4.1,7.7,7.7,0,0,1-2.87-5.61,3.92,3.92,0,0,1,.63-2.24c2.57-4.33,5.15-8.65,7.84-12.9a8.93,8.93,0,0,0,1.45-5.17,241.53,241.53,0,0,0-1.35-25.37,15.54,15.54,0,0,1,0-3.34,3.58,3.58,0,0,1,3.16-3.39c1.72-.2,2.91.56,3.7,2.38,1.28,2.93,2.64,5.81,5,8.09a15.81,15.81,0,0,0,10.8,4.48,3.52,3.52,0,0,1,3.37,1.83c1.22,2.34,2.47,4.66,3.55,7.06a24.79,24.79,0,0,1,1.27,4.11,6.55,6.55,0,0,1-.49,4.89c-2.07,3.78-4,7.66-6.34,11.25-2.79,4.28-6,8.32-9,12.44a29.37,29.37,0,0,1-2.16,2.57C519.43,500.2,518.39,500.66,514.11,500.75Z" transform="translate(-0.48 -0.48)"/><path class="cls-1" d="M487.49,545.15c-6.34-.55-11.36-.89-16.36-1.48-3.09-.36-6.15-1-8.52-3.37-4-3.94-4.46-11.9-.12-15.56a11.62,11.62,0,0,1,7-2.91,70.86,70.86,0,0,1,8.09.37c.79,0,1.57.31,2.36.4,2,.24,2.57-.05,3.35-1.89.65-1.54,1.1-3.17,1.63-4.76.74-2.19,1.39-4.42,2.22-6.58,1.71-4.49,5.64-5.52,9.54-3.77.87.38,1.63,1,2.49,1.44,2.13,1.06,4.29,2.09,6.45,3.11.72.34,1.5.57,2.19,1,2.32,1.34,2.9,3.49,1.72,5.91-.95,1.93-1.87,3.88-2.69,5.87a10.86,10.86,0,0,0-.65,5.89,13.25,13.25,0,0,1-1.45,8.12c-.39.78-.86,1.53-1.22,2.33a8.45,8.45,0,0,1-6.82,5.06C493.2,544.8,489.69,545,487.49,545.15Z" transform="translate(-0.48 -0.48)"/><path class="cls-1" d="M107.47,150.94a6.29,6.29,0,0,0-1.54-3.75,3.24,3.24,0,0,1,.25-4.19,3.29,3.29,0,0,1,3.73-.81,6.08,6.08,0,0,1,1.78,1.54c1,1.22,2,2.52,2.94,3.79,2.14,2.81,5.17,3.83,8.52,4.23,4.83.58,9.7,1,14.47,1.89a53.54,53.54,0,0,1,9.51,3.15,4.51,4.51,0,0,1,3.16,4.85,36.76,36.76,0,0,1-.58,5A4.13,4.13,0,0,1,145.4,170a42.11,42.11,0,0,1-5-.17,7.43,7.43,0,0,0-7.51,4.08,17.66,17.66,0,0,0-2.37,7.68,87.67,87.67,0,0,1-1.59,10.4,7.33,7.33,0,0,1-2.17,4.18,6.11,6.11,0,0,1-8.25.15,3.12,3.12,0,0,1-.93-1.61c-.29-2-.45-4.06.78-6a14.53,14.53,0,0,0,1.85-4.61c.59-2.71-.22-4.38-2.73-5.43-2.92-1.21-4.57-3.34-6.12-6-2.73-4.68-6-9.07-9-13.54-.53-.78-1.45-1.27-2-2a52.65,52.65,0,0,1-3.76-5.19,3,3,0,0,1,.56-4,3.16,3.16,0,0,1,4-.57C103.16,148.48,105.22,149.69,107.47,150.94Z" transform="translate(-0.48 -0.48)"/><path class="cls-1" d="M56.7,218.6a8.75,8.75,0,0,1-8.84-11A7.23,7.23,0,0,1,51,203.54a25.34,25.34,0,0,1,9.35-4.16,11.82,11.82,0,0,1,2.1-.48c4.88-.29,7.4-3.69,9.57-7.4a67.21,67.21,0,0,0,3.35-6.88,34.6,34.6,0,0,1,8.45-12.09,27.13,27.13,0,0,1,4.5-3.12c1.69-1,1.86-2.39.21-3.45a10.25,10.25,0,0,0-2-.81,3.45,3.45,0,0,1-2.44-3.44,3.4,3.4,0,0,1,2.9-3.09,7.37,7.37,0,0,1,7.68,2.82c3.48,4.65,7.24,9.16,9.13,14.82.91,2.7-.45,4.79-3.31,5-1.9.14-3.79.38-5.67.69a3.49,3.49,0,0,0-3,3.55c0,4.74-2.6,8.35-5.15,11.87-5.57,7.68-13,13.3-20.94,18.35A17.68,17.68,0,0,1,56.7,218.6Z" transform="translate(-0.48 -0.48)"/><path class="cls-1" d="M624.84,277.67a50.47,50.47,0,0,1-1.57,5.73c-1.21,3-4.06,3.18-6.27.84a21.11,21.11,0,0,1-4.15-7.19,15.75,15.75,0,0,0-3.91-5.94c-1.23-1.13-2.13-2.62-3.38-3.71a28.79,28.79,0,0,0-5.55-4.15c-4.88-2.51-7.63-6.52-9.45-11.53s-3.91-9.61-5.89-14.4c-.37-.88-.8-1.74-1.14-2.64a3.3,3.3,0,0,1,1-4.09,3.44,3.44,0,0,1,4.24,0c3.72,2.86,7.46,5.73,11.07,8.73a50.58,50.58,0,0,1,4.53,4.61c3,3.2,6.09,6.33,8.88,9.7a48.17,48.17,0,0,1,4.2,6.68c1.55,2.68,3.13,5.37,4.44,8.18a62.19,62.19,0,0,1,2.49,7,11.5,11.5,0,0,1,.28,2.13Z" transform="translate(-0.48 -0.48)"/><path class="cls-1" d="M63.23,226c3,.71,6.15-.57,9.3-1.76,1.19-.45,2.34-1,3.55-1.42,5.36-1.71,8.81-5.45,11.41-10.27a74.58,74.58,0,0,1,4.65-7,5.24,5.24,0,0,1,1.58-1.42c2.5-1.5,5.29-1.66,8.1-1.57a3.7,3.7,0,0,1,1.55.57c2.59,1.41,4,3.81,5.23,6.35.67,1.46,0,3-.51,4.4-1.52,4.27-4.38,7.58-7.69,10.51a22.66,22.66,0,0,1-9.29,5.2c-5.7,1.52-11.3,3.42-17,5.15-3.34,1-6.69,2-10,3.07a12.65,12.65,0,0,1-8.22-.2,5.24,5.24,0,0,1-3.79-4.21c-.43-2.55.24-4.4,3.41-6.16C57.79,226,60.28,226,63.23,226Z" transform="translate(-0.48 -0.48)"/><path class="cls-1" d="M622.9,295.63a16.89,16.89,0,0,1,1.64-2.64c.78-.89,1.86-1.51,2.71-2.35,2.65-2.62,6.1-.15,6.71,2.28Q636.54,303,639.33,313a51,51,0,0,0,1.92,5.17,22,22,0,0,0,6.94,9.25c4.53,3.65,8.71,7.73,13,11.63a15.56,15.56,0,0,1,4.3,7.08c.7,2.19,0,3.68-2.22,4.95-1.79,1-3.1.88-4.7-.78A44.73,44.73,0,0,0,647.89,342c-6.53-3.55-11.14-9-15-15.14a6.5,6.5,0,0,1-.7-1.26c-1.94-5.15-3.9-10.3-5.76-15.49a70,70,0,0,1-2.09-7.12C623.76,300.64,623.4,298.27,622.9,295.63Z" transform="translate(-0.48 -0.48)"/><path class="cls-1" d="M277.23,529.47c4.94.34,9.87.72,14.52,2.72,2.78,1.2,5.64,2.24,8.44,3.41a11.43,11.43,0,0,1,5.54,4.38c1.06,1.66,1.17,2.78,0,4.43-1.94,2.9-4.55,4.71-8.18,4.56a19.07,19.07,0,0,1-4.26-.56,26,26,0,0,0-7.8-.94c-3.75.08-7.51.14-11.26,0a23.3,23.3,0,0,1-5.36-1.14c-3.49-1-5.12-3.48-5.25-7.12-.1-3,.89-5.47,3.29-7a16.09,16.09,0,0,1,8.11-2.66C275.79,529.44,276.51,529.47,277.23,529.47Z" transform="translate(-0.48 -0.48)"/><path class="cls-1" d="M136.73,188.92a18.31,18.31,0,0,1,1.56-7.43,5.08,5.08,0,0,1,5.47-3.28,17.18,17.18,0,0,1,3,.64,8.91,8.91,0,0,1,6.31,8.1c.47,6.33-5.7,12.55-12.12,11a4.19,4.19,0,0,1-3-2.12A12.46,12.46,0,0,1,136.73,188.92Z" transform="translate(-0.48 -0.48)"/><path class="cls-1" d="M103.85,194.75c-1.32-.25-2.66-.44-4-.77a3.17,3.17,0,0,1-2.59-3,3.64,3.64,0,0,1,2.41-3.77,83.73,83.73,0,0,1,8.77-2.29,3.22,3.22,0,0,1,3.54,4.45C110.4,193.16,108.5,194.76,103.85,194.75Z" transform="translate(-0.48 -0.48)"/></svg>