<svg id="Layer_1" data-name="Layer 1" xmlns="http://www.w3.org/2000/svg" viewBox="0 0 720 612"><defs><style>.cls-1{fill:none;stroke:#000;stroke-miterlimit:10;stroke-width:0.01px;}</style></defs><path d="M.48,612.48V.48h720v612Zm168.9-64.65c5.24-.53,10.51-.89,15.72-1.63,13-1.83,25.54-5.05,36.44-12.89,3.44-2.48,7-4.77,9.42-8.38,1-1.56,1.54-3.24.63-5s-2.5-2.09-4.29-2c-10.94.34-20.56-3.41-29.2-9.79a51.79,51.79,0,0,0-13.88-7.43,29,29,0,0,0-5.78-1.48c-2.45-.32-4.94-.28-7.41-.36-4.8-.14-9.65.11-14.3-1.21-5.68-1.62-11.28-3.51-16.87-5.41a10.16,10.16,0,0,1-3.41-2.17c-2.82-2.6-5.52-5.33-8.27-8a37.41,37.41,0,0,1-7.78-11.14c-1.13-2.4-2.27-3.05-4.93-2.89a6.61,6.61,0,0,0-4.57,1.82,38.12,38.12,0,0,0-4.18,4.9c-2.13,3.18-4.09,6.49-6,9.8A42,42,0,0,1,88.94,498c-2.28,1.62-4.48,3.35-6.67,5.09a24.35,24.35,0,0,0-3,2.77,3.31,3.31,0,0,0,.06,4.93c2.12,2.39,4.2,4.81,6.37,7.14A67.72,67.72,0,0,0,102,530.81c2.7,1.53,5.5,2.88,8.24,4.34,4.43,2.38,8.82,4.82,13.75,6.13,8.87,2.35,17.72,4.87,26.93,5.49C157.07,547.18,163.17,548.29,169.38,547.83Zm-117.2-124c.13,4.62.21,10.29.49,16,.71,14.88,4.12,29.23,8.66,43.35A45.64,45.64,0,0,0,66.78,494,5.22,5.22,0,0,0,70,496.29a12.25,12.25,0,0,0,10.69-1.89c6-4,11-8.91,14.06-15.41,2.61-5.44,6.52-9.82,10.45-14.24,2.65-3,5.66-5.36,9.82-5.94,1.82-.26,2.57-1.36,2.74-3.4.43-5.25.7-10.51,1.28-15.74.6-5.39,1.17-10.81,2.29-16.11,2.26-10.65,6.78-20.46,12.18-29.84,2.41-4.2-.24-8.44-4.69-8.4-3.91,0-7.83-.11-11.74-.06a57.33,57.33,0,0,0-6.93.46c-5.86.8-11.7,1.72-17.54,2.63-12.19,1.9-23.56,6.36-34.76,11.29a11.49,11.49,0,0,0-2.72,1.9c-1.94,1.68-2.08,4.1-2.23,6.38C52.58,412.86,52.44,417.81,52.18,423.81ZM381.92,294.4l3-.65c10.38-2.24,20.82-4.26,31.12-6.79,8-2,15.73-4.82,22.48-9.85a11.65,11.65,0,0,0,3.39-3.95c2.1-4,4.18-7.91,6.18-11.91,1.59-3.17.72-5.4-2.69-6.52a47,47,0,0,0-6.77-1.52,142.44,142.44,0,0,0-26.21-2.52,197.16,197.16,0,0,0-25.77,2.37,89.21,89.21,0,0,0-28.72,9.58A33.41,33.41,0,0,0,340.87,283a26.86,26.86,0,0,0-.89,13.24,92.21,92.21,0,0,0,14,34.62c2.43,3.66,5.3,7,7.63,10.74a38.13,38.13,0,0,0,7.37,8.78,133.47,133.47,0,0,0,19,14.2c3.84,2.26,7.18,2.17,10.57-.79,3.12-2.73,6.05-5.69,8.91-8.7,2.08-2.18,1.83-4.17-.51-6.15-1.15-1-2.38-1.88-3.61-2.76a62.43,62.43,0,0,1-15.46-15.89,12,12,0,0,1-2.26-8.14,28.24,28.24,0,0,0-.07-4.31,119.92,119.92,0,0,0-3.23-21.06C382.18,296,382.08,295.28,381.92,294.4Zm-244-1.2.79.14v4.23c0,4.55.25,9.11-.56,13.64a27.91,27.91,0,0,0,.77,12.58,37.62,37.62,0,0,1,.88,4.22,21.82,21.82,0,0,0,7.3,13.37,22.56,22.56,0,0,0,2.62,2.08c3.52,2.27,6.1,1.8,7.8-2,1.33-2.93,3.43-5.15,5.38-7.56a24.83,24.83,0,0,1,9.35-6.93c2.47-1.11,4.93-2.26,7.29-3.58A6.3,6.3,0,0,0,182.9,317a43.41,43.41,0,0,0-.87-6.64c-1-3.95-2.2-7.84-3.36-11.74q-1.9-6.44-3.91-12.83c-.59-1.9-1.31-3.77-1.87-5.69q-6.64-22.91-13.25-45.81a7.13,7.13,0,0,0-7.33-5.33c-.64,0-1.28,0-1.92-.05-7.71-.43-14.78,1.38-20.87,6.24a53.48,53.48,0,0,0-6.79,6.41c-9.81,11.21-16.15,24.25-20.13,38.56a49.75,49.75,0,0,0,.68,29.27,8.55,8.55,0,0,0,2.54,3.93,37.78,37.78,0,0,0,7.25,4.63c8.15,3.87,18.82-1,20.92-9.29.85-3.32,1.51-6.69,2.33-10C136.78,296.8,137.4,295,138,293.2ZM55.86,372.79h-.29V379a5.07,5.07,0,0,0,6.08,5.28,67.6,67.6,0,0,0,7-1.45c16.92-4.62,34.21-6.52,51.68-6.92,5.91-.13,11.82.22,17.73.41,2.52.07,3.74-.82,4.17-3.26,0-.32.11-.63.14-1a31.18,31.18,0,0,1,3.4-11.67,5.61,5.61,0,0,0-.1-5.47,36,36,0,0,0-12.64-14.14c-4.78-3.18-9.35-6.68-14.73-8.91-4.42-1.83-8.33-4.78-13-6a5.62,5.62,0,0,1-1.91-1c-3.8-2.94-7.39-6.1-10-10.21-2.46-3.82-3.06-8.16-3.7-12.52-.27-1.81-.76-3.58-1.18-5.36A3.85,3.85,0,0,0,85.82,294c-1.66-.58-3.32-1.15-5-1.59-4.93-1.29-10-2.09-14.46-4.89-1.93-1.22-4.1,0-4.74,2.44-.46,1.69-1,3.37-1.36,5.08C59.31,299,58,303,57.6,307c-1,10.41-1.9,20.86-2.41,31.31-.37,7.42-.14,14.87,0,22.3C55.23,364.66,55.62,368.72,55.86,372.79Zm237.53-18.67c8.47-.29,14.56-.24,20.54-1.58A92.88,92.88,0,0,0,340.54,342c3.3-1.91,4.36-4.28,2.6-8-1.55-3.24-3.08-6.5-4.37-9.85-2.07-5.36-4.2-10.72-5.78-16.23-1.06-3.64-1.17-7.56-1.77-11.34a22.63,22.63,0,0,0-2.8-8.59c-2-3.24-4.82-5-8.71-4.93-1.6,0-3.2.12-4.79.23a16.51,16.51,0,0,1-13.85-5.81,35.86,35.86,0,0,1-7.35-11.69,3.09,3.09,0,0,0-3.34-2.2,7.35,7.35,0,0,0-3.32,1.1q-5.79,4.07-11.39,8.38a23.66,23.66,0,0,0-8.35,11.45c-1.21,3.65-2.35,7.33-1.84,11.24.35,2.7.82,5.41,2.58,7.61,1.35,1.68,2.93,3.17,4.27,4.86q3.36,4.22,6.52,8.6a6.62,6.62,0,0,1,.48,7.84c-.75,1.23-1.42,2.51-2,3.8q-4.08,8.55-8.1,17.11a3.17,3.17,0,0,0,1.18,4.21,15.46,15.46,0,0,0,7.74,3C284,353.38,289.88,353.82,293.39,354.12ZM259.86,110.85a34.4,34.4,0,0,0-15.1,3.38,9.31,9.31,0,0,0-4.45,4.18,19.38,19.38,0,0,0-1.94,11.86,27.71,27.71,0,0,0,4.17,10.13,14.08,14.08,0,0,1,1.54,11.74,27.36,27.36,0,0,1-5.53,10.26,49,49,0,0,0-9.25,15.85c-2.41,6.93-2.58,13.75,2.07,19.84a18.58,18.58,0,0,1,4.19,11,6.58,6.58,0,0,0,.17,1.18c.72,3,1.35,6.13,3.27,8.69,3.54,4.71,10,6.26,16,3.86a52.77,52.77,0,0,0,11.73-6.94c4.59-3.4,8.47-7.55,12.45-11.58a25.93,25.93,0,0,0,5.35-8.18c2.28-5.36,4-10.83,3.31-16.73-.61-5.31-1.34-10.62-2.26-15.89a45.13,45.13,0,0,0-6.08-16,67,67,0,0,1-4.89-10.13,42,42,0,0,1-2-7.86,26.79,26.79,0,0,1,.59-11.4c.69-2.79.28-3.43-2-5a9.36,9.36,0,0,0-4.45-1.59C264.48,111.19,262.16,111,259.86,110.85Zm66,164.2c.4,0,.8,0,1.2,0,5-.35,9.34-2,12.16-6.48a22.07,22.07,0,0,1,2-2.69c5.62-6.56,12-12.22,19.72-16.16a7.89,7.89,0,0,0,4-4.81c1.83-5.46-2-10.43-7.67-9.66a39.07,39.07,0,0,0-6.92,1.85,8.27,8.27,0,0,1-9.82-3.28c-.8-1.2-1.54-2.43-2.28-3.67a23.42,23.42,0,0,0-10.66-9.31,79.41,79.41,0,0,0-19.51-5.65,48.31,48.31,0,0,0-17-.13c-4.26.78-8.33,2-11.87,4.75-7.42,5.85-16.18,8.88-25.12,11.46a3.71,3.71,0,0,0-2.56,2,6.4,6.4,0,0,0-.05,6,11.73,11.73,0,0,0,2.52,3.47c3.12,2.6,5,6,6.59,9.58.62,1.39,1.19,2.8,1.89,4.15a57.93,57.93,0,0,0,3,5.19,6.12,6.12,0,0,0,9.36,1.29,45.13,45.13,0,0,0,5.31-5.49c1.78-2.25,3.25-4.74,4.82-7.16,1.35-2.08,2-2.31,4.37-1.65a12.68,12.68,0,0,1,6.52,4.29,105.69,105.69,0,0,1,6.92,9.16,31.13,31.13,0,0,0,8,8.2A25.46,25.46,0,0,0,325.88,275.05Zm66.81-49.43h.08c0,2.32-.08,4.64,0,7a56.88,56.88,0,0,0,.63,7.62c.46,2.52,1.64,3.3,4.25,3.27,2.79,0,5.59-.29,8.38-.32,7.6-.06,15.19-.1,22.79-.05,3.75,0,7.51.42,11.25.29a18.32,18.32,0,0,0,6.74-1.38c4.08-1.86,5.87-5.58,6.22-9.84.36-4.46.26-8.95.46-13.43a43.85,43.85,0,0,1,.67-7.61c2.73-12.13,5.92-24.09,14-34.07,1.37-1.69,1-3.42-.65-4.85a18.49,18.49,0,0,0-6.64-3.19c-6.09-2-12.26-3.69-18.22-6-3.1-1.17-5.44-.7-7.66,1.38a16.44,16.44,0,0,0-2.61,3.1c-2.63,4.11-5.27,8.21-7.7,12.43a15.8,15.8,0,0,1-10.13,7.79c-11.22,3-16.81,11.46-20.53,21.63a8,8,0,0,0-.42,2.11C393.26,216.21,393,220.91,392.69,225.62Zm109.72-33.83c2.09-.19,4.4-.36,6.7-.62a59.16,59.16,0,0,0,13.83-3.77c1.87-.7,3.75-1.4,5.62-2.08,2.26-.81,2.71-.64,3.65,1.61a14.63,14.63,0,0,1,1,3.2c.4,2.59.7,5.21,1,7.83.31,3,2.68,4.41,5.27,3a8,8,0,0,0,2.73-2.23c1.89-2.57,3.51-5.35,5.41-7.91a32.4,32.4,0,0,1,4.43-5,50.55,50.55,0,0,1,11.36-7.54c1.29-.64,2.54-1.37,3.84-2a4.28,4.28,0,0,0,2.44-3.83c.29-2.55-1.16-4.22-2.81-5.79q-4.46-4.2-9-8.34c-6-5.51-11.89-11.18-18.11-16.45-5.66-4.8-11.69-9.18-17.59-13.71a15.23,15.23,0,0,0-3.07-1.86c-2.69-1.19-5.43-2.31-8.18-3.37a3.11,3.11,0,0,0-3.35.71c-2.22,2.06-4.55,4-6.59,6.27-5.33,5.85-9,12.81-12.4,19.86-3.27,6.76-4.51,14.14-5.58,21.5a29.34,29.34,0,0,0,0,6.69c.23,2.83,2,5,3.55,7.24a12.88,12.88,0,0,0,9.42,5.93C498,191.45,500.11,191.59,502.41,191.79ZM225.13,242.33c.06-1.11.09-2,.17-3,.32-4,.83-8,1-12,.18-5.27.13-10.56-1.52-15.67-1-3.2-3.25-4-6.08-2.2a18.77,18.77,0,0,0-6.68,8.3c-1.83,4-3.64,8-5.07,12.16-2,5.82-3.45,11.82-5.45,17.62a15.08,15.08,0,0,1-12,10.5,12.77,12.77,0,0,1-6.16-.25c-2.81-.86-4.91,1.29-4.29,4.19a11.65,11.65,0,0,0,.37,1.14c1.17,3.82,2.26,7.66,3.53,11.44a66.66,66.66,0,0,0,3.38,8.68,18.18,18.18,0,0,0,11.59,9.36,50.37,50.37,0,0,0,27,.88,37.43,37.43,0,0,1,11.4-1.2,20,20,0,0,1,7.4,1.79A15.9,15.9,0,0,1,251,302a10.18,10.18,0,0,0,1.83,2.77c1.8,1.8,5.83,1.82,6.4-2a10.4,10.4,0,0,0,.08-3.29,46.92,46.92,0,0,1-.27-15.05c.52-3.39,1.18-6.76,1.72-10.15a5.73,5.73,0,0,0-2.19-6c-1.6-1.17-3.33-2.18-5-3.25-3.55-2.27-6.17-5.07-5.82-9.69a15.44,15.44,0,0,0-.11-2.63c-.41-3.88-2.24-6.76-5.94-8.31A29.34,29.34,0,0,0,228.19,242C227.26,242.07,226.33,242.21,225.13,242.33Zm-18.31-74.56c11.3.19,18.91-4.45,23.7-13.7,2.06-4,2.3-7.94-.91-11.58a9.48,9.48,0,0,1-1.13-1.83,12.53,12.53,0,0,1-1.25-9.48,53.87,53.87,0,0,1,4.16-11.2c1.35-2.51.89-4.38-1.65-5.56a20.72,20.72,0,0,0-5.71-1.6c-4.47-.67-8.93,0-13.37.48a91.93,91.93,0,0,0-25.4,6.71,168.87,168.87,0,0,0-17.08,8.66,104.83,104.83,0,0,0-29.28,24.09c-2.35,2.79-2.32,4.71.56,6.9a49.82,49.82,0,0,0,7.37,4.43A192.38,192.38,0,0,0,169,173.24a9,9,0,0,0,5.19.36c5.28-1.29,10.55-2.68,15.39-5.23a13.5,13.5,0,0,1,8.09-1.49C201,167.24,204.3,167.53,206.82,167.77ZM182,244.8a20,20,0,0,0,4.43-1.54,21.51,21.51,0,0,0,4.74-4,34.28,34.28,0,0,0,6.67-10.74q3.41-9.2,6.56-18.5a36.32,36.32,0,0,1,3.84-8.47,35.22,35.22,0,0,0,4.71-10.7,12.81,12.81,0,0,0-8.9-15.8,18.71,18.71,0,0,0-13.55.65c-4.89,2.17-9.8,4.32-14.78,6.27a49.3,49.3,0,0,1-8.69,2.6,15.69,15.69,0,0,1-13.12-3.07c-3-2.36-6.15-4.57-9.2-6.9-3.93-3-7.87-6-11.7-9.14a5.07,5.07,0,0,0-5.33-1,23,23,0,0,0-8.82,6,3.45,3.45,0,0,0-.45,4.22c1.65,3.37,3.22,6.78,4.89,10.13a25,25,0,0,1,2.9,10.3,4.5,4.5,0,0,0,3.29,4.47c2.55.93,5.06,2,7.58,3a12,12,0,0,1,6.5,5.38,38.61,38.61,0,0,0,2.87,4.4,11.8,11.8,0,0,0,2.12,2.23,12.27,12.27,0,0,0,6.14,2.43c9.64,1.48,16.48,6.56,19.74,15.93a41.25,41.25,0,0,1,1.26,6.08C176.35,242.58,178.4,244.41,182,244.8Zm76.89,216a72.63,72.63,0,0,0-3-24.38c-1.32-4.4-3.55-8.37-5.38-12.54a47.41,47.41,0,0,0-6.27-9.89,4,4,0,0,0-6.4.06,13.17,13.17,0,0,0-1.72,2.86,70.79,70.79,0,0,1-12.34,18.17,35,35,0,0,1-4.62,4.15c-2.17,1.67-2.55,2.4-1.89,5.09a42.16,42.16,0,0,1,1.53,14.22c-.23,2.39-.46,4.78-.89,7.13-1.28,7.13-3.34,14-7.56,20a35.61,35.61,0,0,1-9.46,9.42,3.94,3.94,0,0,0,1,7c.9.32,1.81.64,2.72.9,2.69.77,5.4,1.44,8.06,2.28a50,50,0,0,0,17.46,2.5c6.08-.27,11.42-2.22,15.45-7C250,495.45,254.36,490,256,483c.17-.77.56-1.5.74-2.27a57.14,57.14,0,0,0,1.6-7.47C258.68,469.12,258.7,465,258.87,460.8Zm-193.81-187a6.58,6.58,0,0,0,2.61,5.74,25,25,0,0,0,8,4.22c3,.78,6,1.59,9.07,2.24a13.73,13.73,0,0,0,3.57,0,3.32,3.32,0,0,0,3.16-2.51,31.59,31.59,0,0,0,1-3.69c1.63-8.61,5.26-16.39,9.76-23.82.94-1.56,2.14-3,2.08-5a3.22,3.22,0,0,1,.72-1.49,99.18,99.18,0,0,1,19-22.74c2.17-1.87,4.6-3.44,6.93-5.13a6.61,6.61,0,0,0,2.81-6.48,5.64,5.64,0,0,0-3.73-4.58c-4.53-2-9-4.18-13.86-5.27-2-.45-2.38-.95-2.35-3a55.65,55.65,0,0,1,.6-7.63,14,14,0,0,0-1-7.95c-1.9-4.31-4.33-4.91-8-2a71.28,71.28,0,0,0-16.09,18.89c-4.88,8-9.64,16-13.23,24.69-4.15,10-6.73,20.48-8.85,31.07C66.36,264.12,65.8,269,65.06,273.78Zm552.25-59.66a32,32,0,1,0-31.86,32A31.93,31.93,0,0,0,617.31,214.12ZM305.3,110c-3.27,0-6.56-.12-9.83,0-2.7.13-5.39.61-8.1.89a6.47,6.47,0,0,0-3.8,1.82c-2.62,2.4-3.2,5.66-3,8.79.55,10.08,7,17.28,17.19,17.72,3.9.16,7.8.6,11.69,1,3.74.37,7.46.9,11.2,1.21a3.24,3.24,0,0,1,3.16,2.66c1.11,3.67,2.38,7.29,3.54,10.95a15.5,15.5,0,0,0,5.63,7.85,25.11,25.11,0,0,0,7.66,3.9c6.82,2.17,13.1,1.46,18.39-3.84,1.47-1.48,3-2.88,4.34-4.48a22.07,22.07,0,0,0,2.52-4c1.36-2.65.31-5.15-.77-7.57a15.61,15.61,0,0,1,.23-13.43,36.45,36.45,0,0,0,1.87-4.91c.66-2.28.21-3.37-1.84-4.64a43,43,0,0,0-4.64-2.48C343.13,113.31,324.57,109.84,305.3,110ZM240.62,352.72l0-.33h5.28c4.05,0,7.63-1.56,11.05-3.56a3.65,3.65,0,0,0,1.38-1.29,69.32,69.32,0,0,0,4.11-7.81c2.21-5.49,4.23-11.05,7.3-16.14a23.8,23.8,0,0,0,1.08-2.14,3.57,3.57,0,0,0-.07-3.23c-1-2.22-2.47-3-5-2.7-2.78.34-5.55.75-8.33,1a11.48,11.48,0,0,1-6.49-1.22,7.85,7.85,0,0,1-3.74-4.69,19,19,0,0,0-1.39-2.78,19.42,19.42,0,0,0-6.32-7.09c-2.54-1.66-5.2-2.36-8.16-1.09-2,.85-4.06,1.48-6,2.38a24.22,24.22,0,0,1-11,2c-6.24-.16-12.13-1.92-18-3.82a18.12,18.12,0,0,0-2.76-.73c-3-.42-4.69,1.21-4.15,4.17,1.16,6.45,2.3,12.91,3.79,19.28A43.66,43.66,0,0,0,200.34,339c5.43,7.34,12.37,12.19,21.88,12.47,2.95.09,5.91.26,8.86.45C234.26,352.18,237.44,352.47,240.62,352.72Zm230.46-53.56c-.08-1.83,0-3.69-.27-5.5-.33-2.61-.75-5.22-1.33-7.79-.89-3.94-3.66-6.86-6-10a6.54,6.54,0,0,0-3-1.87c-3.23-1.22-5.72.32-8,2.43-2,1.91-4,3.94-6.08,5.75-3.27,2.81-6.4,5.92-10.05,8.14A68.07,68.07,0,0,1,400.8,300c-2.66,0-3.94,1-4.41,3.69-.23,1.25-.35,2.54-.7,3.76a38.89,38.89,0,0,0-1.27,10.91c0,7.83,6.92,14.38,14,15.75,3.79.72,7.5,0,11.16-.83,7.49-1.66,14.92-3.58,22.41-5.2,5.78-1.25,11.56-2.4,17.21-4.21,4.93-1.58,7.9-5,9.52-9.67A37,37,0,0,0,471.08,299.16Zm189.66-31.34c3.06-4.27,3.24-8.64,1.71-13.08a32,32,0,0,0-7.11-11.29,74.29,74.29,0,0,0-9.69-8.55c-5.11-3.84-10.46-7.36-15.72-11-2.41-1.66-4.69-.88-5.68,1.9-.16.45-.27.92-.42,1.38q-2.73,8.17-5.49,16.35a19.57,19.57,0,0,1-6.68,9.17,13.39,13.39,0,0,1-7,2.75c-3.71.41-7.49.88-10.42,3.64a37.63,37.63,0,0,0-7.57,11c-.95,1.91.28,3.81,2.38,4.45,2.44.74,4.87,1.53,7.31,2.29,2.13.67,4.24,1.44,6.4,2,9.81,2.54,19.86,3.31,29.93,3.81a112.26,112.26,0,0,0,18-.77c4.68-.52,9.4-.58,14.1-.88a18.24,18.24,0,0,0,3.54-.54c2.4-.66,3.22-2.54,2.28-4.85-1.25-3.1-3.75-4.89-6.59-6.31C663,268.8,661.94,268.37,660.74,267.82ZM413.45,380.13a17.1,17.1,0,0,1,2.15,0,10.78,10.78,0,0,1,2.32.57,4.5,4.5,0,0,1,3,4.62,11,11,0,0,0,5.49,11.08c4.26,2.25,8.79,3,13.43,1.28a55,55,0,0,0,6.28-2.93,4.47,4.47,0,0,1,3.19-.46,27.31,27.31,0,0,0,9.29.34c10.57-1.36,17.36-7.42,21.42-16.94a4.17,4.17,0,0,0,.38-2.08,19.18,19.18,0,0,0-4.25-10.51,30,30,0,0,0-8.71-7.42c-2.75-1.47-5.55-2.83-8.35-4.18a9.9,9.9,0,0,1-3.35-3c-2.28-2.87-4.75-5.59-7.25-8.27a8.33,8.33,0,0,0-2.78-1.84c-4-1.69-9.6-2.24-12.37,3.77a41.23,41.23,0,0,1-2.77,4.76,20.72,20.72,0,0,1-8.39,7.62c-6.79,3.35-12.09,8.26-15.27,15.28a5.41,5.41,0,0,0,2,7.28C410.3,380.17,411.85,380.14,413.45,380.13Zm48.4-147.2c.14,3,.24,6.15.44,9.34a5.12,5.12,0,0,0,5.18,4.88,23.82,23.82,0,0,0,4-.24c3.86-.66,7.72-1.33,11.53-2.17a13.49,13.49,0,0,1,5.93-.09c3.2.7,6.41,1.34,9.61,2a4.06,4.06,0,0,0,4.58-1.72,156.9,156.9,0,0,1,17.74-20.11,34.62,34.62,0,0,0,3.15-3.58c4.92-6.3,2.59-15.9-4.24-19.67a13.62,13.62,0,0,0-6-1.51c-4-.22-8-.33-12-.4a49.57,49.57,0,0,1-10.22-1c-5.8-1.33-9.69-5-12.72-9.82-.83-1.32-1.68-2.3-3.34-2.29a4,4,0,0,0-3.6,2.36,85.89,85.89,0,0,0-7.31,17.42C462.19,215,461.61,223.78,461.85,232.93ZM572.5,324.1c2-.17,4.74-.37,7.44-.65a10,10,0,0,0,7.11-4c.73-.94,1.51-1.86,2.19-2.85a132.58,132.58,0,0,0,12.4-23.21c1.5-3.58.09-5.54-2.76-6.68a45.33,45.33,0,0,0-26.56-2.6c-1.25.26-2.45.74-3.7,1a136,136,0,0,1-27.7,2,70.48,70.48,0,0,1-18.7-2.63c-2.29-.69-4.29.33-4.73,2.65-.65,3.39-.08,6.54,2.74,8.88a36.64,36.64,0,0,0,4.07,2.95c1.83,1.14,3.76,2.11,5.65,3.16,4.87,2.72,5.94,5.51,4.13,10.73-.32.9-.67,1.79-1,2.7a21.39,21.39,0,0,0-.65,2.06,6.19,6.19,0,0,0,3,7.37,10.3,10.3,0,0,0,3.53,1.39,30.34,30.34,0,0,0,6.9.52c4.78-.37,9.53-1,14.28-1.66C564.06,324.68,567.84,323.41,572.5,324.1Zm-87.67-71.77c-6.22.24-13.12,2.63-19.58,6.32a11.34,11.34,0,0,0-3.39,3.3c-1.52,2.15-.58,4.6,1.77,5.75a30.66,30.66,0,0,1,4.67,2.82c3.89,2.88,6.35,6.88,8.62,11.07a20.18,20.18,0,0,1,2.39,11.58,85,85,0,0,0,.29,16.5c.72,6.68,5.14,13.32,12.7,14.69,2.67.48,5.28,1.29,7.92,1.91a55.45,55.45,0,0,0,6.56,1.38c3.77.38,7.54,0,9.94-3.36a22.62,22.62,0,0,0,2.79-6.3c1.54-4.8.51-10.18-4.85-13.19-3.5-2-5.1-5.25-5.38-9.12a35.84,35.84,0,0,1,1.18-12.36,22,22,0,0,0,.76-5.64,26.71,26.71,0,0,0-6.39-17.89,17.73,17.73,0,0,0-8.31-5.85A37.39,37.39,0,0,0,484.83,252.33Zm61.46,28.2c3.08-.37,7.37-.85,11.64-1.41s8.38-1.12,12.57-1.75c1.56-.24,3.21-.43,4.4-1.66A33.82,33.82,0,0,0,583,263.07c1.47-4.44-.45-6.95-4.61-7.2-6.9-.42-12.94-3.29-19-6.09a7.68,7.68,0,0,1-1.81-1.17,53.89,53.89,0,0,1-11.17-14,71.36,71.36,0,0,1-3-6.79,16.94,16.94,0,0,1-1.51-10A3.26,3.26,0,0,0,538.7,214c-2.42-.3-3.69.53-4.6,2.83a46.06,46.06,0,0,1-3.2,7.45A53.87,53.87,0,0,1,515.61,241a15.76,15.76,0,0,0-4.46,4.6c-3.53,5.79-3.26,7.93,1.52,12.84a32.24,32.24,0,0,1,3.62,4.14c1.85,2.69,3.52,5.51,5.21,8.31a16.3,16.3,0,0,0,8.73,7.12C535,279.73,540,280.25,546.29,280.53ZM326.62,207.08c0,2.27.57,4.16,2.62,5.38.76.44,1.49.94,2.28,1.32,4.82,2.31,8.84,5.76,12.73,9.3a10.67,10.67,0,0,0,8.2,3.1,29.48,29.48,0,0,0,9-2.36c1.26-.5,2.52-1,3.81-1.42,1.07-.34,1.91-.09,2.15,1.17.27,1.41.52,2.82.83,4.22a60.4,60.4,0,0,0,1.58,6.73,60.65,60.65,0,0,0,3.07,7,5.78,5.78,0,0,0,1.68,1.94c2.82,2.21,6,1.8,9.16,1a3.11,3.11,0,0,0,2.08-4,31.29,31.29,0,0,1-.79-9c.15-7.35.37-14.69.49-22a32,32,0,0,1,1.62-8.67,87.49,87.49,0,0,0,2.52-10.46c.48-2.91-1.07-4.79-4-5.14a15.09,15.09,0,0,0-4.46.43c-4.94.92-9.86,2-14.8,2.86a12.27,12.27,0,0,1-10.92-3,68,68,0,0,1-5.44-5.69,5.11,5.11,0,0,0-7.58-.1,65.37,65.37,0,0,0-14.81,23A32.1,32.1,0,0,0,326.62,207.08ZM230.57,406.76c0-2.11-.29-4-2.45-5.11a63.46,63.46,0,0,0-11.4-5c-7-2.09-13.92-4.25-21.34-4a6,6,0,0,0-4.15,1.5,7.92,7.92,0,0,1-2.28,1.27,65.4,65.4,0,0,1-17.64,4.29c-4.75.58-9.5,1.22-14.27,1.66a25.06,25.06,0,0,0-15.79,7.78,5.94,5.94,0,0,0-1.64,6.76,36.33,36.33,0,0,0,7.31,12.55,23.85,23.85,0,0,0,8.23,5.69c2.17.92,3.7.32,4.84-1.65a30.52,30.52,0,0,1,17.17-13.8C181,417.37,185,417.49,189,418c7.07.93,13,3.79,17.05,9.87.76,1.13,1.42,2.33,2.24,3.41,2.35,3.09,5.9,3.49,8.78.94a37.89,37.89,0,0,0,13.49-25.48ZM403.4,181.37a24,24,0,0,0,10.2-3.75c6.68-4.35,10.84-10.76,14.15-17.76,1.12-2.37,1.16-5-1-7.08-3-2.94-5.83-6.17-9.1-8.82-8.4-6.83-18.09-11.38-28.29-14.82a73.23,73.23,0,0,0-9.28-2.33c-3.86-.74-4.72-.13-6.05,3.55-.11.3-.24.6-.33.9-1.73,5.48-1.37,10.7,1.85,15.59.31.47.64.92.93,1.4,1.82,2.95,1.64,5.05-.68,7.59-.53.59-1.13,1.13-1.68,1.71-2.43,2.54-4.91,5-7.26,7.64a10.19,10.19,0,0,0-2.81,6.47c-.13,4.49,1.57,7.42,6.45,7.78a20.21,20.21,0,0,0,5.71-.3,106.08,106.08,0,0,0,10.38-2.83,7.38,7.38,0,0,1,6.22.57c1.66.94,3.25,2,4.87,3.05A9.35,9.35,0,0,0,403.4,181.37ZM170.38,485c6.64.37,13-1.2,19.46-2.4a7.33,7.33,0,0,0,2-.72,3.56,3.56,0,0,0,2.21-3.64,3.37,3.37,0,0,0-2.68-3,8.91,8.91,0,0,1-4.79-3.43,43.1,43.1,0,0,1-3.85-6.31,4.18,4.18,0,0,0-4.4-2.86,19.93,19.93,0,0,1-9.3-1.94c-4.34-2.15-7.59-5.37-8.63-10.25a4.91,4.91,0,0,0-3-3.65c-8.5-4.3-16.34-9.38-20.68-18.38a3.22,3.22,0,0,0-3.11-1.88,3.51,3.51,0,0,0-3.31,2,15.3,15.3,0,0,0-.7,1.78,52,52,0,0,0-2.27,25.28,27,27,0,0,0,5.55,13.08c1.15,1.44,2.25,2.92,3.49,4.27,3.2,3.49,6.63,6.6,11.19,8.39C155,484.21,162.64,484.72,170.38,485ZM607.75,326.65c3-.31,5.22-.4,7.4-.8,3.92-.72,8-1.09,11.66-2.55A37.49,37.49,0,0,0,644.65,309a4.76,4.76,0,0,1,3.64-2.28,39.29,39.29,0,0,0,12-3.89,19.7,19.7,0,0,0,6.49-5.22,4,4,0,0,0-1.08-6.33,9.76,9.76,0,0,0-3.53-1.35A63.59,63.59,0,0,0,645,289.7a105.91,105.91,0,0,1-18.14,1.06c-4.31-.15-8.63-.18-12.92-.58s-5.34.12-6.18,4.47c0,.24,0,.48-.09.71a35.32,35.32,0,0,1-3.11,9.54,80.23,80.23,0,0,1-7,12.22c-2.42,3.25-1.29,6.75,2.55,7.84C602.79,325.73,605.62,326.19,607.75,326.65ZM303.84,205.87v.07c3.11-.14,6.22-.35,9.33-.41a8.57,8.57,0,0,0,8.09-5.41,114.81,114.81,0,0,1,8.38-14.51,55.52,55.52,0,0,0,3.53-6.53,4.44,4.44,0,0,0-.83-5.11,12.64,12.64,0,0,0-5.55-3.61c-2.11-.76-4.24-1.45-6.3-2.31-3.08-1.29-4.24-3.37-3.9-6.64.13-1.27.24-2.55.34-3.82.44-5.64-3.26-8.7-7.62-9.29-2.14-.29-4.28-.71-6.42-.82a35.64,35.64,0,0,0-7.16.15c-2.66.4-3.78,2.57-3.12,5.18a11,11,0,0,0,.3,1.16,114.3,114.3,0,0,1,4.54,18.61c1,6.13,1.39,12.24-.12,18.33-.85,3.4-1.91,6.76-2.81,10.16-.79,3,.73,4.83,3.8,4.8ZM162.2,365.23c-.41.21-.61.4-.83.42-3,.17-4.38,2.1-5.08,4.65A19.06,19.06,0,0,0,156,380a8.55,8.55,0,0,0,2.66,4.72,42.29,42.29,0,0,0,11.27,7.19,6.44,6.44,0,0,0,4.68.31,37,37,0,0,0,6.53-2.89,22.44,22.44,0,0,0,10.6-13.7,39.9,39.9,0,0,0,0-19c-1.63-7-5.67-13-7.74-19.84-.66-2.17-2.47-2.76-4.71-2.09a12,12,0,0,0-3.44,1.61A39.41,39.41,0,0,0,163.06,351a11.34,11.34,0,0,0-.9,2.95A28.34,28.34,0,0,0,162.2,365.23Zm25.9,77.06a4.82,4.82,0,0,1,4.26,3.85c.3,1.33.46,2.68.7,4,.73,3.9-.57,7.24-2.9,10.25-1.58,2-1.57,3.51.09,5.54,2.8,3.43,6.72,4.74,10.78,5.74a3,3,0,0,0,3.44-1.64,11.47,11.47,0,0,0,1.06-2.65A38.61,38.61,0,0,0,204.31,443a23.42,23.42,0,0,0-13.75-14.16c-6.39-2.56-12.32-2.06-17.93,2-3.92,2.81-7.2,9.42-5.08,15.62a8.1,8.1,0,0,0,4.95,5.21,8.68,8.68,0,0,0,9-1.48,47.5,47.5,0,0,0,5.1-5.67A22.69,22.69,0,0,0,188.1,442.29Z" transform="translate(-0.48 -0.48)"/><path class="cls-1" d="M169.38,547.83c-6.21.46-12.31-.65-18.44-1.06-9.21-.62-18.06-3.14-26.93-5.49-4.93-1.31-9.32-3.75-13.75-6.13-2.74-1.46-5.54-2.81-8.24-4.34a67.72,67.72,0,0,1-16.29-12.89c-2.17-2.33-4.25-4.75-6.37-7.14a3.31,3.31,0,0,1-.06-4.93,24.35,24.35,0,0,1,3-2.77c2.19-1.74,4.39-3.47,6.67-5.09a42,42,0,0,0,11.76-13.42c1.93-3.31,3.89-6.62,6-9.8a38.12,38.12,0,0,1,4.18-4.9,6.61,6.61,0,0,1,4.57-1.82c2.66-.16,3.8.49,4.93,2.89a37.41,37.41,0,0,0,7.78,11.14c2.75,2.67,5.45,5.4,8.27,8a10.16,10.16,0,0,0,3.41,2.17c5.59,1.9,11.19,3.79,16.87,5.41,4.65,1.32,9.5,1.07,14.3,1.21,2.47.08,5,0,7.41.36a29,29,0,0,1,5.78,1.48,51.79,51.79,0,0,1,13.88,7.43c8.64,6.38,18.26,10.13,29.2,9.79,1.79,0,3.42.37,4.29,2s.41,3.4-.63,5c-2.42,3.61-6,5.9-9.42,8.38-10.9,7.84-23.44,11.06-36.44,12.89C179.89,546.94,174.62,547.3,169.38,547.83Z" transform="translate(-0.48 -0.48)"/><path class="cls-1" d="M52.18,423.81c.26-6,.4-10.95.72-15.89.15-2.28.29-4.7,2.23-6.38a11.49,11.49,0,0,1,2.72-1.9c11.2-4.93,22.57-9.39,34.76-11.29,5.84-.91,11.68-1.83,17.54-2.63a57.33,57.33,0,0,1,6.93-.46c3.91-.05,7.83.08,11.74.06,4.45,0,7.1,4.2,4.69,8.4-5.4,9.38-9.92,19.19-12.18,29.84-1.12,5.3-1.69,10.72-2.29,16.11-.58,5.23-.85,10.49-1.28,15.74-.17,2-.92,3.14-2.74,3.4-4.16.58-7.17,3-9.82,5.94-3.93,4.42-7.84,8.8-10.45,14.24-3.11,6.5-8.09,11.43-14.06,15.41A12.25,12.25,0,0,1,70,496.29,5.22,5.22,0,0,1,66.78,494a45.64,45.64,0,0,1-5.45-10.91c-4.54-14.12-7.95-28.47-8.66-43.35C52.39,434.1,52.31,428.43,52.18,423.81Z" transform="translate(-0.48 -0.48)"/><path class="cls-1" d="M381.92,294.4c.16.88.26,1.64.43,2.39a119.92,119.92,0,0,1,3.23,21.06,28.24,28.24,0,0,1,.07,4.31,12,12,0,0,0,2.26,8.14,62.43,62.43,0,0,0,15.46,15.89c1.23.88,2.46,1.78,3.61,2.76,2.34,2,2.59,4,.51,6.15-2.86,3-5.79,6-8.91,8.7-3.39,3-6.73,3.05-10.57.79a133.47,133.47,0,0,1-19-14.2,38.13,38.13,0,0,1-7.37-8.78c-2.33-3.71-5.2-7.08-7.63-10.74a92.21,92.21,0,0,1-14-34.62,26.86,26.86,0,0,1,.89-13.24,33.41,33.41,0,0,1,17.05-20.37,89.21,89.21,0,0,1,28.72-9.58,197.16,197.16,0,0,1,25.77-2.37,142.44,142.44,0,0,1,26.21,2.52,47,47,0,0,1,6.77,1.52c3.41,1.12,4.28,3.35,2.69,6.52-2,4-4.08,8-6.18,11.91a11.65,11.65,0,0,1-3.39,3.95C431.76,282.14,424,285,416,287c-10.3,2.53-20.74,4.55-31.12,6.79Z" transform="translate(-0.48 -0.48)"/><path class="cls-1" d="M138,293.2c-.55,1.81-1.17,3.6-1.63,5.44-.82,3.33-1.48,6.7-2.33,10-2.1,8.29-12.77,13.16-20.92,9.29a37.78,37.78,0,0,1-7.25-4.63,8.55,8.55,0,0,1-2.54-3.93,49.75,49.75,0,0,1-.68-29.27c4-14.31,10.32-27.35,20.13-38.56a53.48,53.48,0,0,1,6.79-6.41c6.09-4.86,13.16-6.67,20.87-6.24.64,0,1.28.05,1.92.05a7.13,7.13,0,0,1,7.33,5.33q6.63,22.91,13.25,45.81c.56,1.92,1.28,3.79,1.87,5.69q2,6.4,3.91,12.83c1.16,3.9,2.38,7.79,3.36,11.74a43.41,43.41,0,0,1,.87,6.64,6.3,6.3,0,0,1-3.33,6.43c-2.36,1.32-4.82,2.47-7.29,3.58a24.83,24.83,0,0,0-9.35,6.93c-2,2.41-4.05,4.63-5.38,7.56-1.7,3.76-4.28,4.23-7.8,2a22.56,22.56,0,0,1-2.62-2.08,21.82,21.82,0,0,1-7.3-13.37,37.62,37.62,0,0,0-.88-4.22,27.91,27.91,0,0,1-.77-12.58c.81-4.53.55-9.09.56-13.64v-4.23Z" transform="translate(-0.48 -0.48)"/><path class="cls-1" d="M55.86,372.79c-.24-4.07-.63-8.13-.69-12.2-.12-7.43-.35-14.88,0-22.3.51-10.45,1.37-20.9,2.41-31.31.41-4,1.71-8,2.65-11.92.4-1.71.9-3.39,1.36-5.08.64-2.39,2.81-3.66,4.74-2.44,4.46,2.8,9.53,3.6,14.46,4.89,1.69.44,3.35,1,5,1.59a3.85,3.85,0,0,1,2.67,2.84c.42,1.78.91,3.55,1.18,5.36.64,4.36,1.24,8.7,3.7,12.52C96,318.85,99.6,322,103.4,325a5.62,5.62,0,0,0,1.91,1c4.7,1.24,8.61,4.19,13,6,5.38,2.23,9.95,5.73,14.73,8.91A36,36,0,0,1,145.71,355a5.61,5.61,0,0,1,.1,5.47,31.18,31.18,0,0,0-3.4,11.67c0,.32-.09.63-.14,1-.43,2.44-1.65,3.33-4.17,3.26-5.91-.19-11.82-.54-17.73-.41-17.47.4-34.76,2.3-51.68,6.92a67.6,67.6,0,0,1-7,1.45A5.07,5.07,0,0,1,55.57,379V372.8Z" transform="translate(-0.48 -0.48)"/><path class="cls-1" d="M293.39,354.12c-3.51-.3-9.4-.74-15.28-1.32a15.46,15.46,0,0,1-7.74-3,3.17,3.17,0,0,1-1.18-4.21q4-8.57,8.1-17.11c.62-1.29,1.29-2.57,2-3.8a6.62,6.62,0,0,0-.48-7.84q-3.15-4.38-6.52-8.6c-1.34-1.69-2.92-3.18-4.27-4.86-1.76-2.2-2.23-4.91-2.58-7.61-.51-3.91.63-7.59,1.84-11.24a23.66,23.66,0,0,1,8.35-11.45q5.61-4.3,11.39-8.38a7.35,7.35,0,0,1,3.32-1.1,3.09,3.09,0,0,1,3.34,2.2,35.86,35.86,0,0,0,7.35,11.69,16.51,16.51,0,0,0,13.85,5.81c1.59-.11,3.19-.19,4.79-.23,3.89-.11,6.7,1.69,8.71,4.93a22.63,22.63,0,0,1,2.8,8.59c.6,3.78.71,7.7,1.77,11.34,1.58,5.51,3.71,10.87,5.78,16.23,1.29,3.35,2.82,6.61,4.37,9.85,1.76,3.67.7,6-2.6,8a92.88,92.88,0,0,1-26.61,10.57C308,353.88,301.86,353.83,293.39,354.12Z" transform="translate(-0.48 -0.48)"/><path class="cls-1" d="M259.86,110.85c2.3.19,4.62.34,6.92.6a9.36,9.36,0,0,1,4.45,1.59c2.25,1.57,2.66,2.21,2,5a26.79,26.79,0,0,0-.59,11.4,42,42,0,0,0,2,7.86,67,67,0,0,0,4.89,10.13,45.13,45.13,0,0,1,6.08,16c.92,5.27,1.65,10.58,2.26,15.89.69,5.9-1,11.37-3.31,16.73a25.93,25.93,0,0,1-5.35,8.18c-4,4-7.86,8.18-12.45,11.58A52.77,52.77,0,0,1,255,222.78c-6,2.4-12.5.85-16-3.86-1.92-2.56-2.55-5.65-3.27-8.69a6.58,6.58,0,0,1-.17-1.18,18.58,18.58,0,0,0-4.19-11c-4.65-6.09-4.48-12.91-2.07-19.84a49,49,0,0,1,9.25-15.85,27.36,27.36,0,0,0,5.53-10.26,14.08,14.08,0,0,0-1.54-11.74,27.71,27.71,0,0,1-4.17-10.13,19.38,19.38,0,0,1,1.94-11.86,9.31,9.31,0,0,1,4.45-4.18A34.4,34.4,0,0,1,259.86,110.85Z" transform="translate(-0.48 -0.48)"/><path class="cls-1" d="M325.88,275.05a25.46,25.46,0,0,1-15.08-4.78,31.13,31.13,0,0,1-8-8.2,105.69,105.69,0,0,0-6.92-9.16,12.68,12.68,0,0,0-6.52-4.29c-2.42-.66-3-.43-4.37,1.65-1.57,2.42-3,4.91-4.82,7.16a45.13,45.13,0,0,1-5.31,5.49,6.12,6.12,0,0,1-9.36-1.29,57.93,57.93,0,0,1-3-5.19c-.7-1.35-1.27-2.76-1.89-4.15-1.59-3.6-3.47-7-6.59-9.58a11.73,11.73,0,0,1-2.52-3.47,6.4,6.4,0,0,1,.05-6,3.71,3.71,0,0,1,2.56-2c8.94-2.58,17.7-5.61,25.12-11.46,3.54-2.78,7.61-4,11.87-4.75a48.31,48.31,0,0,1,17,.13,79.41,79.41,0,0,1,19.51,5.65,23.42,23.42,0,0,1,10.66,9.31c.74,1.24,1.48,2.47,2.28,3.67a8.27,8.27,0,0,0,9.82,3.28,39.07,39.07,0,0,1,6.92-1.85c5.67-.77,9.5,4.2,7.67,9.66a7.89,7.89,0,0,1-4,4.81c-7.75,3.94-14.1,9.6-19.72,16.16a22.07,22.07,0,0,0-2,2.69c-2.82,4.49-7.15,6.13-12.16,6.48C326.68,275.07,326.28,275.05,325.88,275.05Z" transform="translate(-0.48 -0.48)"/><path class="cls-1" d="M392.69,225.62c.29-4.71.57-9.41.89-14.11a8,8,0,0,1,.42-2.11c3.72-10.17,9.31-18.63,20.53-21.63A15.8,15.8,0,0,0,424.66,180c2.43-4.22,5.07-8.32,7.7-12.43a16.44,16.44,0,0,1,2.61-3.1c2.22-2.08,4.56-2.55,7.66-1.38,6,2.26,12.13,4,18.22,6a18.49,18.49,0,0,1,6.64,3.19c1.66,1.43,2,3.16.65,4.85-8,10-11.23,21.94-14,34.07a43.85,43.85,0,0,0-.67,7.61c-.2,4.48-.1,9-.46,13.43-.35,4.26-2.14,8-6.22,9.84a18.32,18.32,0,0,1-6.74,1.38c-3.74.13-7.5-.27-11.25-.29-7.6,0-15.19,0-22.79.05-2.79,0-5.59.28-8.38.32-2.61,0-3.79-.75-4.25-3.27a56.88,56.88,0,0,1-.63-7.62c-.1-2.31,0-4.63,0-7Z" transform="translate(-0.48 -0.48)"/><path class="cls-1" d="M502.41,191.79c-2.3-.2-4.38-.34-6.44-.57a12.88,12.88,0,0,1-9.42-5.93c-1.53-2.23-3.32-4.41-3.55-7.24a29.34,29.34,0,0,1,0-6.69c1.07-7.36,2.31-14.74,5.58-21.5,3.41-7.05,7.07-14,12.4-19.86,2-2.24,4.37-4.21,6.59-6.27a3.11,3.11,0,0,1,3.35-.71c2.75,1.06,5.49,2.18,8.18,3.37a15.23,15.23,0,0,1,3.07,1.86c5.9,4.53,11.93,8.91,17.59,13.71,6.22,5.27,12.1,10.94,18.11,16.45q4.5,4.14,9,8.34c1.65,1.57,3.1,3.24,2.81,5.79a4.28,4.28,0,0,1-2.44,3.83c-1.3.6-2.55,1.33-3.84,2A50.55,50.55,0,0,0,552,185.88a32.4,32.4,0,0,0-4.43,5c-1.9,2.56-3.52,5.34-5.41,7.91a8,8,0,0,1-2.73,2.23c-2.59,1.36-5-.09-5.27-3-.27-2.62-.57-5.24-1-7.83a14.63,14.63,0,0,0-1-3.2c-.94-2.25-1.39-2.42-3.65-1.61-1.87.68-3.75,1.38-5.62,2.08a59.16,59.16,0,0,1-13.83,3.77C506.81,191.43,504.5,191.6,502.41,191.79Z" transform="translate(-0.48 -0.48)"/><path class="cls-1" d="M225.13,242.33c1.2-.12,2.13-.26,3.06-.32a29.34,29.34,0,0,1,13.55,2.46c3.7,1.55,5.53,4.43,5.94,8.31a15.44,15.44,0,0,1,.11,2.63c-.35,4.62,2.27,7.42,5.82,9.69,1.67,1.07,3.4,2.08,5,3.25a5.73,5.73,0,0,1,2.19,6c-.54,3.39-1.2,6.76-1.72,10.15a46.92,46.92,0,0,0,.27,15.05,10.4,10.4,0,0,1-.08,3.29c-.57,3.8-4.6,3.78-6.4,2A10.18,10.18,0,0,1,251,302a15.9,15.9,0,0,0-7.4-7.86,20,20,0,0,0-7.4-1.79,37.43,37.43,0,0,0-11.4,1.2,50.37,50.37,0,0,1-27-.88,18.18,18.18,0,0,1-11.59-9.36,66.66,66.66,0,0,1-3.38-8.68c-1.27-3.78-2.36-7.62-3.53-11.44a11.65,11.65,0,0,1-.37-1.14c-.62-2.9,1.48-5.05,4.29-4.19a12.77,12.77,0,0,0,6.16.25,15.08,15.08,0,0,0,12-10.5c2-5.8,3.46-11.8,5.45-17.62,1.43-4.14,3.24-8.17,5.07-12.16a18.77,18.77,0,0,1,6.68-8.3c2.83-1.83,5-1,6.08,2.2,1.65,5.11,1.7,10.4,1.52,15.67-.13,4-.64,8-1,12C225.22,240.29,225.19,241.22,225.13,242.33Z" transform="translate(-0.48 -0.48)"/><path class="cls-1" d="M206.82,167.77c-2.52-.24-5.86-.53-9.2-.89a13.5,13.5,0,0,0-8.09,1.49c-4.84,2.55-10.11,3.94-15.39,5.23a9,9,0,0,1-5.19-.36,192.38,192.38,0,0,1-22.12-9.15,49.82,49.82,0,0,1-7.37-4.43c-2.88-2.19-2.91-4.11-.56-6.9a104.83,104.83,0,0,1,29.28-24.09A168.87,168.87,0,0,1,185.26,120a91.93,91.93,0,0,1,25.4-6.71c4.44-.5,8.9-1.15,13.37-.48a20.72,20.72,0,0,1,5.71,1.6c2.54,1.18,3,3,1.65,5.56a53.87,53.87,0,0,0-4.16,11.2,12.53,12.53,0,0,0,1.25,9.48,9.48,9.48,0,0,0,1.13,1.83c3.21,3.64,3,7.59.91,11.58C225.73,163.32,218.12,168,206.82,167.77Z" transform="translate(-0.48 -0.48)"/><path class="cls-1" d="M182,244.8c-3.58-.39-5.63-2.22-6.3-5.76a41.25,41.25,0,0,0-1.26-6.08c-3.26-9.37-10.1-14.45-19.74-15.93a12.27,12.27,0,0,1-6.14-2.43,11.8,11.8,0,0,1-2.12-2.23,38.61,38.61,0,0,1-2.87-4.4,12,12,0,0,0-6.5-5.38c-2.52-1-5-2.05-7.58-3a4.5,4.5,0,0,1-3.29-4.47,25,25,0,0,0-2.9-10.3c-1.67-3.35-3.24-6.76-4.89-10.13a3.45,3.45,0,0,1,.45-4.22,23,23,0,0,1,8.82-6,5.07,5.07,0,0,1,5.33,1c3.83,3.13,7.77,6.13,11.7,9.14,3.05,2.33,6.18,4.54,9.2,6.9A15.69,15.69,0,0,0,167,184.6a49.3,49.3,0,0,0,8.69-2.6c5-1.95,9.89-4.1,14.78-6.27a18.71,18.71,0,0,1,13.55-.65,12.81,12.81,0,0,1,8.9,15.8,35.22,35.22,0,0,1-4.71,10.7,36.32,36.32,0,0,0-3.84,8.47q-3.16,9.28-6.56,18.5a34.28,34.28,0,0,1-6.67,10.74,21.51,21.51,0,0,1-4.74,4A20,20,0,0,1,182,244.8Z" transform="translate(-0.48 -0.48)"/><path class="cls-1" d="M258.87,460.8c-.17,4.15-.19,8.32-.57,12.45a57.14,57.14,0,0,1-1.6,7.47c-.18.77-.57,1.5-.74,2.27-1.6,7-5.94,12.46-10.41,17.8-4,4.8-9.37,6.75-15.45,7a50,50,0,0,1-17.46-2.5c-2.66-.84-5.37-1.51-8.06-2.28-.91-.26-1.82-.58-2.72-.9a3.94,3.94,0,0,1-1-7,35.61,35.61,0,0,0,9.46-9.42c4.22-6,6.28-12.89,7.56-20,.43-2.35.66-4.74.89-7.13a42.16,42.16,0,0,0-1.53-14.22c-.66-2.69-.28-3.42,1.89-5.09a35,35,0,0,0,4.62-4.15,70.79,70.79,0,0,0,12.34-18.17,13.17,13.17,0,0,1,1.72-2.86,4,4,0,0,1,6.4-.06,47.41,47.41,0,0,1,6.27,9.89c1.83,4.17,4.06,8.14,5.38,12.54A72.63,72.63,0,0,1,258.87,460.8Z" transform="translate(-0.48 -0.48)"/><path class="cls-1" d="M65.06,273.78c.74-4.81,1.3-9.66,2.25-14.43,2.12-10.59,4.7-21,8.85-31.07,3.59-8.68,8.35-16.71,13.23-24.69a71.28,71.28,0,0,1,16.09-18.89c3.63-2.9,6.06-2.3,8,2a14,14,0,0,1,1,7.95,55.65,55.65,0,0,0-.6,7.63c0,2.08.37,2.58,2.35,3,4.89,1.09,9.33,3.26,13.86,5.27a5.64,5.64,0,0,1,3.73,4.58,6.61,6.61,0,0,1-2.81,6.48c-2.33,1.69-4.76,3.26-6.93,5.13a99.18,99.18,0,0,0-19,22.74,3.22,3.22,0,0,0-.72,1.49c.06,2-1.14,3.44-2.08,5-4.5,7.43-8.13,15.21-9.76,23.82a31.59,31.59,0,0,1-1,3.69A3.32,3.32,0,0,1,88.32,286a13.73,13.73,0,0,1-3.57,0c-3-.65-6-1.46-9.07-2.24a25,25,0,0,1-8-4.22A6.58,6.58,0,0,1,65.06,273.78Z" transform="translate(-0.48 -0.48)"/><path class="cls-1" d="M617.31,214.12a32,32,0,1,1-31.8-32A31.95,31.95,0,0,1,617.31,214.12Z" transform="translate(-0.48 -0.48)"/><path class="cls-1" d="M305.3,110c19.27-.14,37.83,3.33,55.41,11.42a43,43,0,0,1,4.64,2.48c2,1.27,2.5,2.36,1.84,4.64a36.45,36.45,0,0,1-1.87,4.91,15.61,15.61,0,0,0-.23,13.43c1.08,2.42,2.13,4.92.77,7.57a22.07,22.07,0,0,1-2.52,4c-1.32,1.6-2.87,3-4.34,4.48-5.29,5.3-11.57,6-18.39,3.84a25.11,25.11,0,0,1-7.66-3.9,15.5,15.5,0,0,1-5.63-7.85c-1.16-3.66-2.43-7.28-3.54-10.95a3.24,3.24,0,0,0-3.16-2.66c-3.74-.31-7.46-.84-11.2-1.21-3.89-.38-7.79-.82-11.69-1-10.19-.44-16.64-7.64-17.19-17.72-.17-3.13.41-6.39,3-8.79a6.47,6.47,0,0,1,3.8-1.82c2.71-.28,5.4-.76,8.1-.89C298.74,109.86,302,110,305.3,110Z" transform="translate(-0.48 -0.48)"/><path class="cls-1" d="M240.62,352.72c-3.18-.25-6.36-.54-9.54-.76-3-.19-5.91-.36-8.86-.45-9.51-.28-16.45-5.13-21.88-12.47a43.66,43.66,0,0,1-7.14-16.13c-1.49-6.37-2.63-12.83-3.79-19.28-.54-3,1.18-4.59,4.15-4.17a18.12,18.12,0,0,1,2.76.73c5.86,1.9,11.75,3.66,18,3.82a24.22,24.22,0,0,0,11-2c2-.9,4-1.53,6-2.38,3-1.27,5.62-.57,8.16,1.09a19.42,19.42,0,0,1,6.32,7.09,19,19,0,0,1,1.39,2.78,7.85,7.85,0,0,0,3.74,4.69,11.48,11.48,0,0,0,6.49,1.22c2.78-.22,5.55-.63,8.33-1,2.56-.3,4,.48,5,2.7a3.57,3.57,0,0,1,.07,3.23,23.8,23.8,0,0,1-1.08,2.14c-3.07,5.09-5.09,10.65-7.3,16.14a69.32,69.32,0,0,1-4.11,7.81,3.65,3.65,0,0,1-1.38,1.29c-3.42,2-7,3.53-11.05,3.56h-5.28Z" transform="translate(-0.48 -0.48)"/><path class="cls-1" d="M471.08,299.16a37,37,0,0,1-2.33,15.07c-1.62,4.66-4.59,8.09-9.52,9.67-5.65,1.81-11.43,3-17.21,4.21-7.49,1.62-14.92,3.54-22.41,5.2-3.66.82-7.37,1.55-11.16.83-7.11-1.37-14-7.92-14-15.75a38.89,38.89,0,0,1,1.27-10.91c.35-1.22.47-2.51.7-3.76.47-2.65,1.75-3.68,4.41-3.69a68.07,68.07,0,0,0,35.63-9.71c3.65-2.22,6.78-5.33,10.05-8.14,2.11-1.81,4-3.84,6.08-5.75,2.26-2.11,4.75-3.65,8-2.43a6.54,6.54,0,0,1,3,1.87c2.29,3.14,5.06,6.06,6,10,.58,2.57,1,5.18,1.33,7.79C471,295.47,471,297.33,471.08,299.16Z" transform="translate(-0.48 -0.48)"/><path class="cls-1" d="M660.74,267.82c1.2.55,2.22,1,3.2,1.48,2.84,1.42,5.34,3.21,6.59,6.31.94,2.31.12,4.19-2.28,4.85a18.24,18.24,0,0,1-3.54.54c-4.7.3-9.42.36-14.1.88a112.26,112.26,0,0,1-18,.77c-10.07-.5-20.12-1.27-29.93-3.81-2.16-.56-4.27-1.33-6.4-2-2.44-.76-4.87-1.55-7.31-2.29-2.1-.64-3.33-2.54-2.38-4.45a37.63,37.63,0,0,1,7.57-11c2.93-2.76,6.71-3.23,10.42-3.64a13.39,13.39,0,0,0,7-2.75,19.57,19.57,0,0,0,6.68-9.17q2.76-8.17,5.49-16.35c.15-.46.26-.93.42-1.38,1-2.78,3.27-3.56,5.68-1.9,5.26,3.63,10.61,7.15,15.72,11a74.29,74.29,0,0,1,9.69,8.55,32,32,0,0,1,7.11,11.29C664,259.18,663.8,263.55,660.74,267.82Z" transform="translate(-0.48 -0.48)"/><path class="cls-1" d="M413.45,380.13c-1.6,0-3.15,0-4.58-1a5.41,5.41,0,0,1-2-7.28c3.18-7,8.48-11.93,15.27-15.28a20.72,20.72,0,0,0,8.39-7.62,41.23,41.23,0,0,0,2.77-4.76c2.77-6,8.4-5.46,12.37-3.77a8.33,8.33,0,0,1,2.78,1.84c2.5,2.68,5,5.4,7.25,8.27a9.9,9.9,0,0,0,3.35,3c2.8,1.35,5.6,2.71,8.35,4.18a30,30,0,0,1,8.71,7.42,19.18,19.18,0,0,1,4.25,10.51,4.17,4.17,0,0,1-.38,2.08c-4.06,9.52-10.85,15.58-21.42,16.94a27.31,27.31,0,0,1-9.29-.34,4.47,4.47,0,0,0-3.19.46,55,55,0,0,1-6.28,2.93c-4.64,1.7-9.17,1-13.43-1.28a11,11,0,0,1-5.49-11.08,4.5,4.5,0,0,0-3-4.62,10.78,10.78,0,0,0-2.32-.57A17.1,17.1,0,0,0,413.45,380.13Z" transform="translate(-0.48 -0.48)"/><path class="cls-1" d="M461.85,232.93c-.24-9.15.34-18,2.81-26.59A85.89,85.89,0,0,1,472,188.92a4,4,0,0,1,3.6-2.36c1.66,0,2.51,1,3.34,2.29,3,4.8,6.92,8.49,12.72,9.82a49.57,49.57,0,0,0,10.22,1c4,.07,8,.18,12,.4a13.62,13.62,0,0,1,6,1.51c6.83,3.77,9.16,13.37,4.24,19.67a34.62,34.62,0,0,1-3.15,3.58A156.9,156.9,0,0,0,503.17,245a4.06,4.06,0,0,1-4.58,1.72c-3.2-.7-6.41-1.34-9.61-2a13.49,13.49,0,0,0-5.93.09c-3.81.84-7.67,1.51-11.53,2.17a23.82,23.82,0,0,1-4,.24,5.12,5.12,0,0,1-5.18-4.88C462.09,239.08,462,235.89,461.85,232.93Z" transform="translate(-0.48 -0.48)"/><path class="cls-1" d="M572.5,324.1c-4.66-.69-8.44.58-12.31,1.09-4.75.64-9.5,1.29-14.28,1.66a30.34,30.34,0,0,1-6.9-.52,10.3,10.3,0,0,1-3.53-1.39,6.19,6.19,0,0,1-3-7.37,21.39,21.39,0,0,1,.65-2.06c.31-.91.66-1.8,1-2.7,1.81-5.22.74-8-4.13-10.73-1.89-1.05-3.82-2-5.65-3.16a36.64,36.64,0,0,1-4.07-2.95c-2.82-2.34-3.39-5.49-2.74-8.88.44-2.32,2.44-3.34,4.73-2.65a70.48,70.48,0,0,0,18.7,2.63,136,136,0,0,0,27.7-2c1.25-.22,2.45-.7,3.7-1a45.33,45.33,0,0,1,26.56,2.6c2.85,1.14,4.26,3.1,2.76,6.68a132.58,132.58,0,0,1-12.4,23.21c-.68,1-1.46,1.91-2.19,2.85a10,10,0,0,1-7.11,4C577.24,323.73,574.54,323.93,572.5,324.1Z" transform="translate(-0.48 -0.48)"/><path class="cls-1" d="M484.83,252.33a37.39,37.39,0,0,1,11.69,1.61,17.73,17.73,0,0,1,8.31,5.85,26.71,26.71,0,0,1,6.39,17.89,22,22,0,0,1-.76,5.64,35.84,35.84,0,0,0-1.18,12.36c.28,3.87,1.88,7.16,5.38,9.12,5.36,3,6.39,8.39,4.85,13.19a22.62,22.62,0,0,1-2.79,6.3c-2.4,3.35-6.17,3.74-9.94,3.36a55.45,55.45,0,0,1-6.56-1.38c-2.64-.62-5.25-1.43-7.92-1.91-7.56-1.37-12-8-12.7-14.69a85,85,0,0,1-.29-16.5,20.18,20.18,0,0,0-2.39-11.58c-2.27-4.19-4.73-8.19-8.62-11.07a30.66,30.66,0,0,0-4.67-2.82c-2.35-1.15-3.29-3.6-1.77-5.75a11.34,11.34,0,0,1,3.39-3.3C471.71,255,478.61,252.57,484.83,252.33Z" transform="translate(-0.48 -0.48)"/><path class="cls-1" d="M546.29,280.53c-6.28-.28-11.26-.8-16.06-2.54a16.3,16.3,0,0,1-8.73-7.12c-1.69-2.8-3.36-5.62-5.21-8.31a32.24,32.24,0,0,0-3.62-4.14c-4.78-4.91-5-7.05-1.52-12.84a15.76,15.76,0,0,1,4.46-4.6,53.87,53.87,0,0,0,15.29-16.67,46.06,46.06,0,0,0,3.2-7.45c.91-2.3,2.18-3.13,4.6-2.83a3.26,3.26,0,0,1,3.11,3.79,16.94,16.94,0,0,0,1.51,10,71.36,71.36,0,0,0,3,6.79,53.89,53.89,0,0,0,11.17,14,7.68,7.68,0,0,0,1.81,1.17c6.1,2.8,12.14,5.67,19,6.09,4.16.25,6.08,2.76,4.61,7.2a33.82,33.82,0,0,1-8.06,12.64c-1.19,1.23-2.84,1.42-4.4,1.66q-6.29.94-12.57,1.75C553.66,279.68,549.37,280.16,546.29,280.53Z" transform="translate(-0.48 -0.48)"/><path class="cls-1" d="M326.62,207.08a32.1,32.1,0,0,1,1-4.41,65.37,65.37,0,0,1,14.81-23,5.11,5.11,0,0,1,7.58.1,68,68,0,0,0,5.44,5.69,12.27,12.27,0,0,0,10.92,3c4.94-.88,9.86-1.94,14.8-2.86a15.09,15.09,0,0,1,4.46-.43c2.94.35,4.49,2.23,4,5.14a87.49,87.49,0,0,1-2.52,10.46,32,32,0,0,0-1.62,8.67c-.12,7.35-.34,14.69-.49,22a31.29,31.29,0,0,0,.79,9,3.11,3.11,0,0,1-2.08,4c-3.14.76-6.34,1.17-9.16-1a5.78,5.78,0,0,1-1.68-1.94,60.65,60.65,0,0,1-3.07-7,60.4,60.4,0,0,1-1.58-6.73c-.31-1.4-.56-2.81-.83-4.22-.24-1.26-1.08-1.51-2.15-1.17-1.29.42-2.55.92-3.81,1.42a29.48,29.48,0,0,1-9,2.36,10.67,10.67,0,0,1-8.2-3.1c-3.89-3.54-7.91-7-12.73-9.3-.79-.38-1.52-.88-2.28-1.32C327.19,211.24,326.62,209.35,326.62,207.08Z" transform="translate(-0.48 -0.48)"/><path class="cls-1" d="M230.57,406.76a37.89,37.89,0,0,1-13.49,25.48c-2.88,2.55-6.43,2.15-8.78-.94-.82-1.08-1.48-2.28-2.24-3.41C202,421.81,196.08,419,189,418c-4-.53-8-.65-11.85.69A30.52,30.52,0,0,0,160,432.51c-1.14,2-2.67,2.57-4.84,1.65a23.85,23.85,0,0,1-8.23-5.69,36.33,36.33,0,0,1-7.31-12.55,5.94,5.94,0,0,1,1.64-6.76A25.06,25.06,0,0,1,157,401.38c4.77-.44,9.52-1.08,14.27-1.66A65.4,65.4,0,0,0,189,395.43a7.92,7.92,0,0,0,2.28-1.27,6,6,0,0,1,4.15-1.5c7.42-.25,14.37,1.91,21.34,4a63.46,63.46,0,0,1,11.4,5C230.28,402.8,230.52,404.65,230.57,406.76Z" transform="translate(-0.48 -0.48)"/><path class="cls-1" d="M403.4,181.37a9.35,9.35,0,0,1-5.74-1.44c-1.62-1-3.21-2.11-4.87-3.05a7.38,7.38,0,0,0-6.22-.57,106.08,106.08,0,0,1-10.38,2.83,20.21,20.21,0,0,1-5.71.3c-4.88-.36-6.58-3.29-6.45-7.78a10.19,10.19,0,0,1,2.81-6.47c2.35-2.61,4.83-5.1,7.26-7.64.55-.58,1.15-1.12,1.68-1.71,2.32-2.54,2.5-4.64.68-7.59-.29-.48-.62-.93-.93-1.4-3.22-4.89-3.58-10.11-1.85-15.59.09-.3.22-.6.33-.9,1.33-3.68,2.19-4.29,6.05-3.55a73.23,73.23,0,0,1,9.28,2.33c10.2,3.44,19.89,8,28.29,14.82,3.27,2.65,6.06,5.88,9.1,8.82,2.18,2.11,2.14,4.71,1,7.08-3.31,7-7.47,13.41-14.15,17.76A24,24,0,0,1,403.4,181.37Z" transform="translate(-0.48 -0.48)"/><path class="cls-1" d="M170.38,485c-7.74-.26-15.43-.77-22.8-3.66-4.56-1.79-8-4.9-11.19-8.39-1.24-1.35-2.34-2.83-3.49-4.27a27,27,0,0,1-5.55-13.08,52,52,0,0,1,2.27-25.28,15.3,15.3,0,0,1,.7-1.78,3.51,3.51,0,0,1,3.31-2,3.22,3.22,0,0,1,3.11,1.88c4.34,9,12.18,14.08,20.68,18.38a4.91,4.91,0,0,1,3,3.65c1,4.88,4.29,8.1,8.63,10.25a19.93,19.93,0,0,0,9.3,1.94,4.18,4.18,0,0,1,4.4,2.86,43.1,43.1,0,0,0,3.85,6.31,8.91,8.91,0,0,0,4.79,3.43,3.37,3.37,0,0,1,2.68,3,3.56,3.56,0,0,1-2.21,3.64,7.33,7.33,0,0,1-2,.72C183.41,483.78,177,485.35,170.38,485Z" transform="translate(-0.48 -0.48)"/><path class="cls-1" d="M607.75,326.65c-2.13-.46-5-.92-7.71-1.69-3.84-1.09-5-4.59-2.55-7.84a80.23,80.23,0,0,0,7-12.22,35.32,35.32,0,0,0,3.11-9.54c0-.23.05-.47.09-.71.84-4.35,1.8-4.88,6.18-4.47s8.61.43,12.92.58A105.91,105.91,0,0,0,645,289.7a63.59,63.59,0,0,1,17.21.18,9.76,9.76,0,0,1,3.53,1.35,4,4,0,0,1,1.08,6.33,19.7,19.7,0,0,1-6.49,5.22,39.29,39.29,0,0,1-12,3.89,4.76,4.76,0,0,0-3.64,2.28,37.49,37.49,0,0,1-17.84,14.35c-3.65,1.46-7.74,1.83-11.66,2.55C613,326.25,610.72,326.34,607.75,326.65Z" transform="translate(-0.48 -0.48)"/><path class="cls-1" d="M303.84,205.87h-5.51c-3.07,0-4.59-1.84-3.8-4.8.9-3.4,2-6.76,2.81-10.16,1.51-6.09,1.15-12.2.12-18.33A114.3,114.3,0,0,0,292.92,154a11,11,0,0,1-.3-1.16c-.66-2.61.46-4.78,3.12-5.18a35.64,35.64,0,0,1,7.16-.15c2.14.11,4.28.53,6.42.82,4.36.59,8.06,3.65,7.62,9.29-.1,1.27-.21,2.55-.34,3.82-.34,3.27.82,5.35,3.9,6.64,2.06.86,4.19,1.55,6.3,2.31a12.64,12.64,0,0,1,5.55,3.61,4.44,4.44,0,0,1,.83,5.11,55.52,55.52,0,0,1-3.53,6.53,114.81,114.81,0,0,0-8.38,14.51,8.57,8.57,0,0,1-8.09,5.41c-3.11.06-6.22.27-9.33.41Z" transform="translate(-0.48 -0.48)"/><path class="cls-1" d="M162.2,365.23a28.34,28.34,0,0,1,0-11.31,11.34,11.34,0,0,1,.9-2.95,39.41,39.41,0,0,1,12.82-14.64,12,12,0,0,1,3.44-1.61c2.24-.67,4.05-.08,4.71,2.09,2.07,6.82,6.11,12.84,7.74,19.84a39.9,39.9,0,0,1,0,19,22.44,22.44,0,0,1-10.6,13.7,37,37,0,0,1-6.53,2.89,6.44,6.44,0,0,1-4.68-.31,42.29,42.29,0,0,1-11.27-7.19A8.55,8.55,0,0,1,156,380a19.06,19.06,0,0,1,.28-9.72c.7-2.55,2.12-4.48,5.08-4.65C161.59,365.63,161.79,365.44,162.2,365.23Z" transform="translate(-0.48 -0.48)"/><path class="cls-1" d="M188.1,442.29a22.69,22.69,0,0,1-1.49,2.15,47.5,47.5,0,0,1-5.1,5.67,8.68,8.68,0,0,1-9,1.48,8.1,8.1,0,0,1-4.95-5.21c-2.12-6.2,1.16-12.81,5.08-15.62,5.61-4,11.54-4.53,17.93-2A23.42,23.42,0,0,1,204.31,443a38.61,38.61,0,0,1,1.22,24.44,11.47,11.47,0,0,1-1.06,2.65,3,3,0,0,1-3.44,1.64c-4.06-1-8-2.31-10.78-5.74-1.66-2-1.67-3.51-.09-5.54,2.33-3,3.63-6.35,2.9-10.25-.24-1.33-.4-2.68-.7-4A4.82,4.82,0,0,0,188.1,442.29Z" transform="translate(-0.48 -0.48)"/></svg>