<svg id="Layer_1" data-name="Layer 1" xmlns="http://www.w3.org/2000/svg" viewBox="0 0 720 612"><defs><style>.cls-1{fill:none;stroke:#000;stroke-miterlimit:10;stroke-width:0.01px;}</style></defs><path d="M.48,612.48V.48h720v612Zm318-256.43c.51-1.13,1-2.12,1.39-3.12.67-1.54,1.35-3,1-4.83-.76-3.63-4.49-7.21-8.17-7.32-3.43-.09-6.86.22-10.3.28a24.64,24.64,0,0,1-5.23-.2c-3-.59-4.32-2.54-4.16-5.54a16.62,16.62,0,0,1,1.58-7c1.57-3.05,3.08-6.13,4.76-9.12,1.53-2.73,2.43-5.59.68-8.38-3.19-5.1-7.45-8.77-13.9-8.86-1.68,0-3.36-.11-5-.12a22,22,0,0,1-8.63-1.76c-2.86-1.23-5.26-2.83-5.79-6.37a29.59,29.59,0,0,0-2-5.87,6,6,0,0,0-6.79-4.13c-3.37.42-5.19-1.44-6.81-3.85a23.4,23.4,0,0,0-1.66-2.63,6.13,6.13,0,0,0-2.27-1.64c-4.84-1.82-9.09-.51-12.4,3.17-4.3,4.79-6.57,10.35-4.91,17a12.43,12.43,0,0,1,.35,4c-.18,2.14-1,2.67-3.16,2.48-.48,0-1-.12-1.43-.15-9.93-.55-14.67,3.86-16.72,11.39a39.34,39.34,0,0,0-1.21,8.52,33.87,33.87,0,0,1-2.42,11.17c-.87,2.19-.39,3.94,1.63,5.15a55.11,55.11,0,0,0,7.14,3.91,73.51,73.51,0,0,1,16.64,9.43,17.17,17.17,0,0,1,4.37,4.66,27.39,27.39,0,0,0,13.5,11.4c2.58,1,5.36,1.53,8,2.33a183.51,183.51,0,0,0,34.73,7c5.81.58,11.61,1.19,17.46.68a10.41,10.41,0,0,0,6.54-2.66,30.76,30.76,0,0,0,7.08-9.29C324.18,361.64,324.35,358.62,318.45,356.05ZM367.92,194a29.84,29.84,0,0,0-2.47,2,5,5,0,0,0-.68,6.89,2.76,2.76,0,0,1,.06,3.33,10.52,10.52,0,0,1-4.4,4.29c-3.76,1.74-4.81,4.8-4.53,8.66.37,5.19,2.87,9.42,5.91,13.4a17.68,17.68,0,0,1,3.22,6.09,9.4,9.4,0,0,0,5.11,6,37.29,37.29,0,0,1,3.59,1.92,11,11,0,0,0,4.93,1.71c2.55.25,5.1.46,7.63.8a13.2,13.2,0,0,1,9,5c.84,1.07,1.69,2.13,2.56,3.18,4.79,5.84,11,9.25,18.52,9,12.27-.37,21.28-6.43,26.47-17.54a13.5,13.5,0,0,0-5.45-17.16c-1.88-1.05-3.76-2.11-5.7-3.06a25.21,25.21,0,0,1-9-7,3.71,3.71,0,0,1-.55-4.53,46.35,46.35,0,0,1,7.9-11.67,33.49,33.49,0,0,0,3.86-4.86c1.59-2.45,1.55-5,.46-7.78-2.37-6-6.95-9.2-12.91-10.76-2.47-.64-5-1-7.5-1.57-1.56-.34-3.11-.7-4.65-1.12a2.64,2.64,0,0,1-2.11-2.84,18.27,18.27,0,0,1,.57-4.24c.72-2.45,1.64-4.84,2.51-7.24,1.67-4.63,1-8.79-2.35-12.48a16.42,16.42,0,0,1-2.84-3.54c-1.23-2.55-3.18-3.41-5.82-3.29-.55,0-1.11-.08-1.67-.07-6.63.13-13.27.21-19.89.43-2.5.09-3.82,2.15-3.14,4.57a8.23,8.23,0,0,0,.93,2.2,6.61,6.61,0,0,1,.51,6.4,9.82,9.82,0,0,0,.29,7.93,5,5,0,0,1-.6,5.42,49.51,49.51,0,0,1-3.82,4.25c-1.66,1.72-3.45,3.33-5.05,5.1a7.73,7.73,0,0,0-1.81,6C365.14,190.18,366.26,191.93,367.92,194Zm235.33-33.51.47.13c-.82,3.32-1.65,6.64-2.46,10a65.52,65.52,0,0,0-1.43,19.3c.09,1.57.46,3,2,3.86,2.73,1.5,5.45,3,8.21,4.48a3.72,3.72,0,0,0,5.21-1.81,9.51,9.51,0,0,0,.51-1.59c1.66-6.67,3.36-13.32,5-20,1-4,2-8.09,2.57-12.19.51-3.63.39-7.34.69-11A6.17,6.17,0,0,1,625,148.3a10.71,10.71,0,0,1,9.28-4.11,42.76,42.76,0,0,1,11,2.09,38.48,38.48,0,0,0,13.68,2,24,24,0,0,0,10.81-2.76c6.68-3.6,12.34-8.53,17.79-13.72a3.43,3.43,0,0,0,.78-4.37,24.26,24.26,0,0,0-2.55-4.33c-6.76-8.11-15.33-12.09-26-11-6,.6-11.49,2.74-16.91,5.13a47.9,47.9,0,0,0-11.31,6.71c-1.61,1.34-3.46,2.55-5.68,2a11.15,11.15,0,0,1-7.4-6c-2.1-4.09-4.54-7.7-8.92-9.6a18.22,18.22,0,0,1-1.71-.86c-2.43-1.35-4.44-2.9-5-6s-2.28-4.11-5.3-4.24a11.07,11.07,0,0,0-3.1.19,2.83,2.83,0,0,1-3.45-1.4c-.25-.41-.58-.78-.82-1.19a6.51,6.51,0,0,0-6.7-3.25c-2.95.25-5.89.65-8.84.7a18.05,18.05,0,0,0-8.42,2.48,10.84,10.84,0,0,0-5.72,7c-.53,2.09-.93,4.21-1.34,6.33a7.35,7.35,0,0,1-3,4.73,14.42,14.42,0,0,1-1.93,1.41,4.37,4.37,0,0,0-1.63,5.88,99.29,99.29,0,0,0,10,16.37c2.68,3.49,5.52,6.85,8.4,10.17a42.68,42.68,0,0,0,5.12,5,6.78,6.78,0,0,1,2.82,5c.15,2.87.17,5.75.15,8.62,0,6.48-.14,12.95-.16,19.43a3.15,3.15,0,0,0,2.75,3.41c3.37.65,6.76,1.24,10.16,1.68,2.31.3,3.64-.89,4-3.16,0-.32.05-.64.07-1A76.82,76.82,0,0,1,600,168.42C601,165.73,602.16,163.11,603.25,160.46ZM184,217.53c-.41.79-.74,1.33-1,1.91a11,11,0,0,0,.35,10.16,5.56,5.56,0,0,0,6.67,2.88,15.15,15.15,0,0,0,3.87-1.81c2.38-1.46,4.67-3.07,7-4.6,3-1.95,6.26-1.49,8.87,1a37.53,37.53,0,0,0,5.59,4.47,9.61,9.61,0,0,0,9,.69,15,15,0,0,0,9.95-14.4c0-1-.07-2.09,0-3.12.32-3.41.45-6.85,1.68-10.12,4.29-11.48,11.48-20.18,22.8-25.56,7.39-3.5,13-9,14.17-17.78.72-5.3,0-10.15-3.74-14.32a9.8,9.8,0,0,1-2.75-6.24c-.09-2.1-1.24-3.1-3.35-3.38-.79-.1-1.59-.2-2.38-.26-6.08-.46-12.14-.76-18.09,1.07-4,1.25-8.15,2.32-12.14,3.73a80.86,80.86,0,0,1-19.44,4c-3.14.29-4.07,1.21-4.14,4.34-.07,2.55,0,5.12-.13,7.66-.2,3.09-1.22,4.29-4.16,5.09s-5.74,1.42-8.6,2.15a11.77,11.77,0,0,0-6.14,3.54,5.6,5.6,0,0,0,.86,8.59,16.32,16.32,0,0,0,3.63,1.78,1.8,1.8,0,0,1,1.38,1.72c.14,3-.42,5.79-3,7.69-2.25,1.66-4.55,3.25-6.91,4.74a33.15,33.15,0,0,0-12.09,12.4,72.73,72.73,0,0,0-3.29,7.44c-1.23,3.07.26,5.41,3.54,5.33a21.71,21.71,0,0,0,5.37-1A10.08,10.08,0,0,1,184,217.53Zm298.2,30c-.75,1.08-1.31,2-2,2.86-.86,1.06-1.93,1.95-2.69,3.06-3.7,5.43-2.88,10.5,2.71,13.89,3.14,1.91,6.61,2.31,10.16,2.19a36.9,36.9,0,0,0,20.47-7.39c5.07-3.64,8.12-8.54,7.55-15.13,0-.56,0-1.12,0-1.68a4.86,4.86,0,0,1,1.76-4,48.44,48.44,0,0,1,5.09-4,61.48,61.48,0,0,0,9.55-7.61c9.3-8.82,10.84-20.87,6.52-31.76-1.79-4.51-4.33-8.72-6.51-13.08-1.32-2.64-2.54-5.33-3.94-7.93-1.58-2.94-3-6.05-5.07-8.64-3.77-4.75-9.28-4.41-12.55.67a46.85,46.85,0,0,0-3.68,7.77,13.29,13.29,0,0,1-2.6,4.53,12.37,12.37,0,0,1-7.68,3.54,55.83,55.83,0,0,1-6.47.28,9.47,9.47,0,0,0-7.31,3c-1.78,1.93-3.38,4-5,6.1a25.8,25.8,0,0,1-2.16,2.86c-3.76,3.49-7.73,6.69-12.65,8.51-3,1.11-5.92,2.4-8.86,3.66a16.62,16.62,0,0,0-7,5.25,8.08,8.08,0,0,0-1.25,8.35,12.46,12.46,0,0,0,3.9,5.39c3.2,2.39,6.39,4.81,9.73,7,3.82,2.48,7.81,4.69,11.7,7.06C476.56,243.88,479.22,245.62,482.17,247.5Zm-311.78-74c.66-2,2-2.84,3.55-3.67a40.21,40.21,0,0,0,5.59-3.63,6.11,6.11,0,0,0,2.09-5.38c-.06-1.43,0-2.87,0-4.3s.72-2.23,2-2.89a42.82,42.82,0,0,0,6.11-3.73,8.17,8.17,0,0,0,2.25-3c.92-1.88.37-3.28-1.38-4.52a9.15,9.15,0,0,0-4.91-1.71c-9.73-.56-19.46-1.23-29.2-1.59A50.67,50.67,0,0,0,139,141.64c-19.65,6.32-32.64,19.26-38.37,39.14-2.43,8.44-2,17.15-.54,25.7.89,5.24,2.65,10.35,4.14,15.48.57,2,2.16,2.77,4.36,2.38a26.78,26.78,0,0,0,10.74-4.5c1-.69,1.94-1.41,3-2.06,1.73-1.09,2.47-1.07,4.13.17.89.67,1.68,1.47,2.56,2.17,6.6,5.26,15.86,2.76,18.54-5.2,1.83-5.44,3.31-11,3.37-16.86,0-3.71.33-3.27,3.46-4.49a5.68,5.68,0,0,1,1.87-.39c1.68,0,3.35,0,5,0,3.61,0,7.22-.09,10.58-1.63,6.46-3,7.49-10.77,2-15.3C172.77,175.33,171.61,174.48,170.39,173.53ZM497.34,301l-.06.22a41.77,41.77,0,0,1-4.88-1c-2.84-.92-3-1.41-2.79-4.39a30.34,30.34,0,0,0,0-6.67,17.21,17.21,0,0,0-7.86-12.37c-2.93-1.85-5.55-1.55-7.07.62-.78,1.11-1.48,2.27-2.19,3.43-.9,1.5-1.67,3.11-2.71,4.51a3.53,3.53,0,0,1-2.3,1.47c-3.87,0-8,.32-10-4.2a.85.85,0,0,0-.14-.19,20.89,20.89,0,0,0-13.21-7.58,8.2,8.2,0,0,0-6.5,1.88,29.58,29.58,0,0,0-4.58,5.2,10.87,10.87,0,0,0-1.71,9.14c.27,1.17.56,2.34.83,3.5a13.53,13.53,0,0,1-.25,7.33,35.6,35.6,0,0,0-1.58,6c-.58,4.44.2,8.5,4.37,11.1a3.26,3.26,0,0,1,1.55,2.75c.19,1.65.21,3.55,1.07,4.83,2.87,4.29,6,8.39,12.08,8.11a8.91,8.91,0,0,1,6.31,2.4c5.21,4.32,10.65,8.24,17.92,8.23,1.93,0,3.3,1.22,4.6,2.68,2.16,2.45,4.57,4.69,7,6.93a8.61,8.61,0,0,0,5.95,2.16,13.32,13.32,0,0,0,7.55-2,25.69,25.69,0,0,0,10.66-12.88,11.69,11.69,0,0,0,.47-7.3c-.57-2.16-1-4.37-1.54-6.53a6.4,6.4,0,0,1,.94-5.26c.95-1.48,2-2.9,2.87-4.43,2.22-3.88,3-8.05,1-12.16-2.3-4.79-6.78-6-11.68-5.93C500,300.62,498.69,300.85,497.34,301ZM409.71,464.52c-.12,1.8-.29,3.63-.36,5.47-.11,2.64.84,4.36,3.13,5.07a39.7,39.7,0,0,1,11.94,6c1.51,1.12,2.85.87,4.39-.29a5.47,5.47,0,0,0,2.3-5.16c-.6-10.07,1.86-19.46,6.47-28.39a50.73,50.73,0,0,0,5.21-31.64c-.43-2.84-1.4-5.62-1.6-8.47a71.13,71.13,0,0,1,.09-11c1-11,2.94-21.85,7.14-32.18a12.13,12.13,0,0,0,1-6.09c-.29-2.32-1.44-4.15-3.75-4.78a13.13,13.13,0,0,0-4.71-.41c-2.53.26-5,.91-7.55,1.33-3.88.65-7.65.62-11-2a11.45,11.45,0,0,0-2.26-1.35c-2.55-1.13-5.11-2.26-7.71-3.27a5.54,5.54,0,0,0-7.37,4.11,21.48,21.48,0,0,0-.41,3.08c-.23,4.23-.27,8.48-.64,12.7-1,11.91-.41,23.8.3,35.7a26.63,26.63,0,0,1-.31,6.18,60.74,60.74,0,0,0,0,22.65c.89,4.53,1.91,9,3.23,13.49C409.13,451.48,409.45,458,409.71,464.52Zm-30-91.42a36.66,36.66,0,0,0,9.73-1.39,8.73,8.73,0,0,0,6.12-6.76,11.17,11.17,0,0,0-.79-7.24,25.64,25.64,0,0,1-1.82-5.17c-.68-3.47-.11-6.72,2.72-9.2,1.74-1.53,3.53-3,5.32-4.47a11.54,11.54,0,0,1,10.58-2.31,13.78,13.78,0,0,0,5.2.15c3.93-.64,5.74-3.25,5.31-7.19a10.27,10.27,0,0,0-6.56-9,33.68,33.68,0,0,1-4.93-2.43c-1.53-1-1.66-1.91-.66-3.45s2-2.73,2.93-4.1a12,12,0,0,0,2.44-6.89,5.84,5.84,0,0,1,.93-2.87c1-1.54,2.25-2.9,3.32-4.39a7.13,7.13,0,0,0,1.64-5.35,8,8,0,0,0-12.65-5.41c-1.59,1.18-3,2.64-4.5,3.95s-3.18,2.69-5.37,3c-4.76.61-8.76,2.91-12.39,5.89-1.48,1.21-2.82,2.61-4.19,3.94-4.77,4.63-9.62,9.1-15.61,12.23a127.5,127.5,0,0,0-11.82,7.32,22,22,0,0,0-9.06,22.46c.44,2,1,4,1.6,6,1.3,4.19,1.29,4.45-2.61,6.65a45.57,45.57,0,0,0-10.79,8.7,15.68,15.68,0,0,0-2.49,3.5,4.75,4.75,0,0,0,2.71,7,9.43,9.43,0,0,0,6.35.23c2.82-.9,5.56-2,8.39-2.87a32.15,32.15,0,0,1,5.84-1.09c2.15-.22,4.31-.22,6.47-.23,3.51,0,7-.1,10.54,0C374.34,372.44,377,372.84,379.74,373.1ZM210,248.6c-2.34,0-4.17,0-6,0a5.08,5.08,0,0,0-4.44,2.44c-1.32,2-2.21,4.36-1.56,6.83,1,4,3.33,7.06,7.33,8.54,1.79.66,3.69,1.07,5.48,1.73,6.11,2.25,12.37,2.26,18.68,1.31,4.5-.69,9-1.95,13.47-2.27,6.73-.49,13.58-1.07,19.41,3.82,1.52,1.26,2.94,2.4,3.63,4.26.61,1.64,1.12,3.32,1.78,4.93,1.4,3.36,4.05,4.64,7.54,3.78a9.15,9.15,0,0,0,5.9-4.89,27.13,27.13,0,0,0,2.94-8.83,2.38,2.38,0,0,1,1.85-2.18c2-.57,3.91-1.41,5.9-2a4.55,4.55,0,0,1,2.77-.1,31.13,31.13,0,0,1,6.61,3.29,20.63,20.63,0,0,0,15,3.83,12.19,12.19,0,0,0,10.87-10.23A15.75,15.75,0,0,0,322,248.34c-3-2.82-3-3.33-.45-6.5.45-.56.89-1.13,1.36-1.67,5.4-6.25,2.6-14.44-3.83-17.82a6.93,6.93,0,0,0-4.64-.76c-3.2.62-5.94,2.12-7.45,5.1-1.21,2.36-3.14,4-4.94,5.8a1.85,1.85,0,0,1-2.13.5,29.13,29.13,0,0,0-9.48-1.14,17.06,17.06,0,0,0-11.63,4.36c-2,1.77-3.86,3.59-5.83,5.35-2.74,2.46-6.91,3.08-9.91.89s-6.41-3.19-9.78-4.4c-5.75-2.07-11.27-1.61-16.06,2.32a8,8,0,0,1-8.24,1.41c-.84-.27-1.68-.52-2.51-.82a38.11,38.11,0,0,0-12.26-1.89,5.18,5.18,0,0,0-5,3.72C208.59,244.64,209,246.36,210,248.6ZM101.23,263.05c.36,4.11.56,9.41,1.32,14.62,2,13.61,3.1,27.32,4.53,41,.93,8.9,1.93,17.8,2.92,26.7.31,2.78,1.6,4.87,4.49,5.54a54.46,54.46,0,0,0,5.41.89,3.79,3.79,0,0,0,3.23-1.27c.51-.51,1-1,1.55-1.5,4-4,6.18-8.56,6-14.36a96,96,0,0,0-2.19-16.13,6.25,6.25,0,0,1,3.17-6.86c1.12-.62,2.33-1.06,3.49-1.6,1.44-.67,2.91-1.31,4.31-2.07a8.77,8.77,0,0,0,4.66-7.11c.35-3.1.86-6.18,1.21-9.28a6.2,6.2,0,0,1,2.52-4.45c2.17-1.64,4.47-3.09,6.61-4.76a20.18,20.18,0,0,0,4-3.73c4.3-5.88,1.22-13.41-5.94-14.7-2.28-.41-4.6-.6-6.89-1a6.71,6.71,0,0,1-5.78-6.64c0-.56.05-1.12,0-1.68,0-2.47,0-4.95-.19-7.41-.36-3.92-2.34-7.1-6.88-7.67a2.56,2.56,0,0,1-2.4-2.24c-.71-2.8-2.54-5-4.44-7-2.22-2.4-6.22-3.19-9.08.66-.76,1-1.54,2-2.35,3a6,6,0,0,1-4.61,2.23c-.79,0-1.59,0-2.39-.07a3.41,3.41,0,0,0-3.88,3.06C102,246.71,101.7,254.3,101.23,263.05Zm269.29-.2c0-.72-.1-1.43-.1-2.14a8.75,8.75,0,0,0-3.35-7.11c-1.35-1.12-2.75-2.2-4.2-3.19A50,50,0,0,1,351.68,240a37.5,37.5,0,0,0-3.07-3.36,3.3,3.3,0,0,0-4.74-.15c-.55.46-1.05,1-1.6,1.44a18.85,18.85,0,0,0-6.43,10.94,8.41,8.41,0,0,0,2.52,8.08,13.64,13.64,0,0,0,2,1.67,6.18,6.18,0,0,1,2.87,4.48c.32,2.3.72,4.58,1.06,6.87a13.79,13.79,0,0,1-2.11,9.16,6.47,6.47,0,0,1-6.66,3.34q-1.56-.15-3.09-.45c-4.15-.82-8.29-1.71-12.46-2.47-3.57-.66-5,.17-6.47,3.34-.82,1.83-1,1.93-2.83.91-2.3-1.29-4.56-2.64-6.81-4a10.57,10.57,0,0,0-8.28-1.39A8.51,8.51,0,0,0,289,285a7.75,7.75,0,0,0,2.78,8.58,22.8,22.8,0,0,0,5,3.29,18.91,18.91,0,0,1,9.73,9.14,13.19,13.19,0,0,0,2.87,3.79,10.27,10.27,0,0,1,3.48,6.11,16.07,16.07,0,0,0,3.3,6.85,9.77,9.77,0,0,0,7.49,4.18,48.83,48.83,0,0,0,7.65-.06,13.43,13.43,0,0,0,12.33-13.79c0-.56,0-1.12,0-1.68a2.34,2.34,0,0,1,1.47-2.27c.94-.43,1.9-.83,2.85-1.25,4.76-2.08,9.57-4.05,14.26-6.28,5.86-2.8,10.66-6.73,12.8-13.22a3,3,0,0,1,1.44-1.39,4.26,4.26,0,0,1,3.93-.13,17,17,0,0,0,2.48.87,6.1,6.1,0,0,0,7.73-3.73,2.58,2.58,0,0,1,2.27-1.82c.63-.08,1.27-.17,1.89-.3a5.76,5.76,0,0,0,4.64-5.14,6.16,6.16,0,0,0-1.57-4.4A15.81,15.81,0,0,0,386.69,266c-3.24-.45-6.52-.66-9.78-1A16,16,0,0,1,370.52,262.85Zm206.06,1.72c0-1.28,0-2.56,0-3.83a3.39,3.39,0,0,0-.47-1.81c-1.63-2.16-3.24-4.31-6-5.31a51.33,51.33,0,0,1-6.74-3.11,18.21,18.21,0,0,1-7.7-7,18.32,18.32,0,0,0-2.42-3.27,12.09,12.09,0,0,0-5.89-3.95c-2.4-.61-4.21.51-4.55,2.9-.69,4.83-3.38,8.35-7.16,11.17-1.67,1.24-3.39,2.4-5.06,3.64a8.21,8.21,0,0,0-3.57,7.19,49.91,49.91,0,0,1-.36,5.72,8.87,8.87,0,0,1-4.86,7.24c-2.09,1.19-4.11,2.48-6.13,3.77a12.15,12.15,0,0,0-4.82,5.52,7.33,7.33,0,0,0,3.89,10,26.26,26.26,0,0,0,4.59,1.31c1.94.45,3.93.71,5.86,1.21s2.58,1.3,2.72,3.41c.06.8,0,1.6.08,2.4a8.19,8.19,0,0,0,5.67,7.82c1.12.43,2.28.72,3.43,1.07a4.43,4.43,0,0,1,3.06,3.1,9.07,9.07,0,0,1-1.16,8.65,29.29,29.29,0,0,1-8.48,7.3,14.52,14.52,0,0,0-5.08,19.72,13.51,13.51,0,0,1,2.12,7c-.09,3.28,3.2,5.85,6.55,5.32,3.68-.58,6.33-2.34,7.79-5.91,1.57-3.84,3.38-7.58,5.07-11.36,1.5-3.36,3-6.7,4.45-10.09,3.22-7.66,6.43-15.32,9.56-23,3.22-7.91,6.43-15.84,9.51-23.81,1.66-4.31,3-8.77,4.58-13.1A23.81,23.81,0,0,0,576.58,264.57ZM343.66,195.43c1.46-.72,2.93-1.32,4.28-2.13,3.69-2.17,6.5-6.06,3.52-11.59a24.52,24.52,0,0,1-1.29-2.56c-1-2.62-.57-3.56,2.1-4.47.23-.07.46-.16.69-.22,4.63-1.25,7.75-4.34,10-8.36a14.22,14.22,0,0,0-2.18-16c-1-1-1.89-2-2.87-2.9a6.53,6.53,0,0,0-4.94-2.08c-12.87.57-25.5-1.32-38.07-3.79a137,137,0,0,0-25.93-2.9c-2.16,0-4.31.16-6.46.33a3.84,3.84,0,0,0-3.65,3c-1.39,4.41.83,8.31,5.43,9.44,3.25.8,4,2,2.84,5.19a21.83,21.83,0,0,1-2.37,4.41,14.28,14.28,0,0,0-2.27,7.69,6.72,6.72,0,0,0,8.8,6.39c1.51-.52,3-1.07,4.5-1.66,2.89-1.16,5.75-2.39,8.65-3.53,2.07-.81,2.53-.74,3.93,1a20.94,20.94,0,0,1,2.18,3.69c2.1,4.05,4.64,7.67,9.13,9.39a5.6,5.6,0,0,1,3.79,5.81c-.15,2.8-.93,5.53-4.09,6.73a51,51,0,0,0-5.91,2.61c-5.34,2.84-5.59,9.61-.48,12.81a6.63,6.63,0,0,0,2.66,1,21,21,0,0,0,5,.06,3.65,3.65,0,0,1,3.69,1.53c1.31,1.59,2.86,3,4.3,4.49a10.34,10.34,0,0,0,5.22,2.77c4.45,1,8.43.3,11.64-3.15s3.76-7.28,2.18-11.57c-1.27-3.44-2.58-6.86-3.86-10.3A7.42,7.42,0,0,1,343.66,195.43ZM69.86,440.16c4.86,1.68,7.83-.86,10.17-4.59a63.46,63.46,0,0,0,3.1-5.67,2.64,2.64,0,0,1,2-1.76A6.44,6.44,0,0,0,89,425.46,17.15,17.15,0,0,0,92.59,415c0-5.35-.18-10.72-.7-16-.88-9.09-1.88-18.15-.7-27.27,1-7.71,2.29-15.34,5.44-22.53a15,15,0,0,0,1.28-4.59c.42-5,.83-10.06.87-15.09,0-3.81-.53-7.64-.85-11.45q-.74-8.6-1.52-17.18a3.29,3.29,0,0,0-4.21-3.09,7.05,7.05,0,0,0-3.4,2,36.94,36.94,0,0,0-4.74,6.88,92.91,92.91,0,0,0-8.72,29.77c-.48,3.89-.72,7.83-1.58,11.64-1.5,6.62-3.34,13.17-5.13,19.72-2.67,9.79-5.09,19.66-9.22,29-1.68,3.8-3.33,7.62-4.9,11.46-1.15,2.82-2.12,5.69,1.23,7.91-.34.5-.58.91-.87,1.27-4.06,4.84-8.21,9.6-13.34,13.38a3.37,3.37,0,0,0-.91,4.49,3.18,3.18,0,0,0,4.19,1.23,14,14,0,0,0,3-2c1.17-1,2.17-2.14,3.34-3.09a3.66,3.66,0,0,1,2.07-.89,4.93,4.93,0,0,0,3.26-1.3c1.27-1.08,2.51-2.2,3.87-3.4,1.9,1.4,3.6.7,5.28-.49a12.32,12.32,0,0,1,1.78-.89c-3.19,5.93-7.1,10.94-13.6,13.29a3.31,3.31,0,0,0-2.26,4,3.27,3.27,0,0,0,4.08,2.39c1.23-.25,2.42-.69,3.73-1.07.15.44.25.81.4,1.17,1.06,2.53,3.09,3.21,5.39,1.67a12.23,12.23,0,0,0,2.54-2.49C68.47,442.44,69.09,441.33,69.86,440.16ZM218.43,387.1c.12-3.07-.85-4.78-2.71-6.06-3.68-2.55-7.51-3.87-11.89-1.81-.72.34-1.49.55-2.24.84-2.79,1.06-5.16,1.22-7.54-1.37-3.71-4-8.19-3.73-11.85.32a32.23,32.23,0,0,0-5.78,9.05c-1.41,3.31-3,6.56-4.29,9.9-1.22,3-2.21,6.16-3.33,9.23-1.19,3.26-.77,6.23.68,9.45,3.77,8.37,8.32,16.37,11.73,24.93,2.3,5.78,4.87,11.45,6.54,17.47.95,3.43,2.3,4.21,5.84,3.38a16.15,16.15,0,0,1,8-.3c4,1.08,8,2.17,12.05,3.14a15.06,15.06,0,0,0,4.7.56c2.83-.23,4.2-2.23,3.77-5-.14-.87-.33-1.73-.47-2.59-.78-4.81-1.6-9.6-3.59-14.11a37,37,0,0,1-2-6.13c-1.12-4.49-2.22-9-3.06-13.55-.72-3.92-1.07-7.9-1.56-11.86a2.85,2.85,0,0,1,.15-1.19c1.26-3.95,2.41-7.93,3.84-11.82A56.23,56.23,0,0,0,218.43,387.1ZM572.21,170.91a27.9,27.9,0,0,0-5.4-14.27c-1.91-2.56-4-5-5.86-7.57a42.49,42.49,0,0,1-3.43-5.47,57.86,57.86,0,0,0-7.44-11.14,36.82,36.82,0,0,1-3.06-4c-1.65-2.55-3.9-4.25-7-2.84-1.29.59-2.4.1-3.33-1.08-2.14-2.75-5-4.66-7.89-6.57a19.81,19.81,0,0,0-13-3.32c-5.65.49-11.32,1.1-16.71,3-4.91,1.74-9.64,3.91-13.32,7.78-2.27,2.39-2.34,3.64-.53,6.34a9.52,9.52,0,0,0,1.22,1.47,88,88,0,0,0,15.71,12.15,50,50,0,0,0,6.41,3.25,19.94,19.94,0,0,0,11.75,1.4c2.43-.43,4.79-1.23,7.21-1.72a26.21,26.21,0,0,1,4.25-.36,1.47,1.47,0,0,1,1.6,1.43c.22,1.42.56,2.82.8,4.24.65,3.78.91,7.66,2,11.32a177.08,177.08,0,0,0,12.65,32.32,18.47,18.47,0,0,0,1.72,2.59c2.23,2.87,4.78,2.8,7.14,0a24.44,24.44,0,0,1,3.71-3.32c1.07-.83,2.33-1.4,3.45-2.18a11.62,11.62,0,0,0,4.95-6.52C571.34,182.27,571.21,176.47,572.21,170.91ZM143,409.25c-.35-3.2-.65-5.82-.91-8.44a42.4,42.4,0,0,0-4.66-16.27,18.77,18.77,0,0,0-3.15-4.16,32.55,32.55,0,0,0-4.48-3.6,5.72,5.72,0,0,1-2.16-3.29,52.92,52.92,0,0,0-3.06-8c-2.21-4.44-6.12-6.6-10.93-7.2-3.17-.4-4.71,1-5.16,4.18-1.11,7.83-2.15,15.68-3.54,23.46a49.51,49.51,0,0,0,2.69,28c2.41,5.91,5.18,11.68,7.78,17.51a24.48,24.48,0,0,1,1,2.42,65.58,65.58,0,0,1,2.84,27.71c-.42,4.06-1,8.09-1.66,12.11-.54,3.55,1.22,5.94,4.84,6.28a7.48,7.48,0,0,0,6.64-2.62c2.58-2.95,5.14-5.91,7.74-8.83a5.72,5.72,0,0,0,1.38-4.44c-.23-3.51-.46-7-.65-10.53-.41-7.37-.5-14.71,1.17-22q1.42-6.19,2.61-12.44C142,415.66,142.47,412.18,143,409.25ZM441,142.55c-6.46-.38-12.77.81-19.1,1.64a3.13,3.13,0,0,0-2.67,2.46,3.46,3.46,0,0,0,1.18,3.67,12.11,12.11,0,0,0,2.22,1.41,7.21,7.21,0,0,1,4,6.89c-.09,2.79-.36,5.58-.7,8.35-.57,4.63.73,8.36,4.84,10.88.88.55,1.81,1,2.63,1.67,2.92,2.22,6.06,4.3,7.41,7.95a19.9,19.9,0,0,0,4.48,6.73,10,10,0,0,0,7.24,3.21,10.39,10.39,0,0,0,7.44-2.79c4.23-3.72,8-7.86,10.4-13a4.72,4.72,0,0,1,3.26-2.87,31.38,31.38,0,0,0,11.19-5.83c6-4.52,9.1-10.26,8.18-18-.38-3.17-1.66-5.11-4.75-6.12a79.09,79.09,0,0,0-16.42-3.33C461.56,144.37,451.28,143.51,441,142.55ZM212.82,292.47c1.5-.2,3.16-.39,4.81-.66a5,5,0,0,0,3.64-2.84,8.93,8.93,0,0,0-2.19-10.88,12.15,12.15,0,0,0-11.15-2.9c-1.48.33-3,.73-4.43,1-2.32.48-2.53.4-3.52-1.7a9.63,9.63,0,0,0-5.95-5.22c-1.29-.41-2.63-.68-3.95-1-2.63-.63-3.86-2-3.9-4.7a32.57,32.57,0,0,1,.33-5.5c.52-3.31,1.24-6.59,1.82-9.89a5.2,5.2,0,0,0-2.27-5.66,5.37,5.37,0,0,0-6.11.29,6.14,6.14,0,0,0-1.75,1.61,63.62,63.62,0,0,0-4.82,8c-2.86,6.35-4,12.95-1.82,19.82a6.48,6.48,0,0,1,.08,2.6c-.46,3.6-2.55,6.37-5,8.77a29.78,29.78,0,0,0-5.72,7.64c-1.59,3.1-2.4,6.45-1.21,10a18.16,18.16,0,0,0,7.23,9.26,5.55,5.55,0,0,0,5.05.67c.83-.28,1.7-.48,2.52-.79a2.47,2.47,0,0,1,3.16.92c.74,1,1.45,2.1,2.14,3.18,3.15,5,6,10.17,10,14.61a5.44,5.44,0,0,0,5.29,2c2.09-.33,2.67-2,3.23-3.75a29.7,29.7,0,0,0,.68-17c-1.46-5.54.12-10.61,2.63-15.45,1.31-2.51,3.87-3.47,6.73-3C209.77,292.14,211.2,292.27,212.82,292.47Zm261.47,73.09a21.86,21.86,0,0,1-.62-4c.17-4.29-2.16-6.74-5.89-8-3-1-5.26-.39-6.56,2.2-.43.86-1,1.68-1.3,2.57-1.61,4.17-3.41,8.29-4.68,12.57a137.66,137.66,0,0,0-3.38,14.45c-.76,4.15.29,5.95,4.09,7.57,5.29,2.25,10.62,4.44,16,6.39A68.25,68.25,0,0,0,482.14,402a24.9,24.9,0,0,0,13.93-.82,80.45,80.45,0,0,0,26.39-17.09,11.65,11.65,0,0,0,3.46-5.92c.76-3.25-.4-6.49-3.31-7.61-2.52-1-2.62-1.57-2.15-4.23a23.39,23.39,0,0,0,.4-4.72c-.12-4.15-2.52-6.5-6.64-6.46a10.48,10.48,0,0,0-3.93.75A22.7,22.7,0,0,0,500,364.62c-1.45,2.2-3,4.34-4.6,6.43-1.11,1.44-2.61,2.81-4.47,2.09s-4.26-1.5-4.85-4.14a6.46,6.46,0,0,0-1.23-2.54c-1.72-2.18-4.68-2.81-7.88-1.8Zm-7.2,94.7c-.66,4.6-1.3,9.34-2,14.07-.7,4.5-1.48,9-2.26,13.46a3.39,3.39,0,0,0,3.56,4.27c6.94.08,13.27-1.69,18.6-6.39,4.81-4.24,5.62-6.3,5-12.29-.41-4.29-.52-8.62-.9-12.91A26.07,26.07,0,0,1,492,446.8c.38-.8.76-1.59,1.17-2.37,2-3.89,4.16-7.74,6.11-11.68,1.66-3.37,3.13-6.83,4.64-10.27a18.16,18.16,0,0,0,.93-2.72c1.15-4.31-1.82-9.6-7.3-8.95-.88.11-1.75.22-2.63.29-6.74.58-13.47,2.08-20.25.24a15.21,15.21,0,0,0-2.12-.39c-4.28-.52-6.89.47-6.84,5.77,0,.32,0,.64,0,1,0,6.08,0,12.16.12,18.23.14,5.11.53,10.22.81,15.33C466.74,454.18,466.91,457.12,467.09,460.26ZM295.14,206.09c1-1.18,1.92-2.2,2.83-3.19a31.46,31.46,0,0,0,5.72-8c2.21-4.85-.84-11.9-6-13.54a12.63,12.63,0,0,0-10.79,1.48c-3.75,2.23-3.82,2.12-7.11-.5a9.28,9.28,0,0,0-13.51,2.56,42.73,42.73,0,0,1-16.57,16.58c-1.61.89-3.25,1.75-4.77,2.77-2.56,1.72-2.55,4.58,0,6.27,1.13.73,2.43,1.19,3.63,1.82,2.25,1.18,2.51,1.85,1.68,4.21-.18.53-.39,1-.58,1.57a8.8,8.8,0,0,0,1.93,9.59c6.08,6.31,15,6.91,20.78-.05,1.38-1.65,2.53-3.49,3.82-5.23.66-.87,1.38-1.7,2.15-2.64,1,.56,1.81,1,2.66,1.47a14.12,14.12,0,0,0,9.5,1.5c2.65-.58,4.43-2.37,6.37-4.07a6.63,6.63,0,0,0,.73-9.08C296.81,208.6,296.09,207.45,295.14,206.09ZM245.82,524.92l0-.22c3.12-.14,6.24-.21,9.34-.43a8.64,8.64,0,0,0,3-.81c1.69-.8,2.06-1.81,1.64-3.71-1.23-5.52-4.52-9.83-8.3-13.77a43,43,0,0,0-10.11-7.65,15.65,15.65,0,0,1-5.71-5.33c-1.84-2.89-3.55-5.87-5.27-8.84A18.85,18.85,0,0,0,218,475.11a36.18,36.18,0,0,1-4.82-1.45c-2.81-1.13-5.56-2.41-8.34-3.62a11.71,11.71,0,0,0-8.87-.54c-2.64.94-3.36,3.11-2,5.53,2.09,3.77,4.16,7.56,6.06,11.42,2.58,5.23,4.91,10.59,7.51,15.81a40.86,40.86,0,0,1,3.47,9.42c.5,2.23,1.53,3.11,3.81,3.25a34.54,34.54,0,0,0,4.55,0,2,2,0,0,1,2.29,1.28c.27.57.63,1.11.93,1.67a9.48,9.48,0,0,0,6.39,5,26.82,26.82,0,0,0,3.48.87C236.92,524.21,241.37,524.54,245.82,524.92Zm158.31-9.66.54,0c0,4.63-.2,9.27.06,13.89.2,3.51,2.8,7.16,6.86,7.45,1.12.08,2.24.14,3.34.33,2.74.48,5.22,1.42,6.78,4a13.09,13.09,0,0,0,6.38,5.61,51.65,51.65,0,0,0,8.23,2.49,14.77,14.77,0,0,0,8.93-.91,4,4,0,0,0,2.59-2.64,34.52,34.52,0,0,0,1.53-10.87c-.19-3-1.06-5.72-3.41-7.67-3.19-2.65-6.47-5.19-9.8-7.66a5.07,5.07,0,0,1-2.31-3.71,28.67,28.67,0,0,1-.11-3.34c.07-2.8.22-5.59.27-8.39.07-4.66-1.89-7.93-6.44-9.56a9.64,9.64,0,0,1-5.63-4.54c-1.56-3-4.26-4.2-7.56-4.17-.56,0-1.12.11-1.68.06-3.33-.25-5.16,1.71-6.41,4.42a8.83,8.83,0,0,0-.79,3C405,500.43,404.58,507.85,404.13,515.26Zm177.8-316.08a34.13,34.13,0,0,0-12.67,2.22,13.73,13.73,0,0,0-7.09,6.14A25.73,25.73,0,0,0,559,222.07a12.25,12.25,0,0,0,1.14,4.36c2,4.59,5.84,6.77,10.55,7.77a6.74,6.74,0,0,1,2.61,1c2.67,2,5.57,2.85,8.79,1.91a14.84,14.84,0,0,1,9.57.64,13.17,13.17,0,0,0,12.11-1.82,43.3,43.3,0,0,0,6.37-5.76c2.76-2.79,3.8-6.37,4.34-10.18a11.06,11.06,0,0,0-1.34-7.83,21,21,0,0,0-8.83-8.16A55.58,55.58,0,0,0,581.93,199.18ZM153,543.4v-.33c2,0,4,0,6,0a3.1,3.1,0,0,0,3.33-2.82c.39-1.88.53-3.8.86-5.69,1-5.92-1.7-9.93-6.42-13-3.2-2.11-6.24-4.45-9.38-6.65a6.68,6.68,0,0,1-2.77-4.33c-.45-2.27-.76-4.57-1.15-6.85-1-5.5-1.86-11-3-16.5a4.46,4.46,0,0,0-3.6-3.76c-1.87-.34-3.21.65-4.22,2.15-3,4.38-7.28,6.84-12.19,8.38-3.37,1.06-4.41,2.85-3.6,6.35a20.2,20.2,0,0,1,.57,3.05c.39,6.06.83,12.12,1.05,18.19.17,4.73,2.71,7.82,7.41,8.45a13.79,13.79,0,0,0,2.87.1,3.44,3.44,0,0,1,3.27,1.61c.66,1,1.19,2.07,1.75,3.12,1.83,3.49,4,6.7,8.24,7.36C145.71,542.72,149.38,543,153,543.4Zm59.18-177.29c-.17.79-.26,1.18-.33,1.56-.37,2,.17,3.4,1.56,4.13s3.12.33,4.49-1.11a13.48,13.48,0,0,0,3.11-7.15,5.3,5.3,0,0,0-1.64-5.05C214,354,208.92,349,203.12,345.12c-9.15-6.13-18.66-11.76-29.23-15.26-3.32-1.1-5.85.12-6.7,3.58-.72,2.94-1.48,5.89-2,8.87-.78,4.32-1.4,8.67-2,13a5.52,5.52,0,0,0,1.91,4.93,16.27,16.27,0,0,0,2.05,1.65c1.87,1.33,3.77,2.63,5.73,4-.43,1.29-.81,2.41-1.19,3.54a3.16,3.16,0,0,0,.81,3.52,3.56,3.56,0,0,0,4,.69c2.73-1,4.43-3.12,5.83-5.46a3.83,3.83,0,0,1,3.71-2.07c2.24.06,4.47,0,6.71.12,1.49.06,3,.3,4.5.46-.07.48-.11.71-.14.94-.25,1.91.26,3.14,1.63,3.89a3.14,3.14,0,0,0,4-.54c.89-.87,1.56-2,2.38-2.93.43-.5.9-1.23,1.46-1.33C208.26,366.39,210.09,366.31,212.21,366.11ZM130.94,359c.19,1.74.24,3.52.6,5.23A9,9,0,0,0,133,368a30.66,30.66,0,0,0,5.44,5.7,17.23,17.23,0,0,1,7,10c.5,2,1.62,2.87,3.3,2.92a3.58,3.58,0,0,0,3.7-2.8,16.84,16.84,0,0,0,.7-3c.51-4.2,1.09-8.4,1.39-12.62a240.8,240.8,0,0,1,2.83-25c1.17-6.61,2.3-13.22,3.49-19.82a5.4,5.4,0,0,0-2.58-6A12.14,12.14,0,0,1,152.4,311a3.18,3.18,0,0,0-3.41-2.15c-1.6.13-2.46,1.18-3.08,2.64a27.92,27.92,0,0,1-2.4,4.35,23.87,23.87,0,0,1-2.24,2.49c-3.16,3.55-4.67,7.58-3.64,12.36.43,2,.83,4.06,1.37,6.06.5,1.85,1.15,3.65,1.75,5.47.88,2.71.69,3.27-1.66,4.72-.89.54-1.82,1-2.67,1.61C132.78,351.05,130.4,354.25,130.94,359ZM492.77,530.18l0,.25c3.42-.26,6.85-.41,10.25-.81,2.69-.32,4.11-1.94,4.34-4.63.51-6-1.71-11.72-8.19-14.19a26.19,26.19,0,0,1-5.52-2.84c-3.47-2.39-5.33-5.64-4.5-10,.33-1.72,0-3.2-1.62-4.14-1.43-.85-3-.49-4.59.81a29.56,29.56,0,0,1-4.14,2.81,21.32,21.32,0,0,1-10.39,2.37,20.46,20.46,0,0,0-4.19.78,1.41,1.41,0,0,0-1.19,1.77c.47,3.32.92,6.64,1.42,10a3.79,3.79,0,0,0,2.63,3.15c1.27.44,2.64.65,3.9,1.13,3.17,1.18,6.32,2.13,7.06,6.4.65,3.74,3.32,6.12,7.31,6.55C487.83,529.79,490.3,530,492.77,530.18ZM169.51,237.41c.11-4.23-.84-6.93-3.15-8.89a18.9,18.9,0,0,1-3.56-4.13c-.85-1.25-1.72-2.5-2.65-3.7-2.29-3-6-2.54-7.71.8a34.15,34.15,0,0,1-2.91,4.62,23.4,23.4,0,0,0-4.3,7.94,6.83,6.83,0,0,0,2.35,7.49,23.63,23.63,0,0,1,3.8,4.25,6.48,6.48,0,0,1,.62,2.94,8.94,8.94,0,0,1-.34,1.63c-.33,2.7,1.44,4.58,4.11,4.17a10.37,10.37,0,0,0,3.81-1.29C165.9,249.36,169.12,243.59,169.51,237.41Zm299.92,15.65a7.22,7.22,0,0,0-1.55-3.86,25.07,25.07,0,0,0-9.24-7.42c-2-1-3.76-.3-4.77,1.71-.49,1-1,2-1.6,2.91a34.06,34.06,0,0,0-4.7,10.94,7.94,7.94,0,0,0,3.52,8.73c.73.5,1.56.84,2.24,1.39a8.31,8.31,0,0,1,2,2c2.3,3.78,5.32,5,9.52,3.75a4.34,4.34,0,0,0,3.23-3.18,13,13,0,0,0-.43-8.67,4.35,4.35,0,0,1,.17-3.87A44.88,44.88,0,0,0,469.43,253.06Z" transform="translate(-0.48 -0.48)"/><path class="cls-1" d="M318.45,356.05c5.9,2.57,5.73,5.59,3.83,9.77a30.76,30.76,0,0,1-7.08,9.29,10.41,10.41,0,0,1-6.54,2.66c-5.85.51-11.65-.1-17.46-.68a183.51,183.51,0,0,1-34.73-7c-2.67-.8-5.45-1.32-8-2.33a27.39,27.39,0,0,1-13.5-11.4,17.17,17.17,0,0,0-4.37-4.66,73.51,73.51,0,0,0-16.64-9.43,55.11,55.11,0,0,1-7.14-3.91c-2-1.21-2.5-3-1.63-5.15a33.87,33.87,0,0,0,2.42-11.17,39.34,39.34,0,0,1,1.21-8.52c2.05-7.53,6.79-11.94,16.72-11.39.47,0,1,.11,1.43.15,2.16.19,3-.34,3.16-2.48a12.43,12.43,0,0,0-.35-4c-1.66-6.64.61-12.2,4.91-17,3.31-3.68,7.56-5,12.4-3.17a6.13,6.13,0,0,1,2.27,1.64A23.4,23.4,0,0,1,251,279.9c1.62,2.41,3.44,4.27,6.81,3.85a6,6,0,0,1,6.79,4.13,29.59,29.59,0,0,1,2,5.87c.53,3.54,2.93,5.14,5.79,6.37a22,22,0,0,0,8.63,1.76c1.68,0,3.36.09,5,.12,6.45.09,10.71,3.76,13.9,8.86,1.75,2.79.85,5.65-.68,8.38-1.68,3-3.19,6.07-4.76,9.12a16.62,16.62,0,0,0-1.58,7c-.16,3,1.2,4.95,4.16,5.54a24.64,24.64,0,0,0,5.23.2c3.44-.06,6.87-.37,10.3-.28,3.68.11,7.41,3.69,8.17,7.32.37,1.8-.31,3.29-1,4.83C319.41,353.93,319,354.92,318.45,356.05Z" transform="translate(-0.48 -0.48)"/><path class="cls-1" d="M367.92,194c-1.66-2-2.78-3.79-2.93-6.1a7.73,7.73,0,0,1,1.81-6c1.6-1.77,3.39-3.38,5.05-5.1a49.51,49.51,0,0,0,3.82-4.25,5,5,0,0,0,.6-5.42,9.82,9.82,0,0,1-.29-7.93,6.61,6.61,0,0,0-.51-6.4,8.23,8.23,0,0,1-.93-2.2c-.68-2.42.64-4.48,3.14-4.57,6.62-.22,13.26-.3,19.89-.43.56,0,1.12.1,1.67.07,2.64-.12,4.59.74,5.82,3.29a16.42,16.42,0,0,0,2.84,3.54c3.34,3.69,4,7.85,2.35,12.48-.87,2.4-1.79,4.79-2.51,7.24a18.27,18.27,0,0,0-.57,4.24,2.64,2.64,0,0,0,2.11,2.84c1.54.42,3.09.78,4.65,1.12,2.5.54,5,.93,7.5,1.57,6,1.56,10.54,4.79,12.91,10.76,1.09,2.75,1.13,5.33-.46,7.78a33.49,33.49,0,0,1-3.86,4.86,46.35,46.35,0,0,0-7.9,11.67,3.71,3.71,0,0,0,.55,4.53,25.21,25.21,0,0,0,9,7c1.94.95,3.82,2,5.7,3.06a13.5,13.5,0,0,1,5.45,17.16c-5.19,11.11-14.2,17.17-26.47,17.54-7.53.22-13.73-3.19-18.52-9-.87-1.05-1.72-2.11-2.56-3.18a13.2,13.2,0,0,0-9-5c-2.53-.34-5.08-.55-7.63-.8a11,11,0,0,1-4.93-1.71,37.29,37.29,0,0,0-3.59-1.92,9.4,9.4,0,0,1-5.11-6,17.68,17.68,0,0,0-3.22-6.09c-3-4-5.54-8.21-5.91-13.4-.28-3.86.77-6.92,4.53-8.66a10.52,10.52,0,0,0,4.4-4.29,2.76,2.76,0,0,0-.06-3.33,5,5,0,0,1,.68-6.89A29.84,29.84,0,0,1,367.92,194Z" transform="translate(-0.48 -0.48)"/><path class="cls-1" d="M603.25,160.46c-1.09,2.65-2.28,5.27-3.24,8a76.82,76.82,0,0,0-4.14,19.42c0,.32,0,.64-.07,1-.32,2.27-1.65,3.46-4,3.16-3.4-.44-6.79-1-10.16-1.68a3.15,3.15,0,0,1-2.75-3.41c0-6.48.13-13,.16-19.43,0-2.87,0-5.75-.15-8.62a6.78,6.78,0,0,0-2.82-5,42.68,42.68,0,0,1-5.12-5c-2.88-3.32-5.72-6.68-8.4-10.17a99.29,99.29,0,0,1-10-16.37,4.37,4.37,0,0,1,1.63-5.88,14.42,14.42,0,0,0,1.93-1.41,7.35,7.35,0,0,0,3-4.73c.41-2.12.81-4.24,1.34-6.33a10.84,10.84,0,0,1,5.72-7,18.05,18.05,0,0,1,8.42-2.48c2.95,0,5.89-.45,8.84-.7a6.51,6.51,0,0,1,6.7,3.25c.24.41.57.78.82,1.19a2.83,2.83,0,0,0,3.45,1.4,11.07,11.07,0,0,1,3.1-.19c3,.13,4.75,1.29,5.3,4.24s2.59,4.63,5,6a18.22,18.22,0,0,0,1.71.86c4.38,1.9,6.82,5.51,8.92,9.6a11.15,11.15,0,0,0,7.4,6c2.22.53,4.07-.68,5.68-2A47.9,47.9,0,0,1,643,117.2c5.42-2.39,10.95-4.53,16.91-5.13,10.66-1.08,19.23,2.9,26,11a24.26,24.26,0,0,1,2.55,4.33,3.43,3.43,0,0,1-.78,4.37c-5.45,5.19-11.11,10.12-17.79,13.72A24,24,0,0,1,659,148.26a38.48,38.48,0,0,1-13.68-2,42.76,42.76,0,0,0-11-2.09A10.71,10.71,0,0,0,625,148.3a6.17,6.17,0,0,0-1.06,3.31c-.3,3.66-.18,7.37-.69,11-.59,4.1-1.61,8.15-2.57,12.19-1.6,6.68-3.3,13.33-5,20a9.51,9.51,0,0,1-.51,1.59A3.72,3.72,0,0,1,610,198.2c-2.76-1.45-5.48-3-8.21-4.48-1.52-.84-1.89-2.29-2-3.86a65.52,65.52,0,0,1,1.43-19.3c.81-3.33,1.64-6.65,2.46-10Zm7.49,6.27c2.52-.91,4.82-1.9,5.41-4.66a53.13,53.13,0,0,0,.75-6.9c0-.46-.32-1.33-.58-1.36a1.92,1.92,0,0,0-1.6.55,32.47,32.47,0,0,0-3.34,5.78A11.61,11.61,0,0,0,610.74,166.73Z" transform="translate(-0.48 -0.48)"/><path class="cls-1" d="M184,217.53a10.08,10.08,0,0,0-6.6-.22,21.71,21.71,0,0,1-5.37,1c-3.28.08-4.77-2.26-3.54-5.33a72.73,72.73,0,0,1,3.29-7.44,33.15,33.15,0,0,1,12.09-12.4c2.36-1.49,4.66-3.08,6.91-4.74,2.59-1.9,3.15-4.68,3-7.69a1.8,1.8,0,0,0-1.38-1.72,16.32,16.32,0,0,1-3.63-1.78,5.6,5.6,0,0,1-.86-8.59,11.77,11.77,0,0,1,6.14-3.54c2.86-.73,5.75-1.38,8.6-2.15s4-2,4.16-5.09c.17-2.54.06-5.11.13-7.66.07-3.13,1-4.05,4.14-4.34a80.86,80.86,0,0,0,19.44-4c4-1.41,8.09-2.48,12.14-3.73,6-1.83,12-1.53,18.09-1.07.79.06,1.59.16,2.38.26,2.11.28,3.26,1.28,3.35,3.38a9.8,9.8,0,0,0,2.75,6.24c3.75,4.17,4.46,9,3.74,14.32-1.2,8.75-6.78,14.28-14.17,17.78-11.32,5.38-18.51,14.08-22.8,25.56-1.23,3.27-1.36,6.71-1.68,10.12-.09,1,0,2.08,0,3.12a15,15,0,0,1-9.95,14.4,9.61,9.61,0,0,1-9-.69,37.53,37.53,0,0,1-5.59-4.47c-2.61-2.47-5.88-2.93-8.87-1-2.34,1.53-4.63,3.14-7,4.6a15.15,15.15,0,0,1-3.87,1.81,5.56,5.56,0,0,1-6.67-2.88,11,11,0,0,1-.35-10.16C183.23,218.86,183.56,218.32,184,217.53Z" transform="translate(-0.48 -0.48)"/><path class="cls-1" d="M482.17,247.5c-2.95-1.88-5.61-3.62-8.32-5.28-3.89-2.37-7.88-4.58-11.7-7.06-3.34-2.17-6.53-4.59-9.73-7a12.46,12.46,0,0,1-3.9-5.39,8.08,8.08,0,0,1,1.25-8.35,16.62,16.62,0,0,1,7-5.25c2.94-1.26,5.87-2.55,8.86-3.66,4.92-1.82,8.89-5,12.65-8.51a25.8,25.8,0,0,0,2.16-2.86c1.64-2.06,3.24-4.17,5-6.1a9.47,9.47,0,0,1,7.31-3,55.83,55.83,0,0,0,6.47-.28,12.37,12.37,0,0,0,7.68-3.54,13.29,13.29,0,0,0,2.6-4.53,46.85,46.85,0,0,1,3.68-7.77c3.27-5.08,8.78-5.42,12.55-.67,2.06,2.59,3.49,5.7,5.07,8.64,1.4,2.6,2.62,5.29,3.94,7.93,2.18,4.36,4.72,8.57,6.51,13.08,4.32,10.89,2.78,22.94-6.52,31.76a61.48,61.48,0,0,1-9.55,7.61,48.44,48.44,0,0,0-5.09,4,4.86,4.86,0,0,0-1.76,4c0,.56,0,1.12,0,1.68.57,6.59-2.48,11.49-7.55,15.13a36.9,36.9,0,0,1-20.47,7.39c-3.55.12-7-.28-10.16-2.19-5.59-3.39-6.41-8.46-2.71-13.89.76-1.11,1.83-2,2.69-3.06C480.86,249.52,481.42,248.58,482.17,247.5Z" transform="translate(-0.48 -0.48)"/><path class="cls-1" d="M170.39,173.53c1.22.95,2.38,1.8,3.48,2.72,5.45,4.53,4.42,12.35-2,15.3-3.36,1.54-7,1.64-10.58,1.63-1.68,0-3.35,0-5,0a5.68,5.68,0,0,0-1.87.39c-3.13,1.22-3.42.78-3.46,4.49-.06,5.84-1.54,11.42-3.37,16.86-2.68,8-11.94,10.46-18.54,5.2-.88-.7-1.67-1.5-2.56-2.17-1.66-1.24-2.4-1.26-4.13-.17-1,.65-2,1.37-3,2.06a26.78,26.78,0,0,1-10.74,4.5c-2.2.39-3.79-.39-4.36-2.38-1.49-5.13-3.25-10.24-4.14-15.48-1.46-8.55-1.89-17.26.54-25.7C106.37,160.9,119.36,148,139,141.64a50.67,50.67,0,0,1,17.47-2.54c9.74.36,19.47,1,29.2,1.59a9.15,9.15,0,0,1,4.91,1.71c1.75,1.24,2.3,2.64,1.38,4.52a8.17,8.17,0,0,1-2.25,3,42.82,42.82,0,0,1-6.11,3.73c-1.29.66-2.07,1.39-2,2.89s0,2.87,0,4.3a6.11,6.11,0,0,1-2.09,5.38,40.21,40.21,0,0,1-5.59,3.63C172.42,170.69,171.05,171.53,170.39,173.53Z" transform="translate(-0.48 -0.48)"/><path class="cls-1" d="M497.34,301c1.35-.13,2.7-.36,4.06-.37,4.9,0,9.38,1.14,11.68,5.93,2,4.11,1.2,8.28-1,12.16-.87,1.53-1.92,2.95-2.87,4.43a6.4,6.4,0,0,0-.94,5.26c.56,2.16,1,4.37,1.54,6.53a11.69,11.69,0,0,1-.47,7.3,25.69,25.69,0,0,1-10.66,12.88,13.32,13.32,0,0,1-7.55,2,8.61,8.61,0,0,1-5.95-2.16c-2.38-2.24-4.79-4.48-7-6.93-1.3-1.46-2.67-2.68-4.6-2.68-7.27,0-12.71-3.91-17.92-8.23a8.91,8.91,0,0,0-6.31-2.4c-6.05.28-9.21-3.82-12.08-8.11-.86-1.28-.88-3.18-1.07-4.83a3.26,3.26,0,0,0-1.55-2.75c-4.17-2.6-4.95-6.66-4.37-11.1a35.6,35.6,0,0,1,1.58-6,13.53,13.53,0,0,0,.25-7.33c-.27-1.16-.56-2.33-.83-3.5a10.87,10.87,0,0,1,1.71-9.14,29.58,29.58,0,0,1,4.58-5.2,8.2,8.2,0,0,1,6.5-1.88,20.89,20.89,0,0,1,13.21,7.58.85.85,0,0,1,.14.19c2,4.52,6.13,4.2,10,4.2a3.53,3.53,0,0,0,2.3-1.47c1-1.4,1.81-3,2.71-4.51.71-1.16,1.41-2.32,2.19-3.43,1.52-2.17,4.14-2.47,7.07-.62a17.21,17.21,0,0,1,7.86,12.37,30.34,30.34,0,0,1,0,6.67c-.19,3-.05,3.47,2.79,4.39a41.77,41.77,0,0,0,4.88,1Z" transform="translate(-0.48 -0.48)"/><path class="cls-1" d="M409.71,464.52c-.26-6.52-.58-13-2.43-19.27-1.32-4.45-2.34-9-3.23-13.49a60.74,60.74,0,0,1,0-22.65,26.63,26.63,0,0,0,.31-6.18c-.71-11.9-1.32-23.79-.3-35.7.37-4.22.41-8.47.64-12.7a21.48,21.48,0,0,1,.41-3.08,5.54,5.54,0,0,1,7.37-4.11c2.6,1,5.16,2.14,7.71,3.27a11.45,11.45,0,0,1,2.26,1.35c3.32,2.59,7.09,2.62,11,2,2.53-.42,5-1.07,7.55-1.33a13.13,13.13,0,0,1,4.71.41c2.31.63,3.46,2.46,3.75,4.78a12.13,12.13,0,0,1-1,6.09c-4.2,10.33-6.17,21.16-7.14,32.18a71.13,71.13,0,0,0-.09,11c.2,2.85,1.17,5.63,1.6,8.47a50.73,50.73,0,0,1-5.21,31.64c-4.61,8.93-7.07,18.32-6.47,28.39a5.47,5.47,0,0,1-2.3,5.16c-1.54,1.16-2.88,1.41-4.39.29a39.7,39.7,0,0,0-11.94-6c-2.29-.71-3.24-2.43-3.13-5.07C409.42,468.15,409.59,466.32,409.71,464.52Z" transform="translate(-0.48 -0.48)"/><path class="cls-1" d="M379.74,373.1c-2.7-.26-5.4-.66-8.1-.77-3.51-.13-7-.06-10.54,0-2.16,0-4.32,0-6.47.23a32.15,32.15,0,0,0-5.84,1.09c-2.83.83-5.57,2-8.39,2.87a9.43,9.43,0,0,1-6.35-.23,4.75,4.75,0,0,1-2.71-7,15.68,15.68,0,0,1,2.49-3.5,45.57,45.57,0,0,1,10.79-8.7c3.9-2.2,3.91-2.46,2.61-6.65-.61-2-1.16-4-1.6-6a22,22,0,0,1,9.06-22.46,127.5,127.5,0,0,1,11.82-7.32c6-3.13,10.84-7.6,15.61-12.23,1.37-1.33,2.71-2.73,4.19-3.94,3.63-3,7.63-5.28,12.39-5.89,2.19-.28,3.8-1.59,5.37-3s2.91-2.77,4.5-3.95a8,8,0,0,1,12.65,5.41,7.13,7.13,0,0,1-1.64,5.35c-1.07,1.49-2.33,2.85-3.32,4.39a5.84,5.84,0,0,0-.93,2.87,12,12,0,0,1-2.44,6.89c-1,1.37-2,2.69-2.93,4.1s-.87,2.49.66,3.45a33.68,33.68,0,0,0,4.93,2.43,10.27,10.27,0,0,1,6.56,9c.43,3.94-1.38,6.55-5.31,7.19a13.78,13.78,0,0,1-5.2-.15A11.54,11.54,0,0,0,401,338.87c-1.79,1.47-3.58,2.94-5.32,4.47-2.83,2.48-3.4,5.73-2.72,9.2a25.64,25.64,0,0,0,1.82,5.17,11.17,11.17,0,0,1,.79,7.24,8.73,8.73,0,0,1-6.12,6.76A36.66,36.66,0,0,1,379.74,373.1Z" transform="translate(-0.48 -0.48)"/><path class="cls-1" d="M210,248.6c-1-2.24-1.4-4-.74-5.81a5.18,5.18,0,0,1,5-3.72A38.11,38.11,0,0,1,226.52,241c.83.3,1.67.55,2.51.82a8,8,0,0,0,8.24-1.41c4.79-3.93,10.31-4.39,16.06-2.32,3.37,1.21,6.77,2.2,9.78,4.4s7.17,1.57,9.91-.89c2-1.76,3.88-3.58,5.83-5.35a17.06,17.06,0,0,1,11.63-4.36A29.13,29.13,0,0,1,300,233a1.85,1.85,0,0,0,2.13-.5c1.8-1.81,3.73-3.44,4.94-5.8,1.51-3,4.25-4.48,7.45-5.1a6.93,6.93,0,0,1,4.64.76c6.43,3.38,9.23,11.57,3.83,17.82-.47.54-.91,1.11-1.36,1.67-2.59,3.17-2.53,3.68.45,6.5a15.75,15.75,0,0,1,5.07,14.54,12.19,12.19,0,0,1-10.87,10.23,20.63,20.63,0,0,1-15-3.83,31.13,31.13,0,0,0-6.61-3.29,4.55,4.55,0,0,0-2.77.1c-2,.57-3.91,1.41-5.9,2a2.38,2.38,0,0,0-1.85,2.18,27.13,27.13,0,0,1-2.94,8.83,9.15,9.15,0,0,1-5.9,4.89c-3.49.86-6.14-.42-7.54-3.78-.66-1.61-1.17-3.29-1.78-4.93-.69-1.86-2.11-3-3.63-4.26-5.83-4.89-12.68-4.31-19.41-3.82-4.52.32-9,1.58-13.47,2.27-6.31.95-12.57.94-18.68-1.31-1.79-.66-3.69-1.07-5.48-1.73-4-1.48-6.29-4.55-7.33-8.54-.65-2.47.24-4.8,1.56-6.83A5.08,5.08,0,0,1,204,248.6C205.82,248.62,207.65,248.6,210,248.6Z" transform="translate(-0.48 -0.48)"/><path class="cls-1" d="M101.23,263.05c.47-8.75.79-16.34,2.37-23.8a3.41,3.41,0,0,1,3.88-3.06c.8,0,1.6.09,2.39.07a6,6,0,0,0,4.61-2.23c.81-1,1.59-2,2.35-3,2.86-3.85,6.86-3.06,9.08-.66,1.9,2,3.73,4.2,4.44,7a2.56,2.56,0,0,0,2.4,2.24c4.54.57,6.52,3.75,6.88,7.67.23,2.46.15,4.94.19,7.41,0,.56,0,1.12,0,1.68a6.71,6.71,0,0,0,5.78,6.64c2.29.39,4.61.58,6.89,1,7.16,1.29,10.24,8.82,5.94,14.7a20.18,20.18,0,0,1-4,3.73c-2.14,1.67-4.44,3.12-6.61,4.76a6.2,6.2,0,0,0-2.52,4.45c-.35,3.1-.86,6.18-1.21,9.28a8.77,8.77,0,0,1-4.66,7.11c-1.4.76-2.87,1.4-4.31,2.07-1.16.54-2.37,1-3.49,1.6a6.25,6.25,0,0,0-3.17,6.86,96,96,0,0,1,2.19,16.13c.22,5.8-2,10.4-6,14.36-.51.5-1,1-1.55,1.5a3.79,3.79,0,0,1-3.23,1.27,54.46,54.46,0,0,1-5.41-.89c-2.89-.67-4.18-2.76-4.49-5.54-1-8.9-2-17.8-2.92-26.7-1.43-13.67-2.53-27.38-4.53-41C101.79,272.46,101.59,267.16,101.23,263.05Z" transform="translate(-0.48 -0.48)"/><path class="cls-1" d="M370.52,262.85a16,16,0,0,0,6.39,2.14c3.26.3,6.54.51,9.78,1a15.81,15.81,0,0,1,11.12,6.37,6.16,6.16,0,0,1,1.57,4.4,5.76,5.76,0,0,1-4.64,5.14c-.62.13-1.26.22-1.89.3a2.58,2.58,0,0,0-2.27,1.82,6.1,6.1,0,0,1-7.73,3.73,17,17,0,0,1-2.48-.87,4.26,4.26,0,0,0-3.93.13,3,3,0,0,0-1.44,1.39c-2.14,6.49-6.94,10.42-12.8,13.22-4.69,2.23-9.5,4.2-14.26,6.28-.95.42-1.91.82-2.85,1.25a2.34,2.34,0,0,0-1.47,2.27c0,.56,0,1.12,0,1.68a13.43,13.43,0,0,1-12.33,13.79,48.83,48.83,0,0,1-7.65.06,9.77,9.77,0,0,1-7.49-4.18,16.07,16.07,0,0,1-3.3-6.85,10.27,10.27,0,0,0-3.48-6.11,13.19,13.19,0,0,1-2.87-3.79,18.91,18.91,0,0,0-9.73-9.14,22.8,22.8,0,0,1-5-3.29A7.75,7.75,0,0,1,289,285a8.51,8.51,0,0,1,6.61-6.56,10.57,10.57,0,0,1,8.28,1.39c2.25,1.37,4.51,2.72,6.81,4,1.82,1,2,.92,2.83-.91,1.43-3.17,2.9-4,6.47-3.34,4.17.76,8.31,1.65,12.46,2.47q1.53.3,3.09.45a6.47,6.47,0,0,0,6.66-3.34,13.79,13.79,0,0,0,2.11-9.16c-.34-2.29-.74-4.57-1.06-6.87a6.18,6.18,0,0,0-2.87-4.48,13.64,13.64,0,0,1-2-1.67,8.41,8.41,0,0,1-2.52-8.08,18.85,18.85,0,0,1,6.43-10.94c.55-.46,1.05-1,1.6-1.44a3.3,3.3,0,0,1,4.74.15,37.5,37.5,0,0,1,3.07,3.36,50,50,0,0,0,11.19,10.4c1.45,1,2.85,2.07,4.2,3.19a8.75,8.75,0,0,1,3.35,7.11C370.42,261.42,370.49,262.13,370.52,262.85Z" transform="translate(-0.48 -0.48)"/><path class="cls-1" d="M576.58,264.57a23.81,23.81,0,0,1-1.53,9.87c-1.62,4.33-2.92,8.79-4.58,13.1-3.08,8-6.29,15.9-9.51,23.81-3.13,7.7-6.34,15.36-9.56,23-1.42,3.39-2.95,6.73-4.45,10.09-1.69,3.78-3.5,7.52-5.07,11.36-1.46,3.57-4.11,5.33-7.79,5.91-3.35.53-6.64-2-6.55-5.32a13.51,13.51,0,0,0-2.12-7,14.52,14.52,0,0,1,5.08-19.72,29.29,29.29,0,0,0,8.48-7.3,9.07,9.07,0,0,0,1.16-8.65,4.43,4.43,0,0,0-3.06-3.1c-1.15-.35-2.31-.64-3.43-1.07a8.19,8.19,0,0,1-5.67-7.82c0-.8,0-1.6-.08-2.4-.14-2.11-.68-2.88-2.72-3.41s-3.92-.76-5.86-1.21a26.26,26.26,0,0,1-4.59-1.31,7.33,7.33,0,0,1-3.89-10,12.15,12.15,0,0,1,4.82-5.52c2-1.29,4-2.58,6.13-3.77a8.87,8.87,0,0,0,4.86-7.24,49.91,49.91,0,0,0,.36-5.72,8.21,8.21,0,0,1,3.57-7.19c1.67-1.24,3.39-2.4,5.06-3.64,3.78-2.82,6.47-6.34,7.16-11.17.34-2.39,2.15-3.51,4.55-2.9a12.09,12.09,0,0,1,5.89,3.95,18.32,18.32,0,0,1,2.42,3.27,18.21,18.21,0,0,0,7.7,7,51.33,51.33,0,0,0,6.74,3.11c2.75,1,4.36,3.15,6,5.31a3.39,3.39,0,0,1,.47,1.81C576.63,262,576.58,263.29,576.58,264.57Z" transform="translate(-0.48 -0.48)"/><path class="cls-1" d="M343.66,195.43a7.42,7.42,0,0,0,.2,1c1.28,3.44,2.59,6.86,3.86,10.3,1.58,4.29,1,8.19-2.18,11.57s-7.19,4.2-11.64,3.15a10.34,10.34,0,0,1-5.22-2.77c-1.44-1.49-3-2.9-4.3-4.49a3.65,3.65,0,0,0-3.69-1.53,21,21,0,0,1-5-.06,6.63,6.63,0,0,1-2.66-1c-5.11-3.2-4.86-10,.48-12.81a51,51,0,0,1,5.91-2.61c3.16-1.2,3.94-3.93,4.09-6.73a5.6,5.6,0,0,0-3.79-5.81c-4.49-1.72-7-5.34-9.13-9.39a20.94,20.94,0,0,0-2.18-3.69c-1.4-1.73-1.86-1.8-3.93-1-2.9,1.14-5.76,2.37-8.65,3.53-1.48.59-3,1.14-4.5,1.66a6.72,6.72,0,0,1-8.8-6.39,14.28,14.28,0,0,1,2.27-7.69,21.83,21.83,0,0,0,2.37-4.41c1.16-3.16.41-4.39-2.84-5.19-4.6-1.13-6.82-5-5.43-9.44a3.84,3.84,0,0,1,3.65-3c2.15-.17,4.3-.34,6.46-.33a137,137,0,0,1,25.93,2.9c12.57,2.47,25.2,4.36,38.07,3.79a6.53,6.53,0,0,1,4.94,2.08c1,.94,1.91,1.93,2.87,2.9a14.22,14.22,0,0,1,2.18,16c-2.28,4-5.4,7.11-10,8.36-.23.06-.46.15-.69.22-2.67.91-3.13,1.85-2.1,4.47a24.52,24.52,0,0,0,1.29,2.56c3,5.53.17,9.42-3.52,11.59C346.59,194.11,345.12,194.71,343.66,195.43Z" transform="translate(-0.48 -0.48)"/><path class="cls-1" d="M69.86,440.16c-.77,1.17-1.39,2.28-2.19,3.26a12.23,12.23,0,0,1-2.54,2.49c-2.3,1.54-4.33.86-5.39-1.67-.15-.36-.25-.73-.4-1.17-1.31.38-2.5.82-3.73,1.07a3.27,3.27,0,0,1-4.08-2.39,3.31,3.31,0,0,1,2.26-4c6.5-2.35,10.41-7.36,13.6-13.29a12.32,12.32,0,0,0-1.78.89c-1.68,1.19-3.38,1.89-5.28.49-1.36,1.2-2.6,2.32-3.87,3.4a4.93,4.93,0,0,1-3.26,1.3,3.66,3.66,0,0,0-2.07.89c-1.17.95-2.17,2.12-3.34,3.09a14,14,0,0,1-3,2,3.18,3.18,0,0,1-4.19-1.23,3.37,3.37,0,0,1,.91-4.49c5.13-3.78,9.28-8.54,13.34-13.38.29-.36.53-.77.87-1.27-3.35-2.22-2.38-5.09-1.23-7.91,1.57-3.84,3.22-7.66,4.9-11.46,4.13-9.33,6.55-19.2,9.22-29,1.79-6.55,3.63-13.1,5.13-19.72.86-3.81,1.1-7.75,1.58-11.64a92.91,92.91,0,0,1,8.72-29.77,36.94,36.94,0,0,1,4.74-6.88,7.05,7.05,0,0,1,3.4-2,3.29,3.29,0,0,1,4.21,3.09q.8,8.58,1.52,17.18c.32,3.81.87,7.64.85,11.45,0,5-.45,10.07-.87,15.09a15,15,0,0,1-1.28,4.59c-3.15,7.19-4.44,14.82-5.44,22.53-1.18,9.12-.18,18.18.7,27.27.52,5.32.66,10.69.7,16A17.15,17.15,0,0,1,89,425.46a6.44,6.44,0,0,1-3.85,2.68,2.64,2.64,0,0,0-2,1.76,63.46,63.46,0,0,1-3.1,5.67C77.69,439.3,74.72,441.84,69.86,440.16Z" transform="translate(-0.48 -0.48)"/><path class="cls-1" d="M218.43,387.1a56.23,56.23,0,0,1-3,12.47c-1.43,3.89-2.58,7.87-3.84,11.82a2.85,2.85,0,0,0-.15,1.19c.49,4,.84,7.94,1.56,11.86.84,4.55,1.94,9.06,3.06,13.55a37,37,0,0,0,2,6.13c2,4.51,2.81,9.3,3.59,14.11.14.86.33,1.72.47,2.59.43,2.78-.94,4.78-3.77,5a15.06,15.06,0,0,1-4.7-.56c-4-1-8-2.06-12.05-3.14a16.15,16.15,0,0,0-8,.3c-3.54.83-4.89.05-5.84-3.38-1.67-6-4.24-11.69-6.54-17.47-3.41-8.56-8-16.56-11.73-24.93-1.45-3.22-1.87-6.19-.68-9.45,1.12-3.07,2.11-6.2,3.33-9.23,1.33-3.34,2.88-6.59,4.29-9.9A32.23,32.23,0,0,1,182.2,379c3.66-4,8.14-4.34,11.85-.32,2.38,2.59,4.75,2.43,7.54,1.37.75-.29,1.52-.5,2.24-.84,4.38-2.06,8.21-.74,11.89,1.81C217.58,382.32,218.55,384,218.43,387.1Z" transform="translate(-0.48 -0.48)"/><path class="cls-1" d="M572.21,170.91c-1,5.56-.87,11.36-2.44,17a11.62,11.62,0,0,1-4.95,6.52c-1.12.78-2.38,1.35-3.45,2.18a24.44,24.44,0,0,0-3.71,3.32c-2.36,2.78-4.91,2.85-7.14,0a18.47,18.47,0,0,1-1.72-2.59A177.08,177.08,0,0,1,536.15,165c-1.06-3.66-1.32-7.54-2-11.32-.24-1.42-.58-2.82-.8-4.24a1.47,1.47,0,0,0-1.6-1.43,26.21,26.21,0,0,0-4.25.36c-2.42.49-4.78,1.29-7.21,1.72a19.94,19.94,0,0,1-11.75-1.4,50,50,0,0,1-6.41-3.25,88,88,0,0,1-15.71-12.15,9.52,9.52,0,0,1-1.22-1.47c-1.81-2.7-1.74-4,.53-6.34,3.68-3.87,8.41-6,13.32-7.78,5.39-1.91,11.06-2.52,16.71-3a19.81,19.81,0,0,1,13,3.32c2.88,1.91,5.75,3.82,7.89,6.57.93,1.18,2,1.67,3.33,1.08,3.11-1.41,5.36.29,7,2.84a36.82,36.82,0,0,0,3.06,4,57.86,57.86,0,0,1,7.44,11.14,42.49,42.49,0,0,0,3.43,5.47c1.88,2.58,3.95,5,5.86,7.57A27.9,27.9,0,0,1,572.21,170.91Zm-25.5-18.7a1.36,1.36,0,0,0-1.21,1.66,55.18,55.18,0,0,0,1.22,6.55c.88,3.23,3.77,4.36,6.44,5.61a1.93,1.93,0,0,0,1.67-.33c.28-.23.18-1,.14-1.51a2.88,2.88,0,0,0-.38-.87c-1.65-3.87-4.66-6.84-6.88-10.34C547.48,152.62,547,152.42,546.71,152.21Z" transform="translate(-0.48 -0.48)"/><path class="cls-1" d="M143,409.25c-.48,2.93-1,6.41-1.63,9.86q-1.19,6.24-2.61,12.44c-1.67,7.26-1.58,14.6-1.17,22,.19,3.51.42,7,.65,10.53a5.72,5.72,0,0,1-1.38,4.44c-2.6,2.92-5.16,5.88-7.74,8.83a7.48,7.48,0,0,1-6.64,2.62c-3.62-.34-5.38-2.73-4.84-6.28.62-4,1.24-8.05,1.66-12.11a65.58,65.58,0,0,0-2.84-27.71,24.48,24.48,0,0,0-1-2.42c-2.6-5.83-5.37-11.6-7.78-17.51a49.51,49.51,0,0,1-2.69-28c1.39-7.78,2.43-15.63,3.54-23.46.45-3.17,2-4.58,5.16-4.18,4.81.6,8.72,2.76,10.93,7.2a52.92,52.92,0,0,1,3.06,8,5.72,5.72,0,0,0,2.16,3.29,32.55,32.55,0,0,1,4.48,3.6,18.77,18.77,0,0,1,3.15,4.16A42.4,42.4,0,0,1,142,400.81C142.3,403.43,142.6,406.05,143,409.25Z" transform="translate(-0.48 -0.48)"/><path class="cls-1" d="M441,142.55c10.27,1,20.55,1.82,30.8,2.91a79.09,79.09,0,0,1,16.42,3.33c3.09,1,4.37,3,4.75,6.12.92,7.72-2.15,13.46-8.18,18a31.38,31.38,0,0,1-11.19,5.83,4.72,4.72,0,0,0-3.26,2.87c-2.42,5.17-6.17,9.31-10.4,13a10.39,10.39,0,0,1-7.44,2.79,10,10,0,0,1-7.24-3.21,19.9,19.9,0,0,1-4.48-6.73c-1.35-3.65-4.49-5.73-7.41-7.95-.82-.63-1.75-1.12-2.63-1.67-4.11-2.52-5.41-6.25-4.84-10.88.34-2.77.61-5.56.7-8.35a7.21,7.21,0,0,0-4-6.89,12.11,12.11,0,0,1-2.22-1.41,3.46,3.46,0,0,1-1.18-3.67,3.13,3.13,0,0,1,2.67-2.46C428.24,143.36,434.55,142.17,441,142.55Z" transform="translate(-0.48 -0.48)"/><path class="cls-1" d="M212.82,292.47c-1.62-.2-3-.33-4.46-.57-2.86-.48-5.42.48-6.73,3-2.51,4.84-4.09,9.91-2.63,15.45a29.7,29.7,0,0,1-.68,17c-.56,1.72-1.14,3.42-3.23,3.75a5.44,5.44,0,0,1-5.29-2c-4-4.44-6.86-9.61-10-14.61-.69-1.08-1.4-2.14-2.14-3.18a2.47,2.47,0,0,0-3.16-.92c-.82.31-1.69.51-2.52.79a5.55,5.55,0,0,1-5.05-.67,18.16,18.16,0,0,1-7.23-9.26c-1.19-3.51-.38-6.86,1.21-10a29.78,29.78,0,0,1,5.72-7.64c2.47-2.4,4.56-5.17,5-8.77a6.48,6.48,0,0,0-.08-2.6c-2.2-6.87-1-13.47,1.82-19.82a63.62,63.62,0,0,1,4.82-8,6.14,6.14,0,0,1,1.75-1.61,5.37,5.37,0,0,1,6.11-.29,5.2,5.2,0,0,1,2.27,5.66c-.58,3.3-1.3,6.58-1.82,9.89a32.57,32.57,0,0,0-.33,5.5c0,2.7,1.27,4.07,3.9,4.7,1.32.31,2.66.58,3.95,1a9.63,9.63,0,0,1,5.95,5.22c1,2.1,1.2,2.18,3.52,1.7,1.48-.31,2.95-.71,4.43-1a12.15,12.15,0,0,1,11.15,2.9A8.93,8.93,0,0,1,221.27,289a5,5,0,0,1-3.64,2.84C216,292.08,214.32,292.27,212.82,292.47Z" transform="translate(-0.48 -0.48)"/><path class="cls-1" d="M474.29,365.56l2.71-.9c3.2-1,6.16-.38,7.88,1.8a6.46,6.46,0,0,1,1.23,2.54c.59,2.64,2.87,3.37,4.85,4.14s3.36-.65,4.47-2.09c1.6-2.09,3.15-4.23,4.6-6.43a22.7,22.7,0,0,1,10.26-8.71,10.48,10.48,0,0,1,3.93-.75c4.12,0,6.52,2.31,6.64,6.46a23.39,23.39,0,0,1-.4,4.72c-.47,2.66-.37,3.26,2.15,4.23,2.91,1.12,4.07,4.36,3.31,7.61a11.65,11.65,0,0,1-3.46,5.92,80.45,80.45,0,0,1-26.39,17.09,24.9,24.9,0,0,1-13.93.82A68.25,68.25,0,0,1,472,399.29c-5.41-2-10.74-4.14-16-6.39-3.8-1.62-4.85-3.42-4.09-7.57a137.66,137.66,0,0,1,3.38-14.45c1.27-4.28,3.07-8.4,4.68-12.57.34-.89.87-1.71,1.3-2.57,1.3-2.59,3.58-3.21,6.56-2.2,3.73,1.27,6.06,3.72,5.89,8A21.86,21.86,0,0,0,474.29,365.56Z" transform="translate(-0.48 -0.48)"/><path class="cls-1" d="M467.09,460.26c-.18-3.14-.35-6.08-.52-9-.28-5.11-.67-10.22-.81-15.33-.15-6.07-.09-12.15-.12-18.23,0-.32,0-.64,0-1-.05-5.3,2.56-6.29,6.84-5.77a15.21,15.21,0,0,1,2.12.39c6.78,1.84,13.51.34,20.25-.24.88-.07,1.75-.18,2.63-.29,5.48-.65,8.45,4.64,7.3,8.95a18.16,18.16,0,0,1-.93,2.72c-1.51,3.44-3,6.9-4.64,10.27-2,3.94-4.07,7.79-6.11,11.68-.41.78-.79,1.57-1.17,2.37a26.07,26.07,0,0,0-2.86,13.67c.38,4.29.49,8.62.9,12.91.58,6-.23,8.05-5,12.29-5.33,4.7-11.66,6.47-18.6,6.39a3.39,3.39,0,0,1-3.56-4.27c.78-4.48,1.56-9,2.26-13.46C465.79,469.6,466.43,464.86,467.09,460.26Z" transform="translate(-0.48 -0.48)"/><path class="cls-1" d="M295.14,206.09c.95,1.36,1.67,2.51,2.52,3.56a6.63,6.63,0,0,1-.73,9.08c-1.94,1.7-3.72,3.49-6.37,4.07a14.12,14.12,0,0,1-9.5-1.5c-.85-.42-1.66-.91-2.66-1.47-.77.94-1.49,1.77-2.15,2.64-1.29,1.74-2.44,3.58-3.82,5.23-5.83,7-14.7,6.36-20.78.05a8.8,8.8,0,0,1-1.93-9.59c.19-.52.4-1,.58-1.57.83-2.36.57-3-1.68-4.21-1.2-.63-2.5-1.09-3.63-1.82-2.56-1.69-2.57-4.55,0-6.27,1.52-1,3.16-1.88,4.77-2.77a42.73,42.73,0,0,0,16.57-16.58,9.28,9.28,0,0,1,13.51-2.56c3.29,2.62,3.36,2.73,7.11.5a12.63,12.63,0,0,1,10.79-1.48c5.12,1.64,8.17,8.69,6,13.54a31.46,31.46,0,0,1-5.72,8C297.06,203.89,296.18,204.91,295.14,206.09Z" transform="translate(-0.48 -0.48)"/><path class="cls-1" d="M245.82,524.92c-4.45-.38-8.9-.71-13.34-1.16a26.82,26.82,0,0,1-3.48-.87,9.48,9.48,0,0,1-6.39-5c-.3-.56-.66-1.1-.93-1.67a2,2,0,0,0-2.29-1.28,34.54,34.54,0,0,1-4.55,0c-2.28-.14-3.31-1-3.81-3.25a40.86,40.86,0,0,0-3.47-9.42c-2.6-5.22-4.93-10.58-7.51-15.81-1.9-3.86-4-7.65-6.06-11.42-1.35-2.42-.63-4.59,2-5.53a11.71,11.71,0,0,1,8.87.54c2.78,1.21,5.53,2.49,8.34,3.62a36.18,36.18,0,0,0,4.82,1.45,18.85,18.85,0,0,1,12.39,9.05c1.72,3,3.43,5.95,5.27,8.84a15.65,15.65,0,0,0,5.71,5.33A43,43,0,0,1,251.51,506c3.78,3.94,7.07,8.25,8.3,13.77.42,1.9.05,2.91-1.64,3.71a8.64,8.64,0,0,1-3,.81c-3.1.22-6.22.29-9.34.43Z" transform="translate(-0.48 -0.48)"/><path class="cls-1" d="M404.13,515.26c.45-7.41.87-14.83,1.37-22.24a8.83,8.83,0,0,1,.79-3c1.25-2.71,3.08-4.67,6.41-4.42.56.05,1.12-.06,1.68-.06,3.3,0,6,1.22,7.56,4.17a9.64,9.64,0,0,0,5.63,4.54c4.55,1.63,6.51,4.9,6.44,9.56-.05,2.8-.2,5.59-.27,8.39a28.67,28.67,0,0,0,.11,3.34,5.07,5.07,0,0,0,2.31,3.71c3.33,2.47,6.61,5,9.8,7.66,2.35,2,3.22,4.71,3.41,7.67a34.52,34.52,0,0,1-1.53,10.87,4,4,0,0,1-2.59,2.64,14.77,14.77,0,0,1-8.93.91,51.65,51.65,0,0,1-8.23-2.49,13.09,13.09,0,0,1-6.38-5.61c-1.56-2.54-4-3.48-6.78-4-1.1-.19-2.22-.25-3.34-.33-4.06-.29-6.66-3.94-6.86-7.45-.26-4.62-.06-9.26-.06-13.89Z" transform="translate(-0.48 -0.48)"/><path class="cls-1" d="M581.93,199.18A55.58,55.58,0,0,1,604.26,204a21,21,0,0,1,8.83,8.16,11.06,11.06,0,0,1,1.34,7.83c-.54,3.81-1.58,7.39-4.34,10.18a43.3,43.3,0,0,1-6.37,5.76,13.17,13.17,0,0,1-12.11,1.82,14.84,14.84,0,0,0-9.57-.64c-3.22.94-6.12.09-8.79-1.91a6.74,6.74,0,0,0-2.61-1c-4.71-1-8.56-3.18-10.55-7.77a12.25,12.25,0,0,1-1.14-4.36,25.73,25.73,0,0,1,3.22-14.53,13.73,13.73,0,0,1,7.09-6.14A34.13,34.13,0,0,1,581.93,199.18Zm-7,21c1.26.16,1.83-.43,1.58-1.62-.28-1.4-3.89-4.91-5.3-5.14a1,1,0,0,0-1.24,1.07C569.8,216.83,572.5,219.89,574.88,220.2Zm22.78,2.11c3-.07,4.21-2,5.22-4.16.3-.66.79-1.45,0-1.9a2.16,2.16,0,0,0-1.91.15,44.56,44.56,0,0,0-4.18,3.48c-.34.31-.66,1.07-.51,1.38C596.52,221.72,597.18,222,597.66,222.31Z" transform="translate(-0.48 -0.48)"/><path class="cls-1" d="M153,543.4c-3.65-.4-7.32-.68-10.95-1.24-4.26-.66-6.41-3.87-8.24-7.36-.56-1-1.09-2.13-1.75-3.12a3.44,3.44,0,0,0-3.27-1.61A13.79,13.79,0,0,1,126,530c-4.7-.63-7.24-3.72-7.41-8.45-.22-6.07-.66-12.13-1.05-18.19a20.2,20.2,0,0,0-.57-3.05c-.81-3.5.23-5.29,3.6-6.35,4.91-1.54,9.22-4,12.19-8.38,1-1.5,2.35-2.49,4.22-2.15a4.46,4.46,0,0,1,3.6,3.76c1.1,5.48,2,11,3,16.5.39,2.28.7,4.58,1.15,6.85a6.68,6.68,0,0,0,2.77,4.33c3.14,2.2,6.18,4.54,9.38,6.65,4.72,3.12,7.44,7.13,6.42,13-.33,1.89-.47,3.81-.86,5.69a3.1,3.1,0,0,1-3.33,2.82c-2,.06-4,0-6,0Z" transform="translate(-0.48 -0.48)"/><path class="cls-1" d="M212.21,366.11c-2.12.2-4,.28-5.73.61-.56.1-1,.83-1.46,1.33-.82,1-1.49,2.06-2.38,2.93a3.14,3.14,0,0,1-4,.54c-1.37-.75-1.88-2-1.63-3.89,0-.23.07-.46.14-.94-1.52-.16-3-.4-4.5-.46-2.24-.1-4.47-.06-6.71-.12a3.83,3.83,0,0,0-3.71,2.07c-1.4,2.34-3.1,4.48-5.83,5.46a3.56,3.56,0,0,1-4-.69,3.16,3.16,0,0,1-.81-3.52c.38-1.13.76-2.25,1.19-3.54-2-1.36-3.86-2.66-5.73-4a16.27,16.27,0,0,1-2.05-1.65,5.52,5.52,0,0,1-1.91-4.93c.65-4.34,1.27-8.69,2-13,.54-3,1.3-5.93,2-8.87.85-3.46,3.38-4.68,6.7-3.58,10.57,3.5,20.08,9.13,29.23,15.26C208.92,349,214,354,219.4,358.49a5.3,5.3,0,0,1,1.64,5.05,13.48,13.48,0,0,1-3.11,7.15c-1.37,1.44-3,1.89-4.49,1.11s-1.93-2.17-1.56-4.13C212,367.29,212,366.9,212.21,366.11Z" transform="translate(-0.48 -0.48)"/><path class="cls-1" d="M130.94,359c-.54-4.76,1.84-8,5.48-10.49.85-.59,1.78-1.07,2.67-1.61,2.35-1.45,2.54-2,1.66-4.72-.6-1.82-1.25-3.62-1.75-5.47-.54-2-.94-4-1.37-6.06-1-4.78.48-8.81,3.64-12.36a23.87,23.87,0,0,0,2.24-2.49,27.92,27.92,0,0,0,2.4-4.35c.62-1.46,1.48-2.51,3.08-2.64A3.18,3.18,0,0,1,152.4,311a12.14,12.14,0,0,0,5.86,6.33,5.4,5.4,0,0,1,2.58,6c-1.19,6.6-2.32,13.21-3.49,19.82a240.8,240.8,0,0,0-2.83,25c-.3,4.22-.88,8.42-1.39,12.62a16.84,16.84,0,0,1-.7,3,3.58,3.58,0,0,1-3.7,2.8c-1.68-.05-2.8-.93-3.3-2.92a17.23,17.23,0,0,0-7-10A30.66,30.66,0,0,1,133,368a9,9,0,0,1-1.46-3.73C131.18,362.53,131.13,360.75,130.94,359Z" transform="translate(-0.48 -0.48)"/><path class="cls-1" d="M492.77,530.18c-2.47-.21-4.94-.39-7.4-.66-4-.43-6.66-2.81-7.31-6.55-.74-4.27-3.89-5.22-7.06-6.4-1.26-.48-2.63-.69-3.9-1.13a3.79,3.79,0,0,1-2.63-3.15c-.5-3.32-1-6.64-1.42-10a1.41,1.41,0,0,1,1.19-1.77,20.46,20.46,0,0,1,4.19-.78,21.32,21.32,0,0,0,10.39-2.37A29.56,29.56,0,0,0,483,494.6c1.63-1.3,3.16-1.66,4.59-.81,1.62.94,1.95,2.42,1.62,4.14-.83,4.39,1,7.64,4.5,10a26.19,26.19,0,0,0,5.52,2.84c6.48,2.47,8.7,8.23,8.19,14.19-.23,2.69-1.65,4.31-4.34,4.63-3.4.4-6.83.55-10.25.81Z" transform="translate(-0.48 -0.48)"/><path class="cls-1" d="M169.51,237.41c-.39,6.18-3.61,12-9.93,15.83a10.37,10.37,0,0,1-3.81,1.29c-2.67.41-4.44-1.47-4.11-4.17a8.94,8.94,0,0,0,.34-1.63,6.48,6.48,0,0,0-.62-2.94,23.63,23.63,0,0,0-3.8-4.25,6.83,6.83,0,0,1-2.35-7.49,23.4,23.4,0,0,1,4.3-7.94,34.15,34.15,0,0,0,2.91-4.62c1.7-3.34,5.42-3.78,7.71-.8.93,1.2,1.8,2.45,2.65,3.7a18.9,18.9,0,0,0,3.56,4.13C168.67,230.48,169.62,233.18,169.51,237.41Z" transform="translate(-0.48 -0.48)"/><path class="cls-1" d="M469.43,253.06a44.88,44.88,0,0,1-1.63,4.42,4.35,4.35,0,0,0-.17,3.87,13,13,0,0,1,.43,8.67,4.34,4.34,0,0,1-3.23,3.18c-4.2,1.22-7.22,0-9.52-3.75a8.31,8.31,0,0,0-2-2c-.68-.55-1.51-.89-2.24-1.39a7.94,7.94,0,0,1-3.52-8.73,34.06,34.06,0,0,1,4.7-10.94c.58-.94,1.11-1.92,1.6-2.91,1-2,2.78-2.72,4.77-1.71a25.07,25.07,0,0,1,9.24,7.42A7.22,7.22,0,0,1,469.43,253.06Z" transform="translate(-0.48 -0.48)"/><path class="cls-1" d="M610.74,166.73a11.61,11.61,0,0,1,.64-6.59,32.47,32.47,0,0,1,3.34-5.78,1.92,1.92,0,0,1,1.6-.55c.26,0,.62.9.58,1.36a53.13,53.13,0,0,1-.75,6.9C615.56,164.83,613.26,165.82,610.74,166.73Z" transform="translate(-0.48 -0.48)"/><path class="cls-1" d="M546.71,152.21c.28.21.77.41,1,.77,2.22,3.5,5.23,6.47,6.88,10.34a2.88,2.88,0,0,1,.38.87c0,.52.14,1.28-.14,1.51a1.93,1.93,0,0,1-1.67.33c-2.67-1.25-5.56-2.38-6.44-5.61a55.18,55.18,0,0,1-1.22-6.55A1.36,1.36,0,0,1,546.71,152.21Z" transform="translate(-0.48 -0.48)"/><path class="cls-1" d="M574.88,220.2c-2.38-.31-5.08-3.37-5-5.69a1,1,0,0,1,1.24-1.07c1.41.23,5,3.74,5.3,5.14C576.71,219.77,576.14,220.36,574.88,220.2Z" transform="translate(-0.48 -0.48)"/><path class="cls-1" d="M597.66,222.31c-.48-.34-1.14-.59-1.38-1.05-.15-.31.17-1.07.51-1.38A44.56,44.56,0,0,1,601,216.4a2.16,2.16,0,0,1,1.91-.15c.79.45.3,1.24,0,1.9C601.87,220.35,600.63,222.24,597.66,222.31Z" transform="translate(-0.48 -0.48)"/></svg>