<svg id="Layer_1" data-name="Layer 1" xmlns="http://www.w3.org/2000/svg" viewBox="0 0 720 612"><defs><style>.cls-1{fill:none;stroke:#000;stroke-miterlimit:10;stroke-width:0.01px;}</style></defs><path d="M.48,612.48V.48h720v612ZM194.76,279.84a11.2,11.2,0,0,0,.19,2.29c1.15,3.87,2,5.14,6,4.06,2.54-.69,5.17-1.05,7.75-1.59a3.72,3.72,0,0,1,3.14.73c2.32,1.69,4.7,3.29,7.05,4.94.52.36,1,.8,1.51,1.18,1.78,1.33,3.52,2.74,5.37,4,2.76,1.84,5.37,3.83,6.69,7a86,86,0,0,1,3.77,9.82c1.23,4.37,5.08,4.55,7.36,1.75,1.06-1.3,2.2-2.53,3.33-3.77a35.42,35.42,0,0,0,6.8-11.49,12.61,12.61,0,0,0,.76-5.16c-.6-8.81-1.75-17.51-6.15-25.42a18.93,18.93,0,0,1-1.56-3.24c-1-3.09-3.35-5-5.93-6.63-.34-.22-.73-.36-1-.6-4.82-3.93-5.19-2.88-5.84-9.65a44.21,44.21,0,0,0-.82-5c-1.4-6.54-5.65-10.39-11.87-12.22a37.3,37.3,0,0,0-11.61-1.48c-1.76.06-3.51.2-5.27.34-6,.48-11-1.23-14.6-6.37a26.4,26.4,0,0,0-3.27-3.82c-2.82-2.74-6-4.7-10.17-4.68-1.11,0-2.23-.32-3.34-.27a43.51,43.51,0,0,0-5,.56c-2.19.35-4.37.82-6.55,1.22-1.18.21-2.4.28-3.55.58a4.77,4.77,0,0,0-3.69,5.39c.11,1.19.29,2.39.3,3.58.08,6.89.13,13.79-3.33,20.09a2.54,2.54,0,0,0,.3,3.12,2.57,2.57,0,0,0,3.05.74c1.25-.48,2.47-1,3.94-1.66-.14,1.24-.25,2.26-.37,3.28-.52,4.32,1.5,5.88,5.51,4.26,1.14-.46,2.18-1.25,3.71-1.25-.15,1.07-.29,2-.42,2.93a17.26,17.26,0,0,0-.37,3.08c.15,3,2.32,4.19,4.94,2.75a8.13,8.13,0,0,1,4.48-1c-.42,1.55-.83,2.92-1.15,4.3-.59,2.61.56,4.39,3.23,4.88a24.89,24.89,0,0,0,3.57.22c1.17,0,2.35,0,3.61,0-.13.87-.2,1.42-.3,2-.58,3.45.27,4.74,3.67,5.37C190.56,279.3,192.54,279.52,194.76,279.84Zm56.4,180.9a24.4,24.4,0,0,0,3,12.58c.76,1.48,1.68,2.52,3.44,2.49s2.76-1.19,3.47-2.79c1.07-2.39,2.34-4.69,3.54-7,.7.2,1.16.3,1.61.45a29.86,29.86,0,0,0,8.14,1.89c1.64.09,3-.24,3.9-1.75s.44-2.73-.47-4a32.37,32.37,0,0,1-1.69-3.05,12.73,12.73,0,0,1,1.42,0,23.6,23.6,0,0,1,3.78.57,114.48,114.48,0,0,0,23.55,4.31,73.76,73.76,0,0,0,17.94-.27c4.8-.77,8.86-2.93,11-7.54,1.95-4.17,1.5-7.94-2.64-10.4-5-3-10.06-5.91-15.07-8.89-9.8-5.83-20.5-8.8-31.71-10.2-3.41-.43-6.83-.75-10.24-1.2a59.27,59.27,0,0,0-17.44.13,62.72,62.72,0,0,0-23.62,8.9,7.11,7.11,0,0,1-3.36,1c-4.78.41-9.55.85-14.3,1.49a32.47,32.47,0,0,0-6.24,1.66,3.59,3.59,0,0,0-2.45,3.95,3.08,3.08,0,0,0,2.89,3c2.43.45,4.89.69,7.35,1,1.29.15,2.58.2,3.87.29a5.06,5.06,0,0,1-2.1,1.39c-2.88,1.19-5.78,2.33-8.64,3.57a3.33,3.33,0,0,0-2.3,3.76,3.74,3.74,0,0,0,3.08,3.26,14.62,14.62,0,0,0,4.51.26c4.42-.64,8.81-1.51,13.21-2.29.5-.09,1-.15,1.5-.23l.49.63c-.5.27-1.15.42-1.47.83q-2.73,3.48-5.3,7.07a5.62,5.62,0,0,0-.85,2.21,3.68,3.68,0,0,0,2.36,4.23,3.17,3.17,0,0,0,4.13-1.92c1-2.28,2.85-3.09,5.12-3.33a36.23,36.23,0,0,0,11.84-3.7ZM618.35,312.52c-.31,2.81-.08,5.05,1.56,6.63,2.64,2.54,5.4,5,9.16,5.88,1.25.28,2.46.69,3.7,1a22.54,22.54,0,0,0,15-.85,31.32,31.32,0,0,1,22-.94,34.46,34.46,0,0,0,6.79,1.26,3.06,3.06,0,0,0,3.63-2.7c.69-4.26-.11-8.15-3.35-11.23-1.21-1.14-2.63-2-3.91-3.13-.52-.43-1.21-1-1.31-1.54a60.41,60.41,0,0,1-1.13-8.53c-.2-7.11-3.27-12.73-8.43-17.35a32.76,32.76,0,0,0-12.19-6.47c-3.18-1-6.32-2.2-9.51-3.24a1.85,1.85,0,0,1-1.57-1.79c-.32-4.37-3.1-7.44-5.79-10.5a6,6,0,0,0-3.06-1.75c-5.55-1.24-10.71,0-14.54,4.12a22.16,22.16,0,0,1-9.32,6c-3.93,1.35-7.88,2.65-11.81,4-3.56,1.2-7.06,2.55-10.89,2.72a6.31,6.31,0,0,0-2.47.84,3.38,3.38,0,0,0-1.94,3.32,3.87,3.87,0,0,0,2.26,3.43,14.16,14.16,0,0,0,1.6.5,54.85,54.85,0,0,1,12.62,5.74c3.93,2.59,8,5,11.89,7.66a33.44,33.44,0,0,1,5.17,4.24A20.05,20.05,0,0,1,618.35,312.52Zm-52.64,188.9c.87.95,1.39,1.56,1.94,2.12,1.91,1.93,3.75,3.94,5.78,5.74a15,15,0,0,0,3.86,2.34,2.31,2.31,0,0,0,2.87-.51,2.81,2.81,0,0,0,.41-3.35,14.88,14.88,0,0,0-1.05-1.88c-2.5-3.11-3.09-6.73-2.89-10.57a5.68,5.68,0,0,0-.06-1.43c-.24-1.09-.52-2.16-.84-3.22a18.1,18.1,0,0,0-6.06-8.45,11.54,11.54,0,0,1-3.46-5.1c-.45-1.28-.92-2.55-1.33-3.84-2.35-7.3-6.55-13.2-13.47-16.69-5.94-3-12.17-5.26-19-5.44-2.08-.06-4.15-.23-6.22-.38a25.43,25.43,0,0,1-8.82-2.07,28.54,28.54,0,0,0-4.8-1.41c-1.31-.34-2.67-.5-4-.87a54.4,54.4,0,0,0-19.7-1.88,16.49,16.49,0,0,0-9.27,3.52,3.35,3.35,0,0,0-1.48,3.54,8.78,8.78,0,0,0,1.35,3.29,42.94,42.94,0,0,0,12.23,11.33,63.89,63.89,0,0,0,30.58,8.65c3.51.11,4.6,1.39,4.31,4.91-.06.71-.32,1.4-.4,2.11a25.17,25.17,0,0,0-.46,5.23c.83,7.91,5.47,13.82,10.62,19.4a3,3,0,0,0,3.77.53,3.05,3.05,0,0,0,1.77-3.36c-.15-1.18-.5-2.33-.75-3.5-.42-2-.82-4-1.23-6l.46-.13c.31.71.59,1.43.93,2.13,1.33,2.73,2.64,5.46,4,8.16a3.23,3.23,0,0,0,3.57,1.86,3.47,3.47,0,0,0,2.84-2.9c.13-.54.14-1.11.23-1.66.16-1.05.35-2.1.53-3.14a8.32,8.32,0,0,1,1.53,2.27,64.19,64.19,0,0,0,3.72,6.11c2.3,3.12,5.76,1.78,6.68-1.48C564.84,504.21,565.22,503,565.71,501.42ZM137.41,232.8c1.07.83,1.88,1.49,2.71,2.1,2.44,1.79,7,.36,7.53-2.61.69-3.81.84-7.8-1.59-11.1-3.14-4.24-6.57-8.31-10.95-11.34a45.7,45.7,0,0,1-13.6-15.27c-4.09-7.22-7.42-14.86-11.14-22.3a33.42,33.42,0,0,0-3.23-5.57,77.9,77.9,0,0,0-6.09-6.76,8.26,8.26,0,0,0-3.15-2.11,40,40,0,0,0-8.55-2.19c-12.09-1.1-21.95,3.69-30.32,12.08a4.49,4.49,0,0,0-1.22,4.84,8.67,8.67,0,0,0,1.58,2.87,5.6,5.6,0,0,1,1.67,4.32c-.17,2-.3,4-.63,5.92-.22,1.26-.3,2.39.68,3.33a2.94,2.94,0,0,0,3.36.4c1-.37,1.87-.9,2.83-1.3.49-.2,1.2-.54,1.52-.35A54.23,54.23,0,0,1,73.54,191a1.8,1.8,0,0,1,.38,1.32,51.27,51.27,0,0,1-.19,5.26c-.21,1.94.11,3.06,1.38,3.69s2.36.3,3.77-1.16c.75-.77,1.52-1.52,2.68-2.68.08,1.69.11,2.78.19,3.87s.15,2.07.28,3.1a2.6,2.6,0,0,0,2,2.38A2.64,2.64,0,0,0,87,205.62c.75-1,1.47-2.1,2.26-3.09a3,3,0,0,1,4.22-.72c.81.5,1.58,1.09,2.4,1.58a2.75,2.75,0,0,1,1.57,2.51q0,3.09-.15,6.19c0,.71-.26,1.42-.26,2.13,0,2.75,1.58,4,4.22,3.1a24.61,24.61,0,0,0,3.64-1.8c1.33-.71,2.63-1.46,3.72-2.07,2.87,2,5.43,3.87,8.14,5.52,3.71,2.28,3.73,2.19,3,6.63a15.27,15.27,0,0,0-.29,4,2.57,2.57,0,0,0,4.32,1.66c.42-.35.7-.88,1.12-1.23,1.24-1,2.21-2.4,4.08-3-.15,1.45-.3,2.63-.39,3.81a39.4,39.4,0,0,0-.19,4.06,2.93,2.93,0,0,0,2,3,3.1,3.1,0,0,0,3.59-1.23C135,235.4,136.16,234.18,137.41,232.8ZM346,303.35c-1.13-.88-2.09-1.72-3.14-2.42-3.4-2.26-7.2-2.88-11.21-2.82-6.66.09-12.83,1.41-17.91,6.16-1.29,1.21-2.12,2.42-1.77,4.15a37.57,37.57,0,0,0,1.72,6.95,61.11,61.11,0,0,0,12.06,18.89,19.42,19.42,0,0,0,9.95,5.9,5,5,0,0,0,3.9-.57,15.27,15.27,0,0,1,8.76-2,8.46,8.46,0,0,1,6.77,3.47,6.35,6.35,0,0,0,9.06,1.17c5.22-3.7,15.19-6.83,23-1.36a15.37,15.37,0,0,0,4.84,2,4.81,4.81,0,0,0,4.53-.9,14,14,0,0,1,9-3.25,8.36,8.36,0,0,0,3.82-1.17,3.31,3.31,0,0,0,.76-5.17,12.16,12.16,0,0,0-1-1c-3.84-3.72-6.51-8.27-9.23-12.79-1.32-2.19-2.44-4.5-3.83-6.64a15.06,15.06,0,0,0-13.49-7.27,26.35,26.35,0,0,0-4.05.41c-2.27.37-4.52.83-6.83,1.26-.69-.95-1.36-1.84-2-2.75a8.87,8.87,0,0,0-6.31-4,33.16,33.16,0,0,0-7.38.19A24.79,24.79,0,0,0,346,303.35Zm240.74-53.5c-.25-.84-.4-1.37-.57-1.9a7.51,7.51,0,0,0-3.62-4.58,10.92,10.92,0,0,0-7.89-1.17c-1.54.38-3,1-4.56,1.43-2,.59-3.94,1.15-5.93,1.72-.4-.88-.67-1.45-.91-2a10.07,10.07,0,0,0-7-6.1,30.18,30.18,0,0,0-6.38-.78c-5.56-.22-10.74,1.55-15.8,3.54-2.58,1-4.87,1.44-7.09-.62a3.21,3.21,0,0,0-.85-.42c-5.58-2.56-13.33-.45-17.68,4.39-3.3,3.67-6.91,7.1-11.66,9-1.79.7-3.54,1.45-5.32,2.16a3.41,3.41,0,0,0,.43,6.62c.46.11,1,.11,1.42.18,4.51.65,9.07,1,13.5,2,13.41,3,26.77,6.16,40.16,9.19a34.09,34.09,0,0,0,12.65.55c15.28-2.29,29.71-7.49,44-13a4.77,4.77,0,0,0,3.23-4.36c.37-4.19-1.47-7.74-6.67-7.49-.79,0-1.59.15-2.38.25Zm-421.56,72.9,0,.29c-6,.19-12,.36-18,.58a43.84,43.84,0,0,0-5.5.43c-3.86.64-7.11,2.19-8.82,6.08a29,29,0,0,1-2.57,4.31c-2.18,3.26-1,6.24,2.87,6.88,2.2.37,4.42.62,6.63.95,12.87,1.92,25.73,3.94,38.61,5.75,8.62,1.22,17.28,2.17,25.92,3.23,5.59.68,10.46-.73,14.34-5,1.29-1.41,2.44-3,3.77-4.34,3.84-4,5.87-8.87,7.16-14.15a17.88,17.88,0,0,0,.08-8.54c-1-3.95-3.16-7.29-5.27-10.67a3.8,3.8,0,0,0-4.3-1.87,8.12,8.12,0,0,0-3.06,1.23c-3.43,2.47-6.85,5-10.14,7.63-3.49,2.81-6.91,5.65-11,7.55a8.32,8.32,0,0,1-4.12.86C182.85,323.53,174,323.15,165.13,322.75Zm166.81,64.8c-.15-.2-.24-.25-.24-.32a5.06,5.06,0,0,1,0-1c.68-5-1.26-9.18-4.33-13-4.31-5.37-13.65-6.12-18.07-1-.42.48-.95.87-1.41,1.31a9.77,9.77,0,0,0-2.6,10.35,28.92,28.92,0,0,0,5.4,10.35c1.26,1.54,2.37,3.2,3.48,4.86a183.27,183.27,0,0,0,16.74,22.15c4.9,5.38,10.83,9.33,18,10.93a122.54,122.54,0,0,0,13.29,1.72c4.44.51,8.9.89,13.34,1.4,3.09.36,6.15.91,9.24,1.26a3.54,3.54,0,0,0,3.81-1.94,3.88,3.88,0,0,0-.44-4.28,62.09,62.09,0,0,0-12.76-13.91c-5.22-4.06-11-5.66-17.57-3.6-2,.62-4,1.23-5.95,1.83-.42.13-.85.21-2,.47,3.75-7,3.08-13.2-1-19.35S339.23,386.72,331.94,387.55Zm45,14.14a26.38,26.38,0,0,0,1.06,3.23,33.35,33.35,0,0,0,3.12,5.88,6.66,6.66,0,0,0,8.72,2.07,9.67,9.67,0,0,0,3.68-4.61,30.54,30.54,0,0,0,2.93-12c.19-5.66.11-11.34.22-17a45.78,45.78,0,0,1,.44-6.19,49.72,49.72,0,0,0,.42-11.94c-.48-5.74-3.68-8.79-9.44-8.44a53.75,53.75,0,0,0-10.84,1.75c-6.85,1.85-13.63,4-20.38,6.2a121.92,121.92,0,0,0-11.58,4.55,11.32,11.32,0,0,0-6.76,7.9,5.7,5.7,0,0,0,2.08,6,12.09,12.09,0,0,0,7.08,2.59c2.92.24,5.85.3,8.94.45.18,1.7.33,3.44.54,5.17.51,4.14,1.28,8.2,3.55,11.82a8.37,8.37,0,0,0,8.48,4.26A78.16,78.16,0,0,0,376.92,401.69Zm215.76,24.05c2.09,0,4.73.1,7.36,0,4.55-.23,9.12-.34,13.62-1a24.75,24.75,0,0,0,16.42-9c2.79-3.5,5.45-7.1,8.09-10.71a18.42,18.42,0,0,1,5-4.78c3.84-2.46,7.65-5,10.59-8.56a101.09,101.09,0,0,0,6.39-8.37c4.33-6.53,8.57-13.11,9.85-21.12.51-3.23,1.55-6.36,2.3-9.55a3.33,3.33,0,0,0-1.36-3.79,3.44,3.44,0,0,0-3.85-.05,7.71,7.71,0,0,0-1.52,1.5c-3,3.42-5.95,6.92-9,10.26-4.85,5.25-9.94,10.21-16.72,13-3.56,1.44-7.08,3-10.7,4.22a10.63,10.63,0,0,0-6.56,6.47c-2,4.94-4.26,9.82-6.66,14.6a33,33,0,0,1-9.85,11.9,12.55,12.55,0,0,1-6.32,2.64c-4.46.43-8.92.83-13.36,1.34A53.88,53.88,0,0,0,572.86,418a24.22,24.22,0,0,0-4.64,2.45,3.4,3.4,0,0,0-1.39,3.81,3.09,3.09,0,0,0,2.87,2.51,39.69,39.69,0,0,0,6.43.36C581.46,426.79,586.78,426.24,592.68,425.74Zm-182.26-14a8.38,8.38,0,0,1-.9.57c-5.25,2.39-8.29,6.55-9.87,12a11,11,0,0,0,3.12,11.81c3.16,3.06,7.15,4.2,11.33,4.62,6.36.64,12.76,1,19.12,1.58,9.76.94,19.29-.65,28.8-2.5,3.11-.6,4.32-2.35,4.07-5.46a5.37,5.37,0,0,0-.61-2.28,53.78,53.78,0,0,0-4.14-6.43c-3.07-3.79-6.38-7.38-9.55-11.08-2.8-3.28-5.51-6.64-8.34-9.89a36.35,36.35,0,0,0-8.91-7.23,30.61,30.61,0,0,0-11.76-4.58c-10.92-1.41-14.81,6.18-13.64,13.82C409.39,408.3,410,409.89,410.42,411.71ZM261,331.59c1.09-2.27,2.1-4.34,3.08-6.42a37.86,37.86,0,0,0,3.43-11.68,6,6,0,0,0-1-4.08,3.13,3.13,0,0,0-4.33-1.36,14.55,14.55,0,0,0-4,3,63.29,63.29,0,0,0-4.47,5.92c-3,4.31-5.89,8.76-9.09,12.94-2.57,3.36-5.56,6.39-8.34,9.59-3.57,4.1-7.13,8.2-10.62,12.36a4.67,4.67,0,0,0-1.14,2.54c-.19,4.15.39,8.14,3.28,11.43,1,1.14,2,2.3,3,3.44,2.06,2.33,4.25,4.57,6.19,7,2.49,3.12,5.22,6.17,7,9.66a6.91,6.91,0,0,0,5.4,4c3.46.67,6.5-.58,9.39-2.14a15.22,15.22,0,0,0,8.4-11.84,21.67,21.67,0,0,0-3.56-15.53c-.94-1.37-1.91-2.71-2.94-4.17a9.41,9.41,0,0,1,1.1-.65,16,16,0,0,0,7.16-6.52c3.22-5,3-12.31-4.41-16C263.55,332.6,262.43,332.19,261,331.59Zm277.72,74.87c-.08-1.52,0-2.49-.2-3.43a15.9,15.9,0,0,0-7.55-11.4,17.14,17.14,0,0,0-11.33-2.21,29.91,29.91,0,0,0-11.09,3.65c-2.22,1.27-4.44,2.55-6.57,3.95a61.36,61.36,0,0,0-26.36,36.16c-.44,1.61-.36,3,.91,4.18a3.59,3.59,0,0,0,4,.5c2.16-.85,4.32-1.67,6.52-2.39a31.42,31.42,0,0,1,21.61.21,44.51,44.51,0,0,1,9.81,4.95c2.59,1.81,4.58,1.43,6.42-1.05a79.58,79.58,0,0,0,9.5-16.07A54.91,54.91,0,0,0,538.75,406.46ZM173.59,309.89c1.22,1.28,2.37,2.37,3.39,3.57a7.46,7.46,0,0,0,6.28,2.91c3.43-.15,6.86-.32,10.28-.66a6.43,6.43,0,0,0,4.2-2.07c2.56-2.75,5.24-5.38,7.84-8.09a12.48,12.48,0,0,0,1.78-2.26c1.28-2.16.75-3.94-1.41-5.07l-3.61-1.9c-4.59-2.42-9.13-4.93-13.78-7.24-2.19-1.09-4.47-2.16-7.11-1.69a2.92,2.92,0,0,1-1.78-.45,8.46,8.46,0,0,1-3.43-3.58,15.33,15.33,0,0,0-1.47-2.47,2.46,2.46,0,0,0-3.6-.56,9.57,9.57,0,0,0-1.83,2.16c-.58.86-1.06,1.79-1.57,2.69-1.78,3.14-4.85,2.86-7.81,3-2.48.13-2.47-2.1-3.44-3.41a1.32,1.32,0,0,1-.12-.2c-1.58-2.59-3.25-2.78-5.29-.55-1.67,1.82-3.25,3.74-5,5.52-1.45,1.48-2.7,1.3-4-.3A12.53,12.53,0,0,0,140,287c-1.53-1.15-3-.78-4.15.7-2.11,2.7-4.22,5.41-6.48,8a14.18,14.18,0,0,1-3.34,2.66c-3.75,2.29-7.57,4.46-11.35,6.7a3.68,3.68,0,0,0-1.21,5.21,56.17,56.17,0,0,0,4.32,4.81,3.14,3.14,0,0,0,2.06,1c2.8-.18,5.61-.47,7.18-3.4.84-1.57,1.88-3,2.9-4.66,1.38,1.84,2.5,3.39,3.67,4.9a5,5,0,0,0,8.2-.55c.47-.84.87-1.71,1.41-2.51.86-1.29,1.48-2.81,3.06-3.76,1.57,2.27,3.26,4.38,4.58,6.7,1.72,3,4.68,3.62,7.23,1.19.95-.91,1.94-1.78,3-2.74a43.68,43.68,0,0,0,2.77,3.95c1.56,1.76,3.07,1.76,4.74.16.57-.55,1-1.2,1.59-1.79C171.26,312.44,172.34,311.26,173.59,309.89Zm371.54,73.58a4.48,4.48,0,0,1,.07.71,2.91,2.91,0,0,1-.19.7c-1.79,4.46-1.21,8.75.9,12.95,1.08,2.14,2.14,4.3,3,6.52a6.1,6.1,0,0,1,.46,3.24c-.47,2.33-1.27,4.59-1.91,6.89a18.17,18.17,0,0,0-.68,2.78A3.39,3.39,0,0,0,549,420.9a3.48,3.48,0,0,0,4-1.26c.69-.88,1.32-1.81,2.06-2.64,2.49-2.83,4.85-5.72,6.22-9.31.42-1.11,1.08-2.13,1.61-3.21A71,71,0,0,0,568,392.37a137.37,137.37,0,0,0,3.42-17.62c.87-6.14-.61-11.93-3-17.51a6.06,6.06,0,0,0-6.23-4c-1.27.05-2.55-.05-3.83-.08-8.46-.21-16.86,1.35-25.35.63-3.31-.29-6.41,1.14-9.36,2.63a12.93,12.93,0,0,0-5.9,6.08c-2.16,4.4-1.78,8.59,1.49,12.23a22.24,22.24,0,0,0,5.35,4.36c5.45,3.16,11.47,4.3,17.73,4.35Zm64.5-29.36c1.3,2.18,2.49,4.13,3.64,6.12,3.53,6.09,12.33,11.71,21.88,5.81a21.77,21.77,0,0,0,9-10.87c.28-.73.56-1.47.86-2.24h2a10.41,10.41,0,0,0,9.2-4.69,19,19,0,0,0,2.37-4.41,2.6,2.6,0,0,1,3-2.05,14.06,14.06,0,0,0,3.11-.1c2.28-.37,4.56-.78,6.81-1.32a3.6,3.6,0,0,0,.55-6.65,14.92,14.92,0,0,0-4-1.44,45.74,45.74,0,0,0-13.62-.28c-6.07,1-12.11,2.15-18.15,3.32a6.37,6.37,0,0,1-4.58-.63,37.21,37.21,0,0,0-19.37-4.49,15,15,0,0,0-6.8,2c-8.14,4.39-16.06,9.26-25,12a10.18,10.18,0,0,0-2.38,1.13,3.2,3.2,0,0,0-1.56,3.48A3.12,3.12,0,0,0,579,351.5a10.31,10.31,0,0,0,2.6.21c3.17-.07,5.78.89,7.62,3.64a13.07,13.07,0,0,0,2.18,2.22,9.54,9.54,0,0,0,8.48,2.22,15.55,15.55,0,0,0,7.22-3.56ZM459.14,385.77c-.73,1.09-1.3,2-1.89,2.8a17.48,17.48,0,0,0-3,8,10.81,10.81,0,0,0,1.48,7.61c3.51,5.22,8.9,7,14.93,5a27,27,0,0,0,10-6,134,134,0,0,0,9.75-9.91,121.52,121.52,0,0,1,14.76-14.38,12.87,12.87,0,0,0,1.61-1.42,3.14,3.14,0,0,0,.18-4.19,16.28,16.28,0,0,0-4.13-3.53c-5.67-2.93-11.35-5.92-17.25-8.34-6.12-2.52-12.49-4.43-18.77-6.56a12.19,12.19,0,0,0-14.38,5.67,14.34,14.34,0,0,0-1.39,10.9C452.47,376.85,454.74,381.83,459.14,385.77Zm2.1-63.72c-6.51-8.26-15-10.11-24.43-6.88-2.29-1.69-4.17-3.55-6.42-4.62a36.93,36.93,0,0,0-15.39-4.1c-3.37-.06-6.31.83-8.4,3.69-1.42,1.94-1.38,3.44.25,5.13a31.94,31.94,0,0,1,2.55,2.52c3.61,4.67,7.13,9.42,10.74,14.08,1.76,2.27,3.68,4.41,5.51,6.62a4.15,4.15,0,0,0,4.76,1.29c1.69-.5,3.36-1,5-1.59a10.85,10.85,0,0,1,7.05-.24,18.35,18.35,0,0,1,8.24,5.12c1.77,2,3.27,2.1,5.4.53a9.72,9.72,0,0,1,2.06-1.16,10.23,10.23,0,0,1,11.73,2.18c1.1,1,2.16,2.14,3.31,3.12,1.84,1.58,2.9,1.62,5,.45a7.46,7.46,0,0,1,2.37-1.05c4.13-.6,8.14-.4,11.73,2.1a3.28,3.28,0,0,0,3.83.16A3.62,3.62,0,0,0,498,346a5.78,5.78,0,0,0-1.87-4.51,27.5,27.5,0,0,0-3.36-2.69,28.18,28.18,0,0,1-10.36-10C478.21,322.08,468.64,319.25,461.24,322.05ZM195.59,369.66c-.46-.88-.8-1.51-1.12-2.15a25.28,25.28,0,0,0-12.26-11.35,9.94,9.94,0,0,0-11.39,1.65,5.29,5.29,0,0,0-.71,7.69c1,1.31,2.34,2.44,3.27,3.81a136.32,136.32,0,0,0,14.39,17.32c4.85,5.09,9.57,10.33,15.68,14a48.09,48.09,0,0,0,4.32,2.52c2.53,1.19,5.18,2.12,7.71,3.3a56.09,56.09,0,0,0,13,4.2,31.39,31.39,0,0,0,8.08.62c4.51-.31,6.42-3.94,4.52-8a34.37,34.37,0,0,0-1.71-3.16q-3.9-6.62-7.84-13.18a22.72,22.72,0,0,0-1.58-2.11c-1.81-2.33-3.65-4.64-5.44-7s-3.36-4.9-5.36-7.05c-6.17-6.67-13.23-7.5-20.88-2.67C197.43,368.58,196.6,369.05,195.59,369.66Zm101.62,5.9a3.56,3.56,0,0,0-5-3.25,23.13,23.13,0,0,0-4.09,2c-4.84,3.11-9.76,6.13-14.39,9.53a60.91,60.91,0,0,0-16.09,17.92,19.22,19.22,0,0,0-1.6,3.21,3.33,3.33,0,0,0,1.32,4.22,11.19,11.19,0,0,0,6,2.19,48.7,48.7,0,0,1,8.79,1,147.49,147.49,0,0,1,25.05,8.16q9.21,4.06,18.43,8.11c2.07.91,3.54.66,4.76-.79a3.71,3.71,0,0,0,0-5c-1.49-2-3-3.92-4.69-5.76A152.93,152.93,0,0,1,302.16,400c-4.16-6.22-5.67-13.14-5.52-20.5A29.8,29.8,0,0,1,297.21,375.56Zm-211.58-69c1.3,1.43,2.27,2.48,3.22,3.54.54.6,1,1.25,1.58,1.81A4.42,4.42,0,0,0,97,312c.41-.38.78-.8,1.19-1.19,6.23-6,12.73-11.68,20.62-15.49a10.81,10.81,0,0,0,1.06-.57c2.44-1.49,2.81-3.49,1.08-5.79-.43-.58-.86-1.16-1.32-1.71-2.19-2.66-4.18-2.43-6,.55a13.63,13.63,0,0,1-2.72,3.28c-1.44,1.25-2.76,1-3.93-.45-.64-.82-1.12-1.76-1.74-2.59-1.35-1.8-3.15-1.85-4.6-.11-.92,1.11-1.74,2.3-2.65,3.41-1.07,1.31-1.62,1.38-2.55-.07a37.09,37.09,0,0,1-2.33-4.68c-1-2.27-3.46-2.57-5-.59-.14.19-.23.42-.37.61-1.36,1.87-2.71,3.75-4.11,5.59a2.66,2.66,0,0,1-1.29,1c-2.22.55-4.43.75-6.31-1-1.51-1.42-3.09-2.76-4.51-4.27-2.07-2.21-4.54-2-6,.61-.56,1-.93,2.05-1.58,3-.94,1.33-2.05,2.54-3,3.67-3.53-1.29-5.9-3.52-8.25-5.86-2-2-4-1.44-4.91,1.19s-2.07,5.37-2.88,8.12a3.57,3.57,0,0,1-2.77,2.54,35,35,0,0,0-5.54,2.23,3.17,3.17,0,0,0,0,5.74,10.1,10.1,0,0,0,3,1.37c3.92.73,7.85,1.41,11.81,1.87a7.65,7.65,0,0,0,5.58-1.8c1.87-1.44,3.79-2.84,5.85-4.38,1.32,2.2,2.59,4.22,3.77,6.28a3.66,3.66,0,0,0,3.23,2.14c2.39,0,4.78-.07,7.18,0a5,5,0,0,0,4.63-2.82C82.82,310,84.19,308.44,85.63,306.53Zm196.61,39.33c-2,2.57-3.81,4.62-5.33,6.85a12.65,12.65,0,0,0-2,10.06c.76,3.63,3,5.54,6.72,5.56A16.7,16.7,0,0,0,292,365a25.63,25.63,0,0,1,7-3.49c6.31-2.19,12.92-1.85,19.43-2.29,4.29-.28,8.62,0,12.92-.23a13.93,13.93,0,0,0,9.17-3.62c2.17-2.07,2.25-3.91.33-6.27-2.45-3-5.79-3.92-9.43-3.57a59.78,59.78,0,0,1-26.36-3.73c-7.28-2.65-13.44-7-17.11-14.15a11.28,11.28,0,0,0-3.85-4.5,6.07,6.07,0,0,0-6.79-.24,5.62,5.62,0,0,0-2.77,5.45c.11,2.66,1.39,4.87,2.54,7.15C278.85,338.94,280.56,342.45,282.24,345.86ZM594,370.54a17.78,17.78,0,0,0-1.27-2.07,44.18,44.18,0,0,0-3.6-4.13c-2.68-2.57-8.12-1.22-8.94,2.15-.62,2.55-1.67,5-2.14,7.58-1.42,7.78-2.7,15.57-3.92,23.38a25.48,25.48,0,0,0,0,5.24,3.49,3.49,0,0,0,2.74,3.26,15,15,0,0,0,7.58.49c2.43-.47,4.83-1.09,7.23-1.68a19.73,19.73,0,0,0,8.27-4.18,68.49,68.49,0,0,0,10.92-12,17,17,0,0,0,3.19-11,9.55,9.55,0,0,0-6.53-8.62,14,14,0,0,0-10.74.4C595.91,369.74,595,370.09,594,370.54ZM424.49,355.05c-1.67-.72-3.23-1.54-4.88-2.07-6.49-2.09-11.76,1.31-12.57,8.08a22.61,22.61,0,0,0,1.87,12.62,11.25,11.25,0,0,0,2.51,3.41,27.07,27.07,0,0,0,9.2,5.47c6.44,2.34,12.84,4.78,19.25,7.18a3.32,3.32,0,0,0,4.54-1.89,7.62,7.62,0,0,0,.68-3.23q-.29-5.61-.89-11.2c-.3-2.77-1-5.51-.5-8.33,1-5.23-.42-10-3.08-14.41-1.88-3.15-4.9-4.19-8.45-3.25a7.77,7.77,0,0,0-4,2.85C426.89,351.82,425.72,353.43,424.49,355.05ZM101.74,337c1.05.07,3,.22,4.88.3s4,0,6,.11a6.73,6.73,0,0,0,4.72-1.42c2.18-1.84,4.26-3.82,6.3-5.81a3.17,3.17,0,0,0,.64-3.16c-.5-2.14-1.82-3.27-4.32-3.43-4.94-.31-9.89-.59-14.84-.76-6.14-.22-12.31-.11-18.44-.52-8-.53-16.09-1.38-24.12-2.19-8.41-.84-16.92-1.09-25-4.26a3.55,3.55,0,0,0-4.65,1.28c-.92,1.52-.5,3.41,1.12,5,.17.17.36.31.55.47a30.42,30.42,0,0,0,10.94,5.78q8.51,2.53,17,4.93a58.39,58.39,0,0,0,7.7,1.77A201.07,201.07,0,0,0,101.74,337Zm340.18-94.69c-1.69-1.54-3.36-3.14-5.11-4.66a11.13,11.13,0,0,0-15.89.91,3.49,3.49,0,0,0,.8,5.53,13,13,0,0,0,1.76.73c3.69,1.52,7.46,2.87,11,4.61a44.82,44.82,0,0,0,12.11,3.61,150.88,150.88,0,0,0,19.56,1.74A26.7,26.7,0,0,0,479.64,252c3.77-1.92,7.61-3.68,11.41-5.52a31.17,31.17,0,0,0,3.19-1.67,3.39,3.39,0,0,0-.14-6,14.67,14.67,0,0,0-7.05-2.06A23.15,23.15,0,0,0,476.39,239c-2.22,1.06-4.44,2.14-6.34,3.06a55.2,55.2,0,0,0-5.45-3.5c-3-1.42-6.13-1.09-9.17-.27C451,239.51,446.57,240.93,441.92,242.32Zm-139.54,63c.05-4.81-2.09-7.21-6.77-7.7-.23,0-.47-.06-.71-.06a8.74,8.74,0,0,1-7.64-4.5c-.94-1.48-2.08-2.83-3.15-4.22a9.2,9.2,0,0,0-6-3.57c-3.32-.55-6.5-1.35-9.32-3.43a4,4,0,0,0-6.08,2,8.08,8.08,0,0,0,3.44,8.64c3.53,2.08,6.5,4.65,7.57,8.84.58,2.26,2.16,3.13,4.35,3.47a12.09,12.09,0,0,1,4.52,1.37c2.74,1.71,5.63,3.44,5.49,7.42a3.7,3.7,0,0,0,2.64,3.64c1.39.58,2.76,1.25,4.1,2,2.4,1.26,4.76,2.5,6.41,4.85,1.5,2.12,4.16,1.86,5.63-.29,1.12-1.66,1.43-3.37.18-5.12-.56-.78-1.14-1.54-1.66-2.34-2-3.07-4.2-6.11-3-10.15A3.62,3.62,0,0,0,302.38,305.33ZM522.45,339.2a18.92,18.92,0,0,0-8.66-7.75,39,39,0,0,0-15-2.62,3.07,3.07,0,0,0-3,2.32,3.2,3.2,0,0,0,1.1,3.65,5.83,5.83,0,0,0,2.1,1.11c3.47.89,6.47,2.75,9.46,4.57,2.52,1.54,4.94,3.23,6.27,6.08a3.5,3.5,0,0,0,4,1.94c2-.29,3.92-.71,5.89-1a85.2,85.2,0,0,1,24.34-.27,8.45,8.45,0,0,0,4.82-1,3.28,3.28,0,0,0,1.06-5.1,6.86,6.86,0,0,0-1.56-1.48c-3.16-2.16-6.33-4.31-9.54-6.41a10,10,0,0,0-8-1.22,20.22,20.22,0,0,0-9.52,5.26A5.9,5.9,0,0,1,522.45,339.2Z" transform="translate(-0.48 -0.48)"/><path class="cls-1" d="M194.76,279.84c-2.22-.32-4.2-.54-6.16-.9-3.4-.63-4.25-1.92-3.67-5.37.1-.55.17-1.1.3-2-1.26,0-2.44,0-3.61,0a24.89,24.89,0,0,1-3.57-.22c-2.67-.49-3.82-2.27-3.23-4.88.32-1.38.73-2.75,1.15-4.3a8.13,8.13,0,0,0-4.48,1c-2.62,1.44-4.79.26-4.94-2.75a17.26,17.26,0,0,1,.37-3.08c.13-.93.27-1.86.42-2.93-1.53,0-2.57.79-3.71,1.25-4,1.62-6,.06-5.51-4.26.12-1,.23-2,.37-3.28-1.47.62-2.69,1.18-3.94,1.66a2.57,2.57,0,0,1-3.05-.74,2.54,2.54,0,0,1-.3-3.12c3.46-6.3,3.41-13.2,3.33-20.09,0-1.19-.19-2.39-.3-3.58a4.77,4.77,0,0,1,3.69-5.39c1.15-.3,2.37-.37,3.55-.58,2.18-.4,4.36-.87,6.55-1.22a43.51,43.51,0,0,1,5-.56c1.11,0,2.23.28,3.34.27,4.13,0,7.35,1.94,10.17,4.68a26.4,26.4,0,0,1,3.27,3.82c3.58,5.14,8.6,6.85,14.6,6.37,1.76-.14,3.51-.28,5.27-.34a37.3,37.3,0,0,1,11.61,1.48c6.22,1.83,10.47,5.68,11.87,12.22a44.21,44.21,0,0,1,.82,5c.65,6.77,1,5.72,5.84,9.65.31.24.7.38,1,.6,2.58,1.66,4.9,3.54,5.93,6.63a18.93,18.93,0,0,0,1.56,3.24c4.4,7.91,5.55,16.61,6.15,25.42a12.61,12.61,0,0,1-.76,5.16,35.42,35.42,0,0,1-6.8,11.49c-1.13,1.24-2.27,2.47-3.33,3.77-2.28,2.8-6.13,2.62-7.36-1.75a86,86,0,0,0-3.77-9.82c-1.32-3.17-3.93-5.16-6.69-7-1.85-1.23-3.59-2.64-5.37-4-.51-.38-1-.82-1.51-1.18-2.35-1.65-4.73-3.25-7.05-4.94a3.72,3.72,0,0,0-3.14-.73c-2.58.54-5.21.9-7.75,1.59-3.95,1.08-4.82-.19-6-4.06A11.2,11.2,0,0,1,194.76,279.84Zm16.62-24.41a7.38,7.38,0,0,0,7.53-7.35A7.47,7.47,0,0,0,204,248,7.38,7.38,0,0,0,211.38,255.43Z" transform="translate(-0.48 -0.48)"/><path class="cls-1" d="M251.16,460.74,246.45,463a36.23,36.23,0,0,1-11.84,3.7c-2.27.24-4.08,1-5.12,3.33a3.17,3.17,0,0,1-4.13,1.92,3.68,3.68,0,0,1-2.36-4.23,5.62,5.62,0,0,1,.85-2.21q2.57-3.6,5.3-7.07c.32-.41,1-.56,1.47-.83l-.49-.63c-.5.08-1,.14-1.5.23-4.4.78-8.79,1.65-13.21,2.29a14.62,14.62,0,0,1-4.51-.26,3.74,3.74,0,0,1-3.08-3.26,3.33,3.33,0,0,1,2.3-3.76c2.86-1.24,5.76-2.38,8.64-3.57a5.06,5.06,0,0,0,2.1-1.39c-1.29-.09-2.58-.14-3.87-.29-2.46-.28-4.92-.52-7.35-1a3.08,3.08,0,0,1-2.89-3,3.59,3.59,0,0,1,2.45-3.95,32.47,32.47,0,0,1,6.24-1.66c4.75-.64,9.52-1.08,14.3-1.49a7.11,7.11,0,0,0,3.36-1,62.72,62.72,0,0,1,23.62-8.9,59.27,59.27,0,0,1,17.44-.13c3.41.45,6.83.77,10.24,1.2,11.21,1.4,21.91,4.37,31.71,10.2,5,3,10.05,5.91,15.07,8.89,4.14,2.46,4.59,6.23,2.64,10.4-2.15,4.61-6.21,6.77-11,7.54a73.76,73.76,0,0,1-17.94.27,114.48,114.48,0,0,1-23.55-4.31,23.6,23.6,0,0,0-3.78-.57,12.73,12.73,0,0,0-1.42,0,32.37,32.37,0,0,0,1.69,3.05c.91,1.29,1.29,2.59.47,4s-2.26,1.84-3.9,1.75a29.86,29.86,0,0,1-8.14-1.89c-.45-.15-.91-.25-1.61-.45-1.2,2.36-2.47,4.66-3.54,7-.71,1.6-1.59,2.76-3.47,2.79s-2.68-1-3.44-2.49A24.4,24.4,0,0,1,251.16,460.74Z" transform="translate(-0.48 -0.48)"/><path class="cls-1" d="M618.35,312.52a20.05,20.05,0,0,0-5.84-12.71,33.44,33.44,0,0,0-5.17-4.24c-3.91-2.64-8-5.07-11.89-7.66a54.85,54.85,0,0,0-12.62-5.74,14.16,14.16,0,0,1-1.6-.5,3.87,3.87,0,0,1-2.26-3.43,3.38,3.38,0,0,1,1.94-3.32,6.31,6.31,0,0,1,2.47-.84c3.83-.17,7.33-1.52,10.89-2.72,3.93-1.33,7.88-2.63,11.81-4a22.16,22.16,0,0,0,9.32-6c3.83-4.08,9-5.36,14.54-4.12A6,6,0,0,1,633,259c2.69,3.06,5.47,6.13,5.79,10.5a1.85,1.85,0,0,0,1.57,1.79c3.19,1,6.33,2.21,9.51,3.24A32.76,32.76,0,0,1,662.06,281c5.16,4.62,8.23,10.24,8.43,17.35a60.41,60.41,0,0,0,1.13,8.53c.1.57.79,1.11,1.31,1.54,1.28,1.08,2.7,2,3.91,3.13,3.24,3.08,4,7,3.35,11.23a3.06,3.06,0,0,1-3.63,2.7,34.46,34.46,0,0,1-6.79-1.26,31.32,31.32,0,0,0-22,.94,22.54,22.54,0,0,1-15,.85c-1.24-.33-2.45-.74-3.7-1-3.76-.86-6.52-3.34-9.16-5.88C618.27,317.57,618,315.33,618.35,312.52Z" transform="translate(-0.48 -0.48)"/><path class="cls-1" d="M565.71,501.42c-.49,1.59-.87,2.79-1.22,4-.92,3.26-4.38,4.6-6.68,1.48a64.19,64.19,0,0,1-3.72-6.11,8.32,8.32,0,0,0-1.53-2.27c-.18,1-.37,2.09-.53,3.14-.09.55-.1,1.12-.23,1.66a3.47,3.47,0,0,1-2.84,2.9,3.23,3.23,0,0,1-3.57-1.86c-1.39-2.7-2.7-5.43-4-8.16-.34-.7-.62-1.42-.93-2.13l-.46.13c.41,2,.81,4,1.23,6,.25,1.17.6,2.32.75,3.5a3.05,3.05,0,0,1-1.77,3.36,3,3,0,0,1-3.77-.53c-5.15-5.58-9.79-11.49-10.62-19.4a25.17,25.17,0,0,1,.46-5.23c.08-.71.34-1.4.4-2.11.29-3.52-.8-4.8-4.31-4.91a63.89,63.89,0,0,1-30.58-8.65,42.94,42.94,0,0,1-12.23-11.33,8.78,8.78,0,0,1-1.35-3.29,3.35,3.35,0,0,1,1.48-3.54,16.49,16.49,0,0,1,9.27-3.52,54.4,54.4,0,0,1,19.7,1.88c1.3.37,2.66.53,4,.87a28.54,28.54,0,0,1,4.8,1.41,25.43,25.43,0,0,0,8.82,2.07c2.07.15,4.14.32,6.22.38,6.8.18,13,2.45,19,5.44,6.92,3.49,11.12,9.39,13.47,16.69.41,1.29.88,2.56,1.33,3.84a11.54,11.54,0,0,0,3.46,5.1,18.1,18.1,0,0,1,6.06,8.45c.32,1.06.6,2.13.84,3.22a5.68,5.68,0,0,1,.06,1.43c-.2,3.84.39,7.46,2.89,10.57a14.88,14.88,0,0,1,1.05,1.88,2.81,2.81,0,0,1-.41,3.35,2.31,2.31,0,0,1-2.87.51,15,15,0,0,1-3.86-2.34c-2-1.8-3.87-3.81-5.78-5.74C567.1,503,566.58,502.37,565.71,501.42Z" transform="translate(-0.48 -0.48)"/><path class="cls-1" d="M137.41,232.8c-1.25,1.38-2.39,2.6-3.47,3.88a3.1,3.1,0,0,1-3.59,1.23,2.93,2.93,0,0,1-2-3,39.4,39.4,0,0,1,.19-4.06c.09-1.18.24-2.36.39-3.81-1.87.62-2.84,2-4.08,3-.42.35-.7.88-1.12,1.23a2.57,2.57,0,0,1-4.32-1.66,15.27,15.27,0,0,1,.29-4c.75-4.44.73-4.35-3-6.63-2.71-1.65-5.27-3.56-8.14-5.52-1.09.61-2.39,1.36-3.72,2.07a24.61,24.61,0,0,1-3.64,1.8c-2.64.88-4.24-.35-4.22-3.1,0-.71.23-1.42.26-2.13q.12-3.1.15-6.19a2.75,2.75,0,0,0-1.57-2.51c-.82-.49-1.59-1.08-2.4-1.58a3,3,0,0,0-4.22.72c-.79,1-1.51,2.06-2.26,3.09a2.64,2.64,0,0,1-2.92,1.18,2.6,2.6,0,0,1-2-2.38c-.13-1-.21-2.07-.28-3.1s-.11-2.18-.19-3.87c-1.16,1.16-1.93,1.91-2.68,2.68-1.41,1.46-2.5,1.8-3.77,1.16s-1.59-1.75-1.38-3.69a51.27,51.27,0,0,0,.19-5.26,1.8,1.8,0,0,0-.38-1.32,54.23,54.23,0,0,0-4.72-3.26c-.32-.19-1,.15-1.52.35-1,.4-1.86.93-2.83,1.3a2.94,2.94,0,0,1-3.36-.4c-1-.94-.9-2.07-.68-3.33.33-2,.46-3.94.63-5.92a5.6,5.6,0,0,0-1.67-4.32,8.67,8.67,0,0,1-1.58-2.87A4.49,4.49,0,0,1,59,167.73c8.37-8.39,18.23-13.18,30.32-12.08a40,40,0,0,1,8.55,2.19,8.26,8.26,0,0,1,3.15,2.11,77.9,77.9,0,0,1,6.09,6.76,33.42,33.42,0,0,1,3.23,5.57c3.72,7.44,7,15.08,11.14,22.3a45.7,45.7,0,0,0,13.6,15.27c4.38,3,7.81,7.1,10.95,11.34,2.43,3.3,2.28,7.29,1.59,11.1-.53,3-5.09,4.4-7.53,2.61C139.29,234.29,138.48,233.63,137.41,232.8Z" transform="translate(-0.48 -0.48)"/><path class="cls-1" d="M346,303.35a24.79,24.79,0,0,1,10-3.56,33.16,33.16,0,0,1,7.38-.19,8.87,8.87,0,0,1,6.31,4c.64.91,1.31,1.8,2,2.75,2.31-.43,4.56-.89,6.83-1.26a26.35,26.35,0,0,1,4.05-.41,15.06,15.06,0,0,1,13.49,7.27c1.39,2.14,2.51,4.45,3.83,6.64,2.72,4.52,5.39,9.07,9.23,12.79a12.16,12.16,0,0,1,1,1,3.31,3.31,0,0,1-.76,5.17,8.36,8.36,0,0,1-3.82,1.17,14,14,0,0,0-9,3.25,4.81,4.81,0,0,1-4.53.9,15.37,15.37,0,0,1-4.84-2c-7.78-5.47-17.75-2.34-23,1.36a6.35,6.35,0,0,1-9.06-1.17,8.46,8.46,0,0,0-6.77-3.47,15.27,15.27,0,0,0-8.76,2,5,5,0,0,1-3.9.57,19.42,19.42,0,0,1-9.95-5.9,61.11,61.11,0,0,1-12.06-18.89,37.57,37.57,0,0,1-1.72-6.95c-.35-1.73.48-2.94,1.77-4.15,5.08-4.75,11.25-6.07,17.91-6.16,4-.06,7.81.56,11.21,2.82C343.86,301.63,344.82,302.47,346,303.35Z" transform="translate(-0.48 -0.48)"/><path class="cls-1" d="M586.69,249.85l11.17-1.42c.79-.1,1.59-.21,2.38-.25,5.2-.25,7,3.3,6.67,7.49a4.77,4.77,0,0,1-3.23,4.36c-14.34,5.49-28.77,10.69-44,13a34.09,34.09,0,0,1-12.65-.55c-13.39-3-26.75-6.24-40.16-9.19-4.43-1-9-1.36-13.5-2-.47-.07-1-.07-1.42-.18a3.41,3.41,0,0,1-.43-6.62c1.78-.71,3.53-1.46,5.32-2.16,4.75-1.87,8.36-5.3,11.66-9,4.35-4.84,12.1-7,17.68-4.39a3.21,3.21,0,0,1,.85.42c2.22,2.06,4.51,1.63,7.09.62,5.06-2,10.24-3.76,15.8-3.54a30.18,30.18,0,0,1,6.38.78,10.07,10.07,0,0,1,7,6.1c.24.58.51,1.15.91,2,2-.57,4-1.13,5.93-1.72,1.53-.46,3-1,4.56-1.43a10.92,10.92,0,0,1,7.89,1.17,7.51,7.51,0,0,1,3.62,4.58C586.29,248.48,586.44,249,586.69,249.85Z" transform="translate(-0.48 -0.48)"/><path class="cls-1" d="M165.13,322.75c8.86.4,17.72.78,26.58,1.22a8.32,8.32,0,0,0,4.12-.86c4.12-1.9,7.54-4.74,11-7.55,3.29-2.65,6.71-5.16,10.14-7.63a8.12,8.12,0,0,1,3.06-1.23,3.8,3.8,0,0,1,4.3,1.87c2.11,3.38,4.31,6.72,5.27,10.67a17.88,17.88,0,0,1-.08,8.54c-1.29,5.28-3.32,10.16-7.16,14.15-1.33,1.38-2.48,2.93-3.77,4.34-3.88,4.25-8.75,5.66-14.34,5-8.64-1.06-17.3-2-25.92-3.23-12.88-1.81-25.74-3.83-38.61-5.75-2.21-.33-4.43-.58-6.63-.95-3.85-.64-5.05-3.62-2.87-6.88a29,29,0,0,0,2.57-4.31c1.71-3.89,5-5.44,8.82-6.08a43.84,43.84,0,0,1,5.5-.43c6-.22,12-.39,18-.58Z" transform="translate(-0.48 -0.48)"/><path class="cls-1" d="M331.94,387.55c7.29-.83,12.79,2,16.91,8.24s4.73,12.33,1,19.35c1.12-.26,1.55-.34,2-.47,2-.6,4-1.21,5.95-1.83,6.53-2.06,12.35-.46,17.57,3.6a62.09,62.09,0,0,1,12.76,13.91,3.88,3.88,0,0,1,.44,4.28,3.54,3.54,0,0,1-3.81,1.94c-3.09-.35-6.15-.9-9.24-1.26-4.44-.51-8.9-.89-13.34-1.4a122.54,122.54,0,0,1-13.29-1.72c-7.13-1.6-13.06-5.55-18-10.93a183.27,183.27,0,0,1-16.74-22.15c-1.11-1.66-2.22-3.32-3.48-4.86a28.92,28.92,0,0,1-5.4-10.35,9.77,9.77,0,0,1,2.6-10.35c.46-.44,1-.83,1.41-1.31,4.42-5.1,13.76-4.35,18.07,1,3.07,3.84,5,8,4.33,13a5.06,5.06,0,0,0,0,1C331.7,387.3,331.79,387.35,331.94,387.55Z" transform="translate(-0.48 -0.48)"/><path class="cls-1" d="M376.92,401.69a78.16,78.16,0,0,1-7.74,1.64,8.37,8.37,0,0,1-8.48-4.26c-2.27-3.62-3-7.68-3.55-11.82-.21-1.73-.36-3.47-.54-5.17-3.09-.15-6-.21-8.94-.45a12.09,12.09,0,0,1-7.08-2.59,5.7,5.7,0,0,1-2.08-6,11.32,11.32,0,0,1,6.76-7.9,121.92,121.92,0,0,1,11.58-4.55c6.75-2.22,13.53-4.35,20.38-6.2a53.75,53.75,0,0,1,10.84-1.75c5.76-.35,9,2.7,9.44,8.44a49.72,49.72,0,0,1-.42,11.94,45.78,45.78,0,0,0-.44,6.19c-.11,5.67,0,11.35-.22,17a30.54,30.54,0,0,1-2.93,12,9.67,9.67,0,0,1-3.68,4.61,6.66,6.66,0,0,1-8.72-2.07,33.35,33.35,0,0,1-3.12-5.88A26.38,26.38,0,0,1,376.92,401.69Z" transform="translate(-0.48 -0.48)"/><path class="cls-1" d="M592.68,425.74c-5.9.5-11.22,1.05-16.55,1.38a39.69,39.69,0,0,1-6.43-.36,3.09,3.09,0,0,1-2.87-2.51,3.4,3.4,0,0,1,1.39-3.81,24.22,24.22,0,0,1,4.64-2.45,53.88,53.88,0,0,1,13.48-3.28c4.44-.51,8.9-.91,13.36-1.34a12.55,12.55,0,0,0,6.32-2.64,33,33,0,0,0,9.85-11.9c2.4-4.78,4.61-9.66,6.66-14.6a10.63,10.63,0,0,1,6.56-6.47c3.62-1.26,7.14-2.78,10.7-4.22,6.78-2.76,11.87-7.72,16.72-13,3.09-3.34,6-6.84,9-10.26a7.71,7.71,0,0,1,1.52-1.5,3.44,3.44,0,0,1,3.85.05,3.33,3.33,0,0,1,1.36,3.79c-.75,3.19-1.79,6.32-2.3,9.55-1.28,8-5.52,14.59-9.85,21.12a101.09,101.09,0,0,1-6.39,8.37c-2.94,3.56-6.75,6.1-10.59,8.56a18.42,18.42,0,0,0-5,4.78c-2.64,3.61-5.3,7.21-8.09,10.71a24.75,24.75,0,0,1-16.42,9c-4.5.63-9.07.74-13.62,1C597.41,425.84,594.77,425.74,592.68,425.74Z" transform="translate(-0.48 -0.48)"/><path class="cls-1" d="M410.42,411.71c-.47-1.82-1-3.41-1.28-5.06-1.17-7.64,2.72-15.23,13.64-13.82a30.61,30.61,0,0,1,11.76,4.58,36.35,36.35,0,0,1,8.91,7.23c2.83,3.25,5.54,6.61,8.34,9.89,3.17,3.7,6.48,7.29,9.55,11.08a53.78,53.78,0,0,1,4.14,6.43,5.37,5.37,0,0,1,.61,2.28c.25,3.11-1,4.86-4.07,5.46-9.51,1.85-19,3.44-28.8,2.5-6.36-.62-12.76-.94-19.12-1.58-4.18-.42-8.17-1.56-11.33-4.62a11,11,0,0,1-3.12-11.81c1.58-5.44,4.62-9.6,9.87-12A8.38,8.38,0,0,0,410.42,411.71Z" transform="translate(-0.48 -0.48)"/><path class="cls-1" d="M261,331.59c1.4.6,2.52,1,3.59,1.54,7.36,3.65,7.63,11,4.41,16a16,16,0,0,1-7.16,6.52,9.41,9.41,0,0,0-1.1.65c1,1.46,2,2.8,2.94,4.17A21.67,21.67,0,0,1,267.27,376a15.22,15.22,0,0,1-8.4,11.84c-2.89,1.56-5.93,2.81-9.39,2.14a6.91,6.91,0,0,1-5.4-4c-1.82-3.49-4.55-6.54-7-9.66-1.94-2.43-4.13-4.67-6.19-7-1-1.14-2-2.3-3-3.44-2.89-3.29-3.47-7.28-3.28-11.43a4.67,4.67,0,0,1,1.14-2.54c3.49-4.16,7.05-8.26,10.62-12.36,2.78-3.2,5.77-6.23,8.34-9.59,3.2-4.18,6-8.63,9.09-12.94a63.29,63.29,0,0,1,4.47-5.92,14.55,14.55,0,0,1,4-3,3.13,3.13,0,0,1,4.33,1.36,6,6,0,0,1,1,4.08,37.86,37.86,0,0,1-3.43,11.68C263.13,327.25,262.12,329.32,261,331.59Z" transform="translate(-0.48 -0.48)"/><path class="cls-1" d="M538.75,406.46a54.91,54.91,0,0,1-4.3,17.05,79.58,79.58,0,0,1-9.5,16.07c-1.84,2.48-3.83,2.86-6.42,1.05a44.51,44.51,0,0,0-9.81-4.95,31.42,31.42,0,0,0-21.61-.21c-2.2.72-4.36,1.54-6.52,2.39a3.59,3.59,0,0,1-4-.5c-1.27-1.15-1.35-2.57-.91-4.18A61.36,61.36,0,0,1,502,397c2.13-1.4,4.35-2.68,6.57-3.95a29.91,29.91,0,0,1,11.09-3.65A17.14,17.14,0,0,1,531,391.63a15.9,15.9,0,0,1,7.55,11.4C538.7,404,538.67,404.94,538.75,406.46Z" transform="translate(-0.48 -0.48)"/><path class="cls-1" d="M173.59,309.89c-1.25,1.37-2.33,2.55-3.39,3.73-.54.59-1,1.24-1.59,1.79-1.67,1.6-3.18,1.6-4.74-.16a43.68,43.68,0,0,1-2.77-3.95c-1,1-2,1.83-3,2.74-2.55,2.43-5.51,1.84-7.23-1.19-1.32-2.32-3-4.43-4.58-6.7-1.58,1-2.2,2.47-3.06,3.76-.54.8-.94,1.67-1.41,2.51a5,5,0,0,1-8.2.55c-1.17-1.51-2.29-3.06-3.67-4.9-1,1.63-2.06,3.09-2.9,4.66-1.57,2.93-4.38,3.22-7.18,3.4a3.14,3.14,0,0,1-2.06-1,56.17,56.17,0,0,1-4.32-4.81,3.68,3.68,0,0,1,1.21-5.21c3.78-2.24,7.6-4.41,11.35-6.7a14.18,14.18,0,0,0,3.34-2.66c2.26-2.58,4.37-5.29,6.48-8,1.16-1.48,2.62-1.85,4.15-.7a12.53,12.53,0,0,1,2.11,2.25c1.3,1.6,2.55,1.78,4,.3,1.72-1.78,3.3-3.7,5-5.52,2-2.23,3.71-2,5.29.55a1.32,1.32,0,0,0,.12.2c1,1.31,1,3.54,3.44,3.41,3-.17,6,.11,7.81-3,.51-.9,1-1.83,1.57-2.69a9.57,9.57,0,0,1,1.83-2.16,2.46,2.46,0,0,1,3.6.56,15.33,15.33,0,0,1,1.47,2.47,8.46,8.46,0,0,0,3.43,3.58,2.92,2.92,0,0,0,1.78.45c2.64-.47,4.92.6,7.11,1.69,4.65,2.31,9.19,4.82,13.78,7.24l3.61,1.9c2.16,1.13,2.69,2.91,1.41,5.07a12.48,12.48,0,0,1-1.78,2.26c-2.6,2.71-5.28,5.34-7.84,8.09a6.43,6.43,0,0,1-4.2,2.07c-3.42.34-6.85.51-10.28.66a7.46,7.46,0,0,1-6.28-2.91C176,312.26,174.81,311.17,173.59,309.89Z" transform="translate(-0.48 -0.48)"/><path class="cls-1" d="M545.13,383.47h-2.77c-6.26,0-12.28-1.19-17.73-4.35a22.24,22.24,0,0,1-5.35-4.36c-3.27-3.64-3.65-7.83-1.49-12.23a12.93,12.93,0,0,1,5.9-6.08c2.95-1.49,6-2.92,9.36-2.63,8.49.72,16.89-.84,25.35-.63,1.28,0,2.56.13,3.83.08a6.06,6.06,0,0,1,6.23,4c2.37,5.58,3.85,11.37,3,17.51A137.37,137.37,0,0,1,568,392.37a71,71,0,0,1-5.14,12.11c-.53,1.08-1.19,2.1-1.61,3.21-1.37,3.59-3.73,6.48-6.22,9.31-.74.83-1.37,1.76-2.06,2.64a3.48,3.48,0,0,1-4,1.26,3.39,3.39,0,0,1-2.14-3.64,18.17,18.17,0,0,1,.68-2.78c.64-2.3,1.44-4.56,1.91-6.89a6.1,6.1,0,0,0-.46-3.24c-.89-2.22-2-4.38-3-6.52-2.11-4.2-2.69-8.49-.9-12.95a2.91,2.91,0,0,0,.19-.7A4.48,4.48,0,0,0,545.13,383.47Z" transform="translate(-0.48 -0.48)"/><path class="cls-1" d="M609.63,354.11l-2.57,2.12a15.55,15.55,0,0,1-7.22,3.56,9.54,9.54,0,0,1-8.48-2.22,13.07,13.07,0,0,1-2.18-2.22c-1.84-2.75-4.45-3.71-7.62-3.64a10.31,10.31,0,0,1-2.6-.21,3.12,3.12,0,0,1-2.44-2.67,3.2,3.2,0,0,1,1.56-3.48,10.18,10.18,0,0,1,2.38-1.13c8.95-2.73,16.87-7.6,25-12a15,15,0,0,1,6.8-2,37.21,37.21,0,0,1,19.37,4.49,6.37,6.37,0,0,0,4.58.63c6-1.17,12.08-2.32,18.15-3.32a45.74,45.74,0,0,1,13.62.28,14.92,14.92,0,0,1,4,1.44,3.6,3.6,0,0,1-.55,6.65c-2.25.54-4.53.95-6.81,1.32a14.06,14.06,0,0,1-3.11.1,2.6,2.6,0,0,0-3,2.05,19,19,0,0,1-2.37,4.41,10.41,10.41,0,0,1-9.2,4.69h-2c-.3.77-.58,1.51-.86,2.24a21.77,21.77,0,0,1-9,10.87c-9.55,5.9-18.35.28-21.88-5.81C612.12,358.24,610.93,356.29,609.63,354.11Z" transform="translate(-0.48 -0.48)"/><path class="cls-1" d="M459.14,385.77c-4.4-3.94-6.67-8.92-8.1-14.33a14.34,14.34,0,0,1,1.39-10.9,12.19,12.19,0,0,1,14.38-5.67c6.28,2.13,12.65,4,18.77,6.56,5.9,2.42,11.58,5.41,17.25,8.34A16.28,16.28,0,0,1,507,373.3a3.14,3.14,0,0,1-.18,4.19,12.87,12.87,0,0,1-1.61,1.42,121.52,121.52,0,0,0-14.76,14.38,134,134,0,0,1-9.75,9.91,27,27,0,0,1-10,6c-6,2-11.42.24-14.93-5a10.81,10.81,0,0,1-1.48-7.61,17.48,17.48,0,0,1,3-8C457.84,387.73,458.41,386.86,459.14,385.77Z" transform="translate(-0.48 -0.48)"/><path class="cls-1" d="M461.24,322.05c7.4-2.8,17,0,21.13,6.73a28.18,28.18,0,0,0,10.36,10,27.5,27.5,0,0,1,3.36,2.69A5.78,5.78,0,0,1,498,346a3.62,3.62,0,0,1-1.81,3.43,3.28,3.28,0,0,1-3.83-.16c-3.59-2.5-7.6-2.7-11.73-2.1a7.46,7.46,0,0,0-2.37,1.05c-2.09,1.17-3.15,1.13-5-.45-1.15-1-2.21-2.08-3.31-3.12a10.23,10.23,0,0,0-11.73-2.18,9.72,9.72,0,0,0-2.06,1.16c-2.13,1.57-3.63,1.5-5.4-.53a18.35,18.35,0,0,0-8.24-5.12,10.85,10.85,0,0,0-7.05.24c-1.67.54-3.34,1.09-5,1.59a4.15,4.15,0,0,1-4.76-1.29c-1.83-2.21-3.75-4.35-5.51-6.62-3.61-4.66-7.13-9.41-10.74-14.08a31.94,31.94,0,0,0-2.55-2.52c-1.63-1.69-1.67-3.19-.25-5.13,2.09-2.86,5-3.75,8.4-3.69a36.93,36.93,0,0,1,15.39,4.1c2.25,1.07,4.13,2.93,6.42,4.62C446.28,311.94,454.73,313.79,461.24,322.05Z" transform="translate(-0.48 -0.48)"/><path class="cls-1" d="M195.59,369.66c1-.61,1.84-1.08,2.64-1.59,7.65-4.83,14.71-4,20.88,2.67,2,2.15,3.56,4.7,5.36,7.05s3.63,4.65,5.44,7a22.72,22.72,0,0,1,1.58,2.11q3.94,6.57,7.84,13.18a34.37,34.37,0,0,1,1.71,3.16c1.9,4.11,0,7.74-4.52,8a31.39,31.39,0,0,1-8.08-.62,56.09,56.09,0,0,1-13-4.2c-2.53-1.18-5.18-2.11-7.71-3.3a48.09,48.09,0,0,1-4.32-2.52c-6.11-3.67-10.83-8.91-15.68-14a136.32,136.32,0,0,1-14.39-17.32c-.93-1.37-2.23-2.5-3.27-3.81a5.29,5.29,0,0,1,.71-7.69,9.94,9.94,0,0,1,11.39-1.65,25.28,25.28,0,0,1,12.26,11.35C194.79,368.15,195.13,368.78,195.59,369.66Z" transform="translate(-0.48 -0.48)"/><path class="cls-1" d="M297.21,375.56a29.8,29.8,0,0,0-.57,3.93c-.15,7.36,1.36,14.28,5.52,20.5a152.93,152.93,0,0,0,13.57,17.08c1.65,1.84,3.2,3.78,4.69,5.76a3.71,3.71,0,0,1,0,5c-1.22,1.45-2.69,1.7-4.76.79q-9.22-4-18.43-8.11a147.49,147.49,0,0,0-25.05-8.16,48.7,48.7,0,0,0-8.79-1,11.19,11.19,0,0,1-6-2.19,3.33,3.33,0,0,1-1.32-4.22,19.22,19.22,0,0,1,1.6-3.21,60.91,60.91,0,0,1,16.09-17.92c4.63-3.4,9.55-6.42,14.39-9.53a23.13,23.13,0,0,1,4.09-2A3.56,3.56,0,0,1,297.21,375.56Z" transform="translate(-0.48 -0.48)"/><path class="cls-1" d="M85.63,306.53c-1.44,1.91-2.81,3.49-3.88,5.24a5,5,0,0,1-4.63,2.82c-2.4,0-4.79.06-7.18,0a3.66,3.66,0,0,1-3.23-2.14c-1.18-2.06-2.45-4.08-3.77-6.28-2.06,1.54-4,2.94-5.85,4.38a7.65,7.65,0,0,1-5.58,1.8c-4-.46-7.89-1.14-11.81-1.87a10.1,10.1,0,0,1-3-1.37,3.17,3.17,0,0,1,0-5.74,35,35,0,0,1,5.54-2.23A3.57,3.57,0,0,0,45,298.63c.81-2.75,1.9-5.42,2.88-8.12s2.91-3.18,4.91-1.19c2.35,2.34,4.72,4.57,8.25,5.86.93-1.13,2-2.34,3-3.67.65-.91,1-2,1.58-3,1.51-2.63,4-2.82,6-.61,1.42,1.51,3,2.85,4.51,4.27,1.88,1.77,4.09,1.57,6.31,1a2.66,2.66,0,0,0,1.29-1c1.4-1.84,2.75-3.72,4.11-5.59.14-.19.23-.42.37-.61,1.49-2,3.92-1.68,5,.59a37.09,37.09,0,0,0,2.33,4.68c.93,1.45,1.48,1.38,2.55.07.91-1.11,1.73-2.3,2.65-3.41,1.45-1.74,3.25-1.69,4.6.11.62.83,1.1,1.77,1.74,2.59,1.17,1.47,2.49,1.7,3.93.45a13.63,13.63,0,0,0,2.72-3.28c1.78-3,3.77-3.21,6-.55.46.55.89,1.13,1.32,1.71,1.73,2.3,1.36,4.3-1.08,5.79a10.81,10.81,0,0,1-1.06.57c-7.89,3.81-14.39,9.47-20.62,15.49-.41.39-.78.81-1.19,1.19a4.42,4.42,0,0,1-6.6-.15c-.57-.56-1-1.21-1.58-1.81C87.9,309,86.93,308,85.63,306.53Z" transform="translate(-0.48 -0.48)"/><path class="cls-1" d="M282.24,345.86c-1.68-3.41-3.39-6.92-5.14-10.4-1.15-2.28-2.43-4.49-2.54-7.15a5.62,5.62,0,0,1,2.77-5.45,6.07,6.07,0,0,1,6.79.24,11.28,11.28,0,0,1,3.85,4.5c3.67,7.16,9.83,11.5,17.11,14.15a59.78,59.78,0,0,0,26.36,3.73c3.64-.35,7,.53,9.43,3.57,1.92,2.36,1.84,4.2-.33,6.27a13.93,13.93,0,0,1-9.17,3.62c-4.3.24-8.63-.05-12.92.23-6.51.44-13.12.1-19.43,2.29a25.63,25.63,0,0,0-7,3.49,16.7,16.7,0,0,1-10.29,3.38c-3.68,0-6-1.93-6.72-5.56a12.65,12.65,0,0,1,2-10.06C278.43,350.48,280.23,348.43,282.24,345.86Z" transform="translate(-0.48 -0.48)"/><path class="cls-1" d="M594,370.54c1-.45,1.89-.8,2.75-1.22a14,14,0,0,1,10.74-.4,9.55,9.55,0,0,1,6.53,8.62,17,17,0,0,1-3.19,11,68.49,68.49,0,0,1-10.92,12,19.73,19.73,0,0,1-8.27,4.18c-2.4.59-4.8,1.21-7.23,1.68a15,15,0,0,1-7.58-.49,3.49,3.49,0,0,1-2.74-3.26,25.48,25.48,0,0,1,0-5.24c1.22-7.81,2.5-15.6,3.92-23.38.47-2.57,1.52-5,2.14-7.58.82-3.37,6.26-4.72,8.94-2.15a44.18,44.18,0,0,1,3.6,4.13A17.78,17.78,0,0,1,594,370.54Z" transform="translate(-0.48 -0.48)"/><path class="cls-1" d="M424.49,355.05c1.23-1.62,2.4-3.23,3.66-4.77a7.77,7.77,0,0,1,4-2.85c3.55-.94,6.57.1,8.45,3.25,2.66,4.43,4.07,9.18,3.08,14.41-.54,2.82.2,5.56.5,8.33q.62,5.58.89,11.2a7.62,7.62,0,0,1-.68,3.23,3.32,3.32,0,0,1-4.54,1.89c-6.41-2.4-12.81-4.84-19.25-7.18a27.07,27.07,0,0,1-9.2-5.47,11.25,11.25,0,0,1-2.51-3.41A22.61,22.61,0,0,1,407,361.06c.81-6.77,6.08-10.17,12.57-8.08C421.26,353.51,422.82,354.33,424.49,355.05Z" transform="translate(-0.48 -0.48)"/><path class="cls-1" d="M101.74,337a201.07,201.07,0,0,1-31.45-2,58.39,58.39,0,0,1-7.7-1.77q-8.55-2.38-17-4.93a30.42,30.42,0,0,1-10.94-5.78c-.19-.16-.38-.3-.55-.47-1.62-1.54-2-3.43-1.12-5a3.55,3.55,0,0,1,4.65-1.28c8,3.17,16.55,3.42,25,4.26,8,.81,16.07,1.66,24.12,2.19,6.13.41,12.3.3,18.44.52,5,.17,9.9.45,14.84.76,2.5.16,3.82,1.29,4.32,3.43a3.17,3.17,0,0,1-.64,3.16c-2,2-4.12,4-6.3,5.81a6.73,6.73,0,0,1-4.72,1.42c-2-.08-4,0-6-.11S102.79,337.08,101.74,337Z" transform="translate(-0.48 -0.48)"/><path class="cls-1" d="M441.92,242.32c4.65-1.39,9.05-2.81,13.51-4,3-.82,6.21-1.15,9.17.27a55.2,55.2,0,0,1,5.45,3.5c1.9-.92,4.12-2,6.34-3.06a23.15,23.15,0,0,1,10.66-2.37,14.67,14.67,0,0,1,7.05,2.06,3.39,3.39,0,0,1,.14,6,31.17,31.17,0,0,1-3.19,1.67c-3.8,1.84-7.64,3.6-11.41,5.52a26.7,26.7,0,0,1-13.44,2.84,150.88,150.88,0,0,1-19.56-1.74,44.82,44.82,0,0,1-12.11-3.61c-3.59-1.74-7.36-3.09-11-4.61a13,13,0,0,1-1.76-.73,3.49,3.49,0,0,1-.8-5.53,11.13,11.13,0,0,1,15.89-.91C438.56,239.18,440.23,240.78,441.92,242.32Z" transform="translate(-0.48 -0.48)"/><path class="cls-1" d="M302.38,305.33a3.62,3.62,0,0,1-.05.84c-1.17,4,1,7.08,3,10.15.52.8,1.1,1.56,1.66,2.34,1.25,1.75.94,3.46-.18,5.12-1.47,2.15-4.13,2.41-5.63.29-1.65-2.35-4-3.59-6.41-4.85-1.34-.7-2.71-1.37-4.1-2a3.7,3.7,0,0,1-2.64-3.64c.14-4-2.75-5.71-5.49-7.42a12.09,12.09,0,0,0-4.52-1.37c-2.19-.34-3.77-1.21-4.35-3.47-1.07-4.19-4-6.76-7.57-8.84a8.08,8.08,0,0,1-3.44-8.64,4,4,0,0,1,6.08-2c2.82,2.08,6,2.88,9.32,3.43a9.2,9.2,0,0,1,6,3.57c1.07,1.39,2.21,2.74,3.15,4.22a8.74,8.74,0,0,0,7.64,4.5c.24,0,.48,0,.71.06C300.29,298.12,302.43,300.52,302.38,305.33Z" transform="translate(-0.48 -0.48)"/><path class="cls-1" d="M522.45,339.2a5.9,5.9,0,0,0,3.72-1.95,20.22,20.22,0,0,1,9.52-5.26,10,10,0,0,1,8,1.22c3.21,2.1,6.38,4.25,9.54,6.41a6.86,6.86,0,0,1,1.56,1.48,3.28,3.28,0,0,1-1.06,5.1,8.45,8.45,0,0,1-4.82,1,85.2,85.2,0,0,0-24.34.27c-2,.31-3.92.73-5.89,1a3.5,3.5,0,0,1-4-1.94c-1.33-2.85-3.75-4.54-6.27-6.08-3-1.82-6-3.68-9.46-4.57a5.83,5.83,0,0,1-2.1-1.11,3.2,3.2,0,0,1-1.1-3.65,3.07,3.07,0,0,1,3-2.32,39,39,0,0,1,15,2.62A18.92,18.92,0,0,1,522.45,339.2Z" transform="translate(-0.48 -0.48)"/><path class="cls-1" d="M211.38,255.43A7.38,7.38,0,0,1,204,248a7.47,7.47,0,0,1,14.94.13A7.38,7.38,0,0,1,211.38,255.43Z" transform="translate(-0.48 -0.48)"/></svg>