<svg id="Layer_1" data-name="Layer 1" xmlns="http://www.w3.org/2000/svg" viewBox="0 0 720 612"><defs><style>.cls-1{fill:none;stroke:#000;stroke-miterlimit:10;stroke-width:0.01px;}</style></defs><path d="M.48,612.48V.48h720v612ZM148.85,333.91l-1.19.08A13.68,13.68,0,0,0,135,345.35a7.22,7.22,0,0,0-.11,1.67,61.77,61.77,0,0,0,2.37,14.14c2.48,8,5.45,15.68,11.18,22,1.52,1.69,3,3.11,5.46,2.7a4.08,4.08,0,0,1,1.18.18,24.38,24.38,0,0,0,10.44-.56,39.32,39.32,0,0,0,11.82-5.71,7.79,7.79,0,0,1,7.46-1.11,25.63,25.63,0,0,1,4.94,2.33c1.69,1.05,3.2,2.39,4.79,3.59a18,18,0,0,0,11.13,3.8,27.35,27.35,0,0,0,16.69-5.75c5.18-3.86,9.25-8.75,13.15-13.85a22.6,22.6,0,0,0,4.43-13.14,10.11,10.11,0,0,0-.19-3.57,75.32,75.32,0,0,0-4.14-10.94c-4.51-8.62-11.6-13.93-21.43-15a35.75,35.75,0,0,0-8.13.27c-6.28.75-12.5,1.92-18,5.42-2.41,1.56-4.66,3.36-7,5.06a12.64,12.64,0,0,1-5.08,2.55,24.13,24.13,0,0,1-13.85-1.55c-2.3-.91-4.53-2-6.78-3A13.07,13.07,0,0,0,148.85,333.91Zm226.56-75.38c-3.47.27-6.88.63-10.31.8-4.05.21-5.16,3.66-3.17,6.39,1.65,2.25,2.95,4.75,4.45,7.11,6.9,10.76,9,22.53,7.64,35.12a114.55,114.55,0,0,1-4.58,21.77,4.58,4.58,0,0,0,.13,3.91,21.09,21.09,0,0,0,9.09,8.94,85.74,85.74,0,0,0,19.28,7.18c8.8,1.9,17.55,2.07,26.22-1,3.25-1.17,5.2-2.89,5.81-6.44,1.22-7.16,3-14.22,3-21.56a24.43,24.43,0,0,0-4.6-14.6c-1.49-2.08-2.86-4.25-4.43-6.26a42.4,42.4,0,0,0-4.89-5.54c-3.2-2.89-6.67-5.47-9.95-8.28-5.59-4.79-10.22-10.33-12.92-17.29-.72-1.85-1.26-3.78-1.86-5.68a4.56,4.56,0,0,0-4.37-3.48C385.11,259.24,380.26,258.88,375.41,258.53ZM360,293.92a62,62,0,0,0-1.53-7.48,33.63,33.63,0,0,0-6.68-11c-3.76-4.45-8.43-7.81-13-11.25a6.7,6.7,0,0,0-5-1.26,64.66,64.66,0,0,0-17.83,4.53,19.21,19.21,0,0,1-10.09,1.18c-1.12-.12-2.22-.31-3.34-.41-5.25-.43-10.23-1.69-14.65-4.71-.2-.14-.41-.26-.61-.38a159.72,159.72,0,0,0-18.56-9.49c-4.44-1.81-7.25-.72-9.4,2.92a72.92,72.92,0,0,0-6,12,10.59,10.59,0,0,0,0,8.16,32,32,0,0,0,2.74,5c2.67,4,6.57,6.76,10.42,9.46,5.12,3.6,10.6,6.56,16.9,7.64a63.47,63.47,0,0,0,19.36,0,20.67,20.67,0,0,1,12.74,2.22,10.55,10.55,0,0,1,3.29,2.68c2.76,3.42,5.2,7.12,8.73,9.83,3.86,3,7.74,5.91,11.74,8.68a5.41,5.41,0,0,0,6.88-.53,29.73,29.73,0,0,0,4.23-4.53,63.32,63.32,0,0,0,7.56-14.12A30.47,30.47,0,0,0,360,293.92ZM273.63,432.38h-.1c0-2.8,0-5.59,0-8.39a13,13,0,0,0-3.93-9.73c-2-2-4-3.92-6.14-5.72a136.38,136.38,0,0,0-19.26-13.79,48.53,48.53,0,0,0-11.53-5.23c-4.37-1.19-7.92.51-9.94,4.53a12,12,0,0,0-.18,10A57.07,57.07,0,0,0,231,419.27a20.54,20.54,0,0,0,5.55,5.24c1.16.67,2.17,1.63,3.28,2.41a12.18,12.18,0,0,1,5.31,10.22c.18,6.23-.48,12.48.47,18.69a5.34,5.34,0,0,1-.06,1.19,123.74,123.74,0,0,0,.07,22.28,7.3,7.3,0,0,1-2.67,6.79,16,16,0,0,0-5.21,7.89,8.82,8.82,0,0,0,3.75,10c3.86,2.16,7.84,4,12.47,3.53a28.11,28.11,0,0,1,8.57.65,16.33,16.33,0,0,0,3.33.43,48.23,48.23,0,0,0,8.34-.34c5.18-1,10.34-7.47,10.42-12.7a11,11,0,0,0-.47-2.57c-.28-1.16-.62-2.31-.93-3.47-.61-2.31-1.1-4.66-1.84-6.93-2.1-6.45-4.47-12.83-6.42-19.33a55.46,55.46,0,0,1-2-20.87C273.25,439.08,273.41,435.73,273.63,432.38Zm8.43-7.58h.06c0,2-.14,4,0,6a26.62,26.62,0,0,0,1.08,4.88,3.52,3.52,0,0,0,4,2.65c1.43-.1,2.88-.13,4.29-.35,13.85-2.1,27.44-5.39,41-8.72a11,11,0,0,0,7.24-5.07,97.61,97.61,0,0,0,5.92-10.67c3.26-7.46,4.94-15.17,2.45-23.31a19.35,19.35,0,0,1,.06-10.43c1.28-5.24,2.82-10.31,6.51-14.49,1.41-1.61,2.44-3.55,3.73-5.29,4.62-6.22,4-16.29-.74-23.26a9.45,9.45,0,0,0-2.64-2.39c-3.62-2.38-6.76-1.64-8.8,2.17a38.85,38.85,0,0,0-2.67,6.39,48.71,48.71,0,0,1-6,12.21,65.47,65.47,0,0,1-11.35,13.24,78.48,78.48,0,0,0-14.79,17.82,17.08,17.08,0,0,1-2.56,3.13c-6.82,6.55-15.29,10.35-23.79,14.09-1.16.51-2.46.69-3.64,1.16a3.27,3.27,0,0,0-2.13,4.42c.55,1.75,1.14,3.49,1.81,5.2a16.78,16.78,0,0,1,1.13,7.28C282.23,422.57,282.14,423.69,282.06,424.8ZM313.3,320.57c-1.59,0-3.2-.08-4.79,0a5.55,5.55,0,0,0-5,3.21c-.63,1.29-1.42,2.51-2,3.81A96.2,96.2,0,0,1,289.86,346a50.46,50.46,0,0,1-13.24,11.67,15.26,15.26,0,0,1-4.62,1.82,49.6,49.6,0,0,1-5.48.54,44.61,44.61,0,0,0-11.91,2.56c-4,1.57-7.57,3.76-9.91,7.56-3.23,5.27-2.68,12.59,1.43,16.66a28.86,28.86,0,0,0,10.29,6.87,33.37,33.37,0,0,0,21.15.92C287,391.91,295.1,387,302.72,381a129.84,129.84,0,0,0,27.53-29.81,46,46,0,0,0,6-12.49,9,9,0,0,0-.83-7.36,20.32,20.32,0,0,0-8.84-8.18C322.4,321,317.89,320.57,313.3,320.57Zm-60-86.91c2-.37,3.86-.45,5.15-2a10.43,10.43,0,0,0,2.52-8.7,41.3,41.3,0,0,0-4.52-12.06,75.53,75.53,0,0,0-10.13-14.21,27.23,27.23,0,0,1-4.55-7,99.35,99.35,0,0,0-14.22-23.25,31.74,31.74,0,0,0-7.93-7.23c-2.95-1.74-5.34-1.11-7.14,1.76-.51.81-1,1.64-1.51,2.45a201.78,201.78,0,0,0-16,30.79,112.14,112.14,0,0,1-5,10.06,6,6,0,0,0-.26,6.11A62.37,62.37,0,0,0,199,223a22.69,22.69,0,0,0,16.75,7.57,56.64,56.64,0,0,0,14-1.39c4.8-1,9.51-1.2,14,1.32a10.48,10.48,0,0,0,2.19,1C248.4,232.25,250.84,232.94,253.28,233.66Zm23.23,101.92a31.14,31.14,0,0,0,9.71-4.43,23.49,23.49,0,0,0,7-7.1c2.5-4.08,1.93-9.71-2.82-12.54a16.74,16.74,0,0,0-6.89-2.51,25.85,25.85,0,0,0-12.48,1.55,2.85,2.85,0,0,1-3-.38,51.88,51.88,0,0,1-15.31-16A15.8,15.8,0,0,1,251,290c-1-3.47-1.94-6.94-4.14-9.88s-5-4.31-8.52-3.82a21.9,21.9,0,0,0-14.6,8.78,4.87,4.87,0,0,1-4.56,2.26,12.93,12.93,0,0,0-7.12,1.76,21.16,21.16,0,0,0-9.43,10.52,11.09,11.09,0,0,0,3.5,13.34,14.35,14.35,0,0,0,8.54,2.77c4.63.06,9.26-.13,13.89-.27a7.81,7.81,0,0,1,4.4.62,36.83,36.83,0,0,1,11.95,10.56,5.16,5.16,0,0,1,.86,1.91c.83,3.89,1.48,7.84,2.42,11.7a18.11,18.11,0,0,0,4.49,8.1,13.6,13.6,0,0,0,12.83,4.36c4.33-.72,7.17-3.51,8.58-7.52C275.11,342.24,275.64,339.08,276.51,335.58ZM158.3,325.22A27.49,27.49,0,0,0,174,319.85a39,39,0,0,0,3.14-2.6c7-6.81,10.2-15.14,8.7-24.78a32.48,32.48,0,0,0-12.12-20.84c-4.79-3.86-9.38-8-14.05-12-1.78-1.53-2.1-3.33-1.41-5.61,1.36-4.51,2.52-9.08,3.66-13.65a9.27,9.27,0,0,0,.25-3.55,7.19,7.19,0,0,0-1.26-3.28,7.78,7.78,0,0,0-11.94-.68,42.92,42.92,0,0,0-3.74,5.25,48.11,48.11,0,0,1-3.43,4.89c-2,2.2-4.1,4.24-6.26,6.25-1.86,1.72-2.23,2.87-1.29,5.3s1.79,4.63,2.73,6.92c1.84,4.5,2.35,9.27,2.72,14,.21,2.7,0,5.44.09,8.15A113.49,113.49,0,0,1,137.5,307c-1.28,6.87-.21,10,5.49,14a15.67,15.67,0,0,0,5.19,2.37C151.51,324.23,154.92,324.64,158.3,325.22Zm353-13a27.67,27.67,0,0,0-1.41-10.84,6.25,6.25,0,0,0-8.31-4.24c-2.13.68-4.26,1.36-6.38,2.07-10.1,3.36-19.74,1.68-29.05-2.79a16.41,16.41,0,0,0-5.67-1.65c-.64-.06-1.28-.12-1.91-.21a12.56,12.56,0,0,0-12.37,6c-3,5.05-3.25,10.58-3,16.23.21,4.48,2.53,7.39,6.44,9.3,2.94,1.43,5.82,3,8.73,4.5,4.68,2.4,7.71,6.36,10.22,10.79a6.19,6.19,0,0,1,.34,1.38c.69,2.52,1.26,5.08,2.11,7.55,1.37,4,4.63,6.18,8.25,7.89,8,3.75,15.29,1.89,20.52-5.09A50.68,50.68,0,0,0,508.33,335c.35-1.39.93-2.71,1.26-4.1a51.23,51.23,0,0,0,1.67-7.94C511.55,319.4,511.33,315.79,511.33,312.2Zm-51,38.81a11.69,11.69,0,0,0-2.42-7.12,19.34,19.34,0,0,0-8.88-6.67c-4.87-1.91-7-1.11-9.23,3.58-1.24,2.6-2.46,5.2-3.68,7.81a14.87,14.87,0,0,1-4.46,5.53,42.74,42.74,0,0,1-17.13,8.24,3.43,3.43,0,0,0-2.62,1.89,14.48,14.48,0,0,0-1.39,4.5,44.23,44.23,0,0,0,1.6,15.18,13.8,13.8,0,0,1-.22,8.46c-.68,2-1.51,4-2.21,6.08-.89,2.64-1.82,5.28-2.53,8-.76,2.87.91,4.83,3.82,4.49,4.2-.49,8.41-1,12.57-1.78a149.08,149.08,0,0,0,27-8.17,176.22,176.22,0,0,0,21.34-9.76c3.2-1.77,4.74-4.37,4.21-8.1a13,13,0,0,0-2.33-5.95,20.64,20.64,0,0,0-7-6.11,29,29,0,0,1-7.94-6.85,10.17,10.17,0,0,1-1.3-2,2.62,2.62,0,0,1,.17-2.88A15.58,15.58,0,0,0,460.32,351ZM207.14,278.77a32.48,32.48,0,0,0,15.8-3.54,56.39,56.39,0,0,0,18.42-13.94c.82-.94,1.92-1.63,2.83-2.5a8,8,0,0,0,1.47-1.82c.85-1.52,1.56-3.11,2.37-4.64s1.83-3,2.5-4.63a4.45,4.45,0,0,0,.16-3c-.79-2-2-3.86-4.43-4.32a41.51,41.51,0,0,0-6.11-1c-5.1-.18-10,1.11-14.78,2.67a30.43,30.43,0,0,1-10.16,1.38c-5.06-.1-9.36-2.5-13.71-4.68a11.35,11.35,0,0,1-5.61-6.29,27.93,27.93,0,0,0-7.17-10.35c-1.56-1.48-3-3.1-4.49-4.65-1.94-2-4.49-2.1-6.24,0a43.07,43.07,0,0,0-8.07,13.78c-2.54,7.66-1.46,15.14,1.2,22.52a14.32,14.32,0,0,0,1.54,3.23c2.59,3.75,5.33,7.4,9.09,10.1,2.6,1.86,5.25,3.64,7.86,5.48C195.32,276.69,201.62,278.91,207.14,278.77ZM356.78,424.64l.05.16c5.5-1,11-1.93,16.51-2.94a118.71,118.71,0,0,0,18.71-5.1,4.62,4.62,0,0,0,2.77-2.12c2.44-4.51,4.61-9.12,5.52-14.22,1.26-7.16,2.68-14.29,3.67-21.48a12.81,12.81,0,0,0-1.48-8.57A50.67,50.67,0,0,0,380,350.28a4.27,4.27,0,0,0-5.12.78,59.86,59.86,0,0,0-5.06,5.74,58.4,58.4,0,0,0-8.11,14.62,53.9,53.9,0,0,0-3.6,16.53,123.62,123.62,0,0,1-.93,13.62c-.86,6-1.81,12-5.89,17-1.54,1.88-.6,5.95,2.92,6C355,424.52,355.91,424.59,356.78,424.64Zm95.68,48.53c.56,0,1.12,0,1.68,0,1.27-.1,2.55-.2,3.82-.37,9.44-1.35,17.13-5.75,22.36-13.74a47.73,47.73,0,0,1,8.87-10.28c.91-.78,1.75-1.63,2.61-2.48a44.69,44.69,0,0,0,8.05-10.67c1.84-3.44,2.34-7,.59-10.57a73.83,73.83,0,0,0-4.8-8.25c-1.79-2.69-3.48-5.41-4.14-8.58a49,49,0,0,1-1-7.55c-.14-3-1.8-5.15-4.38-4.82-6.14.77-12.12,2.11-17.37,5.68-2.49,1.7-2.94,3.06-1.68,5.88s2.43,5.38,3.7,8a7,7,0,0,1,.44,4.68,50.94,50.94,0,0,1-8.12,18.54,15.59,15.59,0,0,1-8.84,6.49c-8.33,2.3-15,7.32-20.61,13.82a15.6,15.6,0,0,0-1.31,1.72c-1.66,2.54-1.36,4.82.94,6.77a19.6,19.6,0,0,0,2.54,1.78C441,472.27,446.66,473,452.46,473.17Zm141.23,7.4c-1,.39-1.71.66-2.43,1-2.48,1.11-5.11,2-6.92,4.16a7.71,7.71,0,0,0-2,3.71,19.28,19.28,0,0,0,1.17,9.19,8.17,8.17,0,0,0,4,4.87,40,40,0,0,0,7.23,2.47,50.58,50.58,0,0,0,13.12.86,7.07,7.07,0,0,0,6.64-4.31,37.34,37.34,0,0,0,1.68-3.71c1-3,1.84-6.11,2.87-9.14a15.36,15.36,0,0,0,.33-8.93c-1-4.11-2-8.24-2.84-12.38a38.33,38.33,0,0,1-.87-18c.32-2.86.83-5.69,1.28-8.53a3.76,3.76,0,0,0-1.62-4,35.12,35.12,0,0,0-4.19-2.7c-2.86-1.41-5.84-2.58-8.73-4A12.91,12.91,0,0,1,597,427a68.41,68.41,0,0,1-7-12c-1-2.39-3.1-3.09-5.26-1.64a17.23,17.23,0,0,0-3.27,3.12,13.8,13.8,0,0,0-1.79,16.27,32.93,32.93,0,0,0,4,5.4A11.48,11.48,0,0,1,586,450a5.84,5.84,0,0,0,.7,5,15.59,15.59,0,0,0,5,5.43,5,5,0,0,1,2.49,4.82C594.08,470.35,593.87,475.45,593.69,480.57ZM150.28,399.13A84.63,84.63,0,0,0,159.76,414c5.43,6.5,11.93,11.78,18.81,16.63a25,25,0,0,0,5.71,3,121.45,121.45,0,0,0,25.92,6.73c2,.26,4,.35,6,.61,4,.51,7.91,1.13,11.88,1.6a5.3,5.3,0,0,0,2.75-.44c1.46-.73,2-2.3,1.3-4.17-1.38-3.57-2.84-7.12-4.53-10.54-5.56-11.26-13.8-19.87-25.38-25.07a18.23,18.23,0,0,1-1.73-.82c-3.55-2.09-7.51-3.58-10.05-7.13A18.1,18.1,0,0,0,187.7,392c-3-2.74-6.12-2.72-9.44-.75-.14.08-.27.18-.41.25a30.83,30.83,0,0,1-11.67,3.18c-3.74.14-7.46.74-11.17,1.25A6.51,6.51,0,0,0,150.28,399.13Zm415.49-22.38a14.66,14.66,0,0,0-3.11,0c-1.84.43-3.87.74-5.39,1.74a20.14,20.14,0,0,0-6.17,6.29c-5.07,8.31-10.94,16.16-14.69,25.23-1.28,3.09-2.52,6.2-3.6,9.36a5.44,5.44,0,0,0,.13,3,26.91,26.91,0,0,0,7.23,11.41,26.2,26.2,0,0,0,11.2,6.72c5.11,1.53,10.31,2.8,15.47,4.18,1.08.29,2.16.6,3.26.78,2.24.37,3.8-.65,4.17-2.89a14,14,0,0,0,0-4c-.49-4-2.25-7.5-4.18-10.9a11.58,11.58,0,0,1-1-9,26.21,26.21,0,0,1,1.8-4.93A28.08,28.08,0,0,1,580.32,403a6.23,6.23,0,0,0,2.91-5.84c-.1-3.18.18-6.38.38-9.56a5.41,5.41,0,0,0-2-4.68C577.05,379.12,572,376.32,565.77,376.75ZM468.93,254.9V255c-6.62.4-13.24.85-19.87,1.17-8.86.43-17.73.66-26.59,1.17-4.62.27-9.22.91-13.82,1.49-3.32.41-4.67,3.41-2.9,6.18.48.74.93,1.49,1.39,2.24a62.6,62.6,0,0,0,24.66,23.22,10.71,10.71,0,0,0,8.33.78,17.18,17.18,0,0,0,3.76-1.54c3-1.73,5.89-3.53,8.76-5.43a4.23,4.23,0,0,1,4-.72c2.34.8,4.72,1.49,7.11,2.15a11.56,11.56,0,0,0,11.71-3,27,27,0,0,0,6.74-10.36c1.65-4.46,1.67-9.08,1.45-13.72a3.58,3.58,0,0,0-2.8-3.25,11.86,11.86,0,0,0-3.31-.45C474.69,254.86,471.81,254.9,468.93,254.9Zm-347-6.68a29.7,29.7,0,0,0,4-1.54c7.06-3.85,12.75-9,15.8-16.7.47-1.18,1.07-2.32,1.61-3.47,1.13-2.4.58-4.22-1.9-5.28a15.88,15.88,0,0,0-5.27-1.42A44.32,44.32,0,0,1,120,216c-2.59-1.15-5.21-2.5-8.19-2.44-4.87.1-9.76,0-14.6.37a65.69,65.69,0,0,1-18.36-1.06c-3.06-.61-3.7-.31-5.55,2.35-2.33,3.34-4.67,6.68-7.2,9.86-1.89,2.39-2.18,3.89,0,6,3.25,3.18,6.71,6.15,10.06,9.23a18.25,18.25,0,0,0,7.91,4.32,48.69,48.69,0,0,0,8,1.55C101.83,246.94,111.64,247.53,122,248.22ZM544.77,375.6c.22-7.61-2.93-13.38-8.28-18.12a14.2,14.2,0,0,0-9.87-3.67,28.77,28.77,0,0,0-18.27,6.87c-4.12,3.37-8.85,4.85-14,5.64a33.31,33.31,0,0,0-6.93,1.72c-4.42,1.72-5.27,3.37-5,8.1.31,5.41,4.48,11.15,10.66,11.73a48.87,48.87,0,0,1,8.86,2,16.35,16.35,0,0,1,8,4.7c2.06,2.33,3.91,4.86,6,7.13a20.62,20.62,0,0,0,4.41,3.6,4.75,4.75,0,0,0,5,0,20.39,20.39,0,0,0,4.23-3.1c4.84-5.11,9.44-10.43,12.67-16.77C543.93,382.24,545.11,379,544.77,375.6Zm27.39-42.71a24.3,24.3,0,0,0-1.43-9.1c-1.65-4.51-4.48-6.49-9.25-6.45a8.46,8.46,0,0,0-1.67.08c-2.57.53-5.17,1-7.7,1.7a13.34,13.34,0,0,1-5.44.35,43.17,43.17,0,0,1-12.29-3.89,36.19,36.19,0,0,0-3.5-1.55,5.3,5.3,0,0,0-6.79,2.91,41.72,41.72,0,0,0-3.61,13.84,44.93,44.93,0,0,0,.36,8.11,7.12,7.12,0,0,0,5,6.14,34.76,34.76,0,0,0,6,1.5,54,54,0,0,1,10.5,2.32,16.93,16.93,0,0,1,10.19,9.53c.64,1.46,1.19,3,1.74,4.46,1.49,4.08,4.11,6.79,8.66,7.12a23.79,23.79,0,0,0,11.62-2.35,3.76,3.76,0,0,0,1.58-1.69,10,10,0,0,0,1-7c-1-4.42-2-8.89-3.27-13.24A40.74,40.74,0,0,1,572.16,332.89ZM140.62,166.51a33.56,33.56,0,0,1,13,2.8c4,1.69,6.71,4.51,7.26,9.07A28.94,28.94,0,0,0,162,183c1.05,3.55,3.29,5.37,6.92,5.55a19.42,19.42,0,0,0,8.24-1.26c2.81-1.14,5.55-2.46,8.28-3.78a19.41,19.41,0,0,0,7.71-6.67,52.21,52.21,0,0,0,6.38-12.57,45.78,45.78,0,0,1,6.18-12.12c1.54-2.15,1.29-4.2-.7-6a7.47,7.47,0,0,0-2.48-1.35,67.16,67.16,0,0,0-21.19-3.47,6.78,6.78,0,0,0-6.51,3.58c-1.2,2-2.41,4-3.73,5.86-1.94,2.76-4.3,5-7.89,5.28a49.83,49.83,0,0,1-6.91.08c-4.38-.32-8.75-1-13.14-.2a12.73,12.73,0,0,0-8.28,4.83c-1.86,2.45-.7,5.22,2.36,5.66A23.39,23.39,0,0,0,140.62,166.51Zm406.55,109c0-.78,0-1.19,0-1.58a4.82,4.82,0,0,0-2.58-5.22c-2.77-1.59-5.45-3.36-8.33-4.71-9-4.27-18.71-6.41-28.58-7.66-2.61-.33-5.26-.36-7.89-.45a3.47,3.47,0,0,0-3.58,1.94c-1.29,2.91-2.59,5.83-3.64,8.83a49.44,49.44,0,0,0-1.38,6.07,24.24,24.24,0,0,0-.38,9.52,6.17,6.17,0,0,0,4.27,5,13.1,13.1,0,0,0,7.79,0,7.48,7.48,0,0,1,3.26-.47c3.27.64,6.3,1.8,8,5.06.77,1.48,1.74,2.86,2.64,4.28a9.84,9.84,0,0,0,4.92,4.37,11.7,11.7,0,0,0,12.67-2.45,51.79,51.79,0,0,0,9.28-11.21C545.89,283.25,547.4,279.5,547.17,275.55ZM187.1,465.39l-2.24,1.17a27.68,27.68,0,0,0-10.36,9.06,11,11,0,0,0-2.1,6.74,3.8,3.8,0,0,0,1.35,2.95c1.88,1.51,3.85,2.94,6.3,3.27,3.39.46,6.8.79,10.22,1.06,2.48.19,5.06.16,7.21,1.47,3.42,2.08,7.15,2.07,10.89,2.08a6.28,6.28,0,0,0,4.77-1.93c1.88-2.05,3.78-4.1,5.53-6.26a8.65,8.65,0,0,0,1.73-7c-.46-3.07-1.92-5.73-3.39-8.38a13.37,13.37,0,0,1-1.54-5,60.22,60.22,0,0,1,.05-13.15c.34-3.52-1-4.85-4.58-4.6a46.57,46.57,0,0,1-15.89-1.63,37.13,37.13,0,0,0-6.34-1.21c-2.8-.27-4.37,1.57-3.9,4.32.21,1.25.57,2.49.81,3.74A82.41,82.41,0,0,1,187.1,465.39Zm403.54-134c.81-.08,1.29-.12,1.76-.18,2.79-.35,4.52-2.75,3.36-5.57-1.28-3.09-2.26-6.31-3.43-9.45-1.62-4.33-3.39-8.61-4.92-13a30.24,30.24,0,0,0-4.65-9.14c-3.42-4.22-6.89-8.4-10.56-12.41a23.94,23.94,0,0,0-9-6.26c-3.26-1.26-6,.43-6.3,3.88a14.83,14.83,0,0,1-.38,3.08c-1.86,6-4.72,11.31-10.14,15a19.63,19.63,0,0,0-6.44,7c-1.54,2.88-.47,5.52,2.51,6.75,3.25,1.35,6.39.88,9.6-.07,5.6-1.67,11.19-2.43,16.89-.17,4.07,1.61,7.57,3.73,9.47,7.89.84,1.81,1.83,3.55,2.74,5.33a13.68,13.68,0,0,0,9.47,7.33ZM142.19,137.2c-.8,0-1.6,0-2.39,0a63.19,63.19,0,0,0-22.24,2.8c-9.76,3.18-19.82,12.08-20.13,26.42-.05,2.4,0,4.79-.07,7.19a4.08,4.08,0,0,0,3.55,4.6,14.07,14.07,0,0,0,7.59-.23c3.08-1.06,6.1-2.34,9.13-3.57a6.66,6.66,0,0,0,3.73-4.15c.94-2.54,2-5.06,2.89-7.62A23.75,23.75,0,0,1,135.11,150a14.62,14.62,0,0,1,9.2-2.07A68.19,68.19,0,0,1,154,149.5c4.63,1.26,10.84-1.73,13.56-5.74a3.27,3.27,0,0,0-1.94-5.12,14.25,14.25,0,0,0-2.37-.35A151.25,151.25,0,0,0,142.19,137.2ZM583.26,346.65a62.67,62.67,0,0,0,1.91,14c1.38,5.91,2.77,11.8,5.6,17.26A101.27,101.27,0,0,0,605,398.31c.9,1,1.91,1.92,2.89,2.87a5.67,5.67,0,0,0,1.12.9c3.26,1.8,6.95,1.31,7-3.51a44.94,44.94,0,0,1,1.41-10.9,5.1,5.1,0,0,0-1.4-5.06c-.65-.7-1.33-1.39-2-2a31.64,31.64,0,0,1-8.22-12.78c-2.82-7.74-5.23-15.59-6.15-23.83-.34-3-1.21-3.73-4.27-4-2-.2-4-.4-5.93-.76a4.88,4.88,0,0,0-6.14,4.62C583.2,344.73,583.26,345.7,583.26,346.65Zm-464.34-142,0-.37c3.72.33,7.44.7,11.16,1a5,5,0,0,0,2.77-.31,26.54,26.54,0,0,0,5.37-3.92c2.32-2.39,1.6-4.91-1.46-6.22a17.11,17.11,0,0,1-3.19-1.55c-3.22-2.22-6.34-4.58-9.55-6.81a5.79,5.79,0,0,0-2.42-.91,52.1,52.1,0,0,0-15.27-.15A25.81,25.81,0,0,0,96.31,189a26.71,26.71,0,0,1-10.44,4c-1.66.25-3.31.58-4.93,1-2.71.67-5.41,1.38-8.08,2.17a3.16,3.16,0,0,0-2.41,3.21,3.27,3.27,0,0,0,2.33,3.27c1,.42,2.1.77,3.1,1.25a18.52,18.52,0,0,0,13,1.06,44.46,44.46,0,0,1,16.14-1.09C109.66,204.28,114.3,204.37,118.92,204.64ZM623.55,398.92l-.12,0c.27,2.46.64,4.91.78,7.38a7.66,7.66,0,0,0,2,4.73,77,77,0,0,0,25,19c4.94,2.42,9.89,4.81,14.81,7.26a3.34,3.34,0,0,0,4.7-1.42,5,5,0,0,0,.17-3.95c-1.26-4.28-4.08-7.25-7.57-9.87-3.7-2.77-7.23-5.78-10.71-8.82-4.8-4.21-9.45-8.61-14.26-12.82-2.82-2.47-5.78-4.8-8.78-7.05-2.7-2-5.43-.72-5.83,2.63C623.62,397,623.6,398,623.55,398.92Zm-460-176.37a4.29,4.29,0,0,0,3.65-2.3q6.65-10.08,13.29-20.17a3.75,3.75,0,0,0,.56-1.3c.56-2.75-1.79-4.66-4.67-3.81-1.91.57-3.8,1.18-5.7,1.79a9.09,9.09,0,0,1-5.19.19c-3.16-.85-6.35-1.6-9.46-2.59a4.17,4.17,0,0,0-4.41.83,23.43,23.43,0,0,0-7.76,14.19,3.85,3.85,0,0,0,1.48,3.8,25.63,25.63,0,0,0,6.18,4c3.57,1.58,7.09,3.28,10.64,4.91A10.6,10.6,0,0,0,163.51,222.55ZM53.65,222c1.26-.41,2.87-.46,3.7-1.3a54.82,54.82,0,0,0,6.31-7.47,4.64,4.64,0,0,0-2.92-7.14c-2.33-.48-4.59-1.36-6.92-1.83a7.83,7.83,0,0,0-3.73.13,26.45,26.45,0,0,0-4.75,2.26,3.12,3.12,0,0,0-1.67,3.84,63.43,63.43,0,0,0,2,6.11C47.09,220.14,49.83,221.73,53.65,222Zm85.86-48.58v-.09h-2.39c-3.82.06-5.31,1.1-6.65,4.62-.88,2.31-.61,4.06,1.35,5.54a46.42,46.42,0,0,0,6.64,4.2c4.51,2.33,8.11.31,11.08-2.38a3.54,3.54,0,0,0,.82-1.68c1.09-4.16-2.59-9.42-7-10C142.06,173.47,140.78,173.5,139.51,173.44Z" transform="translate(-0.48 -0.48)"/><path class="cls-1" d="M148.85,333.91a13.07,13.07,0,0,1,6.56,1c2.25,1,4.48,2.11,6.78,3A24.13,24.13,0,0,0,176,339.47a12.64,12.64,0,0,0,5.08-2.55c2.32-1.7,4.57-3.5,7-5.06,5.45-3.5,11.67-4.67,18-5.42a35.75,35.75,0,0,1,8.13-.27c9.83,1.07,16.92,6.38,21.43,15a75.32,75.32,0,0,1,4.14,10.94,10.11,10.11,0,0,1,.19,3.57,22.6,22.6,0,0,1-4.43,13.14c-3.9,5.1-8,10-13.15,13.85a27.35,27.35,0,0,1-16.69,5.75,18,18,0,0,1-11.13-3.8c-1.59-1.2-3.1-2.54-4.79-3.59a25.63,25.63,0,0,0-4.94-2.33,7.79,7.79,0,0,0-7.46,1.11,39.32,39.32,0,0,1-11.82,5.71,24.38,24.38,0,0,1-10.44.56,4.08,4.08,0,0,0-1.18-.18c-2.49.41-3.94-1-5.46-2.7-5.73-6.36-8.7-14.06-11.18-22A61.77,61.77,0,0,1,134.9,347a7.22,7.22,0,0,1,.11-1.67A13.68,13.68,0,0,1,147.66,334Z" transform="translate(-0.48 -0.48)"/><path class="cls-1" d="M375.41,258.53c4.85.35,9.7.71,14.56,1.05a4.56,4.56,0,0,1,4.37,3.48c.6,1.9,1.14,3.83,1.86,5.68,2.7,7,7.33,12.5,12.92,17.29,3.28,2.81,6.75,5.39,9.95,8.28a42.4,42.4,0,0,1,4.89,5.54c1.57,2,2.94,4.18,4.43,6.26a24.43,24.43,0,0,1,4.6,14.6c0,7.34-1.8,14.4-3,21.56-.61,3.55-2.56,5.27-5.81,6.44-8.67,3.11-17.42,2.94-26.22,1a85.74,85.74,0,0,1-19.28-7.18,21.09,21.09,0,0,1-9.09-8.94,4.58,4.58,0,0,1-.13-3.91A114.55,114.55,0,0,0,374,308c1.39-12.59-.74-24.36-7.64-35.12-1.5-2.36-2.8-4.86-4.45-7.11-2-2.73-.88-6.18,3.17-6.39C368.53,259.16,371.94,258.8,375.41,258.53Z" transform="translate(-0.48 -0.48)"/><path class="cls-1" d="M360,293.92a30.47,30.47,0,0,1-2.14,9.16,63.32,63.32,0,0,1-7.56,14.12,29.73,29.73,0,0,1-4.23,4.53,5.41,5.41,0,0,1-6.88.53c-4-2.77-7.88-5.71-11.74-8.68-3.53-2.71-6-6.41-8.73-9.83a10.55,10.55,0,0,0-3.29-2.68,20.67,20.67,0,0,0-12.74-2.22,63.47,63.47,0,0,1-19.36,0c-6.3-1.08-11.78-4-16.9-7.64-3.85-2.7-7.75-5.45-10.42-9.46a32,32,0,0,1-2.74-5,10.59,10.59,0,0,1,0-8.16,72.92,72.92,0,0,1,6-12c2.15-3.64,5-4.73,9.4-2.92a159.72,159.72,0,0,1,18.56,9.49c.2.12.41.24.61.38,4.42,3,9.4,4.28,14.65,4.71,1.12.1,2.22.29,3.34.41a19.21,19.21,0,0,0,10.09-1.18,64.66,64.66,0,0,1,17.83-4.53,6.7,6.7,0,0,1,5,1.26c4.6,3.44,9.27,6.8,13,11.25a33.63,33.63,0,0,1,6.68,11A62,62,0,0,1,360,293.92Z" transform="translate(-0.48 -0.48)"/><path class="cls-1" d="M273.63,432.38c-.22,3.35-.38,6.7-.67,10.05a55.46,55.46,0,0,0,2,20.87c1.95,6.5,4.32,12.88,6.42,19.33.74,2.27,1.23,4.62,1.84,6.93.31,1.16.65,2.31.93,3.47a11,11,0,0,1,.47,2.57c-.08,5.23-5.24,11.74-10.42,12.7a48.23,48.23,0,0,1-8.34.34,16.33,16.33,0,0,1-3.33-.43,28.11,28.11,0,0,0-8.57-.65c-4.63.43-8.61-1.37-12.47-3.53a8.82,8.82,0,0,1-3.75-10,16,16,0,0,1,5.21-7.89,7.3,7.3,0,0,0,2.67-6.79,123.74,123.74,0,0,1-.07-22.28,5.34,5.34,0,0,0,.06-1.19c-.95-6.21-.29-12.46-.47-18.69a12.18,12.18,0,0,0-5.31-10.22c-1.11-.78-2.12-1.74-3.28-2.41a20.54,20.54,0,0,1-5.55-5.24A57.07,57.07,0,0,1,222.56,404a12,12,0,0,1,.18-10c2-4,5.57-5.72,9.94-4.53a48.53,48.53,0,0,1,11.53,5.23,136.38,136.38,0,0,1,19.26,13.79c2.14,1.8,4.17,3.74,6.14,5.72a13,13,0,0,1,3.93,9.73c0,2.8,0,5.59,0,8.39Z" transform="translate(-0.48 -0.48)"/><path class="cls-1" d="M282.06,424.8c.08-1.11.17-2.23.24-3.35a16.78,16.78,0,0,0-1.13-7.28c-.67-1.71-1.26-3.45-1.81-5.2a3.27,3.27,0,0,1,2.13-4.42c1.18-.47,2.48-.65,3.64-1.16,8.5-3.74,17-7.54,23.79-14.09a17.08,17.08,0,0,0,2.56-3.13,78.48,78.48,0,0,1,14.79-17.82,65.47,65.47,0,0,0,11.35-13.24,48.71,48.71,0,0,0,6-12.21,38.85,38.85,0,0,1,2.67-6.39c2-3.81,5.18-4.55,8.8-2.17a9.45,9.45,0,0,1,2.64,2.39c4.71,7,5.36,17,.74,23.26-1.29,1.74-2.32,3.68-3.73,5.29-3.69,4.18-5.23,9.25-6.51,14.49a19.35,19.35,0,0,0-.06,10.43c2.49,8.14.81,15.85-2.45,23.31a97.61,97.61,0,0,1-5.92,10.67,11,11,0,0,1-7.24,5.07c-13.58,3.33-27.17,6.62-41,8.72-1.41.22-2.86.25-4.29.35a3.52,3.52,0,0,1-4-2.65,26.62,26.62,0,0,1-1.08-4.88c-.18-2,0-4,0-6Z" transform="translate(-0.48 -0.48)"/><path class="cls-1" d="M313.3,320.57c4.59,0,9.1.47,13.26,2.62a20.32,20.32,0,0,1,8.84,8.18,9,9,0,0,1,.83,7.36,46,46,0,0,1-6,12.49A129.84,129.84,0,0,1,302.72,381C295.1,387,287,391.91,277.57,394.6a33.37,33.37,0,0,1-21.15-.92,28.86,28.86,0,0,1-10.29-6.87c-4.11-4.07-4.66-11.39-1.43-16.66,2.34-3.8,5.9-6,9.91-7.56A44.61,44.61,0,0,1,266.52,360a49.6,49.6,0,0,0,5.48-.54,15.26,15.26,0,0,0,4.62-1.82A50.46,50.46,0,0,0,289.86,346a96.2,96.2,0,0,0,11.65-18.39c.61-1.3,1.4-2.52,2-3.81a5.55,5.55,0,0,1,5-3.21C310.1,320.49,311.71,320.57,313.3,320.57Z" transform="translate(-0.48 -0.48)"/><path class="cls-1" d="M253.28,233.66c-2.44-.72-4.88-1.41-7.3-2.17a10.48,10.48,0,0,1-2.19-1c-4.47-2.52-9.18-2.32-14-1.32a56.64,56.64,0,0,1-14,1.39A22.69,22.69,0,0,1,199,223a62.37,62.37,0,0,1-9.38-12.66,6,6,0,0,1,.26-6.11,112.14,112.14,0,0,0,5-10.06,201.78,201.78,0,0,1,16-30.79c.51-.81,1-1.64,1.51-2.45,1.8-2.87,4.19-3.5,7.14-1.76a31.74,31.74,0,0,1,7.93,7.23,99.35,99.35,0,0,1,14.22,23.25,27.23,27.23,0,0,0,4.55,7,75.53,75.53,0,0,1,10.13,14.21A41.3,41.3,0,0,1,261,222.92a10.43,10.43,0,0,1-2.52,8.7C257.14,233.21,255.24,233.29,253.28,233.66Z" transform="translate(-0.48 -0.48)"/><path class="cls-1" d="M276.51,335.58c-.87,3.5-1.4,6.66-2.44,9.65-1.41,4-4.25,6.8-8.58,7.52a13.6,13.6,0,0,1-12.83-4.36,18.11,18.11,0,0,1-4.49-8.1c-.94-3.86-1.59-7.81-2.42-11.7a5.16,5.16,0,0,0-.86-1.91,36.83,36.83,0,0,0-11.95-10.56,7.81,7.81,0,0,0-4.4-.62c-4.63.14-9.26.33-13.89.27a14.35,14.35,0,0,1-8.54-2.77,11.09,11.09,0,0,1-3.5-13.34A21.16,21.16,0,0,1,212,289.14a12.93,12.93,0,0,1,7.12-1.76,4.87,4.87,0,0,0,4.56-2.26,21.9,21.9,0,0,1,14.6-8.78c3.57-.49,6.39,1,8.52,3.82S250,286.57,251,290a15.8,15.8,0,0,0,1.74,4.15,51.88,51.88,0,0,0,15.31,16,2.85,2.85,0,0,0,3,.38A25.85,25.85,0,0,1,283.55,309a16.74,16.74,0,0,1,6.89,2.51c4.75,2.83,5.32,8.46,2.82,12.54a23.49,23.49,0,0,1-7,7.1A31.14,31.14,0,0,1,276.51,335.58Z" transform="translate(-0.48 -0.48)"/><path class="cls-1" d="M158.3,325.22c-3.38-.58-6.79-1-10.12-1.8a15.67,15.67,0,0,1-5.19-2.37c-5.7-4-6.77-7.15-5.49-14a113.49,113.49,0,0,0,2.26-23.33c-.06-2.71.12-5.45-.09-8.15-.37-4.77-.88-9.54-2.72-14-.94-2.29-1.83-4.61-2.73-6.92s-.57-3.58,1.29-5.3c2.16-2,4.3-4,6.26-6.25a48.11,48.11,0,0,0,3.43-4.89,42.92,42.92,0,0,1,3.74-5.25,7.78,7.78,0,0,1,11.94.68,7.19,7.19,0,0,1,1.26,3.28,9.27,9.27,0,0,1-.25,3.55c-1.14,4.57-2.3,9.14-3.66,13.65-.69,2.28-.37,4.08,1.41,5.61,4.67,4,9.26,8.1,14.05,12a32.48,32.48,0,0,1,12.12,20.84c1.5,9.64-1.71,18-8.7,24.78a39,39,0,0,1-3.14,2.6A27.49,27.49,0,0,1,158.3,325.22Z" transform="translate(-0.48 -0.48)"/><path class="cls-1" d="M511.33,312.2c0,3.59.22,7.2-.07,10.77a51.23,51.23,0,0,1-1.67,7.94c-.33,1.39-.91,2.71-1.26,4.1a50.68,50.68,0,0,1-8.47,18.12c-5.23,7-12.57,8.84-20.52,5.09-3.62-1.71-6.88-3.88-8.25-7.89-.85-2.47-1.42-5-2.11-7.55a6.19,6.19,0,0,0-.34-1.38c-2.51-4.43-5.54-8.39-10.22-10.79-2.91-1.49-5.79-3.07-8.73-4.5-3.91-1.91-6.23-4.82-6.44-9.3-.27-5.65,0-11.18,3-16.23a12.56,12.56,0,0,1,12.37-6c.63.09,1.27.15,1.91.21a16.41,16.41,0,0,1,5.67,1.65c9.31,4.47,18.95,6.15,29.05,2.79,2.12-.71,4.25-1.39,6.38-2.07a6.25,6.25,0,0,1,8.31,4.24A27.67,27.67,0,0,1,511.33,312.2Z" transform="translate(-0.48 -0.48)"/><path class="cls-1" d="M460.32,351a15.58,15.58,0,0,1-2.59,8.36,2.62,2.62,0,0,0-.17,2.88,10.17,10.17,0,0,0,1.3,2,29,29,0,0,0,7.94,6.85,20.64,20.64,0,0,1,7,6.11,13,13,0,0,1,2.33,5.95c.53,3.73-1,6.33-4.21,8.1A176.22,176.22,0,0,1,450.55,401a149.08,149.08,0,0,1-27,8.17c-4.16.77-8.37,1.29-12.57,1.78-2.91.34-4.58-1.62-3.82-4.49.71-2.7,1.64-5.34,2.53-8,.7-2,1.53-4,2.21-6.08a13.8,13.8,0,0,0,.22-8.46,44.23,44.23,0,0,1-1.6-15.18,14.48,14.48,0,0,1,1.39-4.5,3.43,3.43,0,0,1,2.62-1.89,42.74,42.74,0,0,0,17.13-8.24,14.87,14.87,0,0,0,4.46-5.53c1.22-2.61,2.44-5.21,3.68-7.81,2.24-4.69,4.36-5.49,9.23-3.58a19.34,19.34,0,0,1,8.88,6.67A11.69,11.69,0,0,1,460.32,351Z" transform="translate(-0.48 -0.48)"/><path class="cls-1" d="M207.14,278.77c-5.52.14-11.82-2.08-17.53-6.11-2.61-1.84-5.26-3.62-7.86-5.48-3.76-2.7-6.5-6.35-9.09-10.1a14.32,14.32,0,0,1-1.54-3.23c-2.66-7.38-3.74-14.86-1.2-22.52A43.07,43.07,0,0,1,178,217.55c1.75-2.12,4.3-2,6.24,0,1.49,1.55,2.93,3.17,4.49,4.65a27.93,27.93,0,0,1,7.17,10.35,11.35,11.35,0,0,0,5.61,6.29c4.35,2.18,8.65,4.58,13.71,4.68a30.43,30.43,0,0,0,10.16-1.38c4.81-1.56,9.68-2.85,14.78-2.67a41.51,41.51,0,0,1,6.11,1c2.4.46,3.64,2.28,4.43,4.32a4.45,4.45,0,0,1-.16,3c-.67,1.61-1.68,3.08-2.5,4.63s-1.52,3.12-2.37,4.64a8,8,0,0,1-1.47,1.82c-.91.87-2,1.56-2.83,2.5a56.39,56.39,0,0,1-18.42,13.94A32.48,32.48,0,0,1,207.14,278.77Z" transform="translate(-0.48 -0.48)"/><path class="cls-1" d="M356.78,424.64c-.87-.05-1.75-.12-2.62-.13-3.52,0-4.46-4.09-2.92-6,4.08-5,5-11,5.89-17a123.62,123.62,0,0,0,.93-13.62,53.9,53.9,0,0,1,3.6-16.53,58.4,58.4,0,0,1,8.11-14.62,59.86,59.86,0,0,1,5.06-5.74,4.27,4.27,0,0,1,5.12-.78,50.67,50.67,0,0,1,22.58,20.09,12.81,12.81,0,0,1,1.48,8.57c-1,7.19-2.41,14.32-3.67,21.48-.91,5.1-3.08,9.71-5.52,14.22a4.62,4.62,0,0,1-2.77,2.12,118.71,118.71,0,0,1-18.71,5.1c-5.5,1-11,2-16.51,2.94Z" transform="translate(-0.48 -0.48)"/><path class="cls-1" d="M452.46,473.17c-5.8-.2-11.48-.9-16.61-3.91a19.6,19.6,0,0,1-2.54-1.78c-2.3-2-2.6-4.23-.94-6.77a15.6,15.6,0,0,1,1.31-1.72c5.59-6.5,12.28-11.52,20.61-13.82a15.59,15.59,0,0,0,8.84-6.49,50.94,50.94,0,0,0,8.12-18.54,7,7,0,0,0-.44-4.68c-1.27-2.67-2.49-5.36-3.7-8s-.81-4.18,1.68-5.88c5.25-3.57,11.23-4.91,17.37-5.68,2.58-.33,4.24,1.79,4.38,4.82a49,49,0,0,0,1,7.55c.66,3.17,2.35,5.89,4.14,8.58a73.83,73.83,0,0,1,4.8,8.25c1.75,3.56,1.25,7.13-.59,10.57a44.69,44.69,0,0,1-8.05,10.67c-.86.85-1.7,1.7-2.61,2.48a47.73,47.73,0,0,0-8.87,10.28c-5.23,8-12.92,12.39-22.36,13.74-1.27.17-2.55.27-3.82.37C453.58,473.2,453,473.17,452.46,473.17Z" transform="translate(-0.48 -0.48)"/><path class="cls-1" d="M593.69,480.57c.18-5.12.39-10.22.52-15.32a5,5,0,0,0-2.49-4.82,15.59,15.59,0,0,1-5-5.43,5.84,5.84,0,0,1-.7-5,11.48,11.48,0,0,0-2.41-11.8,32.93,32.93,0,0,1-4-5.4,13.8,13.8,0,0,1,1.79-16.27,17.23,17.23,0,0,1,3.27-3.12c2.16-1.45,4.26-.75,5.26,1.64a68.41,68.41,0,0,0,7,12,12.91,12.91,0,0,0,5.44,4.18c2.89,1.38,5.87,2.55,8.73,4a35.12,35.12,0,0,1,4.19,2.7,3.76,3.76,0,0,1,1.62,4c-.45,2.84-1,5.67-1.28,8.53a38.33,38.33,0,0,0,.87,18c.87,4.14,1.83,8.27,2.84,12.38a15.36,15.36,0,0,1-.33,8.93c-1,3-1.86,6.12-2.87,9.14a37.34,37.34,0,0,1-1.68,3.71,7.07,7.07,0,0,1-6.64,4.31,50.58,50.58,0,0,1-13.12-.86,40,40,0,0,1-7.23-2.47,8.17,8.17,0,0,1-4-4.87,19.28,19.28,0,0,1-1.17-9.19,7.71,7.71,0,0,1,2-3.71c1.81-2.13,4.44-3,6.92-4.16C592,481.23,592.72,481,593.69,480.57Z" transform="translate(-0.48 -0.48)"/><path class="cls-1" d="M150.28,399.13A6.51,6.51,0,0,1,155,396c3.71-.51,7.43-1.11,11.17-1.25a30.83,30.83,0,0,0,11.67-3.18c.14-.07.27-.17.41-.25,3.32-2,6.48-2,9.44.75a18.1,18.1,0,0,1,2.69,2.37c2.54,3.55,6.5,5,10.05,7.13a18.23,18.23,0,0,0,1.73.82c11.58,5.2,19.82,13.81,25.38,25.07,1.69,3.42,3.15,7,4.53,10.54.73,1.87.16,3.44-1.3,4.17a5.3,5.3,0,0,1-2.75.44c-4-.47-7.92-1.09-11.88-1.6-2-.26-4-.35-6-.61a121.45,121.45,0,0,1-25.92-6.73,25,25,0,0,1-5.71-3c-6.88-4.85-13.38-10.13-18.81-16.63A84.63,84.63,0,0,1,150.28,399.13Z" transform="translate(-0.48 -0.48)"/><path class="cls-1" d="M565.77,376.75c6.25-.43,11.28,2.37,15.86,6.19a5.41,5.41,0,0,1,2,4.68c-.2,3.18-.48,6.38-.38,9.56a6.23,6.23,0,0,1-2.91,5.84A28.08,28.08,0,0,0,571,413.74a26.21,26.21,0,0,0-1.8,4.93,11.58,11.58,0,0,0,1,9c1.93,3.4,3.69,6.94,4.18,10.9a14,14,0,0,1,0,4c-.37,2.24-1.93,3.26-4.17,2.89-1.1-.18-2.18-.49-3.26-.78-5.16-1.38-10.36-2.65-15.47-4.18a26.2,26.2,0,0,1-11.2-6.72,26.91,26.91,0,0,1-7.23-11.41,5.44,5.44,0,0,1-.13-3c1.08-3.16,2.32-6.27,3.6-9.36,3.75-9.07,9.62-16.92,14.69-25.23a20.14,20.14,0,0,1,6.17-6.29c1.52-1,3.55-1.31,5.39-1.74A14.66,14.66,0,0,1,565.77,376.75Z" transform="translate(-0.48 -0.48)"/><path class="cls-1" d="M468.93,254.9c2.88,0,5.76,0,8.63,0a11.86,11.86,0,0,1,3.31.45,3.58,3.58,0,0,1,2.8,3.25c.22,4.64.2,9.26-1.45,13.72a27,27,0,0,1-6.74,10.36,11.56,11.56,0,0,1-11.71,3c-2.39-.66-4.77-1.35-7.11-2.15a4.23,4.23,0,0,0-4,.72c-2.87,1.9-5.79,3.7-8.76,5.43a17.18,17.18,0,0,1-3.76,1.54,10.71,10.71,0,0,1-8.33-.78,62.6,62.6,0,0,1-24.66-23.22c-.46-.75-.91-1.5-1.39-2.24-1.77-2.77-.42-5.77,2.9-6.18,4.6-.58,9.2-1.22,13.82-1.49,8.86-.51,17.73-.74,26.59-1.17,6.63-.32,13.25-.77,19.87-1.17Z" transform="translate(-0.48 -0.48)"/><path class="cls-1" d="M122,248.22c-10.32-.69-20.13-1.28-29.92-2.05a48.69,48.69,0,0,1-8-1.55,18.25,18.25,0,0,1-7.91-4.32c-3.35-3.08-6.81-6.05-10.06-9.23-2.17-2.12-1.88-3.62,0-6,2.53-3.18,4.87-6.52,7.2-9.86,1.85-2.66,2.49-3,5.55-2.35a65.69,65.69,0,0,0,18.36,1.06c4.84-.4,9.73-.27,14.6-.37,3-.06,5.6,1.29,8.19,2.44a44.32,44.32,0,0,0,16.21,3.83,15.88,15.88,0,0,1,5.27,1.42c2.48,1.06,3,2.88,1.9,5.28-.54,1.15-1.14,2.29-1.61,3.47-3.05,7.68-8.74,12.85-15.8,16.7A29.7,29.7,0,0,1,122,248.22Z" transform="translate(-0.48 -0.48)"/><path class="cls-1" d="M544.77,375.6c.34,3.38-.84,6.64-2.45,9.83-3.23,6.34-7.83,11.66-12.67,16.77a20.39,20.39,0,0,1-4.23,3.1,4.75,4.75,0,0,1-5,0,20.62,20.62,0,0,1-4.41-3.6c-2.12-2.27-4-4.8-6-7.13a16.35,16.35,0,0,0-8-4.7,48.87,48.87,0,0,0-8.86-2c-6.18-.58-10.35-6.32-10.66-11.73-.28-4.73.57-6.38,5-8.1a33.31,33.31,0,0,1,6.93-1.72c5.12-.79,9.85-2.27,14-5.64a28.77,28.77,0,0,1,18.27-6.87,14.2,14.2,0,0,1,9.87,3.67C541.84,362.22,545,368,544.77,375.6Z" transform="translate(-0.48 -0.48)"/><path class="cls-1" d="M572.16,332.89a40.74,40.74,0,0,0,1.74,12.83c1.29,4.35,2.22,8.82,3.27,13.24a10,10,0,0,1-1,7,3.76,3.76,0,0,1-1.58,1.69A23.79,23.79,0,0,1,563,370c-4.55-.33-7.17-3-8.66-7.12-.55-1.5-1.1-3-1.74-4.46a16.93,16.93,0,0,0-10.19-9.53,54,54,0,0,0-10.5-2.32,34.76,34.76,0,0,1-6-1.5,7.12,7.12,0,0,1-5-6.14,44.93,44.93,0,0,1-.36-8.11,41.72,41.72,0,0,1,3.61-13.84,5.3,5.3,0,0,1,6.79-2.91,36.19,36.19,0,0,1,3.5,1.55,43.17,43.17,0,0,0,12.29,3.89,13.34,13.34,0,0,0,5.44-.35c2.53-.7,5.13-1.17,7.7-1.7a8.46,8.46,0,0,1,1.67-.08c4.77,0,7.6,1.94,9.25,6.45A24.3,24.3,0,0,1,572.16,332.89Z" transform="translate(-0.48 -0.48)"/><path class="cls-1" d="M140.62,166.51a23.39,23.39,0,0,1-3.35,0c-3.06-.44-4.22-3.21-2.36-5.66a12.73,12.73,0,0,1,8.28-4.83c4.39-.79,8.76-.12,13.14.2a49.83,49.83,0,0,0,6.91-.08c3.59-.25,5.95-2.52,7.89-5.28,1.32-1.89,2.53-3.88,3.73-5.86a6.78,6.78,0,0,1,6.51-3.58,67.16,67.16,0,0,1,21.19,3.47,7.47,7.47,0,0,1,2.48,1.35c2,1.78,2.24,3.83.7,6a45.78,45.78,0,0,0-6.18,12.12,52.21,52.21,0,0,1-6.38,12.57,19.41,19.41,0,0,1-7.71,6.67c-2.73,1.32-5.47,2.64-8.28,3.78a19.42,19.42,0,0,1-8.24,1.26c-3.63-.18-5.87-2-6.92-5.55a28.94,28.94,0,0,1-1.1-4.66c-.55-4.56-3.28-7.38-7.26-9.07A33.56,33.56,0,0,0,140.62,166.51Z" transform="translate(-0.48 -0.48)"/><path class="cls-1" d="M547.17,275.55c.23,3.95-1.28,7.7-3.54,11.34a51.79,51.79,0,0,1-9.28,11.21,11.7,11.7,0,0,1-12.67,2.45,9.84,9.84,0,0,1-4.92-4.37c-.9-1.42-1.87-2.8-2.64-4.28-1.69-3.26-4.72-4.42-8-5.06a7.48,7.48,0,0,0-3.26.47,13.1,13.1,0,0,1-7.79,0,6.17,6.17,0,0,1-4.27-5,24.24,24.24,0,0,1,.38-9.52,49.44,49.44,0,0,1,1.38-6.07c1.05-3,2.35-5.92,3.64-8.83a3.47,3.47,0,0,1,3.58-1.94c2.63.09,5.28.12,7.89.45,9.87,1.25,19.53,3.39,28.58,7.66,2.88,1.35,5.56,3.12,8.33,4.71a4.82,4.82,0,0,1,2.58,5.22C547.12,274.36,547.17,274.77,547.17,275.55Z" transform="translate(-0.48 -0.48)"/><path class="cls-1" d="M187.1,465.39a82.41,82.41,0,0,0-1.48-13.29c-.24-1.25-.6-2.49-.81-3.74-.47-2.75,1.1-4.59,3.9-4.32a37.13,37.13,0,0,1,6.34,1.21,46.57,46.57,0,0,0,15.89,1.63c3.57-.25,4.92,1.08,4.58,4.6a60.22,60.22,0,0,0-.05,13.15,13.37,13.37,0,0,0,1.54,5c1.47,2.65,2.93,5.31,3.39,8.38a8.65,8.65,0,0,1-1.73,7c-1.75,2.16-3.65,4.21-5.53,6.26a6.28,6.28,0,0,1-4.77,1.93c-3.74,0-7.47,0-10.89-2.08-2.15-1.31-4.73-1.28-7.21-1.47-3.42-.27-6.83-.6-10.22-1.06-2.45-.33-4.42-1.76-6.3-3.27a3.8,3.8,0,0,1-1.35-2.95,11,11,0,0,1,2.1-6.74,27.68,27.68,0,0,1,10.36-9.06Z" transform="translate(-0.48 -0.48)"/><path class="cls-1" d="M590.64,331.41a13.68,13.68,0,0,1-9.47-7.33c-.91-1.78-1.9-3.52-2.74-5.33-1.9-4.16-5.4-6.28-9.47-7.89-5.7-2.26-11.29-1.5-16.89.17-3.21,1-6.35,1.42-9.6.07-3-1.23-4.05-3.87-2.51-6.75a19.63,19.63,0,0,1,6.44-7c5.42-3.65,8.28-8.95,10.14-15a14.83,14.83,0,0,0,.38-3.08c.29-3.45,3-5.14,6.3-3.88a23.94,23.94,0,0,1,9,6.26c3.67,4,7.14,8.19,10.56,12.41a30.24,30.24,0,0,1,4.65,9.14c1.53,4.37,3.3,8.65,4.92,13,1.17,3.14,2.15,6.36,3.43,9.45,1.16,2.82-.57,5.22-3.36,5.57C591.93,331.29,591.45,331.33,590.64,331.41Z" transform="translate(-0.48 -0.48)"/><path class="cls-1" d="M142.19,137.2a151.25,151.25,0,0,1,21.06,1.09,14.25,14.25,0,0,1,2.37.35,3.27,3.27,0,0,1,1.94,5.12c-2.72,4-8.93,7-13.56,5.74a68.19,68.19,0,0,0-9.69-1.57,14.62,14.62,0,0,0-9.2,2.07,23.75,23.75,0,0,0-10.86,12.64c-.93,2.56-2,5.08-2.89,7.62a6.66,6.66,0,0,1-3.73,4.15c-3,1.23-6,2.51-9.13,3.57a14.07,14.07,0,0,1-7.59.23,4.08,4.08,0,0,1-3.55-4.6c.08-2.4,0-4.79.07-7.19.31-14.34,10.37-23.24,20.13-26.42a63.19,63.19,0,0,1,22.24-2.8C140.59,137.23,141.39,137.2,142.19,137.2Z" transform="translate(-0.48 -0.48)"/><path class="cls-1" d="M583.26,346.65c0-.95-.06-1.92,0-2.87a4.88,4.88,0,0,1,6.14-4.62c2,.36,4,.56,5.93.76,3.06.31,3.93,1,4.27,4,.92,8.24,3.33,16.09,6.15,23.83A31.64,31.64,0,0,0,614,380.57c.7.65,1.38,1.34,2,2a5.1,5.1,0,0,1,1.4,5.06,44.94,44.94,0,0,0-1.41,10.9c-.1,4.82-3.79,5.31-7,3.51a5.67,5.67,0,0,1-1.12-.9c-1-.95-2-1.86-2.89-2.87a101.27,101.27,0,0,1-14.18-20.44c-2.83-5.46-4.22-11.35-5.6-17.26A62.67,62.67,0,0,1,583.26,346.65Z" transform="translate(-0.48 -0.48)"/><path class="cls-1" d="M118.92,204.64c-4.62-.27-9.26-.36-13.86-.87a44.46,44.46,0,0,0-16.14,1.09,18.52,18.52,0,0,1-13-1.06c-1-.48-2.07-.83-3.1-1.25a3.27,3.27,0,0,1-2.33-3.27,3.16,3.16,0,0,1,2.41-3.21c2.67-.79,5.37-1.5,8.08-2.17,1.62-.4,3.27-.73,4.93-1a26.71,26.71,0,0,0,10.44-4,25.81,25.81,0,0,1,10.06-3.58,52.1,52.1,0,0,1,15.27.15,5.79,5.79,0,0,1,2.42.91c3.21,2.23,6.33,4.59,9.55,6.81a17.11,17.11,0,0,0,3.19,1.55c3.06,1.31,3.78,3.83,1.46,6.22a26.54,26.54,0,0,1-5.37,3.92,5,5,0,0,1-2.77.31c-3.72-.27-7.44-.64-11.16-1Z" transform="translate(-0.48 -0.48)"/><path class="cls-1" d="M623.55,398.92c.05-.95.07-1.92.18-2.87.4-3.35,3.13-4.64,5.83-2.63,3,2.25,6,4.58,8.78,7.05,4.81,4.21,9.46,8.61,14.26,12.82,3.48,3,7,6,10.71,8.82,3.49,2.62,6.31,5.59,7.57,9.87a5,5,0,0,1-.17,3.95,3.34,3.34,0,0,1-4.7,1.42c-4.92-2.45-9.87-4.84-14.81-7.26a77,77,0,0,1-25-19,7.66,7.66,0,0,1-2-4.73c-.14-2.47-.51-4.92-.78-7.38Z" transform="translate(-0.48 -0.48)"/><path class="cls-1" d="M163.51,222.55a10.6,10.6,0,0,1-1.39-.42c-3.55-1.63-7.07-3.33-10.64-4.91a25.63,25.63,0,0,1-6.18-4,3.85,3.85,0,0,1-1.48-3.8,23.43,23.43,0,0,1,7.76-14.19,4.17,4.17,0,0,1,4.41-.83c3.11,1,6.3,1.74,9.46,2.59a9.09,9.09,0,0,0,5.19-.19c1.9-.61,3.79-1.22,5.7-1.79,2.88-.85,5.23,1.06,4.67,3.81a3.75,3.75,0,0,1-.56,1.3q-6.63,10.09-13.29,20.17A4.29,4.29,0,0,1,163.51,222.55Z" transform="translate(-0.48 -0.48)"/><path class="cls-1" d="M53.65,222c-3.82-.29-6.56-1.88-7.94-5.4a63.43,63.43,0,0,1-2-6.11,3.12,3.12,0,0,1,1.67-3.84,26.45,26.45,0,0,1,4.75-2.26,7.83,7.83,0,0,1,3.73-.13c2.33.47,4.59,1.35,6.92,1.83a4.64,4.64,0,0,1,2.92,7.14,54.82,54.82,0,0,1-6.31,7.47C56.52,221.56,54.91,221.61,53.65,222Z" transform="translate(-0.48 -0.48)"/><path class="cls-1" d="M139.51,173.44c1.27.06,2.55,0,3.81.19,4.45.6,8.13,5.86,7,10a3.54,3.54,0,0,1-.82,1.68c-3,2.69-6.57,4.71-11.08,2.38a46.42,46.42,0,0,1-6.64-4.2c-2-1.48-2.23-3.23-1.35-5.54,1.34-3.52,2.83-4.56,6.65-4.62h2.39Z" transform="translate(-0.48 -0.48)"/></svg>