<svg id="Layer_1" data-name="Layer 1" xmlns="http://www.w3.org/2000/svg" viewBox="0 0 720 612"><defs><style>.cls-1{fill:none;stroke:#000;stroke-miterlimit:10;stroke-width:0.01px;}</style></defs><path d="M.48,612.48V.48h720v612ZM267.24,456.57c-.67-.78-1.32-1.48-1.9-2.23a33.93,33.93,0,0,0-15.24-11.58,14.3,14.3,0,0,0-15.73,3.95,14.09,14.09,0,0,0-3.33,13.6c.62,2.36,1.32,4.7,2.05,7.27-1.63-.44-3.05-.92-4.51-1.21-5.06-1-9.56-.05-13,4.11a10,10,0,0,0-2.15,7.62c.22,2.32,1.94,3.37,3.43,4.65.55.47,1.15.87,1.71,1.33a162.17,162.17,0,0,0,19.55,13.41,118.9,118.9,0,0,0,25,11.35c2.72.87,5.61,1.22,8.42,1.82a86.54,86.54,0,0,0,20.49,1.84c4.63-.13,9.25-.58,13.86-1a77.39,77.39,0,0,0,9.48-1.41c10.49-2.42,19.58-7.66,27.83-14.44,2.1-1.73,4.21-3.45,6.15-5.36,5-4.94,6.49-11.86,3.32-17.52-2.57-4.59-6.14-8.34-11.44-10-9.6-3-18.34-1.57-26,5.1-1.74,1.52-3.23,3.32-4.84,5-.34.36-.72.68-1.14,1.09-.23-2.94-.24-5.68-.67-8.34-1.45-9-4.57-17.07-11.84-23.1-3.84-3.18-11.49-5.35-17.27-1.89a19.44,19.44,0,0,0-6.32,6.11C271.17,449.84,269.33,453.1,267.24,456.57ZM639,185.68c9.56,3.35,19,4.4,28.58,2,8.82-2.24,16-6.63,20.21-15.14,2.64-5.36,2.5-10.89-1.27-14.73-6.08-6.19-13.43-8.81-22-6.49a22.65,22.65,0,0,0-6.06,2.79,69.11,69.11,0,0,0-23.22,23.49c-2.64,4.47-5,9.11-7.5,13.66-.28.51-.65,1-1.19,1.8-.1-1-.16-1.54-.21-2.08a35.66,35.66,0,0,0-4.23-14.4c-5.3-9.44-13-14.89-24.23-14.79-5.81.06-9.39,2.82-11.65,8.89-1.4,3.76-.54,7.6.66,11.29,2.13,6.54,6.3,11.58,11.62,15.8a108,108,0,0,0,15.77,10c1,.56,2,1.19,3,1.74a2.26,2.26,0,0,1-.07.69c-.32.64-.67,1.27-1,1.91-5.56,10.26-10.73,20.77-19.39,29a2.8,2.8,0,0,0-.15,4.14c2.46,2.37,4.25,5.3,7.1,7.4,11.94,8.83,25,12.64,39.71,9.41,4.77-1.05,9.48-2.27,13.76-4.77A17.79,17.79,0,0,0,663.9,250a3.44,3.44,0,0,0-.58-4.4,12.46,12.46,0,0,0-1.44-1.27,64.89,64.89,0,0,0-17.75-9.86,42.55,42.55,0,0,0-31.16-.4c-.56.21-1.16.33-2,.57C620.88,218.41,628.74,201.4,639,185.68Zm-75.16,84.79c0,.22,0,.34-.08.37a11.63,11.63,0,0,1-1.14.85,84.17,84.17,0,0,0-15.26,12.72c-7,7.31-12.61,15.47-15.87,25.14-.84,2.48-.5,3.6,1.7,5a26.88,26.88,0,0,1,2.23,1.79,56.25,56.25,0,0,0,5.08,3.95c6,3.73,12.8,5.37,19.78,6,12.21,1.16,23.86-1.34,35.13-5.84a34.69,34.69,0,0,0,9.65-5.74c2.26-1.92,2.33-4,.29-6.13-1.09-1.16-2.19-2.32-3.24-3.51a37.06,37.06,0,0,0-12.74-9.59c-2.7-1.19-5.41-2.38-8.14-3.52A27.45,27.45,0,0,0,570.69,290a50.74,50.74,0,0,0-20.87,4.8c-.75.33-1.51.63-2.55,1.06a15.8,15.8,0,0,1,.46-1.6,5,5,0,0,1,.67-1c6.24-7.4,13.33-13.82,22-18.31a56.58,56.58,0,0,0,9.88-6.72c.81-.67,1.56-1.39,2.4-2a49.46,49.46,0,0,0,9.63-9.65c1.33-1.67,1.3-3.46,0-4.74a3.41,3.41,0,0,0-4.76.08c-1.49,1.32-2.87,2.77-4.3,4.16-2.23,2.18-4.44,4.37-6.69,6.53a8.58,8.58,0,0,1-1.47.9c.06-.7.07-1.1.14-1.48a52.12,52.12,0,0,0-1.6-25.35c-1.78-5.75-4-11.33-7.67-16.17a36.11,36.11,0,0,0-21.24-13.85,5.15,5.15,0,0,0-4.12.77,17,17,0,0,0-3.41,3c-6,6.94-7.45,15-5.55,23.8,1.16,5.36,3.95,9.93,7.34,14.13a100,100,0,0,0,23,20.88C562.59,269.61,563.22,270.06,563.81,270.47ZM182,180c-1.21.36-2,.63-2.83.84C166.87,184,157.91,191.13,153,203a11.92,11.92,0,0,0,.79,11.46,18.42,18.42,0,0,0,10.08,7.71c3.77,1.29,7.63,2.34,11.49,3.33a30.85,30.85,0,0,0,17.94-.84,48.72,48.72,0,0,0,20.9-14c5.45-6.15,10.48-12.68,15.66-19.08a3.29,3.29,0,0,0,0-4.4,18.19,18.19,0,0,0-2.85-2.9,55.92,55.92,0,0,1-9.08-9.18c-.65-.81-1.39-1.54-2.06-2.33-5.47-6.46-10.87-13-16.43-19.37a56.61,56.61,0,0,0-7.16-7,23.65,23.65,0,0,0-17.46-5.23,11.18,11.18,0,0,0-6.47,2.22c-3.83,3.2-6.29,7.17-6.54,12.31s2.05,9.41,5.43,13.14a47.75,47.75,0,0,0,12,9.43C180,178.76,180.83,179.26,182,180ZM372.6,357.07c1.09-1,2.15-2,3.17-3a12.78,12.78,0,0,0,3.51-5.64c1.15-4.18.84-8.19-2.35-11.39-3-3-6.88-3.27-10.71-1.88a42.53,42.53,0,0,0-6.31,3.36c-1.06.62-2,1.42-3.11,2.19l-.73-1.49a28.63,28.63,0,0,0-7.66-9.71c-5.19-4.18-11.29-3.36-14.8,2.3-1.62,2.61-2.58,5.64-3.83,8.47-.24.55-.46,1.11-.7,1.67-.59-.15-1-.24-1.36-.35a19.79,19.79,0,0,0-17.11,3c-5.5,3.82-6.63,10.52-2.88,16a21.74,21.74,0,0,0,7.31,6.44l2.3,1.34a23.6,23.6,0,0,0-1.56,10.92,12.12,12.12,0,0,0,2.49,6.38c2.93,3.74,6.91,5,11.48,4.64,4.83-.34,8.83-2.68,12.48-5.61,2.17-1.73,4.07-3.8,6.22-5.83.48.26,1.08.64,1.72.93,3.2,1.44,6.33,3.09,9.63,4.22a18.19,18.19,0,0,0,13.8-.5c5.59-2.54,8.22-7.61,6.69-13.53a25.93,25.93,0,0,0-2.91-6.76A64.68,64.68,0,0,0,372.6,357.07Zm-239-11.78a14,14,0,0,0,.11-1.43c-.07-3.75,0-7.52-.31-11.24-.33-3.36-1.2-6.78-4.6-8.46a35,35,0,0,0-7.19-2.57,71.9,71.9,0,0,0-24.77-1.31A65.5,65.5,0,0,0,77.31,325a30.61,30.61,0,0,0-6.76,4c-2.55,2-2.45,4.1.07,6.14q6.61,5.34,13.41,10.46a40.34,40.34,0,0,1,14.6,20.59,117,117,0,0,0,8,19.22,62,62,0,0,0,13.77,18c1.23,1.09,2.55,1.7,4.15,1a4.25,4.25,0,0,0,2.59-3.74,24.89,24.89,0,0,1,6.67-14,20.46,20.46,0,0,1,3.37-2.66c3.52-2.57,6.12-8.14,1.92-12.43-2.06-2.09-2.85-4.94-3.7-7.71A47,47,0,0,1,133.57,345.29Zm124.71-62.77A82.09,82.09,0,0,0,260,299.34c2.13,10.6,8,19,15.53,26.47,6.68,6.58,14.85,8.53,23.84,7.33a78.1,78.1,0,0,0,11.12-2.82c4-1.17,8-1.5,11.86.56,2.66,1.41,5.11.15,5.44-2.81a16.9,16.9,0,0,1,2.18-6.29c1.71-3.1,1.21-4.7-1.94-6.39a54.33,54.33,0,0,1-4.72-2.76,12.7,12.7,0,0,1-4.41-15.72,12.89,12.89,0,0,0,.7-1.78,5.47,5.47,0,0,0-3.32-7.05,9.89,9.89,0,0,0-2.06-.59c-4.48-.81-9-1.44-13.44-2.41-9.59-2.1-18.23-6-24.55-13.88-.9-1.12-1.95-2.14-2.76-3.32-1.7-2.49-3.93-4.65-4.7-7.72a3,3,0,0,0-3-2.37,3.18,3.18,0,0,0-3.3,1.92,28.66,28.66,0,0,0-1.79,4.69A71.45,71.45,0,0,0,258.28,282.52ZM126.32,301c-2.7.27-5.4.51-8.09.83a3.17,3.17,0,0,0-2.85,2.82,3.51,3.51,0,0,0,2.09,3.71,16.44,16.44,0,0,0,3,.89,23.24,23.24,0,0,1,8.9,4,31.37,31.37,0,0,1,6.72,7.13c2.61,3.76,5.17,7.66,5.94,12.2a121.66,121.66,0,0,0,4.92,18.75c1.93,5.67,4,11.3,7.62,16.19,1.19,1.61,2.5,2.18,4.09,1.66a3.31,3.31,0,0,0,2.33-3.27c.17-2.06.41-4.13.77-6.18a6.29,6.29,0,0,1,1.08-2.6c3.36-4.46,7.54-7.75,13.1-9.13,8.17-2,16.32-1.51,24.5-.14a40.15,40.15,0,0,0,5.46.59,4.4,4.4,0,0,0,4.23-3,3.79,3.79,0,0,0-1-4.38,7.17,7.17,0,0,0-1.64-1.39c-4.88-2.61-8.7-6.48-12.42-10.45-2.3-2.46-4.56-5-5.69-8.24a88.27,88.27,0,0,1-4.53-16.37c-.4-2.75-2.46-4.09-5-3a57.38,57.38,0,0,1-17.2,4,40.61,40.61,0,0,1-13.8-.73C141.41,303,134,301.28,126.32,301ZM350.2,431.53a24.66,24.66,0,0,0-16.76,5.94,18.91,18.91,0,0,0-6.35,9.39c-.68,2.4.43,4.5,2.59,4.78a6.22,6.22,0,0,0,2.32-.33c3.88-1,7.78-1.94,11.83-1.41a35.39,35.39,0,0,1,19,8.42,8.66,8.66,0,0,1,1.57,1.79,15,15,0,0,1,1.84,13.72,27.47,27.47,0,0,1-4.48,8.68,3.53,3.53,0,0,0-.4,4.23,3.37,3.37,0,0,0,3.73,1.54,19.25,19.25,0,0,0,5.95-1.68,141.24,141.24,0,0,0,35.44-25.18c8.74-8.64,16.94-17.68,21.13-29.59.74-2.11,1.66-4.17,1.6-6.47-.06-3.05-2.13-4.58-5-3.59a36.9,36.9,0,0,0-4.62,2c-5.2,2.64-10.31,5.45-15.55,8-3.87,1.88-7.79,3.74-12.12,4.43-3.7.59-7.4,1.27-11.1,1.88a22.25,22.25,0,0,1-15.48-2.64A28.46,28.46,0,0,0,350.2,431.53ZM217.38,389.61c0-.72,0-1.44,0-2.16a30,30,0,0,0-9.31-21.65c-6-5.74-13.08-8.84-21.44-8.55-2.27.08-4.61.05-6.8,1.08-4.25,2-6.78,5.49-8.48,9.66a26.76,26.76,0,0,0-1.46,14.15c.87,6.14,2.18,12.19,6.19,17.14a96,96,0,0,0,7.26,7.29,59.78,59.78,0,0,1,4.93,4.88c3.24,4.05,6.26,8.29,9.44,12.4A36.93,36.93,0,0,1,203,434c1.6,4.43,3.44,8.78,5.24,13.13a17.89,17.89,0,0,0,4.63,6.64,3.35,3.35,0,0,0,5.67-1.61,4.93,4.93,0,0,0-.54-3.45,53.86,53.86,0,0,1-3.87-13.82,85.7,85.7,0,0,1,1.11-27.67A95.62,95.62,0,0,0,217.38,389.61Zm274.5-77.16A31.56,31.56,0,0,0,503.67,311c7.28-2.11,14.2-5,19.7-10.44a21.86,21.86,0,0,0,4.13-5.81c1.49-3-.58-6.08-3.89-6.3-.63,0-1.28,0-1.91-.08-3.87-.57-7.88-.71-11.56-1.9a33.51,33.51,0,0,1-12.87-8.13,13.17,13.17,0,0,1-3.94-7.73c-1.05-6.89-3.34-13.37-8.14-18.62a27.89,27.89,0,0,0-6-4.7,3.33,3.33,0,0,0-4.72.78c-1,1.36-.92,2.94.34,4.62.19.26.45.47.61.74,1.54,2.51,3.46,5,3.34,8.07a25.9,25.9,0,0,1-2.36,10.19,31.1,31.1,0,0,1-8.7,11c-12.19,9.86-18.16,23.44-22.47,38-.74,2.52-.1,3.93,1.95,5.39,1.84,1.3,3.31,1.27,5.53-.17.67-.43,1.29-.94,1.92-1.44A40.26,40.26,0,0,1,465.29,318C473.55,314.89,481.9,312.29,491.88,312.45ZM224.22,423.59c0,2.79-.1,5.59,0,8.38a31.69,31.69,0,0,0,.83,5.19,3.14,3.14,0,0,0,2.89,2.49,3.45,3.45,0,0,0,3.63-1.81c.24-.41.38-.88.59-1.3,3.07-6.11,6.71-11.76,12-16.26a46.28,46.28,0,0,1,8.65-5.52c6.57-3.45,13.34-6.55,19.31-11.07a36.76,36.76,0,0,0,9.18-10A17,17,0,0,0,278.72,373c-6.06-6-13.18-9.71-21.87-10.1a12.85,12.85,0,0,0-5.37.82,27.44,27.44,0,0,0-10.43,7A56.5,56.5,0,0,0,231.27,386C225.79,398,224.11,410.62,224.22,423.59ZM360.76,261.18c.15,10.13,3.76,19.63,12.53,26.9a73.1,73.1,0,0,0,14,8.69c5.63,2.84,11.57,3.41,17.72,2.76a8.8,8.8,0,0,0,4.61-1.84c2.15-1.68,2.26-3.95.5-6a10.22,10.22,0,0,1-2.42-3.76c-1.32-5.34-1.88-10.68,1.11-15.77a3.29,3.29,0,0,0-2.05-5,11.37,11.37,0,0,0-2.12-.22,14.8,14.8,0,0,1-8.71-3.57,4.91,4.91,0,0,1-1.92-4.2c.25-3,.72-6.06,2.49-8.64a4.53,4.53,0,0,0,.47-4.74,12.92,12.92,0,0,1-.61-1.56c-1.4-4.5-1.78-8.93.87-13.16.73-1.15,1.4-2.33,2-3.53,1.37-2.55.34-4.78-2.5-5.42a12.32,12.32,0,0,0-2.83-.35,33.36,33.36,0,0,0-20.4,7.23,28.32,28.32,0,0,0-9.4,13.34A60,60,0,0,0,360.76,261.18Zm47.33,143.61c-1.81,4.12-3.33,7.95-6.15,11.09a3.4,3.4,0,0,0-.55,4.38,3.28,3.28,0,0,0,4.19,1.3,90.58,90.58,0,0,0,9.7-4.05A32.12,32.12,0,0,0,426.14,409c9.94-12.65,13.22-26.89,9.91-42.61-1.07-5.07-2.5-10.07-3.66-15.13-.79-3.41-1.68-6.84-1.19-10.41a55.87,55.87,0,0,1,4-14.51c.62-1.47,1.15-3,1.68-4.48a3.37,3.37,0,0,0-5.61-3.52c-2.08,2-4.11,4-6.11,6.1-4.49,4.62-8.36,9.68-10.67,15.77a32.74,32.74,0,0,0-2.52,12.37,40.73,40.73,0,0,1-.23,5.95c-.37,3-.89,6-1.46,9s-.85,6.11-2,8.85c-3.86,9-8.83,17.21-16.85,23.21a4.55,4.55,0,0,0-1.59,2.27c-.64,2.3.88,4.18,3.46,4.33a40.23,40.23,0,0,0,11.68-.77C405.83,405.17,406.76,405,408.09,404.79Zm-276.51,5.08c.41,2.51.65,5.07,1.25,7.54,2.59,10.64,9,18.42,18.51,23.58,3.57,1.93,7.46,3.23,11.16,4.92,8.14,3.72,16.25,7.51,24.38,11.25,2.17,1,4.33,2.06,6.58,2.89a3.25,3.25,0,0,0,4.44-3.78,13.31,13.31,0,0,0-.94-2.7c-1.63-4.05-4.28-7.46-6.71-11-4.22-6.21-8.53-12.35-11.55-19.31-2-4.6-4.33-9.05-6.54-13.55-.49-1-1.08-2-1.64-2.93A34.5,34.5,0,0,0,156.3,392.9c-6.74-3.48-15.56-1.54-20,4.1A20.69,20.69,0,0,0,131.58,409.87Zm161.65-46.38c4,.13,5.18-1.09,4.83-5.13,0-.32,0-.64-.08-.95a25.3,25.3,0,0,1,.2-10.47,3.83,3.83,0,0,0-1.41-4.05,4.23,4.23,0,0,0-4.24-.91c-4.85,1.28-9.16,0-13.14-2.81-1.05-.73-2.07-1.5-3.08-2.29a51.3,51.3,0,0,1-8.44-8.48c-2.48-3.13-5-6.26-7.5-9.35-1.39-1.7-2.65-2-4.66-1.21a7.53,7.53,0,0,0-2.29,1.27c-4.67,4.19-10.4,5.78-16.37,6.82-5.59,1-11.16.31-16.72-.32a40,40,0,0,1-6.28-1.39c-1.92-.54-3.34-.3-4.31,1a3.56,3.56,0,0,0,.38,4.62,42.94,42.94,0,0,0,5.7,5.43c7.87,5.68,13.41,13.16,17.46,21.85a5.55,5.55,0,0,0,8.83,1.54,6.3,6.3,0,0,1,2.11-1.49A61.2,61.2,0,0,1,251,354.9a23.88,23.88,0,0,1,11.61-.06A176.06,176.06,0,0,1,283,361.15,32.69,32.69,0,0,0,293.23,363.49ZM227.39,241c.39,4,.54,8,1.24,11.89.89,5,2.47,9.81,6,13.67,3.32,3.68,6.81,7.2,10.23,10.79a6.69,6.69,0,0,0,.88.8,3.34,3.34,0,0,0,5.26-1.64,12.38,12.38,0,0,0,.55-2.57c.36-2.85.64-5.72,1-8.57A79.91,79.91,0,0,1,257,245.6c2-5.2,3.61-10.57,5.25-15.91a17.12,17.12,0,0,0,.93-7.78,39.66,39.66,0,0,0-7-16.86c-1.53-2.14-3-4.31-4.37-6.57a24.38,24.38,0,0,0-8.42-8.35c-3.15-2-5.51-.77-6.27,2.86-.73,3.42-1.59,6.82-2.51,10.2-1.38,5.08-3.15,10.08-4.24,15.22A145.79,145.79,0,0,0,227.39,241ZM294,371.93c-2.25-.07-3.7,1.59-3.65,4.06.06,3.11.09,6.22.05,9.33a18.86,18.86,0,0,1-.43,4,44,44,0,0,1-4.57,11.54,32.76,32.76,0,0,1-8.11,9.36c-5.89,4.78-12.69,8-19.33,11.5a80.2,80.2,0,0,1-7.67,3.31c-2.34.92-3.21,3.1-1.82,5.19a8.62,8.62,0,0,0,2.31,2.39q6.42,4.39,13,8.63c2.72,1.76,4.77,1.23,6.77-1.36a82.59,82.59,0,0,1,6.26-7.56c3.68-3.76,8.13-6.16,13.56-6.23a8,8,0,0,1,6.88,3.21c2.13,2.76,4.63,2.34,6.36-.78A54.56,54.56,0,0,1,315.79,413c2.69-2.26,5.56-4.31,8.29-6.52a5.61,5.61,0,0,0,1.79-2.13c.71-1.86-.29-3.44-2.32-4.36a40,40,0,0,1-6.19-3.06A49.75,49.75,0,0,1,304.29,384c-2.41-3.48-4.91-6.89-7.35-10.35A3.54,3.54,0,0,0,294,371.93ZM49.16,280.35c-2.68.23-6,0-8.77,1.92-6.16,4.2-10.71,12.33-5.82,21.37a32.51,32.51,0,0,0,7.07,9,115.93,115.93,0,0,0,14,10.09c2.36,1.54,4.13,1.29,6.32-.52a14.11,14.11,0,0,1,1.33-1A58,58,0,0,1,92,311.43c1.43-.09,2.88-.13,4.3-.35a4,4,0,0,0,2.87-6.49,11.76,11.76,0,0,0-2.49-2.54c-2-1.58-4.16-3-6.17-4.56A114.75,114.75,0,0,0,74.18,287,54.64,54.64,0,0,0,49.16,280.35Zm362.39-39.83c-1,1.22-2.06,2.43-3.1,3.63-1.83,2.1-3.15,4.36-2.92,7.33a4.18,4.18,0,0,0,2.06,3.52,7.31,7.31,0,0,0,5.3.91c3.88-.53,7.73-1.23,11.61-1.8,3.14-.46,6.23-1.25,9.5-.91,5.72.6,11.07,2.45,16.39,4.4,3.75,1.37,7.45,3,9.64,6.72.8,1.36,1.49,2.79,2.18,4.21a3.36,3.36,0,0,0,3.39,2.16,3.16,3.16,0,0,0,3-2.66,13,13,0,0,0,.33-2.85,35.21,35.21,0,0,0-3.28-14.62c-.66-1.45-1.28-2.93-1.87-4.41A39.13,39.13,0,0,0,451.31,230a42.92,42.92,0,0,0-18.1-8.44C426,220,418.77,220.05,412,223.72a14.84,14.84,0,0,0-6.26,6.41,4.83,4.83,0,0,0-.35,4.62c1.25,2.21,2.7,4.36,5.29,5.32A6.11,6.11,0,0,1,411.55,240.52ZM392,386.56a5.62,5.62,0,0,0,1.95-1.11,40.4,40.4,0,0,0,4.15-5.54,49.49,49.49,0,0,0,5.41-14.05,34.42,34.42,0,0,0,.42-13.34c-1.76-11.32,0-21.84,7.25-31a45.81,45.81,0,0,1,5.38-5.41,59.75,59.75,0,0,1,5.24-4.16c2-1.41,2.84-3.71,1.95-5.61-.82-1.75-2.72-2.33-5.19-1.48-1.28.44-2.5,1-3.79,1.46-4.91,1.64-10,1.93-15.13,2.17-4.87.22-9.77.15-14.61.69-7.77.87-12.77,5.78-16.28,12.35-1.32,2.47.15,4.81,2.93,5.3,1.65.3,3.29.62,4.94.94,5.4,1,9.43,4.18,12.62,8.49a12.17,12.17,0,0,1,2.2,8.86,21.17,21.17,0,0,1-5.94,12.54c-1.92,2-1.63,4.8.78,6.07a6.78,6.78,0,0,1,3.58,4.82,23.94,23.94,0,0,1,.54,5.21,16.16,16.16,0,0,1-1.84,7.61C387.25,383.92,388.76,386.51,392,386.56Zm-19.12,41.56c5.61-.09,12.89-2.64,16.66-5.72a13.81,13.81,0,0,0,2.63-2.77c2.21-3.23,1.13-5.9-2.61-6.78a28.14,28.14,0,0,1-8.45-3.25,10,10,0,0,1-4.55-11.15,12,12,0,0,0,.33-3.78,3.28,3.28,0,0,0-5.17-2.44,11.91,11.91,0,0,0-1.09.93,12.64,12.64,0,0,1-9.22,3.29,14.56,14.56,0,0,1-9-3.22,4.58,4.58,0,0,0-7.69,3.07,12.46,12.46,0,0,1-2,5.28,26.77,26.77,0,0,1-6.26,6.88,104.65,104.65,0,0,0-7.9,7C324,420,320.21,425,318.12,431.1c-.75,2.18-.29,3.67,1.49,4.74a3.89,3.89,0,0,0,5.33-.94,27.52,27.52,0,0,1,3.35-3.39c2.38-1.88,4.87-3.63,7.34-5.38,4.19-3,9-3.61,13.93-3.43a41.89,41.89,0,0,1,14.15,3.35A29,29,0,0,0,372.87,428.12ZM223,313.91a34.46,34.46,0,0,0,17.2-3.77c3.12-1.63,5.3-3.82,5-7.62a15,15,0,0,0-.62-4.47,84.48,84.48,0,0,0-5.22-11.54c-2.88-4.87-6.37-9.38-9.52-14.1-2.16-3.25-4.2-6.59-6.26-9.91a3.81,3.81,0,0,0-2.64-1.88c-2.46-.46-4.16.71-4.54,3.35-.65,4.47-1.75,8.76-4.4,12.53-.91,1.3-1.72,2.69-2.61,4a44.64,44.64,0,0,0-7.11,16.89c-1.11,6,.65,10.56,6.16,13.8C212.77,313.7,217.34,314.38,223,313.91Zm-46.58-55.37c.06,1,.1,1.92.17,2.87a11.63,11.63,0,0,0,4.93,9c4.17,3,8.71,4.08,13.79,2.19,6.76-2.52,11.88-6.65,14.89-13.38a66.29,66.29,0,0,0,5.29-16.85,33.89,33.89,0,0,1,3-9.82c1.44-2.94,2.68-6,4-9a9.24,9.24,0,0,0,.73-5.16,3.22,3.22,0,0,0-2.68-3,3.29,3.29,0,0,0-3.64,1.69c-.24.41-.4.87-.65,1.28-2.66,4.4-6,8-10.87,10.09-2.86,1.24-5.69,2.54-8.51,3.86a41.13,41.13,0,0,0-16.51,13.89A19.4,19.4,0,0,0,176.46,258.54Zm151.41,43.8c-.19,2,.32,3.22,1.64,4,2.17,1.18,4.34,2.36,6.6,3.37A48.12,48.12,0,0,1,349,318.23c1.65,1.5,3.11,3.21,4.76,4.7,2.09,1.87,4.43,1.38,5.68-1.14a16.34,16.34,0,0,0,1-2.92,29.89,29.89,0,0,1,4.84-10.36,10.45,10.45,0,0,1,1.81-1.89c2.88-2.26,2.88-4.16.23-6.59q-5.29-4.86-10.32-10a12.21,12.21,0,0,1-3.64-6.1c-1.51-8-1.91-16,.11-24a7.94,7.94,0,0,0,.1-3.29,3.23,3.23,0,0,0-2.58-2.56,3.2,3.2,0,0,0-3.4,1.25,17,17,0,0,0-1.11,1.56,100.7,100.7,0,0,0-10.34,21.54c-2.58,7.39-5.29,14.73-7.92,22.09A13,13,0,0,0,327.87,302.34Zm122-23A14.8,14.8,0,1,0,435,294,14.63,14.63,0,0,0,449.87,279.34Z" transform="translate(-0.48 -0.48)"/><path class="cls-1" d="M267.24,456.57c2.09-3.47,3.93-6.73,6-9.86a19.44,19.44,0,0,1,6.32-6.11c5.78-3.46,13.43-1.29,17.27,1.89,7.27,6,10.39,14.14,11.84,23.1.43,2.66.44,5.4.67,8.34.42-.41.8-.73,1.14-1.09,1.61-1.66,3.1-3.46,4.84-5,7.66-6.67,16.4-8.06,26-5.1,5.3,1.63,8.87,5.38,11.44,10,3.17,5.66,1.71,12.58-3.32,17.52-1.94,1.91-4.05,3.63-6.15,5.36-8.25,6.78-17.34,12-27.83,14.44a77.39,77.39,0,0,1-9.48,1.41c-4.61.46-9.23.91-13.86,1a86.54,86.54,0,0,1-20.49-1.84c-2.81-.6-5.7-1-8.42-1.82a118.9,118.9,0,0,1-25-11.35,162.17,162.17,0,0,1-19.55-13.41c-.56-.46-1.16-.86-1.71-1.33-1.49-1.28-3.21-2.33-3.43-4.65a10,10,0,0,1,2.15-7.62c3.41-4.16,7.91-5.13,13-4.11,1.46.29,2.88.77,4.51,1.21-.73-2.57-1.43-4.91-2.05-7.27a14.09,14.09,0,0,1,3.33-13.6,14.3,14.3,0,0,1,15.73-3.95,33.93,33.93,0,0,1,15.24,11.58C265.92,455.09,266.57,455.79,267.24,456.57Z" transform="translate(-0.48 -0.48)"/><path class="cls-1" d="M639,185.68c-10.23,15.72-18.09,32.73-28,48.95.86-.24,1.46-.36,2-.57a42.55,42.55,0,0,1,31.16.4,64.89,64.89,0,0,1,17.75,9.86,12.46,12.46,0,0,1,1.44,1.27,3.44,3.44,0,0,1,.58,4.4,17.79,17.79,0,0,1-6.79,7.24c-4.28,2.5-9,3.72-13.76,4.77-14.74,3.23-27.77-.58-39.71-9.41-2.85-2.1-4.64-5-7.1-7.4a2.8,2.8,0,0,1,.15-4.14c8.66-8.19,13.83-18.7,19.39-29,.34-.64.69-1.27,1-1.91a2.26,2.26,0,0,0,.07-.69c-.93-.55-1.92-1.18-3-1.74a108,108,0,0,1-15.77-10c-5.32-4.22-9.49-9.26-11.62-15.8-1.2-3.69-2.06-7.53-.66-11.29,2.26-6.07,5.84-8.83,11.65-8.89,11.21-.1,18.93,5.35,24.23,14.79a35.66,35.66,0,0,1,4.23,14.4c0,.54.11,1.09.21,2.08.54-.82.91-1.29,1.19-1.8,2.5-4.55,4.86-9.19,7.5-13.66a69.11,69.11,0,0,1,23.22-23.49,22.65,22.65,0,0,1,6.06-2.79c8.62-2.32,16,.3,22,6.49,3.77,3.84,3.91,9.37,1.27,14.73-4.2,8.51-11.39,12.9-20.21,15.14C657.93,190.08,648.53,189,639,185.68Z" transform="translate(-0.48 -0.48)"/><path class="cls-1" d="M563.81,270.47c-.59-.41-1.22-.86-1.87-1.28a100,100,0,0,1-23-20.88c-3.39-4.2-6.18-8.77-7.34-14.13-1.9-8.8-.47-16.86,5.55-23.8a17,17,0,0,1,3.41-3,5.15,5.15,0,0,1,4.12-.77,36.11,36.11,0,0,1,21.24,13.85c3.67,4.84,5.89,10.42,7.67,16.17A52.12,52.12,0,0,1,575.2,262c-.07.38-.08.78-.14,1.48a8.58,8.58,0,0,0,1.47-.9c2.25-2.16,4.46-4.35,6.69-6.53,1.43-1.39,2.81-2.84,4.3-4.16a3.41,3.41,0,0,1,4.76-.08c1.3,1.28,1.33,3.07,0,4.74a49.46,49.46,0,0,1-9.63,9.65c-.84.6-1.59,1.32-2.4,2a56.58,56.58,0,0,1-9.88,6.72c-8.64,4.49-15.73,10.91-22,18.31a5,5,0,0,0-.67,1,15.8,15.8,0,0,0-.46,1.6c1-.43,1.8-.73,2.55-1.06a50.74,50.74,0,0,1,20.87-4.8A27.45,27.45,0,0,1,581.2,292c2.73,1.14,5.44,2.33,8.14,3.52a37.06,37.06,0,0,1,12.74,9.59c1,1.19,2.15,2.35,3.24,3.51,2,2.14,2,4.21-.29,6.13a34.69,34.69,0,0,1-9.65,5.74c-11.27,4.5-22.92,7-35.13,5.84-7-.67-13.73-2.31-19.78-6a56.25,56.25,0,0,1-5.08-3.95,26.88,26.88,0,0,0-2.23-1.79c-2.2-1.44-2.54-2.56-1.7-5,3.26-9.67,8.87-17.83,15.87-25.14a84.17,84.17,0,0,1,15.26-12.72,11.63,11.63,0,0,0,1.14-.85S563.77,270.69,563.81,270.47Z" transform="translate(-0.48 -0.48)"/><path class="cls-1" d="M182,180c-1.16-.71-2-1.21-2.76-1.68a47.75,47.75,0,0,1-12-9.43c-3.38-3.73-5.67-7.91-5.43-13.14s2.71-9.11,6.54-12.31a11.18,11.18,0,0,1,6.47-2.22,23.65,23.65,0,0,1,17.46,5.23,56.61,56.61,0,0,1,7.16,7c5.56,6.38,11,12.91,16.43,19.37.67.79,1.41,1.52,2.06,2.33a55.92,55.92,0,0,0,9.08,9.18,18.19,18.19,0,0,1,2.85,2.9,3.29,3.29,0,0,1,0,4.4c-5.18,6.4-10.21,12.93-15.66,19.08a48.72,48.72,0,0,1-20.9,14,30.85,30.85,0,0,1-17.94.84c-3.86-1-7.72-2-11.49-3.33a18.42,18.42,0,0,1-10.08-7.71A11.92,11.92,0,0,1,153,203c4.94-11.88,13.9-19,26.19-22.2C180,180.6,180.78,180.33,182,180Z" transform="translate(-0.48 -0.48)"/><path class="cls-1" d="M372.6,357.07a64.68,64.68,0,0,1,4.78,6.26,25.93,25.93,0,0,1,2.91,6.76c1.53,5.92-1.1,11-6.69,13.53a18.19,18.19,0,0,1-13.8.5c-3.3-1.13-6.43-2.78-9.63-4.22-.64-.29-1.24-.67-1.72-.93-2.15,2-4.05,4.1-6.22,5.83-3.65,2.93-7.65,5.27-12.48,5.61-4.57.32-8.55-.9-11.48-4.64a12.12,12.12,0,0,1-2.49-6.38,23.6,23.6,0,0,1,1.56-10.92l-2.3-1.34a21.74,21.74,0,0,1-7.31-6.44c-3.75-5.51-2.62-12.21,2.88-16a19.79,19.79,0,0,1,17.11-3c.38.11.77.2,1.36.35.24-.56.46-1.12.7-1.67,1.25-2.83,2.21-5.86,3.83-8.47,3.51-5.66,9.61-6.48,14.8-2.3a28.63,28.63,0,0,1,7.66,9.71l.73,1.49c1.09-.77,2.05-1.57,3.11-2.19a42.53,42.53,0,0,1,6.31-3.36c3.83-1.39,7.68-1.16,10.71,1.88,3.19,3.2,3.5,7.21,2.35,11.39a12.78,12.78,0,0,1-3.51,5.64C374.75,355.09,373.69,356.05,372.6,357.07Z" transform="translate(-0.48 -0.48)"/><path class="cls-1" d="M133.57,345.29a47,47,0,0,0,1.79,18.49c.85,2.77,1.64,5.62,3.7,7.71,4.2,4.29,1.6,9.86-1.92,12.43a20.46,20.46,0,0,0-3.37,2.66,24.89,24.89,0,0,0-6.67,14,4.25,4.25,0,0,1-2.59,3.74c-1.6.69-2.92.08-4.15-1a62,62,0,0,1-13.77-18,117,117,0,0,1-8-19.22A40.34,40.34,0,0,0,84,345.56q-6.78-5.13-13.41-10.46c-2.52-2-2.62-4.12-.07-6.14a30.61,30.61,0,0,1,6.76-4,65.5,65.5,0,0,1,19.5-4.69,71.9,71.9,0,0,1,24.77,1.31,35,35,0,0,1,7.19,2.57c3.4,1.68,4.27,5.1,4.6,8.46.36,3.72.24,7.49.31,11.24A14,14,0,0,1,133.57,345.29Z" transform="translate(-0.48 -0.48)"/><path class="cls-1" d="M258.28,282.52a71.45,71.45,0,0,1,2.38-18.12,28.66,28.66,0,0,1,1.79-4.69,3.18,3.18,0,0,1,3.3-1.92,3,3,0,0,1,3,2.37c.77,3.07,3,5.23,4.7,7.72.81,1.18,1.86,2.2,2.76,3.32,6.32,7.91,15,11.78,24.55,13.88,4.44,1,9,1.6,13.44,2.41a9.89,9.89,0,0,1,2.06.59,5.47,5.47,0,0,1,3.32,7.05,12.89,12.89,0,0,1-.7,1.78,12.7,12.7,0,0,0,4.41,15.72,54.33,54.33,0,0,0,4.72,2.76c3.15,1.69,3.65,3.29,1.94,6.39a16.9,16.9,0,0,0-2.18,6.29c-.33,3-2.78,4.22-5.44,2.81-3.9-2.06-7.82-1.73-11.86-.56a78.1,78.1,0,0,1-11.12,2.82c-9,1.2-17.16-.75-23.84-7.33-7.55-7.44-13.4-15.87-15.53-26.47A82.09,82.09,0,0,1,258.28,282.52Z" transform="translate(-0.48 -0.48)"/><path class="cls-1" d="M126.32,301c7.68.31,15.09,2,22.45,3.88a40.61,40.61,0,0,0,13.8.73,57.38,57.38,0,0,0,17.2-4c2.54-1.08,4.6.26,5,3a88.27,88.27,0,0,0,4.53,16.37c1.13,3.22,3.39,5.78,5.69,8.24,3.72,4,7.54,7.84,12.42,10.45a7.17,7.17,0,0,1,1.64,1.39,3.79,3.79,0,0,1,1,4.38,4.4,4.4,0,0,1-4.23,3,40.15,40.15,0,0,1-5.46-.59c-8.18-1.37-16.33-1.9-24.5.14-5.56,1.38-9.74,4.67-13.1,9.13a6.29,6.29,0,0,0-1.08,2.6c-.36,2.05-.6,4.12-.77,6.18a3.31,3.31,0,0,1-2.33,3.27c-1.59.52-2.9-.05-4.09-1.66-3.6-4.89-5.69-10.52-7.62-16.19A121.66,121.66,0,0,1,142,332.53c-.77-4.54-3.33-8.44-5.94-12.2a31.37,31.37,0,0,0-6.72-7.13,23.24,23.24,0,0,0-8.9-4,16.44,16.44,0,0,1-3-.89,3.51,3.51,0,0,1-2.09-3.71,3.17,3.17,0,0,1,2.85-2.82C120.92,301.48,123.62,301.24,126.32,301Z" transform="translate(-0.48 -0.48)"/><path class="cls-1" d="M350.2,431.53a28.46,28.46,0,0,1,15.18,3.89,22.25,22.25,0,0,0,15.48,2.64c3.7-.61,7.4-1.29,11.1-1.88,4.33-.69,8.25-2.55,12.12-4.43,5.24-2.55,10.35-5.36,15.55-8a36.9,36.9,0,0,1,4.62-2c2.84-1,4.91.54,5,3.59.06,2.3-.86,4.36-1.6,6.47-4.19,11.91-12.39,20.95-21.13,29.59a141.24,141.24,0,0,1-35.44,25.18,19.25,19.25,0,0,1-5.95,1.68,3.37,3.37,0,0,1-3.73-1.54,3.53,3.53,0,0,1,.4-4.23,27.47,27.47,0,0,0,4.48-8.68,15,15,0,0,0-1.84-13.72,8.66,8.66,0,0,0-1.57-1.79,35.39,35.39,0,0,0-19-8.42c-4.05-.53-7.95.39-11.83,1.41a6.22,6.22,0,0,1-2.32.33c-2.16-.28-3.27-2.38-2.59-4.78a18.91,18.91,0,0,1,6.35-9.39A24.66,24.66,0,0,1,350.2,431.53Z" transform="translate(-0.48 -0.48)"/><path class="cls-1" d="M217.38,389.61a95.62,95.62,0,0,1-2.11,17.59,85.7,85.7,0,0,0-1.11,27.67A53.86,53.86,0,0,0,218,448.69a4.93,4.93,0,0,1,.54,3.45,3.35,3.35,0,0,1-5.67,1.61,17.89,17.89,0,0,1-4.63-6.64c-1.8-4.35-3.64-8.7-5.24-13.13a36.93,36.93,0,0,0-5.33-10.13c-3.18-4.11-6.2-8.35-9.44-12.4a59.78,59.78,0,0,0-4.93-4.88,96,96,0,0,1-7.26-7.29c-4-4.95-5.32-11-6.19-17.14A26.76,26.76,0,0,1,171.34,368c1.7-4.17,4.23-7.66,8.48-9.66,2.19-1,4.53-1,6.8-1.08,8.36-.29,15.46,2.81,21.44,8.55a30,30,0,0,1,9.31,21.65C217.39,388.17,217.38,388.89,217.38,389.61Z" transform="translate(-0.48 -0.48)"/><path class="cls-1" d="M491.88,312.45c-10-.16-18.33,2.44-26.59,5.58a40.26,40.26,0,0,0-10.63,6.39c-.63.5-1.25,1-1.92,1.44-2.22,1.44-3.69,1.47-5.53.17-2-1.46-2.69-2.87-1.95-5.39,4.31-14.53,10.28-28.11,22.47-38a31.1,31.1,0,0,0,8.7-11,25.9,25.9,0,0,0,2.36-10.19c.12-3.1-1.8-5.56-3.34-8.07-.16-.27-.42-.48-.61-.74-1.26-1.68-1.37-3.26-.34-4.62a3.33,3.33,0,0,1,4.72-.78,27.89,27.89,0,0,1,6,4.7c4.8,5.25,7.09,11.73,8.14,18.62a13.17,13.17,0,0,0,3.94,7.73,33.51,33.51,0,0,0,12.87,8.13c3.68,1.19,7.69,1.33,11.56,1.9.63.1,1.28,0,1.91.08,3.31.22,5.38,3.33,3.89,6.3a21.86,21.86,0,0,1-4.13,5.81c-5.5,5.41-12.42,8.33-19.7,10.44A31.56,31.56,0,0,1,491.88,312.45Z" transform="translate(-0.48 -0.48)"/><path class="cls-1" d="M224.22,423.59c-.11-13,1.57-25.64,7.05-37.57a56.5,56.5,0,0,1,9.78-15.27,27.44,27.44,0,0,1,10.43-7,12.85,12.85,0,0,1,5.37-.82c8.69.39,15.81,4.11,21.87,10.1a17,17,0,0,1,2.63,20.71,36.76,36.76,0,0,1-9.18,10c-6,4.52-12.74,7.62-19.31,11.07a46.28,46.28,0,0,0-8.65,5.52c-5.31,4.5-9,10.15-12,16.26-.21.42-.35.89-.59,1.3a3.45,3.45,0,0,1-3.63,1.81,3.14,3.14,0,0,1-2.89-2.49,31.69,31.69,0,0,1-.83-5.19C224.12,429.18,224.22,426.38,224.22,423.59Z" transform="translate(-0.48 -0.48)"/><path class="cls-1" d="M360.76,261.18a60,60,0,0,1,3.39-18.79,28.32,28.32,0,0,1,9.4-13.34,33.36,33.36,0,0,1,20.4-7.23,12.32,12.32,0,0,1,2.83.35c2.84.64,3.87,2.87,2.5,5.42-.64,1.2-1.31,2.38-2,3.53-2.65,4.23-2.27,8.66-.87,13.16a12.92,12.92,0,0,0,.61,1.56,4.53,4.53,0,0,1-.47,4.74c-1.77,2.58-2.24,5.6-2.49,8.64a4.91,4.91,0,0,0,1.92,4.2,14.8,14.8,0,0,0,8.71,3.57,11.37,11.37,0,0,1,2.12.22,3.29,3.29,0,0,1,2.05,5c-3,5.09-2.43,10.43-1.11,15.77a10.22,10.22,0,0,0,2.42,3.76c1.76,2.05,1.65,4.32-.5,6a8.8,8.8,0,0,1-4.61,1.84c-6.15.65-12.09.08-17.72-2.76a73.1,73.1,0,0,1-14-8.69C364.52,280.81,360.91,271.31,360.76,261.18Z" transform="translate(-0.48 -0.48)"/><path class="cls-1" d="M408.09,404.79c-1.33.25-2.26.38-3.17.59a40.23,40.23,0,0,1-11.68.77c-2.58-.15-4.1-2-3.46-4.33a4.55,4.55,0,0,1,1.59-2.27c8-6,13-14.25,16.85-23.21,1.17-2.74,1.45-5.88,2-8.85s1.09-6,1.46-9a40.73,40.73,0,0,0,.23-5.95,32.74,32.74,0,0,1,2.52-12.37c2.31-6.09,6.18-11.15,10.67-15.77,2-2.07,4-4.12,6.11-6.1a3.37,3.37,0,0,1,5.61,3.52c-.53,1.5-1.06,3-1.68,4.48a55.87,55.87,0,0,0-4,14.51c-.49,3.57.4,7,1.19,10.41,1.16,5.06,2.59,10.06,3.66,15.13,3.31,15.72,0,30-9.91,42.61a32.12,32.12,0,0,1-10.86,8.54,90.58,90.58,0,0,1-9.7,4.05,3.28,3.28,0,0,1-4.19-1.3,3.4,3.4,0,0,1,.55-4.38C404.76,412.74,406.28,408.91,408.09,404.79Z" transform="translate(-0.48 -0.48)"/><path class="cls-1" d="M131.58,409.87A20.69,20.69,0,0,1,136.31,397c4.43-5.64,13.25-7.58,20-4.1a34.5,34.5,0,0,1,14.22,13.85c.56,1,1.15,1.93,1.64,2.93,2.21,4.5,4.55,8.95,6.54,13.55,3,7,7.33,13.1,11.55,19.31,2.43,3.57,5.08,7,6.71,11a13.31,13.31,0,0,1,.94,2.7,3.25,3.25,0,0,1-4.44,3.78c-2.25-.83-4.41-1.88-6.58-2.89-8.13-3.74-16.24-7.53-24.38-11.25-3.7-1.69-7.59-3-11.16-4.92-9.53-5.16-15.92-12.94-18.51-23.58C132.23,414.94,132,412.38,131.58,409.87Z" transform="translate(-0.48 -0.48)"/><path class="cls-1" d="M293.23,363.49A32.69,32.69,0,0,1,283,361.15a176.06,176.06,0,0,0-20.35-6.31,23.88,23.88,0,0,0-11.61.06,61.2,61.2,0,0,0-6.81,2.29,6.3,6.3,0,0,0-2.11,1.49,5.55,5.55,0,0,1-8.83-1.54c-4.05-8.69-9.59-16.17-17.46-21.85a42.94,42.94,0,0,1-5.7-5.43,3.56,3.56,0,0,1-.38-4.62c1-1.32,2.39-1.56,4.31-1a40,40,0,0,0,6.28,1.39c5.56.63,11.13,1.29,16.72.32,6-1,11.7-2.63,16.37-6.82a7.53,7.53,0,0,1,2.29-1.27c2-.81,3.27-.49,4.66,1.21,2.53,3.09,5,6.22,7.5,9.35a51.3,51.3,0,0,0,8.44,8.48c1,.79,2,1.56,3.08,2.29,4,2.78,8.29,4.09,13.14,2.81a4.23,4.23,0,0,1,4.24.91,3.83,3.83,0,0,1,1.41,4.05,25.3,25.3,0,0,0-.2,10.47c0,.31,0,.63.08.95C298.41,362.4,297.26,363.62,293.23,363.49Z" transform="translate(-0.48 -0.48)"/><path class="cls-1" d="M227.39,241a145.79,145.79,0,0,1,3-22.6c1.09-5.14,2.86-10.14,4.24-15.22.92-3.38,1.78-6.78,2.51-10.2.76-3.63,3.12-4.82,6.27-2.86a24.38,24.38,0,0,1,8.42,8.35c1.35,2.26,2.84,4.43,4.37,6.57a39.66,39.66,0,0,1,7,16.86,17.12,17.12,0,0,1-.93,7.78c-1.64,5.34-3.22,10.71-5.25,15.91a79.91,79.91,0,0,0-4.55,19.78c-.35,2.85-.63,5.72-1,8.57a12.38,12.38,0,0,1-.55,2.57,3.34,3.34,0,0,1-5.26,1.64,6.69,6.69,0,0,1-.88-.8c-3.42-3.59-6.91-7.11-10.23-10.79-3.48-3.86-5.06-8.69-6-13.67C227.93,249,227.78,245,227.39,241Z" transform="translate(-0.48 -0.48)"/><path class="cls-1" d="M294,371.93a3.54,3.54,0,0,1,2.95,1.76c2.44,3.46,4.94,6.87,7.35,10.35a49.75,49.75,0,0,0,13.07,12.89,40,40,0,0,0,6.19,3.06c2,.92,3,2.5,2.32,4.36a5.61,5.61,0,0,1-1.79,2.13c-2.73,2.21-5.6,4.26-8.29,6.52a54.56,54.56,0,0,0-12.23,15.56c-1.73,3.12-4.23,3.54-6.36.78a8,8,0,0,0-6.88-3.21c-5.43.07-9.88,2.47-13.56,6.23a82.59,82.59,0,0,0-6.26,7.56c-2,2.59-4.05,3.12-6.77,1.36q-6.54-4.23-13-8.63a8.62,8.62,0,0,1-2.31-2.39c-1.39-2.09-.52-4.27,1.82-5.19a80.2,80.2,0,0,0,7.67-3.31c6.64-3.49,13.44-6.72,19.33-11.5a32.76,32.76,0,0,0,8.11-9.36A44,44,0,0,0,290,389.36a18.86,18.86,0,0,0,.43-4c0-3.11,0-6.22-.05-9.33C290.29,373.52,291.74,371.86,294,371.93Z" transform="translate(-0.48 -0.48)"/><path class="cls-1" d="M49.16,280.35a54.64,54.64,0,0,1,25,6.67,114.75,114.75,0,0,1,16.34,10.47c2,1.57,4.15,3,6.17,4.56a11.76,11.76,0,0,1,2.49,2.54,4,4,0,0,1-2.87,6.49c-1.42.22-2.87.26-4.3.35a58,58,0,0,0-28.73,9.75,14.11,14.11,0,0,0-1.33,1c-2.19,1.81-4,2.06-6.32.52a115.93,115.93,0,0,1-14-10.09,32.51,32.51,0,0,1-7.07-9c-4.89-9-.34-17.17,5.82-21.37C43.2,280.36,46.48,280.58,49.16,280.35Z" transform="translate(-0.48 -0.48)"/><path class="cls-1" d="M411.55,240.52a6.11,6.11,0,0,0-.89-.45c-2.59-1-4-3.11-5.29-5.32a4.83,4.83,0,0,1,.35-4.62,14.84,14.84,0,0,1,6.26-6.41c6.79-3.67,14-3.69,21.23-2.16a42.92,42.92,0,0,1,18.1,8.44,39.13,39.13,0,0,1,12.45,16.15c.59,1.48,1.21,3,1.87,4.41a35.21,35.21,0,0,1,3.28,14.62,13,13,0,0,1-.33,2.85,3.16,3.16,0,0,1-3,2.66,3.36,3.36,0,0,1-3.39-2.16c-.69-1.42-1.38-2.85-2.18-4.21-2.19-3.67-5.89-5.35-9.64-6.72-5.32-2-10.67-3.8-16.39-4.4-3.27-.34-6.36.45-9.5.91-3.88.57-7.73,1.27-11.61,1.8a7.31,7.31,0,0,1-5.3-.91,4.18,4.18,0,0,1-2.06-3.52c-.23-3,1.09-5.23,2.92-7.33C409.49,243,410.51,241.74,411.55,240.52Z" transform="translate(-0.48 -0.48)"/><path class="cls-1" d="M392,386.56c-3.23-.05-4.74-2.64-3.44-5.2a16.16,16.16,0,0,0,1.84-7.61,23.94,23.94,0,0,0-.54-5.21,6.78,6.78,0,0,0-3.58-4.82c-2.41-1.27-2.7-4.06-.78-6.07a21.17,21.17,0,0,0,5.94-12.54,12.17,12.17,0,0,0-2.2-8.86c-3.19-4.31-7.22-7.45-12.62-8.49-1.65-.32-3.29-.64-4.94-.94-2.78-.49-4.25-2.83-2.93-5.3C372.25,315,377.25,310,385,309.17c4.84-.54,9.74-.47,14.61-.69,5.11-.24,10.22-.53,15.13-2.17,1.29-.43,2.51-1,3.79-1.46,2.47-.85,4.37-.27,5.19,1.48.89,1.9,0,4.2-1.95,5.61a59.75,59.75,0,0,0-5.24,4.16,45.81,45.81,0,0,0-5.38,5.41c-7.27,9.17-9,19.69-7.25,31a34.42,34.42,0,0,1-.42,13.34,49.49,49.49,0,0,1-5.41,14.05,40.4,40.4,0,0,1-4.15,5.54A5.62,5.62,0,0,1,392,386.56Z" transform="translate(-0.48 -0.48)"/><path class="cls-1" d="M372.87,428.12a29,29,0,0,1-9.16-2.07,41.89,41.89,0,0,0-14.15-3.35c-5-.18-9.74.47-13.93,3.43-2.47,1.75-5,3.5-7.34,5.38a27.52,27.52,0,0,0-3.35,3.39,3.89,3.89,0,0,1-5.33.94c-1.78-1.07-2.24-2.56-1.49-4.74C320.21,425,324,420,328.47,415.43a104.65,104.65,0,0,1,7.9-7,26.77,26.77,0,0,0,6.26-6.88,12.46,12.46,0,0,0,2-5.28,4.58,4.58,0,0,1,7.69-3.07,14.56,14.56,0,0,0,9,3.22,12.64,12.64,0,0,0,9.22-3.29,11.91,11.91,0,0,1,1.09-.93,3.28,3.28,0,0,1,5.17,2.44,12,12,0,0,1-.33,3.78,10,10,0,0,0,4.55,11.15,28.14,28.14,0,0,0,8.45,3.25c3.74.88,4.82,3.55,2.61,6.78a13.81,13.81,0,0,1-2.63,2.77C385.76,425.48,378.48,428,372.87,428.12Z" transform="translate(-0.48 -0.48)"/><path class="cls-1" d="M223,313.91c-5.7.47-10.27-.21-14.51-2.71-5.51-3.24-7.27-7.77-6.16-13.8a44.64,44.64,0,0,1,7.11-16.89c.89-1.32,1.7-2.71,2.61-4,2.65-3.77,3.75-8.06,4.4-12.53.38-2.64,2.08-3.81,4.54-3.35a3.81,3.81,0,0,1,2.64,1.88c2.06,3.32,4.1,6.66,6.26,9.91,3.15,4.72,6.64,9.23,9.52,14.1a84.48,84.48,0,0,1,5.22,11.54,15,15,0,0,1,.62,4.47c.25,3.8-1.93,6-5,7.62A34.46,34.46,0,0,1,223,313.91Z" transform="translate(-0.48 -0.48)"/><path class="cls-1" d="M176.46,258.54a19.4,19.4,0,0,1,3.91-12.33,41.13,41.13,0,0,1,16.51-13.89c2.82-1.32,5.65-2.62,8.51-3.86,4.82-2.09,8.21-5.69,10.87-10.09.25-.41.41-.87.65-1.28a3.29,3.29,0,0,1,3.64-1.69,3.22,3.22,0,0,1,2.68,3,9.24,9.24,0,0,1-.73,5.16c-1.32,3-2.56,6-4,9a33.89,33.89,0,0,0-3,9.82,66.29,66.29,0,0,1-5.29,16.85c-3,6.73-8.13,10.86-14.89,13.38-5.08,1.89-9.62.8-13.79-2.19a11.63,11.63,0,0,1-4.93-9C176.56,260.46,176.52,259.5,176.46,258.54Z" transform="translate(-0.48 -0.48)"/><path class="cls-1" d="M327.87,302.34a13,13,0,0,1,.43-1.83c2.63-7.36,5.34-14.7,7.92-22.09a100.7,100.7,0,0,1,10.34-21.54,17,17,0,0,1,1.11-1.56,3.2,3.2,0,0,1,3.4-1.25,3.23,3.23,0,0,1,2.58,2.56,7.94,7.94,0,0,1-.1,3.29c-2,8-1.62,16-.11,24a12.21,12.21,0,0,0,3.64,6.1q5,5.13,10.32,10c2.65,2.43,2.65,4.33-.23,6.59a10.45,10.45,0,0,0-1.81,1.89,29.89,29.89,0,0,0-4.84,10.36,16.34,16.34,0,0,1-1,2.92c-1.25,2.52-3.59,3-5.68,1.14-1.65-1.49-3.11-3.2-4.76-4.7a48.12,48.12,0,0,0-12.93-8.57c-2.26-1-4.43-2.19-6.6-3.37C328.19,305.56,327.68,304.34,327.87,302.34Z" transform="translate(-0.48 -0.48)"/><path class="cls-1" d="M449.87,279.34a14.8,14.8,0,1,1-14.56-15A14.71,14.71,0,0,1,449.87,279.34Z" transform="translate(-0.48 -0.48)"/></svg>