<svg id="Layer_1" data-name="Layer 1" xmlns="http://www.w3.org/2000/svg" viewBox="0 0 720 612"><defs><style>.cls-1{fill:none;stroke:#000;stroke-miterlimit:10;stroke-width:0.01px;}</style></defs><path d="M.48,612.48V.48h720v612Zm287.1-248c-3.8,4-7.67,7.85-12.51,10.44-6.25,3.35-12.91,5.2-20.07,4.28-3-.38-5.94-1.22-8.91-1.78-3.53-.67-6.07,1.84-5.18,5.32,1.82,7.09,4.44,13.85,8.77,19.83,5.67,7.82,13.6,12.43,22.46,15.69,7.41,2.72,15.22,3.62,23,4.65,8.27,1.1,16.42-.22,24.41-2.45a29,29,0,0,0,10.57-5c3.29-2.65,6.35-5.6,9.44-8.5,14.08-13.19,21.45-29.57,23-48.68.29-3.58.23-7.19.51-10.77a22.76,22.76,0,0,1,1.07-6.34,49.79,49.79,0,0,1,14.85-21.15c1.11-.91,2.33-1.69,3.45-2.59a3.4,3.4,0,0,0,1.1-3.88,3.1,3.1,0,0,0-3.11-2.2,30,30,0,0,0-5,.3c-9.74,1.84-19.05,5-27.3,10.57-7.73,5.24-15.39,10.64-22.68,16.48A45.56,45.56,0,0,1,308.54,347c-2.24.61-4.51,1.07-6.76,1.62a33.36,33.36,0,0,1-13.57.35c-.86-.14-1.69-.48-2.56-.58a3.22,3.22,0,0,0-3.75,4c.94,3.89,2,7.76,4.76,10.88C287,363.58,287.22,364,287.58,364.47ZM399,580.47v-.18c1.44,0,2.88,0,4.32,0a13.73,13.73,0,0,0,6.86-1.85,3.36,3.36,0,0,0-.39-6.18c-2.51-1-5-2.13-7.51-3.12A44,44,0,0,1,391.46,563a35.44,35.44,0,0,1-5.34-5.12,11.59,11.59,0,0,1-2.41-9.48,17.52,17.52,0,0,1,2.31-6.51,40.36,40.36,0,0,1,9.52-11,85.51,85.51,0,0,0,15.54-15.92c3.87-5.26,7.07-10.91,8.22-17.42.82-4.63,1.23-9.34,1.82-14a6.06,6.06,0,0,0,.06-.95,3.32,3.32,0,0,0-2.26-3.33,3.23,3.23,0,0,0-3.79,1.34,21.8,21.8,0,0,0-1.79,3.38,78.88,78.88,0,0,1-13,20.06,8,8,0,0,1-5.74,2.6c-2.69.18-4-.75-4.87-3.3a10.38,10.38,0,0,1-.17-6.14c.7-2.53-1.93-5.58-5.11-4.9a6.1,6.1,0,0,0-3.58,2.63c-1.74,2.29-3.43,4.62-5.09,7a49.11,49.11,0,0,1-11.65,11.32,12.44,12.44,0,0,1-3.16,1.67,75.18,75.18,0,0,1-8.29,2.36c-5.34,1.09-7.41-.66-9.61-5.63a22.16,22.16,0,0,1-1.27-6.06c-.39-3.17-.66-6.36-.86-9.55a12.26,12.26,0,0,0-4.79-9,43,43,0,0,0-17.87-8.35,30.88,30.88,0,0,0-9.78-.5c-4.9.45-7,5-4.41,8.15a23.59,23.59,0,0,1,1.76,3.39,6.9,6.9,0,0,1-.41,7.49,42.9,42.9,0,0,1-3.17,4.21c-1.57,1.92-3.23,3.76-4.79,5.68a10.59,10.59,0,0,0-2.27,7.15,11.92,11.92,0,0,0,2.28,7c1.78,2.42,2.17,4.91.59,7.59-.77,1.31-1.43,2.68-2.15,4-2.27,4.19-1.36,9.18,3.27,11.74,1.95,1.09,3.77,2.41,5.7,3.55,2.88,1.7,5.73,3.48,8.72,5,7.31,3.66,13.57,8.41,17.44,15.83.19.35.42.68.64,1a16.17,16.17,0,0,0,5.15,4.93,24.53,24.53,0,0,0,8.24,3.15A90.38,90.38,0,0,0,365.44,579a154.09,154.09,0,0,1,20.61.49C390.34,579.94,394.65,580.16,399,580.47Zm-268-150a28.36,28.36,0,0,0,2.5,13c2.16,4.36,4.34,8.72,8.1,12.05a55.61,55.61,0,0,0,15.83,9.8c15.42,6.33,30.38,6,44.75-3a12.62,12.62,0,0,1,6.62-1.78,25.83,25.83,0,0,1,4.3.29,40.39,40.39,0,0,0,14.54-.59c5.92-1.29,11.51-3.36,16.26-7.28,5.3-4.36,8.13-10,7.56-16.82-.64-7.7-3.14-14.81-8.57-20.64-3.32-3.57-6.63-7.16-9.73-10.92a25.78,25.78,0,0,1-6-17.53c.12-4.3.78-8.59,1.19-12.88a38.45,38.45,0,0,0,.37-4.77,3.45,3.45,0,0,0-5.22-3.14,17,17,0,0,0-3.47,2.1c-3.06,2.56-6.16,5.11-9,7.9a36.69,36.69,0,0,0-10.62,19.76,113.89,113.89,0,0,1-2.92,11.1c-1.67,5.63-9.49,11.38-17.15,9.23a50,50,0,0,1-11.39-5,19.54,19.54,0,0,1-10-15.21A28.86,28.86,0,0,0,158,392a3.39,3.39,0,0,0-4.84-2.43,8.46,8.46,0,0,0-2.46,1.44,29.05,29.05,0,0,0-3.6,3.5,87.77,87.77,0,0,0-12.84,19.89A36.61,36.61,0,0,0,131,430.51Zm-4,52.29a126.25,126.25,0,0,0,4,30.73c3.58,13.57,10.41,25.13,21.67,33.87,8.07,6.27,16.67,11.58,26.41,14.83,5.6,1.88,11.22,3.72,16.91,5.28,2.72.74,5.53.61,7.62-2,3-3.69,3.07-7.62,1-11.65A46.74,46.74,0,0,0,193.07,539c-2.72-2.28-4.87-5.25-7.19-8a8.19,8.19,0,0,1-1.68-4.92c-.14-2.25.75-3.47,3-3.78,1.73-.23,3.5-.27,5.25-.33,4.39-.17,8.81,0,13.15-.51,6.5-.75,12.95-1.93,19.41-3C239.89,516,251.4,508,261,496.79a3.53,3.53,0,0,0,.49-4,3.3,3.3,0,0,0-3.58-1.85,15.44,15.44,0,0,0-1.64.35c-3.11.71-6.2,1.56-9.34,2.07a18,18,0,0,1-5.72,0c-7.39-1.22-14.17-3.89-19.77-9-2.18-2-4.32-4-6.47-6.07-2.32-2.18-3.82-2.41-6.71-1-1.37.67-2.74,1.31-4.1,2-10.46,5.17-21.56,6.83-33.1,6a19.64,19.64,0,0,1-5.35-1.18c-11.14-4.23-21-10.34-29-19.31a4.31,4.31,0,0,0-4.11-1.47c-1.63.29-2.3,1.5-2.73,3C128,472.56,126.87,479,126.93,482.8Zm262.68-11.06a35.76,35.76,0,0,1,1.58,3.48c1.18,3.56,2.3,7.15,3.4,10.73a3.46,3.46,0,0,0,2.49,2.66,3.33,3.33,0,0,0,3.61-1.31c.68-.89,1.29-1.83,1.9-2.77,3.41-5.31,6.8-10.64,10.24-15.93a28,28,0,0,1,2.67-3.39c2.4-2.67,4.9-5.27,7.31-7.94a51.58,51.58,0,0,0,12.87-24.54c1.24-6.09,2.17-12.17.94-18.32-3-15-12.24-24.58-26.64-29.27a30,30,0,0,0-23.73,2c-1.52.77-2.75,1.62-2.84,3.5a2.32,2.32,0,0,1-.29.9,6.31,6.31,0,0,0-.3,5.13c1.2,3.38,1.29,6.9,1.47,10.4a28.26,28.26,0,0,1-4.08,16.27,54.86,54.86,0,0,1-12.51,14.42,165.6,165.6,0,0,1-25.34,17.67c-2.79,1.52-3.27,4.1-1.3,6.61a33.77,33.77,0,0,0,3.05,3.05c3.22,3.2,5.79,6.67,6.46,11.43a81.35,81.35,0,0,1-.13,20.09c-.4,3.74,1.14,5.27,4.81,4.68a8.92,8.92,0,0,0,1.62-.4,47.43,47.43,0,0,0,11.44-6A80.55,80.55,0,0,0,383,480.49C385.24,477.79,387.23,474.9,389.61,471.74Zm58.07,55.13c-.06-.62-.13-1.31-.18-2-.37-5.82-.67-11.65-1.12-17.46a37.55,37.55,0,0,0-5.76-16.86,10.84,10.84,0,0,0-4.07-4c-2.67-1.44-5.35.15-5.26,3.17a69.09,69.09,0,0,1-2.52,19.42c-1.5,5.73-5.18,10.06-10.12,13.18a109.86,109.86,0,0,0-15.87,11.56,25.93,25.93,0,0,0-6.7,9c-2.53,6-2.93,9.54,4,15.25a7.49,7.49,0,0,0,1.39.93c6.11,3.09,12.38,5.64,19.41,5.45.77,0,1.55,0,2.31,0,.25,1.14.43,2,.63,2.85,1.81,7.57,6.32,12.82,13.64,15.46a43.61,43.61,0,0,0,13.88,2.42,201.72,201.72,0,0,0,28-1.11c9-1,17.85-2.91,26.1-6.78a83.87,83.87,0,0,0,24.87-17.72,30.89,30.89,0,0,0,3.72-5,3.15,3.15,0,0,0-.38-4,3.35,3.35,0,0,0-4-.74,11.21,11.21,0,0,0-1.82,1.13c-1.18.81-2.33,1.69-3.55,2.45a64.3,64.3,0,0,1-25.7,9.39,54.31,54.31,0,0,1-16.25.15,12.69,12.69,0,0,1-6.77-2.77c.82-2.15,1.56-4.33,2.49-6.43,2.49-5.67,6.1-10.68,9.4-15.87a15.48,15.48,0,0,0,1.82-2.81c1.28-3.61.48-6.52-3.61-7.19-1.89-.31-3.75-.81-5.63-1.18-10.6-2.08-21.2-3.07-31.77.21C448.18,527,448,526.94,447.68,526.87Zm100.76-24c-1.08.26-1.92.49-2.77.67a73.09,73.09,0,0,0-21.78,8.54c-10.92,6.51-19,15.82-25.25,26.72a62.24,62.24,0,0,0-2.94,6.55,3.36,3.36,0,0,0,.56,3.8,3.54,3.54,0,0,0,4,.89c1.14-.35,2.27-.76,3.39-1.17,6.61-2.4,13.23-4.78,19.81-7.23a27.88,27.88,0,0,1,13.92-1.16,27.11,27.11,0,0,1,17.1,9.25c.27.3.53.6.82.88,1.3,1.29,2.57,2.62,3.93,3.85A23.59,23.59,0,0,0,578,560.6c4.39-.4,8.47-1.6,11.74-4.8A26.1,26.1,0,0,0,597,542a57.45,57.45,0,0,0,.25-18.87c-.61-4.75-1.65-9.44-2.36-14.18a45.94,45.94,0,0,0-4.7-14,26.94,26.94,0,0,0-8.18-9.9c-3.56-2.56-7.37-4.77-11.09-7.09-2.58-1.61-5.24-3.08-7.79-4.73a26.44,26.44,0,0,1-10.52-12.14c-.84-2.06-1.37-4.24-2.09-6.36a11.9,11.9,0,0,0-1.18-2.84c-1.76-2.63-4.92-2.43-6.34.37a10.64,10.64,0,0,0-1.12,3.14c-.53,3.63-1.12,7.27-1.32,10.92-.63,11.57,2.23,22.51,6.38,33.17C547.38,500.59,547.9,501.65,548.44,502.88Zm-127.32-219A58.37,58.37,0,0,0,402,287a63,63,0,0,0-13.56,6.54,19.41,19.41,0,0,0-3.82,3.23,3.93,3.93,0,0,0-.62,4.69c.82,1.55,2.24,1.72,3.89,1.69a55.67,55.67,0,0,1,6.43.5c3.68.38,6.55,2.28,9.14,4.83a2.43,2.43,0,0,1,.57,3.21,8,8,0,0,1-2.42,2.54,85.41,85.41,0,0,0-18,15c-6.61,7.54-10.93,16.14-11.82,26.2a73.59,73.59,0,0,0,.26,11,17.49,17.49,0,0,0,1,4.16A3.28,3.28,0,0,0,376,373a3.5,3.5,0,0,0,3.43-1.75c.22-.33.42-.68.65-1,3.87-5.39,7.86-10.72,13.07-14.92a40.16,40.16,0,0,1,16.76-8.45,75.29,75.29,0,0,1,9.74-1.17c7-.56,13.86.86,20.8,1.07,4.06.12,8.13,1.05,12.17.19,3.34-.72,6.62-1.78,9.91-2.75,8.13-2.41,14.21-7.76,19.63-14a4.57,4.57,0,0,0,.78-5.37c-1.94-3.49-3.68-7.15-6.1-10.28a87.87,87.87,0,0,0-32.9-26.52A46.55,46.55,0,0,0,421.12,283.91Zm61.49,102.54c2.06,1.11,3.79,2.07,5.55,3,7.4,3.87,15,4,22.71,1.09a20.37,20.37,0,0,0,8.37-6.65c2.12-2.65,1.23-5-1.93-6.42a18.11,18.11,0,0,1-7-4.87,49.45,49.45,0,0,1-8.47-14.67c-2.67-7.75-2.78-15.68-1.34-23.68a36.44,36.44,0,0,0,.67-4.25c.12-2.05-1.66-3.92-4-4.43-1.68-.37-3,.4-4,2.28-.36.71-.72,1.43-1,2.17a49.79,49.79,0,0,1-13.94,18.64,33.8,33.8,0,0,1-14.25,7.1,38.62,38.62,0,0,1-15.48.17,67.94,67.94,0,0,0-17.9-.84c-11.26,1.19-21.72,4.48-31,11.22a24.66,24.66,0,0,0-2.95,2.44,3.78,3.78,0,0,0-.78,4.61,3.33,3.33,0,0,0,3.91,1.61c6-1.22,11.73-.19,17.33,2.13,4.15,1.71,8.3,3.47,11.89,6.15,4.5,3.36,8.05,7.72,11.57,12.09a164.92,164.92,0,0,1,9.82,14.47,21.82,21.82,0,0,0,4.66,5.41c11.65,9.06,24.53,11.63,38.52,6.35,3.24-1.22,6.17-3.33,9.14-5.19a3.88,3.88,0,0,0,1.69-4.41,3.57,3.57,0,0,0-3.51-2.42,5.85,5.85,0,0,1-.72-.07c-3.77-.79-7.48-1.81-10.57-4.25C483.62,400.5,481.74,394.21,482.61,386.45Zm171.87,72c0-1.76,0-3.51,0-5.27,0-3.18-4.12-5.54-6.81-3.73-3.95,2.65-8.52,4-13.16,4.95a25.12,25.12,0,0,1-8.82.31c-6.25-.93-12-3.43-17.65-6a13.61,13.61,0,0,1-3.73-2.94,2.51,2.51,0,0,1-.36-3.45c1.49-2.36,2.7-4.9,4.21-7.26,4.48-7,9-13.95,13.59-20.9a4.54,4.54,0,0,0-3.12-7.09,22.79,22.79,0,0,1-9.78-2.91c-2.19-1.34-4.1-.53-5.34,1.81-.55,1.06-1.16,2.1-1.75,3.13a57.32,57.32,0,0,1-9.59,12.2c-6.79,6.66-13.55,13.34-22.81,16.73-4.49,1.65-5.14,3.25-4.36,8,.06.39.2.77.27,1.17,1.45,7.68,4.89,14.46,9.19,20.91a32.36,32.36,0,0,0,14.3,12,27,27,0,0,1,8.66,6.24,33.84,33.84,0,0,1,8.56,14.5c2.58,9.24,4.08,18.58,1.1,28.09-1,3.13.93,5.53,4.17,5.29,4.15-.31,8-1.39,10.48-5.24,1-1.55,2.19-3,3.2-4.49,3.46-5.28,6.83-10.62,10.31-15.89A155.92,155.92,0,0,0,647.8,486C651.7,477.24,654.36,468.15,654.48,458.44Zm-5.33-173.11a13.74,13.74,0,0,1-2-5.43c-.45-2.07-1.84-3.18-3.72-2.89a4.34,4.34,0,0,0-3.63,2.75c-.6,1.48-1.22,3-2,4.37a114.89,114.89,0,0,1-17.73,25.23,5,5,0,0,0-1.49,3.4c-.07,2-.25,4-.3,6a82.33,82.33,0,0,0,.73,15c1.22,7.65,1.95,15.37,3.06,23a43.63,43.63,0,0,0,4.37,13.88c1.17,2.26,2.92,3,5.11,1.74a12.15,12.15,0,0,0,3-2.29c7.42-8,14.35-16.34,19-26.32.28-.61.68-1.17,1.26-2.13.54,1.21.91,2,1.25,2.77.81,1.91,1.59,3.84,2.43,5.74,1.5,3.38,4.73,4.46,7.61,2.26a44.08,44.08,0,0,0,7.25-6.58,75.17,75.17,0,0,0,7.09-10.23A44.75,44.75,0,0,0,686,320.9a79.59,79.59,0,0,0,.17-23.87,50.23,50.23,0,0,0-2.4-11c-1.62-4.51-3.3-9-4.84-13.54-2.43-7.15-4.36-14.37-2.93-22a3,3,0,0,0-1.56-3.25,3.16,3.16,0,0,0-3.62.05,17.05,17.05,0,0,0-2,1.7,55.81,55.81,0,0,0-10.6,14.72,101.43,101.43,0,0,0-6.81,17.12A10.39,10.39,0,0,1,649.15,285.33Zm-365,300.73,0-.34c3,0,5.92,0,8.88,0,1.84,0,3.68-.07,5.51-.19,4.44-.3,8.66-1.25,12.42-3.86,5.53-3.85,4.17-10.28.93-13.55A21.4,21.4,0,0,0,300.46,562c-6-1.12-11.9-2.42-18-2.72a8.34,8.34,0,0,1-3.73-1.37c-1.27-.8-1.26-1.66-.63-3.09a24.53,24.53,0,0,0,2-4.87c.61-3,.88-6,1.25-9a12.08,12.08,0,0,0-1.33-7.67,42,42,0,0,0-4-6.24c-3-3.58-2.9-7.32-1-11.17a31.11,31.11,0,0,1,7.72-10c1.65-1.4,3.33-2.76,4.92-4.22a29.48,29.48,0,0,0,3.17-3.25,4.76,4.76,0,0,0,.52-5.18c-.95-1.44-2.34-1.7-4.72-1.15a47,47,0,0,0-22.13,12.34c-3,2.82-5.61,6-8.74,8.55-8.42,7-17.39,13.08-27.53,17.3a26.09,26.09,0,0,1-5.5,1.6,49,49,0,0,1-14.8.48,3.46,3.46,0,0,0-4.07,2.22c-.74,1.68-.41,3.07,1.07,4.54.85.84,1.77,1.63,2.54,2.54,5.11,6.06,9.53,12.39,9.73,20.83a13.39,13.39,0,0,0,4.88,10.1,28.65,28.65,0,0,0,7.43,4.73,106.71,106.71,0,0,0,12.12,3.7,99.62,99.62,0,0,0,19,3.67C268.53,585.26,276.35,585.62,284.17,586.06ZM241.93,70.7c-5.85.13-11.84.5-17.53,2.69-2.3.89-4.58,1.88-6.8,3a3.67,3.67,0,0,0-2.1,4.17c.35,1.57,1.52,2.38,3.57,2.61,2.38.26,4.76.51,7.12.94,5.72,1,11.19,2.84,15.71,6.66,5.11,4.32,7.9,9.62,5.83,16.51a16.14,16.14,0,0,1-7,9.07c-8.74,5.62-14.8,13.06-16.28,23.68-.41,2.89.7,5,3.44,6l.89.34a41.21,41.21,0,0,1,18.57,13.85c.79,1,1.65,2,2.38,3,1.72,2.49,4.22,3.05,7,2.74a11.66,11.66,0,0,0,3.63-1.11,40.67,40.67,0,0,0,14.13-11.26c2-2.56,4-5.17,5.9-7.86,5.56-8.05,9.68-16.67,10.87-26.56,1.11-9.29,1-18.3-3.7-26.81-2.72-4.94-6-9.26-10.93-12.11A68.54,68.54,0,0,0,241.93,70.7ZM343.35,175.61c.53.66.86,1,1.12,1.41a59.91,59.91,0,0,1,8.15,17.26,3.51,3.51,0,0,0,3,3,3.43,3.43,0,0,0,3.67-1.72,20.57,20.57,0,0,0,1.29-2.57c1-2.35,1.92-4.73,2.9-7.09a41.15,41.15,0,0,0,2.5-22.58c-1.4-9-4.92-17.36-8.33-25.69a101.21,101.21,0,0,0-12.61-22c-5.77-7.76-12.08-14.94-20.69-19.67-5-2.77-10.16-5.38-15.3-8a27.73,27.73,0,0,0-5.15-1.92,3.79,3.79,0,0,0-5,2.52,4.71,4.71,0,0,0,.54,3.44c2.64,5.92,5,11.93,6.2,18.35,1.09,6,2.36,12.07,1.81,18.31a4.85,4.85,0,0,0,1.13,3c2.22,2.82,4.65,5.47,6.93,8.24,3.48,4.23,5.41,9,5,14.58-.11,1.51-.19,3-.39,4.53-1,7.73-3.36,15-8,21.29a42.66,42.66,0,0,1-14.33,12.84,3.59,3.59,0,0,0-2,4,3.07,3.07,0,0,0,3.28,2.59c3.9-.11,7.88-.06,11.66-.86,13.19-2.8,23.46-10.12,31.15-21.13C342.34,177.12,342.77,176.47,343.35,175.61Zm-18.7,280,2.48-1.16c4.89-2.35,9.84-4.61,14.66-7.1a53.52,53.52,0,0,0,14.44-10.19c8.35-8.7,11.82-19,9.79-31a21.83,21.83,0,0,0-2.73-7.09c-1.69-2.88-4.89-2.57-6.41.37-.43.85-.7,1.78-1.1,2.66-1.25,2.75-2.4,5.57-3.82,8.24-3.9,7.38-10,12.88-16.43,17.85a51.58,51.58,0,0,1-25.76,10.22A65,65,0,0,1,276,434a22.89,22.89,0,0,1-7.53-4.58,3.89,3.89,0,0,0-4.76-1c-1.44.78-1.87,2-1.62,4.14.32,2.69.69,5.4.76,8.1.15,6-1.5,11.51-6.28,15.44a41.5,41.5,0,0,1-17.22,8.61,5.47,5.47,0,0,0-4.47,4.11,18.88,18.88,0,0,1-2.84,5.76c-2.08,3-1.67,5.08,1.4,7a9.87,9.87,0,0,0,3.06,1.31,36.81,36.81,0,0,0,5.9.86,45.59,45.59,0,0,0,13-1.58c5.38-1.33,10.74-2.43,16.32-2.12,5,.28,9.8,1.14,14.15,3.92a14.41,14.41,0,0,0,4.95,1.66,3.22,3.22,0,0,0,3.82-3c.07-.63,0-1.28,0-1.92.05-2.39.16-4.79.14-7.19a3,3,0,0,1,2.71-3.32c2.12-.4,4.23-.9,6.36-1.09a63.74,63.74,0,0,1,24.38,2.8,8.91,8.91,0,0,0,2.1.43,3.37,3.37,0,0,0,3.8-4,6.61,6.61,0,0,0-1-2.38A43,43,0,0,0,324.65,455.64ZM514.51,333.85c-2.52.08-4.1,1.94-3.67,4.12.69,3.44,1.31,6.94,3.05,10.06,1.56,2.79,3.22,5.52,4.83,8.28a64,64,0,0,0,18.6,19.77c6.09,4.35,12.74,7.18,20.48,7.09A52.15,52.15,0,0,1,573.41,385c5.21,1.55,10.51,2.73,15.12,5.81l5.4,3.57a4.37,4.37,0,0,0,5.14,0,23.88,23.88,0,0,0,11-15.11c1.78-7.06.85-14-1.65-20.72a41.94,41.94,0,0,1-2.58-13.1,31.67,31.67,0,0,1,.14-6.68c1.35-8,2.92-16,4.34-24a5.65,5.65,0,0,0-.19-2.8,3.25,3.25,0,0,0-5.34-1.12,15.12,15.12,0,0,0-1,1.35,79.76,79.76,0,0,1-5.46,6.65c-3.57,3.55-7.34,6.91-11.1,10.26a78.11,78.11,0,0,1-14.49,10.6,33.84,33.84,0,0,1-8.45,3.31c-9.18,2.15-18.34,1.13-27.32-.78a69.49,69.49,0,0,1-20.58-7.68A10.23,10.23,0,0,0,514.51,333.85ZM533,456.2a4.13,4.13,0,0,0-3.58-4.06,7.56,7.56,0,0,0-4.84,1.06c-8.38,4-16.47,8.56-23.63,14.54a8,8,0,0,1-5.9,2.08c-.72-.05-1.44,0-2.16,0-4.35-.27-8.7-.92-12.38-3.32-8.54-5.57-16-12.29-20.58-21.64-1.68-3.44-3.56-6.82-3.9-10.75-.21-2.45-1.16-3.44-3.74-3.86-2.08-.34-3.35.39-4.21,2.63-1,2.53-1.77,5.15-2.8,7.66a52.31,52.31,0,0,0-3.6,22.55c.45,10,2.41,19.51,8.21,27.9,1.63,2.37,3.36,4.68,5.2,6.89,7.06,8.45,14.94,15.82,25.73,19.31,2.81.91,5.6,1.89,8.43,2.74a7.46,7.46,0,0,0,6-.65c6.9-3.67,12.55-8.81,17.7-14.55,7.93-8.8,12.92-19.19,15.95-30.54C530.49,468.24,531.67,462.19,533,456.2ZM268.4,241.43a5,5,0,0,1-1.1,0,20.18,20.18,0,0,1-9.45-4.93,5.75,5.75,0,0,1-1.29-2,4.07,4.07,0,0,0-3.81-2.79c-1.92-.07-2.92,1.15-3.52,2.74-1.06,2.84-2.1,5.69-3.06,8.57-2.42,7.24-2.41,14.64-1,22,.64,3.44,1.85,6.77,2.81,10.15.42,1.48.8,3,0,4.44-1.95,3.69-4.17,7.16-7.75,9.59a44.37,44.37,0,0,1-11.77,5.81c-3.3,1-4.32,3.33-2.87,6.5a15.49,15.49,0,0,0,1.77,2.84c2,2.61,4.11,5.1,6,7.76,8.25,11.6,18.21,21,32.08,25.5,1.48.48,2.81.65,4-.42s1.31-2.35.68-4.17a24,24,0,0,1-.92-3.21,49.34,49.34,0,0,1-.48-13.13A59,59,0,0,1,276.89,291a37,37,0,0,1,8-9.45c1.59-1.34,3.17-2.69,4.77-4a12,12,0,0,0,4.36-10,48.62,48.62,0,0,0-3.59-17,87,87,0,0,0-8.55-15.5c-2.6-3.76-5-7.62-5.94-12.2a7.27,7.27,0,0,0-.68-1.78,3.52,3.52,0,0,0-3.53-2,3.48,3.48,0,0,0-2.92,2.8,6,6,0,0,0-.12,1,71.48,71.48,0,0,0-.52,15.54C268.31,239.3,268.33,240.32,268.4,241.43ZM314,243.16A54,54,0,0,1,324.07,252c7.76,8.27,12.09,17.95,12,29.43a16.4,16.4,0,0,0,.35,3.34c.65,3.27,3.9,4.64,6.52,2.6a27.52,27.52,0,0,0,4.33-4.43c1.2-1.48,2.11-3.2,3.22-4.77a45.18,45.18,0,0,0,5.91-12c3.54-10.64,4.85-21.65,5-32.81a43.43,43.43,0,0,0-5.59-22.06,33.33,33.33,0,0,0-9.62-11.19c-3.17-2.28-6.52-3-10-.78a32.26,32.26,0,0,0-4.85,3.49,32.26,32.26,0,0,1-12.95,7,17.27,17.27,0,0,1-11.05.08c-2.86-1-5.89-1.43-8.83-2.21a22.21,22.21,0,0,0-11.13.31,3.26,3.26,0,0,0-2.69,3c-.49,4.62-.15,9.13,2.3,13.23,2.09,3.5,4.17,7,6.5,10.35A33.43,33.43,0,0,1,299.64,250a3.57,3.57,0,0,0,5.77,2.49,15.21,15.21,0,0,0,2.27-2.12C309.77,248,311.8,245.67,314,243.16ZM262.61,365.27c1.91-.17,3.83-.31,5.73-.54a18,18,0,0,0,2.81-.6c3.21-.9,4.11-2.83,2.62-5.77a9.84,9.84,0,0,0-2-2.66,36.39,36.39,0,0,0-4.29-3.45,136.32,136.32,0,0,0-18.54-10.49c-4-1.85-7.64-4.34-11.45-6.52-6-3.42-8.82-9.24-11.58-15.14-1.92-4.11-3.29-8.45-5.71-12.37a11.49,11.49,0,0,0-6.87-5.2c-3.53-1-7.2-1.46-10.81-2.1a5.85,5.85,0,0,0-1.91.09c-2.07.36-3.37,1.82-3.1,3.86a33.53,33.53,0,0,1-1.22,12.81c-2.21,8.68-4.79,17.25-9.53,25-.45.75-.79,1.57-1.21,2.34C182.72,349.7,180.13,355,177,360A49.8,49.8,0,0,0,169.33,390a24.79,24.79,0,0,0,4.46,12.72,7,7,0,0,0,5.42,3.11c2.57.23,3.92-.81,4.3-3.34.11-.71.19-1.43.27-2.14a34.44,34.44,0,0,1,4.06-13.69c2.47-4.29,5.1-8.49,7.8-12.64,3.29-5.06,7.87-8.78,12.93-12,6.18-3.88,12.9-6.67,19.51-9.7a3.84,3.84,0,0,1,4.24.38,104.74,104.74,0,0,0,13.52,8.18A37.27,37.27,0,0,0,262.61,365.27ZM513.3,398.1l0-.25c-2.71,0-5.44-.11-8.15,0a3.87,3.87,0,0,0-3.87,3.56c-.05,1.71,1.12,2.94,3.32,3.48l.7.16a42.48,42.48,0,0,1,5.74,1.65c4.7,2,6,2.61,2.75,8.19a40.54,40.54,0,0,1-14.55,15c-2.27,1.34-4.54,2.69-6.89,3.88-3.7,1.88-7.39,3.76-11.79,3.47a2.87,2.87,0,0,0-3,3.48,7.68,7.68,0,0,0,1.53,3.39c3.07,3.89,7.46,5.4,12.12,6.11a53.37,53.37,0,0,0,19.56-.71c13.47-3,25.79-8.45,36.13-17.85a4.65,4.65,0,0,1,2.21-1.19c2.44-.41,4.93-.51,7.36-.95,12.54-2.24,23.55-7.47,32.4-16.83a12.41,12.41,0,0,0,3.19-5,3.7,3.7,0,0,0-1.22-4.29,36.74,36.74,0,0,0-11.08-6.56,64.22,64.22,0,0,0-14.46-3.29c-4.84-.53-9.72-.84-14.55-1.46-4.13-.53-8.19-1.34-11.35-4.53a4,4,0,0,0-2.86-.71c-1.54.12-2.17,1.4-2.68,2.74a11.56,11.56,0,0,1-9.55,7.73C520.66,397.92,517,397.88,513.3,398.1ZM326.55,296.68c0-1.36,0-2.31,0-3.26-.2-4.14-.3-8.3-.66-12.44a38.6,38.6,0,0,0-9.75-23c-1.33-1.5-2.67-2-4.21-1.37a3.39,3.39,0,0,0-2.3,4c.69,3-.3,5.6-1.81,8a46.71,46.71,0,0,1-11,12.25,40.07,40.07,0,0,0-14.69,21c-1.81,5.92-1.92,11.94-1.73,18a67.83,67.83,0,0,0,2.71,15.3,5.55,5.55,0,0,0,3.36,3.78,13,13,0,0,0,9.14.35c10.82-3,20.85-7.67,29.48-14.95a43.3,43.3,0,0,1,10.54-6.55A161.77,161.77,0,0,1,352.92,311a14.14,14.14,0,0,0,3.06-1.34c2.4-1.43,4.75-2.95,7.1-4.46a46.21,46.21,0,0,0,9.15-8.4,8.08,8.08,0,0,0,1.45-2.47,3.13,3.13,0,0,0-.63-3.35,3.3,3.3,0,0,0-3.49-1,7.45,7.45,0,0,0-1.52.7c-1.84,1-3.64,2-5.53,2.87A26.59,26.59,0,0,1,349.69,296c-3.25-.17-6.5-.57-9.76-.7a41.15,41.15,0,0,0-6,.27C331.6,295.82,329.25,296.27,326.55,296.68ZM636.11,401.36a3.8,3.8,0,0,1,.18.7,9.75,9.75,0,0,1,0,1.43,33.71,33.71,0,0,1-11.2,22.89,36.25,36.25,0,0,0-3.24,3.2,5.79,5.79,0,0,0-1.25,6.23,11.08,11.08,0,0,0,9,7.29,35,35,0,0,0,9.8,0,28.32,28.32,0,0,0,10.44-3.27c8-4.44,14-11.07,18.93-18.68,4.54-7,7.06-14.63,6.41-23.14a69,69,0,0,1,3-26c1.74-5.61,4.57-10.72,7-16a21.62,21.62,0,0,0,1.31-3.34,3.54,3.54,0,0,0-2.2-4.07,3.42,3.42,0,0,0-4.24,1.24c-.36.52-.64,1.11-1,1.66a58.45,58.45,0,0,1-15.53,16.8c-.6.45-1.29.77-2.15,1.28-.17-1.3-.38-2.24-.41-3.19a3.79,3.79,0,0,0-3.11-3.77c-2-.56-4.11-.53-5.45,1.26-4.5,6-10,10.95-15.75,15.7a27.83,27.83,0,0,1-5.09,3.58c-4.9,2.5-9.92,4.79-14.89,7.18a11.78,11.78,0,0,0-2.06,1.2,4.09,4.09,0,0,0-.48,5.94,9.91,9.91,0,0,0,2.24,1.79,21.43,21.43,0,0,0,11.66,3.13C630.74,402.21,633.32,401.71,636.11,401.36ZM217,290c.72-.08,1.84-.16,2.94-.34a27.37,27.37,0,0,0,11.72-5.24,19.76,19.76,0,0,0,6.55-7.21c1.48-3.08,1.13-4.34-1.65-6.23s-5.09-4.3-5.55-7.76a17.18,17.18,0,0,1,1.36-10.32c1.93-3.77,3.84-7.55,5.85-11.28a15.16,15.16,0,0,0,1.78-9.72,9.22,9.22,0,0,0-5.42-7.37c-3.58-1.75-7.44-1.95-11.21-2.22-6.61-.48-13.26-.6-19.89-.64-2.77,0-5.54.69-8.32.88a3.72,3.72,0,0,0-3.55,3.8c-.16,2.07-.36,4.14-.49,6.21a37.44,37.44,0,0,1-2.41,11.94,5.54,5.54,0,0,1-1.59,2.3c-4.59,3.36-9.47,5.95-15.47,5.32a3.31,3.31,0,0,0-3.47,2.05,3.42,3.42,0,0,0,1,3.92c.92.77,2,1.35,2.95,2a87,87,0,0,1,8.1,6c4.12,3.77,8,7.8,11.9,11.82a57.17,57.17,0,0,0,12,9.1C207.8,289.21,212.21,289.74,217,290ZM62.74,205.39c.07-.16.09-.25.13-.28a5.22,5.22,0,0,1,.85-.43c7.65-2.8,14.34-7,19.5-13.42a30.54,30.54,0,0,0,5.37-10.62c.77-2.65-1.53-4.74-4.23-4.08a9.39,9.39,0,0,0-1.33.52c-9.57,4.21-19.4,5.85-29.67,3-4.22-1.19-7.75-3.26-9.72-7.47a3.35,3.35,0,0,0-6.13-.25c-2.87,4.8-5.66,9.63-7.42,15-3.4,10.37-4.28,20.75-.84,31.31A28.09,28.09,0,0,0,38,231.85c1.1.93,2.25,1.8,3.29,2.79a49.1,49.1,0,0,0,15.17,9.45,68.37,68.37,0,0,0,20.32,5.31,42.39,42.39,0,0,0,8.33-.42,3.1,3.1,0,0,0,2.77-2.9,3.33,3.33,0,0,0-2-3.48c-.5-.25-1-.39-1.57-.6a36.26,36.26,0,0,1-3.77-1.53c-2.81-1.49-4.78-3.6-5.19-7-.33-2.69-.86-5.37-1.41-8-1.56-7.54-4.68-14.24-10.6-19.41A4.74,4.74,0,0,1,62.74,205.39Zm243.52-49A49.61,49.61,0,0,0,303.65,140a4.83,4.83,0,0,0-.61-1.3c-1.16-1.69-2.42-3.29-4.8-2.93s-3,2.21-3.48,4.1-.93,3.89-1.53,5.79c-1.55,4.91-3.41,9.67-6.87,13.6a53.83,53.83,0,0,1-18.71,13.93,34.24,34.24,0,0,1-11,3.21c-2.8.22-3.69,1.26-4.1,4a16.55,16.55,0,0,1-1.26,4.83A32.62,32.62,0,0,1,230.88,203c-4.12,1.27-8.34,2.15-12.75,1.5a3.13,3.13,0,0,0-3.53,1.88,3.47,3.47,0,0,0,.81,4,4.28,4.28,0,0,0,3.15,1.49c2.23.09,4.47.22,6.7.47a30.9,30.9,0,0,1,11.38,3.54c5.54,3,11.4,5.41,16.62,9,2.17,1.51,3.77,1.16,5.36-1a26.29,26.29,0,0,0,2-3.8c1-2,1.82-4.09,3-6A42.27,42.27,0,0,1,277,200.64a96.44,96.44,0,0,0,14.06-10.77,60.69,60.69,0,0,0,6.45-7.07C303.84,174.48,305.6,164.69,306.26,156.43ZM120,207.74a67.7,67.7,0,0,0,6.44-16.67,15.72,15.72,0,0,0-.62-10.33A7.72,7.72,0,0,0,122,176.6a17.32,17.32,0,0,0-9-1.8c-7.57.67-13,4.5-16.52,11.11-.87,1.62-1.68,3.27-2.49,4.91a33,33,0,0,1-10.58,12.79,18.24,18.24,0,0,1-3.79,1.92,3.73,3.73,0,0,0-2.7,3.56,9.09,9.09,0,0,0,0,2.15c.8,3.74,1.31,7.59,2.57,11.17,4.29,12.17,13.24,18.59,25.89,20,4,.44,8,.63,11.94.73a17.25,17.25,0,0,0,10.3-2.56c3.39-2.25,5.64-5.34,5.68-9.46a22.5,22.5,0,0,0-4.26-13,40.92,40.92,0,0,0-8-9.21A10.84,10.84,0,0,1,120,207.74Zm61.38-6.56c4.33.24,6-1.66,5.31-5-.5-2.43-1.07-4.84-1.66-7.25a35.43,35.43,0,0,1,1.84-22.78c2.29-5.39,5.47-10.16,10.84-13,4-2.13,8.08-4.18,12.21-6.08s7.28-4.86,8-9.67c.37-2.44.76-4.9.93-7.36.29-4.22.39-8.43,2.22-12.42,1.17-2.56-.83-4.71-3.69-4.53a6.19,6.19,0,0,0-5.15,3c-1.95,2.92-3.91,5.86-6.14,8.57-6.08,7.37-13.7,12.92-21.89,17.71-4.37,2.56-8.88,4.79-14,5.27-2.7.26-5.42.51-8.13.53-4.16,0-8.3,0-12.19-1.94a3.38,3.38,0,0,0-4.6,1.38,8.08,8.08,0,0,0-1.21,5.75c1,4.76,2,9.53,4,14,2.22,5.11,5.41,9.59,8.59,14.11a71.82,71.82,0,0,0,15.53,15.89A20.08,20.08,0,0,0,181.35,201.18Zm18.3-113.63a38.21,38.21,0,0,0-23.28,6.78,76.64,76.64,0,0,0-25.8,30.61c-1.28,2.65-2.28,5.44-3.4,8.17a3.23,3.23,0,0,0,.36,3.41c1.55,1.89,3.37,3.5,5.95,3.64a21.78,21.78,0,0,0,5.71-.24,77.57,77.57,0,0,0,17-5.71c10.9-5.21,19.93-12.92,28.13-21.67A27.78,27.78,0,0,1,215,105.16a30.45,30.45,0,0,1,14.37-1.68,7,7,0,0,0,2.37-.12c3.15-.74,4.09-3.72,1.75-5.93a19.14,19.14,0,0,0-4.48-3.12C219.82,89.61,209.88,87.9,199.65,87.55Zm-32,156.89c5.26,0,9.13-1.74,12.11-5.39a4.88,4.88,0,0,0,1.19-3.3,33.88,33.88,0,0,1,2.68-12.83c1-2.45,2-4.86,3.09-7.28.45-1.06.8-2.18.12-3.22-1.07-1.62-2.29-2.93-4.47-3.23a50,50,0,0,1-26-11.31,17.79,17.79,0,0,1-3.49-3.91c-2.09-3.21-4.12-6.48-5.91-9.87a142.74,142.74,0,0,1-10.06-22.77c-.52-1.6-1.38-2.71-3.1-2.9a3.45,3.45,0,0,0-3.66,2.18,15.89,15.89,0,0,0-2,8.53,7.11,7.11,0,0,0,1,3.12,42.42,42.42,0,0,1,4.61,10.51,29.78,29.78,0,0,1-1,20.65,4.88,4.88,0,0,0,.28,4.91c4.48,7.73,9.35,15.28,11.76,24a5.83,5.83,0,0,0,2.69,3.52c2.45,1.5,4.78,3.22,7.31,4.56A31,31,0,0,0,167.61,244.44ZM101.1,274.71c9.61.24,18.36-1.45,26.56-5.78a82.67,82.67,0,0,0,12.76-8.48,35.06,35.06,0,0,0,8.13-10,3.33,3.33,0,0,0-.19-3.84,3.43,3.43,0,0,0-3.57-1.43c-.39.06-.76.26-1.15.32-3,.43-6,1-9,1.17a11,11,0,0,0-5,1.15,32,32,0,0,1-5.12,2.59c-6,2-12,2.82-18,.24a6.37,6.37,0,0,0-6.55.71,32.54,32.54,0,0,1-13,5.35c-4.56.76-9.06,1.87-13.78,1.09-2.41-.39-4.09,1.78-3.53,4.16a6.75,6.75,0,0,0,.75,1.75c2,3.43,5.13,5.38,8.65,6.88A51.2,51.2,0,0,0,101.1,274.71Zm96-98.8A19.78,19.78,0,1,0,216.81,156,19.69,19.69,0,0,0,197.09,175.91Z" transform="translate(-0.48 -0.48)"/><path class="cls-1" d="M287.58,364.47c-.36-.49-.61-.89-.92-1.24-2.74-3.12-3.82-7-4.76-10.88a3.22,3.22,0,0,1,3.75-4c.87.1,1.7.44,2.56.58a33.36,33.36,0,0,0,13.57-.35c2.25-.55,4.52-1,6.76-1.62a45.56,45.56,0,0,0,16.83-8.26c7.29-5.84,14.95-11.24,22.68-16.48,8.25-5.59,17.56-8.73,27.3-10.57a30,30,0,0,1,5-.3,3.1,3.1,0,0,1,3.11,2.2,3.4,3.4,0,0,1-1.1,3.88c-1.12.9-2.34,1.68-3.45,2.59a49.79,49.79,0,0,0-14.85,21.15,22.76,22.76,0,0,0-1.07,6.34c-.28,3.58-.22,7.19-.51,10.77-1.53,19.11-8.9,35.49-23,48.68-3.09,2.9-6.15,5.85-9.44,8.5a29,29,0,0,1-10.57,5c-8,2.23-16.14,3.55-24.41,2.45-7.74-1-15.55-1.93-23-4.65-8.86-3.26-16.79-7.87-22.46-15.69-4.33-6-7-12.74-8.77-19.83-.89-3.48,1.65-6,5.18-5.32,3,.56,5.91,1.4,8.91,1.78,7.16.92,13.82-.93,20.07-4.28C279.91,372.32,283.78,368.51,287.58,364.47Z" transform="translate(-0.48 -0.48)"/><path class="cls-1" d="M399,580.47c-4.31-.31-8.62-.53-12.91-1a154.09,154.09,0,0,0-20.61-.49,90.38,90.38,0,0,1-20.31-1.13,24.53,24.53,0,0,1-8.24-3.15,16.17,16.17,0,0,1-5.15-4.93c-.22-.34-.45-.67-.64-1-3.87-7.42-10.13-12.17-17.44-15.83-3-1.5-5.84-3.28-8.72-5-1.93-1.14-3.75-2.46-5.7-3.55-4.63-2.56-5.54-7.55-3.27-11.74.72-1.34,1.38-2.71,2.15-4,1.58-2.68,1.19-5.17-.59-7.59a11.92,11.92,0,0,1-2.28-7,10.59,10.59,0,0,1,2.27-7.15c1.56-1.92,3.22-3.76,4.79-5.68a42.9,42.9,0,0,0,3.17-4.21,6.9,6.9,0,0,0,.41-7.49,23.59,23.59,0,0,0-1.76-3.39c-2.54-3.17-.49-7.7,4.41-8.15a30.88,30.88,0,0,1,9.78.5,43,43,0,0,1,17.87,8.35,12.26,12.26,0,0,1,4.79,9c.2,3.19.47,6.38.86,9.55a22.16,22.16,0,0,0,1.27,6.06c2.2,5,4.27,6.72,9.61,5.63a75.18,75.18,0,0,0,8.29-2.36,12.44,12.44,0,0,0,3.16-1.67,49.11,49.11,0,0,0,11.65-11.32c1.66-2.34,3.35-4.67,5.09-7a6.1,6.1,0,0,1,3.58-2.63c3.18-.68,5.81,2.37,5.11,4.9a10.38,10.38,0,0,0,.17,6.14c.86,2.55,2.18,3.48,4.87,3.3a8,8,0,0,0,5.74-2.6,78.88,78.88,0,0,0,13-20.06,21.8,21.8,0,0,1,1.79-3.38,3.23,3.23,0,0,1,3.79-1.34,3.32,3.32,0,0,1,2.26,3.33,6.06,6.06,0,0,1-.06.95c-.59,4.68-1,9.39-1.82,14-1.15,6.51-4.35,12.16-8.22,17.42a85.51,85.51,0,0,1-15.54,15.92,40.36,40.36,0,0,0-9.52,11,17.52,17.52,0,0,0-2.31,6.51,11.59,11.59,0,0,0,2.41,9.48,35.44,35.44,0,0,0,5.34,5.12,44,44,0,0,0,10.79,6.19c2.52,1,5,2.08,7.51,3.12a3.36,3.36,0,0,1,.39,6.18,13.73,13.73,0,0,1-6.86,1.85c-1.44,0-2.88,0-4.32,0Z" transform="translate(-0.48 -0.48)"/><path class="cls-1" d="M131,430.51a36.61,36.61,0,0,1,3.32-16.12,87.77,87.77,0,0,1,12.84-19.89,29.05,29.05,0,0,1,3.6-3.5,8.46,8.46,0,0,1,2.46-1.44A3.39,3.39,0,0,1,158,392a28.86,28.86,0,0,1,.82,4.24,19.54,19.54,0,0,0,10,15.21,50,50,0,0,0,11.39,5c7.66,2.15,15.48-3.6,17.15-9.23a113.89,113.89,0,0,0,2.92-11.1A36.69,36.69,0,0,1,211,376.32c2.85-2.79,5.95-5.34,9-7.9a17,17,0,0,1,3.47-2.1,3.45,3.45,0,0,1,5.22,3.14,38.45,38.45,0,0,1-.37,4.77c-.41,4.29-1.07,8.58-1.19,12.88a25.78,25.78,0,0,0,6,17.53c3.1,3.76,6.41,7.35,9.73,10.92,5.43,5.83,7.93,12.94,8.57,20.64.57,6.82-2.26,12.46-7.56,16.82-4.75,3.92-10.34,6-16.26,7.28a40.39,40.39,0,0,1-14.54.59,25.83,25.83,0,0,0-4.3-.29,12.62,12.62,0,0,0-6.62,1.78c-14.37,9-29.33,9.33-44.75,3a55.61,55.61,0,0,1-15.83-9.8c-3.76-3.33-5.94-7.69-8.1-12.05A28.36,28.36,0,0,1,131,430.51Z" transform="translate(-0.48 -0.48)"/><path class="cls-1" d="M126.93,482.8c-.06-3.81,1-10.24,2.89-16.57.43-1.49,1.1-2.7,2.73-3a4.31,4.31,0,0,1,4.11,1.47c8,9,17.89,15.08,29,19.31A19.64,19.64,0,0,0,171,485.2c11.54.85,22.64-.81,33.1-6,1.36-.68,2.73-1.32,4.1-2,2.89-1.4,4.39-1.17,6.71,1,2.15,2,4.29,4.07,6.47,6.07,5.6,5.15,12.38,7.82,19.77,9a18,18,0,0,0,5.72,0c3.14-.51,6.23-1.36,9.34-2.07a15.44,15.44,0,0,1,1.64-.35,3.3,3.3,0,0,1,3.58,1.85,3.53,3.53,0,0,1-.49,4C251.4,508,239.89,516,225,518.46c-6.46,1.06-12.91,2.24-19.41,3-4.34.5-8.76.34-13.15.51-1.75.06-3.52.1-5.25.33-2.27.31-3.16,1.53-3,3.78a8.19,8.19,0,0,0,1.68,4.92c2.32,2.74,4.47,5.71,7.19,8a46.74,46.74,0,0,1,11.48,14.89c2.07,4,2,8-1,11.65-2.09,2.6-4.9,2.73-7.62,2-5.69-1.56-11.31-3.4-16.91-5.28-9.74-3.25-18.34-8.56-26.41-14.83-11.26-8.74-18.09-20.3-21.67-33.87A126.25,126.25,0,0,1,126.93,482.8Z" transform="translate(-0.48 -0.48)"/><path class="cls-1" d="M389.61,471.74c-2.38,3.16-4.37,6.05-6.6,8.75a80.55,80.55,0,0,1-14.7,14.41,47.43,47.43,0,0,1-11.44,6,8.92,8.92,0,0,1-1.62.4c-3.67.59-5.21-.94-4.81-4.68a81.35,81.35,0,0,0,.13-20.09c-.67-4.76-3.24-8.23-6.46-11.43a33.77,33.77,0,0,1-3.05-3.05c-2-2.51-1.49-5.09,1.3-6.61a165.6,165.6,0,0,0,25.34-17.67,54.86,54.86,0,0,0,12.51-14.42,28.26,28.26,0,0,0,4.08-16.27c-.18-3.5-.27-7-1.47-10.4a6.31,6.31,0,0,1,.3-5.13,2.32,2.32,0,0,0,.29-.9c.09-1.88,1.32-2.73,2.84-3.5a30,30,0,0,1,23.73-2c14.4,4.69,23.61,14.24,26.64,29.27,1.23,6.15.3,12.23-.94,18.32a51.58,51.58,0,0,1-12.87,24.54c-2.41,2.67-4.91,5.27-7.31,7.94a28,28,0,0,0-2.67,3.39c-3.44,5.29-6.83,10.62-10.24,15.93-.61.94-1.22,1.88-1.9,2.77a3.33,3.33,0,0,1-3.61,1.31,3.46,3.46,0,0,1-2.49-2.66c-1.1-3.58-2.22-7.17-3.4-10.73A35.76,35.76,0,0,0,389.61,471.74Z" transform="translate(-0.48 -0.48)"/><path class="cls-1" d="M447.68,526.87c.33.07.5.16.63.12,10.57-3.28,21.17-2.29,31.77-.21,1.88.37,3.74.87,5.63,1.18,4.09.67,4.89,3.58,3.61,7.19A15.48,15.48,0,0,1,487.5,538c-3.3,5.19-6.91,10.2-9.4,15.87-.93,2.1-1.67,4.28-2.49,6.43a12.69,12.69,0,0,0,6.77,2.77,54.31,54.31,0,0,0,16.25-.15,64.3,64.3,0,0,0,25.7-9.39c1.22-.76,2.37-1.64,3.55-2.45a11.21,11.21,0,0,1,1.82-1.13,3.35,3.35,0,0,1,4,.74,3.15,3.15,0,0,1,.38,4,30.89,30.89,0,0,1-3.72,5,83.87,83.87,0,0,1-24.87,17.72c-8.25,3.87-17.08,5.74-26.1,6.78a201.72,201.72,0,0,1-28,1.11,43.61,43.61,0,0,1-13.88-2.42c-7.32-2.64-11.83-7.89-13.64-15.46-.2-.85-.38-1.71-.63-2.85-.76,0-1.54,0-2.31,0-7,.19-13.3-2.36-19.41-5.45a7.49,7.49,0,0,1-1.39-.93c-6.92-5.71-6.52-9.22-4-15.25a25.93,25.93,0,0,1,6.7-9,109.86,109.86,0,0,1,15.87-11.56c4.94-3.12,8.62-7.45,10.12-13.18a69.09,69.09,0,0,0,2.52-19.42c-.09-3,2.59-4.61,5.26-3.17a10.84,10.84,0,0,1,4.07,4,37.55,37.55,0,0,1,5.76,16.86c.45,5.81.75,11.64,1.12,17.46C447.55,525.56,447.62,526.25,447.68,526.87Z" transform="translate(-0.48 -0.48)"/><path class="cls-1" d="M548.44,502.88c-.54-1.23-1.06-2.29-1.49-3.39-4.15-10.66-7-21.6-6.38-33.17.2-3.65.79-7.29,1.32-10.92a10.64,10.64,0,0,1,1.12-3.14c1.42-2.8,4.58-3,6.34-.37a11.9,11.9,0,0,1,1.18,2.84c.72,2.12,1.25,4.3,2.09,6.36a26.44,26.44,0,0,0,10.52,12.14c2.55,1.65,5.21,3.12,7.79,4.73,3.72,2.32,7.53,4.53,11.09,7.09a26.94,26.94,0,0,1,8.18,9.9,45.94,45.94,0,0,1,4.7,14c.71,4.74,1.75,9.43,2.36,14.18A57.45,57.45,0,0,1,597,542a26.1,26.1,0,0,1-7.28,13.78c-3.27,3.2-7.35,4.4-11.74,4.8a23.59,23.59,0,0,1-18.79-6.13c-1.36-1.23-2.63-2.56-3.93-3.85-.29-.28-.55-.58-.82-.88a27.11,27.11,0,0,0-17.1-9.25,27.88,27.88,0,0,0-13.92,1.16c-6.58,2.45-13.2,4.83-19.81,7.23-1.12.41-2.25.82-3.39,1.17a3.54,3.54,0,0,1-4-.89,3.36,3.36,0,0,1-.56-3.8,62.24,62.24,0,0,1,2.94-6.55c6.29-10.9,14.33-20.21,25.25-26.72a73.09,73.09,0,0,1,21.78-8.54C546.52,503.37,547.36,503.14,548.44,502.88Z" transform="translate(-0.48 -0.48)"/><path class="cls-1" d="M421.12,283.91a46.55,46.55,0,0,1,22.8,4.19,87.87,87.87,0,0,1,32.9,26.52c2.42,3.13,4.16,6.79,6.1,10.28a4.57,4.57,0,0,1-.78,5.37c-5.42,6.21-11.5,11.56-19.63,14-3.29,1-6.57,2-9.91,2.75-4,.86-8.11-.07-12.17-.19-6.94-.21-13.83-1.63-20.8-1.07a75.29,75.29,0,0,0-9.74,1.17,40.16,40.16,0,0,0-16.76,8.45c-5.21,4.2-9.2,9.53-13.07,14.92-.23.33-.43.68-.65,1A3.5,3.5,0,0,1,376,373a3.28,3.28,0,0,1-2.93-2.47,17.49,17.49,0,0,1-1-4.16,73.59,73.59,0,0,1-.26-11c.89-10.06,5.21-18.66,11.82-26.2a85.41,85.41,0,0,1,18-15,8,8,0,0,0,2.42-2.54,2.43,2.43,0,0,0-.57-3.21c-2.59-2.55-5.46-4.45-9.14-4.83a55.67,55.67,0,0,0-6.43-.5c-1.65,0-3.07-.14-3.89-1.69a3.93,3.93,0,0,1,.62-4.69,19.41,19.41,0,0,1,3.82-3.23A63,63,0,0,1,402,287,58.37,58.37,0,0,1,421.12,283.91Z" transform="translate(-0.48 -0.48)"/><path class="cls-1" d="M482.61,386.45c-.87,7.76,1,14.05,7,18.77,3.09,2.44,6.8,3.46,10.57,4.25a5.85,5.85,0,0,0,.72.07,3.57,3.57,0,0,1,3.51,2.42,3.88,3.88,0,0,1-1.69,4.41c-3,1.86-5.9,4-9.14,5.19-14,5.28-26.87,2.71-38.52-6.35a21.82,21.82,0,0,1-4.66-5.41,164.92,164.92,0,0,0-9.82-14.47C437,391,433.49,386.6,429,383.24c-3.59-2.68-7.74-4.44-11.89-6.15-5.6-2.32-11.31-3.35-17.33-2.13a3.33,3.33,0,0,1-3.91-1.61,3.78,3.78,0,0,1,.78-4.61,24.66,24.66,0,0,1,2.95-2.44c9.23-6.74,19.69-10,31-11.22a67.94,67.94,0,0,1,17.9.84,38.62,38.62,0,0,0,15.48-.17,33.8,33.8,0,0,0,14.25-7.1A49.79,49.79,0,0,0,492.11,330c.31-.74.67-1.46,1-2.17,1-1.88,2.32-2.65,4-2.28,2.34.51,4.12,2.38,4,4.43a36.44,36.44,0,0,1-.67,4.25c-1.44,8-1.33,15.93,1.34,23.68a49.45,49.45,0,0,0,8.47,14.67,18.11,18.11,0,0,0,7,4.87c3.16,1.41,4.05,3.77,1.93,6.42a20.37,20.37,0,0,1-8.37,6.65c-7.68,2.94-15.31,2.78-22.71-1.09C486.4,388.52,484.67,387.56,482.61,386.45Z" transform="translate(-0.48 -0.48)"/><path class="cls-1" d="M654.48,458.44c-.12,9.71-2.78,18.8-6.68,27.55a155.92,155.92,0,0,1-12.56,22.6c-3.48,5.27-6.85,10.61-10.31,15.89-1,1.54-2.22,2.94-3.2,4.49-2.46,3.85-6.33,4.93-10.48,5.24-3.24.24-5.14-2.16-4.17-5.29,3-9.51,1.48-18.85-1.1-28.09a33.84,33.84,0,0,0-8.56-14.5,27,27,0,0,0-8.66-6.24,32.36,32.36,0,0,1-14.3-12c-4.3-6.45-7.74-13.23-9.19-20.91-.07-.4-.21-.78-.27-1.17-.78-4.71-.13-6.31,4.36-8,9.26-3.39,16-10.07,22.81-16.73a57.32,57.32,0,0,0,9.59-12.2c.59-1,1.2-2.07,1.75-3.13,1.24-2.34,3.15-3.15,5.34-1.81a22.79,22.79,0,0,0,9.78,2.91,4.54,4.54,0,0,1,3.12,7.09c-4.55,6.95-9.11,13.91-13.59,20.9-1.51,2.36-2.72,4.9-4.21,7.26a2.51,2.51,0,0,0,.36,3.45,13.61,13.61,0,0,0,3.73,2.94c5.69,2.54,11.4,5,17.65,6a25.12,25.12,0,0,0,8.82-.31c4.64-.95,9.21-2.3,13.16-4.95,2.69-1.81,6.85.55,6.81,3.73C654.46,454.93,654.48,456.68,654.48,458.44Z" transform="translate(-0.48 -0.48)"/><path class="cls-1" d="M649.15,285.33a10.39,10.39,0,0,0,2.26-4.52,101.43,101.43,0,0,1,6.81-17.12A55.81,55.81,0,0,1,668.82,249a17.05,17.05,0,0,1,2-1.7,3.16,3.16,0,0,1,3.62-.05,3,3,0,0,1,1.56,3.25c-1.43,7.68.5,14.9,2.93,22,1.54,4.54,3.22,9,4.84,13.54a50.23,50.23,0,0,1,2.4,11A79.59,79.59,0,0,1,686,320.9a44.75,44.75,0,0,1-5.46,14.76,75.17,75.17,0,0,1-7.09,10.23,44.08,44.08,0,0,1-7.25,6.58c-2.88,2.2-6.11,1.12-7.61-2.26-.84-1.9-1.62-3.83-2.43-5.74-.34-.79-.71-1.56-1.25-2.77-.58,1-1,1.52-1.26,2.13-4.67,10-11.6,18.33-19,26.32a12.15,12.15,0,0,1-3,2.29c-2.19,1.22-3.94.52-5.11-1.74a43.63,43.63,0,0,1-4.37-13.88c-1.11-7.67-1.84-15.39-3.06-23a82.33,82.33,0,0,1-.73-15c0-2,.23-4,.3-6a5,5,0,0,1,1.49-3.4,114.89,114.89,0,0,0,17.73-25.23c.74-1.41,1.36-2.89,2-4.37a4.34,4.34,0,0,1,3.63-2.75c1.88-.29,3.27.82,3.72,2.89A13.74,13.74,0,0,0,649.15,285.33Z" transform="translate(-0.48 -0.48)"/><path class="cls-1" d="M284.17,586.06c-7.82-.44-15.64-.8-23.46-1.35a99.62,99.62,0,0,1-19-3.67,106.71,106.71,0,0,1-12.12-3.7,28.65,28.65,0,0,1-7.43-4.73,13.39,13.39,0,0,1-4.88-10.1c-.2-8.44-4.62-14.77-9.73-20.83-.77-.91-1.69-1.7-2.54-2.54-1.48-1.47-1.81-2.86-1.07-4.54a3.46,3.46,0,0,1,4.07-2.22,49,49,0,0,0,14.8-.48,26.09,26.09,0,0,0,5.5-1.6c10.14-4.22,19.11-10.35,27.53-17.3,3.13-2.58,5.79-5.73,8.74-8.55a47,47,0,0,1,22.13-12.34c2.38-.55,3.77-.29,4.72,1.15a4.76,4.76,0,0,1-.52,5.18,29.48,29.48,0,0,1-3.17,3.25c-1.59,1.46-3.27,2.82-4.92,4.22a31.11,31.11,0,0,0-7.72,10c-1.92,3.85-2,7.59,1,11.17a42,42,0,0,1,4,6.24,12.08,12.08,0,0,1,1.33,7.67c-.37,3-.64,6-1.25,9a24.53,24.53,0,0,1-2,4.87c-.63,1.43-.64,2.29.63,3.09a8.34,8.34,0,0,0,3.73,1.37c6.1.3,12,1.6,18,2.72a21.4,21.4,0,0,1,11.47,6.07c3.24,3.27,4.6,9.7-.93,13.55-3.76,2.61-8,3.56-12.42,3.86-1.83.12-3.67.17-5.51.19-3,0-5.92,0-8.88,0Z" transform="translate(-0.48 -0.48)"/><path class="cls-1" d="M241.93,70.7a68.54,68.54,0,0,1,34.62,9.56c4.94,2.85,8.21,7.17,10.93,12.11,4.69,8.51,4.81,17.52,3.7,26.81-1.19,9.89-5.31,18.51-10.87,26.56-1.86,2.69-3.85,5.3-5.9,7.86a40.67,40.67,0,0,1-14.13,11.26,11.66,11.66,0,0,1-3.63,1.11c-2.75.31-5.25-.25-7-2.74-.73-1-1.59-2-2.38-3a41.21,41.21,0,0,0-18.57-13.85l-.89-.34c-2.74-1.07-3.85-3.15-3.44-6,1.48-10.62,7.54-18.06,16.28-23.68a16.14,16.14,0,0,0,7-9.07c2.07-6.89-.72-12.19-5.83-16.51-4.52-3.82-10-5.61-15.71-6.66-2.36-.43-4.74-.68-7.12-.94-2-.23-3.22-1-3.57-2.61a3.67,3.67,0,0,1,2.1-4.17c2.22-1.09,4.5-2.08,6.8-3C230.09,71.2,236.08,70.83,241.93,70.7Z" transform="translate(-0.48 -0.48)"/><path class="cls-1" d="M343.35,175.61c-.58.86-1,1.51-1.46,2.16-7.69,11-18,18.33-31.15,21.13-3.78.8-7.76.75-11.66.86a3.07,3.07,0,0,1-3.28-2.59,3.59,3.59,0,0,1,2-4,42.66,42.66,0,0,0,14.33-12.84c4.68-6.3,7-13.56,8-21.29.2-1.5.28-3,.39-4.53.41-5.57-1.52-10.35-5-14.58-2.28-2.77-4.71-5.42-6.93-8.24a4.85,4.85,0,0,1-1.13-3c.55-6.24-.72-12.26-1.81-18.31-1.15-6.42-3.56-12.43-6.2-18.35a4.71,4.71,0,0,1-.54-3.44,3.79,3.79,0,0,1,5-2.52A27.73,27.73,0,0,1,309.06,88c5.14,2.58,10.27,5.19,15.3,8,8.61,4.73,14.92,11.91,20.69,19.67a101.21,101.21,0,0,1,12.61,22c3.41,8.33,6.93,16.68,8.33,25.69a41.15,41.15,0,0,1-2.5,22.58c-1,2.36-1.91,4.74-2.9,7.09a20.57,20.57,0,0,1-1.29,2.57,3.43,3.43,0,0,1-3.67,1.72,3.51,3.51,0,0,1-3-3A59.91,59.91,0,0,0,344.47,177C344.21,176.63,343.88,176.27,343.35,175.61Z" transform="translate(-0.48 -0.48)"/><path class="cls-1" d="M324.65,455.64a43,43,0,0,1,8.52,10.24,6.61,6.61,0,0,1,1,2.38,3.37,3.37,0,0,1-3.8,4,8.91,8.91,0,0,1-2.1-.43,63.74,63.74,0,0,0-24.38-2.8c-2.13.19-4.24.69-6.36,1.09a3,3,0,0,0-2.71,3.32c0,2.4-.09,4.8-.14,7.19,0,.64,0,1.29,0,1.92a3.22,3.22,0,0,1-3.82,3,14.41,14.41,0,0,1-4.95-1.66c-4.35-2.78-9.14-3.64-14.15-3.92-5.58-.31-10.94.79-16.32,2.12a45.59,45.59,0,0,1-13,1.58,36.81,36.81,0,0,1-5.9-.86,9.87,9.87,0,0,1-3.06-1.31c-3.07-1.93-3.48-4-1.4-7a18.88,18.88,0,0,0,2.84-5.76,5.47,5.47,0,0,1,4.47-4.11,41.5,41.5,0,0,0,17.22-8.61c4.78-3.93,6.43-9.41,6.28-15.44-.07-2.7-.44-5.41-.76-8.1-.25-2.11.18-3.36,1.62-4.14a3.89,3.89,0,0,1,4.76,1A22.89,22.89,0,0,0,276,434a65,65,0,0,0,33.81,4.52,51.58,51.58,0,0,0,25.76-10.22c6.47-5,12.53-10.47,16.43-17.85,1.42-2.67,2.57-5.49,3.82-8.24.4-.88.67-1.81,1.1-2.66,1.52-2.94,4.72-3.25,6.41-.37a21.83,21.83,0,0,1,2.73,7.09c2,11.94-1.44,22.27-9.79,31a53.52,53.52,0,0,1-14.44,10.19c-4.82,2.49-9.77,4.75-14.66,7.1Z" transform="translate(-0.48 -0.48)"/><path class="cls-1" d="M514.51,333.85a10.23,10.23,0,0,1,1.87.71A69.49,69.49,0,0,0,537,342.24c9,1.91,18.14,2.93,27.32.78a33.84,33.84,0,0,0,8.45-3.31,78.11,78.11,0,0,0,14.49-10.6c3.76-3.35,7.53-6.71,11.1-10.26a79.76,79.76,0,0,0,5.46-6.65,15.12,15.12,0,0,1,1-1.35,3.25,3.25,0,0,1,5.34,1.12,5.65,5.65,0,0,1,.19,2.8c-1.42,8-3,16-4.34,24a31.67,31.67,0,0,0-.14,6.68,41.94,41.94,0,0,0,2.58,13.1c2.5,6.7,3.43,13.66,1.65,20.72a23.88,23.88,0,0,1-11,15.11,4.37,4.37,0,0,1-5.14,0l-5.4-3.57c-4.61-3.08-9.91-4.26-15.12-5.81a52.15,52.15,0,0,0-15.61-1.85c-7.74.09-14.39-2.74-20.48-7.09a64,64,0,0,1-18.6-19.77c-1.61-2.76-3.27-5.49-4.83-8.28-1.74-3.12-2.36-6.62-3.05-10.06C510.41,335.79,512,333.93,514.51,333.85Z" transform="translate(-0.48 -0.48)"/><path class="cls-1" d="M533,456.2c-1.36,6-2.54,12-4.13,18-3,11.35-8,21.74-15.95,30.54-5.15,5.74-10.8,10.88-17.7,14.55a7.46,7.46,0,0,1-6,.65c-2.83-.85-5.62-1.83-8.43-2.74-10.79-3.49-18.67-10.86-25.73-19.31-1.84-2.21-3.57-4.52-5.2-6.89-5.8-8.39-7.76-17.92-8.21-27.9a52.31,52.31,0,0,1,3.6-22.55c1-2.51,1.81-5.13,2.8-7.66.86-2.24,2.13-3,4.21-2.63,2.58.42,3.53,1.41,3.74,3.86.34,3.93,2.22,7.31,3.9,10.75,4.6,9.35,12,16.07,20.58,21.64,3.68,2.4,8,3,12.38,3.32.72.05,1.44,0,2.16,0a8,8,0,0,0,5.9-2.08c7.16-6,15.25-10.52,23.63-14.54a7.56,7.56,0,0,1,4.84-1.06A4.13,4.13,0,0,1,533,456.2Z" transform="translate(-0.48 -0.48)"/><path class="cls-1" d="M268.4,241.43c-.07-1.11-.09-2.13-.19-3.15a71.48,71.48,0,0,1,.52-15.54,6,6,0,0,1,.12-1,3.48,3.48,0,0,1,2.92-2.8,3.52,3.52,0,0,1,3.53,2,7.27,7.27,0,0,1,.68,1.78c.95,4.58,3.34,8.44,5.94,12.2a87,87,0,0,1,8.55,15.5,48.62,48.62,0,0,1,3.59,17,12,12,0,0,1-4.36,10c-1.6,1.33-3.18,2.68-4.77,4a37,37,0,0,0-8,9.45,59,59,0,0,0-8.14,25.83,49.34,49.34,0,0,0,.48,13.13,24,24,0,0,0,.92,3.21c.63,1.82.46,3.19-.68,4.17s-2.56.9-4,.42c-13.87-4.51-23.83-13.9-32.08-25.5-1.89-2.66-4-5.15-6-7.76a15.49,15.49,0,0,1-1.77-2.84c-1.45-3.17-.43-5.47,2.87-6.5a44.37,44.37,0,0,0,11.77-5.81c3.58-2.43,5.8-5.9,7.75-9.59.78-1.46.4-3,0-4.44-1-3.38-2.17-6.71-2.81-10.15-1.38-7.39-1.39-14.79,1-22,1-2.88,2-5.73,3.06-8.57.6-1.59,1.6-2.81,3.52-2.74a4.07,4.07,0,0,1,3.81,2.79,5.75,5.75,0,0,0,1.29,2,20.18,20.18,0,0,0,9.45,4.93A5,5,0,0,0,268.4,241.43Z" transform="translate(-0.48 -0.48)"/><path class="cls-1" d="M314,243.16c-2.22,2.51-4.25,4.85-6.34,7.16a15.21,15.21,0,0,1-2.27,2.12,3.57,3.57,0,0,1-5.77-2.49,33.43,33.43,0,0,0-6.13-15.38c-2.33-3.34-4.41-6.85-6.5-10.35-2.45-4.1-2.79-8.61-2.3-13.23a3.26,3.26,0,0,1,2.69-3,22.21,22.21,0,0,1,11.13-.31c2.94.78,6,1.22,8.83,2.21a17.27,17.27,0,0,0,11.05-.08,32.26,32.26,0,0,0,12.95-7,32.26,32.26,0,0,1,4.85-3.49c3.5-2.2,6.85-1.5,10,.78a33.33,33.33,0,0,1,9.62,11.19,43.43,43.43,0,0,1,5.59,22.06c-.18,11.16-1.49,22.17-5,32.81a45.18,45.18,0,0,1-5.91,12c-1.11,1.57-2,3.29-3.22,4.77a27.52,27.52,0,0,1-4.33,4.43c-2.62,2-5.87.67-6.52-2.6a16.4,16.4,0,0,1-.35-3.34c.08-11.48-4.25-21.16-12-29.43A54,54,0,0,0,314,243.16Z" transform="translate(-0.48 -0.48)"/><path class="cls-1" d="M262.61,365.27a37.27,37.27,0,0,1-16.77-4.4,104.74,104.74,0,0,1-13.52-8.18,3.84,3.84,0,0,0-4.24-.38c-6.61,3-13.33,5.82-19.51,9.7-5.06,3.18-9.64,6.9-12.93,12-2.7,4.15-5.33,8.35-7.8,12.64a34.44,34.44,0,0,0-4.06,13.69c-.08.71-.16,1.43-.27,2.14-.38,2.53-1.73,3.57-4.3,3.34a7,7,0,0,1-5.42-3.11A24.79,24.79,0,0,1,169.33,390,49.8,49.8,0,0,1,177,360c3.13-5,5.72-10.34,8.55-15.53.42-.77.76-1.59,1.21-2.34,4.74-7.73,7.32-16.3,9.53-25a33.53,33.53,0,0,0,1.22-12.81c-.27-2,1-3.5,3.1-3.86a5.85,5.85,0,0,1,1.91-.09c3.61.64,7.28,1.12,10.81,2.1a11.49,11.49,0,0,1,6.87,5.2c2.42,3.92,3.79,8.26,5.71,12.37,2.76,5.9,5.59,11.72,11.58,15.14,3.81,2.18,7.48,4.67,11.45,6.52a136.32,136.32,0,0,1,18.54,10.49,36.39,36.39,0,0,1,4.29,3.45,9.84,9.84,0,0,1,2,2.66c1.49,2.94.59,4.87-2.62,5.77a18,18,0,0,1-2.81.6C266.44,365,264.52,365.1,262.61,365.27Z" transform="translate(-0.48 -0.48)"/><path class="cls-1" d="M513.3,398.1c3.66-.22,7.36-.18,11-.74a11.56,11.56,0,0,0,9.55-7.73c.51-1.34,1.14-2.62,2.68-2.74a4,4,0,0,1,2.86.71c3.16,3.19,7.22,4,11.35,4.53,4.83.62,9.71.93,14.55,1.46a64.22,64.22,0,0,1,14.46,3.29,36.74,36.74,0,0,1,11.08,6.56,3.7,3.7,0,0,1,1.22,4.29,12.41,12.41,0,0,1-3.19,5c-8.85,9.36-19.86,14.59-32.4,16.83-2.43.44-4.92.54-7.36.95a4.65,4.65,0,0,0-2.21,1.19c-10.34,9.4-22.66,14.88-36.13,17.85a53.37,53.37,0,0,1-19.56.71c-4.66-.71-9.05-2.22-12.12-6.11a7.68,7.68,0,0,1-1.53-3.39,2.87,2.87,0,0,1,3-3.48c4.4.29,8.09-1.59,11.79-3.47,2.35-1.19,4.62-2.54,6.89-3.88a40.54,40.54,0,0,0,14.55-15c3.22-5.58,2-6.15-2.75-8.19a42.48,42.48,0,0,0-5.74-1.65l-.7-.16c-2.2-.54-3.37-1.77-3.32-3.48a3.87,3.87,0,0,1,3.87-3.56c2.71-.14,5.44,0,8.15,0Z" transform="translate(-0.48 -0.48)"/><path class="cls-1" d="M326.55,296.68c2.7-.41,5.05-.86,7.41-1.11a41.15,41.15,0,0,1,6-.27c3.26.13,6.51.53,9.76.7a26.59,26.59,0,0,0,12.82-2.42c1.89-.87,3.69-1.92,5.53-2.87a7.45,7.45,0,0,1,1.52-.7,3.3,3.3,0,0,1,3.49,1,3.13,3.13,0,0,1,.63,3.35,8.08,8.08,0,0,1-1.45,2.47,46.21,46.21,0,0,1-9.15,8.4c-2.35,1.51-4.7,3-7.1,4.46a14.14,14.14,0,0,1-3.06,1.34,161.77,161.77,0,0,0-17.31,6.79,43.3,43.3,0,0,0-10.54,6.55c-8.63,7.28-18.66,11.95-29.48,14.95a13,13,0,0,1-9.14-.35,5.55,5.55,0,0,1-3.36-3.78,67.83,67.83,0,0,1-2.71-15.3c-.19-6.1-.08-12.12,1.73-18a40.07,40.07,0,0,1,14.69-21,46.71,46.71,0,0,0,11-12.25c1.51-2.35,2.5-5,1.81-8a3.39,3.39,0,0,1,2.3-4c1.54-.6,2.88-.13,4.21,1.37a38.6,38.6,0,0,1,9.75,23c.36,4.14.46,8.3.66,12.44C326.58,294.37,326.55,295.32,326.55,296.68Z" transform="translate(-0.48 -0.48)"/><path class="cls-1" d="M636.11,401.36c-2.79.35-5.37.85-8,1a21.43,21.43,0,0,1-11.66-3.13,9.91,9.91,0,0,1-2.24-1.79,4.09,4.09,0,0,1,.48-5.94,11.78,11.78,0,0,1,2.06-1.2c5-2.39,10-4.68,14.89-7.18a27.83,27.83,0,0,0,5.09-3.58c5.73-4.75,11.25-9.72,15.75-15.7,1.34-1.79,3.43-1.82,5.45-1.26a3.79,3.79,0,0,1,3.11,3.77c0,.95.24,1.89.41,3.19.86-.51,1.55-.83,2.15-1.28a58.45,58.45,0,0,0,15.53-16.8c.32-.55.6-1.14,1-1.66a3.42,3.42,0,0,1,4.24-1.24,3.54,3.54,0,0,1,2.2,4.07,21.62,21.62,0,0,1-1.31,3.34c-2.41,5.31-5.24,10.42-7,16a69,69,0,0,0-3,26c.65,8.51-1.87,16.11-6.41,23.14-4.92,7.61-10.9,14.24-18.93,18.68a28.32,28.32,0,0,1-10.44,3.27,35,35,0,0,1-9.8,0,11.08,11.08,0,0,1-9-7.29,5.79,5.79,0,0,1,1.25-6.23,36.25,36.25,0,0,1,3.24-3.2,33.71,33.71,0,0,0,11.2-22.89,9.75,9.75,0,0,0,0-1.43A3.8,3.8,0,0,0,636.11,401.36Z" transform="translate(-0.48 -0.48)"/><path class="cls-1" d="M217,290c-4.75-.21-9.16-.74-12.88-3a57.17,57.17,0,0,1-12-9.1c-3.89-4-7.78-8.05-11.9-11.82a87,87,0,0,0-8.1-6c-1-.7-2-1.28-2.95-2a3.42,3.42,0,0,1-1-3.92,3.31,3.31,0,0,1,3.47-2.05c6,.63,10.88-2,15.47-5.32a5.54,5.54,0,0,0,1.59-2.3,37.44,37.44,0,0,0,2.41-11.94c.13-2.07.33-4.14.49-6.21a3.72,3.72,0,0,1,3.55-3.8c2.78-.19,5.55-.89,8.32-.88,6.63,0,13.28.16,19.89.64,3.77.27,7.63.47,11.21,2.22a9.22,9.22,0,0,1,5.42,7.37,15.16,15.16,0,0,1-1.78,9.72c-2,3.73-3.92,7.51-5.85,11.28A17.18,17.18,0,0,0,231,263.17c.46,3.46,2.74,5.86,5.55,7.76s3.13,3.15,1.65,6.23a19.76,19.76,0,0,1-6.55,7.21,27.37,27.37,0,0,1-11.72,5.24C218.8,289.79,217.68,289.87,217,290Z" transform="translate(-0.48 -0.48)"/><path class="cls-1" d="M62.74,205.39a4.74,4.74,0,0,0,.56.67c5.92,5.17,9,11.87,10.6,19.41.55,2.66,1.08,5.34,1.41,8,.41,3.37,2.38,5.48,5.19,7A36.26,36.26,0,0,0,84.27,242c.52.21,1.07.35,1.57.6a3.33,3.33,0,0,1,2,3.48,3.1,3.1,0,0,1-2.77,2.9,42.39,42.39,0,0,1-8.33.42,68.37,68.37,0,0,1-20.32-5.31,49.1,49.1,0,0,1-15.17-9.45c-1-1-2.19-1.86-3.29-2.79a28.09,28.09,0,0,1-8.73-13.21c-3.44-10.56-2.56-20.94.84-31.31,1.76-5.37,4.55-10.2,7.42-15a3.35,3.35,0,0,1,6.13.25c2,4.21,5.5,6.28,9.72,7.47,10.27,2.88,20.1,1.24,29.67-3a9.39,9.39,0,0,1,1.33-.52c2.7-.66,5,1.43,4.23,4.08a30.54,30.54,0,0,1-5.37,10.62c-5.16,6.45-11.85,10.62-19.5,13.42a5.22,5.22,0,0,0-.85.43S62.81,205.23,62.74,205.39Z" transform="translate(-0.48 -0.48)"/><path class="cls-1" d="M306.26,156.43c-.66,8.26-2.42,18-8.71,26.37a60.69,60.69,0,0,1-6.45,7.07A96.44,96.44,0,0,1,277,200.64a42.27,42.27,0,0,0-13.47,13.44c-1.15,1.91-2,4-3,6a26.29,26.29,0,0,1-2,3.8c-1.59,2.16-3.19,2.51-5.36,1-5.22-3.63-11.08-6-16.62-9a30.9,30.9,0,0,0-11.38-3.54c-2.23-.25-4.47-.38-6.7-.47a4.28,4.28,0,0,1-3.15-1.49,3.47,3.47,0,0,1-.81-4,3.13,3.13,0,0,1,3.53-1.88c4.41.65,8.63-.23,12.75-1.5a32.62,32.62,0,0,0,20.41-17.69,16.55,16.55,0,0,0,1.26-4.83c.41-2.77,1.3-3.81,4.1-4a34.24,34.24,0,0,0,11-3.21,53.83,53.83,0,0,0,18.71-13.93c3.46-3.93,5.32-8.69,6.87-13.6.6-1.9,1-3.87,1.53-5.79s1.16-3.75,3.48-4.1,3.64,1.24,4.8,2.93a4.83,4.83,0,0,1,.61,1.3A49.61,49.61,0,0,1,306.26,156.43Z" transform="translate(-0.48 -0.48)"/><path class="cls-1" d="M120,207.74a10.84,10.84,0,0,0,1.08,1.17,40.92,40.92,0,0,1,8,9.21,22.5,22.5,0,0,1,4.26,13c0,4.12-2.29,7.21-5.68,9.46a17.25,17.25,0,0,1-10.3,2.56c-4-.1-8-.29-11.94-.73-12.65-1.42-21.6-7.84-25.89-20-1.26-3.58-1.77-7.43-2.57-11.17a9.09,9.09,0,0,1,0-2.15,3.73,3.73,0,0,1,2.7-3.56,18.24,18.24,0,0,0,3.79-1.92A33,33,0,0,0,94,190.82c.81-1.64,1.62-3.29,2.49-4.91,3.54-6.61,9-10.44,16.52-11.11a17.32,17.32,0,0,1,9,1.8,7.72,7.72,0,0,1,3.79,4.14,15.72,15.72,0,0,1,.62,10.33A67.7,67.7,0,0,1,120,207.74Z" transform="translate(-0.48 -0.48)"/><path class="cls-1" d="M181.35,201.18a20.08,20.08,0,0,1-9.26-3.83,71.82,71.82,0,0,1-15.53-15.89c-3.18-4.52-6.37-9-8.59-14.11-1.95-4.51-2.93-9.28-4-14a8.08,8.08,0,0,1,1.21-5.75,3.38,3.38,0,0,1,4.6-1.38c3.89,2,8,2,12.19,1.94,2.71,0,5.43-.27,8.13-.53,5.15-.48,9.66-2.71,14-5.27,8.19-4.79,15.81-10.34,21.89-17.71,2.23-2.71,4.19-5.65,6.14-8.57a6.19,6.19,0,0,1,5.15-3c2.86-.18,4.86,2,3.69,4.53-1.83,4-1.93,8.2-2.22,12.42-.17,2.46-.56,4.92-.93,7.36-.72,4.81-3.73,7.71-8,9.67s-8.19,3.95-12.21,6.08c-5.37,2.83-8.55,7.6-10.84,13A35.43,35.43,0,0,0,185,188.91c.59,2.41,1.16,4.82,1.66,7.25C187.36,199.52,185.68,201.42,181.35,201.18Z" transform="translate(-0.48 -0.48)"/><path class="cls-1" d="M199.65,87.55c10.23.35,20.17,2.06,29.4,6.76a19.14,19.14,0,0,1,4.48,3.12c2.34,2.21,1.4,5.19-1.75,5.93a7,7,0,0,1-2.37.12A30.45,30.45,0,0,0,215,105.16a27.78,27.78,0,0,0-10.73,7.38c-8.2,8.75-17.23,16.46-28.13,21.67a77.57,77.57,0,0,1-17,5.71,21.78,21.78,0,0,1-5.71.24c-2.58-.14-4.4-1.75-5.95-3.64a3.23,3.23,0,0,1-.36-3.41c1.12-2.73,2.12-5.52,3.4-8.17a76.64,76.64,0,0,1,25.8-30.61A38.21,38.21,0,0,1,199.65,87.55Z" transform="translate(-0.48 -0.48)"/><path class="cls-1" d="M167.61,244.44a31,31,0,0,1-12.85-4c-2.53-1.34-4.86-3.06-7.31-4.56a5.83,5.83,0,0,1-2.69-3.52c-2.41-8.75-7.28-16.3-11.76-24a4.88,4.88,0,0,1-.28-4.91,29.78,29.78,0,0,0,1-20.65,42.42,42.42,0,0,0-4.61-10.51,7.11,7.11,0,0,1-1-3.12,15.89,15.89,0,0,1,2-8.53,3.45,3.45,0,0,1,3.66-2.18c1.72.19,2.58,1.3,3.1,2.9a142.74,142.74,0,0,0,10.06,22.77c1.79,3.39,3.82,6.66,5.91,9.87a17.79,17.79,0,0,0,3.49,3.91,50,50,0,0,0,26,11.31c2.18.3,3.4,1.61,4.47,3.23.68,1,.33,2.16-.12,3.22-1,2.42-2.13,4.83-3.09,7.28a33.88,33.88,0,0,0-2.68,12.83,4.88,4.88,0,0,1-1.19,3.3C176.74,242.7,172.87,244.42,167.61,244.44Z" transform="translate(-0.48 -0.48)"/><path class="cls-1" d="M101.1,274.71a51.2,51.2,0,0,1-22-4.1c-3.52-1.5-6.68-3.45-8.65-6.88a6.75,6.75,0,0,1-.75-1.75c-.56-2.38,1.12-4.55,3.53-4.16,4.72.78,9.22-.33,13.78-1.09a32.54,32.54,0,0,0,13-5.35,6.37,6.37,0,0,1,6.55-.71c6.05,2.58,12.06,1.76,18-.24a32,32,0,0,0,5.12-2.59,11,11,0,0,1,5-1.15c3-.14,6-.74,9-1.17.39-.06.76-.26,1.15-.32a3.43,3.43,0,0,1,3.57,1.43,3.33,3.33,0,0,1,.19,3.84,35.06,35.06,0,0,1-8.13,10,82.67,82.67,0,0,1-12.76,8.48C119.46,273.26,110.71,275,101.1,274.71Z" transform="translate(-0.48 -0.48)"/><path class="cls-1" d="M197.09,175.91A19.78,19.78,0,1,1,217,195.59,19.7,19.7,0,0,1,197.09,175.91Z" transform="translate(-0.48 -0.48)"/></svg>