<svg id="Layer_1" data-name="Layer 1" xmlns="http://www.w3.org/2000/svg" viewBox="0 0 720 612"><defs><style>.cls-1{fill:none;stroke:#000;stroke-miterlimit:10;stroke-width:0.01px;}</style></defs><path d="M.48,612.48V.48h720v612ZM447.53,392.55c.61,5.46,3.28,6.63,7.56,4,3.85-2.41,6.92-5.66,10.13-8.76,2.59-2.5,2.15-4.79-1.08-6.35-2.87-1.4-5.75-2.78-8.58-4.24-1.8-.93-2.35-2.46-1.31-4.19a10.55,10.55,0,0,1,3-3.33c3.27-2.15,6.63-4.17,10.07-6,5.33-2.89,10.77-5.6,16.15-8.41,2-1,2.67-2.91,1.58-4.83a8.85,8.85,0,0,0-2.53-2.78,45.59,45.59,0,0,0-13.71-6.73c-4.31-1.17-8.67-2.23-13.05-3.08a74.19,74.19,0,0,0-33,1.09c-2.68.68-3.84,2.2-3.79,5,0,.7,0,1.41,0,2.38-2.11.12-4.09.3-6.07.32-3.89,0-6,3.17-4.3,6.71.81,1.73,1.83,3.35,2.84,5.17-.9.49-1.84.92-2.69,1.49-1.65,1.11-3,2.48-2.74,4.7a4.41,4.41,0,0,0,3.32,4c1,.34,2,.81,3.29,1.33-.95,1.14-1.72,2-2.45,2.95-1.92,2.41-.85,5.36,2.19,5.7a35.37,35.37,0,0,0,5.24-.12c.68,0,1.35-.15,2.19-.25-.65,2.65-1.15,5.07-1.87,7.42-.47,1.56-.7,3,.54,4.24s2.68,1.06,4.23.57c2.88-.91,5.8-1.67,8.8-2.53a7.32,7.32,0,0,1,.49,3.85c-.23,3,1.41,4.48,4.39,4a23.85,23.85,0,0,0,2.76-.73Zm-208-109.94,1.37-.11a11.92,11.92,0,0,0,11.1-9.29c.66-2.47,1.23-5,1.76-7.45a11.84,11.84,0,0,0-.44-6.61,3.37,3.37,0,0,0-2.43-2.42c-3.35-.72-6.7-1.45-10.08-2a8.75,8.75,0,0,0-3.54.34,234.15,234.15,0,0,0-28.17,9.35,4.18,4.18,0,0,0-1.46.78c-2.38,2.46-4.71,5-7.06,7.47-.59.63-1.13,1.33-1.78,1.91a5.58,5.58,0,0,0,.64,9,28.14,28.14,0,0,0,5.76,2.21c1.52.51,2.11,1,2.06,2.49a66.92,66.92,0,0,1-.65,9.08,70.78,70.78,0,0,1-5.31,16.11c-1.33,3-.88,4.76,2,6.3a6.46,6.46,0,0,0,2.71.74,13.61,13.61,0,0,0,9.57-3.13,3.4,3.4,0,0,1,2.83-.83,28,28,0,0,0,5.49.15c3.16-.33,6-1.5,7-4.89,1.37-4.57,2.72-9.16,3.8-13.81A77.16,77.16,0,0,1,239.57,282.61Zm16.68-57.24c-2.69.33-5.39.64-8.08,1-7.13.9-13.73,3.56-20.4,6.06-4.7,1.76-9.27,3.85-14.26,4.88-13.91,2.86-27.47,6.79-39.8,14.15a5.59,5.59,0,0,1-.85.42,15,15,0,0,0-7.08,5.54c-3.09,4.55-6.06,9.19-9,13.87a4.28,4.28,0,0,0,1.87,5.92,5.59,5.59,0,0,0,5.91-.41c2.79-1.71,5.38-3.77,8.23-5.35a140,140,0,0,1,13.87-7,125.24,125.24,0,0,1,13.91-4.48,121.41,121.41,0,0,0,28.81-12.29,5.42,5.42,0,0,1,3.85-.78c3.47.56,6.94,1.15,10.44,1.56,9.63,1.12,17.54-2.38,24.08-9.28a6.85,6.85,0,0,0,2.3-4.63c0-3.7-2-6.78-5.32-7.72A27.2,27.2,0,0,0,256.25,225.37Zm315.28,125a31.33,31.33,0,0,0,4.35,17.38c3,4.9,6.23,9.65,9.46,14.41a16.61,16.61,0,0,0,3.24,3.46,16.82,16.82,0,0,0,3,1.36c2.45,1.25,3.71,1,5.31-1.21a27,27,0,0,0,4-8.9,37.71,37.71,0,0,0-.12-19.89,61.79,61.79,0,0,1-2.09-8.35c-1.26-10.15-2.31-20.33-2.1-30.59a40,40,0,0,1,.15-5,83.14,83.14,0,0,1,1.78-9.65,5.34,5.34,0,0,0-1.88-5.77,20,20,0,0,1-4.31-5.39,3.37,3.37,0,0,0-3.31-1.94,3.33,3.33,0,0,0-3.14,2.21c-1.55,3.93-3.28,7.82-4.48,11.86-2.11,7.11-3.93,14.32-5.78,21.51C573.59,333.92,571.73,342,571.53,350.39ZM464,301.23a47.47,47.47,0,0,1,12.72,2.66c3.38,1.41,6.75,2.83,10.15,4.2,3.56,1.43,6.3.79,8.8-2.14,1.35-1.58,2.59-3.26,3.78-4.95,2.54-3.61,3.74-7.5,2.72-12a4.42,4.42,0,0,0-3.06-3.54,86.26,86.26,0,0,1-8.94-4,6.2,6.2,0,0,1-3.38-5.46c-.14-2.55-.35-5.09-.46-7.65-.13-3.15-2.27-4.64-5.2-3.46-2.51,1-5,2-7.48,3.21-9.66,4.79-19.28,9.67-28.93,14.49a24,24,0,0,0-9.06,7.29,22.21,22.21,0,0,0-4.11,8,3.57,3.57,0,0,0,1.62,4.13,16.29,16.29,0,0,0,11.59,2.88c3.47-.48,6.89-1.31,10.33-2Zm-79.63,49c.9.77,1.56,1.34,2.23,1.9a6.24,6.24,0,0,0,8.83-.45c1.61-1.66,3.27-3.29,4.73-5.08a11.63,11.63,0,0,1,5.1-3.79c2-.72,2.86-2.22,2.6-3.81s-1.38-2.52-3.37-2.88a95.38,95.38,0,0,0-29.59-.87c-6.56.86-13.14,1.7-19.7,2.61-9.22,1.28-18.2,3.43-26.59,7.64a10.28,10.28,0,0,1-1.33.54,4.57,4.57,0,0,0-2.3,7.13,8.61,8.61,0,0,0,6,4c1.4.21,2.81.28,4.26.41a5.16,5.16,0,0,1,.23.66,10,10,0,0,0,9.27,7.94c5.42.08,9.34-2.75,12.49-6.86.9-1.18,1.53-2.58,2.93-3.39.47.68.83,1.31,1.28,1.86a10.59,10.59,0,0,0,7.71,4.23,9.84,9.84,0,0,0,6.66-2.2A32,32,0,0,0,384.39,350.28Zm220.5-18.66c.34,4.13.55,8.28,1.06,12.39.37,3,1.17,5.95,1.73,8.94a252.51,252.51,0,0,0,10,37c1,2.77,2.28,5.27,4.84,6.93a5.06,5.06,0,0,0,6.88-.9,16.06,16.06,0,0,0,3.82-8.64,57.19,57.19,0,0,0-.91-22.61c-1.95-7.49-4.31-14.88-6.5-22.31-2.11-7.11-4.46-14.15-5.52-21.56-.5-3.51-2-6.88-2.71-10.37-.63-2.93-2.43-4.33-5.15-4.95s-4.75.6-5.19,3.44A165.08,165.08,0,0,0,604.89,331.62Zm-2.12-83.44a28.07,28.07,0,0,0,10.07-1.61c2-.65,3.52-2.33,3.34-3.93-.26-2.17-.79-4.17-3.23-5.16-5-2-10-4.36-15-6.41a49,49,0,0,0-23.32-3c-2.06.19-4.14.29-6.21.46a53,53,0,0,0-6.68.62,62.68,62.68,0,0,0-8,2.31,40.93,40.93,0,0,0-5,2.27c-5.57,2.79-11.17,5.53-16.66,8.48a7.2,7.2,0,0,0-3,3.22c-1,2.34,1.09,6.64,3.55,7.3a32.25,32.25,0,0,0,7.07.94c2.63.11,5.28-.24,7.91-.15A12.14,12.14,0,0,1,557,258c1.43,1.74,2.8,1.95,4.88.76q6.76-3.87,13.44-7.89,4.92-3,9.73-6.14c2.69-1.78,3.67-2,6.22-.08A17.61,17.61,0,0,0,602.77,248.18Zm-320.06,64.6a21.69,21.69,0,0,0-.12,2.63c.17,1.88.63,3.72,2.4,4.7a4.62,4.62,0,0,0,5.2-.44c1.74-1.27,3.45-2.59,5.22-3.83,1.23-.86,2.52-1.63,3.81-2.41s2.55-1.34,3.74-2.14c1.67-1.1,2.51-3.92,1.57-5.56-1.47-2.54-2.82-5.13-5.21-7.07a24.26,24.26,0,0,1-5.5-5.63,152,152,0,0,0-12-15.82,163,163,0,0,1-12.39-17.64c-.86-1.39-1.91-2.52-3.47-2.58s-2.66,1.34-3.34,2.73a4.87,4.87,0,0,0-.53,2.29c.12,2.07.48,4.12.61,6.19a18.86,18.86,0,0,1,0,5c-.77,3.84-2,7.32-5.31,10.1-4.73,4-3.51,11.23,2,14,.7.36,1.42.68,2.2,1.05-.35,4.6,1.82,7.44,6.17,8.74,0,.45,0,.84,0,1.23-.23,4,2,6.08,5.78,6.49a14.33,14.33,0,0,0,6.34-1Zm-212.51,6,.07.37a26.8,26.8,0,0,0,4.6-1.08c5-2.1,10.07-4.12,14.89-6.62,9.08-4.7,18-9.64,27-14.62a168.09,168.09,0,0,0,25.39-17.61,7.09,7.09,0,0,1,2-1.35,5.84,5.84,0,0,0,3.15-3.12c1.47-2.74,2.91-5.49,4.36-8.23a3.24,3.24,0,0,0-.32-3.81,3.31,3.31,0,0,0-3.69-1c-1.49.56-3,1.15-4.42,1.8-5.18,2.31-10.34,4.65-15.52,7a267.43,267.43,0,0,0-41.56,23.35c-8.21,5.59-15.63,12.18-23.37,18.37-1.8,1.44-1.89,3.49-.35,5.25a4.35,4.35,0,0,0,3.79,1.68Zm316.88,118c1.76-.43,4.42-.95,7-1.73,14.17-4.26,25.55-12.9,35.76-23.26,1.58-1.6,2.54-3.83,3.68-5.83a2.94,2.94,0,0,0-.51-3.56,9.22,9.22,0,0,0-5-3.09c-1.63-.37-3.24-.82-4.86-1.25a6.86,6.86,0,0,0-5.55.53c-2.46,1.47-4.88,3-7.38,4.44-1.87,1-3.77,2.44-5.79,2.71-5.44.71-10.92,1.27-16.07-1.84-2.72-1.64-5.27-.4-6.92,2.4a13.28,13.28,0,0,1-2.82,3.22,17.48,17.48,0,0,1-8.88,3.92,19.19,19.19,0,0,0-5.1,1.88,3.27,3.27,0,0,0-.25,5.83,5.38,5.38,0,0,0,2.72.77c3-.05,4.94,1.51,6.37,3.93,1,1.72,1.94,3.48,3,5.2C378.61,434.81,382,436.52,387.08,436.86ZM101.74,347.05c-1.81-.52-3,.2-4.17.88a161.62,161.62,0,0,0-33,24.57,69.6,69.6,0,0,0-11,12.92c-.84,1.34-1.48,2.82-2.4,4.11a3.63,3.63,0,0,0-.55,3.82,3.38,3.38,0,0,0,3.59,1.88,8.87,8.87,0,0,0,2.35-.37A30.59,30.59,0,0,0,61.41,393c9.1-4.86,18.29-9.57,26.82-15.41,14.67-10,28.4-21.3,42.12-32.58a13.32,13.32,0,0,0,1.41-1.3,3.26,3.26,0,0,0,.67-4,3.42,3.42,0,0,0-3.87-1.69c-1.17.26-2.33.55-3.49.85a75.68,75.68,0,0,0-7.62,2c-4.71,1.76-9.32,3.78-14,5.67A10.26,10.26,0,0,1,101.74,347.05Zm254.1,58.15c2.85,3.39,5.09,4.16,9.08,3.54,9.33-1.45,12.39-10.86,9.86-18.65a2.69,2.69,0,0,1,.29-2.81,8.08,8.08,0,0,0,.94-1.39c1.48-3,1.25-5.59-2.66-7.69a9.79,9.79,0,0,0-2.72-.91,2.93,2.93,0,0,1-2.54-2.7,9.89,9.89,0,0,0-1.8-4.08,6,6,0,0,0-8.05-.86,48,48,0,0,0-5.17,4.93,18.77,18.77,0,0,1-2.87,2.84c-5,3-10.21,5.23-16.28,4.29a7.31,7.31,0,0,0-7.13,2.49,3.7,3.7,0,0,0,.22,5.54c1.13,1.11,2.39,2.09,3.65,3.18-.35,1-.68,1.94-1.06,2.89a6.12,6.12,0,0,0,0,4.22,3.46,3.46,0,0,0,3.27,2.68,10.52,10.52,0,0,0,5.59-.95c.69-.33,1.4-.62,2.25-1-.09,4.29,2.55,6.17,5.9,7.39C350.3,409.52,353,407.26,355.84,405.2Zm127.54-81h.17c.06-1.12.15-2.23.19-3.35a3.39,3.39,0,0,0-1.35-2.94c-3.91-2.93-8.22-5.1-13.14-5.38a117.65,117.65,0,0,0-22.51.69c-5,.67-10,.93-14.95-.71a7.42,7.42,0,0,1-4.31-2.81c-1.8-2.84-5.07-2.43-6.69.52a24.94,24.94,0,0,1-4.53,5.85c-2.76,2.65-5.78,5-8.77,7.43-1.23,1-2,2.06-1.81,3.65a3.48,3.48,0,0,0,2.51,2.93,20.65,20.65,0,0,0,2.28.7,28.33,28.33,0,0,0,11.67.17,141,141,0,0,1,23.77-2.91,37.59,37.59,0,0,1,9.07.5,65.14,65.14,0,0,1,16.52,5.62c1.83,1,3.63,2,5.5,2.93,2.11,1,4.77.27,5.48-1.82a27.22,27.22,0,0,0,1.13-6.3A33.13,33.13,0,0,0,483.38,324.23Zm12.32-59.88c-.49,5.93,1.39,10.22,6.37,12.8a33,33,0,0,0,4.95,1.77c2.21.72,2.54,1.1,2.75,3.34.29,3.09,2.45,4.83,5.41,4a47.84,47.84,0,0,0,6.58-2.78c3.33-1.53,6.57-3.26,9.94-4.68,2.86-1.21,5.93-1.94,8.76-3.2,3.21-1.42,6.18-3.36,9.4-4.75a3.64,3.64,0,0,0,.28-6.64c-2.51-1.18-5.07-2.29-7.64-3.36a6.59,6.59,0,0,0-6.41.56,10.13,10.13,0,0,1-6.94,1.17c-3-.37-6-2.39-6.46-6a17.18,17.18,0,0,0-.83-4c-1.54-4.17-3.72-4.67-6.53-3.53a37.23,37.23,0,0,0-4.26,1.57c-4.25,2.36-8.42,4.88-12.64,7.3-1.87,1.07-2.5,2.82-2.72,4.79A11.68,11.68,0,0,0,495.7,264.35Zm-193.41,124a14,14,0,0,0,.74,2.41,13.37,13.37,0,0,0,2.12,3.39c2.13,2.13,4.93,2.18,7.63,1.6a6.77,6.77,0,0,0,5.48-7.33c-.36-3.09.95-5.94,2.17-8.74a4.72,4.72,0,0,1,3.39-2.78,23.21,23.21,0,0,1,3.54-.5,6.46,6.46,0,0,0,5.58-3.55c1.28-2.46.54-4.63-1.06-6.65a8.06,8.06,0,0,0-4.25-3c-2.08-.57-4.15-1.19-6.23-1.73-3.28-.85-3.83-1.43-4.33-4.77-.42-2.85-2.11-4-4.93-3.17a38,38,0,0,0-6.49,2.41c-7.27,3.73-13.8,8.63-20.35,13.47a3.28,3.28,0,0,0-1.27,3.4,5.62,5.62,0,0,0,5.44,5.09c1.07.08,2.15,0,3.23,0C292.05,384.7,295.47,388.61,302.29,388.37Zm-66.52-56.63c-1.35,2.4-2.35,4.71-1.76,7.26a10,10,0,0,0,7.94,8.06c2,.44,4.26-.06,6.39.06,2.68.16,4.3-1.25,5.67-3.29,3.9-5.84,7.09-12.15,11.78-17.47a3.17,3.17,0,0,0-.46-4.53c-.58-.54-1.34-.88-1.92-1.42-1.05-1-2.38-1.84-2.94-3.06a14,14,0,0,1-1.58-6.68,4.46,4.46,0,0,0-3.13-4.8c-3-1.2-5.33-3.22-6.08-6.59a4.63,4.63,0,0,0-.53-1.33,3.34,3.34,0,0,0-6,0,11.41,11.41,0,0,0-1.26,3.58A111.71,111.71,0,0,1,238.37,316,8.09,8.09,0,0,1,234,321c-2.9,1.5-3.21,2.05-2.93,5.22a4.35,4.35,0,0,0,1.89,3.43C233.84,330.32,234.73,331,235.77,331.74Zm-105.06-.58a13,13,0,0,1,2.48-.42c4.07,0,7.65-1.45,11.1-3.39,2.71-1.52,5.49-3,8.06-4.67a60.85,60.85,0,0,0,9-6.71,113.13,113.13,0,0,0,17.17-20.55,92.93,92.93,0,0,1,6.44-9.24,40.65,40.65,0,0,0,6-10.06c.39-.92.8-1.78-.14-2.6a1.88,1.88,0,0,0-2.43-.09c-2.83,1.73-6.06,2.36-9.13,3.45a4.81,4.81,0,0,0-2,1.21c-2.47,2.72-4.86,5.52-7.27,8.3s-4.55,5.58-7.07,8.12a45.36,45.36,0,0,1-8.32,6.82A102.25,102.25,0,0,0,128,325.26a3.46,3.46,0,0,0-.6,3.8A3.67,3.67,0,0,0,130.71,331.16Zm-31,6.39c5-.46,10.52-1.94,14.28-7.34,1.91-2.75,4-5.4,6.07-8,2.42-3.07,4.61-6.42,7.46-9,5.4-5,11.14-9.59,16.84-14.23,3.34-2.71,6.89-5.15,10.32-7.74a3.38,3.38,0,0,0,1.05-4.46,3.3,3.3,0,0,0-4.59-1.19c-3.82,2-7.63,4-11.39,6.15-1.88,1.05-3.6,2.4-5.49,3.43-12.86,7-24.89,15.35-36.94,23.64-2.44,1.68-4.91,3.3-7.28,5.06a6.72,6.72,0,0,0-.66,10.43C91.92,336.73,95.08,337.62,99.69,337.55Zm88.74,94.72A29.62,29.62,0,0,0,200.2,430c8-3,16.05-5.94,23.47-10.23a51.84,51.84,0,0,0,8.92-6,48.62,48.62,0,0,1,12.88-8.56q3.5-1.56,6.9-3.32c3-1.55,4.13-4.37,4.58-7.46a3.21,3.21,0,0,0-4.57-3.37c-1,.42-2,1-3,1.47-4.69,2.4-9.32,4.9-14.06,7.2q-8.17,4-16.51,7.69c-4.86,2.17-9.49,4.82-14.89,5.82-6.58,1.21-13.07,3-19.57,4.62a9.74,9.74,0,0,0-5.29,3.55,4.54,4.54,0,0,0,.11,6.11A12.65,12.65,0,0,0,188.43,432.27ZM567.9,266.86a5.89,5.89,0,0,0-.8.16c-5,1.71-9.68,3.88-12.83,8.36-2.62,3.73-5.28,7.43-7.71,11.28-2.95,4.66-5.66,9.45-9.21,13.72a76,76,0,0,0-5.14,7.51c-1.42,2.21-2.62,4.57-4.1,6.75a68.36,68.36,0,0,0-6.89,12.59,4.91,4.91,0,0,0,.78,5.55,17.82,17.82,0,0,0,10.42,5.93,3.83,3.83,0,0,0,4.71-3,19.35,19.35,0,0,0,.54-4,44.92,44.92,0,0,1,5.06-18.78c6.56-12.65,15-23.93,23.58-35.22.24-.32.53-.6.78-.91,1.26-1.54,2.56-3.06,3.76-4.64a3.08,3.08,0,0,0,.18-3.61A3.28,3.28,0,0,0,567.9,266.86Zm87.71,104.55a48.07,48.07,0,0,0-2-12.88,119.2,119.2,0,0,0-9-21.64c-2.16-4-4.62-7.85-6-12.23-.71-2.2-1.72-4.3-2.49-6.48s-2.14-4.45-2.28-7a3.05,3.05,0,0,0-2.83-2.84c-1.67-.26-3.38-.38-4.62,1.17-1,1.29-.8,2.7-.34,4.1,1,2.88,2,5.73,2.86,8.64,1.21,4.21,2.36,8.44,3.34,12.71,1.27,5.52,1.82,11.19,3.72,16.58a36.77,36.77,0,0,1,1.08,5.15c.74,3.75,1.16,7.6,2.28,11.24,1.48,4.79,3.51,9.41,5.27,14.11a7.33,7.33,0,0,0,2.93,3.38,3.16,3.16,0,0,0,3.62.07,6.85,6.85,0,0,0,3.56-5.13C655.1,377.17,655.35,374,655.61,371.41Zm-98.93-28.3c.56,0,1.12,0,1.67,0a8.1,8.1,0,0,0,5.29-2.52c1.17-1.16,1-2.61,1-4,0-.48.09-.95.14-1.43A127.44,127.44,0,0,1,572,303.93c2.4-6.5,4.4-13.22,9.46-18.38a2.92,2.92,0,0,0,.32-3.77,9.2,9.2,0,0,0-1.63-1.73c-2.09-2-3.79-2-5.73.17s-3.38,4.25-5.2,6.26c-7.3,8.07-12,17.69-16.24,27.53-2.41,5.62-3.92,11.64-5.68,17.53a28,28,0,0,0-.69,5.44,3.46,3.46,0,0,0,1.61,3.3A16.58,16.58,0,0,0,556.68,343.11ZM277.54,361.33c3.93,2.28,5.34,2.28,8.17.09l14.56-11.32a7.88,7.88,0,0,0,1.2-1.18c1.86-2.29,1-4.94-1.91-5.71-1.69-.46-3.38-.95-5.08-1.36a19.71,19.71,0,0,1-9.39-5,6.05,6.05,0,0,1-2-3.92,21.86,21.86,0,0,0-1.1-5.12c-.71-2-2.43-2.67-4.46-2a5.58,5.58,0,0,0-3.2,2.38c-1.95,3.21-3.89,6.42-5.92,9.58s-4.35,6.49-6.53,9.73c-.45.66-1,1.26-1.38,2-1.08,1.94-.91,3.14.51,4.81a6.66,6.66,0,0,0,4.26,2.69C265.59,361.93,270,365.69,277.54,361.33Zm50.11-56.15a4,4,0,0,0,4-2.35,3.41,3.41,0,0,0-.9-3.93,63.81,63.81,0,0,0-7.48-5.93A51.49,51.49,0,0,1,308,278.3c-4.83-6.8-10.69-12.73-16-19.12a41.91,41.91,0,0,1-2.67-3.67c-2.51-3.8-5-7.62-7.47-11.43a3.37,3.37,0,0,0-.28-.38,5.3,5.3,0,0,0-6.27-1.53c-2.82,1.54-3.81,3.71-2.92,6.56a10.94,10.94,0,0,0,1.1,2.38c.95,1.58,2.11,3,2.95,4.66,2.82,5.44,6.71,10.12,10.56,14.8s8.07,9.51,12.34,14.05c5.48,5.81,11.17,11.43,16.79,17.11a7.57,7.57,0,0,0,4.32,2.4Zm-23.3,104.08a6.45,6.45,0,0,0,4.11,6.42c2.47,1.13,4.91,2.37,7.45,3.29,8.1,2.94,16.25,5.71,24.35,8.63,3.6,1.3,7.14,2.77,10.68,4.22,3.7,1.52,7.37,3.16,11.38,3.62a10.76,10.76,0,0,0,3.75-.26,3.2,3.2,0,0,0,2.54-3.34,3.45,3.45,0,0,0-2.66-3.3,20.63,20.63,0,0,0-2.36-.34,12.33,12.33,0,0,1-6.81-3.28c-1.47-1.43-1.75-3.28-1.77-5.29s-1.47-3.23-3.62-3.35a13.3,13.3,0,0,1-3.53-.47c-3.39-1.19-6.71-2.54-10.06-3.83-1.79-.69-3.54-1.45-5.35-2.09-3.48-1.22-7-2.51-9.78-4.94a6.34,6.34,0,0,0-6.9-1.16,22.91,22.91,0,0,1-7.25,1.44A3.94,3.94,0,0,0,304.35,409.26Zm3.87-76.14a25.83,25.83,0,0,0,0,3.87c.87,5.06,4.37,7.91,9.71,5.83a56.85,56.85,0,0,0,5.34-2.7c3.41-1.73,6.85-3.43,10.24-5.21a14.85,14.85,0,0,0,3-2c2-1.76,1.8-4.17-.47-5.61a16.91,16.91,0,0,0-3.28-1.44c-1.2-.44-2.43-.78-3.65-1.16a2.87,2.87,0,0,1-2.24-2.75c-.19-2-.54-4-.87-5.93-.45-2.72-2.07-4.07-4.83-4.48-3.81-.55-7.07.95-9.76,3.17a51.27,51.27,0,0,1-15.45,9,4.44,4.44,0,0,0-1.08.5,4.65,4.65,0,0,0-1.08.93c-2.23,2.83-1.22,7.74,2,9.28a10,10,0,0,0,3.48.8A17.48,17.48,0,0,0,308.22,333.12Zm323-56.44-.39.6c.91.53,1.86,1,2.71,1.61,3.54,2.54,8.58,1.51,11.75-1.18a5,5,0,0,0,1.46-6.06,33.89,33.89,0,0,0-5.39-9.53,70.57,70.57,0,0,0-13.33-12.68c-2.11-1.6-3.29-1.7-5.39-.13a11.73,11.73,0,0,1-4.92,2.3,3.36,3.36,0,0,0-2.85,2.86,28.83,28.83,0,0,1-4.44,11.25c-1.88,2.72.13,5.94,3.43,5.92h2.37c0,.56,0,1,0,1.34a5.25,5.25,0,0,0,6,6,14.87,14.87,0,0,0,2.83-.42C627.17,278,629.21,277.31,631.27,276.68ZM510,378.43c.2-7.51-2.1-12.62-6.3-16.77a32.16,32.16,0,0,0-5.53-4.14c-3.07-1.95-4-1.9-6.85.39a51.55,51.55,0,0,1-17.37,9.36,52.59,52.59,0,0,0-6.38,2.74,3,3,0,0,0-1.8,3.13,3.22,3.22,0,0,0,2.38,3,14.78,14.78,0,0,0,2.82.53,26.29,26.29,0,0,1,8.48,2.36,14.3,14.3,0,0,0,4.82,1.2c3.5.27,7,.3,10.52.42s6.43,1.14,8.43,4.15a3.34,3.34,0,0,0,3.67,1.65,3.2,3.2,0,0,0,2.65-3C509.74,381.78,509.83,380.1,510,378.43ZM407.27,392.79c.79-.54,1.62-1,2.36-1.62,2.34-1.89,2.56-3.82.43-5.86a19.73,19.73,0,0,0-4-2.59c-1-.59-2.21-1-3.22-1.56-1.79-1.1-1.91-1.35-1-3.25,1.3-2.63.76-4.94-.87-7.16a19.81,19.81,0,0,0-1.36-1.67,5.82,5.82,0,0,1-1.67-4.33c0-2.24-.72-3.13-2.91-3.77a13.53,13.53,0,0,0-9.13.58c-2.58,1-4.91,2.37-6.17,5a5.79,5.79,0,0,0-.27,5.3,9.22,9.22,0,0,0,5.37,4.87c.58.19,1.15.44,1.74.66-.63,1.47-1.29,2.76-1.75,4.12a29.81,29.81,0,0,0-1.09,4.15,8.23,8.23,0,0,0,4.19,8.65c3.6,1.67,7.36,2.66,11.4,1.8a3.16,3.16,0,0,1,2,.27c3.41,1.85,5.42.78,5.73-3.15A2.59,2.59,0,0,1,407.27,392.79ZM76.75,336.63a27.61,27.61,0,0,0-4.37,1.51,40.37,40.37,0,0,0-5.15,3.47c-3,2.34-6,4.78-9,7.2-6.63,5.4-13.29,10.76-19.84,16.25a46.53,46.53,0,0,0-5.15,5.35,3.32,3.32,0,0,0-.23,4,3.16,3.16,0,0,0,3.79,1.3,65.93,65.93,0,0,0,9.46-4c6.08-3.52,12-7.35,17.9-11.16,7-4.49,14.11-8.76,20.17-14.55,2.52-2.4,2.3-4.85-.84-6.43-1-.5-2-1-3-1.46C79.29,337.6,78.06,337.15,76.75,336.63ZM655,305.93c.63,2.32,1.15,4.65,1.92,6.9,1,2.94,2.29,5.8,3.37,8.72,3.88,10.41,7.7,20.84,14.71,29.72,1.74,2.19,4.41,2.27,5.93-.12a5.62,5.62,0,0,0,1.07-4.31c-.48-2.17-1-4.34-1.54-6.49-.49-1.94-1.25-3.82-1.54-5.78-1.25-8.53-5-16.14-8.76-23.71-1.47-2.93-3.18-5.73-4.8-8.58a26,26,0,0,0-1.86-3.08c-1.87-2.42-5.26-2.25-6.52.45A49.7,49.7,0,0,0,655,305.93Zm-391.08,85.5a10.19,10.19,0,0,0,3.7,8.28,26.93,26.93,0,0,0,10.06,5.38q7.15,1.92,14.34,3.72a3.26,3.26,0,0,0,4-1.82c.85-1.44,1.63-2.92,2.42-4.39a3.28,3.28,0,0,0-1.46-4.84c-1.46-.81-2.91-1.64-4.37-2.46a10.11,10.11,0,0,1-4.84-5.72,7.7,7.7,0,0,0-3.61-4.27,26.83,26.83,0,0,0-2.69-1.56,7.21,7.21,0,0,1-3.72-3.86c-1-2.17-2.85-3.17-5.05-2.44a10.6,10.6,0,0,0-6.56,5.25A22.23,22.23,0,0,0,263.87,391.43Zm-51.56,55.68c1.51-.47,3.07-.83,4.52-1.44,3.46-1.45,6.9-3,10.29-4.56a77.19,77.19,0,0,0,8.07-4.21c3.91-2.47,7.67-5.18,11.45-7.85,1.09-.77,1.37-3.25.27-4.11a70.88,70.88,0,0,0-6-3.85L237,422.6c-.52.2-1,.41-1.54.65-4,1.88-7.93,3.78-11.91,5.66-3.24,1.53-6.48,3.08-9.76,4.53-1.76.77-3.63,1.27-5.39,2a24.74,24.74,0,0,0-4.23,2.23c-2.24,1.55-2.31,4-.39,5.93C206.09,446,209,446.83,212.31,447.11Zm400-152.44a18.18,18.18,0,0,0,1.28,1.44c3.44,3.18,7.15,5.53,12.19,4.86,4.73-.62,7.29-4.4,5.78-8.91-.33-1-.77-1.92-1.17-2.88-1.43-3.48-2.75-4.29-6.44-3.66a19.4,19.4,0,0,1-8.93-.7c-1-.31-2.49-.74-2.87-1.54-1.26-2.64-3.48-4-5.81-5.38a6.27,6.27,0,0,1-1.19-1.17c-.45-.46-.86-1-1.34-1.36a3.49,3.49,0,0,0-5.41.56c-.75.93-1.52,1.85-2.33,2.73-2.34,2.53-1.71,5.19,1.66,6.13a3.59,3.59,0,0,1,2.87,3.2c1.05,4.76,6,7.93,10.25,6.89C611.35,294.77,611.83,294.74,612.35,294.67ZM376.47,329.11a16.13,16.13,0,0,0,2.07-.38,3.32,3.32,0,0,0-.05-6.4c-2.13-.62-4.3-1.1-6.42-1.77-3.11-1-6.2-2.07-9.28-3.14-1.66-.58-3.27-1.32-5-1.83-3.44-1-6.88-2.09-10.38-2.9-3.26-.76-6.56-1.43-9.95-.79-1.75.33-2.74,1.09-3.08,2.57a3.22,3.22,0,0,0,1.61,3.68,24.7,24.7,0,0,0,3.79,2,20,20,0,0,1,5.8,3.32c1.58,1.34,3.21,2.65,4.65,4.14a6.45,6.45,0,0,0,5.83,2c5.24-.6,10.48-1.24,15.78-.77C373.24,329,374.6,329,376.47,329.11ZM234,454.79a58.61,58.61,0,0,0,8.17-1.81,93.9,93.9,0,0,0,9.5-4.55,15.9,15.9,0,0,0,3.06-1.88c4.06-3.37,8.05-6.82,12.09-10.22a4.66,4.66,0,0,0,1.67-4c-.08-1.63-.47-2.13-2.16-2.24s-3.67-.05-5.51-.1a6.27,6.27,0,0,0-3.86,1c-3,2-5.9,4.1-8.91,6.06-2.75,1.78-5.51,3.54-8.39,5.09s-6.19,3-9.26,4.51a9.75,9.75,0,0,0-2.5,1.83,3.28,3.28,0,0,0,1.35,5.57A38.39,38.39,0,0,0,234,454.79Zm277.67-139c4.57.05,7.94-1.46,10.37-5.41,3.25-5.3,7-10.31,10.42-15.48a38.12,38.12,0,0,0,2.9-4.93,3.09,3.09,0,0,0-1-3.86,3.33,3.33,0,0,0-3.82-.23,9.85,9.85,0,0,0-1.37.95C521.41,292.93,513.67,299,506,305a16.36,16.36,0,0,0-2.56,2.5,3.13,3.13,0,0,0,.1,4.36C505.68,314.44,508.33,316,511.63,315.84ZM585.87,253a17.3,17.3,0,0,0-2.77,1.13c-1.21.76-2.3,1.72-3.46,2.56a5.28,5.28,0,0,0-2.15,5c.12,1.51.2,3,.3,4.54a6.43,6.43,0,0,0,3.3,5.51c3.55,2,8.51,3,12-1.09.26-.31.58-.56.85-.84a11.63,11.63,0,0,1,4.87-2.95,13.91,13.91,0,0,0,7-5.47,6.35,6.35,0,0,0,1-2.88,3.24,3.24,0,0,0-4.15-3.55c-1.56.34-3.12.66-4.66,1.08a9.46,9.46,0,0,1-8-1.4A23.19,23.19,0,0,0,585.87,253ZM262.2,421.59a14,14,0,0,0,.82,1.92,3,3,0,0,0,3.2,1.65,18.06,18.06,0,0,0,8.41-3.78c2.61-2.25,2.21-4.72.22-7.37a5.44,5.44,0,0,0-1.43-1.27c-1.41-.89-2.85-1.75-4.31-2.56-2-1.12-4.15-2.08-6.11-3.29-3-1.82-4.1-1.89-6.92.21-3,2.22-6.14,3.93-10,4a3.23,3.23,0,0,0-3.11,3.33,3.16,3.16,0,0,0,2.91,3.24,28.4,28.4,0,0,0,4.5-.23,15.62,15.62,0,0,0,1.6-.29c-.68,3.42.05,4.87,3,5.91a4.22,4.22,0,0,0,2.33.18C258.85,422.81,260.4,422.19,262.2,421.59ZM645,302.72c.58.53,1,1,1.52,1.37,2.43,1.92,5.15,1,5.76-2.1a18.34,18.34,0,0,0,.17-3.32,10.5,10.5,0,0,1,1.54-6.11,5.25,5.25,0,0,0-1.94-7.7,3.57,3.57,0,0,0-4.07,0,9,9,0,0,1-5.85,1.68,3.74,3.74,0,0,0-4,2.77c-.69,1.82-.74,3.47.92,4.74a1.65,1.65,0,0,1,.48,2.31A23,23,0,0,1,638,299c-.54.78-1.23,1.47-1.71,2.29a3.34,3.34,0,0,0,.56,4.54,3.53,3.53,0,0,0,4.79-.1C642.7,304.82,643.75,303.85,645,302.72ZM186.18,313.9c3.51,1.62,4.84,1.21,6.82-2,.12-.21.24-.42.35-.63,2.82-5,4.06-10.53,4.85-16.16a5.55,5.55,0,0,0-.36-2.33,3.31,3.31,0,0,0-5.31-1.88,9.36,9.36,0,0,0-4,5.43,18.69,18.69,0,0,1-.84,2.49c-2.35,5.5-5.49,10.41-10.31,14.13a3.34,3.34,0,0,0-.86,4.48,3.25,3.25,0,0,0,4.41,1.11,15.49,15.49,0,0,0,2.84-2.15C184.63,315.61,185.41,314.7,186.18,313.9ZM295,429.88c.29.25.46.41.65.56,2.26,1.79,4.41,1.4,5.65-1.19a11.21,11.21,0,0,0,.93-3.66c.36-3.86-.81-6.92-4.77-8.36-2-.74-3.92-1.8-6.18-1.73-3,.09-4.72,1.33-5.43,4.3a6.84,6.84,0,0,1-2.35,3.8c-.55.46-1.18.83-1.71,1.31a3.33,3.33,0,0,0,3.53,5.58,17,17,0,0,0,1.85-1.06C289,432.58,290.74,434.06,295,429.88ZM642.23,314.3a4,4,0,0,0,.09.86c1.14,3.81,2.2,7.65,3.49,11.41.64,1.86,3.36,3.11,5.36,2.85a3.25,3.25,0,0,0,2.92-4.11c-1.11-4.23-2.44-8.41-3.5-12.65a4.42,4.42,0,0,0-4.81-3C644,310,642.23,312.2,642.23,314.3Z" transform="translate(-0.48 -0.48)"/><path class="cls-1" d="M447.53,392.55,439.09,395a23.85,23.85,0,0,1-2.76.73c-3,.49-4.62-1-4.39-4a7.32,7.32,0,0,0-.49-3.85c-3,.86-5.92,1.62-8.8,2.53-1.55.49-3,.68-4.23-.57s-1-2.68-.54-4.24c.72-2.35,1.22-4.77,1.87-7.42-.84.1-1.51.22-2.19.25a35.37,35.37,0,0,1-5.24.12c-3-.34-4.11-3.29-2.19-5.7.73-.92,1.5-1.81,2.45-2.95-1.27-.52-2.26-1-3.29-1.33a4.41,4.41,0,0,1-3.32-4c-.22-2.22,1.09-3.59,2.74-4.7.85-.57,1.79-1,2.69-1.49-1-1.82-2-3.44-2.84-5.17-1.66-3.54.41-6.67,4.3-6.71,2,0,4-.2,6.07-.32,0-1,0-1.68,0-2.38-.05-2.79,1.11-4.31,3.79-5a74.19,74.19,0,0,1,33-1.09c4.38.85,8.74,1.91,13.05,3.08a45.59,45.59,0,0,1,13.71,6.73,8.85,8.85,0,0,1,2.53,2.78c1.09,1.92.4,3.8-1.58,4.83-5.38,2.81-10.82,5.52-16.15,8.41-3.44,1.86-6.8,3.88-10.07,6a10.55,10.55,0,0,0-3,3.33c-1,1.73-.49,3.26,1.31,4.19,2.83,1.46,5.71,2.84,8.58,4.24,3.23,1.56,3.67,3.85,1.08,6.35-3.21,3.1-6.28,6.35-10.13,8.76C450.81,399.18,448.14,398,447.53,392.55ZM463,357.62c-2.48-2-4.76-3.87-7-5.71a1.9,1.9,0,0,0-.64-.31c-1.14-.32-2,.46-1.59,1.58a5.51,5.51,0,0,0,1.06,1.85,3.3,3.3,0,0,1,1,3c-.24,1.62.94,2.52,2.57,2.19A7.62,7.62,0,0,0,463,357.62Z" transform="translate(-0.48 -0.48)"/><path class="cls-1" d="M239.57,282.61A77.16,77.16,0,0,0,234.79,298c-1.08,4.65-2.43,9.24-3.8,13.81-1,3.39-3.84,4.56-7,4.89a28,28,0,0,1-5.49-.15,3.4,3.4,0,0,0-2.83.83,13.61,13.61,0,0,1-9.57,3.13,6.46,6.46,0,0,1-2.71-.74c-2.93-1.54-3.38-3.26-2-6.3a70.78,70.78,0,0,0,5.31-16.11,66.92,66.92,0,0,0,.65-9.08c0-1.52-.54-2-2.06-2.49a28.14,28.14,0,0,1-5.76-2.21,5.58,5.58,0,0,1-.64-9c.65-.58,1.19-1.28,1.78-1.91,2.35-2.5,4.68-5,7.06-7.47a4.18,4.18,0,0,1,1.46-.78,234.15,234.15,0,0,1,28.17-9.35,8.75,8.75,0,0,1,3.54-.34c3.38.53,6.73,1.26,10.08,2a3.37,3.37,0,0,1,2.43,2.42,11.84,11.84,0,0,1,.44,6.61c-.53,2.49-1.1,5-1.76,7.45a11.92,11.92,0,0,1-11.1,9.29Z" transform="translate(-0.48 -0.48)"/><path class="cls-1" d="M256.25,225.37a27.2,27.2,0,0,1,8.51,1.4c3.28.94,5.31,4,5.32,7.72a6.85,6.85,0,0,1-2.3,4.63c-6.54,6.9-14.45,10.4-24.08,9.28-3.5-.41-7-1-10.44-1.56a5.42,5.42,0,0,0-3.85.78,121.41,121.41,0,0,1-28.81,12.29,125.24,125.24,0,0,0-13.91,4.48,140,140,0,0,0-13.87,7c-2.85,1.58-5.44,3.64-8.23,5.35a5.59,5.59,0,0,1-5.91.41,4.28,4.28,0,0,1-1.87-5.92c2.91-4.68,5.88-9.32,9-13.87a15,15,0,0,1,7.08-5.54,5.59,5.59,0,0,0,.85-.42c12.33-7.36,25.89-11.29,39.8-14.15,5-1,9.56-3.12,14.26-4.88,6.67-2.5,13.27-5.16,20.4-6.06C250.86,226,253.56,225.7,256.25,225.37Z" transform="translate(-0.48 -0.48)"/><path class="cls-1" d="M571.53,350.39c.2-8.37,2.06-16.47,4.12-24.52,1.85-7.19,3.67-14.4,5.78-21.51,1.2-4,2.93-7.93,4.48-11.86a3.33,3.33,0,0,1,3.14-2.21,3.37,3.37,0,0,1,3.31,1.94,20,20,0,0,0,4.31,5.39,5.34,5.34,0,0,1,1.88,5.77,83.14,83.14,0,0,0-1.78,9.65,40,40,0,0,0-.15,5c-.21,10.26.84,20.44,2.1,30.59a61.79,61.79,0,0,0,2.09,8.35,37.71,37.71,0,0,1,.12,19.89,27,27,0,0,1-4,8.9c-1.6,2.25-2.86,2.46-5.31,1.21a16.82,16.82,0,0,1-3-1.36,16.61,16.61,0,0,1-3.24-3.46c-3.23-4.76-6.47-9.51-9.46-14.41A31.33,31.33,0,0,1,571.53,350.39Z" transform="translate(-0.48 -0.48)"/><path class="cls-1" d="M464,301.23,455.11,303c-3.44.67-6.86,1.5-10.33,2a16.29,16.29,0,0,1-11.59-2.88,3.57,3.57,0,0,1-1.62-4.13,22.21,22.21,0,0,1,4.11-8,24,24,0,0,1,9.06-7.29c9.65-4.82,19.27-9.7,28.93-14.49,2.43-1.21,5-2.2,7.48-3.21,2.93-1.18,5.07.31,5.2,3.46.11,2.56.32,5.1.46,7.65a6.2,6.2,0,0,0,3.38,5.46,86.26,86.26,0,0,0,8.94,4,4.42,4.42,0,0,1,3.06,3.54c1,4.47-.18,8.36-2.72,12-1.19,1.69-2.43,3.37-3.78,4.95-2.5,2.93-5.24,3.57-8.8,2.14-3.4-1.37-6.77-2.79-10.15-4.2A47.47,47.47,0,0,0,464,301.23Z" transform="translate(-0.48 -0.48)"/><path class="cls-1" d="M384.39,350.28a32,32,0,0,1-8.57,9.59,9.84,9.84,0,0,1-6.66,2.2,10.59,10.59,0,0,1-7.71-4.23c-.45-.55-.81-1.18-1.28-1.86-1.4.81-2,2.21-2.93,3.39-3.15,4.11-7.07,6.94-12.49,6.86a10,10,0,0,1-9.27-7.94,5.16,5.16,0,0,0-.23-.66c-1.45-.13-2.86-.2-4.26-.41a8.61,8.61,0,0,1-6-4,4.57,4.57,0,0,1,2.3-7.13,10.28,10.28,0,0,0,1.33-.54c8.39-4.21,17.37-6.36,26.59-7.64,6.56-.91,13.14-1.75,19.7-2.61a95.38,95.38,0,0,1,29.59.87c2,.36,3.1,1.29,3.37,2.88s-.63,3.09-2.6,3.81a11.63,11.63,0,0,0-5.1,3.79c-1.46,1.79-3.12,3.42-4.73,5.08a6.24,6.24,0,0,1-8.83.45C386,351.62,385.29,351.05,384.39,350.28Z" transform="translate(-0.48 -0.48)"/><path class="cls-1" d="M604.89,331.62A165.08,165.08,0,0,1,607.21,309c.44-2.84,2.39-4.07,5.19-3.44s4.52,2,5.15,4.95c.76,3.49,2.21,6.86,2.71,10.37,1.06,7.41,3.41,14.45,5.52,21.56,2.19,7.43,4.55,14.82,6.5,22.31a57.19,57.19,0,0,1,.91,22.61,16.06,16.06,0,0,1-3.82,8.64,5.06,5.06,0,0,1-6.88.9c-2.56-1.66-3.87-4.16-4.84-6.93a252.51,252.51,0,0,1-10-37c-.56-3-1.36-5.94-1.73-8.94C605.44,339.9,605.23,335.75,604.89,331.62Z" transform="translate(-0.48 -0.48)"/><path class="cls-1" d="M602.77,248.18a17.61,17.61,0,0,1-11.51-3.52c-2.55-1.91-3.53-1.7-6.22.08q-4.8,3.18-9.73,6.14-6.67,4-13.44,7.89c-2.08,1.19-3.45,1-4.88-.76a12.14,12.14,0,0,0-9.43-4.5c-2.63-.09-5.28.26-7.91.15a32.25,32.25,0,0,1-7.07-.94c-2.46-.66-4.56-5-3.55-7.3a7.2,7.2,0,0,1,3-3.22c5.49-2.95,11.09-5.69,16.66-8.48a40.93,40.93,0,0,1,5-2.27,62.68,62.68,0,0,1,8-2.31,53,53,0,0,1,6.68-.62c2.07-.17,4.15-.27,6.21-.46a49,49,0,0,1,23.32,3c5,2.05,10,4.36,15,6.41,2.44,1,3,3,3.23,5.16.18,1.6-1.29,3.28-3.34,3.93A28.07,28.07,0,0,1,602.77,248.18Z" transform="translate(-0.48 -0.48)"/><path class="cls-1" d="M282.71,312.78l-2.91,1a14.33,14.33,0,0,1-6.34,1c-3.76-.41-6-2.53-5.78-6.49,0-.39,0-.78,0-1.23-4.35-1.3-6.52-4.14-6.17-8.74-.78-.37-1.5-.69-2.2-1.05-5.47-2.81-6.69-10.06-2-14,3.29-2.78,4.54-6.26,5.31-10.1a18.86,18.86,0,0,0,0-5c-.13-2.07-.49-4.12-.61-6.19a4.87,4.87,0,0,1,.53-2.29c.68-1.39,1.64-2.79,3.34-2.73s2.61,1.19,3.47,2.58a163,163,0,0,0,12.39,17.64,152,152,0,0,1,12,15.82,24.26,24.26,0,0,0,5.5,5.63c2.39,1.94,3.74,4.53,5.21,7.07.94,1.64.1,4.46-1.57,5.56-1.19.8-2.51,1.41-3.74,2.14s-2.58,1.55-3.81,2.41c-1.77,1.24-3.48,2.56-5.22,3.83a4.62,4.62,0,0,1-5.2.44c-1.77-1-2.23-2.82-2.4-4.7A21.69,21.69,0,0,1,282.71,312.78Z" transform="translate(-0.48 -0.48)"/><path class="cls-1" d="M70.2,318.82l-4,.34a4.35,4.35,0,0,1-3.79-1.68c-1.54-1.76-1.45-3.81.35-5.25,7.74-6.19,15.16-12.78,23.37-18.37a267.43,267.43,0,0,1,41.56-23.35c5.18-2.32,10.34-4.66,15.52-7,1.45-.65,2.93-1.24,4.42-1.8a3.31,3.31,0,0,1,3.69,1,3.24,3.24,0,0,1,.32,3.81c-1.45,2.74-2.89,5.49-4.36,8.23a5.84,5.84,0,0,1-3.15,3.12,7.09,7.09,0,0,0-2,1.35,168.09,168.09,0,0,1-25.39,17.61c-8.94,5-17.9,9.92-27,14.62-4.82,2.5-9.88,4.52-14.89,6.62a26.8,26.8,0,0,1-4.6,1.08Z" transform="translate(-0.48 -0.48)"/><path class="cls-1" d="M387.08,436.86c-5.12-.34-8.47-2.05-10.64-5.73-1-1.72-1.95-3.48-3-5.2-1.43-2.42-3.35-4-6.37-3.93a5.38,5.38,0,0,1-2.72-.77,3.27,3.27,0,0,1,.25-5.83,19.19,19.19,0,0,1,5.1-1.88,17.48,17.48,0,0,0,8.88-3.92,13.28,13.28,0,0,0,2.82-3.22c1.65-2.8,4.2-4,6.92-2.4,5.15,3.11,10.63,2.55,16.07,1.84,2-.27,3.92-1.67,5.79-2.71,2.5-1.4,4.92-3,7.38-4.44a6.86,6.86,0,0,1,5.55-.53c1.62.43,3.23.88,4.86,1.25a9.22,9.22,0,0,1,5,3.09,2.94,2.94,0,0,1,.51,3.56c-1.14,2-2.1,4.23-3.68,5.83-10.21,10.36-21.59,19-35.76,23.26C391.5,435.91,388.84,436.43,387.08,436.86Z" transform="translate(-0.48 -0.48)"/><path class="cls-1" d="M101.74,347.05a10.26,10.26,0,0,0,1.73-.42c4.66-1.89,9.27-3.91,14-5.67a75.68,75.68,0,0,1,7.62-2c1.16-.3,2.32-.59,3.49-.85a3.42,3.42,0,0,1,3.87,1.69,3.26,3.26,0,0,1-.67,4,13.32,13.32,0,0,1-1.41,1.3c-13.72,11.28-27.45,22.54-42.12,32.58C79.7,383.43,70.51,388.14,61.41,393a30.59,30.59,0,0,1-4.92,1.86,8.87,8.87,0,0,1-2.35.37,3.38,3.38,0,0,1-3.59-1.88,3.63,3.63,0,0,1,.55-3.82c.92-1.29,1.56-2.77,2.4-4.11a69.6,69.6,0,0,1,11-12.92,161.62,161.62,0,0,1,33-24.57C98.76,347.25,99.93,346.53,101.74,347.05Z" transform="translate(-0.48 -0.48)"/><path class="cls-1" d="M355.84,405.2c-2.87,2.06-5.54,4.32-9.27,3-3.35-1.22-6-3.1-5.9-7.39-.85.37-1.56.66-2.25,1a10.52,10.52,0,0,1-5.59.95,3.46,3.46,0,0,1-3.27-2.68,6.12,6.12,0,0,1,0-4.22c.38-.95.71-1.93,1.06-2.89-1.26-1.09-2.52-2.07-3.65-3.18a3.7,3.7,0,0,1-.22-5.54,7.31,7.31,0,0,1,7.13-2.49c6.07.94,11.3-1.25,16.28-4.29a18.77,18.77,0,0,0,2.87-2.84,48,48,0,0,1,5.17-4.93,6,6,0,0,1,8.05.86,9.89,9.89,0,0,1,1.8,4.08,2.93,2.93,0,0,0,2.54,2.7,9.79,9.79,0,0,1,2.72.91c3.91,2.1,4.14,4.69,2.66,7.69a8.08,8.08,0,0,1-.94,1.39,2.69,2.69,0,0,0-.29,2.81c2.53,7.79-.53,17.2-9.86,18.65C360.93,409.36,358.69,408.59,355.84,405.2Z" transform="translate(-0.48 -0.48)"/><path class="cls-1" d="M483.38,324.23a33.13,33.13,0,0,1,.23,4.76,27.22,27.22,0,0,1-1.13,6.3c-.71,2.09-3.37,2.84-5.48,1.82-1.87-.91-3.67-2-5.5-2.93A65.14,65.14,0,0,0,455,328.56a37.59,37.59,0,0,0-9.07-.5A141,141,0,0,0,422.14,331a28.33,28.33,0,0,1-11.67-.17,20.65,20.65,0,0,1-2.28-.7,3.48,3.48,0,0,1-2.51-2.93c-.21-1.59.58-2.67,1.81-3.65,3-2.4,6-4.78,8.77-7.43a24.94,24.94,0,0,0,4.53-5.85c1.62-2.95,4.89-3.36,6.69-.52a7.42,7.42,0,0,0,4.31,2.81c4.94,1.64,9.92,1.38,14.95.71a117.65,117.65,0,0,1,22.51-.69c4.92.28,9.23,2.45,13.14,5.38a3.39,3.39,0,0,1,1.35,2.94c0,1.12-.13,2.23-.19,3.35Z" transform="translate(-0.48 -0.48)"/><path class="cls-1" d="M495.7,264.35a11.68,11.68,0,0,1,0-1.68c.22-2,.85-3.72,2.72-4.79,4.22-2.42,8.39-4.94,12.64-7.3a37.23,37.23,0,0,1,4.26-1.57c2.81-1.14,5-.64,6.53,3.53a17.18,17.18,0,0,1,.83,4c.42,3.65,3.44,5.67,6.46,6a10.13,10.13,0,0,0,6.94-1.17,6.59,6.59,0,0,1,6.41-.56c2.57,1.07,5.13,2.18,7.64,3.36a3.64,3.64,0,0,1-.28,6.64c-3.22,1.39-6.19,3.33-9.4,4.75-2.83,1.26-5.9,2-8.76,3.2-3.37,1.42-6.61,3.15-9.94,4.68a47.84,47.84,0,0,1-6.58,2.78c-3,.85-5.12-.89-5.41-4-.21-2.24-.54-2.62-2.75-3.34a33,33,0,0,1-4.95-1.77C497.09,274.57,495.21,270.28,495.7,264.35Z" transform="translate(-0.48 -0.48)"/><path class="cls-1" d="M302.29,388.37c-6.82.24-10.24-3.67-9.59-10.39-1.08,0-2.16.07-3.23,0a5.62,5.62,0,0,1-5.44-5.09,3.28,3.28,0,0,1,1.27-3.4c6.55-4.84,13.08-9.74,20.35-13.47a38,38,0,0,1,6.49-2.41c2.82-.85,4.51.32,4.93,3.17.5,3.34,1.05,3.92,4.33,4.77,2.08.54,4.15,1.16,6.23,1.73a8.06,8.06,0,0,1,4.25,3c1.6,2,2.34,4.19,1.06,6.65a6.46,6.46,0,0,1-5.58,3.55,23.21,23.21,0,0,0-3.54.5,4.72,4.72,0,0,0-3.39,2.78c-1.22,2.8-2.53,5.65-2.17,8.74a6.77,6.77,0,0,1-5.48,7.33c-2.7.58-5.5.53-7.63-1.6a13.37,13.37,0,0,1-2.12-3.39A14,14,0,0,1,302.29,388.37Z" transform="translate(-0.48 -0.48)"/><path class="cls-1" d="M235.77,331.74c-1-.76-1.93-1.42-2.83-2.06a4.35,4.35,0,0,1-1.89-3.43c-.28-3.17,0-3.72,2.93-5.22a8.09,8.09,0,0,0,4.39-5.07,111.71,111.71,0,0,0,3.52-14.41,11.41,11.41,0,0,1,1.26-3.58,3.34,3.34,0,0,1,6,0,4.63,4.63,0,0,1,.53,1.33c.75,3.37,3.1,5.39,6.08,6.59a4.46,4.46,0,0,1,3.13,4.8,14,14,0,0,0,1.58,6.68c.56,1.22,1.89,2.09,2.94,3.06.58.54,1.34.88,1.92,1.42a3.17,3.17,0,0,1,.46,4.53c-4.69,5.32-7.88,11.63-11.78,17.47-1.37,2-3,3.45-5.67,3.29-2.13-.12-4.36.38-6.39-.06A10,10,0,0,1,234,339C233.42,336.45,234.42,334.14,235.77,331.74Z" transform="translate(-0.48 -0.48)"/><path class="cls-1" d="M130.71,331.16a3.67,3.67,0,0,1-3.36-2.1,3.46,3.46,0,0,1,.6-3.8,102.25,102.25,0,0,1,26.61-23.93,45.36,45.36,0,0,0,8.32-6.82c2.52-2.54,4.72-5.41,7.07-8.12s4.8-5.58,7.27-8.3a4.81,4.81,0,0,1,2-1.21c3.07-1.09,6.3-1.72,9.13-3.45a1.88,1.88,0,0,1,2.43.09c.94.82.53,1.68.14,2.6a40.65,40.65,0,0,1-6,10.06,92.93,92.93,0,0,0-6.44,9.24A113.13,113.13,0,0,1,161.35,316a60.85,60.85,0,0,1-9,6.71c-2.57,1.72-5.35,3.15-8.06,4.67-3.45,1.94-7,3.43-11.1,3.39A13,13,0,0,0,130.71,331.16Z" transform="translate(-0.48 -0.48)"/><path class="cls-1" d="M99.69,337.55c-4.61.07-7.77-.82-10.33-3.32A6.72,6.72,0,0,1,90,323.8c2.37-1.76,4.84-3.38,7.28-5.06,12-8.29,24.08-16.62,36.94-23.64,1.89-1,3.61-2.38,5.49-3.43,3.76-2.11,7.57-4.14,11.39-6.15a3.3,3.3,0,0,1,4.59,1.19,3.38,3.38,0,0,1-1.05,4.46c-3.43,2.59-7,5-10.32,7.74-5.7,4.64-11.44,9.25-16.84,14.23-2.85,2.62-5,6-7.46,9-2.08,2.63-4.16,5.28-6.07,8C110.21,335.61,104.64,337.09,99.69,337.55Z" transform="translate(-0.48 -0.48)"/><path class="cls-1" d="M188.43,432.27a12.65,12.65,0,0,1-9.27-4.75,4.54,4.54,0,0,1-.11-6.11,9.74,9.74,0,0,1,5.29-3.55c6.5-1.63,13-3.41,19.57-4.62,5.4-1,10-3.65,14.89-5.82q8.32-3.72,16.51-7.69c4.74-2.3,9.37-4.8,14.06-7.2,1-.51,2-1,3-1.47a3.21,3.21,0,0,1,4.57,3.37c-.45,3.09-1.58,5.91-4.58,7.46q-3.41,1.75-6.9,3.32a48.62,48.62,0,0,0-12.88,8.56,51.84,51.84,0,0,1-8.92,6C216.25,424,208.2,427,200.2,430A29.62,29.62,0,0,1,188.43,432.27Z" transform="translate(-0.48 -0.48)"/><path class="cls-1" d="M567.9,266.86a3.28,3.28,0,0,1,3.13,1.66,3.08,3.08,0,0,1-.18,3.61c-1.2,1.58-2.5,3.1-3.76,4.64-.25.31-.54.59-.78.91-8.53,11.29-17,22.57-23.58,35.22a44.92,44.92,0,0,0-5.06,18.78,19.35,19.35,0,0,1-.54,4,3.83,3.83,0,0,1-4.71,3A17.82,17.82,0,0,1,522,332.78a4.91,4.91,0,0,1-.78-5.55,68.36,68.36,0,0,1,6.89-12.59c1.48-2.18,2.68-4.54,4.1-6.75a76,76,0,0,1,5.14-7.51c3.55-4.27,6.26-9.06,9.21-13.72,2.43-3.85,5.09-7.55,7.71-11.28,3.15-4.48,7.85-6.65,12.83-8.36A5.89,5.89,0,0,1,567.9,266.86Z" transform="translate(-0.48 -0.48)"/><path class="cls-1" d="M655.61,371.41c-.26,2.58-.51,5.76-.93,8.93a6.85,6.85,0,0,1-3.56,5.13,3.16,3.16,0,0,1-3.62-.07,7.33,7.33,0,0,1-2.93-3.38c-1.76-4.7-3.79-9.32-5.27-14.11-1.12-3.64-1.54-7.49-2.28-11.24a36.77,36.77,0,0,0-1.08-5.15c-1.9-5.39-2.45-11.06-3.72-16.58-1-4.27-2.13-8.5-3.34-12.71-.84-2.91-1.91-5.76-2.86-8.64-.46-1.4-.69-2.81.34-4.1,1.24-1.55,2.95-1.43,4.62-1.17a3.05,3.05,0,0,1,2.83,2.84c.14,2.57,1.47,4.7,2.28,7s1.78,4.28,2.49,6.48c1.4,4.38,3.86,8.24,6,12.23a119.2,119.2,0,0,1,9,21.64A48.07,48.07,0,0,1,655.61,371.41Z" transform="translate(-0.48 -0.48)"/><path class="cls-1" d="M556.68,343.11a16.58,16.58,0,0,1-8.42-2.83,3.46,3.46,0,0,1-1.61-3.3,28,28,0,0,1,.69-5.44c1.76-5.89,3.27-11.91,5.68-17.53,4.21-9.84,8.94-19.46,16.24-27.53,1.82-2,3.39-4.25,5.2-6.26s3.64-2.14,5.73-.17a9.2,9.2,0,0,1,1.63,1.73,2.92,2.92,0,0,1-.32,3.77c-5.06,5.16-7.06,11.88-9.46,18.38a127.44,127.44,0,0,0-7.24,31.19c0,.48-.13.95-.14,1.43,0,1.43.15,2.88-1,4a8.1,8.1,0,0,1-5.29,2.52C557.8,343.15,557.24,343.11,556.68,343.11Z" transform="translate(-0.48 -0.48)"/><path class="cls-1" d="M277.54,361.33c-7.57,4.36-12,.6-12.27-4.36a6.66,6.66,0,0,1-4.26-2.69c-1.42-1.67-1.59-2.87-.51-4.81.39-.7.93-1.3,1.38-2,2.18-3.24,4.41-6.45,6.53-9.73s4-6.37,5.92-9.58a5.58,5.58,0,0,1,3.2-2.38c2-.68,3.75,0,4.46,2a21.86,21.86,0,0,1,1.1,5.12,6.05,6.05,0,0,0,2,3.92,19.71,19.71,0,0,0,9.39,5c1.7.41,3.39.9,5.08,1.36,2.88.77,3.77,3.42,1.91,5.71a7.88,7.88,0,0,1-1.2,1.18l-14.56,11.32C282.88,363.61,281.47,363.61,277.54,361.33Z" transform="translate(-0.48 -0.48)"/><path class="cls-1" d="M327.65,305.18l-7.24-1.05a7.57,7.57,0,0,1-4.32-2.4c-5.62-5.68-11.31-11.3-16.79-17.11-4.27-4.54-8.38-9.24-12.34-14.05s-7.74-9.36-10.56-14.8c-.84-1.63-2-3.08-2.95-4.66a10.94,10.94,0,0,1-1.1-2.38c-.89-2.85.1-5,2.92-6.56a5.3,5.3,0,0,1,6.27,1.53,3.37,3.37,0,0,1,.28.38c2.49,3.81,5,7.63,7.47,11.43a41.91,41.91,0,0,0,2.67,3.67c5.3,6.39,11.16,12.32,16,19.12A51.49,51.49,0,0,0,323.22,293a63.81,63.81,0,0,1,7.48,5.93,3.41,3.41,0,0,1,.9,3.93A4,4,0,0,1,327.65,305.18Z" transform="translate(-0.48 -0.48)"/><path class="cls-1" d="M304.35,409.26a3.94,3.94,0,0,1,4.17-4,22.91,22.91,0,0,0,7.25-1.44,6.34,6.34,0,0,1,6.9,1.16c2.82,2.43,6.3,3.72,9.78,4.94,1.81.64,3.56,1.4,5.35,2.09,3.35,1.29,6.67,2.64,10.06,3.83a13.3,13.3,0,0,0,3.53.47c2.15.12,3.6,1.27,3.62,3.35s.3,3.86,1.77,5.29a12.33,12.33,0,0,0,6.81,3.28,20.63,20.63,0,0,1,2.36.34,3.45,3.45,0,0,1,2.66,3.3,3.2,3.2,0,0,1-2.54,3.34,10.76,10.76,0,0,1-3.75.26c-4-.46-7.68-2.1-11.38-3.62-3.54-1.45-7.08-2.92-10.68-4.22-8.1-2.92-16.25-5.69-24.35-8.63-2.54-.92-5-2.16-7.45-3.29A6.45,6.45,0,0,1,304.35,409.26Z" transform="translate(-0.48 -0.48)"/><path class="cls-1" d="M308.22,333.12a17.48,17.48,0,0,1-9,2.08,10,10,0,0,1-3.48-.8c-3.21-1.54-4.22-6.45-2-9.28a4.65,4.65,0,0,1,1.08-.93,4.44,4.44,0,0,1,1.08-.5,51.27,51.27,0,0,0,15.45-9c2.69-2.22,6-3.72,9.76-3.17,2.76.41,4.38,1.76,4.83,4.48.33,2,.68,3.94.87,5.93a2.87,2.87,0,0,0,2.24,2.75c1.22.38,2.45.72,3.65,1.16a16.91,16.91,0,0,1,3.28,1.44c2.27,1.44,2.46,3.85.47,5.61a14.85,14.85,0,0,1-3,2c-3.39,1.78-6.83,3.48-10.24,5.21a56.85,56.85,0,0,1-5.34,2.7c-5.34,2.08-8.84-.77-9.71-5.83A25.83,25.83,0,0,1,308.22,333.12Z" transform="translate(-0.48 -0.48)"/><path class="cls-1" d="M631.27,276.68c-2.06.63-4.1,1.3-6.18,1.88a14.87,14.87,0,0,1-2.83.42,5.25,5.25,0,0,1-6-6c0-.38,0-.78,0-1.34h-2.37c-3.3,0-5.31-3.2-3.43-5.92a28.83,28.83,0,0,0,4.44-11.25,3.36,3.36,0,0,1,2.85-2.86,11.73,11.73,0,0,0,4.92-2.3c2.1-1.57,3.28-1.47,5.39.13a70.57,70.57,0,0,1,13.33,12.68,33.89,33.89,0,0,1,5.39,9.53,5,5,0,0,1-1.46,6.06c-3.17,2.69-8.21,3.72-11.75,1.18-.85-.61-1.8-1.08-2.71-1.61Z" transform="translate(-0.48 -0.48)"/><path class="cls-1" d="M510,378.43c-.15,1.67-.24,3.35-.46,5a3.2,3.2,0,0,1-2.65,3,3.34,3.34,0,0,1-3.67-1.65c-2-3-5-4-8.43-4.15s-7-.15-10.52-.42a14.3,14.3,0,0,1-4.82-1.2,26.29,26.29,0,0,0-8.48-2.36,14.78,14.78,0,0,1-2.82-.53,3.22,3.22,0,0,1-2.38-3,3,3,0,0,1,1.8-3.13,52.59,52.59,0,0,1,6.38-2.74,51.55,51.55,0,0,0,17.37-9.36c2.8-2.29,3.78-2.34,6.85-.39a32.16,32.16,0,0,1,5.53,4.14C507.88,365.81,510.18,370.92,510,378.43Z" transform="translate(-0.48 -0.48)"/><path class="cls-1" d="M407.27,392.79a2.59,2.59,0,0,0-.14.45c-.31,3.93-2.32,5-5.73,3.15a3.16,3.16,0,0,0-2-.27c-4,.86-7.8-.13-11.4-1.8a8.23,8.23,0,0,1-4.19-8.65,29.81,29.81,0,0,1,1.09-4.15c.46-1.36,1.12-2.65,1.75-4.12-.59-.22-1.16-.47-1.74-.66a9.22,9.22,0,0,1-5.37-4.87,5.79,5.79,0,0,1,.27-5.3c1.26-2.64,3.59-4,6.17-5a13.53,13.53,0,0,1,9.13-.58c2.19.64,2.94,1.53,2.91,3.77a5.82,5.82,0,0,0,1.67,4.33,19.81,19.81,0,0,1,1.36,1.67c1.63,2.22,2.17,4.53.87,7.16-.94,1.9-.82,2.15,1,3.25,1,.61,2.19,1,3.22,1.56a19.73,19.73,0,0,1,4,2.59c2.13,2,1.91,4-.43,5.86C408.89,391.76,408.06,392.25,407.27,392.79Z" transform="translate(-0.48 -0.48)"/><path class="cls-1" d="M76.75,336.63c1.31.52,2.54,1,3.75,1.5,1,.44,2,1,3,1.46,3.14,1.58,3.36,4,.84,6.43-6.06,5.79-13.2,10.06-20.17,14.55-5.91,3.81-11.82,7.64-17.9,11.16a65.93,65.93,0,0,1-9.46,4,3.16,3.16,0,0,1-3.79-1.3,3.32,3.32,0,0,1,.23-4,46.53,46.53,0,0,1,5.15-5.35c6.55-5.49,13.21-10.85,19.84-16.25,3-2.42,5.94-4.86,9-7.2a40.37,40.37,0,0,1,5.15-3.47A27.61,27.61,0,0,1,76.75,336.63Z" transform="translate(-0.48 -0.48)"/><path class="cls-1" d="M655,305.93a49.7,49.7,0,0,1,2-6.28c1.26-2.7,4.65-2.87,6.52-.45a26,26,0,0,1,1.86,3.08c1.62,2.85,3.33,5.65,4.8,8.58,3.78,7.57,7.51,15.18,8.76,23.71.29,2,1,3.84,1.54,5.78.55,2.15,1.06,4.32,1.54,6.49a5.62,5.62,0,0,1-1.07,4.31c-1.52,2.39-4.19,2.31-5.93.12-7-8.88-10.83-19.31-14.71-29.72-1.08-2.92-2.35-5.78-3.37-8.72C656.1,310.58,655.58,308.25,655,305.93Z" transform="translate(-0.48 -0.48)"/><path class="cls-1" d="M263.87,391.43a22.23,22.23,0,0,1,2.22-8.73,10.6,10.6,0,0,1,6.56-5.25c2.2-.73,4.06.27,5.05,2.44a7.21,7.21,0,0,0,3.72,3.86,26.83,26.83,0,0,1,2.69,1.56,7.7,7.7,0,0,1,3.61,4.27,10.11,10.11,0,0,0,4.84,5.72c1.46.82,2.91,1.65,4.37,2.46a3.28,3.28,0,0,1,1.46,4.84c-.79,1.47-1.57,2.95-2.42,4.39a3.26,3.26,0,0,1-4,1.82q-7.19-1.8-14.34-3.72a26.93,26.93,0,0,1-10.06-5.38A10.19,10.19,0,0,1,263.87,391.43Z" transform="translate(-0.48 -0.48)"/><path class="cls-1" d="M212.31,447.11c-3.31-.28-6.22-1.13-8.58-3.49-1.92-1.92-1.85-4.38.39-5.93a24.74,24.74,0,0,1,4.23-2.23c1.76-.75,3.63-1.25,5.39-2,3.28-1.45,6.52-3,9.76-4.53,4-1.88,7.94-3.78,11.91-5.66.5-.24,1-.45,1.54-.65l3.93-1.51a70.88,70.88,0,0,1,6,3.85c1.1.86.82,3.34-.27,4.11-3.78,2.67-7.54,5.38-11.45,7.85a77.19,77.19,0,0,1-8.07,4.21c-3.39,1.6-6.83,3.11-10.29,4.56C215.38,446.28,213.82,446.64,212.31,447.11Z" transform="translate(-0.48 -0.48)"/><path class="cls-1" d="M612.35,294.67c-.52.07-1,.1-1.46.21-4.22,1-9.2-2.13-10.25-6.89a3.59,3.59,0,0,0-2.87-3.2c-3.37-.94-4-3.6-1.66-6.13.81-.88,1.58-1.8,2.33-2.73a3.49,3.49,0,0,1,5.41-.56c.48.4.89.9,1.34,1.36a6.27,6.27,0,0,0,1.19,1.17c2.33,1.37,4.55,2.74,5.81,5.38.38.8,1.82,1.23,2.87,1.54a19.4,19.4,0,0,0,8.93.7c3.69-.63,5,.18,6.44,3.66.4,1,.84,1.9,1.17,2.88,1.51,4.51-1.05,8.29-5.78,8.91-5,.67-8.75-1.68-12.19-4.86A18.18,18.18,0,0,1,612.35,294.67Z" transform="translate(-0.48 -0.48)"/><path class="cls-1" d="M376.47,329.11c-1.87-.1-3.23-.13-4.58-.25-5.3-.47-10.54.17-15.78.77a6.45,6.45,0,0,1-5.83-2c-1.44-1.49-3.07-2.8-4.65-4.14a20,20,0,0,0-5.8-3.32,24.7,24.7,0,0,1-3.79-2,3.22,3.22,0,0,1-1.61-3.68c.34-1.48,1.33-2.24,3.08-2.57,3.39-.64,6.69,0,9.95.79,3.5.81,6.94,1.87,10.38,2.9,1.68.51,3.29,1.25,5,1.83,3.08,1.07,6.17,2.15,9.28,3.14,2.12.67,4.29,1.15,6.42,1.77a3.32,3.32,0,0,1,.05,6.4A16.13,16.13,0,0,1,376.47,329.11Z" transform="translate(-0.48 -0.48)"/><path class="cls-1" d="M234,454.79a38.39,38.39,0,0,1-4.75-.77,3.28,3.28,0,0,1-1.35-5.57,9.75,9.75,0,0,1,2.5-1.83c3.07-1.54,6.24-2.88,9.26-4.51s5.64-3.31,8.39-5.09c3-2,5.94-4,8.91-6.06a6.27,6.27,0,0,1,3.86-1c1.84.05,3.68,0,5.51.1s2.08.61,2.16,2.24a4.66,4.66,0,0,1-1.67,4c-4,3.4-8,6.85-12.09,10.22a15.9,15.9,0,0,1-3.06,1.88,93.9,93.9,0,0,1-9.5,4.55A58.61,58.61,0,0,1,234,454.79Z" transform="translate(-0.48 -0.48)"/><path class="cls-1" d="M511.63,315.84c-3.3.2-5.95-1.4-8.13-3.94a3.13,3.13,0,0,1-.1-4.36A16.36,16.36,0,0,1,506,305c7.71-6.08,15.45-12.11,23.18-18.16a9.85,9.85,0,0,1,1.37-.95,3.33,3.33,0,0,1,3.82.23,3.09,3.09,0,0,1,1,3.86,38.12,38.12,0,0,1-2.9,4.93c-3.46,5.17-7.17,10.18-10.42,15.48C519.57,314.38,516.2,315.89,511.63,315.84Z" transform="translate(-0.48 -0.48)"/><path class="cls-1" d="M585.87,253a23.19,23.19,0,0,1,4.16,1.68,9.46,9.46,0,0,0,8,1.4c1.54-.42,3.1-.74,4.66-1.08a3.24,3.24,0,0,1,4.15,3.55,6.35,6.35,0,0,1-1,2.88,13.91,13.91,0,0,1-7,5.47,11.63,11.63,0,0,0-4.87,2.95c-.27.28-.59.53-.85.84-3.45,4.11-8.41,3-12,1.09a6.43,6.43,0,0,1-3.3-5.51c-.1-1.52-.18-3-.3-4.54a5.28,5.28,0,0,1,2.15-5c1.16-.84,2.25-1.8,3.46-2.56A17.3,17.3,0,0,1,585.87,253Z" transform="translate(-0.48 -0.48)"/><path class="cls-1" d="M262.2,421.59c-1.8.6-3.35,1.22-4.95,1.61a4.22,4.22,0,0,1-2.33-.18c-2.93-1-3.66-2.49-3-5.91a15.62,15.62,0,0,1-1.6.29,28.4,28.4,0,0,1-4.5.23,3.16,3.16,0,0,1-2.91-3.24,3.23,3.23,0,0,1,3.11-3.33c3.9,0,7-1.74,10-4,2.82-2.1,3.95-2,6.92-.21,2,1.21,4.08,2.17,6.11,3.29,1.46.81,2.9,1.67,4.31,2.56a5.44,5.44,0,0,1,1.43,1.27c2,2.65,2.39,5.12-.22,7.37a18.06,18.06,0,0,1-8.41,3.78,3,3,0,0,1-3.2-1.65A14,14,0,0,1,262.2,421.59Z" transform="translate(-0.48 -0.48)"/><path class="cls-1" d="M645,302.72c-1.26,1.13-2.31,2.1-3.4,3a3.53,3.53,0,0,1-4.79.1,3.34,3.34,0,0,1-.56-4.54c.48-.82,1.17-1.51,1.71-2.29a23,23,0,0,0,1.61-2.64,1.65,1.65,0,0,0-.48-2.31c-1.66-1.27-1.61-2.92-.92-4.74a3.74,3.74,0,0,1,4-2.77,9,9,0,0,0,5.85-1.68,3.57,3.57,0,0,1,4.07,0,5.25,5.25,0,0,1,1.94,7.7,10.5,10.5,0,0,0-1.54,6.11,18.34,18.34,0,0,1-.17,3.32c-.61,3.06-3.33,4-5.76,2.1C646,303.7,645.59,303.25,645,302.72Z" transform="translate(-0.48 -0.48)"/><path class="cls-1" d="M186.18,313.9c-.77.8-1.55,1.71-2.43,2.49a15.49,15.49,0,0,1-2.84,2.15,3.25,3.25,0,0,1-4.41-1.11,3.34,3.34,0,0,1,.86-4.48c4.82-3.72,8-8.63,10.31-14.13a18.69,18.69,0,0,0,.84-2.49,9.36,9.36,0,0,1,4-5.43,3.31,3.31,0,0,1,5.31,1.88,5.55,5.55,0,0,1,.36,2.33c-.79,5.63-2,11.13-4.85,16.16-.11.21-.23.42-.35.63C191,315.11,189.69,315.52,186.18,313.9Z" transform="translate(-0.48 -0.48)"/><path class="cls-1" d="M295,429.88c-4.21,4.18-6,2.7-7.83-.45a17,17,0,0,1-1.85,1.06,3.33,3.33,0,0,1-3.53-5.58c.53-.48,1.16-.85,1.71-1.31a6.84,6.84,0,0,0,2.35-3.8c.71-3,2.41-4.21,5.43-4.3,2.26-.07,4.16,1,6.18,1.73,4,1.44,5.13,4.5,4.77,8.36a11.21,11.21,0,0,1-.93,3.66c-1.24,2.59-3.39,3-5.65,1.19C295.41,430.29,295.24,430.13,295,429.88Z" transform="translate(-0.48 -0.48)"/><path class="cls-1" d="M642.23,314.3c0-2.1,1.74-4.34,3.55-4.66a4.42,4.42,0,0,1,4.81,3c1.06,4.24,2.39,8.42,3.5,12.65a3.25,3.25,0,0,1-2.92,4.11c-2,.26-4.72-1-5.36-2.85-1.29-3.76-2.35-7.6-3.49-11.41A4,4,0,0,1,642.23,314.3Z" transform="translate(-0.48 -0.48)"/><path d="M463,357.62a7.62,7.62,0,0,1-4.66,2.57c-1.63.33-2.81-.57-2.57-2.19a3.3,3.3,0,0,0-1-3,5.51,5.51,0,0,1-1.06-1.85c-.37-1.12.45-1.9,1.59-1.58a1.9,1.9,0,0,1,.64.31C458.2,353.75,460.48,355.61,463,357.62Z" transform="translate(-0.48 -0.48)"/></svg>