<svg id="Layer_1" data-name="Layer 1" xmlns="http://www.w3.org/2000/svg" viewBox="0 0 720 612"><defs><style>.cls-1{fill:none;stroke:#000;stroke-miterlimit:10;stroke-width:0.01px;}</style></defs><path d="M.48,612.48V.48h720v612ZM208,175.13a27.67,27.67,0,0,0,4.27,0c2.6-.39,5.19-1,7.75-1.56,4-1,7.46-3.09,10.91-5.33,6.45-4.21,9.29-10.16,9-17.64-.13-2.92-1.17-5.71-4.11-7.14a31.69,31.69,0,0,0-5.13-2c-10.15-2.82-20.15-6.17-30.49-8.38a74.79,74.79,0,0,0-21.64-1.79,149.24,149.24,0,0,0-35.33,7.38c-2.35.78-3.7,2.11-3.81,4.59a14.47,14.47,0,0,0,0,2.63c.88,6.89,4,12.4,10.09,16a43.54,43.54,0,0,0,11.71,4.78c3.95,1,7.84,2.22,11.73,3.4a7.86,7.86,0,0,1,5.34,5.69,16.27,16.27,0,0,1,.58,6.4,3.6,3.6,0,0,0,4.94,3.94,9.91,9.91,0,0,0,2.54-1.32c2.88-2,5.72-4.08,8.59-6.12A18.39,18.39,0,0,1,208,175.13ZM272,257.75c6.92.08,7.87-.15,13.5-3,.5-.25,1-.51,1.52-.72,8.11-3.36,13.26-9.66,16.43-17.5a29,29,0,0,0,.48-20.87c-1.66-4.81-6.9-9.7-14-8.2-.78.17-1.55.37-2.32.6a51.56,51.56,0,0,0-14.54,6.65c-5.5,3.73-11.59,5.25-18,6a16.28,16.28,0,0,1-3.32-.23c-2.38-.21-4.76-.63-7.13-.62-6,0-11.29,2-15.21,6.79-1.61,2-3.15,4-4.58,6.14a13.52,13.52,0,0,0-2.16,11.41c1.25,4.76,3.48,8.82,7.84,11.6,3.7,2.35,7.2,5,10.7,7.66a38.91,38.91,0,0,1,4.6,4.2c3.45,3.61,5.6,3.29,7.59-1.21,1.5-3.39,3.86-6,7.47-7C264.77,258.51,268.59,257,272,257.75ZM422.89,380.13c-.53-2.23-1.09-4.88-1.77-7.49-.45-1.69-1.26-3.31-1.55-5-.65-3.88-2.71-7-5.11-9.89-2.84-3.42-5.37-3.73-9.28-1.63a30.8,30.8,0,0,1-4.4,1.81c-5.18,1.84-10.09.81-14.79-1.61a9.84,9.84,0,0,0-5.05-1.18,18.67,18.67,0,0,0-9.43,3.2c-6.15,3.9-9.87,9.34-9.64,16.81.16,5.1.89,10.18,1.28,15.27.37,4.79.72,9.57-.53,14.31-.73,2.78-1.34,5.6-2,8.4a3.32,3.32,0,0,0,1.25,3.63,3.37,3.37,0,0,0,3.84.17c.35-.19.67-.43,1-.64,4.62-2.7,9.63-1.94,12.78,3.22.79,1.29,1.83,2.43,2.6,3.73,2.45,4.11,10.75,5.24,14.12,3a11.31,11.31,0,0,0,2.23-1.76,13.68,13.68,0,0,0,3.21-8.36c.23-3.51.29-7,.48-10.54.13-2.47.12-5,2-7,3.32-3.5,7.08-6.17,12-7a6.8,6.8,0,0,0,5.91-5.81C422.41,384.11,422.58,382.36,422.89,380.13Zm155.84-189c-.06-.64-.11-1.27-.17-1.91-.31-3.45-2-5.61-5.43-6.4a50.51,50.51,0,0,0-7.78-1.37q-11.83-.85-23.7-1.37A14.7,14.7,0,0,1,532,175.8a54.36,54.36,0,0,1-7-8.46,17.55,17.55,0,0,1-3.3-8.1c-.92-6.65-1.84-13.3-2.85-19.94a28.77,28.77,0,0,0-3-9.83c-1.67-3-3.88-3.72-7-2.37A17.41,17.41,0,0,0,507,128c-2,1.18-2.5,2.62-1.56,4.84a41.61,41.61,0,0,1,3.4,12.68c.5,5.81.75,11.64,1,17.47a55.41,55.41,0,0,1-1.34,14.52c-1.07,4.67-2.16,9.34-3.21,14-1.36,6-1.95,12,0,18a6.76,6.76,0,0,1,.21,1.42,14.62,14.62,0,0,0,4.38,9.6c.85.85,1.56,1.84,2.42,2.66a14,14,0,0,0,11.8,4.08,41.31,41.31,0,0,0,6.64-2c1.29-.4,2.54-1,3.85-1.22a9.16,9.16,0,0,0,6.49-4.49,22.61,22.61,0,0,0,1.85-3.88c1.08-3.18,2-6.4,3-9.61.83-2.74,2.3-4.95,5.06-6s5.43-1.9,8.1-3a13.92,13.92,0,0,1,8-.58,33.8,33.8,0,0,0,5.9.76C577.28,197.4,579.06,195.39,578.73,191.12Zm-447-43.22c0-.24.05-.48.05-.72,0-3.94-1.91-5.5-5.66-4.17-5.54,2-10.22,5.17-13.39,10.3a7.65,7.65,0,0,0-.9,6c.61,2.74,2.29,4.9,3.69,7.21a14.36,14.36,0,0,1,2.11,7,12.06,12.06,0,0,1-3.23,8.55,19.76,19.76,0,0,0-4.94,13.4,38.87,38.87,0,0,0,2.23,12.69c2.14,6.51,6.8,10.3,13.45,11.53a55,55,0,0,0,7.17.43,11.21,11.21,0,0,0,9.33-4.05,22.78,22.78,0,0,1,2.12-2.27,77.4,77.4,0,0,1,6.87-5.57c3.64-2.44,7.52-4.51,11.24-6.85a21.17,21.17,0,0,0,7.76-8.62c1.7-3.43,1.21-8.51-1.24-10.82-2.78-2.62-5.68-5.21-9.33-6.62-2-.77-4.11-1.27-6.18-1.88-6.23-1.82-11.63-4.85-15.27-10.46-.82-1.27-1.82-2.43-2.66-3.69A20.17,20.17,0,0,1,131.72,147.9Zm25.62,202.57a14.7,14.7,0,0,0-10.55,5.37c-1.44,1.8-1.35,3.35.08,5.2a12.17,12.17,0,0,1,1.86,2.76c1.75,4.4,2.57,8.93,1.07,13.57-.81,2.5-1.87,4.92-2.89,7.35a6.78,6.78,0,0,1-3.65,3.64c-1.17.51-2.38.91-3.55,1.41a63.44,63.44,0,0,0-6.78,3c-4.35,2.49-7.31,6-8,11.26s.68,9.23,4.93,12.39a25.78,25.78,0,0,0,7.1,3.4,16.42,16.42,0,0,1,6.14,4c3.23,3.16,3.46,6.84,2.08,10.83-.39,1.13-1,2.19-1.41,3.3-.82,2.13-.43,3.4,1.33,4.86,2.26,1.87,5,2.48,7.77,2.82,4.32.54,7-1.6,6.73-6.08a27.68,27.68,0,0,1,.35-7.39c1.9-8.81,3.36-17.73,6.25-26.31a45,45,0,0,0,1.34-5.1c2.53-12,6.26-23.6,13.09-34,1.69-2.57.11-5.81-2.81-5.78a9.81,9.81,0,0,1-6.73-2.65c-1.93-1.68-3.82-3.4-5.73-5.09C163.15,351.33,160.48,350.63,157.34,350.47Zm23.95,1.87c4.68,0,6.48-.94,8.77-4.82a40.87,40.87,0,0,1,4.06-5.61c1.45-1.7,2.67-3.59,4-5.38,2.14-2.85,3.24-5.87,1.6-9.37a2,2,0,0,1-.13-.7,47.09,47.09,0,0,0-4.68-15.27,30.71,30.71,0,0,0-8.65-11,28.9,28.9,0,0,0-16.07-6.22c-9.09-.54-16.49,7.37-14.77,16.3a43.3,43.3,0,0,0,1.75,5.46c.35,1,.76,2.17-.4,2.77-3.27,1.7-6.65,2.83-10.28.94a8.77,8.77,0,0,0-6.95-.63c-3,.94-3.84,3.66-1.7,5.91a4.42,4.42,0,0,1,1.37,3.66,42.62,42.62,0,0,1-.72,4.48c-.47,2.26-1.22,4.48-1.51,6.76-.41,3.19-.48,6.4,1.74,9.15s4.1,2.76,6.39,0a16,16,0,0,1,10.77-5.55c4.34-.56,8.25.7,12,2.64a66.13,66.13,0,0,1,6.42,4.14A11.3,11.3,0,0,0,181.29,352.34Zm66.5-194.67h-.12c0,2.48-.11,5,0,7.43a13.92,13.92,0,0,0,5.84,11,23.35,23.35,0,0,0,3.81,2.46,91.48,91.48,0,0,0,9,3.78c4.32,1.45,8.72,2.63,13.1,3.86a6.8,6.8,0,0,1,3.55,2.31,15.77,15.77,0,0,1,2.86,4.93c1,2.83,3,3.75,5.87,2.82a7,7,0,0,0,2.33-1.17,40.7,40.7,0,0,0,4.91-4.54,59.54,59.54,0,0,0,12.38-24.37c1.67-6.65.48-13.17-2-19.48a7.07,7.07,0,0,0-.82-1.47A3.39,3.39,0,0,0,304,144a14.39,14.39,0,0,1-2.23.85c-7.71,1.79-15.41,3.65-23.43,3.14-.56,0-1.12.09-1.68.06a41,41,0,0,1-5-.4c-4.33-.79-8.61-1.81-12.94-2.54a51.07,51.07,0,0,0-7.62-.61c-2.7-.05-4,1.62-3.82,4.34C247.53,151.77,247.64,154.72,247.79,157.67ZM189.14,196c-.18,2.11,1.27,3.81,3.27,5s4.28,2.14,6.45,3.17a21.15,21.15,0,0,1,11.77,14.56c.54,2.07.62,4.26,1.07,6.36.54,2.5,2.53,3.47,4.91,2.62a6.64,6.64,0,0,0,3.42-2.85,47.92,47.92,0,0,1,8-9.48,18.79,18.79,0,0,1,7.44-4.2,56.5,56.5,0,0,1,13.91-2.23,104.93,104.93,0,0,0,12.15-1.15c4.48-.74,8.89-1.92,13.32-2.94,2.41-.55,3.42-2.28,2.76-4.67-.91-3.29-3.18-5.45-6-7.16a35.23,35.23,0,0,0-10.06-3.76c-3.14-.76-6.09-1.78-8.54-4-2.12-1.94-4.41-3.69-6.5-5.67a10.6,10.6,0,0,1-2.12-3.1c-1.05-2.16-3-3-5.11-1.93-1.9,1-3.71,2.17-5.54,3.3-3.43,2.14-6.95,3.75-11.2,3.53a41.07,41.07,0,0,0-18.52,3.16A119.74,119.74,0,0,0,191.58,191,5.27,5.27,0,0,0,189.14,196Zm39.57,122.48-.39-.07a31.58,31.58,0,0,1,.61-3.25,32.16,32.16,0,0,1,5.21-10.19c1.71-2.31,3.94-2.79,6.46-1.31,1.1.65,2.13,1.42,3.24,2.05a10.47,10.47,0,0,0,2.4,1c3.68.93,8.79-3.21,7.56-8.28-.33-1.4-.73-2.79-.92-4.21a34.53,34.53,0,0,0-7.43-16.89,22.2,22.2,0,0,0-4.55-4.53,114.89,114.89,0,0,0-10.49-6.69,79.88,79.88,0,0,0-8.08-3.57,3.6,3.6,0,0,0-4.17.94c-1.09,1.05-2.16,2.13-3.3,3.13-6.54,5.72-12.42,12.24-20,16.77a3.86,3.86,0,0,0-.38.3,7.91,7.91,0,0,0-2.8,8.79,17,17,0,0,0,4.73,8.21,13.9,13.9,0,0,1,3.54,5.31c.51,1.35,1.1,2.66,1.64,4a11.44,11.44,0,0,0,7,7c5.09,1.84,10.46,2.93,15.24,5.67a3,3,0,0,0,4.28-1.42A11.26,11.26,0,0,0,228.71,318.43Zm-177.46-60c.12,2.15.17,4.31.37,6.46.9,9.75,3.38,19.18,6.11,28.54a47.55,47.55,0,0,0,5.58,11.9c1.41,2.26,3.27,2.79,5.52,1.47C73,304.37,77.37,304,82,304.6a37.51,37.51,0,0,0,7.64.2c3.61-.27,6.44-2.2,8.74-4.91a6.5,6.5,0,0,0-1.75-9.74,26.89,26.89,0,0,0-4.93-1.72c-1.38-.38-2.82-.54-4.23-.78a3.5,3.5,0,0,1-2.64-2.2A8.36,8.36,0,0,1,86.11,276c3.66-4.45,4.5-9.49,3.29-14.87A31.92,31.92,0,0,0,81.59,246a44.3,44.3,0,0,0-10.23-7.85,17.83,17.83,0,0,0-12-2.46c-1.93.3-3.92.55-4.72,3A58.78,58.78,0,0,0,51.25,258.41ZM104,383a21.14,21.14,0,0,1,14,5.28,16.68,16.68,0,0,0,2,1.36c2.22,1.36,3,1.19,5.24-.24a33.48,33.48,0,0,1,6.32-3.33c4.79-1.74,8.19-5,9.48-9.73,1.62-6-.21-11.54-4-16.35-1.14-1.43-2.66-2.54-3.91-3.89-2.95-3.19-4.89-6.76-3.58-11.29.93-3.22,1.89-6.43,3-9.59,1.24-3.49-.25-6.6-3.91-7.16a9.91,9.91,0,0,0-4.65.58,16,16,0,0,0-6.87,4.68c-1.2,1.38-2.34,2.83-3.59,4.18-4.42,4.77-9.26,8-16.28,5.55-3.58-1.25-7.44-.93-11.18-.25a3.51,3.51,0,0,0-3,4.76,13,13,0,0,0,1.07,2.66,82.8,82.8,0,0,1,7.69,21.36c.73,3.19,1.44,6.39,2.27,9.56.69,2.65,2.76,3.82,5.08,2.74A10.11,10.11,0,0,1,104,383ZM359.17,238.71c-2.87-.1-4.47,2-3.63,4.74.38,1.22.74,2.45,1.07,3.68,1.69,6.38,4.87,11.68,10.38,15.6,5.3,3.77,11.31,5.51,17.47,6.93a3,3,0,0,0,3.79-1.81c1.38-3.53,4-6.18,6.41-8.9a33.28,33.28,0,0,1,11.72-8.55c5.78-2.47,10-6.75,13.47-11.89a18.05,18.05,0,0,0,2.9-9.28,73.63,73.63,0,0,0-.55-8.1,23.67,23.67,0,0,0-4.93-13.27c-2-2.64-4.45-4.38-8-3.84a9.49,9.49,0,0,0-6.09,3,36.83,36.83,0,0,0-4.08,5.59c-2.94,5.25-6.1,10.29-10.6,14.41a53.85,53.85,0,0,1-17.89,10.48,19.29,19.29,0,0,1-10.81,1.25Zm58.17,82.85a19.42,19.42,0,0,0-14.65,4.3c-5.09,4-7.94,9.53-9.38,15.76a9.67,9.67,0,0,0,.38,5.67c1.47,3.88,4.9,5.26,8.47,3.19a22,22,0,0,0,4.09-3.26c3.42-3.25,7.59-3.4,10.78,0a11.57,11.57,0,0,1,2.63,4.74,37.41,37.41,0,0,0,5.57,11.59,36,36,0,0,1,4.67,9.13,8.41,8.41,0,0,1,.46,3.05A36,36,0,0,1,428,387.18c-1.13,2.69.17,5.15,2.95,6a3.59,3.59,0,0,0,4.91-2.76c.12-.54.18-1.1.35-1.63A62.64,62.64,0,0,0,438.83,375c.54-6.53.05-13.09,1.33-19.59a79.74,79.74,0,0,1,9.68-25.4,136.44,136.44,0,0,0,9.14-17.9,3.37,3.37,0,0,0-3.27-4.76,7.81,7.81,0,0,0-.95.15,13.47,13.47,0,0,1-9.64-1.83,3.27,3.27,0,0,0-4.34.65c-.48.52-.85,1.16-1.28,1.73-2.38,3.11-4.73,6.24-7.17,9.3a5.21,5.21,0,0,1-2.22,1.75C425.78,320.49,421.38,321.66,417.34,321.56ZM323.79,209.42l0,.31a19.61,19.61,0,0,0,2.87,0c2.63-.4,5.09-1.28,6.09-4,1.06-2.92,1.88-5.94.94-9.12a5.31,5.31,0,0,1-.33-2.55c.83-3.51,1.78-7,4-9.94q3.7-4.86,7.73-9.48a51.76,51.76,0,0,1,11-9.17c2.65-1.72,3.22-3.46,2.62-6.53-.67-3.45-1.3-6.91-1.8-10.39a25.29,25.29,0,0,0-4.71-11.14,5.72,5.72,0,0,0-1.91-1.79c-3.48-1.76-7-3-11-1.65-6,2.05-12.17,3.91-18.22,5.95-3.24,1.09-3.81,2.71-2.52,5.91a54.37,54.37,0,0,1,2.71,7.65c.94,4,1.71,8.13.72,12.33a86.36,86.36,0,0,1-7.8,19.8,14.82,14.82,0,0,1-1.85,2.5c-1.73,2.09-3.47,4.18-5.26,6.23a13.63,13.63,0,0,1-2.09,1.93c-2.2,1.66-2.51,3.66-.63,5.7a14.46,14.46,0,0,1,3.94,7c.44,2.1,2.32,3.05,4.45,2.66.62-.11,1.22-.37,1.85-.49C317.68,210.52,320.74,210,323.79,209.42Zm107-28.25c-.57-3.95-1-7.92-1.78-11.83a21.64,21.64,0,0,0-2.09-6.09c-4.11-7.53-10.84-11.23-19.1-12.47a7.86,7.86,0,0,0-2.86.1,45.26,45.26,0,0,0-8.06,2.22c-6.17,2.8-12.65,5-18.15,9.18a23.31,23.31,0,0,1-2.51,1.38c-4.77,2.76-9.55,5.52-14.3,8.32a4.26,4.26,0,0,0-2.37,3.13c-.55,4.17.67,9.12,6.09,10.89a20.76,20.76,0,0,0,2.29.69A57.26,57.26,0,0,0,384.4,188a11.79,11.79,0,0,1,10,3.71,46,46,0,0,1,4.2,5.48c1.59,2.26,4.53,2.8,6.38.76,3-3.27,6.84-4.2,11-4.61,1.35-.14,2.71-.14,4.06-.32C426.34,192.11,430.87,187.05,430.79,181.17Zm99.62-52.07H529.2c-3.21,0-4.6,1.39-4.2,4.61a90.21,90.21,0,0,0,1.81,12,51.5,51.5,0,0,0,5.05,11.84,23.07,23.07,0,0,0,11,9.94c1.52.7,3.09,1.3,4.65,1.92,7.63,3,15.75,4.05,23.68,5.87a39.07,39.07,0,0,1,6.92,1.8c5.15,2.23,9.6,5.18,9.59,11.76a5.16,5.16,0,0,0,3.37,4.86,35.51,35.51,0,0,0,15.25,2.5,6.08,6.08,0,0,0,6-5.5,9.31,9.31,0,0,0-1.62-5.67,17.49,17.49,0,0,0-7.33-6.36c-3.18-1.66-6.47-3.11-9.76-4.55a32.77,32.77,0,0,1-17.12-16.93,62.23,62.23,0,0,0-4.34-7.13c-.59-.94-1.43-1.74-2-2.71-2.26-4-5.87-6.62-9.61-8.81a47.67,47.67,0,0,0-12.83-5.22,37,37,0,0,1-4.79-1.52A45,45,0,0,0,530.41,129.1Zm-448,181.71c-2.55.35-5.56.71-8.55,1.19a8.54,8.54,0,0,0-4.69,2.73,3.55,3.55,0,0,0-.9,4,79.08,79.08,0,0,0,3.54,7.85c1.56,2.88,3.42,5.59,5.12,8.39a3.72,3.72,0,0,0,3.34,2,59.65,59.65,0,0,0,14.49-1.68,27.46,27.46,0,0,0,14.85-9,18.48,18.48,0,0,1,11.2-6.48c.78-.13,1.52-.49,2.3-.68,3.9-.95,6-3.62,7.31-7.24a54.94,54.94,0,0,0,2.88-19.59c-.16-5.91-2.46-10.89-7.79-14.05a41.32,41.32,0,0,0-14.71-5.56c-4.74-.74-9.22.31-13.61,1.92a13.37,13.37,0,0,0-3.27,2,3.26,3.26,0,0,0-1.14,3.86,3.39,3.39,0,0,0,3.65,2.11,9.12,9.12,0,0,1,2.38-.1c5.29,1,9.44,4.5,10.27,10.27.5,3.48-.72,6.61-2,9.72C106,305,104.71,307.57,102,309c-3.88,2-7.76,3.7-12.34,2.58A55.67,55.67,0,0,0,82.44,310.81Zm267-15.08c-4.21-.16-7.52,1.55-10.5,3.94-3.8,3.06-5.14,9.86-2.63,14a24.77,24.77,0,0,0,2.06,2.92,16.52,16.52,0,0,1,4,8,23.93,23.93,0,0,0,2.16,6.31c3.68,7.71,7.5,15.36,11.24,23a4.27,4.27,0,0,0,4.1,2.75c1.89,0,2.84-1.19,3.51-2.77a8.89,8.89,0,0,1,4.58-4.72c4-1.8,8.08-2.43,12.33-.9,3.83,1.38,5.82.06,5.58-3.92a43.58,43.58,0,0,1,1.48-12.31,35.16,35.16,0,0,1,1.48-3.75,23.92,23.92,0,0,0,1.37-4.54c.57-4-1.1-7.13-3.79-10.12-3.2-3.54-6.91-4.81-11.38-3.77a15.21,15.21,0,0,1-7.07-.16,6,6,0,0,1-4-2.72c-.91-1.41-1.73-2.88-2.74-4.22C358.2,298.83,354.88,295.3,349.47,295.73ZM296.66,405c4.53-.36,9.08-.63,13.6-1.13a3.43,3.43,0,0,0,2.51-5.55,20.55,20.55,0,0,1-3-7,22.45,22.45,0,0,1-.49-9.75c.7-3.62.05-4.8-3.46-5.77a13.23,13.23,0,0,0-1.64-.33c-7.38-1-13.34-4.55-18.3-10a46.57,46.57,0,0,0-4.6-4.15c-3.91-3.27-11.41-3.79-16.74.42-7.31,5.78-12.92,12.79-16,21.68-.81,2.33-.78,4.62,1.06,6.47a30.9,30.9,0,0,0,15.31,9C275.28,401.94,285.68,404.82,296.66,405ZM471.18,144.43c0-1.11.07-2.24,0-3.35a3.32,3.32,0,0,0-3.21-3.27c-.63-.07-1.27,0-1.91,0-5.93-.37-11.55-1.59-16.11-5.79-1.17-1.08-2.44-2-3.63-3.12a11.48,11.48,0,0,0-10-2.86c-9.72,1.54-16.27,7.62-21.7,15.25a3.33,3.33,0,0,0,1.75,5.09,14.94,14.94,0,0,0,2.09.55,36.16,36.16,0,0,1,9.56,3.72,20.78,20.78,0,0,1,10.14,12.52c.53,1.75,1,3.54,1.34,5.34a4,4,0,0,0,3.44,3.48c.54.1,1.09.25,1.64.35a19.63,19.63,0,0,1,8.18,3.75,31,31,0,0,0,10.46,5.12c7.28,1.88,14.32-4.63,14.79-10.23.15-1.75.21-3.51.2-5.27a12.16,12.16,0,0,0-3.45-8.19A10.08,10.08,0,0,1,473,154.7,19.72,19.72,0,0,1,471.18,144.43ZM136.87,435c0-.64-.05-1.6-.16-2.55a7.2,7.2,0,0,0-4-6.11c-1.43-.69-2.9-1.33-4.31-2.06-1.77-.9-3.86-1.52-5.17-2.88-3.26-3.41-5.74-7.32-5.12-12.42a6.32,6.32,0,0,0,0-1.44c-.37-3.49-1.23-6.79-3.85-9.33a20.83,20.83,0,0,0-11.26-5.47,10.14,10.14,0,0,0-3.34.09c-3.38.61-4.24,1.86-4,5.28.33,5.75.76,11.49.85,17.24.16,11.1-1.52,22-3.92,32.8a92.89,92.89,0,0,0-1.6,10.66c-.32,3,2.42,4.76,5.09,3.36a21.29,21.29,0,0,0,2.72-1.93,8.16,8.16,0,0,1,1.52-1.14c4.86-2.05,9.7-4.17,15.06-4.61,2.94-.24,5.89-.56,8.82-.9a11.27,11.27,0,0,0,8-4.69A23.21,23.21,0,0,0,136.87,435Zm253,17.31a30.25,30.25,0,0,0,5.31,18.22,7.62,7.62,0,0,0,3.27,2.65c3,1.21,6.21,2,9.31,3.09a5.47,5.47,0,0,0,6-1.2,13.75,13.75,0,0,1,5.4-3,15.68,15.68,0,0,0,3.46-1.58c2.13-1.3,2.44-3.15,1.19-5.33a16.36,16.36,0,0,1-1.62-3.69,42.34,42.34,0,0,1-.9-15.7,45.1,45.1,0,0,1,3-11.27c3.15-8.24,4.5-17,6.35-25.54q.7-3.29,1.18-6.6c.28-1.89-.26-3.57-2.1-4.42a8.45,8.45,0,0,0-3.62-1c-6,.15-10.84,3-14.7,7.44-2.66,3.05-3.1,6.93-3.27,10.79a26.41,26.41,0,0,1-2.52,10.39,9.7,9.7,0,0,1-1.93,2.38c-2.07,2.1-4.32,4-6.24,6.26C392.55,439.84,389.84,446.36,389.83,452.29Zm-148.16,8.82c2.34-.46,4.71-.84,7-1.39,4-1,6.64-3.68,8.46-7.23a6.06,6.06,0,0,0-.48-6.73,101,101,0,0,1-5.56-9.49c-1.28-2.39-2.24-5-3.46-7.38a30.73,30.73,0,0,1-2.8-9.87c-.24-1.74-.3-3.51-.6-5.24-.8-4.6-1.21-9.17,0-13.77.73-2.72-.4-4.78-2.58-6.46-3.15-2.41-5.77-1.55-7.18,2.17-1.68,4.43-3.7,8.65-7.84,11.49-2.37,1.62-4.48,3.61-6.74,5.4a28.62,28.62,0,0,1-3.68,2.66,7.08,7.08,0,0,0-4,6.63c.12,5.16-.27,10.19-2.2,15.05-.74,1.85.31,3.47,2.14,4.2,3.47,1.41,7,2.79,10.39,4.32a14.1,14.1,0,0,1,5.93,5.07,62.59,62.59,0,0,0,5.66,7.11A9.69,9.69,0,0,0,241.67,461.11ZM590.15,234.86a17.48,17.48,0,0,0,11.25-3.39c4-2.74,8.1-5.42,12.17-8.09a16,16,0,0,1,6.48-2.36c4.35-.66,4.8-1.28,4.48-5.6-.16-2.3-.15-4.62-.46-6.9a7.4,7.4,0,0,0-1.35-3.51,9.94,9.94,0,0,0-8.49-4.16c-6.47.3-12.93.75-19.39,1.17a10,10,0,0,0-2.35.44c-2.35.73-4.67,1.63-7,2.29-2.7.74-5.43,1.36-8.17,1.92a15.36,15.36,0,0,1-7.59.08,37.41,37.41,0,0,0-4.18-1,11.57,11.57,0,0,0-13.35,7.93,23.68,23.68,0,0,0-1.17,9.46,7.09,7.09,0,0,0,2.51,5,12.33,12.33,0,0,0,7,2.79c6.11.67,12.22,1.43,18.32,2.24C582.91,233.7,587,234.39,590.15,234.86ZM312.71,367.06a17.88,17.88,0,0,0,10.88-3.23,8.09,8.09,0,0,0,3.77-8c-.21-1.82-.56-3.62-.82-5.43-.52-3.56-1.31-7.11-.11-10.68.45-1.36.93-2.72,1.41-4.07A9.35,9.35,0,0,1,331.4,331a7.32,7.32,0,0,0,2.13-2.2,7.12,7.12,0,0,0-5.71-10.45c-2.55-.18-5.11-.08-7.67-.18a12,12,0,0,1-2.79-.5,13.31,13.31,0,0,1-6-4.17,24.43,24.43,0,0,0-3.48-3.27c-3.26-2.37-6.74-1.95-10.27-.59a13.11,13.11,0,0,0-7.33,6.21c-1.19,2.31-1.61,4.74-.19,7.08a14.61,14.61,0,0,0,3,3.72c4.46,3.67,6.06,8.53,6,14a13.66,13.66,0,0,1-1.22,5.78,38.33,38.33,0,0,1-4.63,6.63c-1.34,1.65-1.69,2.86-.76,4.8a10.76,10.76,0,0,0,5.77,5.49,31.11,31.11,0,0,0,4.74,1.69C306.56,365.89,310.25,366.56,312.71,367.06Zm56,54.64a7.57,7.57,0,0,0-1.11.14c-3.75.91-6.53,3.27-8.9,6.17a3.58,3.58,0,0,0-.61,1.78c-.21,2-.36,4-.48,6a139.44,139.44,0,0,0,1.56,29.65c.43,2.84.61,5.73,1.17,8.54A21.94,21.94,0,0,0,369.16,488c4.88,3.53,10.46,5.46,16.15,7.1,2.24.64,4.18-.93,4.5-3.46a34,34,0,0,1,3.3-11.44c1.06-2.07.77-2.46-1.14-4a17.79,17.79,0,0,1-4-3.76c-6.78-10.25-8.06-21.14-3.36-32.61,1.07-2.6.46-4.27-2.07-5.45-.37-.17-.76-.28-1.11-.47-3.32-1.81-6.56-3.71-7.06-8a1.74,1.74,0,0,0-.13-.46C373.3,422.89,371.84,421.83,368.74,421.7ZM80.55,233.5c7.18-.51,13-3.12,17.6-7.82,5-5.2,6.47-11.62,4.12-18.67-.25-.76-.54-1.5-.79-2.26a21.46,21.46,0,0,1-1.24-7.75,30.73,30.73,0,0,1,2.81-11.33c1.66-3.64,3.44-7.21,5.17-10.81a7.18,7.18,0,0,0-.12-6c-1.65-4.16-6.24-5-9.23-1.74a13.51,13.51,0,0,0-1.3,1.71c-2,3.17-4,6.33-6,9.53-3,4.84-6.1,9.59-10.66,13.16A19.29,19.29,0,0,0,79,193.34c-8,8.14-13.8,17.78-18.41,28.15a15,15,0,0,0-1,2.71c-.66,2.93.75,4.68,3.72,4.74,1.28,0,2.57-.06,3.84,0,3.92.31,7.8.74,11,3.54A6.86,6.86,0,0,0,80.55,233.5Zm382.8-20.58,0,.34a32.58,32.58,0,0,0,4.31,0,40.78,40.78,0,0,0,4.15-1.07c7.18-1.74,12-6.79,15.93-12.42,4.57-6.57,3.88-13.79.2-20.7-1.3-2.45-3.91-2.63-5.71-.48a48.12,48.12,0,0,0-3.31,4.68c-2.05,3.12-4.62,5.5-8.42,6.22-5.75,1.1-11.28.7-16.45-2.36a6.34,6.34,0,0,1-2.7-2.58,10.2,10.2,0,0,0-4.28-4.42c-3.38-1.86-6.77-.08-7.13,3.74a18.91,18.91,0,0,1-.27,2.62c-1,4.17-2.59,7.92-6.78,9.88-1.74.82-3.46,1.67-5.24,2.37-3.22,1.27-4.18,4.11-2.25,6.88a30.91,30.91,0,0,0,2,3c2.56,2.91,2.85,6.32,2.36,9.92a18.55,18.55,0,0,0-.32,2.86,3.27,3.27,0,0,0,4.72,3,5.13,5.13,0,0,0,2-1.67,19.14,19.14,0,0,1,13.13-8C454,213.84,458.67,213.47,463.35,212.92Zm-285.9,22c.56,0,1.12,0,1.67,0,3.27.32,6.29,1.28,8.52,3.83s4.51,2.58,6.31-.32a8,8,0,0,1,4.2-3.39,24.09,24.09,0,0,1,3.24-.84c2.18-.45,3-1.24,3.34-3.46a10.48,10.48,0,0,0-.06-2.85c-.58-3.86-2.48-7.21-4.2-10.64a16.55,16.55,0,0,0-4.95-5.44c-.62-.5-1.27-1-1.87-1.49a72.75,72.75,0,0,0-16.28-11.31c-3.12-1.5-5.61-.29-6.11,3.12a11.88,11.88,0,0,1-4.25,7.55,29.86,29.86,0,0,1-8.27,4.75,31.37,31.37,0,0,0-9.09,5.23c-4.63,4.08-6.46,9.58-7.88,15.29a6,6,0,0,0,.11,2.37c.41,2.38,1.85,3.39,4.28,3,1-.13,1.89-.29,2.84-.44a12.45,12.45,0,0,1,9.06,2.23c2.85,1.89,4.54,1.8,6.41-1C167.58,236.44,172.18,235.07,177.45,235Zm96.91,116.35,0,.26c2.22-.23,4.45-.38,6.66-.71,5.37-.79,9.25-6.06,7.72-12.23-1.47-5.89-5.23-9.82-11.46-10.86-2.59-.43-5.22-.71-7.83-1-4.05-.45-7.63-1.67-10.67-4.69-3.44-3.42-7.51-6-12.64-6.13a7.22,7.22,0,0,1-4.17-1.59c-2.32-1.74-4.77-1.06-5.8,1.63a28.66,28.66,0,0,0-1.51,5.77,26.41,26.41,0,0,0,1.68,13.18,15.8,15.8,0,0,1,.46,8.73,32.51,32.51,0,0,0-.73,7.35,9,9,0,0,0,9.85,8.89,15.92,15.92,0,0,0,5.7-1.62,40.36,40.36,0,0,0,5.79-3.8,10.76,10.76,0,0,1,5.46-2.27C266.71,351.9,270.53,351.61,274.36,351.31Zm242.1,90.24c4.28.53,7.24.05,9.94-1.58,3.44-2.07,3.67-5.11.66-7.65a13.35,13.35,0,0,1-5.07-8.59,21.56,21.56,0,0,0-10.27-15.22c-2.72-1.73-5.91-2.76-9-3.94-3.6-1.39-7.2-2.72-9.78-5.78a33.07,33.07,0,0,1-4.43-5.93,8.07,8.07,0,0,0-2.77-2.92,46,46,0,0,0-6.75-3.59c-3-1.26-5,0-5.31,3.31a14,14,0,0,1-1.38,5.28,3.45,3.45,0,0,0,.89,4.54c.57.55,1.22,1,1.76,1.62A65.79,65.79,0,0,1,485.72,418c2.44,5.29,4.83,10.61,7.13,16,2,4.62,3.89,9.27,5.64,14,.67,1.81,1.16,3.55,3.38,3.81s2.91-1.31,3.9-2.88C508.5,444.61,511.65,440.75,516.46,441.55Zm-51-214.79c.18-4.38-1-5.62-5-5.46a25.93,25.93,0,0,0-11,3c-7.85,4-15.38,8.49-21.49,15a27.92,27.92,0,0,0-3.17,3.89,4.42,4.42,0,0,0-.78,2.87,13.09,13.09,0,0,0,1.66,4.45c1.92,3.12,4.08,6.1,6.13,9.15a10.6,10.6,0,0,0,4.92,4.05c4.59,1.83,9.17,3.7,13.77,5.51,4.06,1.61,4.08,1.6,8.14,0a17.76,17.76,0,0,0,8.15-6.07c3.66-5,5.65-10.39,4.5-16.61a21.1,21.1,0,0,0-2.68-7.86C466.23,235,465.61,230.71,465.42,226.76ZM528,477.56a16.17,16.17,0,0,1,2-7.61,12.07,12.07,0,0,1,5.14-5.18c3.68-1.95,7.56-1.84,11.47-1.37,3.11.36,3.72.21,5.25-2.47a9.25,9.25,0,0,1,5.3-4.58,11.92,11.92,0,0,0,2.2-1,3.25,3.25,0,0,0,1.26-4.72c-1.32-2.27-2.71-4.51-4-6.79-2.49-4.38-5-8.74-5.62-13.9a7.86,7.86,0,0,0-.82-2.24,3.84,3.84,0,0,0-4.24-2.43c-2.55.36-4.84,1.34-6.1,3.74a43.37,43.37,0,0,0-2.36,5.47c-1,2.85-1.92,5.76-2.91,8.62a3.83,3.83,0,0,1-3.55,2.77c-1.19.1-2.39.2-3.58.32a27.69,27.69,0,0,0-23.51,20.61c-1.08,4.11,1.13,11.4,6.21,13.92,4.85,2.41,10,4.3,15,6.33a3.46,3.46,0,0,0,3.81-.67c1.21-1.1.66-2.31.35-3.55C528.78,480.87,528.32,478.86,528,477.56ZM229.88,343.42c-.46-2-.78-3.85-1.36-5.65-1.08-3.32-3.42-5.74-6.13-7.8a22.28,22.28,0,0,0-11.15-4.61,3.36,3.36,0,0,0-4.12,3,7.83,7.83,0,0,0,.11,2.81c.39,2.07.7,4.16-.23,6.12-2,4.26-3.95,8.57-7.44,11.93a29.47,29.47,0,0,0-6.06,8,29,29,0,0,0-2,5.37c-.84,3.18,1.15,4.75,3.34,5.47,5.31,1.73,10.7,3.24,16,5.07,7.09,2.47,14.18,4.95,20.68,8.82a23.77,23.77,0,0,0,4.39,1.9,4.13,4.13,0,0,0,5.36-1.89c1.25-1.93,2.55-3.84,3.83-5.75.8-1.19,1.64-2.35,2.42-3.56a3.16,3.16,0,0,0,.05-3.62,3,3,0,0,0-3.28-1.5c-3.39.64-6.52-.46-9.59-1.5a10.51,10.51,0,0,1-6.45-6.08,11.52,11.52,0,0,1-.39-8.41A77.21,77.21,0,0,0,229.88,343.42ZM342.45,198.16a37.61,37.61,0,0,0,4.22,14.69,51.67,51.67,0,0,1,3.7,10.6c.48,1.86.92,3.72,1.38,5.58a3.33,3.33,0,0,0,2.49,2.66c5,1.18,9.93,1.37,14.72-1.08a50,50,0,0,0,9.47-6.46,41.09,41.09,0,0,1,5.23-3.28,43,43,0,0,0,5.71-3.44,9.35,9.35,0,0,0,3.37-9.85c-.34-1.39-.73-2.78-1-4.18-1-4.59-4.28-7.36-9.2-7.64a98.09,98.09,0,0,0-11,0c-4.69.24-8.89-.67-12.27-4.14a11.65,11.65,0,0,1-1.79-1.93,46.67,46.67,0,0,1-3-5.39c-1.43-3.2-4.24-3.73-6.55-1.06a7.43,7.43,0,0,0-1.35,2c-1.23,3-2.43,6.07-3.49,9.16A20.47,20.47,0,0,0,342.45,198.16Zm319.19,94.18a33.73,33.73,0,0,0,19.25-6.29,64.73,64.73,0,0,0,6.37-5.45,3,3,0,0,0,.59-3.94,3.22,3.22,0,0,0-3.69-1.58,14.39,14.39,0,0,0-2.23.85,27.15,27.15,0,0,1-12.39,2.22c-8.52-.77-17-1.73-25.53-2.67a73.48,73.48,0,0,1-17.31-3.67c-4-1.44-8-2.65-12.1-3.85-7.59-2.25-15.11-4.63-22.25-8.14a6.59,6.59,0,0,0-8,1.37,10.73,10.73,0,0,0-2.9,10.39,5.2,5.2,0,0,0,2.56,3.61,42.32,42.32,0,0,0,5.54,2.8,79.43,79.43,0,0,0,9.42,2.78q17.79,4,35.61,7.78C643.52,290.44,652.44,292.3,661.64,292.34ZM324.42,217.69a19.28,19.28,0,0,0-3.92.62c-2.73,1-4.08,3.33-3.84,6.49a45.8,45.8,0,0,1-1.07,13.55,12.51,12.51,0,0,1-6.07,8.46,25.67,25.67,0,0,0-7,6.78,3.35,3.35,0,0,0-.38,3.62,3.41,3.41,0,0,0,3.31,2c.64,0,1.28-.14,1.91-.11a8.86,8.86,0,0,1,2.84.29c3.94,1.58,7.75,3.41,10.84,6.45,1.14,1.12,2.35,2.18,3.42,3.36,2.32,2.58,5.35,3.31,8.62,3.5,3.43.19,5.92-1.27,7.13-4.49a49.14,49.14,0,0,0,1.89-6.66,20,20,0,0,1,2.73-6.85,26.69,26.69,0,0,0,2.31-4.19,6.6,6.6,0,0,0,.58-3,32.3,32.3,0,0,0-3.06-11.75,36.75,36.75,0,0,1-2.68-6.4c-1.49-5.5-5.16-8.7-10.38-10.27A71.84,71.84,0,0,0,324.42,217.69ZM161.06,466.28h-.29V463.4c0-1,0-2.07,0-3.11,0-3.31-1.33-4.74-4.59-4.7a13,13,0,0,1-6.28-1.29,58.07,58.07,0,0,1-5.72-3.43c-2-1.41-3.79-1.44-5.58.31-.91.89-1.7,1.9-2.54,2.87a21.43,21.43,0,0,1-7.63,5.65c-4.4,1.93-9.11,2.28-13.75,3.06a60.81,60.81,0,0,0-8.77,2.29,40.21,40.21,0,0,0-5.91,2.58,28.81,28.81,0,0,0-5.5,3.34c-1.88,1.6-3.13,3.86-2.23,6.41,2.71,7.67,7.75,13.12,15.63,15.69a3.42,3.42,0,0,0,4.42-1.78c.68-1.27,1.4-2.52,2-3.84,2.39-5.77,7-8.82,12.81-10.13,3.76-.84,7.3-.43,10.1,2.71,2.53,2.83,3.78,3,7.05,1l.41-.25c3.29-1.8,6.58-3.59,10.47-3.79a12.91,12.91,0,0,0,3.26-.78c2-.66,2.75-1.75,2.73-4C161,470.28,161.06,468.28,161.06,466.28Zm15.36-177.34c.85-.06,1.25-.08,1.64-.12,4.34-.5,5.83-3.92,3.33-7.56a21.89,21.89,0,0,0-5.93-5.5c-3-2-6-4-8.91-6.05a21.22,21.22,0,0,1-5.6-6.14,32.66,32.66,0,0,1-4.31-8.49,8.11,8.11,0,0,0-.72-1.52,7,7,0,0,0-10.44-2.44l-6,4.72a18,18,0,0,0-6.21,10A11.55,11.55,0,0,0,135,276.11a51.91,51.91,0,0,1,4.21,6.08c1.93,3.66,3.14,7.57,2,11.76-1,3.54-2.07,7-3.13,10.53s-.68,6.32,4,7.67a11.34,11.34,0,0,0,3.08.36c2.29,0,3.64-1.25,3.63-3.53a28.51,28.51,0,0,1,5-16,7.06,7.06,0,0,1,3.28-3c1.34-.52,2.68-1,4-1.48a20.41,20.41,0,0,1,12.49-.16C174.64,288.64,175.75,288.79,176.42,288.94ZM295,271.17a22,22,0,0,0-.77-3.74c-.95-2.71-3.05-3.54-5.72-2.45-1.41.58-2.82,1.15-4.19,1.8a7.64,7.64,0,0,1-5.79.45,12.65,12.65,0,0,0-9.78.95c-5.36,2.81-8.24,7.28-9,13.28-.69,5.27.39,10.35,1.11,15.49.6,4.21,1.3,8.41-1.91,12.08a2.87,2.87,0,0,0,.18,3.79c3.92,4.93,9.05,7.37,15.63,6a7.24,7.24,0,0,0,3-1.42c3.48-2.85,6.68-6,8.65-10.13a13,13,0,0,0,1.38-7.85c-.63-4.2-.09-8.3,2.88-11.72a9.43,9.43,0,0,0,1.1-1.84C294,281.46,294.5,276.7,295,271.17Zm-158-23.46a4.66,4.66,0,0,0-.31-1.19,28,28,0,0,1-2.52-13,19.81,19.81,0,0,0-.06-3.36c-.58-3.5-2.77-5.1-5.53-4.18-5.84,1.95-11.2,1.3-15.38-3.79a2.73,2.73,0,0,0-.33-.35,3.17,3.17,0,0,0-4.71.07,13,13,0,0,0-1.73,3.08,47.52,47.52,0,0,1-2.89,6c-2.21,3.25-5.1,5.74-9.22,6.32-1,.14-2,.23-3.08.32a3.7,3.7,0,0,0-3.59,2.65c-.42,1.46.15,2.82,1.64,3.92a6.17,6.17,0,0,1,.6.39c1.33,1.25,2.74,2.42,3.94,3.79a19.39,19.39,0,0,1,5.14,12.86,6,6,0,0,0,.09.71c.57,3.43,2.76,4.67,5.88,3.13a11,11,0,0,1,8.6-.45c2,.66,4.1,1.32,6.15,2,1.9.63,3.31.35,4.46-1.25a11.17,11.17,0,0,0,1.24-3c1.6-5,3.37-9.73,9.28-11.16A3.11,3.11,0,0,0,136.9,247.71Zm408.9-5.86a11.23,11.23,0,0,0-3.83-7.78c-1.42-1.33-2.7-1.37-4.39-.46-1.34.71-2.7,1.37-4.05,2a17.21,17.21,0,0,1-12.6,1,50.94,50.94,0,0,1-12.34-5.1,3.81,3.81,0,0,0-4.09-.19c-1.43.84-1.72,2.16-1.6,3.71s.08,3.2.2,4.79a87.65,87.65,0,0,0,.91,9.75,72,72,0,0,0,4.69,16,5.09,5.09,0,0,1,.45,1.61c.45,4.68,1.48,9.32.67,14.07a3.55,3.55,0,0,0,2,4c3,1.6,5.57.41,6.23-3,1.15-5.92,4.6-10.42,8.75-14.51,1.76-1.74,3.48-3.52,5.27-5.22,4.26-4,7.43-8.95,11.12-13.45A11.56,11.56,0,0,0,545.8,241.85ZM73.6,421.58a37,37,0,0,0-2-12.68c-2-5.81-5.87-10.09-12-11.74a5.18,5.18,0,0,1-3.56-2.8c-1.27-2.4-2.59-4.77-3.82-7.19a32.05,32.05,0,0,1-1.38-3.31c-1.36-3.58-2.64-7.19-4.1-10.73a5.22,5.22,0,0,0-2-2.27,51.3,51.3,0,0,0-6.1-3.3,8.22,8.22,0,0,0-3.67-.75c-2.37.15-3.44,2.12-2.53,4.3a123.12,123.12,0,0,0,13.82,25.12c1.08,1.49,2,3.1,3,4.61a2.87,2.87,0,0,1,.2,3.07c-1.7,4.28-2.79,8.7-1.46,13.32.54,1.91,1.22,3.79,1.89,5.67,1.32,3.75,3.1,7.33,3.43,11.41.21,2.65.39,5-1.92,7a3.17,3.17,0,0,0-.82,3.94c.66,1.48,2,2,3.49,2.13a10.39,10.39,0,0,0,9.07-3.4,43.27,43.27,0,0,0,8.67-13.68A21.5,21.5,0,0,0,73.6,421.58ZM190.3,375.4a8.74,8.74,0,0,0-1.43-.13c-1.94.1-3.75.73-4.58,2.55-1.28,2.82-2.32,5.75-3.38,8.67-2.08,5.7-3.9,11.5-6.21,17.1-1.43,3.46-1.13,6.34,1.17,9.13,1.51,1.84,3.41,2.16,5.23.59a14.18,14.18,0,0,0,2.56-3.4c1-1.57,1.57-3.36,2.64-4.83,1.78-2.44,3.68-3.25,5.9-.93.5.52,1.11.92,1.62,1.43a23.89,23.89,0,0,0,6.14,4.5c3.52,1.79,7,2.61,10.77.74a20.67,20.67,0,0,0,4-2.22,44.52,44.52,0,0,0,10-11.57,12.67,12.67,0,0,0,1.21-2.86c1.1-3.54.13-5.88-3.11-7.58-.77-.41-1.57-.78-2.38-1.13-3.66-1.59-7.3-3.23-11-4.73C203.22,378.23,197,375.94,190.3,375.4Zm336.93,42.74a9.61,9.61,0,0,0,1.33,6.2c1.33,2.41,3.87,2.73,5.73.7.86-.94,1.63-2,2.52-2.88a7.7,7.7,0,0,1,4.53-2.49c3.14-.44,4.5-2.57,3.58-5.64a14,14,0,0,0-1-2.17c-1.86-3.71-3.77-7.39-5.58-11.12-1.33-2.72-2.41-5.56-3.81-8.24-2.7-5.17-5.77-10.16-8.27-15.41a14.49,14.49,0,0,0-10.45-8.3c-9.25-2.19-17.81,3-20.09,12-1.74,6.91,3,12.4,7.23,14.14a35.77,35.77,0,0,0,6.64,2,27.28,27.28,0,0,1,11.89,5.32,14.37,14.37,0,0,1,5.43,8.73A44.14,44.14,0,0,1,527.23,418.14ZM327.42,398.92a25.86,25.86,0,0,0,10.67-1,85,85,0,0,0,16.09-7.35,3.52,3.52,0,0,0,1.94-3.58c-.17-1.91-.31-3.82-.63-5.71-1.22-7.33-2.44-14.64-4.95-21.69a42.24,42.24,0,0,0-3-7.52c-.85-1.44-1.5-3-2.36-4.44a40.61,40.61,0,0,0-4.14-6.41c-2.88-3.25-5.05-1.9-6.7,1.13a5.14,5.14,0,0,0-.55,2.07,16.6,16.6,0,0,0,.1,4.05c.59,2.88,1.41,5.72,2.12,8.58,1.35,5.42-1.21,11.61-6.13,14.1a20.31,20.31,0,0,0-8.58,8.44c-3,5.31-4.1,10.88-1.73,16.78.79,2,1.73,2.6,3.82,2.55C324.71,398.9,326.07,398.92,327.42,398.92ZM594.6,250.8a9.33,9.33,0,0,0,1.08,2.84,11.83,11.83,0,0,0,3.33,3,50.14,50.14,0,0,0,14.7,5,50.42,50.42,0,0,1,5.58,1.36c3.78,1.27,7.47,2.83,11.28,4s8,2.27,12,3.2c3.25.74,5.16-1.09,4.9-4.3a11,11,0,0,0-2.81-6c-3.55-4.5-5.83-9.7-8.4-14.75-1.19-2.35-2.17-5-3.88-6.85a33.43,33.43,0,0,1-5.28-7.93c-1.23-2.54-2.62-3.24-5.22-2.3a49.21,49.21,0,0,0-7.61,3.46c-4.92,2.81-9.72,5.83-14.56,8.79a6.57,6.57,0,0,0-1.45,1.23C596.05,244.1,595.34,247.28,594.6,250.8Zm-55.52,38.94c2.54-.23,5.1-.36,7.62-.74a5.82,5.82,0,0,0,5.09-4.15,32.78,32.78,0,0,0,1-3.2,27.24,27.24,0,0,1,5.42-11.37,11.38,11.38,0,0,1,2.84-2.52c4.73-3,9.53-5.84,14.3-8.76a22.5,22.5,0,0,0,7.44-7.68,8,8,0,0,0,.93-2.94,3.51,3.51,0,0,0-2.37-4,12.82,12.82,0,0,0-2.32-.53c-3.14-.59-6.28-1.13-9.41-1.74-1.33-.26-2.62-.73-4-.95-2.77-.46-5.56-.76-8.31.15-3.06,1-4.28,2.63-4.38,5.77,0,.64,0,1.28-.05,1.92a16.51,16.51,0,0,1-3.39,9.55,26.83,26.83,0,0,1-8.46,8c-1.46.81-2.83,1.8-4.26,2.68a25.18,25.18,0,0,0-7.63,7.85,15.46,15.46,0,0,0-2.89,7.54c-.16,2.58.75,3.89,3.26,4.43A34,34,0,0,0,539.08,289.74ZM469.37,332a8.89,8.89,0,0,0-5.54,2.14,4.1,4.1,0,0,0-1.22,5.17c.35.89.76,1.76,1.08,2.66a39.38,39.38,0,0,1,2.48,10.21c.12,1.48.18,3.14,1.48,4.18,3.26,2.62,5,6.13,6.25,10,1,3.19,2.05,6.38,3,9.6a6.77,6.77,0,0,0,6.31,5.21c2,.12,3.53-.71,4-2.66a23.9,23.9,0,0,1,4.17-8,17.32,17.32,0,0,1,6.67-5.68,29.21,29.21,0,0,1,11.64-3.35c2.51-.1,3.8-2.19,3-4.55a5.31,5.31,0,0,0-.48-1.09c-1.81-3-3.59-6-5.47-9-1-1.56-2.57-1.9-4.45-1.14-1.26.51-2.45,1.21-3.74,1.59-4.82,1.44-9.25.13-13.12-2.64-2-1.44-3.4-3.77-5.12-5.65-1.56-1.7-3.12-3.4-4.8-5C474,332.64,472.1,332.11,469.37,332ZM214,474.86a42.38,42.38,0,0,0,5.08-1c4.5-1.39,6.93-5,8.79-8.95a6.06,6.06,0,0,0-1.75-7.38c-2.29-2-4.66-3.88-7-5.77a9.19,9.19,0,0,0-2.24-1.36c-3.71-1.46-7.44-2.89-11.19-4.24-2-.71-2.68-1.53-2.34-3.51.5-2.91,1.17-5.79,1.8-8.68.33-1.48.87-2.92,1.09-4.41.43-2.9.06-5.75-2.28-7.71a95.47,95.47,0,0,0-9.4-7c-2.77-1.8-5.11-1.31-7.62,1a20.44,20.44,0,0,0-4.06,5.6,4.64,4.64,0,0,0-.4,3.93c.76,2.09,1.54,4.19,2.48,6.22.77,1.66,1.83,3.18,2.66,4.81,3.72,7.34,7.36,14.73,11.12,22.05,2.22,4.33,4.65,8.56,6.92,12.87a6.42,6.42,0,0,0,5.18,3.39C211.75,474.83,212.72,474.8,214,474.86ZM668.68,347.35c-1.89-5-5.65-7.83-10.41-9.62a11.57,11.57,0,0,0-7.07-.34c-3.67.93-5.75,3.95-3.56,7.55A30.39,30.39,0,0,1,651.79,364a5.18,5.18,0,0,0,2.43,5.32,16.8,16.8,0,0,1,5.71,5.69,5.56,5.56,0,0,0,1.29,1.41,4,4,0,0,0,5.08.33,24.53,24.53,0,0,1,2.5-1.4c4.94-2.26,10-4.42,13.75-8.53a6.29,6.29,0,0,1,1-.73,14.06,14.06,0,0,0,5-6.58c.47-1.27.85-2.59,1.41-3.82,1.54-3.46.7-6.74-.68-10a6.94,6.94,0,0,0-4.8-4,13.38,13.38,0,0,0-12.76,2.86C670.7,345.42,669.79,346.32,668.68,347.35ZM30.41,339.54c0,4.72,0,9.43,0,14.14a7.12,7.12,0,0,0,2.44,5.5,18.49,18.49,0,0,0,7,4,3.48,3.48,0,0,0,4.74-2.7,8.43,8.43,0,0,0,.11-2.61c-.19-2.63-.49-5.25-.69-7.88a131,131,0,0,1,2.37-36.48c1.12-5.39,2.78-10.66,4.06-16a12.22,12.22,0,0,0,.2-4.47c-.77-5.37-1.69-10.73-2.59-16.08a17.29,17.29,0,0,0-.78-3c-.62-1.74-1.83-2.7-3.32-2.62a3.58,3.58,0,0,0-3.34,2.64c-.11.3-.18.62-.3.92-1.45,3.84-1.91,7.89-2.65,11.9-1.17,6.27-2.52,12.52-3.83,18.77A146.83,146.83,0,0,0,30.41,339.54Zm459.66-91.26,0-.23c-1.74.2-3.51.27-5.21.63-3.3.7-4.17,2-4,5.42a46.74,46.74,0,0,1,.08,6.69c-.63,6.06-3.34,10.82-9.23,13.21-1.68.69-3.55.9-5.29,1.45a13.8,13.8,0,0,0-3.7,1.55,3.09,3.09,0,0,0-.94,4.44,10.24,10.24,0,0,1,1.29,4.78c.28,3.51,1.94,4.76,5.43,4.18l.71-.1c7.29-.78,14.49-1,21.5,1.83a26.43,26.43,0,0,0,6.3,1.31,3.59,3.59,0,0,0,4-2.46c1.81-4.61,2.82-9.33,1.42-14.28a27.71,27.71,0,0,1-.64-3.29c-.47-3.15-.77-6.34-1.41-9.46-.79-3.83-1.95-7.58-2.77-11.4-.56-2.59-1.71-3.94-4.38-4.25A24.8,24.8,0,0,0,490.07,248.28Zm-40.26,42.14,0-.17h1.92c3.72,0,5.27-2.39,3.61-5.66s-4.65-5.24-7.75-6.89c-2.95-1.58-6.13-2.71-9.16-4.13a80,80,0,0,1-8.32-4.21c-3.63-2.24-6.93-4.9-8.13-9.34a6.87,6.87,0,0,0-.88-1.7c-2-3.17-4.31-4.08-7.93-3.35-4.36.87-8,3.07-11.46,5.73s-5.53,6.15-7.49,9.83a8,8,0,0,0-.7,2,3.37,3.37,0,0,0,2,4.13c.94.44,1.91.8,2.88,1.19,4.8,1.94,9.53,4.08,14.41,5.78,7.81,2.72,16,3.75,24.16,4.83C441.3,289.05,445.55,289.77,449.81,290.42ZM190.68,251.49a32,32,0,0,0-2.29-2.53,60.24,60.24,0,0,0-6-5.09c-2.59-1.78-5.43-.83-8.07.1-6,2.1-9.28,8-6.3,14.2a25.52,25.52,0,0,0,5.53,7.45c3.65,3.47,7.48,6.75,11.13,10.21,2.66,2.52,4.38,2.88,7.38.59,6.8-5.17,13.88-10,19.51-16.59,2-2.28,3.66-4.63,4.25-7.65.74-3.78-.94-7.51-4.29-8.69-5.49-1.92-10.72-1.49-15.24,2.57C194.46,247.71,192.74,249.49,190.68,251.49Zm115.78,14.16c-.78,0-1.1,0-1.42,0-3.38.16-4.83,2.13-3.61,5.28,2.2,5.69.61,10.81-2.08,15.81A38,38,0,0,0,297,290.9a46.18,46.18,0,0,0-2.4,7.74,3.49,3.49,0,0,0,3.07,4.34,4.66,4.66,0,0,0,3.09-1.05c4.7-3.11,9.61-2.35,13.15,2,.35.43.73.85,1.06,1.3,1.52,2.1,3.79,3.15,6,4.18a6.67,6.67,0,0,0,4.46.34,3.71,3.71,0,0,0,3.08-4.58c-.11-.71-.34-1.4-.46-2.1-.73-4.32.75-7.52,4.48-9.65,1.45-.84,2.94-1.6,4.41-2.4,2.29-1.26,3.1-3,2.06-5.38-1.65-3.76-4.34-6.52-8.58-7.2a22.09,22.09,0,0,0-5-.16,7.87,7.87,0,0,1-8-4.18,30,30,0,0,0-3.16-4.49C312.15,267.08,309.55,265.31,306.46,265.65ZM638.84,381.11c-.83,0-1.24,0-1.63,0-3.73.38-6.39-1.61-8.84-4a3.58,3.58,0,0,1-1-1.61,55.56,55.56,0,0,1-1.34-7.29,19.28,19.28,0,0,1,2.46-10.36c1.43-2.86.11-5.32-3-5.4a5.33,5.33,0,0,1-4.76-2.65,31.71,31.71,0,0,0-2-3,3.26,3.26,0,0,0-3.87-1.06,3.3,3.3,0,0,0-2,3.49,8.55,8.55,0,0,0,.27,1.41c.9,3.31,1.76,6.63,2.74,9.91a7.61,7.61,0,0,1-.28,5.57,44,44,0,0,0-3.39,11.72c-.76,5.7.24,11,4.89,14.79a45.19,45.19,0,0,0,8.11,5c2.38,1.22,4,.38,5.33-2a37.58,37.58,0,0,1,2.53-4.05,5.26,5.26,0,0,1,4.29-2.3,46.79,46.79,0,0,1,6.7.12,13.09,13.09,0,0,0,9.63-2.83,6.17,6.17,0,0,0,1.61-8.33c-1.4-2.32-3.53-2.67-5.63-1a25.88,25.88,0,0,1-2.67,2C644.36,381,641.37,381,638.84,381.11ZM481.59,301.32a22.34,22.34,0,0,0-12.09,3.23,9.09,9.09,0,0,0-4.21,5.33c-.56,2-1.08,4-1.61,6-.43,1.62-1,3.22-1.26,4.86-.41,2.29.83,3.7,3.15,3.72,1.28,0,2.55-.11,3.83-.15,3-.08,6,.11,8.49,1.91a33.75,33.75,0,0,1,5.48,4.63,30.25,30.25,0,0,0,7.12,5.6,13.3,13.3,0,0,0,10.6,1.58c2.53-.7,3.55-3.29,1.85-5.23a29.1,29.1,0,0,1-4.62-7.76,48.1,48.1,0,0,1-4-14.46,8.13,8.13,0,0,0-1.24-3.53C490.39,302.94,486.35,301.39,481.59,301.32ZM367.26,126.87c-1.63.16-4.11.28-6.55.7-3,.52-4,3.4-2.08,5.78a9.74,9.74,0,0,0,1,1,7,7,0,0,1,2.41,4.79c.2,2.87.44,5.74.68,8.6a28.64,28.64,0,0,0,.46,4.75c.95,3.75,4.48,5.11,7.41,2.84A79.12,79.12,0,0,1,389.43,145c3.25-1.33,6.62-2.37,9.86-3.7a25.91,25.91,0,0,0,5-2.72,3.21,3.21,0,0,0-.09-5.32,9.15,9.15,0,0,0-3.26-1.38c-6-1.25-12.06-2.4-18.1-3.58A65.51,65.51,0,0,0,367.26,126.87ZM504,171.45c-.22-8-.8-14.41-3.25-20.39-1.88-4.61-1.81-9.17-.95-13.86.73-4-1.44-5.92-5.31-4.82a66.7,66.7,0,0,0-13.33,5.9,4.71,4.71,0,0,0-2.65,4.93A40.77,40.77,0,0,0,485,161.78l7.64,11.89a14.29,14.29,0,0,1,2.45,5.67c.23,1.66.43,3.31.64,5a3.36,3.36,0,0,0,2.82,3.13,3.29,3.29,0,0,0,3.6-2.16,6.26,6.26,0,0,0,.42-1.61C503.15,179.08,503.67,174.48,504,171.45Zm139,135c.11-1.36.2-2.16.24-3,.11-2.45-.7-3.55-3.08-4-1.48-.31-3-.54-4.48-.82-4-.76-8-1.31-11.84-2.89q-5.09-2.12-10.24-4.05a19.1,19.1,0,0,0-8.45-1.28,3.31,3.31,0,0,0-3.37,3.36c0,1.85,1.14,3,3.34,3.4a13.47,13.47,0,0,1,3.24.79c5.79,2.66,11.25,6.08,15.4,10.82,5.65,6.45,11.67,12.74,15.33,20.71a16.49,16.49,0,0,0,1,1.91,3.19,3.19,0,0,0,4.1,1.56,14.08,14.08,0,0,1,10.26-.29,3.54,3.54,0,0,0,4.46-4.43,6.77,6.77,0,0,0-2.39-4.06c-2-1.47-3.92-3-6-4.32-3.46-2.16-6.17-4.86-7-9A40.84,40.84,0,0,1,643,306.4ZM255.48,473.81c1.93.54,3.52-.35,5.1-1.61a60.3,60.3,0,0,1,5.13-3.51c2.08-1.34,2.58-3.18,1.29-5.33-.53-.88-1.36-1.59-1.85-2.49-1.38-2.53-4.57-2.5-6.3-.16a16.18,16.18,0,0,1-9.14,6.21,53,53,0,0,1-12.26,2,6.2,6.2,0,0,0-4.85,2.23,22.68,22.68,0,0,0-2.57,3.73c-2.52,4.65-6.28,6.86-11.62,6.16-.95-.12-1.9-.24-2.85-.32-1.12-.1-2.23-.22-3.35-.21a3.16,3.16,0,0,0-3,2,5.75,5.75,0,0,0,0,5.1c1.59,2.78,3.58,5.4,6.84,6.41a30.24,30.24,0,0,0,6.74,1.44c3.5.22,7,.06,10.53,0,2.08,0,3.22-1.2,3.4-3.53a34.57,34.57,0,0,1,2.28-9.27,9.94,9.94,0,0,1,4.33-5.26A23.86,23.86,0,0,1,255.48,473.81Zm297.4-1.93c-2.52-2.56-5.35-2.76-8.28-2.33-7.12,1.06-11.31,7.76-9,14.28a4.5,4.5,0,0,0,2.83,3,39.42,39.42,0,0,0,19,2.42c2.22-.27,4.44-.5,6.64-.91a45.81,45.81,0,0,0,6.24-1.53c4.34-1.45,5.16-3.55,3.2-7.67-.07-.15-.16-.28-.23-.42q-2.4-4.67-4.82-9.32c-.77-1.48-1.6-2.94-2.42-4.4a3.59,3.59,0,0,0-3.59-1.88,6.67,6.67,0,0,0-3.58,1.15,13.61,13.61,0,0,0-4.84,5.5C553.74,470.38,553.37,471,552.88,471.88ZM416.23,313.47a43.93,43.93,0,0,0,5.41-.91,32.17,32.17,0,0,0,6.41-2.5c1.95-1.05,2.38-2.84,1.91-4.95a4.83,4.83,0,0,0-4.5-4.2,61.5,61.5,0,0,1-9.15-1.83c-7.88-2.35-15.68-4.92-23.52-7.4a14.85,14.85,0,0,0-2.07-.6,5.3,5.3,0,0,0-6,2.41c-1.5,2.26-1.76,4.41-.33,6.68a23.52,23.52,0,0,0,2.35,3c2.78,3.08,5.68,6.05,7.49,9.87a16.85,16.85,0,0,0,1.62,2.37c1.54,2.15,3.54,2.76,5.8,1.37C406.16,314,411.26,314.05,416.23,313.47Zm-70.51-40.09c.52,2.93.87,6,1.64,8.87a26.11,26.11,0,0,0,2.49,5.63,5.26,5.26,0,0,0,3.79,2.68,17.37,17.37,0,0,1,11.9,7.67,15,15,0,0,0,1.87,2.18c2.73,2.74,6.13,2.39,8.3-.85a12.57,12.57,0,0,0,2.17-5.51,53.94,53.94,0,0,1,1-6.62,4.36,4.36,0,0,0-1.35-4.74,24.2,24.2,0,0,0-3.28-2.4c-3.83-2.45-7.69-4.85-11.53-7.3a8.88,8.88,0,0,1-1.85-1.5q-3.11-3.45-6.13-7a3.69,3.69,0,0,0-4-1.52c-1.84.5-3.45,1.39-3.86,3.48C346.47,268.7,346.13,271,345.72,273.38Zm65.81,212.26a21.9,21.9,0,0,0-3.36-2.65c-4.66-2.3-8.93-2-11.35,2.56a16.88,16.88,0,0,0-1.89,9.5,3.5,3.5,0,0,0,2.05,3,41.51,41.51,0,0,0,4,1.67c7,2.55,14.26,2.47,21.52,2.29a8.47,8.47,0,0,0,7.81-4.75,22.32,22.32,0,0,0,2.33-11.39,10,10,0,0,0-4.43-7.35c-3.22-2.35-6.46-1.69-9.62.25a17.55,17.55,0,0,0-4.72,5C413.23,484.65,412.71,485.59,411.53,485.64Zm246-185.28,0-.27c-.64,0-1.27,0-1.91,0-2.17,0-3.24.7-3.93,2.77a7.13,7.13,0,0,0,.32,6,35.31,35.31,0,0,0,3.8,5.49,81.51,81.51,0,0,0,6.1,6.09,19.89,19.89,0,0,1,4.88,7,58.68,58.68,0,0,1,1.92,5.65c.74,2.5,3,3.79,5.16,2.62a8.67,8.67,0,0,1,6-.78,3.7,3.7,0,0,0,4.14-5.42c-1.25-2.31-2.19-4.79-3.27-7.2-2.19-4.88-4.44-9.73-5-15.19a13.57,13.57,0,0,0-2.31-6.24,5.83,5.83,0,0,0-5.55-2.61,18.45,18.45,0,0,0-2.82.54Zm-210.84,59c.07,6.11,2.77,12.84,7.88,18.64a38.1,38.1,0,0,1,3.32,3.77,12.93,12.93,0,0,0,5.23,4.68c2.45,1.16,4.51.66,5.3-2a18.91,18.91,0,0,0,.84-5.87,35.17,35.17,0,0,0-7.17-20.42,20.07,20.07,0,0,1-4.15-14.4c.05-.47.1-1,.12-1.43.09-2.24-.92-3.7-2.82-4.1s-3.21.41-4.09,2.46c-.63,1.46-1.19,3-1.81,4.43A35.92,35.92,0,0,0,446.7,359.37Zm-299,141.8c4.68-.49,9.37-.89,14-1.53,3.12-.43,4.55-2.35,4.3-5.53a36,36,0,0,0-1-4.9c-1.35-6-6.88-7.09-11-6-3.27.89-5.83,2.91-8.6,4.64-1.49.92-2.94,1.91-4.49,2.74s-2,.69-3.39-.44a35.76,35.76,0,0,0-4.24-3.11c-3.22-1.92-6.39-1.6-9.33.8-1,.86-2.09,1.74-3.06,2.69-2.39,2.39-2.08,4.91,1,6.31a41.87,41.87,0,0,0,7.62,2.77A71.12,71.12,0,0,0,147.73,501.17Zm110.66-18.12c-.44-.28-.65-.39-.83-.53a8.38,8.38,0,0,0-.74-.62c-2.69-1.59-5.31-2.26-8.26-.3-3.48,2.3-4.9,5.58-5.17,9.49-.13,2,1.21,3.35,3.27,3.8a32.53,32.53,0,0,0,11.68.26c3.17-.47,6.3-1.1,9.47-1.5A29.6,29.6,0,0,0,278.64,490a21.43,21.43,0,0,0,3.75-2.93,2.93,2.93,0,0,0,.79-3.1,24.43,24.43,0,0,0-4.11-8.28c-2.15-2.83-7.3-3.7-10.24-2.1a17.35,17.35,0,0,0-5.18,3.79C262,479.29,260.21,481.09,258.39,483.05ZM496.9,218.49c-.25-3.72-.33-6.27-.62-8.8a3.46,3.46,0,0,0-2.91-3.35,4,4,0,0,0-4.35,1.82c-.46.75-.82,1.55-1.29,2.29a15.31,15.31,0,0,1-2,2.93c-2.64,2.55-5.3,5.08-8.13,7.41a7,7,0,0,0-2.92,5.49,21.06,21.06,0,0,0,.77,5.63c.58,2.14,1.52,4.19,2.31,6.28.95,2.49,2,3.33,4.64,3.28q4.67-.09,9.3-.49c2.89-.25,3.36-.69,3.73-3.65.33-2.6.36-5.23.57-7.84C496.28,225.44,496.65,221.39,496.9,218.49ZM645.67,403.25l0,.35c2.93-.29,5.87-.81,8.81-.84,6.28-.08,11.84-2.37,17.27-5.13a19.39,19.39,0,0,0,4.43-2.82A29.78,29.78,0,0,0,685,381.34c.45-1.5.55-2.85-.62-4a4.15,4.15,0,0,0-4.43-1c-5.87,1.92-10.86,5.05-14,10.59a12.43,12.43,0,0,1-6.69,5.47,19,19,0,0,1-8.7,1,18.77,18.77,0,0,0-11.4,2.91c-1.84,1.11-2.47,2.59-2,4.18a3.81,3.81,0,0,0,3.77,2.77C642.48,403.31,644.08,403.25,645.67,403.25ZM569.78,290v.17c3.27,0,6.56-.21,9.8.06A96.15,96.15,0,0,1,590,291.76c2.39.46,4.07-.59,5.44-2.24a2.94,2.94,0,0,0-1.14-4.61,14.65,14.65,0,0,0-2.27-.73c-3.45-1-6.92-1.91-10.33-3A9.45,9.45,0,0,1,575,274a8.1,8.1,0,0,0-.44-1.37c-1.09-2.44-3.2-3.2-5.47-1.8-1.63,1-3.12,2.22-4.65,3.37-3.78,2.82-5.27,6.92-6.08,11.32-.42,2.31.94,3.89,3.28,4.06C564.35,289.75,567.06,289.82,569.78,290Zm103-31.6c0-1.92-1.19-3.38-2.78-3.48a11.92,11.92,0,0,0-3.75.43c-3.85,1-7.65,2.26-11.49,3.3-2.69.73-4,2.86-2.88,5.45a39.61,39.61,0,0,0,2.68,5.07c1.37,2.3,2.95,2.75,5.48,1.71a23.69,23.69,0,0,0,12-10.61A14.41,14.41,0,0,0,672.81,258.35Z" transform="translate(-0.48 -0.48)"/><path class="cls-1" d="M208,175.13a18.39,18.39,0,0,0-13.14,3.52c-2.87,2-5.71,4.11-8.59,6.12a9.91,9.91,0,0,1-2.54,1.32,3.6,3.6,0,0,1-4.94-3.94,16.27,16.27,0,0,0-.58-6.4,7.86,7.86,0,0,0-5.34-5.69c-3.89-1.18-7.78-2.39-11.73-3.4a43.54,43.54,0,0,1-11.71-4.78c-6.07-3.63-9.21-9.14-10.09-16a14.47,14.47,0,0,1,0-2.63c.11-2.48,1.46-3.81,3.81-4.59a149.24,149.24,0,0,1,35.33-7.38A74.79,74.79,0,0,1,200.14,133c10.34,2.21,20.34,5.56,30.49,8.38a31.69,31.69,0,0,1,5.13,2c2.94,1.43,4,4.22,4.11,7.14.33,7.48-2.51,13.43-9,17.64-3.45,2.24-6.88,4.37-10.91,5.33-2.56.6-5.15,1.17-7.75,1.56A27.67,27.67,0,0,1,208,175.13Z" transform="translate(-0.48 -0.48)"/><path class="cls-1" d="M272,257.75c-3.45-.71-7.27.76-11.1,1.75-3.61.93-6,3.57-7.47,7-2,4.5-4.14,4.82-7.59,1.21a38.91,38.91,0,0,0-4.6-4.2c-3.5-2.64-7-5.31-10.7-7.66-4.36-2.78-6.59-6.84-7.84-11.6a13.52,13.52,0,0,1,2.16-11.41c1.43-2.11,3-4.16,4.58-6.14,3.92-4.79,9.18-6.75,15.21-6.79,2.37,0,4.75.41,7.13.62a16.28,16.28,0,0,0,3.32.23c6.4-.75,12.49-2.27,18-6a51.56,51.56,0,0,1,14.54-6.65c.77-.23,1.54-.43,2.32-.6,7.08-1.5,12.32,3.39,14,8.2a29,29,0,0,1-.48,20.87c-3.17,7.84-8.32,14.14-16.43,17.5-.52.21-1,.47-1.52.72C279.91,257.6,279,257.83,272,257.75Z" transform="translate(-0.48 -0.48)"/><path class="cls-1" d="M422.89,380.13c-.31,2.23-.48,4-.81,5.7a6.8,6.8,0,0,1-5.91,5.81c-4.9.82-8.66,3.49-12,7-1.9,2-1.89,4.49-2,7-.19,3.51-.25,7-.48,10.54a13.68,13.68,0,0,1-3.21,8.36,11.31,11.31,0,0,1-2.23,1.76c-3.37,2.21-11.67,1.08-14.12-3-.77-1.3-1.81-2.44-2.6-3.73-3.15-5.16-8.16-5.92-12.78-3.22-.35.21-.67.45-1,.64a3.37,3.37,0,0,1-3.84-.17,3.32,3.32,0,0,1-1.25-3.63c.64-2.8,1.25-5.62,2-8.4,1.25-4.74.9-9.52.53-14.31-.39-5.09-1.12-10.17-1.28-15.27-.23-7.47,3.49-12.91,9.64-16.81a18.67,18.67,0,0,1,9.43-3.2A9.84,9.84,0,0,1,386,356.3c4.7,2.42,9.61,3.45,14.79,1.61a30.8,30.8,0,0,0,4.4-1.81c3.91-2.1,6.44-1.79,9.28,1.63,2.4,2.9,4.46,6,5.11,9.89.29,1.71,1.1,3.33,1.55,5C421.8,375.25,422.36,377.9,422.89,380.13Z" transform="translate(-0.48 -0.48)"/><path class="cls-1" d="M578.73,191.12c.33,4.27-1.45,6.28-5.81,6.22a33.8,33.8,0,0,1-5.9-.76,13.92,13.92,0,0,0-8,.58c-2.67,1.07-5.42,1.94-8.1,3s-4.23,3.27-5.06,6c-1,3.21-1.92,6.43-3,9.61a22.61,22.61,0,0,1-1.85,3.88,9.16,9.16,0,0,1-6.49,4.49c-1.31.27-2.56.82-3.85,1.22a41.31,41.31,0,0,1-6.64,2,14,14,0,0,1-11.8-4.08c-.86-.82-1.57-1.81-2.42-2.66a14.62,14.62,0,0,1-4.38-9.6,6.76,6.76,0,0,0-.21-1.42c-1.93-6-1.34-12,0-18,1.05-4.67,2.14-9.34,3.21-14A55.41,55.41,0,0,0,509.79,163c-.23-5.83-.48-11.66-1-17.47a41.61,41.61,0,0,0-3.4-12.68c-.94-2.22-.48-3.66,1.56-4.84a17.41,17.41,0,0,1,1.95-.93c3.1-1.35,5.31-.64,7,2.37a28.77,28.77,0,0,1,3,9.83c1,6.64,1.93,13.29,2.85,19.94a17.55,17.55,0,0,0,3.3,8.1,54.36,54.36,0,0,0,7,8.46,14.7,14.7,0,0,0,9.61,4.27q11.86.5,23.7,1.37a50.51,50.51,0,0,1,7.78,1.37c3.39.79,5.12,2.95,5.43,6.4C578.62,189.85,578.67,190.48,578.73,191.12Z" transform="translate(-0.48 -0.48)"/><path class="cls-1" d="M131.72,147.9a20.17,20.17,0,0,0,3.22,11.35c.84,1.26,1.84,2.42,2.66,3.69,3.64,5.61,9,8.64,15.27,10.46,2.07.61,4.18,1.11,6.18,1.88,3.65,1.41,6.55,4,9.33,6.62,2.45,2.31,2.94,7.39,1.24,10.82a21.17,21.17,0,0,1-7.76,8.62c-3.72,2.34-7.6,4.41-11.24,6.85a77.4,77.4,0,0,0-6.87,5.57,22.78,22.78,0,0,0-2.12,2.27,11.21,11.21,0,0,1-9.33,4.05,55,55,0,0,1-7.17-.43c-6.65-1.23-11.31-5-13.45-11.53a38.87,38.87,0,0,1-2.23-12.69,19.76,19.76,0,0,1,4.94-13.4,12.06,12.06,0,0,0,3.23-8.55,14.36,14.36,0,0,0-2.11-7c-1.4-2.31-3.08-4.47-3.69-7.21a7.65,7.65,0,0,1,.9-6c3.17-5.13,7.85-8.34,13.39-10.3,3.75-1.33,5.71.23,5.66,4.17C131.77,147.42,131.74,147.66,131.72,147.9Z" transform="translate(-0.48 -0.48)"/><path class="cls-1" d="M157.34,350.47c3.14.16,5.81.86,8,2.81,1.91,1.69,3.8,3.41,5.73,5.09a9.81,9.81,0,0,0,6.73,2.65c2.92,0,4.5,3.21,2.81,5.78-6.83,10.39-10.56,21.95-13.09,34a45,45,0,0,1-1.34,5.1c-2.89,8.58-4.35,17.5-6.25,26.31a27.68,27.68,0,0,0-.35,7.39c.26,4.48-2.41,6.62-6.73,6.08-2.79-.34-5.51-.95-7.77-2.82-1.76-1.46-2.15-2.73-1.33-4.86.43-1.11,1-2.17,1.41-3.3,1.38-4,1.15-7.67-2.08-10.83a16.42,16.42,0,0,0-6.14-4,25.78,25.78,0,0,1-7.1-3.4c-4.25-3.16-5.61-7.27-4.93-12.39s3.65-8.77,8-11.26a63.44,63.44,0,0,1,6.78-3c1.17-.5,2.38-.9,3.55-1.41a6.78,6.78,0,0,0,3.65-3.64c1-2.43,2.08-4.85,2.89-7.35,1.5-4.64.68-9.17-1.07-13.57a12.17,12.17,0,0,0-1.86-2.76c-1.43-1.85-1.52-3.4-.08-5.2A14.7,14.7,0,0,1,157.34,350.47Z" transform="translate(-0.48 -0.48)"/><path class="cls-1" d="M181.29,352.34a11.3,11.3,0,0,1-7-2.36,66.13,66.13,0,0,0-6.42-4.14c-3.72-1.94-7.63-3.2-12-2.64a16,16,0,0,0-10.77,5.55c-2.29,2.74-4.18,2.72-6.39,0s-2.15-6-1.74-9.15c.29-2.28,1-4.5,1.51-6.76a42.62,42.62,0,0,0,.72-4.48,4.42,4.42,0,0,0-1.37-3.66c-2.14-2.25-1.28-5,1.7-5.91a8.77,8.77,0,0,1,6.95.63c3.63,1.89,7,.76,10.28-.94,1.16-.6.75-1.75.4-2.77a43.3,43.3,0,0,1-1.75-5.46c-1.72-8.93,5.68-16.84,14.77-16.3a28.9,28.9,0,0,1,16.07,6.22,30.71,30.71,0,0,1,8.65,11,47.09,47.09,0,0,1,4.68,15.27,2,2,0,0,0,.13.7c1.64,3.5.54,6.52-1.6,9.37-1.34,1.79-2.56,3.68-4,5.38a40.87,40.87,0,0,0-4.06,5.61C187.77,351.4,186,352.31,181.29,352.34Z" transform="translate(-0.48 -0.48)"/><path class="cls-1" d="M247.79,157.67c-.15-2.95-.26-5.9-.47-8.84-.19-2.72,1.12-4.39,3.82-4.34a51.07,51.07,0,0,1,7.62.61c4.33.73,8.61,1.75,12.94,2.54a41,41,0,0,0,5,.4c.56,0,1.12-.09,1.68-.06,8,.51,15.72-1.35,23.43-3.14A14.39,14.39,0,0,0,304,144a3.39,3.39,0,0,1,4.59,1.3,7.07,7.07,0,0,1,.82,1.47c2.46,6.31,3.65,12.83,2,19.48A59.54,59.54,0,0,1,299,190.61a40.7,40.7,0,0,1-4.91,4.54,7,7,0,0,1-2.33,1.17c-2.85.93-4.89,0-5.87-2.82a15.77,15.77,0,0,0-2.86-4.93,6.8,6.8,0,0,0-3.55-2.31c-4.38-1.23-8.78-2.41-13.1-3.86a91.48,91.48,0,0,1-9-3.78,23.35,23.35,0,0,1-3.81-2.46,13.92,13.92,0,0,1-5.84-11c-.14-2.47,0-5,0-7.43Z" transform="translate(-0.48 -0.48)"/><path class="cls-1" d="M189.14,196a5.27,5.27,0,0,1,2.44-4.92,119.74,119.74,0,0,1,12.48-6.57,41.07,41.07,0,0,1,18.52-3.16c4.25.22,7.77-1.39,11.2-3.53,1.83-1.13,3.64-2.32,5.54-3.3,2.13-1.11,4.06-.23,5.11,1.93a10.6,10.6,0,0,0,2.12,3.1c2.09,2,4.38,3.73,6.5,5.67,2.45,2.25,5.4,3.27,8.54,4A35.23,35.23,0,0,1,271.65,193c2.82,1.71,5.09,3.87,6,7.16.66,2.39-.35,4.12-2.76,4.67-4.43,1-8.84,2.2-13.32,2.94a104.93,104.93,0,0,1-12.15,1.15,56.5,56.5,0,0,0-13.91,2.23,18.79,18.79,0,0,0-7.44,4.2,47.92,47.92,0,0,0-8,9.48,6.64,6.64,0,0,1-3.42,2.85c-2.38.85-4.37-.12-4.91-2.62-.45-2.1-.53-4.29-1.07-6.36a21.15,21.15,0,0,0-11.77-14.56c-2.17-1-4.39-1.95-6.45-3.17S189,198.06,189.14,196Z" transform="translate(-0.48 -0.48)"/><path class="cls-1" d="M228.71,318.43a11.26,11.26,0,0,1-.53,2.75,3,3,0,0,1-4.28,1.42c-4.78-2.74-10.15-3.83-15.24-5.67a11.44,11.44,0,0,1-7-7c-.54-1.33-1.13-2.64-1.64-4a13.9,13.9,0,0,0-3.54-5.31,17,17,0,0,1-4.73-8.21,7.91,7.91,0,0,1,2.8-8.79,3.86,3.86,0,0,1,.38-.3c7.55-4.53,13.43-11.05,20-16.77,1.14-1,2.21-2.08,3.3-3.13a3.6,3.6,0,0,1,4.17-.94,79.88,79.88,0,0,1,8.08,3.57,114.89,114.89,0,0,1,10.49,6.69,22.2,22.2,0,0,1,4.55,4.53,34.53,34.53,0,0,1,7.43,16.89c.19,1.42.59,2.81.92,4.21,1.23,5.07-3.88,9.21-7.56,8.28a10.47,10.47,0,0,1-2.4-1c-1.11-.63-2.14-1.4-3.24-2.05-2.52-1.48-4.75-1-6.46,1.31a32.16,32.16,0,0,0-5.21,10.19,31.58,31.58,0,0,0-.61,3.25Z" transform="translate(-0.48 -0.48)"/><path class="cls-1" d="M51.25,258.41a58.78,58.78,0,0,1,3.43-19.74c.8-2.42,2.79-2.67,4.72-3a17.83,17.83,0,0,1,12,2.46A44.3,44.3,0,0,1,81.59,246a31.92,31.92,0,0,1,7.81,15.15c1.21,5.38.37,10.42-3.29,14.87a8.36,8.36,0,0,0-1.24,9.42,3.5,3.5,0,0,0,2.64,2.2c1.41.24,2.85.4,4.23.78a26.89,26.89,0,0,1,4.93,1.72,6.5,6.5,0,0,1,1.75,9.74c-2.3,2.71-5.13,4.64-8.74,4.91a37.51,37.51,0,0,1-7.64-.2c-4.67-.61-9.05-.23-13.21,2.18-2.25,1.32-4.11.79-5.52-1.47a47.55,47.55,0,0,1-5.58-11.9c-2.73-9.36-5.21-18.79-6.11-28.54C51.42,262.72,51.37,260.56,51.25,258.41Z" transform="translate(-0.48 -0.48)"/><path class="cls-1" d="M104,383a10.11,10.11,0,0,0-4.88.88c-2.32,1.08-4.39-.09-5.08-2.74-.83-3.17-1.54-6.37-2.27-9.56a82.8,82.8,0,0,0-7.69-21.36A13,13,0,0,1,83,347.55a3.51,3.51,0,0,1,3-4.76c3.74-.68,7.6-1,11.18.25,7,2.45,11.86-.78,16.28-5.55,1.25-1.35,2.39-2.8,3.59-4.18a16,16,0,0,1,6.87-4.68,9.91,9.91,0,0,1,4.65-.58c3.66.56,5.15,3.67,3.91,7.16-1.12,3.16-2.08,6.37-3,9.59-1.31,4.53.63,8.1,3.58,11.29,1.25,1.35,2.77,2.46,3.91,3.89,3.82,4.81,5.65,10.35,4,16.35-1.29,4.76-4.69,8-9.48,9.73a33.48,33.48,0,0,0-6.32,3.33c-2.25,1.43-3,1.6-5.24.24a16.68,16.68,0,0,1-2-1.36A21.14,21.14,0,0,0,104,383Z" transform="translate(-0.48 -0.48)"/><path class="cls-1" d="M359.17,238.71l.67.09a19.29,19.29,0,0,0,10.81-1.25,53.85,53.85,0,0,0,17.89-10.48c4.5-4.12,7.66-9.16,10.6-14.41a36.83,36.83,0,0,1,4.08-5.59,9.49,9.49,0,0,1,6.09-3c3.51-.54,5.92,1.2,8,3.84a23.67,23.67,0,0,1,4.93,13.27,73.63,73.63,0,0,1,.55,8.1,18.05,18.05,0,0,1-2.9,9.28c-3.43,5.14-7.69,9.42-13.47,11.89A33.28,33.28,0,0,0,394.66,259c-2.45,2.72-5,5.37-6.41,8.9a3,3,0,0,1-3.79,1.81c-6.16-1.42-12.17-3.16-17.47-6.93-5.51-3.92-8.69-9.22-10.38-15.6-.33-1.23-.69-2.46-1.07-3.68C354.7,240.73,356.3,238.61,359.17,238.71Z" transform="translate(-0.48 -0.48)"/><path class="cls-1" d="M417.34,321.56c4,.1,8.44-1.07,12.77-2.5a5.21,5.21,0,0,0,2.22-1.75c2.44-3.06,4.79-6.19,7.17-9.3.43-.57.8-1.21,1.28-1.73a3.27,3.27,0,0,1,4.34-.65,13.47,13.47,0,0,0,9.64,1.83,7.81,7.81,0,0,1,.95-.15,3.37,3.37,0,0,1,3.27,4.76,136.44,136.44,0,0,1-9.14,17.9,79.74,79.74,0,0,0-9.68,25.4c-1.28,6.5-.79,13.06-1.33,19.59a62.64,62.64,0,0,1-2.63,13.85c-.17.53-.23,1.09-.35,1.63a3.59,3.59,0,0,1-4.91,2.76c-2.78-.87-4.08-3.33-2.95-6a36,36,0,0,0,2.37-11.44,8.41,8.41,0,0,0-.46-3.05,36,36,0,0,0-4.67-9.13A37.41,37.41,0,0,1,419.66,352a11.57,11.57,0,0,0-2.63-4.74c-3.19-3.41-7.36-3.26-10.78,0a22,22,0,0,1-4.09,3.26c-3.57,2.07-7,.69-8.47-3.19a9.67,9.67,0,0,1-.38-5.67c1.44-6.23,4.29-11.72,9.38-15.76A19.42,19.42,0,0,1,417.34,321.56Z" transform="translate(-0.48 -0.48)"/><path class="cls-1" d="M323.79,209.42c-3.05.55-6.11,1.1-9.15,1.67-.63.12-1.23.38-1.85.49-2.13.39-4-.56-4.45-2.66a14.46,14.46,0,0,0-3.94-7c-1.88-2-1.57-4,.63-5.7a13.63,13.63,0,0,0,2.09-1.93c1.79-2.05,3.53-4.14,5.26-6.23a14.82,14.82,0,0,0,1.85-2.5,86.36,86.36,0,0,0,7.8-19.8c1-4.2.22-8.29-.72-12.33a54.37,54.37,0,0,0-2.71-7.65c-1.29-3.2-.72-4.82,2.52-5.91,6.05-2,12.17-3.9,18.22-5.95,4-1.36,7.55-.11,11,1.65a5.72,5.72,0,0,1,1.91,1.79A25.29,25.29,0,0,1,357,148.52c.5,3.48,1.13,6.94,1.8,10.39.6,3.07,0,4.81-2.62,6.53a51.76,51.76,0,0,0-11,9.17q-4,4.62-7.73,9.48c-2.22,2.92-3.17,6.43-4,9.94a5.31,5.31,0,0,0,.33,2.55c.94,3.18.12,6.2-.94,9.12-1,2.73-3.46,3.61-6.09,4a19.61,19.61,0,0,1-2.87,0Z" transform="translate(-0.48 -0.48)"/><path class="cls-1" d="M430.79,181.17c.08,5.88-4.45,10.94-10.82,11.81-1.35.18-2.71.18-4.06.32-4.13.41-8,1.34-11,4.61-1.85,2-4.79,1.5-6.38-.76a46,46,0,0,0-4.2-5.48,11.79,11.79,0,0,0-10-3.71A57.26,57.26,0,0,1,368,186.69a20.76,20.76,0,0,1-2.29-.69c-5.42-1.77-6.64-6.72-6.09-10.89a4.26,4.26,0,0,1,2.37-3.13c4.75-2.8,9.53-5.56,14.3-8.32a23.31,23.31,0,0,0,2.51-1.38c5.5-4.16,12-6.38,18.15-9.18a45.26,45.26,0,0,1,8.06-2.22,7.86,7.86,0,0,1,2.86-.1c8.26,1.24,15,4.94,19.1,12.47a21.64,21.64,0,0,1,2.09,6.09C429.77,173.25,430.22,177.22,430.79,181.17Z" transform="translate(-0.48 -0.48)"/><path class="cls-1" d="M530.41,129.1A45,45,0,0,1,543,131.84a37,37,0,0,0,4.79,1.52,47.67,47.67,0,0,1,12.83,5.22c3.74,2.19,7.35,4.84,9.61,8.81.54,1,1.38,1.77,2,2.71a62.23,62.23,0,0,1,4.34,7.13,32.77,32.77,0,0,0,17.12,16.93c3.29,1.44,6.58,2.89,9.76,4.55a17.49,17.49,0,0,1,7.33,6.36,9.31,9.31,0,0,1,1.62,5.67,6.08,6.08,0,0,1-6,5.5,35.51,35.51,0,0,1-15.25-2.5,5.16,5.16,0,0,1-3.37-4.86c0-6.58-4.44-9.53-9.59-11.76a39.07,39.07,0,0,0-6.92-1.8c-7.93-1.82-16.05-2.86-23.68-5.87-1.56-.62-3.13-1.22-4.65-1.92a23.07,23.07,0,0,1-11-9.94,51.5,51.5,0,0,1-5.05-11.84,90.21,90.21,0,0,1-1.81-12c-.4-3.22,1-4.63,4.2-4.61Z" transform="translate(-0.48 -0.48)"/><path class="cls-1" d="M82.44,310.81a55.67,55.67,0,0,1,7.17.79c4.58,1.12,8.46-.55,12.34-2.58,2.76-1.45,4-4,5.15-6.68,1.29-3.11,2.51-6.24,2-9.72-.83-5.77-5-9.27-10.27-10.27a9.12,9.12,0,0,0-2.38.1,3.39,3.39,0,0,1-3.65-2.11A3.26,3.26,0,0,1,94,276.48a13.37,13.37,0,0,1,3.27-2c4.39-1.61,8.87-2.66,13.61-1.92a41.32,41.32,0,0,1,14.71,5.56c5.33,3.16,7.63,8.14,7.79,14.05a54.94,54.94,0,0,1-2.88,19.59c-1.26,3.62-3.41,6.29-7.31,7.24-.78.19-1.52.55-2.3.68a18.48,18.48,0,0,0-11.2,6.48,27.46,27.46,0,0,1-14.85,9,59.65,59.65,0,0,1-14.49,1.68A3.72,3.72,0,0,1,77,335c-1.7-2.8-3.56-5.51-5.12-8.39a79.08,79.08,0,0,1-3.54-7.85,3.55,3.55,0,0,1,.9-4A8.54,8.54,0,0,1,73.89,312C76.88,311.52,79.89,311.16,82.44,310.81Z" transform="translate(-0.48 -0.48)"/><path class="cls-1" d="M349.47,295.73c5.41-.43,8.73,3.1,11.74,7.07,1,1.34,1.83,2.81,2.74,4.22a6,6,0,0,0,4,2.72,15.21,15.21,0,0,0,7.07.16c4.47-1,8.18.23,11.38,3.77,2.69,3,4.36,6.11,3.79,10.12a23.92,23.92,0,0,1-1.37,4.54,35.16,35.16,0,0,0-1.48,3.75,43.58,43.58,0,0,0-1.48,12.31c.24,4-1.75,5.3-5.58,3.92-4.25-1.53-8.37-.9-12.33.9a8.89,8.89,0,0,0-4.58,4.72c-.67,1.58-1.62,2.75-3.51,2.77a4.27,4.27,0,0,1-4.1-2.75c-3.74-7.68-7.56-15.33-11.24-23a23.93,23.93,0,0,1-2.16-6.31,16.52,16.52,0,0,0-4-8,24.77,24.77,0,0,1-2.06-2.92c-2.51-4.13-1.17-10.93,2.63-14C342,297.28,345.26,295.57,349.47,295.73Z" transform="translate(-0.48 -0.48)"/><path class="cls-1" d="M296.66,405c-11-.17-21.38-3.05-31.72-6.19a30.9,30.9,0,0,1-15.31-9c-1.84-1.85-1.87-4.14-1.06-6.47,3.09-8.89,8.7-15.9,16-21.68,5.33-4.21,12.83-3.69,16.74-.42a46.57,46.57,0,0,1,4.6,4.15c5,5.47,10.92,9,18.3,10a13.23,13.23,0,0,1,1.64.33c3.51,1,4.16,2.15,3.46,5.77a22.45,22.45,0,0,0,.49,9.75,20.55,20.55,0,0,0,3,7,3.43,3.43,0,0,1-2.51,5.55C305.74,404.36,301.19,404.63,296.66,405Z" transform="translate(-0.48 -0.48)"/><path class="cls-1" d="M471.18,144.43A19.72,19.72,0,0,0,473,154.7a10.08,10.08,0,0,0,1.81,2.78,12.16,12.16,0,0,1,3.45,8.19c0,1.76,0,3.52-.2,5.27-.47,5.6-7.51,12.11-14.79,10.23a31,31,0,0,1-10.46-5.12,19.63,19.63,0,0,0-8.18-3.75c-.55-.1-1.1-.25-1.64-.35a4,4,0,0,1-3.44-3.48c-.36-1.8-.81-3.59-1.34-5.34A20.78,20.78,0,0,0,428,150.61a36.16,36.16,0,0,0-9.56-3.72,14.94,14.94,0,0,1-2.09-.55,3.33,3.33,0,0,1-1.75-5.09c5.43-7.63,12-13.71,21.7-15.25a11.48,11.48,0,0,1,10,2.86c1.19,1.07,2.46,2,3.63,3.12,4.56,4.2,10.18,5.42,16.11,5.79.64,0,1.28,0,1.91,0a3.32,3.32,0,0,1,3.21,3.27C471.25,142.19,471.18,143.32,471.18,144.43Z" transform="translate(-0.48 -0.48)"/><path class="cls-1" d="M136.87,435a23.21,23.21,0,0,1-4.73,13.9,11.27,11.27,0,0,1-8,4.69c-2.93.34-5.88.66-8.82.9-5.36.44-10.2,2.56-15.06,4.61a8.16,8.16,0,0,0-1.52,1.14A21.29,21.29,0,0,1,96,462.15c-2.67,1.4-5.41-.35-5.09-3.36a92.89,92.89,0,0,1,1.6-10.66c2.4-10.81,4.08-21.7,3.92-32.8-.09-5.75-.52-11.49-.85-17.24-.2-3.42.66-4.67,4-5.28a10.14,10.14,0,0,1,3.34-.09,20.83,20.83,0,0,1,11.26,5.47c2.62,2.54,3.48,5.84,3.85,9.33a6.32,6.32,0,0,1,0,1.44c-.62,5.1,1.86,9,5.12,12.42,1.31,1.36,3.4,2,5.17,2.88,1.41.73,2.88,1.37,4.31,2.06a7.2,7.2,0,0,1,4,6.11C136.82,433.38,136.83,434.34,136.87,435Z" transform="translate(-0.48 -0.48)"/><path class="cls-1" d="M389.83,452.29c0-5.93,2.72-12.45,7.58-18.09,1.92-2.22,4.17-4.16,6.24-6.26a9.7,9.7,0,0,0,1.93-2.38,26.41,26.41,0,0,0,2.52-10.39c.17-3.86.61-7.74,3.27-10.79,3.86-4.44,8.66-7.29,14.7-7.44a8.45,8.45,0,0,1,3.62,1c1.84.85,2.38,2.53,2.1,4.42q-.48,3.32-1.18,6.6c-1.85,8.58-3.2,17.3-6.35,25.54a45.1,45.1,0,0,0-3,11.27,42.34,42.34,0,0,0,.9,15.7,16.36,16.36,0,0,0,1.62,3.69c1.25,2.18.94,4-1.19,5.33a15.68,15.68,0,0,1-3.46,1.58,13.75,13.75,0,0,0-5.4,3,5.47,5.47,0,0,1-6,1.2c-3.1-1.05-6.28-1.88-9.31-3.09a7.62,7.62,0,0,1-3.27-2.65A30.25,30.25,0,0,1,389.83,452.29Z" transform="translate(-0.48 -0.48)"/><path class="cls-1" d="M241.67,461.11a9.69,9.69,0,0,1-7.48-3.46,62.59,62.59,0,0,1-5.66-7.11,14.1,14.1,0,0,0-5.93-5.07c-3.43-1.53-6.92-2.91-10.39-4.32-1.83-.73-2.88-2.35-2.14-4.2,1.93-4.86,2.32-9.89,2.2-15.05a7.08,7.08,0,0,1,4-6.63,28.62,28.62,0,0,0,3.68-2.66c2.26-1.79,4.37-3.78,6.74-5.4,4.14-2.84,6.16-7.06,7.84-11.49,1.41-3.72,4-4.58,7.18-2.17,2.18,1.68,3.31,3.74,2.58,6.46-1.23,4.6-.82,9.17,0,13.77.3,1.73.36,3.5.6,5.24a30.73,30.73,0,0,0,2.8,9.87c1.22,2.42,2.18,5,3.46,7.38a101,101,0,0,0,5.56,9.49,6.06,6.06,0,0,1,.48,6.73c-1.82,3.55-4.42,6.28-8.46,7.23C246.38,460.27,244,460.65,241.67,461.11Z" transform="translate(-0.48 -0.48)"/><path class="cls-1" d="M590.15,234.86c-3.14-.47-7.24-1.16-11.35-1.71-6.1-.81-12.21-1.57-18.32-2.24a12.33,12.33,0,0,1-7-2.79,7.09,7.09,0,0,1-2.51-5,23.68,23.68,0,0,1,1.17-9.46,11.57,11.57,0,0,1,13.35-7.93,37.41,37.41,0,0,1,4.18,1,15.36,15.36,0,0,0,7.59-.08c2.74-.56,5.47-1.18,8.17-1.92,2.37-.66,4.69-1.56,7-2.29a10,10,0,0,1,2.35-.44c6.46-.42,12.92-.87,19.39-1.17a9.94,9.94,0,0,1,8.49,4.16,7.4,7.4,0,0,1,1.35,3.51c.31,2.28.3,4.6.46,6.9.32,4.32-.13,4.94-4.48,5.6a16,16,0,0,0-6.48,2.36c-4.07,2.67-8.14,5.35-12.17,8.09A17.48,17.48,0,0,1,590.15,234.86Zm-13.66-12.54a13.66,13.66,0,0,0-1.45-2.38c-1.64-1.87-3.91-2.7-6.23-3.41-1.51-.46-3-.95-4.51-1.5-.86-.31-1.71-.69-2.38.21s-.15,1.7.54,2.3a26.58,26.58,0,0,0,3.74,3c2.39,1.44,4.87,2.75,7.38,4C575.14,225.24,576.49,224.4,576.49,222.32Z" transform="translate(-0.48 -0.48)"/><path class="cls-1" d="M312.71,367.06c-2.46-.5-6.15-1.17-9.8-2a31.11,31.11,0,0,1-4.74-1.69,10.76,10.76,0,0,1-5.77-5.49c-.93-1.94-.58-3.15.76-4.8a38.33,38.33,0,0,0,4.63-6.63,13.66,13.66,0,0,0,1.22-5.78c.1-5.5-1.5-10.36-6-14a14.61,14.61,0,0,1-3-3.72c-1.42-2.34-1-4.77.19-7.08a13.11,13.11,0,0,1,7.33-6.21c3.53-1.36,7-1.78,10.27.59a24.43,24.43,0,0,1,3.48,3.27,13.31,13.31,0,0,0,6,4.17,12,12,0,0,0,2.79.5c2.56.1,5.12,0,7.67.18a7.12,7.12,0,0,1,5.71,10.45,7.32,7.32,0,0,1-2.13,2.2,9.35,9.35,0,0,0-3.56,4.69c-.48,1.35-1,2.71-1.41,4.07-1.2,3.57-.41,7.12.11,10.68.26,1.81.61,3.61.82,5.43a8.09,8.09,0,0,1-3.77,8A17.88,17.88,0,0,1,312.71,367.06Z" transform="translate(-0.48 -0.48)"/><path class="cls-1" d="M368.74,421.7c3.1.13,4.56,1.19,5.53,3.81a1.74,1.74,0,0,1,.13.46c.5,4.3,3.74,6.2,7.06,8,.35.19.74.3,1.11.47,2.53,1.18,3.14,2.85,2.07,5.45-4.7,11.47-3.42,22.36,3.36,32.61a17.79,17.79,0,0,0,4,3.76c1.91,1.51,2.2,1.9,1.14,4a34,34,0,0,0-3.3,11.44c-.32,2.53-2.26,4.1-4.5,3.46-5.69-1.64-11.27-3.57-16.15-7.1A21.94,21.94,0,0,1,360.37,474c-.56-2.81-.74-5.7-1.17-8.54a139.44,139.44,0,0,1-1.56-29.65c.12-2,.27-4,.48-6a3.58,3.58,0,0,1,.61-1.78c2.37-2.9,5.15-5.26,8.9-6.17A7.57,7.57,0,0,1,368.74,421.7Z" transform="translate(-0.48 -0.48)"/><path class="cls-1" d="M80.55,233.5a6.86,6.86,0,0,1-2.38-1c-3.16-2.8-7-3.23-11-3.54-1.27-.1-2.56,0-3.84,0-3-.06-4.38-1.81-3.72-4.74a15,15,0,0,1,1-2.71c4.61-10.37,10.37-20,18.41-28.15a19.29,19.29,0,0,1,1.88-1.85c4.56-3.57,7.67-8.32,10.66-13.16,2-3.2,4-6.36,6-9.53a13.51,13.51,0,0,1,1.3-1.71c3-3.3,7.58-2.42,9.23,1.74a7.18,7.18,0,0,1,.12,6c-1.73,3.6-3.51,7.17-5.17,10.81A30.73,30.73,0,0,0,100.24,197a21.46,21.46,0,0,0,1.24,7.75c.25.76.54,1.5.79,2.26,2.35,7.05.93,13.47-4.12,18.67C93.58,230.38,87.73,233,80.55,233.5Z" transform="translate(-0.48 -0.48)"/><path class="cls-1" d="M463.35,212.92c-4.68.55-9.39.92-14,1.7a19.14,19.14,0,0,0-13.13,8,5.13,5.13,0,0,1-2,1.67,3.27,3.27,0,0,1-4.72-3,18.55,18.55,0,0,1,.32-2.86c.49-3.6.2-7-2.36-9.92a30.91,30.91,0,0,1-2-3c-1.93-2.77-1-5.61,2.25-6.88,1.78-.7,3.5-1.55,5.24-2.37,4.19-2,5.81-5.71,6.78-9.88a18.91,18.91,0,0,0,.27-2.62c.36-3.82,3.75-5.6,7.13-3.74a10.2,10.2,0,0,1,4.28,4.42,6.34,6.34,0,0,0,2.7,2.58c5.17,3.06,10.7,3.46,16.45,2.36,3.8-.72,6.37-3.1,8.42-6.22a48.12,48.12,0,0,1,3.31-4.68c1.8-2.15,4.41-2,5.71.48,3.68,6.91,4.37,14.13-.2,20.7-3.92,5.63-8.75,10.68-15.93,12.42a40.78,40.78,0,0,1-4.15,1.07,32.58,32.58,0,0,1-4.31,0Z" transform="translate(-0.48 -0.48)"/><path class="cls-1" d="M177.45,235c-5.27.11-9.87,1.48-13,6.21-1.87,2.84-3.56,2.93-6.41,1A12.45,12.45,0,0,0,149,240c-.95.15-1.89.31-2.84.44-2.43.34-3.87-.67-4.28-3a6,6,0,0,1-.11-2.37c1.42-5.71,3.25-11.21,7.88-15.29a31.37,31.37,0,0,1,9.09-5.23,29.86,29.86,0,0,0,8.27-4.75,11.88,11.88,0,0,0,4.25-7.55c.5-3.41,3-4.62,6.11-3.12a72.75,72.75,0,0,1,16.28,11.31c.6.53,1.25,1,1.87,1.49a16.55,16.55,0,0,1,4.95,5.44c1.72,3.43,3.62,6.78,4.2,10.64a10.48,10.48,0,0,1,.06,2.85c-.31,2.22-1.16,3-3.34,3.46a24.09,24.09,0,0,0-3.24.84,8,8,0,0,0-4.2,3.39c-1.8,2.9-4,2.92-6.31.32s-5.25-3.51-8.52-3.83C178.57,234.92,178,235,177.45,235Z" transform="translate(-0.48 -0.48)"/><path class="cls-1" d="M274.36,351.31c-3.83.3-7.65.59-11.47.91a10.76,10.76,0,0,0-5.46,2.27,40.36,40.36,0,0,1-5.79,3.8,15.92,15.92,0,0,1-5.7,1.62,9,9,0,0,1-9.85-8.89,32.51,32.51,0,0,1,.73-7.35,15.8,15.8,0,0,0-.46-8.73,26.41,26.41,0,0,1-1.68-13.18,28.66,28.66,0,0,1,1.51-5.77c1-2.69,3.48-3.37,5.8-1.63a7.22,7.22,0,0,0,4.17,1.59c5.13.16,9.2,2.71,12.64,6.13,3,3,6.62,4.24,10.67,4.69,2.61.29,5.24.57,7.83,1,6.23,1,10,5,11.46,10.86,1.53,6.17-2.35,11.44-7.72,12.23-2.21.33-4.44.48-6.66.71Z" transform="translate(-0.48 -0.48)"/><path class="cls-1" d="M516.46,441.55c-4.81-.8-8,3.06-10.69,7.36-1,1.57-1.75,3.13-3.9,2.88s-2.71-2-3.38-3.81c-1.75-4.72-3.66-9.37-5.64-14-2.3-5.36-4.69-10.68-7.13-16A65.79,65.79,0,0,0,475,401.1c-.54-.59-1.19-1.07-1.76-1.62a3.45,3.45,0,0,1-.89-4.54,14,14,0,0,0,1.38-5.28c.28-3.27,2.27-4.57,5.31-3.31a46,46,0,0,1,6.75,3.59,8.07,8.07,0,0,1,2.77,2.92,33.07,33.07,0,0,0,4.43,5.93c2.58,3.06,6.18,4.39,9.78,5.78,3,1.18,6.23,2.21,9,3.94A21.56,21.56,0,0,1,522,423.73a13.35,13.35,0,0,0,5.07,8.59c3,2.54,2.78,5.58-.66,7.65C523.7,441.6,520.74,442.08,516.46,441.55Z" transform="translate(-0.48 -0.48)"/><path class="cls-1" d="M465.42,226.76c.19,4,.81,8.25,3.21,12a21.1,21.1,0,0,1,2.68,7.86c1.15,6.22-.84,11.65-4.5,16.61a17.76,17.76,0,0,1-8.15,6.07c-4.06,1.57-4.08,1.58-8.14,0-4.6-1.81-9.18-3.68-13.77-5.51a10.6,10.6,0,0,1-4.92-4.05c-2.05-3.05-4.21-6-6.13-9.15a13.09,13.09,0,0,1-1.66-4.45,4.42,4.42,0,0,1,.78-2.87,27.92,27.92,0,0,1,3.17-3.89c6.11-6.51,13.64-11,21.49-15a25.93,25.93,0,0,1,11-3C464.39,221.14,465.6,222.38,465.42,226.76Z" transform="translate(-0.48 -0.48)"/><path class="cls-1" d="M528,477.56c.32,1.3.78,3.31,1.3,5.31.31,1.24.86,2.45-.35,3.55a3.46,3.46,0,0,1-3.81.67c-5-2-10.15-3.92-15-6.33-5.08-2.52-7.29-9.81-6.21-13.92a27.69,27.69,0,0,1,23.51-20.61c1.19-.12,2.39-.22,3.58-.32a3.83,3.83,0,0,0,3.55-2.77c1-2.86,1.88-5.77,2.91-8.62a43.37,43.37,0,0,1,2.36-5.47c1.26-2.4,3.55-3.38,6.1-3.74a3.84,3.84,0,0,1,4.24,2.43A7.86,7.86,0,0,1,551,430c.61,5.16,3.13,9.52,5.62,13.9,1.3,2.28,2.69,4.52,4,6.79a3.25,3.25,0,0,1-1.26,4.72,11.92,11.92,0,0,1-2.2,1,9.25,9.25,0,0,0-5.3,4.58c-1.53,2.68-2.14,2.83-5.25,2.47-3.91-.47-7.79-.58-11.47,1.37A12.07,12.07,0,0,0,530,470,16.17,16.17,0,0,0,528,477.56Z" transform="translate(-0.48 -0.48)"/><path class="cls-1" d="M229.88,343.42a77.21,77.21,0,0,1-2,8.13,11.52,11.52,0,0,0,.39,8.41,10.51,10.51,0,0,0,6.45,6.08c3.07,1,6.2,2.14,9.59,1.5a3,3,0,0,1,3.28,1.5,3.16,3.16,0,0,1-.05,3.62c-.78,1.21-1.62,2.37-2.42,3.56-1.28,1.91-2.58,3.82-3.83,5.75a4.13,4.13,0,0,1-5.36,1.89,23.77,23.77,0,0,1-4.39-1.9c-6.5-3.87-13.59-6.35-20.68-8.82-5.27-1.83-10.66-3.34-16-5.07-2.19-.72-4.18-2.29-3.34-5.47a29,29,0,0,1,2-5.37,29.47,29.47,0,0,1,6.06-8c3.49-3.36,5.43-7.67,7.44-11.93.93-2,.62-4.05.23-6.12a7.83,7.83,0,0,1-.11-2.81,3.36,3.36,0,0,1,4.12-3A22.28,22.28,0,0,1,222.39,330c2.71,2.06,5.05,4.48,6.13,7.8C229.1,339.57,229.42,341.46,229.88,343.42Z" transform="translate(-0.48 -0.48)"/><path class="cls-1" d="M342.45,198.16a20.47,20.47,0,0,1,.6-3.76c1.06-3.09,2.26-6.13,3.49-9.16a7.43,7.43,0,0,1,1.35-2c2.31-2.67,5.12-2.14,6.55,1.06a46.67,46.67,0,0,0,3,5.39,11.65,11.65,0,0,0,1.79,1.93c3.38,3.47,7.58,4.38,12.27,4.14a98.09,98.09,0,0,1,11,0c4.92.28,8.18,3.05,9.2,7.64.31,1.4.7,2.79,1,4.18a9.35,9.35,0,0,1-3.37,9.85,43,43,0,0,1-5.71,3.44,41.09,41.09,0,0,0-5.23,3.28,50,50,0,0,1-9.47,6.46c-4.79,2.45-9.71,2.26-14.72,1.08a3.33,3.33,0,0,1-2.49-2.66c-.46-1.86-.9-3.72-1.38-5.58a51.67,51.67,0,0,0-3.7-10.6A37.61,37.61,0,0,1,342.45,198.16Z" transform="translate(-0.48 -0.48)"/><path class="cls-1" d="M661.64,292.34c-9.2,0-18.12-1.9-27-3.79q-17.82-3.76-35.61-7.78a79.43,79.43,0,0,1-9.42-2.78,42.32,42.32,0,0,1-5.54-2.8,5.2,5.2,0,0,1-2.56-3.61,10.73,10.73,0,0,1,2.9-10.39,6.59,6.59,0,0,1,8-1.37c7.14,3.51,14.66,5.89,22.25,8.14,4.06,1.2,8.12,2.41,12.1,3.85A73.48,73.48,0,0,0,644,275.48c8.51.94,17,1.9,25.53,2.67a27.15,27.15,0,0,0,12.39-2.22,14.39,14.39,0,0,1,2.23-.85,3.22,3.22,0,0,1,3.69,1.58,3,3,0,0,1-.59,3.94,64.73,64.73,0,0,1-6.37,5.45A33.73,33.73,0,0,1,661.64,292.34Z" transform="translate(-0.48 -0.48)"/><path class="cls-1" d="M324.42,217.69a71.84,71.84,0,0,1,7.14,1.39c5.22,1.57,8.89,4.77,10.38,10.27a36.75,36.75,0,0,0,2.68,6.4,32.3,32.3,0,0,1,3.06,11.75,6.6,6.6,0,0,1-.58,3,26.69,26.69,0,0,1-2.31,4.19,20,20,0,0,0-2.73,6.85,49.14,49.14,0,0,1-1.89,6.66c-1.21,3.22-3.7,4.68-7.13,4.49-3.27-.19-6.3-.92-8.62-3.5-1.07-1.18-2.28-2.24-3.42-3.36-3.09-3-6.9-4.87-10.84-6.45a8.86,8.86,0,0,0-2.84-.29c-.63,0-1.27.1-1.91.11a3.41,3.41,0,0,1-3.31-2,3.35,3.35,0,0,1,.38-3.62,25.67,25.67,0,0,1,7-6.78,12.51,12.51,0,0,0,6.07-8.46,45.8,45.8,0,0,0,1.07-13.55c-.24-3.16,1.11-5.46,3.84-6.49A19.28,19.28,0,0,1,324.42,217.69Z" transform="translate(-0.48 -0.48)"/><path class="cls-1" d="M161.06,466.28c0,2,0,4,0,6,0,2.2-.68,3.29-2.73,4a12.91,12.91,0,0,1-3.26.78c-3.89.2-7.18,2-10.47,3.79l-.41.25c-3.27,2-4.52,1.82-7.05-1-2.8-3.14-6.34-3.55-10.1-2.71-5.85,1.31-10.42,4.36-12.81,10.13-.55,1.32-1.27,2.57-2,3.84a3.42,3.42,0,0,1-4.42,1.78c-7.88-2.57-12.92-8-15.63-15.69-.9-2.55.35-4.81,2.23-6.41a28.81,28.81,0,0,1,5.5-3.34,40.21,40.21,0,0,1,5.91-2.58,60.81,60.81,0,0,1,8.77-2.29c4.64-.78,9.35-1.13,13.75-3.06a21.43,21.43,0,0,0,7.63-5.65c.84-1,1.63-2,2.54-2.87,1.79-1.75,3.55-1.72,5.58-.31a58.07,58.07,0,0,0,5.72,3.43,13,13,0,0,0,6.28,1.29c3.26,0,4.59,1.39,4.59,4.7,0,1,0,2.08,0,3.11v2.88Z" transform="translate(-0.48 -0.48)"/><path class="cls-1" d="M176.42,288.94c-.67-.15-1.78-.3-2.84-.62a20.41,20.41,0,0,0-12.49.16c-1.36.45-2.7,1-4,1.48a7.06,7.06,0,0,0-3.28,3,28.51,28.51,0,0,0-5,16c0,2.28-1.34,3.53-3.63,3.53a11.34,11.34,0,0,1-3.08-.36c-4.67-1.35-5-4.22-4-7.67s2.16-7,3.13-10.53c1.14-4.19-.07-8.1-2-11.76a51.91,51.91,0,0,0-4.21-6.08,11.55,11.55,0,0,1-1.75-10.27,18,18,0,0,1,6.21-10l6-4.72a7,7,0,0,1,10.44,2.44,8.11,8.11,0,0,1,.72,1.52,32.66,32.66,0,0,0,4.31,8.49,21.22,21.22,0,0,0,5.6,6.14c2.95,2.05,5.94,4,8.91,6.05a21.89,21.89,0,0,1,5.93,5.5c2.5,3.64,1,7.06-3.33,7.56C177.67,288.86,177.27,288.88,176.42,288.94Z" transform="translate(-0.48 -0.48)"/><path class="cls-1" d="M295,271.17c-.45,5.53-1,10.29-3.26,14.65a9.43,9.43,0,0,1-1.1,1.84c-3,3.42-3.51,7.52-2.88,11.72a13,13,0,0,1-1.38,7.85c-2,4.16-5.17,7.28-8.65,10.13a7.24,7.24,0,0,1-3,1.42c-6.58,1.41-11.71-1-15.63-6a2.87,2.87,0,0,1-.18-3.79c3.21-3.67,2.51-7.87,1.91-12.08-.72-5.14-1.8-10.22-1.11-15.49.79-6,3.67-10.47,9-13.28a12.65,12.65,0,0,1,9.78-.95,7.64,7.64,0,0,0,5.79-.45c1.37-.65,2.78-1.22,4.19-1.8,2.67-1.09,4.77-.26,5.72,2.45A22,22,0,0,1,295,271.17Z" transform="translate(-0.48 -0.48)"/><path class="cls-1" d="M136.9,247.71a3.11,3.11,0,0,1-2.33,3.44c-5.91,1.43-7.68,6.2-9.28,11.16a11.17,11.17,0,0,1-1.24,3c-1.15,1.6-2.56,1.88-4.46,1.25-2-.68-4.1-1.34-6.15-2a11,11,0,0,0-8.6.45c-3.12,1.54-5.31.3-5.88-3.13a6,6,0,0,1-.09-.71,19.39,19.39,0,0,0-5.14-12.86c-1.2-1.37-2.61-2.54-3.94-3.79a6.17,6.17,0,0,0-.6-.39c-1.49-1.1-2.06-2.46-1.64-3.92a3.7,3.7,0,0,1,3.59-2.65c1-.09,2.06-.18,3.08-.32,4.12-.58,7-3.07,9.22-6.32a47.52,47.52,0,0,0,2.89-6,13,13,0,0,1,1.73-3.08,3.17,3.17,0,0,1,4.71-.07,2.73,2.73,0,0,1,.33.35c4.18,5.09,9.54,5.74,15.38,3.79,2.76-.92,5,.68,5.53,4.18a19.81,19.81,0,0,1,.06,3.36,28,28,0,0,0,2.52,13A4.66,4.66,0,0,1,136.9,247.71Z" transform="translate(-0.48 -0.48)"/><path class="cls-1" d="M545.8,241.85a11.56,11.56,0,0,1-2.62,7.27c-3.69,4.5-6.86,9.42-11.12,13.45-1.79,1.7-3.51,3.48-5.27,5.22-4.15,4.09-7.6,8.59-8.75,14.51-.66,3.43-3.25,4.62-6.23,3a3.55,3.55,0,0,1-2-4c.81-4.75-.22-9.39-.67-14.07a5.09,5.09,0,0,0-.45-1.61,72,72,0,0,1-4.69-16,87.65,87.65,0,0,1-.91-9.75c-.12-1.59-.07-3.2-.2-4.79s.17-2.87,1.6-3.71a3.81,3.81,0,0,1,4.09.19,50.94,50.94,0,0,0,12.34,5.1,17.21,17.21,0,0,0,12.6-1c1.35-.68,2.71-1.34,4.05-2,1.69-.91,3-.87,4.39.46A11.23,11.23,0,0,1,545.8,241.85Z" transform="translate(-0.48 -0.48)"/><path class="cls-1" d="M73.6,421.58a21.5,21.5,0,0,1-1.69,8.69A43.27,43.27,0,0,1,63.24,444a10.39,10.39,0,0,1-9.07,3.4c-1.53-.16-2.83-.65-3.49-2.13a3.17,3.17,0,0,1,.82-3.94c2.31-1.93,2.13-4.32,1.92-7-.33-4.08-2.11-7.66-3.43-11.41-.67-1.88-1.35-3.76-1.89-5.67-1.33-4.62-.24-9,1.46-13.32a2.87,2.87,0,0,0-.2-3.07c-1-1.51-1.94-3.12-3-4.61a123.12,123.12,0,0,1-13.82-25.12c-.91-2.18.16-4.15,2.53-4.3a8.22,8.22,0,0,1,3.67.75,51.3,51.3,0,0,1,6.1,3.3,5.22,5.22,0,0,1,2,2.27c1.46,3.54,2.74,7.15,4.1,10.73a32.05,32.05,0,0,0,1.38,3.31c1.23,2.42,2.55,4.79,3.82,7.19a5.18,5.18,0,0,0,3.56,2.8c6.09,1.65,10,5.93,12,11.74A37,37,0,0,1,73.6,421.58Z" transform="translate(-0.48 -0.48)"/><path class="cls-1" d="M190.3,375.4c6.7.54,12.92,2.83,19.07,5.33,3.7,1.5,7.34,3.14,11,4.73.81.35,1.61.72,2.38,1.13,3.24,1.7,4.21,4,3.11,7.58a12.67,12.67,0,0,1-1.21,2.86,44.52,44.52,0,0,1-10,11.57,20.67,20.67,0,0,1-4,2.22c-3.72,1.87-7.25,1.05-10.77-.74a23.89,23.89,0,0,1-6.14-4.5c-.51-.51-1.12-.91-1.62-1.43-2.22-2.32-4.12-1.51-5.9.93-1.07,1.47-1.69,3.26-2.64,4.83a14.18,14.18,0,0,1-2.56,3.4c-1.82,1.57-3.72,1.25-5.23-.59-2.3-2.79-2.6-5.67-1.17-9.13,2.31-5.6,4.13-11.4,6.21-17.1,1.06-2.92,2.1-5.85,3.38-8.67.83-1.82,2.64-2.45,4.58-2.55A8.74,8.74,0,0,1,190.3,375.4Z" transform="translate(-0.48 -0.48)"/><path class="cls-1" d="M527.23,418.14a44.14,44.14,0,0,0-.3-7.11,14.37,14.37,0,0,0-5.43-8.73A27.28,27.28,0,0,0,509.61,397a35.77,35.77,0,0,1-6.64-2c-4.22-1.74-9-7.23-7.23-14.14,2.28-9.06,10.84-14.24,20.09-12a14.49,14.49,0,0,1,10.45,8.3c2.5,5.25,5.57,10.24,8.27,15.41,1.4,2.68,2.48,5.52,3.81,8.24,1.81,3.73,3.72,7.41,5.58,11.12a14,14,0,0,1,1,2.17c.92,3.07-.44,5.2-3.58,5.64a7.7,7.7,0,0,0-4.53,2.49c-.89.91-1.66,1.94-2.52,2.88-1.86,2-4.4,1.71-5.73-.7A9.61,9.61,0,0,1,527.23,418.14Z" transform="translate(-0.48 -0.48)"/><path class="cls-1" d="M327.42,398.92c-1.35,0-2.71,0-4.06,0-2.09.05-3-.59-3.82-2.55-2.37-5.9-1.26-11.47,1.73-16.78a20.31,20.31,0,0,1,8.58-8.44c4.92-2.49,7.48-8.68,6.13-14.1-.71-2.86-1.53-5.7-2.12-8.58a16.6,16.6,0,0,1-.1-4.05,5.14,5.14,0,0,1,.55-2.07c1.65-3,3.82-4.38,6.7-1.13a40.61,40.61,0,0,1,4.14,6.41c.86,1.43,1.51,3,2.36,4.44a42.24,42.24,0,0,1,3,7.52c2.51,7,3.73,14.36,4.95,21.69.32,1.89.46,3.8.63,5.71a3.52,3.52,0,0,1-1.94,3.58,85,85,0,0,1-16.09,7.35A25.86,25.86,0,0,1,327.42,398.92Z" transform="translate(-0.48 -0.48)"/><path class="cls-1" d="M594.6,250.8c.74-3.52,1.45-6.7,3.69-9.28a6.57,6.57,0,0,1,1.45-1.23c4.84-3,9.64-6,14.56-8.79a49.21,49.21,0,0,1,7.61-3.46c2.6-.94,4-.24,5.22,2.3a33.43,33.43,0,0,0,5.28,7.93c1.71,1.9,2.69,4.5,3.88,6.85,2.57,5,4.85,10.25,8.4,14.75a11,11,0,0,1,2.81,6c.26,3.21-1.65,5-4.9,4.3-4-.93-8.07-2-12-3.2s-7.5-2.74-11.28-4a50.42,50.42,0,0,0-5.58-1.36,50.14,50.14,0,0,1-14.7-5,11.83,11.83,0,0,1-3.33-3A9.33,9.33,0,0,1,594.6,250.8Z" transform="translate(-0.48 -0.48)"/><path class="cls-1" d="M539.08,289.74a34,34,0,0,1-9.55-.67c-2.51-.54-3.42-1.85-3.26-4.43a15.46,15.46,0,0,1,2.89-7.54,25.18,25.18,0,0,1,7.63-7.85c1.43-.88,2.8-1.87,4.26-2.68a26.83,26.83,0,0,0,8.46-8A16.51,16.51,0,0,0,552.9,249c0-.64,0-1.28.05-1.92.1-3.14,1.32-4.77,4.38-5.77,2.75-.91,5.54-.61,8.31-.15,1.34.22,2.63.69,4,.95,3.13.61,6.27,1.15,9.41,1.74a12.82,12.82,0,0,1,2.32.53,3.51,3.51,0,0,1,2.37,4,8,8,0,0,1-.93,2.94,22.5,22.5,0,0,1-7.44,7.68c-4.77,2.92-9.57,5.79-14.3,8.76a11.38,11.38,0,0,0-2.84,2.52,27.24,27.24,0,0,0-5.42,11.37,32.78,32.78,0,0,1-1,3.2A5.82,5.82,0,0,1,546.7,289C544.18,289.38,541.62,289.51,539.08,289.74Z" transform="translate(-0.48 -0.48)"/><path class="cls-1" d="M469.37,332c2.73.07,4.65.6,6.16,2,1.68,1.58,3.24,3.28,4.8,5,1.72,1.88,3.1,4.21,5.12,5.65,3.87,2.77,8.3,4.08,13.12,2.64,1.29-.38,2.48-1.08,3.74-1.59,1.88-.76,3.46-.42,4.45,1.14,1.88,2.95,3.66,6,5.47,9a5.31,5.31,0,0,1,.48,1.09c.79,2.36-.5,4.45-3,4.55a29.21,29.21,0,0,0-11.64,3.35,17.32,17.32,0,0,0-6.67,5.68,23.9,23.9,0,0,0-4.17,8c-.48,1.95-2,2.78-4,2.66A6.77,6.77,0,0,1,476.9,376c-.95-3.22-2-6.41-3-9.6-1.22-3.86-3-7.37-6.25-10-1.3-1-1.36-2.7-1.48-4.18A39.38,39.38,0,0,0,463.69,342c-.32-.9-.73-1.77-1.08-2.66a4.1,4.1,0,0,1,1.22-5.17A8.89,8.89,0,0,1,469.37,332Z" transform="translate(-0.48 -0.48)"/><path class="cls-1" d="M214,474.86c-1.28-.06-2.25,0-3.2-.16a6.42,6.42,0,0,1-5.18-3.39c-2.27-4.31-4.7-8.54-6.92-12.87-3.76-7.32-7.4-14.71-11.12-22.05-.83-1.63-1.89-3.15-2.66-4.81-.94-2-1.72-4.13-2.48-6.22a4.64,4.64,0,0,1,.4-3.93,20.44,20.44,0,0,1,4.06-5.6c2.51-2.29,4.85-2.78,7.62-1a95.47,95.47,0,0,1,9.4,7c2.34,2,2.71,4.81,2.28,7.71-.22,1.49-.76,2.93-1.09,4.41-.63,2.89-1.3,5.77-1.8,8.68-.34,2,.39,2.8,2.34,3.51,3.75,1.35,7.48,2.78,11.19,4.24a9.19,9.19,0,0,1,2.24,1.36c2.38,1.89,4.75,3.78,7,5.77a6.06,6.06,0,0,1,1.75,7.38c-1.86,4-4.29,7.56-8.79,8.95A42.38,42.38,0,0,1,214,474.86Z" transform="translate(-0.48 -0.48)"/><path class="cls-1" d="M668.68,347.35c1.11-1,2-1.93,3-2.75a13.38,13.38,0,0,1,12.76-2.86,6.94,6.94,0,0,1,4.8,4c1.38,3.22,2.22,6.5.68,10-.56,1.23-.94,2.55-1.41,3.82a14.06,14.06,0,0,1-5,6.58,6.29,6.29,0,0,0-1,.73c-3.8,4.11-8.81,6.27-13.75,8.53a24.53,24.53,0,0,0-2.5,1.4,4,4,0,0,1-5.08-.33,5.56,5.56,0,0,1-1.29-1.41,16.8,16.8,0,0,0-5.71-5.69,5.18,5.18,0,0,1-2.43-5.32,30.39,30.39,0,0,0-4.15-19.08c-2.19-3.6-.11-6.62,3.56-7.55a11.57,11.57,0,0,1,7.07.34C663,339.52,666.79,342.37,668.68,347.35Z" transform="translate(-0.48 -0.48)"/><path class="cls-1" d="M30.41,339.54a146.83,146.83,0,0,1,3.43-34c1.31-6.25,2.66-12.5,3.83-18.77.74-4,1.2-8.06,2.65-11.9.12-.3.19-.62.3-.92A3.58,3.58,0,0,1,44,271.3c1.49-.08,2.7.88,3.32,2.62a17.29,17.29,0,0,1,.78,3c.9,5.35,1.82,10.71,2.59,16.08a12.22,12.22,0,0,1-.2,4.47c-1.28,5.36-2.94,10.63-4.06,16A131,131,0,0,0,44,350c.2,2.63.5,5.25.69,7.88a8.43,8.43,0,0,1-.11,2.61,3.48,3.48,0,0,1-4.74,2.7,18.49,18.49,0,0,1-7-4,7.12,7.12,0,0,1-2.44-5.5C30.42,349,30.41,344.26,30.41,339.54Z" transform="translate(-0.48 -0.48)"/><path class="cls-1" d="M490.07,248.28a24.8,24.8,0,0,1,3.11,0c2.67.31,3.82,1.66,4.38,4.25.82,3.82,2,7.57,2.77,11.4.64,3.12.94,6.31,1.41,9.46a27.71,27.71,0,0,0,.64,3.29c1.4,4.95.39,9.67-1.42,14.28a3.59,3.59,0,0,1-4,2.46,26.43,26.43,0,0,1-6.3-1.31c-7-2.82-14.21-2.61-21.5-1.83l-.71.1c-3.49.58-5.15-.67-5.43-4.18a10.24,10.24,0,0,0-1.29-4.78,3.09,3.09,0,0,1,.94-4.44,13.8,13.8,0,0,1,3.7-1.55c1.74-.55,3.61-.76,5.29-1.45,5.89-2.39,8.6-7.15,9.23-13.21a46.74,46.74,0,0,0-.08-6.69c-.16-3.41.71-4.72,4-5.42,1.7-.36,3.47-.43,5.21-.63Z" transform="translate(-0.48 -0.48)"/><path class="cls-1" d="M449.81,290.42c-4.26-.65-8.51-1.37-12.78-1.93-8.16-1.08-16.35-2.11-24.16-4.83-4.88-1.7-9.61-3.84-14.41-5.78-1-.39-1.94-.75-2.88-1.19a3.37,3.37,0,0,1-2-4.13,8,8,0,0,1,.7-2c2-3.68,4.11-7.22,7.49-9.83s7.1-4.86,11.46-5.73c3.62-.73,6,.18,7.93,3.35A6.87,6.87,0,0,1,422,260c1.2,4.44,4.5,7.1,8.13,9.34a80,80,0,0,0,8.32,4.21c3,1.42,6.21,2.55,9.16,4.13,3.1,1.65,6.08,3.58,7.75,6.89s.11,5.7-3.61,5.66h-1.92Z" transform="translate(-0.48 -0.48)"/><path class="cls-1" d="M190.68,251.49c2.06-2,3.78-3.78,5.61-5.43,4.52-4.06,9.75-4.49,15.24-2.57,3.35,1.18,5,4.91,4.29,8.69-.59,3-2.3,5.37-4.25,7.65-5.63,6.58-12.71,11.42-19.51,16.59-3,2.29-4.72,1.93-7.38-.59-3.65-3.46-7.48-6.74-11.13-10.21a25.52,25.52,0,0,1-5.53-7.45c-3-6.21.29-12.1,6.3-14.2,2.64-.93,5.48-1.88,8.07-.1a60.24,60.24,0,0,1,6,5.09A32,32,0,0,1,190.68,251.49Z" transform="translate(-0.48 -0.48)"/><path class="cls-1" d="M306.46,265.65c3.09-.34,5.69,1.43,7.86,3.93a30,30,0,0,1,3.16,4.49,7.87,7.87,0,0,0,8,4.18,22.09,22.09,0,0,1,5,.16c4.24.68,6.93,3.44,8.58,7.2,1,2.36.23,4.12-2.06,5.38-1.47.8-3,1.56-4.41,2.4-3.73,2.13-5.21,5.33-4.48,9.65.12.7.35,1.39.46,2.1a3.71,3.71,0,0,1-3.08,4.58,6.67,6.67,0,0,1-4.46-.34c-2.23-1-4.5-2.08-6-4.18-.33-.45-.71-.87-1.06-1.3-3.54-4.32-8.45-5.08-13.15-2a4.66,4.66,0,0,1-3.09,1.05,3.49,3.49,0,0,1-3.07-4.34,46.18,46.18,0,0,1,2.4-7.74,38,38,0,0,1,2.34-4.16c2.69-5,4.28-10.12,2.08-15.81-1.22-3.15.23-5.12,3.61-5.28C305.36,265.63,305.68,265.65,306.46,265.65Z" transform="translate(-0.48 -0.48)"/><path class="cls-1" d="M638.84,381.11c2.53-.07,5.52-.11,8.15-1.75a25.88,25.88,0,0,0,2.67-2c2.1-1.71,4.23-1.36,5.63,1a6.17,6.17,0,0,1-1.61,8.33,13.09,13.09,0,0,1-9.63,2.83,46.79,46.79,0,0,0-6.7-.12,5.26,5.26,0,0,0-4.29,2.3,37.58,37.58,0,0,0-2.53,4.05c-1.29,2.36-2.95,3.2-5.33,2a45.19,45.19,0,0,1-8.11-5c-4.65-3.82-5.65-9.09-4.89-14.79a44,44,0,0,1,3.39-11.72,7.61,7.61,0,0,0,.28-5.57c-1-3.28-1.84-6.6-2.74-9.91a8.55,8.55,0,0,1-.27-1.41,3.3,3.3,0,0,1,2-3.49,3.26,3.26,0,0,1,3.87,1.06,31.71,31.71,0,0,1,2,3,5.33,5.33,0,0,0,4.76,2.65c3.11.08,4.43,2.54,3,5.4a19.28,19.28,0,0,0-2.46,10.36,55.56,55.56,0,0,0,1.34,7.29,3.58,3.58,0,0,0,1,1.61c2.45,2.4,5.11,4.39,8.84,4C637.6,381.07,638,381.11,638.84,381.11Z" transform="translate(-0.48 -0.48)"/><path class="cls-1" d="M481.59,301.32c4.76.07,8.8,1.62,11.48,5.74a8.13,8.13,0,0,1,1.24,3.53,48.1,48.1,0,0,0,4,14.46,29.1,29.1,0,0,0,4.62,7.76c1.7,1.94.68,4.53-1.85,5.23a13.3,13.3,0,0,1-10.6-1.58,30.25,30.25,0,0,1-7.12-5.6,33.75,33.75,0,0,0-5.48-4.63c-2.52-1.8-5.5-2-8.49-1.91-1.28,0-2.55.16-3.83.15-2.32,0-3.56-1.43-3.15-3.72.3-1.64.83-3.24,1.26-4.86.53-2,1.05-4,1.61-6a9.09,9.09,0,0,1,4.21-5.33A22.34,22.34,0,0,1,481.59,301.32Z" transform="translate(-0.48 -0.48)"/><path class="cls-1" d="M367.26,126.87a65.51,65.51,0,0,1,15.6,1.39c6,1.18,12.08,2.33,18.1,3.58a9.15,9.15,0,0,1,3.26,1.38,3.21,3.21,0,0,1,.09,5.32,25.91,25.91,0,0,1-5,2.72c-3.24,1.33-6.61,2.37-9.86,3.7a79.12,79.12,0,0,0-18.82,10.38c-2.93,2.27-6.46.91-7.41-2.84a28.64,28.64,0,0,1-.46-4.75c-.24-2.86-.48-5.73-.68-8.6a7,7,0,0,0-2.41-4.79,9.74,9.74,0,0,1-1-1c-1.92-2.38-.94-5.26,2.08-5.78C363.15,127.15,365.63,127,367.26,126.87Z" transform="translate(-0.48 -0.48)"/><path class="cls-1" d="M504,171.45c-.35,3-.87,7.63-1.41,12.22a6.26,6.26,0,0,1-.42,1.61,3.29,3.29,0,0,1-3.6,2.16,3.36,3.36,0,0,1-2.82-3.13c-.21-1.66-.41-3.31-.64-5a14.29,14.29,0,0,0-2.45-5.67L485,161.78a40.77,40.77,0,0,1-6.51-18.57,4.71,4.71,0,0,1,2.65-4.93,66.7,66.7,0,0,1,13.33-5.9c3.87-1.1,6,.8,5.31,4.82-.86,4.69-.93,9.25.95,13.86C503.22,157,503.8,163.43,504,171.45Z" transform="translate(-0.48 -0.48)"/><path class="cls-1" d="M643,306.4a40.84,40.84,0,0,0,.49,4.44c.85,4.11,3.56,6.81,7,9,2.09,1.3,4,2.85,6,4.32a6.77,6.77,0,0,1,2.39,4.06,3.54,3.54,0,0,1-4.46,4.43,14.08,14.08,0,0,0-10.26.29,3.19,3.19,0,0,1-4.1-1.56,16.49,16.49,0,0,1-1-1.91c-3.66-8-9.68-14.26-15.33-20.71-4.15-4.74-9.61-8.16-15.4-10.82a13.47,13.47,0,0,0-3.24-.79c-2.2-.41-3.36-1.55-3.34-3.4a3.31,3.31,0,0,1,3.37-3.36,19.1,19.1,0,0,1,8.45,1.28q5.14,1.94,10.24,4.05c3.8,1.58,7.84,2.13,11.84,2.89,1.49.28,3,.51,4.48.82,2.38.49,3.19,1.59,3.08,4C643.18,304.24,643.09,305,643,306.4Z" transform="translate(-0.48 -0.48)"/><path class="cls-1" d="M255.48,473.81a23.86,23.86,0,0,0-12.19,3.56,9.94,9.94,0,0,0-4.33,5.26,34.57,34.57,0,0,0-2.28,9.27c-.18,2.33-1.32,3.5-3.4,3.53-3.51.06-7,.22-10.53,0A30.24,30.24,0,0,1,216,494c-3.26-1-5.25-3.63-6.84-6.41a5.75,5.75,0,0,1,0-5.1,3.16,3.16,0,0,1,3-2c1.12,0,2.23.11,3.35.21.95.08,1.9.2,2.85.32,5.34.7,9.1-1.51,11.62-6.16a22.68,22.68,0,0,1,2.57-3.73,6.2,6.2,0,0,1,4.85-2.23,53,53,0,0,0,12.26-2,16.18,16.18,0,0,0,9.14-6.21c1.73-2.34,4.92-2.37,6.3.16.49.9,1.32,1.61,1.85,2.49,1.29,2.15.79,4-1.29,5.33a60.3,60.3,0,0,0-5.13,3.51C259,473.46,257.41,474.35,255.48,473.81Z" transform="translate(-0.48 -0.48)"/><path class="cls-1" d="M552.88,471.88c.49-.9.86-1.5,1.16-2.13a13.61,13.61,0,0,1,4.84-5.5,6.67,6.67,0,0,1,3.58-1.15,3.59,3.59,0,0,1,3.59,1.88c.82,1.46,1.65,2.92,2.42,4.4q2.43,4.65,4.82,9.32c.07.14.16.27.23.42,2,4.12,1.14,6.22-3.2,7.67a45.81,45.81,0,0,1-6.24,1.53c-2.2.41-4.42.64-6.64.91a39.42,39.42,0,0,1-19-2.42,4.5,4.5,0,0,1-2.83-3c-2.28-6.52,1.91-13.22,9-14.28C547.53,469.12,550.36,469.32,552.88,471.88Z" transform="translate(-0.48 -0.48)"/><path class="cls-1" d="M416.23,313.47c-5,.58-10.07.57-14.56,3.33-2.26,1.39-4.26.78-5.8-1.37a16.85,16.85,0,0,1-1.62-2.37c-1.81-3.82-4.71-6.79-7.49-9.87a23.52,23.52,0,0,1-2.35-3c-1.43-2.27-1.17-4.42.33-6.68a5.3,5.3,0,0,1,6-2.41,14.85,14.85,0,0,1,2.07.6c7.84,2.48,15.64,5.05,23.52,7.4a61.5,61.5,0,0,0,9.15,1.83,4.83,4.83,0,0,1,4.5,4.2c.47,2.11,0,3.9-1.91,4.95a32.17,32.17,0,0,1-6.41,2.5A43.93,43.93,0,0,1,416.23,313.47Z" transform="translate(-0.48 -0.48)"/><path class="cls-1" d="M345.72,273.38c.41-2.4.75-4.68,1.19-6.94.41-2.09,2-3,3.86-3.48a3.69,3.69,0,0,1,4,1.52q3,3.56,6.13,7a8.88,8.88,0,0,0,1.85,1.5c3.84,2.45,7.7,4.85,11.53,7.3a24.2,24.2,0,0,1,3.28,2.4,4.36,4.36,0,0,1,1.35,4.74,53.94,53.94,0,0,0-1,6.62,12.57,12.57,0,0,1-2.17,5.51c-2.17,3.24-5.57,3.59-8.3.85a15,15,0,0,1-1.87-2.18,17.37,17.37,0,0,0-11.9-7.67,5.26,5.26,0,0,1-3.79-2.68,26.11,26.11,0,0,1-2.49-5.63C346.59,279.34,346.24,276.31,345.72,273.38Z" transform="translate(-0.48 -0.48)"/><path class="cls-1" d="M411.53,485.64c1.18-.05,1.7-1,2.3-1.83a17.55,17.55,0,0,1,4.72-5c3.16-1.94,6.4-2.6,9.62-.25a10,10,0,0,1,4.43,7.35,22.32,22.32,0,0,1-2.33,11.39,8.47,8.47,0,0,1-7.81,4.75c-7.26.18-14.54.26-21.52-2.29a41.51,41.51,0,0,1-4-1.67,3.5,3.5,0,0,1-2.05-3,16.88,16.88,0,0,1,1.89-9.5c2.42-4.58,6.69-4.86,11.35-2.56A21.9,21.9,0,0,1,411.53,485.64Z" transform="translate(-0.48 -0.48)"/><path class="cls-1" d="M657.54,300.36l7.5-1.48a18.45,18.45,0,0,1,2.82-.54,5.83,5.83,0,0,1,5.55,2.61,13.57,13.57,0,0,1,2.31,6.24c.53,5.46,2.78,10.31,5,15.19,1.08,2.41,2,4.89,3.27,7.2a3.7,3.7,0,0,1-4.14,5.42,8.67,8.67,0,0,0-6,.78c-2.2,1.17-4.42-.12-5.16-2.62a58.68,58.68,0,0,0-1.92-5.65,19.89,19.89,0,0,0-4.88-7,81.51,81.51,0,0,1-6.1-6.09,35.31,35.31,0,0,1-3.8-5.49,7.13,7.13,0,0,1-.32-6c.69-2.07,1.76-2.79,3.93-2.77.64,0,1.27,0,1.91,0Z" transform="translate(-0.48 -0.48)"/><path class="cls-1" d="M446.7,359.37a35.92,35.92,0,0,1,2.65-14.22c.62-1.47,1.18-3,1.81-4.43.88-2.05,2.23-2.85,4.09-2.46s2.91,1.86,2.82,4.1c0,.48-.07,1-.12,1.43a20.07,20.07,0,0,0,4.15,14.4,35.17,35.17,0,0,1,7.17,20.42,18.91,18.91,0,0,1-.84,5.87c-.79,2.64-2.85,3.14-5.3,2a12.93,12.93,0,0,1-5.23-4.68,38.1,38.1,0,0,0-3.32-3.77C449.47,372.21,446.77,365.48,446.7,359.37Z" transform="translate(-0.48 -0.48)"/><path class="cls-1" d="M147.73,501.17a71.12,71.12,0,0,1-18.14-1.53,41.87,41.87,0,0,1-7.62-2.77c-3-1.4-3.34-3.92-1-6.31,1-.95,2-1.83,3.06-2.69,2.94-2.4,6.11-2.72,9.33-.8a35.76,35.76,0,0,1,4.24,3.11c1.37,1.13,1.77,1.32,3.39.44s3-1.82,4.49-2.74c2.77-1.73,5.33-3.75,8.6-4.64,4.07-1.12,9.6,0,11,6a36,36,0,0,1,1,4.9c.25,3.18-1.18,5.1-4.3,5.53C157.1,500.28,152.41,500.68,147.73,501.17Z" transform="translate(-0.48 -0.48)"/><path class="cls-1" d="M258.39,483.05c1.82-2,3.62-3.76,5.26-5.69a17.35,17.35,0,0,1,5.18-3.79c2.94-1.6,8.09-.73,10.24,2.1a24.43,24.43,0,0,1,4.11,8.28,2.93,2.93,0,0,1-.79,3.1,21.43,21.43,0,0,1-3.75,2.93,29.6,29.6,0,0,1-10.83,3.67c-3.17.4-6.3,1-9.47,1.5a32.53,32.53,0,0,1-11.68-.26c-2.06-.45-3.4-1.82-3.27-3.8.27-3.91,1.69-7.19,5.17-9.49,2.95-2,5.57-1.29,8.26.3a8.38,8.38,0,0,1,.74.62C257.74,482.66,258,482.77,258.39,483.05Z" transform="translate(-0.48 -0.48)"/><path class="cls-1" d="M496.9,218.49c-.25,2.9-.62,6.95-.94,11-.21,2.61-.24,5.24-.57,7.84-.37,3-.84,3.4-3.73,3.65q-4.64.41-9.3.49c-2.61.05-3.69-.79-4.64-3.28-.79-2.09-1.73-4.14-2.31-6.28a21.06,21.06,0,0,1-.77-5.63,7,7,0,0,1,2.92-5.49c2.83-2.33,5.49-4.86,8.13-7.41a15.31,15.31,0,0,0,2-2.93c.47-.74.83-1.54,1.29-2.29a4,4,0,0,1,4.35-1.82,3.46,3.46,0,0,1,2.91,3.35C496.57,212.22,496.65,214.77,496.9,218.49Z" transform="translate(-0.48 -0.48)"/><path class="cls-1" d="M645.67,403.25c-1.59,0-3.19.06-4.78,0a3.81,3.81,0,0,1-3.77-2.77c-.43-1.59.2-3.07,2-4.18a18.77,18.77,0,0,1,11.4-2.91,19,19,0,0,0,8.7-1,12.43,12.43,0,0,0,6.69-5.47c3.12-5.54,8.11-8.67,14-10.59a4.15,4.15,0,0,1,4.43,1c1.17,1.15,1.07,2.5.62,4a29.78,29.78,0,0,1-8.78,13.47,19.39,19.39,0,0,1-4.43,2.82c-5.43,2.76-11,5.05-17.27,5.13-2.94,0-5.88.55-8.81.84Z" transform="translate(-0.48 -0.48)"/><path class="cls-1" d="M569.78,290c-2.72-.13-5.43-.2-8.14-.4-2.34-.17-3.7-1.75-3.28-4.06.81-4.4,2.3-8.5,6.08-11.32,1.53-1.15,3-2.37,4.65-3.37,2.27-1.4,4.38-.64,5.47,1.8A8.1,8.1,0,0,1,575,274a9.45,9.45,0,0,0,6.67,7.19c3.41,1.11,6.88,2,10.33,3a14.65,14.65,0,0,1,2.27.73,2.94,2.94,0,0,1,1.14,4.61c-1.37,1.65-3,2.7-5.44,2.24a96.15,96.15,0,0,0-10.39-1.58c-3.24-.27-6.53-.06-9.8-.06Z" transform="translate(-0.48 -0.48)"/><path class="cls-1" d="M672.81,258.35a14.41,14.41,0,0,1-.78,1.87,23.69,23.69,0,0,1-12,10.61c-2.53,1-4.11.59-5.48-1.71a39.61,39.61,0,0,1-2.68-5.07c-1.09-2.59.19-4.72,2.88-5.45,3.84-1,7.64-2.26,11.49-3.3a11.92,11.92,0,0,1,3.75-.43C671.62,255,672.77,256.43,672.81,258.35Z" transform="translate(-0.48 -0.48)"/><path d="M576.49,222.32c0,2.08-1.35,2.92-2.91,2.16-2.51-1.21-5-2.52-7.38-4a26.58,26.58,0,0,1-3.74-3c-.69-.6-1.23-1.37-.54-2.3s1.52-.52,2.38-.21c1.49.55,3,1,4.51,1.5,2.32.71,4.59,1.54,6.23,3.41A13.66,13.66,0,0,1,576.49,222.32Z" transform="translate(-0.48 -0.48)"/></svg>