<svg id="Layer_1" data-name="Layer 1" xmlns="http://www.w3.org/2000/svg" viewBox="0 0 720 612"><defs><style>.cls-1{fill:none;stroke:#000;stroke-miterlimit:10;stroke-width:0.01px;}</style></defs><path d="M.48,612.48V.48h720v612Zm487-408.84c3.75,0,7.51-.07,11.26,0,3.2.08,4.4-.87,4.58-4a10.16,10.16,0,0,0-.18-2.13c-.65-4.68-2.87-8.79-4.9-12.94a34.64,34.64,0,0,0-4.19-6.67,129.32,129.32,0,0,0-8.66-9.63,162.23,162.23,0,0,0-64.89-40,15.67,15.67,0,0,0-3-.59,3.91,3.91,0,0,0-4.25,2,42.83,42.83,0,0,0-3.14,6.69,11.44,11.44,0,0,0,.44,8,27.15,27.15,0,0,0,5.39,8.72,13.82,13.82,0,0,1,3.95,11.17,31.21,31.21,0,0,1-6,16.94,63,63,0,0,0-11.65,28c-.7,4.42-1.13,8.88-1.79,13.3-.29,2-.17,3.72,1.5,5s3.33.56,4.91-.36c2.48-1.46,4.89-3.07,7.46-4.34a242.45,242.45,0,0,1,33-13.53C460.38,205.13,473.89,203.94,487.51,203.64ZM142.8,350.74c-3.66-.09-4.84.12-7.55,2.09-3.35,2.44-6.58,5.07-9.84,7.64a100.77,100.77,0,0,0-18.87,19.66c-5.71,7.8-10.56,16-13.3,25.33a91.29,91.29,0,0,1-7.74,18.28c-.38.7-.74,1.41-1.06,2.15-1.1,2.54-.77,4.2,1.35,5.92a41,41,0,0,0,17.15,8.69,20.83,20.83,0,0,0,18.1-3.9,4.67,4.67,0,0,0,2-4.37,23.42,23.42,0,0,1,1-8.29c1.13-4.2,3.81-7,8.21-7.75a64.57,64.57,0,0,1,7.85-.76,12.56,12.56,0,0,0,7.31-2.65,23.41,23.41,0,0,0,7.31-8.73,11.62,11.62,0,0,1,8.74-6.73,24.23,24.23,0,0,0,4.78-1.54c4.26-1.87,6.23-5.4,6.4-9.88.15-4.2-1.37-7.61-5.32-9.7a10.15,10.15,0,0,1-5.58-6.86,23.7,23.7,0,0,0-4.07-8.84C155.39,354.54,150,350.78,142.8,350.74Zm-36-151h3.83c4.26,0,8.36.74,11.7,3.52,3.91,3.25,8.38,5.54,12.82,7.9A29.19,29.19,0,0,0,144.7,214c9.15,1.41,17.3-.5,24.32-6.7a6.5,6.5,0,0,1,2.26-1.31c2.42-.79,4.88-1.48,7.34-2.17,4.71-1.33,8-3.94,9.28-9a31.91,31.91,0,0,1,3.1-7.51c1.72-3.17,3.85-6,7.27-7.73a35.79,35.79,0,0,1,7-2.94,3.42,3.42,0,0,0,2.38-5,9.57,9.57,0,0,0-1.45-2.19c-2.18-2.59-5.17-4-8.14-5.36-8.2-3.77-16.44-7.46-24.66-11.18a3.62,3.62,0,0,0-5,1.28c-1.23,1.68-2.4,3.39-3.6,5.09a32.89,32.89,0,0,1-18.22,12.89,35.35,35.35,0,0,1-19.64,0c-6.45-1.79-12.92-2.12-19.32.27-1.72.64-3.41,1.37-5.13,2-4.08,1.52-8.15,2.81-12.6,1.44a13.63,13.63,0,0,0-4.29-.33,3.31,3.31,0,0,0-3.32,3.4,5.89,5.89,0,0,0,.87,2.68c2.12,3.57,4.2,7.18,6.55,10.6a16.49,16.49,0,0,0,13.7,7.57C104.53,199.82,105.65,199.79,106.77,199.79ZM60.21,111.84a71.81,71.81,0,0,0-7.19,0c-4.14.41-6.91,2.72-5.55,7.14A60.89,60.89,0,0,0,52,130.86a85,85,0,0,0,13,17.2,68.49,68.49,0,0,1,8.48,11.3c2.79,4.51,7,7.08,11.83,8.87a7.5,7.5,0,0,0,1.65.29c3.49.41,6.61-.7,9.63-2.32,1.89-1,3.79-2.07,5.74-3,7.74-3.54,15.6-3.51,23.54-.72a18.11,18.11,0,0,0,9.21,1,31.24,31.24,0,0,0,16.79-8.14c1.32-1.28,2.61-2.59,3.91-3.9,2.31-2.34,2.36-4.37,0-6.58a60.48,60.48,0,0,0-5.7-4.77,119.18,119.18,0,0,0-37.49-18.35c-1.54-.44-3.07-.92-4.57-1.46A150.87,150.87,0,0,0,60.21,111.84Zm126.63,100.3v0c-1.2,0-2.39,0-3.59,0a33.14,33.14,0,0,0-9.66,1.61,5.58,5.58,0,0,0-2,9.36,16.38,16.38,0,0,0,2,1.7,52.14,52.14,0,0,1,4.7,3.31,79.3,79.3,0,0,1,5.7,5.75,3.57,3.57,0,0,1,.61,1.79c.41,2.36.84,4.71,1.15,7.09a34.75,34.75,0,0,0,5.77,15.08,16.06,16.06,0,0,0,10.87,7.2,25.86,25.86,0,0,0,10.69-.41c8.82-2.08,15.84-7.1,21.89-13.58,6.88-7.39,11.38-16.35,16.23-25.07,1.09-1.95.7-3.87-.18-5.73a15.45,15.45,0,0,0-1.54-2.42c-1.3-1.82-2.63-3.62-3.95-5.42a80,80,0,0,0-11.23-12.11c-1.31-1.17-2.6-2.36-3.94-3.5q-5.28-4.52-10.59-9a6.16,6.16,0,0,0-4.49-1.4c-5.61.48-10.93,1.94-14.87,6.3-3.18,3.52-5.32,7.56-4.72,12.58a23.19,23.19,0,0,1,.12,3.12c0,2.92-.74,3.61-3.74,3.69C190.36,212.18,188.6,212.14,186.84,212.14Zm65.54,198.47a3.42,3.42,0,0,0,1.32,3.19c2.85,2.33,5.74,4.6,9.31,5.79,2.42.8,4.8,1.78,7.26,2.44,8.64,2.29,17.3,4.53,26,6.66,4.73,1.16,9.53,2,14.28,3.11,7.07,1.64,14.12,3.38,21.19,5.05a49.89,49.89,0,0,0,5.4,1c2.93.35,4.48-1.41,4.08-4.34a27.05,27.05,0,0,1,5.15-20.14,91.21,91.21,0,0,1,7.51-8.38c2.12-2.27,3.94-4.7,4-7.94a38.33,38.33,0,0,0-.56-5,7.27,7.27,0,0,0-3-5c-1-.78-2.11-1.44-3.16-2.17a9.06,9.06,0,0,0-7.34-1.17q-13.83,2.93-27.66,5.84a47.35,47.35,0,0,1-5.89,1c-7,.57-14,.91-21,1.57a88.42,88.42,0,0,0-18.56,3.6,36.66,36.66,0,0,0-16.19,9.85A6.7,6.7,0,0,0,252.38,410.61Zm59.4-110.3h-2.06a9.54,9.54,0,0,1-8.06-3.94,15.51,15.51,0,0,1-3-8.72,46.59,46.59,0,0,1,5-23.41c1.34-2.68.69-4.79-2.09-6a29.7,29.7,0,0,0-3.14-1.18c-2.05-.65-3.27-.18-4.53,1.6s-2.45,3.55-3.77,5.26a15.85,15.85,0,0,1-9.06,5.91,26.23,26.23,0,0,0-3.61,1.27,13.48,13.48,0,0,0-8,8.08,22.2,22.2,0,0,0-1.09,4.39c-.45,3.18-1.43,5.87-4.14,8a36.29,36.29,0,0,0-10.54,13.21,16.51,16.51,0,0,0,.32,15c.94,1.84,2.06,3.59,3,5.42a17.84,17.84,0,0,0,7.77,7.91c.84.43,1.59,1.06,2.41,1.56,3.48,2.1,6.92,4.28,10.47,6.27,3.29,1.83,6.47,1.88,9.48-.88a14.37,14.37,0,0,1,4.32-2.52c3.63-1.48,7.29-2.89,11-4.08a30.24,30.24,0,0,1,5.65-.88c1.58-.18,3.18-.22,4.77-.38a4.29,4.29,0,0,0,3.37-2.41,7.86,7.86,0,0,0,1-2.18c.58-3,3.71-5.05,3.26-8.46,0-.2.18-.43.3-.64,2.07-3.6,4.1-7.22,6.23-10.79a5.1,5.1,0,0,0-2.19-7.47,9,9,0,0,0-4.9-.77C317.28,299.74,314.58,300,311.78,300.31Zm91.83,131a25.86,25.86,0,0,0,.48,3.09c.69,2.61,1.84,3.22,4.55,3,7.18-.57,13.7-3.24,19.87-6.63,8-4.39,16.31-8.15,23.61-13.7a9.55,9.55,0,0,1,1-.58,114.12,114.12,0,0,0,23.43-17.38c3.4-3.37,6.94-6.62,10.3-10a41,41,0,0,0,4.38-5.36,4.29,4.29,0,0,0,.65-2.9c-.46-2.61-3.29-5.76-6.24-5.15a8,8,0,0,1-2.39,0c-2.76-.28-5.25-.86-6.92-3.56s-4.93-3-7.65-1.42a11.46,11.46,0,0,0-2.28,1.74c-1.73,1.77-3.45,3.56-5,5.45a6.16,6.16,0,0,1-3.91,2.44,24,24,0,0,1-8.57-.16c-7.21-1.39-14.49-2.52-21.36-5.28-1.85-.74-3.68-1.56-5.57-2.17-3.26-1.05-6.19-.53-8.41,2.28-3.68,4.66-6.41,9.73-6.5,15.88-.08,5.24,1,10.29,2.13,15.37s.94,9.8-2,14.3A20.1,20.1,0,0,0,403.61,431.31ZM177.84,268c-.4,0-.8,0-1.2,0-5.54.24-10,3-14.31,6.15a4.23,4.23,0,0,0-.44,6c2,2.38,4.13,4.66,6.29,6.9,1.44,1.49,3.16,2.73,4.52,4.29,1.78,2,3,4.44,1.9,7.22a95,95,0,0,1-9.35,19.13,144.11,144.11,0,0,1-14.4,17.92c-1.89,2-1.87,3.94.13,5.83.4.38.87.7,1.3,1.06,2.75,2.31,5.59,4.52,8.22,7a38.84,38.84,0,0,1,8,9.79,15,15,0,0,0,3,3.67,8.33,8.33,0,0,0,12.92-1.3,40.13,40.13,0,0,0,2.8-4.74,12.08,12.08,0,0,1,3.82-4.19,47.44,47.44,0,0,0,7-5.71c3-3.15,5.31-6.87,5.63-11.38a23.71,23.71,0,0,0-1.93-11.23c-1-2.28-2-4.53-3-6.8a10.33,10.33,0,0,1-.33-8.57,50,50,0,0,0,1.68-6,9.12,9.12,0,0,0-.72-6.51A24.76,24.76,0,0,1,198,280.15a4.12,4.12,0,0,0-.82-3.79,20.1,20.1,0,0,0-7.87-6.09A34,34,0,0,0,177.84,268ZM401,131.25c-.16-4.77-.72-9.09-3.31-12.88a21.3,21.3,0,0,0-9.19-7.47,95.54,95.54,0,0,1-15.85-9.36c-4.54-3.13-9.18-6.1-13.78-9.12a6,6,0,0,0-5.29-.66c-3.22,1-6.54,3.67-5.92,8.43.64,5,1.54,9.93,2.24,14.91a7.16,7.16,0,0,0,5.67,6.34,15.64,15.64,0,0,1,3.78,1.48c4.53,2.68,9.11,5.32,13.44,8.31a26.12,26.12,0,0,1,5.79,5.66,40.26,40.26,0,0,1,7,15.35,26.58,26.58,0,0,1,.73,8.56c-.57,6.25-3,11.55-8,15.52-1.75,1.39-3.54,2.75-5.23,4.21-8.51,7.36-13.37,16.2-11.22,27.88.57,3.07,2.77,4.74,5.85,4.1a14.72,14.72,0,0,0,9-5.11c1.46-1.88,2.59-4,3.87-6,.8-1.28,1.52-2.62,2.4-3.85a40.93,40.93,0,0,1,16-13.4,51.75,51.75,0,0,0,4.69-2.88c4.47-2.77,5.86-7.2,6.31-12,.39-4.16-1.09-7.86-3.35-11.27-1.06-1.59-2.26-3.1-3.27-4.73a19.63,19.63,0,0,1-3.21-13C400.49,137.13,400.73,134,401,131.25ZM597.42,347a18.25,18.25,0,0,0,3.26,9.47c2.45,3.34,4.31,4,8,2.27A167.41,167.41,0,0,0,630.11,347c7.19-4.71,13.55-10.43,19.78-16.3,1.86-1.75,3.69-3.39,6.35-4a7.76,7.76,0,0,0,5.64-5.1c1-2.64-.26-4.79-3-5.29a12.76,12.76,0,0,0-6.63.46c-2.25.8-4.44,1.77-6.66,2.66a10.38,10.38,0,0,1-9-.15,36.42,36.42,0,0,1-9.6-7.47c-1.89-2-1.93-3.27-.22-5.47.34-.44.77-.81,1.15-1.22a11.24,11.24,0,0,0,3-7.87c0-4-2-7-4.55-9.72-3.38-3.61-5.22-3.69-8.83-.31-.23.22-.43.48-.65.71-2.32,2.42-4.59,4.9-7,7.27a22.11,22.11,0,0,1-26.76,3.27,7.39,7.39,0,0,0-1.24-.72A3.49,3.49,0,0,0,577,301a14.15,14.15,0,0,0,.29,2.13,38.87,38.87,0,0,0,4.07,11.45,28.68,28.68,0,0,0,10.93,11.78A18.11,18.11,0,0,1,596,329c2.5,2.59,4.5,5.48,3.64,9.39-.27,1.25-.78,2.44-1.09,3.68C598.1,343.71,597.78,345.35,597.42,347ZM108,487.72c4.86-.26,8.3-.34,11.72-.65,4.63-.41,9.2-1.15,13.43-3.27,2.17-1.09,2.82-2.3,2.34-4.62A17.93,17.93,0,0,1,137,467a59.28,59.28,0,0,1,3.89-6.3c2.6-3.82,2.65-7.38-.14-11.05a23.4,23.4,0,0,0-3.29-3.46c-3.31-2.87-7.64-3.18-11-.42s-7.21,4.09-11.23,5.14a18.91,18.91,0,0,1-12.42-.68c-4.3-1.77-8.39-3.91-12.55-5.92-2-1-4-2.25-6.44-2.39-5-.29-9,1.88-12.44,5.2-6.17,5.86-10.12,13.12-13.07,21-1.31,3.47-.47,5.86,2.36,8.32A25.77,25.77,0,0,0,66.57,480a47.05,47.05,0,0,0,15.24,4.8c3.09.34,6.18.76,9.28,1.1C97.2,486.57,103.31,487.22,108,487.72ZM331.4,260.22c2.71-.19,5.43-.31,8.13-.58,7.79-.76,15.29-2.64,22.08-6.65,4.12-2.44,8.05-5.18,12.09-7.76q7.07-4.51,14.17-9a10,10,0,0,0,4.7-7.17c.92-5.59,1.79-11.19,2.69-16.78A15,15,0,0,0,395,205a3.57,3.57,0,0,0-3.75-2.73,5.54,5.54,0,0,0-5.64,4,28,28,0,0,1-5.43,9c-2.36,2.63-4.92,5.17-8.43,6.1-7,1.86-14.15,3.45-21.51,2.83-3.76-.31-7.29-1.16-10.39-3.71-5-4.11-11-5.65-17.45-5.48a5.42,5.42,0,0,0-4.77,2.74c-6.33,10.94-7.75,22.35-3.07,34.28a25.5,25.5,0,0,0,2.21,4.24,3.74,3.74,0,0,0,1.8,1.47C322.72,259.05,326.87,260.6,331.4,260.22ZM382,441.3v-.23c.8.05,1.6.16,2.39.13,2.61-.07,5.2.33,7.77-.87,3-1.4,3.7-2.13,3.35-5.39a8.61,8.61,0,0,0-.45-1.85c-1.36-4-.59-7.66,1.7-11.16A26.15,26.15,0,0,0,401,404.59c-.45-4.66-2.05-9-2.92-13.57a14.55,14.55,0,0,1-.5-3.78c.41-4.71,1.72-9.1,5.12-12.62a16.35,16.35,0,0,0,2-2.43c2-3.11,1.32-5.49-2.15-6.77-2.24-.83-4.54-1.55-6.84-2.18a5.16,5.16,0,0,0-2.56,0,19.76,19.76,0,0,0-8.05,4.1c-3,2.64-5.9,5.37-8.86,8.06-2.52,2.3-5.29,3.78-8.89,2.9a3.62,3.62,0,0,0-3.79,1.54,3.85,3.85,0,0,0-.4,4.3,25.3,25.3,0,0,0,1.93,3,12.07,12.07,0,0,1,1.36,11.6c-2.3,6.13-6.64,10.65-11.24,15a14.29,14.29,0,0,0-4.81,9.3c-.77,7.36,7.1,16.2,13.58,16.93,2.92.32,5.71,1.16,8.76.88S378.91,441.11,382,441.3Zm125.3-231.21c-4.46.21-9.51.24-14.51.76a92.75,92.75,0,0,0-11.74,2.25,5.56,5.56,0,0,0-4.52,5.24,20.43,20.43,0,0,0,.92,8.5,12.15,12.15,0,0,0,10.39,8.72c2,.31,4.13.35,6.19.61,3.56.45,7.13.82,10.65,1.48a8.85,8.85,0,0,1,7.5,7.06,21.86,21.86,0,0,0,1.56,4c2.71,5.77,7.48,9,13.46,10.54a5.68,5.68,0,0,0,6.17-2.13,39.28,39.28,0,0,1,5.34-5.13,42.57,42.57,0,0,1,11.76-6.33c3.79-1.49,6.91-3.84,8.64-7.54a26.76,26.76,0,0,0,1.74-6.41c1.12-5.94-2.48-12.63-8.17-14.68a82.08,82.08,0,0,0-11.76-3.21A196.35,196.35,0,0,0,507.32,210.09Zm4,180.56c0-.8.06-1.6,0-2.39a3,3,0,0,0-2.75-2.87c-4.12-.08-8.15.06-11,3.8a72.42,72.42,0,0,1-10.09,10.55c-3.76,3.22-7.42,6.57-11.29,9.66-4.8,3.84-9.76,7.46-14.65,11.17-.51.39-1,.78-1.56,1.12-1.95,1.24-3.92,2.45-5.89,3.67-3.45,2.14-6.65,4.71-10.54,6.1a3.14,3.14,0,0,0-2.09,2.45c-.57,2.92-.45,5.65,1.67,8.1,2.76,3.19,7.38,4.09,10.76,1.63,1-.7,2-1.32,3-2,3.65-2.44,7.51-3.91,12-2.65a5.41,5.41,0,0,1,1.76.67,12.53,12.53,0,0,1,5.24,8.27c.3,2.05.69,4.09,1.08,6.13,1.26,6.67,7.54,10,12.34,11.46a2.84,2.84,0,0,0,3.06-.94,21.11,21.11,0,0,0,3.1-4.48c1.58-3.65,2.91-7.42,4.25-11.17,3.54-9.87,5.59-20.15,8.14-30.29C510,409.49,510.78,400.08,511.28,390.65Zm-307.42,34.2a5.23,5.23,0,0,0,2.71,4.83c2.27,1.34,4.54,2.7,6.66,4.25a4.3,4.3,0,0,0,5.5.13,63.43,63.43,0,0,0,11-9.93c7.8-8.31,12.61-18.4,16.89-28.79a24.22,24.22,0,0,0,1.15-4.64,2.94,2.94,0,0,0-1.35-3.34,36.35,36.35,0,0,0-6.05-2.79,35,35,0,0,0-5.9-1,24.39,24.39,0,0,1-11-4.48,20.53,20.53,0,0,1-4.83-5.27c-1.8-2.63-3.58-5.28-5.31-8-.9-1.4-1.58-3-2.55-4.32-2.81-4-7.09-5.12-11.39-2.8s-8.07,5.14-10.08,9.81c-1,2.35-2.08,4.67-3.17,7a23.5,23.5,0,0,0-2,11c.15,4.78,2.51,7.79,7.14,9,1.54.39,3.15.55,4.69.95,3.44.89,6.51,2.43,8.06,5.85,2.19,4.83,3.27,9.81,1.59,15.12C204.88,419.84,204.45,422.37,203.86,424.85Zm22.52-125.73c-1.21.18-2.8.38-4.37.67a16.85,16.85,0,0,0-10.83,6.91,7,7,0,0,0-1.08,7c.8,2.17,1.43,4.4,2.15,6.6A46,46,0,0,1,214.42,342a20.35,20.35,0,0,0,1,10.38,64.19,64.19,0,0,0,2.72,6.9,23.12,23.12,0,0,0,12.35,11.15c4.16,1.68,8.63,2.31,13.07,2.95,3.39.49,6.79,1,10.14,1.72a3.78,3.78,0,0,0,4.24-1.36c2.51-3.31,5.05-6.6,7.46-10a33.73,33.73,0,0,0,2.61-4.57c1.28-2.52.51-5.2-1.82-5.75-4-.94-7.31-3-10.61-5.3-4.78-3.36-7.81-8-10.1-13.12-1.85-4.15-2.12-8.67-2.58-13.11a41.55,41.55,0,0,0-3.39-13.66C237,303,233,299.39,226.38,299.12Zm380.23-58.94a4.17,4.17,0,0,0-1.61-3.62,94.66,94.66,0,0,0-7.9-5.37c-3.26-1.85-6.71-3.35-10.11-4.95a87.14,87.14,0,0,0-15.19-5.08c-2.75-.71-4.75,1-4.56,3.84a15.28,15.28,0,0,0,.46,2.59,30.39,30.39,0,0,1,.17,13.55c-.67,3.09-1.82,6-4.46,8a33,33,0,0,1-8.93,5.06,44.44,44.44,0,0,0-9.77,4.47,12,12,0,0,0-5.58,9.56c-.36,4.35,1.45,8.1,4.39,11.27,1.74,1.88,3.67,3.58,5.29,5.55,2.38,2.88,5,5.69,5.93,9.45a34.07,34.07,0,0,1,1,4.66c.33,2.75,1.67,4.69,4.3,5.48a5.33,5.33,0,0,0,6.36-2.13,12.8,12.8,0,0,0,2.31-4.64c.6-3.69.81-7.44,1.05-11.18.48-7.22,1.66-14.23,5.13-20.74,2-3.73,4.83-6.74,7.69-9.73a8.06,8.06,0,0,1,5.08-2.47c2-.2,4-.4,5.95-.71a31.87,31.87,0,0,0,5.61-1.13,9.72,9.72,0,0,0,6.54-6.79C606.16,243.51,606.32,241.83,606.61,240.18Zm-428,12.1a23.77,23.77,0,0,0-.53-3.63,54,54,0,0,0-5.55-13.47c-4.48-7.48-10.93-11.72-20-11-1.35.11-2.71.16-4.07.2A16.55,16.55,0,0,1,137.18,221a50.63,50.63,0,0,0-5.28-3.71,42.56,42.56,0,0,0-6.16-3.15,24.9,24.9,0,0,0-12-1.2c-3.35.37-4.43,1.53-4.33,4.95.25,7.78,4,14.28,8.06,20.46a74.54,74.54,0,0,0,11.9,13.41c2.77,2.54,5.39,5.23,8.11,7.81,2.26,2.15,4.53,4.28,6.86,6.34a21,21,0,0,0,3.32,2.35,4.41,4.41,0,0,0,5.5-.59c.91-.78,1.82-1.56,2.75-2.31A19.8,19.8,0,0,1,171.56,261a25.06,25.06,0,0,0,3.34.27,3.14,3.14,0,0,0,3.33-3.07C178.38,256.43,178.43,254.67,178.56,252.28Zm97.3,12.61c4.75-.06,8.28-1.55,11.07-5a5.83,5.83,0,0,0-.87-7.75,14.92,14.92,0,0,0-2.8-1.82c-7.66-3.61-13.4-9.43-18.48-16-2-2.59-4.25-3.13-7-1.24a14,14,0,0,0-4.92,6.34c-1.2,2.87-2.41,5.75-3.45,8.68-2.16,6.13-6.43,10.61-11.33,14.55-4.62,3.72-10.09,5.82-15.71,7.45-4,1.16-8,2.06-12.08,3a5.77,5.77,0,0,0-3.36,2.11c-1.85,2.33-1.62,4.88-1.06,7.53,1.15,5.37,5.14,8.4,10.6,7.84a64,64,0,0,0,7.55-1.28c4.76-1.07,8.75-.43,12.44,3.34a12.74,12.74,0,0,0,19.24-1,17.1,17.1,0,0,0,4-9.82c.16-2.95.3-5.91.39-8.86a6.46,6.46,0,0,1,2.29-4.79,13.41,13.41,0,0,1,11-3.52C274.4,264.71,275.35,264.83,275.86,264.89ZM554.34,411.78a2.66,2.66,0,0,1-.57.45,29.12,29.12,0,0,0-9.22,6.33c-3.09,3-4,8-.44,11.77a14.71,14.71,0,0,0,9.75,4.55,51.53,51.53,0,0,0,21.71-2.63,22.77,22.77,0,0,0,12.25-9.51,69.59,69.59,0,0,0,4.43-8.2c3-6.52,4.26-13.53,4.78-20.63.3-4.12.57-8.29-.39-12.41a4,4,0,0,0-4.69-3.39,33.77,33.77,0,0,0-4.44,1c-4.07,1.14-8.07,2.59-12.2,3.44-6.48,1.32-13,2.19-19.56,3.37a5.23,5.23,0,0,0-2.59,1.46c-1.5,1.48-1.35,3.47-1.33,5.41.06,4.3.18,8.62,0,12.91a5.71,5.71,0,0,0,1.1,4.22C553.38,410.48,553.84,411.12,554.34,411.78ZM410.4,278.94l-4.71.75c-3.94.63-7.74,4.7-5.88,9.65a38.91,38.91,0,0,0,4.69,8.55c2.47,3.52,5.3,6.78,8.06,10.1a24.88,24.88,0,0,0,3.09,3c4.39,3.74,9.8,5,15.27,5.68,4.5.58,9.08.46,13.63.74,3.74.23,7.47.57,11.21.89a6.54,6.54,0,0,1,4.33,2.33,42.9,42.9,0,0,1,3,3.76c2.23,3.18,5.28,4.16,9,3.62,3.33-.48,5.85-2.49,8.34-4.45s2.7-4.74.55-7.09a13.5,13.5,0,0,0-3.39-2.62c-3.22-1.77-6.57-3.29-9.77-5.08a23.07,23.07,0,0,1-9-8.29,68.94,68.94,0,0,0-8.07-11c-5.8-6.36-13.07-9.23-21.77-7.77-1.42.24-2.84.46-4.26.68a9.69,9.69,0,0,1-6.69-1.16A16.74,16.74,0,0,0,410.4,278.94Zm55.14-58.25a5.93,5.93,0,0,1,0-1.19,3.77,3.77,0,0,0-4.78-4.3c-1.78.41-3.63.54-5.45.8a52.57,52.57,0,0,0-24.19,9.77A4.49,4.49,0,0,0,429,230c.31,4.29.56,8.6.8,12.9a14.76,14.76,0,0,1-.05,3.58,20.26,20.26,0,0,1-6.13,10.87,51.52,51.52,0,0,1-6.17,4.53,5,5,0,0,0-2.57,4.07c-.1,3.33,1.94,5.69,5.35,5.68a15.51,15.51,0,0,0,5.35-1,13.92,13.92,0,0,1,12.61,1.19c4.84,2.81,9.82,3.57,15.16,1.54a10.26,10.26,0,0,0,6.23-5.61,46.26,46.26,0,0,0,2.66-8.42c.73-3.67,1.08-7.43,1.48-11.16.3-2.85.43-5.72.62-8.59.07-1,.06-1.91.13-2.87C464.81,231.46,465.17,226.2,465.54,220.69Zm-34,255.24A19.73,19.73,0,0,0,437,491a13.7,13.7,0,0,0,3.44,2.51A85.61,85.61,0,0,0,458,500.61c5.53,1.5,5.37,1.89,10.07-2.25,5.44-4.81,9.44-10.84,13.81-16.53,2.89-3.77,2.66-3.38-.36-7.1a21.52,21.52,0,0,0-7.94-5.67c-3.66-1.69-5.35-4.39-4.53-8.46a6.77,6.77,0,0,0,.13-1.19c0-2.55.27-5.11-.63-7.59s-3.45-4.66-5.8-4.74c-2.85-.1-5.06,1.39-6.13,4.43a37.73,37.73,0,0,0-1.22,5.09c-.42,2.1-1.18,2.68-3.22,2.74a57.23,57.23,0,0,0-7.86.53c-6.7,1.14-12.57,6.7-12.73,14.14C431.52,474.65,431.54,475.29,431.54,475.93ZM384.17,290.16a8.86,8.86,0,0,0-2.63-7.09c-2.1-2.32-4.84-2.76-7.81-3a6.72,6.72,0,0,0-6.17,2.49c-3.27,4.31-7.34,7.79-11.23,11.46a14.07,14.07,0,0,1-5.25,3.25,30.54,30.54,0,0,0-16.83,13.54,39.91,39.91,0,0,0-4.72,10.71c-1,3.79-.06,5.38,3.78,6.22a18.11,18.11,0,0,0,4,.22c5-.07,10.09.08,15.08-.38,4.66-.43,8.69.36,12.28,3.43a11.11,11.11,0,0,0,6,2.84,5.64,5.64,0,0,0,6.3-3.61,12.52,12.52,0,0,0,.3-9.1c-2.53-7.13-1.93-13.93,2.78-20.14C382.59,297.72,384.26,294.06,384.17,290.16Zm-36.08-77.09c.6,0,1.16,0,1.72,0,3.36-.16,4.49-1.37,4.46-4.8,0-7.29.39-14.53,2.37-21.6a18.46,18.46,0,0,1,4.85-8.67c2.32-2.17,4.95-4,7.47-5.95,1.78-1.36,3.67-2.56,5.41-4a11,11,0,0,0,3.75-6.5c.93-4.34-.35-8.37-2.31-12a39.25,39.25,0,0,0-18.57-17.35,11.21,11.21,0,0,0-4.15-.83,3,3,0,0,0-3.19,2.92,11.85,11.85,0,0,0,.19,3.81,45.26,45.26,0,0,1,.78,10.25c0,1.84,0,3.68.09,5.51a30.9,30.9,0,0,1-1.78,12.23,78.61,78.61,0,0,1-10.74,20.51c-1.13,1.54-2,3.25-3,4.88q-2.7,4.36-5.43,8.74c-.25.4-.58.77-.81,1.18a4,4,0,0,0,2.16,6,10.15,10.15,0,0,0,2.28.7,14.33,14.33,0,0,1,6.39,2.54A13,13,0,0,0,348.09,213.07ZM521.72,316.28a60.65,60.65,0,0,0,7.24-1.46,22.29,22.29,0,0,0,15-15.2c1.5-4.75-1.15-7.58-5.41-8.22a15.81,15.81,0,0,0-5.21.31c-2.74.53-5.41,1.39-8.14,2-4,.85-7.9.24-11.84-.71a18.33,18.33,0,0,1-9.59-5.52c-1.13-1.24-2.09-2.63-3.18-3.91a8.13,8.13,0,0,0-8.8-2.83c-1.38.36-2.71.95-4.08,1.38a50.8,50.8,0,0,1-6.63,2c-3.53.63-6.77-.51-9.82-2.3a12.35,12.35,0,0,0-7.3-1.88,4.41,4.41,0,0,0-4.33,4.05,8.81,8.81,0,0,0,.68,4.16,50,50,0,0,0,4.34,8c2.47,3.51,5.6,6.43,9.94,7.49a39.39,39.39,0,0,0,7.29,1.16c4.39.23,8.8.07,13.19.23a19.07,19.07,0,0,1,12.53,5.24C511.56,313.75,516,316.37,521.72,316.28ZM156.1,426.22c-3.08-.55-6.11-1.16-9.17-1.64a17.82,17.82,0,0,0-10.56,1.14c-3.15,1.46-3.74,4.4-1.37,7a25.15,25.15,0,0,0,8.16,5.77c2.17,1,4.33,2,6.51,3a3.24,3.24,0,0,1,2,2.51c1.1,5.25,4.14,9.24,8.27,12.5,1.73,1.37,3.77,1.33,5.08-.43a16.61,16.61,0,0,0,2.51-4.81,25.68,25.68,0,0,0,.73-10.22c-.15-1.64-.33-3.28-.53-5.23,1.86-.18,3.52-.24,5.14-.52,10.46-1.8,18-7.51,22.38-17.18a19.06,19.06,0,0,0,1.67-9.82,3.86,3.86,0,0,0-1.91-3.16c-3.31-1.87-6.77-3.31-10.71-2.64a42.08,42.08,0,0,0-15.1,5.86,23,23,0,0,0-9.12,9.91C158.8,420.91,157.44,423.52,156.1,426.22Zm271.42,14a9.94,9.94,0,0,0-2.13.19c-3.12,1-6.22,2.05-9.31,3.12a5.3,5.3,0,0,0-3.1,3.1,154.24,154.24,0,0,0-10.18,32.64c-1.35,6.56-2.05,13.26-2.91,19.91-.49,3.72-.79,7.47-1,11.21a3.33,3.33,0,0,0,4.49,3.63c3.75-1.08,7.51-2.15,11.28-3.15a21.79,21.79,0,0,0,7.19-3.17c2.88-2,4.49-4.79,4.11-8.38a24.53,24.53,0,0,0-1.18-5.58,49.84,49.84,0,0,0-2.94-6.55,17.74,17.74,0,0,1-1.8-6.9c-.09-1.19-.23-2.39-.27-3.58a16.24,16.24,0,0,1,1.15-7.75c.72-1.49,1.87-2.77,2.74-4.19a18,18,0,0,1,9.49-7.69,13.22,13.22,0,0,0,5.66-4.3c2-2.43,1.84-4.82-.38-7a17.53,17.53,0,0,0-3.14-2.58C432.88,441.66,430.5,440.12,427.52,440.19Zm129-91.19h.23c0,.8,0,1.6,0,2.4a13.75,13.75,0,0,0,4.6,11.35c3.14,2.95,6.12,6.06,9.18,9.1a4,4,0,0,0,3.06,1.1c5.46,0,10.52-1.75,15.49-3.74a4.6,4.6,0,0,0,3.08-3.15,20.16,20.16,0,0,0,.55-6.15c-.61-4.68-1.62-9.31-4.16-13.41-1.38-2.23-2.78-4.47-4.32-6.6a127.27,127.27,0,0,0-8-10.45,52.46,52.46,0,0,0-8.14-7.36,84.33,84.33,0,0,0-16.62-8.94,3.44,3.44,0,0,0-3.24.08,6.11,6.11,0,0,0-1,10.07,53.66,53.66,0,0,1,8.57,8.67,8.59,8.59,0,0,1,1.67,6.29C557.07,341.84,556.79,345.42,556.47,349ZM393.41,537.19c0,7.2,2.19,11.92,6.55,15.74a7.43,7.43,0,0,0,7.75,1.63,33.35,33.35,0,0,0,9.32-4.84c8.59-6.15,15.75-13.78,22.32-22,2-2.55,3.9-5.26,5.74-8,1.46-2.14,2.7-4.52,2.18-7.17a20,20,0,0,0-4-8.6,5.44,5.44,0,0,0-6.06-1.68c-2.59.79-3.61,2.78-4,5.18-.33,2-.44,4-.63,6-.29,2.88-1.24,5.16-4.39,6.11a14.3,14.3,0,0,1-6.15.5c-1.82-.26-3.61-.66-5.43-1-4.6-.76-9-.58-13.27,1.75C396.24,524.73,393.93,531.15,393.41,537.19ZM659.74,307.58c.3,0,.86.1,1.41.1a5.12,5.12,0,0,0,5.12-5.15,12.53,12.53,0,0,0-2.78-8.21,42.8,42.8,0,0,1-2.91-4.66c-1.5-2.54-2.75-5.26-4.48-7.63A97,97,0,0,0,640,265c-7-5.85-14.26-11.31-21.41-16.93a3.32,3.32,0,0,0-4.9.47,8.44,8.44,0,0,0-1.24,2,13.22,13.22,0,0,0-.5,8.92c1,4.05,3.52,7.08,6.58,9.79,4.54,4,9.14,8,13.5,12.22a30.11,30.11,0,0,1,6,8,13.06,13.06,0,0,1,1.19,9.75c-.5,1.76-1,3.53-1.44,5.31-.91,3.53,1.18,6.22,4.83,6.21,1.52,0,3-.07,4.55-.13a12.34,12.34,0,0,0,6.39-1.8A9.13,9.13,0,0,1,659.74,307.58ZM478.88,335.31l-8.12.62a4.09,4.09,0,0,0-3,1.74c-1.57,2-3.33,3.9-4.73,6-3.29,4.94-7.94,7.93-13.3,10.16a22.48,22.48,0,0,0-5.26,3.28,7.48,7.48,0,0,0-2.19,3.06,11.37,11.37,0,0,0-.06,7.74,3.45,3.45,0,0,0,2.75,2.7,57.7,57.7,0,0,0,7.81.91,6.81,6.81,0,0,0,6.09-3.61,31.35,31.35,0,0,1,3.27-4.42,6.8,6.8,0,0,1,2.65-2,53,53,0,0,1,6.48-1.64A4.1,4.1,0,0,1,475,361a54.49,54.49,0,0,0,5.09,4,11.13,11.13,0,0,0,3.39,1.7c6,1.57,11.12-.18,15.25-4.52s4-4.52,4-10.63a35.88,35.88,0,0,0-.12-3.59,6.55,6.55,0,0,0-2.51-4.68,67,67,0,0,0-8.88-6.08C487.82,335.23,484,335.49,478.88,335.31Zm-8.77-73.75a66.06,66.06,0,0,0,1.35,6.75,5,5,0,0,0,4.45,3.81,12.21,12.21,0,0,0,9.3-3,15.44,15.44,0,0,1,9.91-3.66,4.72,4.72,0,0,1,4.17,1.92,24.67,24.67,0,0,1,2.67,3.37,32.64,32.64,0,0,0,7.88,9.51,21.55,21.55,0,0,0,10.42,5.59c3.92.71,5.79-.74,7.6-3.63a7.16,7.16,0,0,0,1-2.66c.31-2.12.45-4.27.63-6.41a3.76,3.76,0,0,0-1.94-3.59,6.74,6.74,0,0,0-3.82-1.16c-5.6-.12-9.58-3-12.61-7.49a76.57,76.57,0,0,0-6-8.35,34.44,34.44,0,0,0-6.23-5.14c-5-3.5-10.85-4.57-16.62-5.8-3.92-.83-6.34.6-8.18,4.18A39.12,39.12,0,0,0,470.11,261.56ZM428.33,364.89c2.83.1,3.83-.81,4.32-3.61.72-4.09,1.6-8.15,3.64-11.85a4.92,4.92,0,0,1,3.91-2.77,31.74,31.74,0,0,0,16.26-7,17.49,17.49,0,0,0,3.59-4.41,3,3,0,0,0-.68-4.12c-2.18-1.74-4.36-3.46-7.15-4.24a56.78,56.78,0,0,0-22.31-1.62,12.48,12.48,0,0,1-3.81,0c-5.24-1-10.31-2.37-13.93-6.73a5.66,5.66,0,0,0-.9-.79c-2.24-1.74-4.73-.92-5.66,1.77-1.1,3.13.09,5.67,2.06,7.9a56.74,56.74,0,0,0,5.22,4.94,15.92,15.92,0,0,1,5.84,11.87A23.12,23.12,0,0,1,417,354c-1.14,2.74-.37,4.76,1.41,6.75C421.08,363.74,424.58,364.6,428.33,364.89Zm-8.13-123c-.1-1.51-.16-2.62-.26-3.74a8.1,8.1,0,0,0-.24-1.17c-.6-2.66-2.17-3.88-4.79-3.51a24.23,24.23,0,0,0-5.37,1.15,124.49,124.49,0,0,0-14.12,5.93c-9.09,4.87-17.48,10.89-25.84,16.94a11.83,11.83,0,0,0-4.91,8.06,9.44,9.44,0,0,0,.07,3.31,3.09,3.09,0,0,0,3.6,2.75,14.07,14.07,0,0,0,4-1.3c4-1.89,8-2.31,11.84.24a26.65,26.65,0,0,1,4.15,3.95c2.33,2.42,5.56,2.47,7.67-.14a21.25,21.25,0,0,0,2.48-4.33c2.24-4.66,4.88-9,9.45-11.77,1.91-1.17,3.8-2.37,5.65-3.63A14.85,14.85,0,0,0,420.2,241.88Zm-274.93,232a24.15,24.15,0,0,0,.82,3.43c1,2.65,4.4,4.55,7,3.94a77.73,77.73,0,0,0,25.36-11,164.81,164.81,0,0,0,13.07-10.09,116.13,116.13,0,0,0,13.56-12.87,16.06,16.06,0,0,0,1.61-2.08c1.91-3.14,1.25-5.37-2-7a9,9,0,0,0-1.13-.41,21.3,21.3,0,0,0-10.87-1c-7.61,1.42-13.6,5-16.31,12.76-.74,2.11-1.4,4.25-2.13,6.37-.95,2.73-2.11,5.35-4.52,7.19a12.83,12.83,0,0,1-14.36.42c-2.6-1.73-4.17-1.64-6.42.49C146.22,466.54,145.46,469.84,145.27,473.91Zm384.77-93c6.2.46,12.3-.55,18.4-1.19a34.65,34.65,0,0,0,6.47-1.69,3.16,3.16,0,0,0,2.41-3c.11-2.5,0-5-1.47-7.15-.7-1.06-1.33-2.18-2.1-3.19a11.05,11.05,0,0,0-10.44-4.58c-2.06.19-4.11.68-6.17.7a57,57,0,0,1-7.84-.49c-2.93-.36-5.27-2.17-7.83-3.45a51.28,51.28,0,0,0-6-2.42,3.1,3.1,0,0,0-3.93,1.47A105.43,105.43,0,0,0,506,366.81a8.92,8.92,0,0,0,7.37,12.41C518.92,379.88,524.48,380.36,530,380.93ZM329.28,291.38a34.73,34.73,0,0,0,19.44-5.77c2.24-1.52,4.2-3.28,4.76-6a62.56,62.56,0,0,0,1.29-8.47,4.56,4.56,0,0,0-4-4.91,28.2,28.2,0,0,0-6.16,0c-1.82.12-3.62.66-5.44.7a94.17,94.17,0,0,1-23.31-2.1,12.55,12.55,0,0,0-2.35-.4,3,3,0,0,0-3.24,2.31c-.63,3.52-1.54,7.1-1.43,10.63.15,4.72,2.07,8.92,6.75,11A32.92,32.92,0,0,0,329.28,291.38Zm200.85,58.21a20.45,20.45,0,0,0,3.53-.55A26,26,0,0,0,546,340c1.53-1.94,1.36-3.82.23-5.78a15.35,15.35,0,0,0-6.68-6,18.78,18.78,0,0,0-9.82-1.5c-2.93.2-5.85.75-8.79.9-3.13.15-6.11-.63-8.23-3.1a25.86,25.86,0,0,0-14-8.25,16.85,16.85,0,0,0-4.25-.48c-2.9,0-4.12,1.29-4.44,4.22a11.39,11.39,0,0,1-.17,1.43,3.54,3.54,0,0,0,1.74,4.07c2.36,1.62,4.74,3.22,7,5,2.92,2.21,5.77,4.51,8.6,6.83s5.37,4.78,8.24,6.92A24.87,24.87,0,0,0,530.13,349.59ZM397,310.24a62,62,0,0,0-1.24-7,3.3,3.3,0,0,0-4.8-2.11,9.65,9.65,0,0,0-3.05,2.6,13.48,13.48,0,0,0-2.6,7.82A49.44,49.44,0,0,0,387,326.47a11.22,11.22,0,0,1-.5,8.38,20.37,20.37,0,0,0-1.29,4.1,7,7,0,0,0,1.36,6.31A31.76,31.76,0,0,0,398.84,355a15.93,15.93,0,0,0,4.35,1.23,5.15,5.15,0,0,0,6-3.62,27.82,27.82,0,0,0,1.35-6.51,9.29,9.29,0,0,0-4.32-8.79c-1.83-1.28-3.63-2.62-5.39-4-3.3-2.55-5.11-5.84-4.83-10.12.1-1.51.15-3,.28-4.54C396.48,316.17,396.72,313.71,397,310.24Zm213.13-34.77A13.57,13.57,0,1,0,596.65,289,13.46,13.46,0,0,0,610.17,275.47Z" transform="translate(-0.48 -0.48)"/><path class="cls-1" d="M487.51,203.64c-13.62.3-27.13,1.49-40.22,5.64a242.45,242.45,0,0,0-33,13.53c-2.57,1.27-5,2.88-7.46,4.34-1.58.92-3.23,1.62-4.91.36s-1.79-3-1.5-5c.66-4.42,1.09-8.88,1.79-13.3a63,63,0,0,1,11.65-28,31.21,31.21,0,0,0,6-16.94,13.82,13.82,0,0,0-3.95-11.17,27.15,27.15,0,0,1-5.39-8.72,11.44,11.44,0,0,1-.44-8,42.83,42.83,0,0,1,3.14-6.69,3.91,3.91,0,0,1,4.25-2,15.67,15.67,0,0,1,3,.59,162.23,162.23,0,0,1,64.89,40,129.32,129.32,0,0,1,8.66,9.63,34.64,34.64,0,0,1,4.19,6.67c2,4.15,4.25,8.26,4.9,12.94a10.16,10.16,0,0,1,.18,2.13c-.18,3.18-1.38,4.13-4.58,4C495,203.57,491.26,203.64,487.51,203.64Z" transform="translate(-0.48 -0.48)"/><path class="cls-1" d="M142.8,350.74c7.19,0,12.59,3.8,16.81,9.76a23.7,23.7,0,0,1,4.07,8.84,10.15,10.15,0,0,0,5.58,6.86c4,2.09,5.47,5.5,5.32,9.7-.17,4.48-2.14,8-6.4,9.88a24.23,24.23,0,0,1-4.78,1.54,11.62,11.62,0,0,0-8.74,6.73,23.41,23.41,0,0,1-7.31,8.73,12.56,12.56,0,0,1-7.31,2.65,64.57,64.57,0,0,0-7.85.76c-4.4.74-7.08,3.55-8.21,7.75a23.42,23.42,0,0,0-1,8.29,4.67,4.67,0,0,1-2,4.37,20.83,20.83,0,0,1-18.1,3.9,41,41,0,0,1-17.15-8.69c-2.12-1.72-2.45-3.38-1.35-5.92.32-.74.68-1.45,1.06-2.15a91.29,91.29,0,0,0,7.74-18.28c2.74-9.32,7.59-17.53,13.3-25.33a100.77,100.77,0,0,1,18.87-19.66c3.26-2.57,6.49-5.2,9.84-7.64C138,350.86,139.14,350.65,142.8,350.74Z" transform="translate(-0.48 -0.48)"/><path class="cls-1" d="M106.77,199.79c-1.12,0-2.24,0-3.36,0a16.49,16.49,0,0,1-13.7-7.57c-2.35-3.42-4.43-7-6.55-10.6a5.89,5.89,0,0,1-.87-2.68,3.31,3.31,0,0,1,3.32-3.4,13.63,13.63,0,0,1,4.29.33c4.45,1.37,8.52.08,12.6-1.44,1.72-.64,3.41-1.37,5.13-2,6.4-2.39,12.87-2.06,19.32-.27a35.35,35.35,0,0,0,19.64,0,32.89,32.89,0,0,0,18.22-12.89c1.2-1.7,2.37-3.41,3.6-5.09a3.62,3.62,0,0,1,5-1.28c8.22,3.72,16.46,7.41,24.66,11.18,3,1.37,6,2.77,8.14,5.36a9.57,9.57,0,0,1,1.45,2.19,3.42,3.42,0,0,1-2.38,5,35.79,35.79,0,0,0-7,2.94c-3.42,1.73-5.55,4.56-7.27,7.73a31.91,31.91,0,0,0-3.1,7.51c-1.26,5-4.57,7.65-9.28,9-2.46.69-4.92,1.38-7.34,2.17a6.5,6.5,0,0,0-2.26,1.31c-7,6.2-15.17,8.11-24.32,6.7a29.19,29.19,0,0,1-9.58-2.84c-4.44-2.36-8.91-4.65-12.82-7.9-3.34-2.78-7.44-3.53-11.7-3.52h-3.83Z" transform="translate(-0.48 -0.48)"/><path class="cls-1" d="M60.21,111.84a150.87,150.87,0,0,1,47.71,8.43c1.5.54,3,1,4.57,1.46A119.18,119.18,0,0,1,150,140.08a60.48,60.48,0,0,1,5.7,4.77c2.38,2.21,2.33,4.24,0,6.58-1.3,1.31-2.59,2.62-3.91,3.9A31.24,31.24,0,0,1,135,163.47a18.11,18.11,0,0,1-9.21-1c-7.94-2.79-15.8-2.82-23.54.72-2,.9-3.85,2-5.74,3-3,1.62-6.14,2.73-9.63,2.32a7.5,7.5,0,0,1-1.65-.29c-4.81-1.79-9-4.36-11.83-8.87a68.49,68.49,0,0,0-8.48-11.3,85,85,0,0,1-13-17.2A60.89,60.89,0,0,1,47.47,119c-1.36-4.42,1.41-6.73,5.55-7.14A71.81,71.81,0,0,1,60.21,111.84Z" transform="translate(-0.48 -0.48)"/><path class="cls-1" d="M186.84,212.14c1.76,0,3.52,0,5.28,0,3-.08,3.7-.77,3.74-3.69a23.19,23.19,0,0,0-.12-3.12c-.6-5,1.54-9.06,4.72-12.58,3.94-4.36,9.26-5.82,14.87-6.3a6.16,6.16,0,0,1,4.49,1.4q5.33,4.47,10.59,9c1.34,1.14,2.63,2.33,3.94,3.5a80,80,0,0,1,11.23,12.11c1.32,1.8,2.65,3.6,3.95,5.42a15.45,15.45,0,0,1,1.54,2.42c.88,1.86,1.27,3.78.18,5.73-4.85,8.72-9.35,17.68-16.23,25.07-6.05,6.48-13.07,11.5-21.89,13.58a25.86,25.86,0,0,1-10.69.41,16.06,16.06,0,0,1-10.87-7.2,34.75,34.75,0,0,1-5.77-15.08c-.31-2.38-.74-4.73-1.15-7.09a3.57,3.57,0,0,0-.61-1.79,79.3,79.3,0,0,0-5.7-5.75,52.14,52.14,0,0,0-4.7-3.31,16.38,16.38,0,0,1-2-1.7,5.58,5.58,0,0,1,2-9.36,33.14,33.14,0,0,1,9.66-1.61c1.2,0,2.39,0,3.59,0Z" transform="translate(-0.48 -0.48)"/><path class="cls-1" d="M252.38,410.61a6.7,6.7,0,0,1,2-4.95,36.66,36.66,0,0,1,16.19-9.85,88.42,88.42,0,0,1,18.56-3.6c7-.66,14-1,21-1.57a47.35,47.35,0,0,0,5.89-1q13.83-2.89,27.66-5.84a9.06,9.06,0,0,1,7.34,1.17c1.05.73,2.15,1.39,3.16,2.17a7.27,7.27,0,0,1,3,5,38.33,38.33,0,0,1,.56,5c0,3.24-1.85,5.67-4,7.94a91.21,91.21,0,0,0-7.51,8.38,27.05,27.05,0,0,0-5.15,20.14c.4,2.93-1.15,4.69-4.08,4.34a49.89,49.89,0,0,1-5.4-1c-7.07-1.67-14.12-3.41-21.19-5.05-4.75-1.1-9.55-1.95-14.28-3.11-8.68-2.13-17.34-4.37-26-6.66-2.46-.66-4.84-1.64-7.26-2.44-3.57-1.19-6.46-3.46-9.31-5.79A3.42,3.42,0,0,1,252.38,410.61Z" transform="translate(-0.48 -0.48)"/><path class="cls-1" d="M311.78,300.31c2.8-.28,5.5-.57,8.21-.82a9,9,0,0,1,4.9.77,5.1,5.1,0,0,1,2.19,7.47c-2.13,3.57-4.16,7.19-6.23,10.79-.12.21-.33.44-.3.64.45,3.41-2.68,5.44-3.26,8.46a7.86,7.86,0,0,1-1,2.18,4.29,4.29,0,0,1-3.37,2.41c-1.59.16-3.19.2-4.77.38a30.24,30.24,0,0,0-5.65.88c-3.72,1.19-7.38,2.6-11,4.08a14.37,14.37,0,0,0-4.32,2.52c-3,2.76-6.19,2.71-9.48.88-3.55-2-7-4.17-10.47-6.27-.82-.5-1.57-1.13-2.41-1.56a17.84,17.84,0,0,1-7.77-7.91c-1-1.83-2.1-3.58-3-5.42a16.51,16.51,0,0,1-.32-15,36.29,36.29,0,0,1,10.54-13.21c2.71-2.16,3.69-4.85,4.14-8a22.2,22.2,0,0,1,1.09-4.39,13.48,13.48,0,0,1,8-8.08,26.23,26.23,0,0,1,3.61-1.27,15.85,15.85,0,0,0,9.06-5.91c1.32-1.71,2.52-3.5,3.77-5.26s2.48-2.25,4.53-1.6a29.7,29.7,0,0,1,3.14,1.18c2.78,1.25,3.43,3.36,2.09,6a46.59,46.59,0,0,0-5,23.41,15.51,15.51,0,0,0,3,8.72,9.54,9.54,0,0,0,8.06,3.94Z" transform="translate(-0.48 -0.48)"/><path class="cls-1" d="M403.61,431.31a20.1,20.1,0,0,1,3.62-10.73c2.92-4.5,3-9.36,2-14.3s-2.21-10.13-2.13-15.37c.09-6.15,2.82-11.22,6.5-15.88,2.22-2.81,5.15-3.33,8.41-2.28,1.89.61,3.72,1.43,5.57,2.17,6.87,2.76,14.15,3.89,21.36,5.28a24,24,0,0,0,8.57.16,6.16,6.16,0,0,0,3.91-2.44c1.59-1.89,3.31-3.68,5-5.45a11.46,11.46,0,0,1,2.28-1.74c2.72-1.61,6.07-1.14,7.65,1.42s4.16,3.28,6.92,3.56a8,8,0,0,0,2.39,0c2.95-.61,5.78,2.54,6.24,5.15a4.29,4.29,0,0,1-.65,2.9,41,41,0,0,1-4.38,5.36c-3.36,3.41-6.9,6.66-10.3,10a114.12,114.12,0,0,1-23.43,17.38,9.55,9.55,0,0,0-1,.58c-7.3,5.55-15.64,9.31-23.61,13.7-6.17,3.39-12.69,6.06-19.87,6.63-2.71.21-3.86-.4-4.55-3A25.86,25.86,0,0,1,403.61,431.31Z" transform="translate(-0.48 -0.48)"/><path class="cls-1" d="M177.84,268a34,34,0,0,1,11.45,2.28,20.1,20.1,0,0,1,7.87,6.09,4.12,4.12,0,0,1,.82,3.79,24.76,24.76,0,0,0,1.48,16.39,9.12,9.12,0,0,1,.72,6.51,50,50,0,0,1-1.68,6,10.33,10.33,0,0,0,.33,8.57c1,2.27,2,4.52,3,6.8a23.71,23.71,0,0,1,1.93,11.23c-.32,4.51-2.62,8.23-5.63,11.38a47.44,47.44,0,0,1-7,5.71,12.08,12.08,0,0,0-3.82,4.19,40.13,40.13,0,0,1-2.8,4.74,8.33,8.33,0,0,1-12.92,1.3,15,15,0,0,1-3-3.67,38.84,38.84,0,0,0-8-9.79c-2.63-2.45-5.47-4.66-8.22-7-.43-.36-.9-.68-1.3-1.06-2-1.89-2-3.81-.13-5.83a144.11,144.11,0,0,0,14.4-17.92,95,95,0,0,0,9.35-19.13c1.06-2.78-.12-5.18-1.9-7.22-1.36-1.56-3.08-2.8-4.52-4.29-2.16-2.24-4.29-4.52-6.29-6.9a4.23,4.23,0,0,1,.44-6c4.26-3.19,8.77-5.91,14.31-6.15C177,268,177.44,268,177.84,268Z" transform="translate(-0.48 -0.48)"/><path class="cls-1" d="M401,131.25c-.25,2.78-.49,5.88-.84,9a19.63,19.63,0,0,0,3.21,13c1,1.63,2.21,3.14,3.27,4.73,2.26,3.41,3.74,7.11,3.35,11.27-.45,4.83-1.84,9.26-6.31,12a51.75,51.75,0,0,1-4.69,2.88,40.93,40.93,0,0,0-16,13.4c-.88,1.23-1.6,2.57-2.4,3.85-1.28,2-2.41,4.15-3.87,6a14.72,14.72,0,0,1-9,5.11c-3.08.64-5.28-1-5.85-4.1-2.15-11.68,2.71-20.52,11.22-27.88,1.69-1.46,3.48-2.82,5.23-4.21,5-4,7.44-9.27,8-15.52a26.58,26.58,0,0,0-.73-8.56,40.26,40.26,0,0,0-7-15.35,26.12,26.12,0,0,0-5.79-5.66c-4.33-3-8.91-5.63-13.44-8.31a15.64,15.64,0,0,0-3.78-1.48,7.16,7.16,0,0,1-5.67-6.34c-.7-5-1.6-9.93-2.24-14.91-.62-4.76,2.7-7.43,5.92-8.43a6,6,0,0,1,5.29.66c4.6,3,9.24,6,13.78,9.12a95.54,95.54,0,0,0,15.85,9.36,21.3,21.3,0,0,1,9.19,7.47C400.26,122.16,400.82,126.48,401,131.25Z" transform="translate(-0.48 -0.48)"/><path class="cls-1" d="M597.42,347c.36-1.63.68-3.27,1.09-4.88.31-1.24.82-2.43,1.09-3.68.86-3.91-1.14-6.8-3.64-9.39a18.11,18.11,0,0,0-3.68-2.64,28.68,28.68,0,0,1-10.93-11.78,38.87,38.87,0,0,1-4.07-11.45A14.15,14.15,0,0,1,577,301a3.49,3.49,0,0,1,4.84-3.32,7.39,7.39,0,0,1,1.24.72,22.11,22.11,0,0,0,26.76-3.27c2.37-2.37,4.64-4.85,7-7.27.22-.23.42-.49.65-.71,3.61-3.38,5.45-3.3,8.83.31,2.59,2.75,4.56,5.76,4.55,9.72a11.24,11.24,0,0,1-3,7.87c-.38.41-.81.78-1.15,1.22-1.71,2.2-1.67,3.46.22,5.47a36.42,36.42,0,0,0,9.6,7.47,10.38,10.38,0,0,0,9,.15c2.22-.89,4.41-1.86,6.66-2.66a12.76,12.76,0,0,1,6.63-.46c2.79.5,4,2.65,3,5.29a7.76,7.76,0,0,1-5.64,5.1c-2.66.64-4.49,2.28-6.35,4-6.23,5.87-12.59,11.59-19.78,16.3a167.41,167.41,0,0,1-21.43,11.73c-3.69,1.71-5.55,1.07-8-2.27A18.25,18.25,0,0,1,597.42,347Z" transform="translate(-0.48 -0.48)"/><path class="cls-1" d="M108,487.72c-4.73-.5-10.84-1.15-17-1.82-3.1-.34-6.19-.76-9.28-1.1A47.05,47.05,0,0,1,66.57,480a25.77,25.77,0,0,1-5.92-3.55c-2.83-2.46-3.67-4.85-2.36-8.32,3-7.85,6.9-15.11,13.07-21,3.49-3.32,7.4-5.49,12.44-5.2,2.45.14,4.39,1.4,6.44,2.39,4.16,2,8.25,4.15,12.55,5.92a18.91,18.91,0,0,0,12.42.68c4-1.05,7.89-2.4,11.23-5.14s7.68-2.45,11,.42a23.4,23.4,0,0,1,3.29,3.46c2.79,3.67,2.74,7.23.14,11.05A59.28,59.28,0,0,0,137,467a17.93,17.93,0,0,0-1.44,12.14c.48,2.32-.17,3.53-2.34,4.62-4.23,2.12-8.8,2.86-13.43,3.27C116.34,487.38,112.9,487.46,108,487.72Z" transform="translate(-0.48 -0.48)"/><path class="cls-1" d="M331.4,260.22c-4.53.38-8.68-1.17-12.84-2.57a3.74,3.74,0,0,1-1.8-1.47,25.5,25.5,0,0,1-2.21-4.24c-4.68-11.93-3.26-23.34,3.07-34.28a5.42,5.42,0,0,1,4.77-2.74c6.44-.17,12.43,1.37,17.45,5.48,3.1,2.55,6.63,3.4,10.39,3.71,7.36.62,14.47-1,21.51-2.83,3.51-.93,6.07-3.47,8.43-6.1a28,28,0,0,0,5.43-9,5.54,5.54,0,0,1,5.64-4A3.57,3.57,0,0,1,395,205a15,15,0,0,1,.27,7.34c-.9,5.59-1.77,11.19-2.69,16.78a10,10,0,0,1-4.7,7.17q-7.1,4.47-14.17,9c-4,2.58-8,5.32-12.09,7.76-6.79,4-14.29,5.89-22.08,6.65C336.83,259.91,334.11,260,331.4,260.22Z" transform="translate(-0.48 -0.48)"/><path class="cls-1" d="M382,441.3c-3.11-.19-6.25-.73-9.32-.45s-5.84-.56-8.76-.88c-6.48-.73-14.35-9.57-13.58-16.93a14.29,14.29,0,0,1,4.81-9.3c4.6-4.33,8.94-8.85,11.24-15a12.07,12.07,0,0,0-1.36-11.6,25.3,25.3,0,0,1-1.93-3,3.85,3.85,0,0,1,.4-4.3,3.62,3.62,0,0,1,3.79-1.54c3.6.88,6.37-.6,8.89-2.9,3-2.69,5.87-5.42,8.86-8.06a19.76,19.76,0,0,1,8.05-4.1,5.16,5.16,0,0,1,2.56,0c2.3.63,4.6,1.35,6.84,2.18,3.47,1.28,4.2,3.66,2.15,6.77a16.35,16.35,0,0,1-2,2.43c-3.4,3.52-4.71,7.91-5.12,12.62a14.55,14.55,0,0,0,.5,3.78c.87,4.54,2.47,8.91,2.92,13.57a26.15,26.15,0,0,1-4.22,17.34c-2.29,3.5-3.06,7.14-1.7,11.16a8.61,8.61,0,0,1,.45,1.85c.35,3.26-.33,4-3.35,5.39-2.57,1.2-5.16.8-7.77.87-.79,0-1.59-.08-2.39-.13Z" transform="translate(-0.48 -0.48)"/><path class="cls-1" d="M507.32,210.09a196.35,196.35,0,0,1,33.62,3.75,82.08,82.08,0,0,1,11.76,3.21c5.69,2,9.29,8.74,8.17,14.68a26.76,26.76,0,0,1-1.74,6.41c-1.73,3.7-4.85,6.05-8.64,7.54A42.57,42.57,0,0,0,538.73,252a39.28,39.28,0,0,0-5.34,5.13,5.68,5.68,0,0,1-6.17,2.13c-6-1.55-10.75-4.77-13.46-10.54a21.86,21.86,0,0,1-1.56-4,8.85,8.85,0,0,0-7.5-7.06c-3.52-.66-7.09-1-10.65-1.48-2.06-.26-4.15-.3-6.19-.61a12.15,12.15,0,0,1-10.39-8.72,20.43,20.43,0,0,1-.92-8.5,5.56,5.56,0,0,1,4.52-5.24,92.75,92.75,0,0,1,11.74-2.25C497.81,210.33,502.86,210.3,507.32,210.09Z" transform="translate(-0.48 -0.48)"/><path class="cls-1" d="M511.28,390.65c-.5,9.43-1.25,18.84-3.56,28-2.55,10.14-4.6,20.42-8.14,30.29-1.34,3.75-2.67,7.52-4.25,11.17a21.11,21.11,0,0,1-3.1,4.48,2.84,2.84,0,0,1-3.06.94c-4.8-1.42-11.08-4.79-12.34-11.46-.39-2-.78-4.08-1.08-6.13a12.53,12.53,0,0,0-5.24-8.27,5.41,5.41,0,0,0-1.76-.67c-4.46-1.26-8.32.21-12,2.65-1,.67-2,1.29-3,2-3.38,2.46-8,1.56-10.76-1.63-2.12-2.45-2.24-5.18-1.67-8.1a3.14,3.14,0,0,1,2.09-2.45c3.89-1.39,7.09-4,10.54-6.1,2-1.22,3.94-2.43,5.89-3.67.54-.34,1.05-.73,1.56-1.12,4.89-3.71,9.85-7.33,14.65-11.17,3.87-3.09,7.53-6.44,11.29-9.66a72.42,72.42,0,0,0,10.09-10.55c2.9-3.74,6.93-3.88,11-3.8a3,3,0,0,1,2.75,2.87C511.34,389.05,511.28,389.85,511.28,390.65Z" transform="translate(-0.48 -0.48)"/><path class="cls-1" d="M203.86,424.85c.59-2.48,1-5,1.79-7.44,1.68-5.31.6-10.29-1.59-15.12-1.55-3.42-4.62-5-8.06-5.85-1.54-.4-3.15-.56-4.69-.95-4.63-1.18-7-4.19-7.14-9a23.5,23.5,0,0,1,2-11c1.09-2.32,2.16-4.64,3.17-7,2-4.67,5.84-7.52,10.08-9.81s8.58-1.17,11.39,2.8c1,1.36,1.65,2.92,2.55,4.32,1.73,2.68,3.51,5.33,5.31,8a20.53,20.53,0,0,0,4.83,5.27,24.39,24.39,0,0,0,11,4.48,35,35,0,0,1,5.9,1,36.35,36.35,0,0,1,6.05,2.79,2.94,2.94,0,0,1,1.35,3.34,24.22,24.22,0,0,1-1.15,4.64c-4.28,10.39-9.09,20.48-16.89,28.79a63.43,63.43,0,0,1-11,9.93,4.3,4.3,0,0,1-5.5-.13c-2.12-1.55-4.39-2.91-6.66-4.25A5.23,5.23,0,0,1,203.86,424.85Z" transform="translate(-0.48 -0.48)"/><path class="cls-1" d="M226.38,299.12c6.62.27,10.57,3.84,13.09,9.15a41.55,41.55,0,0,1,3.39,13.66c.46,4.44.73,9,2.58,13.11,2.29,5.16,5.32,9.76,10.1,13.12,3.3,2.31,6.62,4.36,10.61,5.3,2.33.55,3.1,3.23,1.82,5.75a33.73,33.73,0,0,1-2.61,4.57c-2.41,3.37-4.95,6.66-7.46,10a3.78,3.78,0,0,1-4.24,1.36c-3.35-.71-6.75-1.23-10.14-1.72-4.44-.64-8.91-1.27-13.07-2.95a23.12,23.12,0,0,1-12.35-11.15,64.19,64.19,0,0,1-2.72-6.9,20.35,20.35,0,0,1-1-10.38,46,46,0,0,0-2.17-21.72c-.72-2.2-1.35-4.43-2.15-6.6a7,7,0,0,1,1.08-7A16.85,16.85,0,0,1,222,299.79C223.58,299.5,225.17,299.3,226.38,299.12Z" transform="translate(-0.48 -0.48)"/><path class="cls-1" d="M606.61,240.18c-.29,1.65-.45,3.33-.9,4.93a9.72,9.72,0,0,1-6.54,6.79,31.87,31.87,0,0,1-5.61,1.13c-2,.31-4,.51-5.95.71a8.06,8.06,0,0,0-5.08,2.47c-2.86,3-5.7,6-7.69,9.73-3.47,6.51-4.65,13.52-5.13,20.74-.24,3.74-.45,7.49-1.05,11.18a12.8,12.8,0,0,1-2.31,4.64,5.33,5.33,0,0,1-6.36,2.13c-2.63-.79-4-2.73-4.3-5.48a34.07,34.07,0,0,0-1-4.66c-1-3.76-3.55-6.57-5.93-9.45-1.62-2-3.55-3.67-5.29-5.55-2.94-3.17-4.75-6.92-4.39-11.27a12,12,0,0,1,5.58-9.56,44.44,44.44,0,0,1,9.77-4.47,33,33,0,0,0,8.93-5.06c2.64-2,3.79-4.9,4.46-8a30.39,30.39,0,0,0-.17-13.55,15.28,15.28,0,0,1-.46-2.59c-.19-2.8,1.81-4.55,4.56-3.84A87.14,87.14,0,0,1,587,226.24c3.4,1.6,6.85,3.1,10.11,4.95a94.66,94.66,0,0,1,7.9,5.37A4.17,4.17,0,0,1,606.61,240.18Z" transform="translate(-0.48 -0.48)"/><path class="cls-1" d="M178.56,252.28c-.13,2.39-.18,4.15-.33,5.89a3.14,3.14,0,0,1-3.33,3.07,25.06,25.06,0,0,1-3.34-.27,19.8,19.8,0,0,0-15.68,4.42c-.93.75-1.84,1.53-2.75,2.31a4.41,4.41,0,0,1-5.5.59,21,21,0,0,1-3.32-2.35c-2.33-2.06-4.6-4.19-6.86-6.34-2.72-2.58-5.34-5.27-8.11-7.81a74.54,74.54,0,0,1-11.9-13.41c-4.1-6.18-7.81-12.68-8.06-20.46-.1-3.42,1-4.58,4.33-4.95a24.9,24.9,0,0,1,12,1.2,42.56,42.56,0,0,1,6.16,3.15,50.63,50.63,0,0,1,5.28,3.71,16.55,16.55,0,0,0,11.22,3.32c1.36,0,2.72-.09,4.07-.2,9.08-.69,15.53,3.55,20,11A54,54,0,0,1,178,248.65,23.77,23.77,0,0,1,178.56,252.28Z" transform="translate(-0.48 -0.48)"/><path class="cls-1" d="M275.86,264.89c-.51-.06-1.46-.18-2.42-.28a13.41,13.41,0,0,0-11,3.52,6.46,6.46,0,0,0-2.29,4.79c-.09,2.95-.23,5.91-.39,8.86a17.1,17.1,0,0,1-4,9.82,12.74,12.74,0,0,1-19.24,1c-3.69-3.77-7.68-4.41-12.44-3.34a64,64,0,0,1-7.55,1.28c-5.46.56-9.45-2.47-10.6-7.84-.56-2.65-.79-5.2,1.06-7.53a5.77,5.77,0,0,1,3.36-2.11c4-1,8.1-1.86,12.08-3,5.62-1.63,11.09-3.73,15.71-7.45,4.9-3.94,9.17-8.42,11.33-14.55,1-2.93,2.25-5.81,3.45-8.68a14,14,0,0,1,4.92-6.34c2.72-1.89,5-1.35,7,1.24,5.08,6.55,10.82,12.37,18.48,16a14.92,14.92,0,0,1,2.8,1.82,5.83,5.83,0,0,1,.87,7.75C284.14,263.34,280.61,264.83,275.86,264.89Z" transform="translate(-0.48 -0.48)"/><path class="cls-1" d="M554.34,411.78c-.5-.66-1-1.3-1.44-1.9a5.71,5.71,0,0,1-1.1-4.22c.21-4.29.09-8.61,0-12.91,0-1.94-.17-3.93,1.33-5.41a5.23,5.23,0,0,1,2.59-1.46c6.51-1.18,13.08-2.05,19.56-3.37,4.13-.85,8.13-2.3,12.2-3.44a33.77,33.77,0,0,1,4.44-1,4,4,0,0,1,4.69,3.39c1,4.12.69,8.29.39,12.41-.52,7.1-1.73,14.11-4.78,20.63a69.59,69.59,0,0,1-4.43,8.2,22.77,22.77,0,0,1-12.25,9.51,51.53,51.53,0,0,1-21.71,2.63,14.71,14.71,0,0,1-9.75-4.55c-3.54-3.8-2.65-8.77.44-11.77a29.12,29.12,0,0,1,9.22-6.33A2.66,2.66,0,0,0,554.34,411.78Z" transform="translate(-0.48 -0.48)"/><path class="cls-1" d="M410.4,278.94a16.74,16.74,0,0,1,7.55,2.29,9.69,9.69,0,0,0,6.69,1.16c1.42-.22,2.84-.44,4.26-.68,8.7-1.46,16,1.41,21.77,7.77a68.94,68.94,0,0,1,8.07,11,23.07,23.07,0,0,0,9,8.29c3.2,1.79,6.55,3.31,9.77,5.08a13.5,13.5,0,0,1,3.39,2.62c2.15,2.35,2,5.12-.55,7.09s-5,4-8.34,4.45c-3.72.54-6.77-.44-9-3.62a42.9,42.9,0,0,0-3-3.76,6.54,6.54,0,0,0-4.33-2.33c-3.74-.32-7.47-.66-11.21-.89-4.55-.28-9.13-.16-13.63-.74-5.47-.7-10.88-1.94-15.27-5.68a24.88,24.88,0,0,1-3.09-3c-2.76-3.32-5.59-6.58-8.06-10.1a38.91,38.91,0,0,1-4.69-8.55c-1.86-4.95,1.94-9,5.88-9.65Z" transform="translate(-0.48 -0.48)"/><path class="cls-1" d="M465.54,220.69c-.37,5.51-.73,10.77-1.08,16-.07,1-.06,1.92-.13,2.87-.19,2.87-.32,5.74-.62,8.59-.4,3.73-.75,7.49-1.48,11.16a46.26,46.26,0,0,1-2.66,8.42,10.26,10.26,0,0,1-6.23,5.61c-5.34,2-10.32,1.27-15.16-1.54a13.92,13.92,0,0,0-12.61-1.19,15.51,15.51,0,0,1-5.35,1c-3.41,0-5.45-2.35-5.35-5.68a5,5,0,0,1,2.57-4.07,51.52,51.52,0,0,0,6.17-4.53,20.26,20.26,0,0,0,6.13-10.87,14.76,14.76,0,0,0,.05-3.58c-.24-4.3-.49-8.61-.8-12.9a4.49,4.49,0,0,1,2.14-4.23A52.57,52.57,0,0,1,455.32,216c1.82-.26,3.67-.39,5.45-.8a3.77,3.77,0,0,1,4.78,4.3A5.93,5.93,0,0,0,465.54,220.69Z" transform="translate(-0.48 -0.48)"/><path class="cls-1" d="M431.54,475.93c0-.64,0-1.28,0-1.92.16-7.44,6-13,12.73-14.14a57.23,57.23,0,0,1,7.86-.53c2-.06,2.8-.64,3.22-2.74a37.73,37.73,0,0,1,1.22-5.09c1.07-3,3.28-4.53,6.13-4.43,2.35.08,4.88,2.17,5.8,4.74s.65,5,.63,7.59a6.77,6.77,0,0,1-.13,1.19c-.82,4.07.87,6.77,4.53,8.46a21.52,21.52,0,0,1,7.94,5.67c3,3.72,3.25,3.33.36,7.1-4.37,5.69-8.37,11.72-13.81,16.53-4.7,4.14-4.54,3.75-10.07,2.25a85.61,85.61,0,0,1-17.52-7.08A13.7,13.7,0,0,1,437,491,19.73,19.73,0,0,1,431.54,475.93Z" transform="translate(-0.48 -0.48)"/><path class="cls-1" d="M384.17,290.16c.09,3.9-1.58,7.56-4.1,10.88-4.71,6.21-5.31,13-2.78,20.14a12.52,12.52,0,0,1-.3,9.1,5.64,5.64,0,0,1-6.3,3.61,11.11,11.11,0,0,1-6-2.84c-3.59-3.07-7.62-3.86-12.28-3.43-5,.46-10.05.31-15.08.38a18.11,18.11,0,0,1-4-.22c-3.84-.84-4.78-2.43-3.78-6.22a39.91,39.91,0,0,1,4.72-10.71,30.54,30.54,0,0,1,16.83-13.54,14.07,14.07,0,0,0,5.25-3.25c3.89-3.67,8-7.15,11.23-11.46a6.72,6.72,0,0,1,6.17-2.49c3,.2,5.71.64,7.81,3A8.86,8.86,0,0,1,384.17,290.16Z" transform="translate(-0.48 -0.48)"/><path class="cls-1" d="M348.09,213.07a13,13,0,0,1-8.1-2.35,14.33,14.33,0,0,0-6.39-2.54,10.15,10.15,0,0,1-2.28-.7,4,4,0,0,1-2.16-6c.23-.41.56-.78.81-1.18q2.73-4.36,5.43-8.74c1-1.63,1.91-3.34,3-4.88a78.61,78.61,0,0,0,10.74-20.51A30.9,30.9,0,0,0,351,153.92c-.11-1.83-.07-3.67-.09-5.51a45.26,45.26,0,0,0-.78-10.25,11.85,11.85,0,0,1-.19-3.81,3,3,0,0,1,3.19-2.92,11.21,11.21,0,0,1,4.15.83,39.25,39.25,0,0,1,18.57,17.35c2,3.61,3.24,7.64,2.31,12a11,11,0,0,1-3.75,6.5c-1.74,1.4-3.63,2.6-5.41,4-2.52,1.94-5.15,3.78-7.47,5.95a18.46,18.46,0,0,0-4.85,8.67c-2,7.07-2.42,14.31-2.37,21.6,0,3.43-1.1,4.64-4.46,4.8C349.25,213.09,348.69,213.07,348.09,213.07Z" transform="translate(-0.48 -0.48)"/><path class="cls-1" d="M521.72,316.28c-5.69.09-10.16-2.53-14.07-6.08A19.07,19.07,0,0,0,495.12,305c-4.39-.16-8.8,0-13.19-.23a39.39,39.39,0,0,1-7.29-1.16c-4.34-1.06-7.47-4-9.94-7.49a50,50,0,0,1-4.34-8,8.81,8.81,0,0,1-.68-4.16,4.41,4.41,0,0,1,4.33-4.05,12.35,12.35,0,0,1,7.3,1.88c3.05,1.79,6.29,2.93,9.82,2.3a50.8,50.8,0,0,0,6.63-2c1.37-.43,2.7-1,4.08-1.38a8.13,8.13,0,0,1,8.8,2.83c1.09,1.28,2.05,2.67,3.18,3.91a18.33,18.33,0,0,0,9.59,5.52c3.94.95,7.84,1.56,11.84.71,2.73-.59,5.4-1.45,8.14-2a15.81,15.81,0,0,1,5.21-.31c4.26.64,6.91,3.47,5.41,8.22a22.29,22.29,0,0,1-15,15.2A60.65,60.65,0,0,1,521.72,316.28Z" transform="translate(-0.48 -0.48)"/><path class="cls-1" d="M156.1,426.22c1.34-2.7,2.7-5.31,3.94-8a23,23,0,0,1,9.12-9.91,42.08,42.08,0,0,1,15.1-5.86c3.94-.67,7.4.77,10.71,2.64a3.86,3.86,0,0,1,1.91,3.16,19.06,19.06,0,0,1-1.67,9.82c-4.37,9.67-11.92,15.38-22.38,17.18-1.62.28-3.28.34-5.14.52.2,1.95.38,3.59.53,5.23a25.68,25.68,0,0,1-.73,10.22,16.61,16.61,0,0,1-2.51,4.81c-1.31,1.76-3.35,1.8-5.08.43-4.13-3.26-7.17-7.25-8.27-12.5a3.24,3.24,0,0,0-2-2.51c-2.18-1-4.34-2-6.51-3a25.15,25.15,0,0,1-8.16-5.77c-2.37-2.57-1.78-5.51,1.37-7a17.82,17.82,0,0,1,10.56-1.14C150,425.06,153,425.67,156.1,426.22Z" transform="translate(-0.48 -0.48)"/><path class="cls-1" d="M427.52,440.19c3-.07,5.36,1.47,7.73,2.94a17.53,17.53,0,0,1,3.14,2.58c2.22,2.22,2.36,4.61.38,7a13.22,13.22,0,0,1-5.66,4.3,18,18,0,0,0-9.49,7.69c-.87,1.42-2,2.7-2.74,4.19a16.24,16.24,0,0,0-1.15,7.75c0,1.19.18,2.39.27,3.58a17.74,17.74,0,0,0,1.8,6.9,49.84,49.84,0,0,1,2.94,6.55,24.53,24.53,0,0,1,1.18,5.58c.38,3.59-1.23,6.34-4.11,8.38a21.79,21.79,0,0,1-7.19,3.17c-3.77,1-7.53,2.07-11.28,3.15a3.33,3.33,0,0,1-4.49-3.63c.25-3.74.55-7.49,1-11.21.86-6.65,1.56-13.35,2.91-19.91A154.24,154.24,0,0,1,413,446.6a5.3,5.3,0,0,1,3.1-3.1c3.09-1.07,6.19-2.12,9.31-3.12A9.94,9.94,0,0,1,427.52,440.19Z" transform="translate(-0.48 -0.48)"/><path class="cls-1" d="M556.47,349c.32-3.58.6-7.16,1-10.73a8.59,8.59,0,0,0-1.67-6.29,53.66,53.66,0,0,0-8.57-8.67,6.11,6.11,0,0,1,1-10.07,3.44,3.44,0,0,1,3.24-.08,84.33,84.33,0,0,1,16.62,8.94,52.46,52.46,0,0,1,8.14,7.36,127.27,127.27,0,0,1,8,10.45c1.54,2.13,2.94,4.37,4.32,6.6,2.54,4.1,3.55,8.73,4.16,13.41a20.16,20.16,0,0,1-.55,6.15,4.6,4.6,0,0,1-3.08,3.15c-5,2-10,3.73-15.49,3.74a4,4,0,0,1-3.06-1.1c-3.06-3-6-6.15-9.18-9.1a13.75,13.75,0,0,1-4.6-11.35c0-.8,0-1.6,0-2.4Z" transform="translate(-0.48 -0.48)"/><path class="cls-1" d="M393.41,537.19c.52-6,2.83-12.46,9.87-16.33,4.24-2.33,8.67-2.51,13.27-1.75,1.82.31,3.61.71,5.43,1a14.3,14.3,0,0,0,6.15-.5c3.15-1,4.1-3.23,4.39-6.11.19-2,.3-4,.63-6,.41-2.4,1.43-4.39,4-5.18a5.44,5.44,0,0,1,6.06,1.68,20,20,0,0,1,4,8.6c.52,2.65-.72,5-2.18,7.17-1.84,2.7-3.69,5.41-5.74,8-6.57,8.19-13.73,15.82-22.32,22a33.35,33.35,0,0,1-9.32,4.84,7.43,7.43,0,0,1-7.75-1.63C395.6,549.11,393.38,544.39,393.41,537.19Z" transform="translate(-0.48 -0.48)"/><path class="cls-1" d="M659.74,307.58a9.13,9.13,0,0,0-6.2,1.3,12.34,12.34,0,0,1-6.39,1.8c-1.51.06-3,.12-4.55.13-3.65,0-5.74-2.68-4.83-6.21.45-1.78.94-3.55,1.44-5.31a13.06,13.06,0,0,0-1.19-9.75,30.11,30.11,0,0,0-6-8c-4.36-4.22-9-8.2-13.5-12.22-3.06-2.71-5.56-5.74-6.58-9.79a13.22,13.22,0,0,1,.5-8.92,8.44,8.44,0,0,1,1.24-2,3.32,3.32,0,0,1,4.9-.47C625.69,253.73,633,259.19,640,265a97,97,0,0,1,16.15,17c1.73,2.37,3,5.09,4.48,7.63a42.8,42.8,0,0,0,2.91,4.66,12.53,12.53,0,0,1,2.78,8.21,5.12,5.12,0,0,1-5.12,5.15C660.6,307.68,660,307.6,659.74,307.58Z" transform="translate(-0.48 -0.48)"/><path class="cls-1" d="M478.88,335.31c5.16.18,8.94-.08,12.38,1.91a67,67,0,0,1,8.88,6.08,6.55,6.55,0,0,1,2.51,4.68,35.88,35.88,0,0,1,.12,3.59c0,6.11.13,6.25-4,10.63s-9.29,6.09-15.25,4.52a11.13,11.13,0,0,1-3.39-1.7,54.49,54.49,0,0,1-5.09-4,4.1,4.1,0,0,0-3.73-1.13,53,53,0,0,0-6.48,1.64,6.8,6.8,0,0,0-2.65,2,31.35,31.35,0,0,0-3.27,4.42,6.81,6.81,0,0,1-6.09,3.61,57.7,57.7,0,0,1-7.81-.91,3.45,3.45,0,0,1-2.75-2.7,11.37,11.37,0,0,1,.06-7.74,7.48,7.48,0,0,1,2.19-3.06,22.48,22.48,0,0,1,5.26-3.28c5.36-2.23,10-5.22,13.3-10.16,1.4-2.13,3.16-4,4.73-6a4.09,4.09,0,0,1,3-1.74Z" transform="translate(-0.48 -0.48)"/><path class="cls-1" d="M470.11,261.56a39.12,39.12,0,0,1,4-15.77c1.84-3.58,4.26-5,8.18-4.18,5.77,1.23,11.65,2.3,16.62,5.8a34.44,34.44,0,0,1,6.23,5.14,76.57,76.57,0,0,1,6,8.35c3,4.51,7,7.37,12.61,7.49a6.74,6.74,0,0,1,3.82,1.16,3.76,3.76,0,0,1,1.94,3.59c-.18,2.14-.32,4.29-.63,6.41a7.16,7.16,0,0,1-1,2.66c-1.81,2.89-3.68,4.34-7.6,3.63a21.55,21.55,0,0,1-10.42-5.59,32.64,32.64,0,0,1-7.88-9.51,24.67,24.67,0,0,0-2.67-3.37,4.72,4.72,0,0,0-4.17-1.92,15.44,15.44,0,0,0-9.91,3.66,12.21,12.21,0,0,1-9.3,3,5,5,0,0,1-4.45-3.81A66.06,66.06,0,0,1,470.11,261.56Z" transform="translate(-0.48 -0.48)"/><path class="cls-1" d="M428.33,364.89c-3.75-.29-7.25-1.15-9.9-4.1-1.78-2-2.55-4-1.41-6.75a23.12,23.12,0,0,0,1.71-9.84,15.92,15.92,0,0,0-5.84-11.87,56.74,56.74,0,0,1-5.22-4.94c-2-2.23-3.16-4.77-2.06-7.9.93-2.69,3.42-3.51,5.66-1.77a5.66,5.66,0,0,1,.9.79c3.62,4.36,8.69,5.75,13.93,6.73a12.48,12.48,0,0,0,3.81,0,56.78,56.78,0,0,1,22.31,1.62c2.79.78,5,2.5,7.15,4.24a3,3,0,0,1,.68,4.12,17.49,17.49,0,0,1-3.59,4.41,31.74,31.74,0,0,1-16.26,7,4.92,4.92,0,0,0-3.91,2.77c-2,3.7-2.92,7.76-3.64,11.85C432.16,364.08,431.16,365,428.33,364.89Z" transform="translate(-0.48 -0.48)"/><path class="cls-1" d="M420.2,241.88a14.85,14.85,0,0,1-6.59,12.74c-1.85,1.26-3.74,2.46-5.65,3.63-4.57,2.79-7.21,7.11-9.45,11.77a21.25,21.25,0,0,1-2.48,4.33c-2.11,2.61-5.34,2.56-7.67.14a26.65,26.65,0,0,0-4.15-3.95c-3.82-2.55-7.83-2.13-11.84-.24a14.07,14.07,0,0,1-4,1.3,3.09,3.09,0,0,1-3.6-2.75,9.44,9.44,0,0,1-.07-3.31,11.83,11.83,0,0,1,4.91-8.06c8.36-6.05,16.75-12.07,25.84-16.94a124.49,124.49,0,0,1,14.12-5.93,24.23,24.23,0,0,1,5.37-1.15c2.62-.37,4.19.85,4.79,3.51a8.1,8.1,0,0,1,.24,1.17C420,239.26,420.1,240.37,420.2,241.88Z" transform="translate(-0.48 -0.48)"/><path class="cls-1" d="M145.27,473.91c.19-4.07.95-7.37,3.63-9.9,2.25-2.13,3.82-2.22,6.42-.49a12.83,12.83,0,0,0,14.36-.42c2.41-1.84,3.57-4.46,4.52-7.19.73-2.12,1.39-4.26,2.13-6.37,2.71-7.73,8.7-11.34,16.31-12.76a21.3,21.3,0,0,1,10.87,1,9,9,0,0,1,1.13.41c3.28,1.67,3.94,3.9,2,7a16.06,16.06,0,0,1-1.61,2.08,116.13,116.13,0,0,1-13.56,12.87,164.81,164.81,0,0,1-13.07,10.09,77.73,77.73,0,0,1-25.36,11c-2.58.61-6-1.29-7-3.94A24.15,24.15,0,0,1,145.27,473.91Z" transform="translate(-0.48 -0.48)"/><path class="cls-1" d="M530,380.93c-5.56-.57-11.12-1.05-16.66-1.71A8.92,8.92,0,0,1,506,366.81,105.43,105.43,0,0,1,511.58,356a3.1,3.1,0,0,1,3.93-1.47,51.28,51.28,0,0,1,6,2.42c2.56,1.28,4.9,3.09,7.83,3.45a57,57,0,0,0,7.84.49c2.06,0,4.11-.51,6.17-.7a11.05,11.05,0,0,1,10.44,4.58c.77,1,1.4,2.13,2.1,3.19,1.43,2.19,1.58,4.65,1.47,7.15a3.16,3.16,0,0,1-2.41,3,34.65,34.65,0,0,1-6.47,1.69C542.34,380.38,536.24,381.39,530,380.93Z" transform="translate(-0.48 -0.48)"/><path class="cls-1" d="M329.28,291.38a32.92,32.92,0,0,1-13.7-3c-4.68-2.1-6.6-6.3-6.75-11-.11-3.53.8-7.11,1.43-10.63a3,3,0,0,1,3.24-2.31,12.55,12.55,0,0,1,2.35.4,94.17,94.17,0,0,0,23.31,2.1c1.82,0,3.62-.58,5.44-.7a28.2,28.2,0,0,1,6.16,0,4.56,4.56,0,0,1,4,4.91,62.56,62.56,0,0,1-1.29,8.47c-.56,2.76-2.52,4.52-4.76,6A34.73,34.73,0,0,1,329.28,291.38Z" transform="translate(-0.48 -0.48)"/><path class="cls-1" d="M530.13,349.59a24.87,24.87,0,0,1-14.64-5.3c-2.87-2.14-5.47-4.64-8.24-6.92s-5.68-4.62-8.6-6.83c-2.28-1.73-4.66-3.33-7-5a3.54,3.54,0,0,1-1.74-4.07,11.39,11.39,0,0,0,.17-1.43c.32-2.93,1.54-4.18,4.44-4.22a16.85,16.85,0,0,1,4.25.48,25.86,25.86,0,0,1,14,8.25c2.12,2.47,5.1,3.25,8.23,3.1,2.94-.15,5.86-.7,8.79-.9a18.78,18.78,0,0,1,9.82,1.5,15.35,15.35,0,0,1,6.68,6c1.13,2,1.3,3.84-.23,5.78a26,26,0,0,1-12.34,9A20.45,20.45,0,0,1,530.13,349.59Z" transform="translate(-0.48 -0.48)"/><path class="cls-1" d="M397,310.24c-.32,3.47-.56,5.93-.76,8.4-.13,1.51-.18,3-.28,4.54-.28,4.28,1.53,7.57,4.83,10.12,1.76,1.37,3.56,2.71,5.39,4a9.29,9.29,0,0,1,4.32,8.79,27.82,27.82,0,0,1-1.35,6.51,5.15,5.15,0,0,1-6,3.62,15.93,15.93,0,0,1-4.35-1.23,31.76,31.76,0,0,1-12.25-9.72,7,7,0,0,1-1.36-6.31,20.37,20.37,0,0,1,1.29-4.1,11.22,11.22,0,0,0,.5-8.38,49.44,49.44,0,0,1-1.67-14.93,13.48,13.48,0,0,1,2.6-7.82,9.65,9.65,0,0,1,3.05-2.6,3.3,3.3,0,0,1,4.8,2.11A62,62,0,0,1,397,310.24Z" transform="translate(-0.48 -0.48)"/><path class="cls-1" d="M610.17,275.47a13.57,13.57,0,1,1-13.49-13.59A13.46,13.46,0,0,1,610.17,275.47Z" transform="translate(-0.48 -0.48)"/></svg>