<svg id="Layer_1" data-name="Layer 1" xmlns="http://www.w3.org/2000/svg" viewBox="0 0 720 612"><defs><style>.cls-1{fill:none;stroke:#000;stroke-miterlimit:10;stroke-width:0.01px;}</style></defs><path d="M.48,612.48V.48h720v612ZM177.45,210a51.48,51.48,0,0,0,.3,5.34A41.35,41.35,0,0,0,179,220.2c.45,1.62.88,3.24,1.4,4.84,1.71,5.32,3.4,10.65,5.2,15.94,1.53,4.45,3.5,8.78,4.76,13.31,2.26,8.15,4.15,16.41,6.18,24.62.6,2.41,1.1,4.83,1.7,7.23,1.61,6.47,4.32,12.53,7.05,18.58a12.88,12.88,0,0,0,5,5.67,7.58,7.58,0,0,0,7.76.31,9.78,9.78,0,0,0,5.08-5.79c1-2.69,1.86-5.44,2.75-8.18,1.8-5.5,3.89-10.86,7.76-15.28,3.05-3.49,6.34-6.76,9.38-10.26a25.85,25.85,0,0,0,3.75-5.5,7.68,7.68,0,0,0-2.15-9.15q-4.81-4.14-9.78-8.12a5.94,5.94,0,0,1-2-3.14,9.71,9.71,0,0,1,2.05-9.8,164.87,164.87,0,0,0,16.55-23.21c3.19-5.42,3.56-11.13,2.65-17.13s-3.78-10.82-7.09-15.56a6.05,6.05,0,0,0-2.44-2.2c-4.26-1.71-8.68-2.87-13.32-2.41A71.49,71.49,0,0,0,208,181.38c-5.2,2.44-10.29,5.14-15.38,7.83a54.41,54.41,0,0,0-10.5,7.53,11.87,11.87,0,0,0-4.18,7.6C177.69,206.24,177.6,208.16,177.45,210Zm-64.67,92.21c0,1.83.13,3.68,0,5.51a7.58,7.58,0,0,0,3.65,7.32,61.83,61.83,0,0,0,6.54,4,15,15,0,0,1,7.26,8.27,51.43,51.43,0,0,1,1.34,5.09c.63,2.3,1.25,4.61,2,6.89a3.75,3.75,0,0,0,2.79,2.4,7.75,7.75,0,0,0,8.48-2.4,36.19,36.19,0,0,0,3.86-5.47q3.83-6.37,7.44-12.88a5.24,5.24,0,0,1,4-2.72c1.87-.3,2.54,0,3.06,1.8a19.33,19.33,0,0,1,1.06,8,4.16,4.16,0,0,0,2.16,4.22,3.55,3.55,0,0,0,4.45-.29,12.44,12.44,0,0,0,2.53-2.49,20.84,20.84,0,0,0,3.62-8,23.61,23.61,0,0,1,9.38-14.82,11.16,11.16,0,0,0,4-12.57c-2.28-7.27-4.83-14.4-8.75-21a26.41,26.41,0,0,1-3-7.79c-1.81-7.94-3.64-15.87-6.51-23.54a61.77,61.77,0,0,1-2.77-10.9c-.7-4-1-8.09-1.4-12.14-.26-2.45-1.74-3.81-4.08-3.79a4.6,4.6,0,0,0-3,1.39c-5,4.28-9,9.49-13,14.68-4.72,6.15-9.26,12.45-13.7,18.81a222.36,222.36,0,0,0-14.38,22.67A56.77,56.77,0,0,0,112.78,302.21ZM494.42,309c-3.66,0-8.69,2.9-10.49,5.88A27.27,27.27,0,0,0,480,325.4c-.93,7.13-1.68,14.28-2.42,21.43s-1.21,14.51-2.1,21.72a141.92,141.92,0,0,0-.28,36.37c1.77,13.17,5.15,25.87,12.16,37.35a19.16,19.16,0,0,0,4.14,4.58,4.38,4.38,0,0,0,6.59-1.43c.35-.63.53-1.34.86-2,1.42-2.77,2.52-5.79,4.38-8.22,3.26-4.24,7-8.11,10.54-12.11a4.78,4.78,0,0,1,3.75-1.81,3.67,3.67,0,0,0,3.65-2.61,13.77,13.77,0,0,0,1-3.67c.29-4.31.54-8.62.57-12.94a195.82,195.82,0,0,1,2.24-27.47,10.17,10.17,0,0,1,2.59-5.28c2.13-2.44,4.87-3.79,7.74-5.06a55.69,55.69,0,0,0,5.87-3.21,3.46,3.46,0,0,0,1.91-4c-.45-1.78-1.85-2.44-3.54-2.79a48,48,0,0,1-5.3-1.4,3.82,3.82,0,0,1-1.93-1.31,23.12,23.12,0,0,1-3-5.4c-1.25-3.93-3.5-6.6-7.63-7.39-3.63-.7-6.29-2.91-9-5.25a18.77,18.77,0,0,1-4.52-6.1c-1.75-3.59-3.47-7.21-5.41-10.69a44.71,44.71,0,0,0-4.11-5.86A5.65,5.65,0,0,0,494.42,309ZM278.27,173.82c-2.32,0-4.65-.11-7,0-3,.18-6.06.46-9.07.86-2.32.3-3.26,1.6-3.3,3.94,0,1.82.93,3.17,2,4.52a18.56,18.56,0,0,1,2.48,3.5c1.35,3,2.55,6,3.65,9.12a15.9,15.9,0,0,1-.5,11.93c-.82,1.91-1.73,3.78-2.48,5.72-1.84,4.74-4.71,8.86-7.64,13a79.38,79.38,0,0,0-5.28,8.82,9,9,0,0,0-1,5.82,16,16,0,0,0,7.82,11.54,41.81,41.81,0,0,1,9,7,4.07,4.07,0,0,1,1.18,3.44c-.4,6.77,2,12.27,8,15.73a34.16,34.16,0,0,0,6.89,2.67c5.58,1.72,10.41,4.53,13.87,9.32a58.4,58.4,0,0,1,4.12,6.72,8.84,8.84,0,0,0,5.67,4.79c2.83.75,6.42,0,6.84-4.58a13.51,13.51,0,0,0-.32-3.79,36.46,36.46,0,0,0-4.31-11.14c-.95-1.66-1.84-3.37-2.9-5a5.8,5.8,0,0,1,1.6-7.67c.73-.49,1.49-.94,2.21-1.44a17.76,17.76,0,0,0,1.94-1.41c3.19-2.84,3.13-6.33-.21-8.95a21.32,21.32,0,0,0-3.25-2c-1.05-.56-2.23-.9-3.26-1.5a11.9,11.9,0,0,1-3.22-2.39,18,18,0,0,1-3.74-8.2c-1.51-8.2.78-15.36,6-21.65a18.6,18.6,0,0,1,6.43-5.31c7.27-3.31,11.6-9,13.65-16.61a17,17,0,0,0,.47-7.83c-.48-2.42-1.17-4.82-1.43-7.26a4.69,4.69,0,0,0-2.42-3.84,38.2,38.2,0,0,0-9.94-4.1A123,123,0,0,0,278.27,173.82Zm74.2,94.32a5.78,5.78,0,0,1,1.25,4.35c0,2.16-.16,4.31-.23,6.47a15.72,15.72,0,0,0,5.45,12.56,12.11,12.11,0,0,1,3.72,6,38,38,0,0,0,1.66,5.5c1.76,4,6.52,4.61,9,1a21.64,21.64,0,0,0,2.47-5.65,44.53,44.53,0,0,0,1-5.17c1.46-7.39,6-11.61,12.86-12.71a43.3,43.3,0,0,1,8.37-.1,9.94,9.94,0,0,1,7.2,3.83c1.58,1.81,1.85,4,2.15,6.23.35,2.61.51,5.26,1.05,7.83a20.64,20.64,0,0,0,2,5.61,4.31,4.31,0,0,0,7.73,0,8.12,8.12,0,0,0,.86-2c.54-2.33,1-4.68,1.47-7,.5-2.58,1-5.18,1.43-7.77a2.48,2.48,0,0,1,2.22-2.16c2-.4,3.25.17,4,2.07a60,60,0,0,1,3.32,13.21,7.81,7.81,0,0,0,.56,2.31,3.75,3.75,0,0,0,3.61,2.33c1.56,0,2.63-.88,3.15-2.78.42-1.53.56-3.13.86-4.7,1-5.28.08-10.65.84-16,.47-3.26,1.51-5.82,4.08-7.75a17.36,17.36,0,0,0,6.35-9.3,13.24,13.24,0,0,0-1.74-11.39,17.66,17.66,0,0,1-2.6-7.85,44.7,44.7,0,0,0-1.41-7.52,3.51,3.51,0,0,0-5.94-1.55,17.89,17.89,0,0,0-2.21,2.81c-.74,1-1.32,2.21-2.14,3.18a9.45,9.45,0,0,1-2.52,2.16c-1.44.8-2.76.68-3.55-1.07s-1.77-3.41-2.48-5.18c-.62-1.53-1.44-2.69-3.2-2.81s-2.73.82-3.61,2.25c-1.2,2-2.62,3.81-4,5.67-1.63,2.2-3.52,2.8-6.4,2.09a113.75,113.75,0,0,0-33.73-3.67c-11.54.62-22.1,4.08-31.35,11.17-1.59,1.21-3.13,2.49-4.73,3.67a74,74,0,0,0-20.1,22c-2.08,3.48-.64,6.38,3.39,6.81a7.89,7.89,0,0,0,3.32-.26,28.33,28.33,0,0,0,6.32-2.75c6-4,11.86-8.15,17.77-12.24C350.75,269.29,351.54,268.77,352.47,268.14Zm31.27-37.6c2.91,0,5.39,0,7.87,0a45.36,45.36,0,0,0,18.22-3.63,19.93,19.93,0,0,0,6.56-3.85,50.89,50.89,0,0,0,12.05-18,20,20,0,0,0,.75-11.79c-1.12-4.61-2.36-5.54-7.06-6a105.68,105.68,0,0,0-23.45.26,40.69,40.69,0,0,1-7.88.16c-5-.36-10-.92-15-1.49-11.19-1.29-22.38-2.65-33.57-3.94a11.91,11.91,0,0,0-3.32.07c-1.87.3-2.7,1.35-2.9,3.26a8.67,8.67,0,0,0,.94,5.08,16.13,16.13,0,0,1,1.91,10.88c-.82,4-1.49,8.11-4.71,11a25.83,25.83,0,0,1-5.29,4.07A38.2,38.2,0,0,0,318,225.58a21.85,21.85,0,0,0-4.29,6.28,17,17,0,0,0,.56,13.31c2.3,5.18,6.28,7.22,11.84,6.11a15.64,15.64,0,0,0,2.77-.79,33.31,33.31,0,0,0,14.68-10.81,60,60,0,0,0,3.68-5.32,7.86,7.86,0,0,1,4.81-3.7,37.24,37.24,0,0,1,13-1.45Zm148.7,4.59a9.18,9.18,0,0,1-1.4,1.17c-3.18,1.55-5.12,4.26-6.83,7.19s-.44,6.22,2.8,7a38,38,0,0,0,5.46.51,34.68,34.68,0,0,1,3.55.34c3,.57,5.22,2.45,7.17,4.56a23.45,23.45,0,0,0,11.17,6.67c3,.87,6,1.67,9,2.49a12.07,12.07,0,0,1,6.84,4.62A12.73,12.73,0,0,1,571.84,282c-1.08,2.77-2.56,5.17-5.84,5.77a8.46,8.46,0,0,0-2,.78,10.13,10.13,0,0,0-6.1,7.23,37.9,37.9,0,0,0-.65,4.25c-.31,2.62-.48,5.26-.85,7.87a14.66,14.66,0,0,1-4.67,9.19,35.85,35.85,0,0,0-4.25,4.55,70.43,70.43,0,0,0-5.39,7.62,11,11,0,0,0-.58,10.37,6.1,6.1,0,0,0,7.13,3.93,16.8,16.8,0,0,0,7.28-2.88,35.43,35.43,0,0,1,4.57-2.6,2.1,2.1,0,0,1,2.76.52c1.88,2,3.71,1.85,5.49-.26a18.59,18.59,0,0,0,2.37-3.59c2.65-5.37,5.23-10.78,7.82-16.18,1-2,1-2.08,3.22-2l2.16.06a6.14,6.14,0,0,0,5.94-2.89,29.43,29.43,0,0,0,2.44-5.17c.93-2.55,1.64-5.18,2.48-7.76a24.66,24.66,0,0,1,1-2.3c.8.65,1.36,1.08,1.89,1.54,2.77,2.41,5.9,1.88,7.79-1.34a23,23,0,0,0,2.72-8.88c.39-3,.63-6,1-9.06.19-1.6.7-2,2.21-1.53,1.13.35,2.19,1,3.3,1.4a3.41,3.41,0,0,0,4.86-2c.5-1.17,1-2.33,1.57-3.47,1-2,.36-4-1.71-4.73a12.94,12.94,0,0,0-4.2-.7c-3.67-.09-7.35,0-11,0-4.2,0-8-1.65-11.56-3.56a25.86,25.86,0,0,1-8.49-7.28c-3.15-4.12-5.67-8.54-5.73-13.93,0-3.75-.06-7.5.06-11.24a4,4,0,0,0-2-4,19.51,19.51,0,0,0-7.89-2.66c-2.38-.28-4.76-.59-7.15-.73-8.41-.51-16.79-.48-25.07,1.31a17.12,17.12,0,0,0-4.06,1.4c-2.07,1-2.48,3.11-1.18,5A14.47,14.47,0,0,0,532.44,235.13ZM48.72,486l0-.14c1.27-.06,2.55-.1,3.83-.18.63,0,1.27-.13,1.9-.23A144.54,144.54,0,0,0,91,475c9.4-4.16,18.28-9.18,25.93-16.18,2.89-2.64,5.94-5.09,8.91-7.64a29.62,29.62,0,0,0,2.49-2.24,5.24,5.24,0,0,0,.24-7.36,58.65,58.65,0,0,1-4.34-5.43c-2-3.34-3.64-6.86-3.4-11a17,17,0,0,0-.75-5.88c-1.25-4-3.46-5.48-8.15-3.49a9.93,9.93,0,0,0-3,2,41.83,41.83,0,0,0-4.64,5.15c-2,2.71-3.62,5.66-5.53,8.41-2.46,3.55-4.9,7.12-7.61,10.46a9.26,9.26,0,0,1-12.88,1.78c-3.46-2.45-6.92-4.9-10.48-7.2-5.64-3.64-11.3-7.23-18.14-8.32-3.63-.58-7.23-.72-10.64.62a70.2,70.2,0,0,0-8.58,4.2,13.7,13.7,0,0,0-7,11.13c-.35,3.41-.37,6.87-.39,10.3a42,42,0,0,0,3.76,17.21,18.07,18.07,0,0,0,3.39,4.87c1.94,2.1,4.25,3.85,6.2,5.94a9.88,9.88,0,0,0,5.63,2.94C44.26,485.68,46.51,485.79,48.72,486Zm478.13-277.9.28.38c-1.07,1.76-2.22,3.47-3.16,5.29a11.4,11.4,0,0,0-1.31,3.79c-.35,3.11,1.82,4.85,4.83,3.92a29.2,29.2,0,0,0,4.36-2c2.85-1.43,5.58-3.16,8.78-3.77a87.8,87.8,0,0,1,27-1.14c2.85.35,5.72.62,8.59.79,5,.31,10,.56,15.09.72a31.85,31.85,0,0,0,6.91-.25c6.47-1.21,12.32-3.24,15.93-9.67,4.63-8.26,6.66-16.86,5.53-26.24-.49-4-1-8.09-1.27-12.15a29.51,29.51,0,0,0-4.09-13.64c-3.5-5.75-5.24-12.15-6.91-18.58a3.36,3.36,0,0,1-.11-1.18c.29-2.43-1-3.91-3.72-4.39a26.34,26.34,0,0,0-10-.1,8.85,8.85,0,0,0-2,.66,3.4,3.4,0,0,0-1.44,5.06c1.06,1.87,2.09,3.76,3,5.7a11.33,11.33,0,0,1,.62,8.42A43.91,43.91,0,0,1,591,157c-4.49,8.72-11.47,14.4-21.09,16.67A207.26,207.26,0,0,0,547.82,180c-8.35,3-16.44,6.72-25.12,8.75a1.45,1.45,0,0,0-.22.09,3.31,3.31,0,0,0-.16,6.15,5,5,0,0,0,3.74.09c1-.3,2-.91,3.49-.51-.88.83-1.53,1.4-2.14,2-2.37,2.37-4.81,4.68-7.06,7.17-1.57,1.73-1.34,3.85.28,5a3.93,3.93,0,0,0,3.89.34C525.31,208.83,526.07,208.47,526.85,208.14ZM226.51,318a11,11,0,0,0-7.61,3.11,5.32,5.32,0,0,0-1.73,3.3,8.08,8.08,0,0,0,1,5.76c.68,1.08,1.14,2.29,1.77,3.4a28.57,28.57,0,0,0,1.92,3c1.35,1.78,2.76,3.51,4.17,5.25,1.75,2.17,3.39,4.46,5.32,6.48,7.57,7.91,15.17,15.8,23.34,23.11a36.52,36.52,0,0,0,7.8,5.53,9.77,9.77,0,0,0,7.9.82c5.55-2,9.7-5.61,11.33-11.46a43.41,43.41,0,0,0,1.41-8.48c.35-5.1.58-10.24-.71-15.27-1.44-5.65-3-11.26-4.48-16.91a15,15,0,0,1-.8-5.15,15.5,15.5,0,0,1,4-9.32c1.94-2,3.86-4.05,5.82-6s1.64-4.59-.89-5.67a27.66,27.66,0,0,0-6.17-1.81c-5.48-.93-10-3.22-12.77-8.26a22,22,0,0,0-5.69-6.09c-3.77-3.07-11.31-2.55-14.78.54A21.64,21.64,0,0,0,240,296c-1.2,5.54-2.42,11.08-3.88,16.56a18.65,18.65,0,0,1-2.64,5,2.59,2.59,0,0,1-3.17,1A31.22,31.22,0,0,0,226.51,318ZM458.56,186.83l0,.19c-1.51.07-3,.16-4.55.22s-3,.08-4.54.15c-3.26.14-5.7,3-3.85,6.12a4.62,4.62,0,0,1,.63,3c-.47,2.57-.82,5.3-2,7.58-2.17,4.26-4.91,8.22-7.35,12.35a11.7,11.7,0,0,0-1.39,3.28,5.7,5.7,0,0,0,4.73,7.07,11.85,11.85,0,0,0,5.9-.64,5.9,5.9,0,0,1,6.2,1.41c.87.81,1.61,1.76,2.4,2.65,1.59,1.79,3,3.73,4.77,5.34a8.35,8.35,0,0,0,8.43,2.09,27.55,27.55,0,0,0,4-1.49c3.1-1.48,6.11-3.14,9.23-4.58a41.77,41.77,0,0,1,6.9-2.69,7.92,7.92,0,0,1,9.1,4.4,28.59,28.59,0,0,0,3.17,5.34,8.78,8.78,0,0,0,11.68,1.77,23.43,23.43,0,0,0,4.6-3.81,8.54,8.54,0,0,0,1.86-3.79,11.85,11.85,0,0,0-2.49-9.91,56.53,56.53,0,0,0-4.73-5.41c-2.11-2.13-2.38-4.58-1.72-7.31.27-1.09.61-2.16.78-3.26a5.88,5.88,0,0,0-1.17-4.75,26.51,26.51,0,0,0-2.61-2.79c-3.45-3.17-3.51-3.75-.42-7.33a26.6,26.6,0,0,1,2.51-2.58,44.85,44.85,0,0,1,10.11-6.81c3.06-1.47,4.36-4.38,3.11-7.52a37.63,37.63,0,0,1-2.56-13.78c0-4.37-2.56-5.92-6.45-4a6.88,6.88,0,0,0-1.42.88,70.29,70.29,0,0,0-5.52,4.95c-5.18,5.55-10.22,11.24-15.38,16.81a21.47,21.47,0,0,1-3.69,3,31.2,31.2,0,0,1-17.08,4.56C466,187.4,462.3,187.07,458.56,186.83Zm-256.73,142c-.25-2.35-.46-4-.61-5.68-.24-2.47-1.75-4-3.65-5.35a3.59,3.59,0,0,0-4.47-.1,18.48,18.48,0,0,0-3.85,3.19c-3.85,5-8.07,9.73-11,15.4-1.2,2.34-2.31,4.75-3.67,7a12.91,12.91,0,0,1-3.21,3.78c-1.74,1.29-3.79,2.16-6,.67-3.6-2.46-7.18-2.11-10.78.07a93.1,93.1,0,0,0-14.89,11.64,40.47,40.47,0,0,0-7.33,9.43c-1.88,3.15-1.76,8.62,1.59,11.17,3.2,2.44,3.8,5,2.61,8.84a57.78,57.78,0,0,0-2.38,9.51c-.54,4.29-.46,8.6,2.52,12.29a5.55,5.55,0,0,1,1.07,5.41,13.43,13.43,0,0,0-.75,3.51,24.92,24.92,0,0,0,.19,6.41c.92,4.07,4.67,5.44,8.16,3.14a17,17,0,0,0,3.39-3c5.69-6.39,11.46-12.71,16.93-19.28a152.43,152.43,0,0,0,24.62-40.11c.78-1.91,1.92-3.69,2.75-5.59a51,51,0,0,0,2.62-6.65c1.71-6.16,3.29-12.36,4.81-18.56C201.15,333.44,201.48,330.82,201.83,328.86Zm-78.9,22.3c-.05-6.81-1.68-11.65-5.52-15.69-3.35-3.53-7.76-3.36-11-.11a38.85,38.85,0,0,0-4.63,5.47c-8.73,12.81-17.15,25.84-27,37.84-4.84,5.87-9.78,11.61-16.43,15.59a70,70,0,0,0-5.87,4.16,102.22,102.22,0,0,0-16.22,14.89c-2.18,2.54-1.15,5.54,2.15,6.05a11.94,11.94,0,0,0,4.5-.15c2.31-.58,4.53-1.53,6.78-2.33a19,19,0,0,1,9.61-1.33c5.06.81,9.07,3.43,12.58,6.94A22.1,22.1,0,0,0,80,427.88a12.32,12.32,0,0,0,4,.77A9.23,9.23,0,0,0,92,423.84a82.6,82.6,0,0,0,5.14-10,17.65,17.65,0,0,1,7.4-8.49c4.24-2.54,8.34-5.33,12.43-8.12a14.31,14.31,0,0,0,5.12-6.51c1.82-4.4.93-8.35-2.65-11.48-1.62-1.42-3.3-2.79-5-4.08a5.53,5.53,0,0,1-2.27-5.22,7.41,7.41,0,0,1,1.8-4.34c1.8-2.15,3.54-4.34,5.41-6.42C121.79,356.51,123.32,353.56,122.93,351.16Zm174.73,14.52c-.05,5,2.13,7.36,6.64,7a13.37,13.37,0,0,0,3.25-.7c4.67-1.63,9.16-1.45,13.24,1.48,2.19,1.57,4.14,3.49,6.2,5.26,3.08,2.66,5.24,2.49,8.09-.35A32.69,32.69,0,0,0,344.13,361c.8-4.15,1.62-8.31,2.24-12.49a36.67,36.67,0,0,0,.07-13.13,13.8,13.8,0,0,1,.44-7.57c.93-2.62,2.2-5.12,3.29-7.68A67.17,67.17,0,0,0,353,313a8.24,8.24,0,0,0-2.18-8.61c-1-1-1.92-1.93-2.9-2.86a4.61,4.61,0,0,1-1.46-2.92,21.58,21.58,0,0,0-1-4.42,5.29,5.29,0,0,0-5.4-3.58,15.65,15.65,0,0,0-4.62,1.09c-4.62,1.89-7.9,5.41-10.5,9.51s-4.69,8.18-7.13,12.21a50.77,50.77,0,0,1-4.05,5.63,5.67,5.67,0,0,1-5.8,2,18.66,18.66,0,0,1-6.77-2.28,48.12,48.12,0,0,0-4.87-2.58,7.11,7.11,0,0,0-8.77,2.78,9,9,0,0,0,.3,9.95c1.93,3,4,5.94,6.06,8.91a18.58,18.58,0,0,1,1.38,2.25c2.7,5.73,4.37,11.67,3.41,18.1C298.34,360.9,298,363.58,297.66,365.68Zm85,1.28c4.17-.26,9-.4,13.64-1.62,2.53-.66,4.23-1.94,4.77-4.71.48-2.5,1.28-4.94,2-7.39a12.16,12.16,0,0,1,7.25-8.09c2.07-.86,4.1-1.79,6.18-2.61a43.14,43.14,0,0,0,13.07-8.3c4.74-4.25,3.87-13.7-2.19-16.9-4.27-2.25-8.46-2.8-12.64.16-.39.28-.83.49-1.22.76a7.75,7.75,0,0,1-4.09,1.1c-3.37.19-5.76-1.53-8-3.71a5.77,5.77,0,0,1-2-5.17,36.27,36.27,0,0,1,1.75-6.91c1.62-4.22.2-8.28-3.94-9.89a11.08,11.08,0,0,0-8.64.17c-3.1,1.35-4.9,4.91-4.86,8.66a23.06,23.06,0,0,1-.6,6.16c-1.34,5-4.54,8.38-10.08,8.7a16.71,16.71,0,0,0-6.23,1.54c-4.25,2.07-7.65,5-7.69,10.31,0,.72-.15,1.43-.21,2.15-.64,6.92-1.32,13.84-3.4,20.53-.62,2-1.21,4-1.74,6-.75,2.78.4,4.42,3.23,5s5.62,1.19,8.4,1.94A72.49,72.49,0,0,0,382.71,367Zm168.75-87.07c-.13-3.74-1.11-6.55-3.62-8.62-6.05-5-12.67-8.94-20.46-10.52-5.63-1.15-11.29-2.24-17-3.06A32.65,32.65,0,0,1,489.14,246a9.46,9.46,0,0,0-9.7-3.29,13.14,13.14,0,0,0-5.79,2.73,22.48,22.48,0,0,0-5.84,8.1c-1.79,3.78.2,6.93,4.37,7.12a20.4,20.4,0,0,1,12.91,4.89c4.07,3.46,8.5,6.51,12.18,10.44a7.66,7.66,0,0,1,1.67,2.28c1.05,2.73,1.61,5.52.39,8.39-.52,1.25-.92,2.55-1.37,3.83a5.51,5.51,0,0,0,2.22,6.87,13.3,13.3,0,0,1,1.47,1.23c4.1,3.8,8.22,7.59,12.27,11.45a25,25,0,0,1,6.46,8.82,15.84,15.84,0,0,0,1.9,3.31c1.59,2.22,3.82,2.71,6.37,2.09a12.25,12.25,0,0,0,5.67-3.46c6.45-6.44,10.79-14.11,12.1-23.16a31.87,31.87,0,0,1,2.6-9.34,33.25,33.25,0,0,0,1.77-5A34.12,34.12,0,0,0,551.46,279.89ZM527.09,135.73h.38c0,1.12,0,2.24,0,3.36a92.78,92.78,0,0,0,1,17,41.38,41.38,0,0,0,4,12.52c1,1.87,2.38,3.42,4.53,3.54,3.89.22,7.78.51,11.66-.62a54.49,54.49,0,0,0,18.87-9.64c2.32-1.84,4.62-3.72,7.07-5.37,3.59-2.43,5.87-5.83,7.67-9.63a10.56,10.56,0,0,0-.63-11,72.73,72.73,0,0,0-5.29-6.49c-1.45-1.7-3-3.35-4.47-5-2.49-2.7-5-5.37-7.5-8.07s-5.21-5.24-7.33-8.2A50.25,50.25,0,0,0,542.6,94.63a11.38,11.38,0,0,0-6.8-1.94,6.31,6.31,0,0,0-5.25,2.86,14.57,14.57,0,0,0-2.4,5.7,38.51,38.51,0,0,0-.57,5.24c-.11,4.16-.05,8.32-.12,12.47C527.37,124.55,527.22,130.14,527.09,135.73ZM484.4,289.1c0-5.52-2.16-9.64-6.77-12.47a11.19,11.19,0,0,0-4.49-1.48c-3-.36-5.24,1.33-6.73,3.76-2.43,3.94-4.69,8-6.93,12a45.7,45.7,0,0,1-8.58,11.16c-2.15,2-4.34,4-6.4,6.13a7.66,7.66,0,0,0-2.08,7.05c.48,2.81,1.77,5.28,2.81,7.87,2.49,6.19.79,14.3-6.22,17.58a120.69,120.69,0,0,0-15.9,9.33,30.29,30.29,0,0,0-10.06,11.33,3.26,3.26,0,0,0,2.52,5c.94.16,1.9.22,2.85.37a88.73,88.73,0,0,0,30.28-.34,30,30,0,0,1,11.67.05,4.86,4.86,0,0,0,6.18-4.58,241.71,241.71,0,0,1,5.79-38.6c1.56-7,3.27-13.94,7.58-20A24.42,24.42,0,0,0,484.4,289.1ZM292.63,385.79c-.86-1.34-1.42-2.31-2.07-3.21-2.11-2.92-4.63-3.69-8-2.41a20.16,20.16,0,0,0-7.18,4.68,7.11,7.11,0,0,0-1.17,8.41,24,24,0,0,0,1.29,2,6,6,0,0,1,.35,6.91,47.3,47.3,0,0,0-3.88,9c-1.41,4.53-2,9.14-.61,13.92A49.49,49.49,0,0,0,277,437.49c3.26,5.38,7.42,10,11.47,14.74,3.3,3.83,8.22,4.11,12.27,1.12.58-.43,1.14-.88,1.74-1.27,3.12-2.06,4.6-2,7.62.25a32.15,32.15,0,0,0,4.46,2.77,5.74,5.74,0,0,0,4.16.73c2.95-.79,4.38-3.29,3.73-6.52a13.81,13.81,0,0,0-3-5.69,27.21,27.21,0,0,1-4-7.31,53.45,53.45,0,0,0-2.38-5.23c-1.69-3.36-3.41-6.69-5.16-10-1.53-2.9-1.35-5.74-.19-8.77,2.29-6,6.76-10.41,10.78-15.13a11.11,11.11,0,0,0,3.07-7,10.18,10.18,0,0,0-9.76-10.59,25.63,25.63,0,0,0-15,4.08C295.49,384.41,294.12,385,292.63,385.79Zm264,101.57a34.18,34.18,0,0,1-3.43-.18c-1.89-.28-3.82-.49-5.34-1.88a34.68,34.68,0,0,0-14.2-7.66,8.6,8.6,0,0,1-2-.69,11.66,11.66,0,0,1-2.59-2c-2.76-3.05-4.1-6.82-5-10.75a92.87,92.87,0,0,1-2-13.92,49.25,49.25,0,0,1,.56-11.2,15.22,15.22,0,0,0,.16-1.91,4.22,4.22,0,0,0-2.87-4.49c-1.81-.79-3.27-.16-4.53,1.15a12.43,12.43,0,0,0-1.68,2c-2.8,4.46-5.49,9-8.35,13.41a27.73,27.73,0,0,1-3.77,4.6c-1.45,1.45-3.21,2.11-5.17.73a3.85,3.85,0,0,0-1.33-.52,3.35,3.35,0,0,0-4.4,3.35,6.33,6.33,0,0,0,.24,1.89c.44,1.54,1,3.05,1.43,4.57q2.61,8.34,5.23,16.68a22.34,22.34,0,0,0,3.7,7.19c2.57,3.3,6,5.46,9.31,7.85a37.52,37.52,0,0,0,12.75,6,104,104,0,0,0,20.81,3.2c9,.51,18.07-.26,27.08.73a5.69,5.69,0,0,0,4.9-2.06,8.42,8.42,0,0,0-.93-12c-4.11-3.57-9-4.68-14.28-4.39C559.46,487.14,558,487.26,556.67,487.36Zm-303.7-99c-.56-2.06-.68-4.41-1.78-6.11a55.88,55.88,0,0,0-7.06-8.72c-3.53-3.58-7.54-6.68-11.09-10.24A93.14,93.14,0,0,1,217.52,343c-1.86-3.31-5-3.43-7.13-.23-1.36,2.07-2.7,4.16-4.07,6.22a39.18,39.18,0,0,0-4.86,10.12,19.12,19.12,0,0,0-.65,9.94A51.13,51.13,0,0,0,205,381c1.7,3.35,3,6.88,4.73,10.21,1.53,3,1.59,5.74-.24,8.58a3.22,3.22,0,0,0,.17,4,3.54,3.54,0,0,0,3.67,1.18,3.43,3.43,0,0,1,2.26.25,8.86,8.86,0,0,1,3.76,4.2c1.31,3.51,2.78,7,4.31,10.4a14.86,14.86,0,0,0,2.41,4.1c2.77,3,6.16,3.05,8.46-.82a14.52,14.52,0,0,0,1.5-4,15.36,15.36,0,0,1,2.36-5.19c3.44-4.91,6.86-9.84,10.16-14.84C250.66,395.82,252.66,392.51,253,388.35Zm201.45,99.39c2.35-.13,5-.36,7.61-.4a61.07,61.07,0,0,1,20.71,3.39c2.41.83,4.62.59,6.42-1.25s1.07-3.87.39-5.85c-.57-1.66-1.27-3.27-1.94-4.9a9.75,9.75,0,0,0-4.37-4.93,17.86,17.86,0,0,0-10.13-2.36c-2.15.17-4.32.23-6.44.6a15.12,15.12,0,0,1-14.2-4.49c-1.78-1.81-3.42-3.77-5.16-5.63a10.06,10.06,0,0,1-2.6-9.3c.43-2.19,1.15-4.32,1.64-6.49.6-2.65,1.19-5.3,1.6-8a3,3,0,0,0-2-3.25,3.28,3.28,0,0,0-3.92.86,22.83,22.83,0,0,0-1.42,1.93,38.13,38.13,0,0,1-8.78,9.1,7.85,7.85,0,0,1-6.81,1.19,19.1,19.1,0,0,1-10.62-7,3.44,3.44,0,0,0-3.81-1.35,3.31,3.31,0,0,0-2.44,3.21c-.25,2.46-.47,4.93-.69,7.39a12.73,12.73,0,0,0,2.15,8,47.9,47.9,0,0,0,3.31,4.7c2.51,3.1,5.09,6.15,7.7,9.16,1.67,1.93,3.48,3.73,5.17,5.64,1.05,1.2,1.94,2.54,3,3.74,2.73,3.08,5.92,5.37,10.22,5.58Zm9.16-101.25c.06-5-2.92-10.42-8.45-10.81-5-.34-10-.82-15-1.23a3.64,3.64,0,0,0-3.16,1.39c-1.8,2-3.7,4-5.34,6.15-8.41,11-14,23.38-17.8,36.63-.67,2.37-1.06,4.82-1.51,7.25a4.37,4.37,0,0,0,1.25,3.71,57.59,57.59,0,0,1,4.7,6.3c1.54,2.47,3.6,3.3,6.25,2a24.21,24.21,0,0,1,3.84-1.93,16.19,16.19,0,0,0,6.13-3.62c1.89-1.59,3.65-3.35,5.58-4.89,2.8-2.24,5.73-4.32,8.55-6.54a9.18,9.18,0,0,0,2.06-2.29,105,105,0,0,0,12.49-29.42A22.14,22.14,0,0,0,463.58,386.49ZM285,483.06c2-.1,3.55-.08,5.06-.26a3.41,3.41,0,0,0,3.27-3.26,42.39,42.39,0,0,0,.39-4.78,8.2,8.2,0,0,0-2.65-6.2c-5.21-5.14-11.5-6.86-18.67-6.23-3.25.29-6.54.18-9.81.19a6.85,6.85,0,0,1-5.73-2.91c-3-3.94-6.09-7.82-9.17-11.71-1.64-2.06-3.26-4.16-5-6.11a10.74,10.74,0,0,0-9.44-3.74,25.84,25.84,0,0,1-3.83.16,9.66,9.66,0,0,1-8.89-5.87c-.59-1.3-.93-2.71-1.41-4.06-.91-2.56-1.66-5.19-2.8-7.64-1.71-3.67-4.35-4.78-8.45-4.48a6,6,0,0,0-3.4,1.54,9.15,9.15,0,0,0-3,5.86,16.31,16.31,0,0,0,4.59,12.72c5.72,6.14,11.5,12.27,17.73,17.87,8.92,8,18.18,15.66,26.45,24.39a6.2,6.2,0,0,0,1.76,1.21c5.31,2.75,11,3.24,16.8,2.48a31.62,31.62,0,0,1,10.27.16C281.16,482.81,283.34,482.88,285,483.06ZM662.6,105.42a18.62,18.62,0,0,0-1.46-4.29c-1.74-2.87-4.65-3.27-7.62-2.53A28.2,28.2,0,0,0,644,103c-2,1.44-4,3-6,4.4a58.42,58.42,0,0,0-20.2,24.48,6.92,6.92,0,0,0-.22,5.51,26.87,26.87,0,0,0,7.67,10.85c5.21,4.66,11.11,8.37,16.92,12.18,2.75,1.8,5.75.93,7.26-2a17,17,0,0,0,1.38-3.57q2-7.64,4-15.32,2.07-8.25,4-16.54,1.56-6.51,3-13C662.11,108.61,662.28,107.26,662.6,105.42ZM640.72,227.71a20.57,20.57,0,0,1,11.3,3.61c1.5,1.06,3.1,2,4.69,2.9a3.52,3.52,0,0,0,4.76-.65,3.67,3.67,0,0,0,.13-5,16.75,16.75,0,0,0-1.55-1.82,19.7,19.7,0,0,1-4.7-8.47,23.9,23.9,0,0,1-.83-9.92c.67-5.27,1.7-10.51,1.28-15.91-.58-7.44-3.13-13.69-9.71-17.73a74.74,74.74,0,0,0-7-3.61c-1.5-.73-3.1-1.26-4.6-2-2.94-1.43-5.72.06-5.7,3.32a63.09,63.09,0,0,0,.74,7.35c.31,2.45,1.12,4.91,1,7.33-.59,10.32-3.87,19.71-10.57,27.72a24.11,24.11,0,0,1-3.93,3.46c-1,.77-2.22,1.27-3.27,2-1.65,1.13-3,2.6-2.72,4.73s1.71,3.34,3.68,4c.31.1.61.22.92.29,2.1.46,4.19,1,6.32,1.33a13.59,13.59,0,0,0,4.27,0c3.22-.55,6.4-1.36,9.61-2C636.77,228.22,638.75,228,640.72,227.71ZM374.46,501.79c1.31-.17,2.28-.21,3.2-.42,5-1.16,6.57-4.65,4.13-9.19a6,6,0,0,1-1-1.91c-.28-2.75-2-4.62-3.74-6.49a14.47,14.47,0,0,0-11.91-4.55c-5.49.34-11,1-16.45,1.54a4.47,4.47,0,0,1-3.74-1.09c-1.14-1-2.46-1.78-3.63-2.75a39.82,39.82,0,0,1-5-4.41,15.69,15.69,0,0,0-10.08-5.45,21,21,0,0,1-3.05-.58c-4.38-1.3-8.68-2.76-12.33-5.66a6,6,0,0,0-4.76-1.1,5.12,5.12,0,0,0-3.64,8.25A9,9,0,0,0,304,469.5c7.17,5.87,14.41,11.67,21.5,17.63a83.16,83.16,0,0,1,6,6.16c.66.68,1.25,1.62,2.07,1.95,3.76,1.53,7.44,3.3,11.5,4s7.8,0,11.66-.65a7.08,7.08,0,0,1,2.37-.16c2.81.56,5.6,1.25,8.4,1.86C369.94,500.83,372.36,501.34,374.46,501.79ZM588.94,239.57a16.2,16.2,0,0,0,4.54,11,27.1,27.1,0,0,0,14.35,8.21c8.49,1.93,17.06,3.53,25.6,5.23,6.26,1.24,12.54,2.42,18.82,3.58a22.14,22.14,0,0,0,3.81.36,3.23,3.23,0,0,0,3.3-4.51,8,8,0,0,0-1.87-3.3c-3-2.55-4.48-6.21-7-9.08a10.42,10.42,0,0,1-1.51-3.48c-.31-.9-.42-1.87-.67-2.79-1-3.86-3.45-5.05-6.84-5.21A19.58,19.58,0,0,0,633,241a14.89,14.89,0,0,1-13.83-.9c-7.66-4.63-16.3-5.92-24.74-7.94a3.22,3.22,0,0,0-4.07,2.16A41,41,0,0,0,588.94,239.57Zm77.51,1.86a38.68,38.68,0,0,0-5,1.14c-4.35,1.56-4.37,6.25-2.15,8.8,1,1.07,1.76,2.27,2.64,3.4,1.77,2.28,4.17,2.3,6,0a26.44,26.44,0,0,0,2-2.41,25.73,25.73,0,0,0,2.59-4.55c1.08-2.88-.35-5.28-3.32-6C668.41,241.71,667.62,241.62,666.45,241.43Z" transform="translate(-0.48 -0.48)"/><path class="cls-1" d="M177.45,210c.15-1.84.24-3.76.47-5.66a11.87,11.87,0,0,1,4.18-7.6,54.41,54.41,0,0,1,10.5-7.53c5.09-2.69,10.18-5.39,15.38-7.83A71.49,71.49,0,0,1,231.22,175c4.64-.46,9.06.7,13.32,2.41a6.05,6.05,0,0,1,2.44,2.2c3.31,4.74,6.19,9.68,7.09,15.56s.54,11.71-2.65,17.13a164.87,164.87,0,0,1-16.55,23.21,9.71,9.71,0,0,0-2.05,9.8,5.94,5.94,0,0,0,2,3.14q5,4,9.78,8.12a7.68,7.68,0,0,1,2.15,9.15,25.85,25.85,0,0,1-3.75,5.5c-3,3.5-6.33,6.77-9.38,10.26-3.87,4.42-6,9.78-7.76,15.28-.89,2.74-1.75,5.49-2.75,8.18a9.78,9.78,0,0,1-5.08,5.79,7.58,7.58,0,0,1-7.76-.31,12.88,12.88,0,0,1-5-5.67c-2.73-6.05-5.44-12.11-7.05-18.58-.6-2.4-1.1-4.82-1.7-7.23-2-8.21-3.92-16.47-6.18-24.62-1.26-4.53-3.23-8.86-4.76-13.31-1.8-5.29-3.49-10.62-5.2-15.94-.52-1.6-.95-3.22-1.4-4.84a41.35,41.35,0,0,1-1.27-4.86A51.48,51.48,0,0,1,177.45,210Z" transform="translate(-0.48 -0.48)"/><path class="cls-1" d="M112.78,302.21a56.77,56.77,0,0,1,7-29.74,222.36,222.36,0,0,1,14.38-22.67c4.44-6.36,9-12.66,13.7-18.81,4-5.19,8-10.4,13-14.68a4.6,4.6,0,0,1,3-1.39c2.34,0,3.82,1.34,4.08,3.79.44,4,.7,8.13,1.4,12.14a61.77,61.77,0,0,0,2.77,10.9c2.87,7.67,4.7,15.6,6.51,23.54a26.41,26.41,0,0,0,3,7.79c3.92,6.57,6.47,13.7,8.75,21a11.16,11.16,0,0,1-4,12.57A23.61,23.61,0,0,0,177,321.44a20.84,20.84,0,0,1-3.62,8,12.44,12.44,0,0,1-2.53,2.49,3.55,3.55,0,0,1-4.45.29,4.16,4.16,0,0,1-2.16-4.22,19.33,19.33,0,0,0-1.06-8c-.52-1.8-1.19-2.1-3.06-1.8a5.24,5.24,0,0,0-4,2.72q-3.61,6.49-7.44,12.88a36.19,36.19,0,0,1-3.86,5.47,7.75,7.75,0,0,1-8.48,2.4,3.75,3.75,0,0,1-2.79-2.4c-.73-2.28-1.35-4.59-2-6.89a51.43,51.43,0,0,0-1.34-5.09A15,15,0,0,0,123,319a61.83,61.83,0,0,1-6.54-4,7.58,7.58,0,0,1-3.65-7.32C112.91,305.89,112.78,304,112.78,302.21Z" transform="translate(-0.48 -0.48)"/><path class="cls-1" d="M494.42,309a5.65,5.65,0,0,1,4.31,1.83,44.71,44.71,0,0,1,4.11,5.86c1.94,3.48,3.66,7.1,5.41,10.69a18.77,18.77,0,0,0,4.52,6.1c2.68,2.34,5.34,4.55,9,5.25,4.13.79,6.38,3.46,7.63,7.39a23.12,23.12,0,0,0,3,5.4,3.82,3.82,0,0,0,1.93,1.31,48,48,0,0,0,5.3,1.4c1.69.35,3.09,1,3.54,2.79a3.46,3.46,0,0,1-1.91,4,55.69,55.69,0,0,1-5.87,3.21c-2.87,1.27-5.61,2.62-7.74,5.06a10.17,10.17,0,0,0-2.59,5.28,195.82,195.82,0,0,0-2.24,27.47c0,4.32-.28,8.63-.57,12.94a13.77,13.77,0,0,1-1,3.67,3.67,3.67,0,0,1-3.65,2.61,4.78,4.78,0,0,0-3.75,1.81c-3.56,4-7.28,7.87-10.54,12.11-1.86,2.43-3,5.45-4.38,8.22-.33.64-.51,1.35-.86,2a4.38,4.38,0,0,1-6.59,1.43,19.16,19.16,0,0,1-4.14-4.58c-7-11.48-10.39-24.18-12.16-37.35a141.92,141.92,0,0,1,.28-36.37c.89-7.21,1.36-14.48,2.1-21.72s1.49-14.3,2.42-21.43a27.27,27.27,0,0,1,3.92-10.5C485.73,311.92,490.76,309.05,494.42,309Z" transform="translate(-0.48 -0.48)"/><path class="cls-1" d="M278.27,173.82a123,123,0,0,1,32.53,3.79,38.2,38.2,0,0,1,9.94,4.1,4.69,4.69,0,0,1,2.42,3.84c.26,2.44.95,4.84,1.43,7.26a17,17,0,0,1-.47,7.83c-2.05,7.59-6.38,13.3-13.65,16.61a18.6,18.6,0,0,0-6.43,5.31c-5.23,6.29-7.52,13.45-6,21.65a18,18,0,0,0,3.74,8.2A11.9,11.9,0,0,0,305,254.8c1,.6,2.21.94,3.26,1.5a21.32,21.32,0,0,1,3.25,2c3.34,2.62,3.4,6.11.21,8.95a17.76,17.76,0,0,1-1.94,1.41c-.72.5-1.48.95-2.21,1.44a5.8,5.8,0,0,0-1.6,7.67c1.06,1.6,2,3.31,2.9,5a36.46,36.46,0,0,1,4.31,11.14,13.51,13.51,0,0,1,.32,3.79c-.42,4.53-4,5.33-6.84,4.58a8.84,8.84,0,0,1-5.67-4.79,58.4,58.4,0,0,0-4.12-6.72c-3.46-4.79-8.29-7.6-13.87-9.32a34.16,34.16,0,0,1-6.89-2.67c-6-3.46-8.38-9-8-15.73a4.07,4.07,0,0,0-1.18-3.44,41.81,41.81,0,0,0-9-7A16,16,0,0,1,250.09,241a9,9,0,0,1,1-5.82,79.38,79.38,0,0,1,5.28-8.82c2.93-4.11,5.8-8.23,7.64-13,.75-1.94,1.66-3.81,2.48-5.72a15.9,15.9,0,0,0,.5-11.93c-1.1-3.09-2.3-6.14-3.65-9.12a18.56,18.56,0,0,0-2.48-3.5c-1-1.35-2-2.7-2-4.52,0-2.34,1-3.64,3.3-3.94,3-.4,6-.68,9.07-.86C273.62,173.71,276,173.82,278.27,173.82Z" transform="translate(-0.48 -0.48)"/><path class="cls-1" d="M352.47,268.14c-.93.63-1.72,1.15-2.49,1.69-5.91,4.09-11.76,8.28-17.77,12.24a28.33,28.33,0,0,1-6.32,2.75,7.89,7.89,0,0,1-3.32.26c-4-.43-5.47-3.33-3.39-6.81a74,74,0,0,1,20.1-22c1.6-1.18,3.14-2.46,4.73-3.67,9.25-7.09,19.81-10.55,31.35-11.17a113.75,113.75,0,0,1,33.73,3.67c2.88.71,4.77.11,6.4-2.09,1.37-1.86,2.79-3.7,4-5.67.88-1.43,1.88-2.38,3.61-2.25s2.58,1.28,3.2,2.81c.71,1.77,1.69,3.43,2.48,5.18s2.11,1.87,3.55,1.07a9.45,9.45,0,0,0,2.52-2.16c.82-1,1.4-2.14,2.14-3.18a17.89,17.89,0,0,1,2.21-2.81,3.51,3.51,0,0,1,5.94,1.55,44.7,44.7,0,0,1,1.41,7.52,17.66,17.66,0,0,0,2.6,7.85,13.24,13.24,0,0,1,1.74,11.39,17.36,17.36,0,0,1-6.35,9.3c-2.57,1.93-3.61,4.49-4.08,7.75-.76,5.34.18,10.71-.84,16-.3,1.57-.44,3.17-.86,4.7-.52,1.9-1.59,2.74-3.15,2.78a3.75,3.75,0,0,1-3.61-2.33,7.81,7.81,0,0,1-.56-2.31A60,60,0,0,0,428.11,287c-.74-1.9-2-2.47-4-2.07a2.48,2.48,0,0,0-2.22,2.16c-.44,2.59-.93,5.19-1.43,7.77-.46,2.35-.93,4.7-1.47,7a8.12,8.12,0,0,1-.86,2,4.31,4.31,0,0,1-7.73,0,20.64,20.64,0,0,1-2-5.61c-.54-2.57-.7-5.22-1.05-7.83-.3-2.22-.57-4.42-2.15-6.23a9.94,9.94,0,0,0-7.2-3.83,43.3,43.3,0,0,0-8.37.1c-6.87,1.1-11.4,5.32-12.86,12.71a44.53,44.53,0,0,1-1,5.17,21.64,21.64,0,0,1-2.47,5.65c-2.47,3.61-7.23,3-9-1a38,38,0,0,1-1.66-5.5,12.11,12.11,0,0,0-3.72-6A15.72,15.72,0,0,1,353.49,279c.07-2.16.22-4.31.23-6.47A5.78,5.78,0,0,0,352.47,268.14Z" transform="translate(-0.48 -0.48)"/><path class="cls-1" d="M383.74,230.54,365,229.21a37.24,37.24,0,0,0-13,1.45,7.86,7.86,0,0,0-4.81,3.7,60,60,0,0,1-3.68,5.32,33.31,33.31,0,0,1-14.68,10.81,15.64,15.64,0,0,1-2.77.79c-5.56,1.11-9.54-.93-11.84-6.11a17,17,0,0,1-.56-13.31,21.85,21.85,0,0,1,4.29-6.28,38.2,38.2,0,0,1,10.88-8.91,25.83,25.83,0,0,0,5.29-4.07c3.22-2.94,3.89-7,4.71-11a16.13,16.13,0,0,0-1.91-10.88,8.67,8.67,0,0,1-.94-5.08c.2-1.91,1-3,2.9-3.26a11.91,11.91,0,0,1,3.32-.07c11.19,1.29,22.38,2.65,33.57,3.94,5,.57,10,1.13,15,1.49a40.69,40.69,0,0,0,7.88-.16,105.68,105.68,0,0,1,23.45-.26c4.7.47,5.94,1.4,7.06,6a20,20,0,0,1-.75,11.79,50.89,50.89,0,0,1-12.05,18,19.93,19.93,0,0,1-6.56,3.85,45.36,45.36,0,0,1-18.22,3.63C389.13,230.52,386.65,230.54,383.74,230.54Z" transform="translate(-0.48 -0.48)"/><path class="cls-1" d="M532.44,235.13a14.47,14.47,0,0,1-1-1.12c-1.3-1.94-.89-4,1.18-5a17.12,17.12,0,0,1,4.06-1.4c8.28-1.79,16.66-1.82,25.07-1.31,2.39.14,4.77.45,7.15.73a19.51,19.51,0,0,1,7.89,2.66,4,4,0,0,1,2,4c-.12,3.74-.1,7.49-.06,11.24.06,5.39,2.58,9.81,5.73,13.93a25.86,25.86,0,0,0,8.49,7.28c3.61,1.91,7.36,3.53,11.56,3.56,3.68,0,7.36-.08,11,0a12.94,12.94,0,0,1,4.2.7c2.07.77,2.67,2.75,1.71,4.73-.55,1.14-1.07,2.3-1.57,3.47a3.41,3.41,0,0,1-4.86,2c-1.11-.44-2.17-1.05-3.3-1.4-1.51-.46-2-.07-2.21,1.53-.34,3-.58,6-1,9.06a23,23,0,0,1-2.72,8.88c-1.89,3.22-5,3.75-7.79,1.34-.53-.46-1.09-.89-1.89-1.54a24.66,24.66,0,0,0-1,2.3c-.84,2.58-1.55,5.21-2.48,7.76a29.43,29.43,0,0,1-2.44,5.17,6.14,6.14,0,0,1-5.94,2.89l-2.16-.06c-2.23-.08-2.25,0-3.22,2-2.59,5.4-5.17,10.81-7.82,16.18a18.59,18.59,0,0,1-2.37,3.59c-1.78,2.11-3.61,2.23-5.49.26a2.1,2.1,0,0,0-2.76-.52,35.43,35.43,0,0,0-4.57,2.6,16.8,16.8,0,0,1-7.28,2.88,6.1,6.1,0,0,1-7.13-3.93,11,11,0,0,1,.58-10.37,70.43,70.43,0,0,1,5.39-7.62,35.85,35.85,0,0,1,4.25-4.55,14.66,14.66,0,0,0,4.67-9.19c.37-2.61.54-5.25.85-7.87a37.9,37.9,0,0,1,.65-4.25,10.13,10.13,0,0,1,6.1-7.23,8.46,8.46,0,0,1,2-.78c3.28-.6,4.76-3,5.84-5.77a12.73,12.73,0,0,0-1.64-12.31,12.07,12.07,0,0,0-6.84-4.62c-3-.82-6-1.62-9-2.49a23.45,23.45,0,0,1-11.17-6.67c-2-2.11-4.2-4-7.17-4.56a34.68,34.68,0,0,0-3.55-.34,38,38,0,0,1-5.46-.51c-3.24-.75-4.49-4.06-2.8-7s3.65-5.64,6.83-7.19A9.18,9.18,0,0,0,532.44,235.13Z" transform="translate(-0.48 -0.48)"/><path class="cls-1" d="M48.72,486c-2.21-.25-4.46-.36-6.64-.78a9.88,9.88,0,0,1-5.63-2.94c-2-2.09-4.26-3.84-6.2-5.94a18.07,18.07,0,0,1-3.39-4.87A42,42,0,0,1,23.1,454.3c0-3.43,0-6.89.39-10.3a13.7,13.7,0,0,1,7-11.13,70.2,70.2,0,0,1,8.58-4.2c3.41-1.34,7-1.2,10.64-.62,6.84,1.09,12.5,4.68,18.14,8.32,3.56,2.3,7,4.75,10.48,7.2a9.26,9.26,0,0,0,12.88-1.78c2.71-3.34,5.15-6.91,7.61-10.46,1.91-2.75,3.56-5.7,5.53-8.41a41.83,41.83,0,0,1,4.64-5.15,9.93,9.93,0,0,1,3-2c4.69-2,6.9-.52,8.15,3.49a17,17,0,0,1,.75,5.88c-.24,4.16,1.36,7.68,3.4,11a58.65,58.65,0,0,0,4.34,5.43,5.24,5.24,0,0,1-.24,7.36,29.62,29.62,0,0,1-2.49,2.24c-3,2.55-6,5-8.91,7.64-7.65,7-16.53,12-25.93,16.18a144.54,144.54,0,0,1-36.53,10.47c-.63.1-1.27.19-1.9.23-1.28.08-2.56.12-3.83.18Z" transform="translate(-0.48 -0.48)"/><path class="cls-1" d="M526.85,208.14c-.78.33-1.54.69-2.33,1a3.93,3.93,0,0,1-3.89-.34c-1.62-1.19-1.85-3.31-.28-5,2.25-2.49,4.69-4.8,7.06-7.17.61-.61,1.26-1.18,2.14-2-1.53-.4-2.5.21-3.49.51a5,5,0,0,1-3.74-.09,3.31,3.31,0,0,1,.16-6.15,1.45,1.45,0,0,1,.22-.09c8.68-2,16.77-5.76,25.12-8.75a207.26,207.26,0,0,1,22.12-6.31c9.62-2.27,16.6-7.95,21.09-16.67a43.91,43.91,0,0,0,2.66-7.19,11.33,11.33,0,0,0-.62-8.42c-.92-1.94-2-3.83-3-5.7a3.4,3.4,0,0,1,1.44-5.06,8.85,8.85,0,0,1,2-.66,26.34,26.34,0,0,1,10,.1c2.72.48,4,2,3.72,4.39a3.36,3.36,0,0,0,.11,1.18c1.67,6.43,3.41,12.83,6.91,18.58a29.51,29.51,0,0,1,4.09,13.64c.27,4.06.78,8.11,1.27,12.15,1.13,9.38-.9,18-5.53,26.24-3.61,6.43-9.46,8.46-15.93,9.67a31.85,31.85,0,0,1-6.91.25c-5-.16-10.07-.41-15.09-.72-2.87-.17-5.74-.44-8.59-.79a87.8,87.8,0,0,0-27,1.14c-3.2.61-5.93,2.34-8.78,3.77a29.2,29.2,0,0,1-4.36,2c-3,.93-5.18-.81-4.83-3.92a11.4,11.4,0,0,1,1.31-3.79c.94-1.82,2.09-3.53,3.16-5.29Zm73.47-7c1.5-.19,3-.26,4.51-.57a5.61,5.61,0,0,0,4.46-5,6.09,6.09,0,0,0-3-6.24,14,14,0,0,0-3.84-1.22,19.64,19.64,0,0,0-8.72,1.08,3.64,3.64,0,0,0-1.6,1,5.79,5.79,0,0,0,1.54,9.06A12.5,12.5,0,0,0,600.32,201.1Z" transform="translate(-0.48 -0.48)"/><path class="cls-1" d="M226.51,318a31.22,31.22,0,0,1,3.77.64,2.59,2.59,0,0,0,3.17-1,18.65,18.65,0,0,0,2.64-5c1.46-5.48,2.68-11,3.88-16.56a21.64,21.64,0,0,1,6.67-12.17c3.47-3.09,11-3.61,14.78-.54a22,22,0,0,1,5.69,6.09c2.79,5,7.29,7.33,12.77,8.26a27.66,27.66,0,0,1,6.17,1.81c2.53,1.08,2.83,3.71.89,5.67s-3.88,4-5.82,6a15.5,15.5,0,0,0-4,9.32,15,15,0,0,0,.8,5.15c1.45,5.65,3,11.26,4.48,16.91,1.29,5,1.06,10.17.71,15.27a43.41,43.41,0,0,1-1.41,8.48c-1.63,5.85-5.78,9.46-11.33,11.46a9.77,9.77,0,0,1-7.9-.82,36.52,36.52,0,0,1-7.8-5.53c-8.17-7.31-15.77-15.2-23.34-23.11-1.93-2-3.57-4.31-5.32-6.48-1.41-1.74-2.82-3.47-4.17-5.25a28.57,28.57,0,0,1-1.92-3c-.63-1.11-1.09-2.32-1.77-3.4a8.08,8.08,0,0,1-1-5.76,5.32,5.32,0,0,1,1.73-3.3A11,11,0,0,1,226.51,318Z" transform="translate(-0.48 -0.48)"/><path class="cls-1" d="M458.56,186.83c3.74.24,7.48.57,11.23.69A31.2,31.2,0,0,0,486.87,183a21.47,21.47,0,0,0,3.69-3c5.16-5.57,10.2-11.26,15.38-16.81a70.29,70.29,0,0,1,5.52-4.95,6.88,6.88,0,0,1,1.42-.88c3.89-1.92,6.41-.37,6.45,4a37.63,37.63,0,0,0,2.56,13.78c1.25,3.14,0,6-3.11,7.52a44.85,44.85,0,0,0-10.11,6.81,26.6,26.6,0,0,0-2.51,2.58c-3.09,3.58-3,4.16.42,7.33a26.51,26.51,0,0,1,2.61,2.79,5.88,5.88,0,0,1,1.17,4.75c-.17,1.1-.51,2.17-.78,3.26-.66,2.73-.39,5.18,1.72,7.31a56.53,56.53,0,0,1,4.73,5.41,11.85,11.85,0,0,1,2.49,9.91,8.54,8.54,0,0,1-1.86,3.79,23.43,23.43,0,0,1-4.6,3.81,8.78,8.78,0,0,1-11.68-1.77,28.59,28.59,0,0,1-3.17-5.34,7.92,7.92,0,0,0-9.1-4.4,41.77,41.77,0,0,0-6.9,2.69c-3.12,1.44-6.13,3.1-9.23,4.58a27.55,27.55,0,0,1-4,1.49,8.35,8.35,0,0,1-8.43-2.09c-1.74-1.61-3.18-3.55-4.77-5.34-.79-.89-1.53-1.84-2.4-2.65a5.9,5.9,0,0,0-6.2-1.41,11.85,11.85,0,0,1-5.9.64,5.7,5.7,0,0,1-4.73-7.07,11.7,11.7,0,0,1,1.39-3.28c2.44-4.13,5.18-8.09,7.35-12.35,1.16-2.28,1.51-5,2-7.58a4.62,4.62,0,0,0-.63-3c-1.85-3.12.59-6,3.85-6.12,1.51-.07,3-.09,4.54-.15s3-.15,4.55-.22Z" transform="translate(-0.48 -0.48)"/><path class="cls-1" d="M201.83,328.86c-.35,2-.68,4.58-1.3,7.13-1.52,6.2-3.1,12.4-4.81,18.56a51,51,0,0,1-2.62,6.65c-.83,1.9-2,3.68-2.75,5.59a152.43,152.43,0,0,1-24.62,40.11c-5.47,6.57-11.24,12.89-16.93,19.28a17,17,0,0,1-3.39,3c-3.49,2.3-7.24.93-8.16-3.14a24.92,24.92,0,0,1-.19-6.41,13.43,13.43,0,0,1,.75-3.51,5.55,5.55,0,0,0-1.07-5.41c-3-3.69-3.06-8-2.52-12.29a57.78,57.78,0,0,1,2.38-9.51c1.19-3.85.59-6.4-2.61-8.84-3.35-2.55-3.47-8-1.59-11.17a40.47,40.47,0,0,1,7.33-9.43,93.1,93.1,0,0,1,14.89-11.64c3.6-2.18,7.18-2.53,10.78-.07,2.19,1.49,4.24.62,6-.67a12.91,12.91,0,0,0,3.21-3.78c1.36-2.25,2.47-4.66,3.67-7,2.92-5.67,7.14-10.41,11-15.4a18.48,18.48,0,0,1,3.85-3.19,3.59,3.59,0,0,1,4.47.1c1.9,1.31,3.41,2.88,3.65,5.35C201.37,324.85,201.58,326.51,201.83,328.86Z" transform="translate(-0.48 -0.48)"/><path class="cls-1" d="M122.93,351.16c.39,2.4-1.14,5.35-3.54,8-1.87,2.08-3.61,4.27-5.41,6.42a7.41,7.41,0,0,0-1.8,4.34,5.53,5.53,0,0,0,2.27,5.22c1.72,1.29,3.4,2.66,5,4.08,3.58,3.13,4.47,7.08,2.65,11.48a14.31,14.31,0,0,1-5.12,6.51c-4.09,2.79-8.19,5.58-12.43,8.12a17.65,17.65,0,0,0-7.4,8.49,82.6,82.6,0,0,1-5.14,10,9.23,9.23,0,0,1-8.09,4.81,12.32,12.32,0,0,1-4-.77,22.1,22.1,0,0,1-8.12-5.39c-3.51-3.51-7.52-6.13-12.58-6.94a19,19,0,0,0-9.61,1.33c-2.25.8-4.47,1.75-6.78,2.33a11.94,11.94,0,0,1-4.5.15c-3.3-.51-4.33-3.51-2.15-6.05a102.22,102.22,0,0,1,16.22-14.89,70,70,0,0,1,5.87-4.16c6.65-4,11.59-9.72,16.43-15.59,9.87-12,18.29-25,27-37.84a38.85,38.85,0,0,1,4.63-5.47c3.24-3.25,7.65-3.42,11,.11C121.25,339.51,122.88,344.35,122.93,351.16Z" transform="translate(-0.48 -0.48)"/><path class="cls-1" d="M297.66,365.68c.3-2.1.68-4.78,1.08-7.46,1-6.43-.71-12.37-3.41-18.1a18.58,18.58,0,0,0-1.38-2.25c-2-3-4.13-5.89-6.06-8.91a9,9,0,0,1-.3-9.95,7.11,7.11,0,0,1,8.77-2.78,48.12,48.12,0,0,1,4.87,2.58,18.66,18.66,0,0,0,6.77,2.28,5.67,5.67,0,0,0,5.8-2,50.77,50.77,0,0,0,4.05-5.63c2.44-4,4.61-8.24,7.13-12.21s5.88-7.62,10.5-9.51a15.65,15.65,0,0,1,4.62-1.09,5.29,5.29,0,0,1,5.4,3.58,21.58,21.58,0,0,1,1,4.42,4.61,4.61,0,0,0,1.46,2.92c1,.93,1.93,1.9,2.9,2.86A8.24,8.24,0,0,1,353,313a67.17,67.17,0,0,1-2.86,7.08c-1.09,2.56-2.36,5.06-3.29,7.68a13.8,13.8,0,0,0-.44,7.57,36.67,36.67,0,0,1-.07,13.13c-.62,4.18-1.44,8.34-2.24,12.49a32.69,32.69,0,0,1-9.05,17.38c-2.85,2.84-5,3-8.09.35-2.06-1.77-4-3.69-6.2-5.26-4.08-2.93-8.57-3.11-13.24-1.48a13.37,13.37,0,0,1-3.25.7C299.79,373,297.61,370.69,297.66,365.68Z" transform="translate(-0.48 -0.48)"/><path class="cls-1" d="M382.71,367a72.49,72.49,0,0,1-17.2-2.17c-2.78-.75-5.58-1.38-8.4-1.94s-4-2.19-3.23-5c.53-2,1.12-4,1.74-6,2.08-6.69,2.76-13.61,3.4-20.53.06-.72.2-1.43.21-2.15,0-5.32,3.44-8.24,7.69-10.31a16.71,16.71,0,0,1,6.23-1.54c5.54-.32,8.74-3.72,10.08-8.7a23.06,23.06,0,0,0,.6-6.16c0-3.75,1.76-7.31,4.86-8.66a11.08,11.08,0,0,1,8.64-.17c4.14,1.61,5.56,5.67,3.94,9.89a36.27,36.27,0,0,0-1.75,6.91,5.77,5.77,0,0,0,2,5.17c2.22,2.18,4.61,3.9,8,3.71a7.75,7.75,0,0,0,4.09-1.1c.39-.27.83-.48,1.22-.76,4.18-3,8.37-2.41,12.64-.16,6.06,3.2,6.93,12.65,2.19,16.9a43.14,43.14,0,0,1-13.07,8.3c-2.08.82-4.11,1.75-6.18,2.61a12.16,12.16,0,0,0-7.25,8.09c-.73,2.45-1.53,4.89-2,7.39-.54,2.77-2.24,4.05-4.77,4.71C391.67,366.56,386.88,366.7,382.71,367Z" transform="translate(-0.48 -0.48)"/><path class="cls-1" d="M551.46,279.89a34.12,34.12,0,0,1-.67,3.44,33.25,33.25,0,0,1-1.77,5,31.87,31.87,0,0,0-2.6,9.34c-1.31,9.05-5.65,16.72-12.1,23.16a12.25,12.25,0,0,1-5.67,3.46c-2.55.62-4.78.13-6.37-2.09a15.84,15.84,0,0,1-1.9-3.31,25,25,0,0,0-6.46-8.82c-4-3.86-8.17-7.65-12.27-11.45a13.3,13.3,0,0,0-1.47-1.23,5.51,5.51,0,0,1-2.22-6.87c.45-1.28.85-2.58,1.37-3.83,1.22-2.87.66-5.66-.39-8.39a7.66,7.66,0,0,0-1.67-2.28c-3.68-3.93-8.11-7-12.18-10.44a20.4,20.4,0,0,0-12.91-4.89c-4.17-.19-6.16-3.34-4.37-7.12a22.48,22.48,0,0,1,5.84-8.1,13.14,13.14,0,0,1,5.79-2.73,9.46,9.46,0,0,1,9.7,3.29,32.65,32.65,0,0,0,21.27,11.7c5.68.82,11.34,1.91,17,3.06,7.79,1.58,14.41,5.51,20.46,10.52C550.35,273.34,551.33,276.15,551.46,279.89Z" transform="translate(-0.48 -0.48)"/><path class="cls-1" d="M527.09,135.73c.13-5.59.28-11.18.37-16.77.07-4.15,0-8.31.12-12.47a38.51,38.51,0,0,1,.57-5.24,14.57,14.57,0,0,1,2.4-5.7,6.31,6.31,0,0,1,5.25-2.86,11.38,11.38,0,0,1,6.8,1.94A50.25,50.25,0,0,1,557,108.16c2.12,3,4.85,5.49,7.33,8.2s5,5.37,7.5,8.07c1.51,1.65,3,3.3,4.47,5a72.73,72.73,0,0,1,5.29,6.49,10.56,10.56,0,0,1,.63,11c-1.8,3.8-4.08,7.2-7.67,9.63-2.45,1.65-4.75,3.53-7.07,5.37a54.49,54.49,0,0,1-18.87,9.64c-3.88,1.13-7.77.84-11.66.62-2.15-.12-3.57-1.67-4.53-3.54a41.38,41.38,0,0,1-4-12.52,92.78,92.78,0,0,1-1-17c0-1.12,0-2.24,0-3.36Z" transform="translate(-0.48 -0.48)"/><path class="cls-1" d="M484.4,289.1a24.42,24.42,0,0,1-4.48,14.2c-4.31,6.06-6,13-7.58,20a241.71,241.71,0,0,0-5.79,38.6,4.86,4.86,0,0,1-6.18,4.58,30,30,0,0,0-11.67-.05,88.73,88.73,0,0,1-30.28.34c-.95-.15-1.91-.21-2.85-.37a3.26,3.26,0,0,1-2.52-5,30.29,30.29,0,0,1,10.06-11.33,120.69,120.69,0,0,1,15.9-9.33c7-3.28,8.71-11.39,6.22-17.58-1-2.59-2.33-5.06-2.81-7.87a7.66,7.66,0,0,1,2.08-7.05c2.06-2.11,4.25-4.1,6.4-6.13A45.7,45.7,0,0,0,459.48,291c2.24-4.05,4.5-8.1,6.93-12,1.49-2.43,3.69-4.12,6.73-3.76a11.19,11.19,0,0,1,4.49,1.48C482.24,279.46,484.37,283.58,484.4,289.1Z" transform="translate(-0.48 -0.48)"/><path class="cls-1" d="M292.63,385.79c1.49-.77,2.86-1.38,4.12-2.17a25.63,25.63,0,0,1,15-4.08,10.18,10.18,0,0,1,9.76,10.59,11.11,11.11,0,0,1-3.07,7c-4,4.72-8.49,9.14-10.78,15.13-1.16,3-1.34,5.87.19,8.77,1.75,3.33,3.47,6.66,5.16,10a53.45,53.45,0,0,1,2.38,5.23,27.21,27.21,0,0,0,4,7.31,13.81,13.81,0,0,1,3,5.69c.65,3.23-.78,5.73-3.73,6.52a5.74,5.74,0,0,1-4.16-.73,32.15,32.15,0,0,1-4.46-2.77c-3-2.21-4.5-2.31-7.62-.25-.6.39-1.16.84-1.74,1.27-4,3-9,2.71-12.27-1.12-4.05-4.72-8.21-9.36-11.47-14.74a49.49,49.49,0,0,1-5.57-12.39c-1.36-4.78-.8-9.39.61-13.92a47.3,47.3,0,0,1,3.88-9,6,6,0,0,0-.35-6.91,24,24,0,0,1-1.29-2,7.11,7.11,0,0,1,1.17-8.41,20.16,20.16,0,0,1,7.18-4.68c3.33-1.28,5.85-.51,8,2.41C291.21,383.48,291.77,384.45,292.63,385.79Z" transform="translate(-0.48 -0.48)"/><path class="cls-1" d="M556.67,487.36c1.36-.1,2.79-.22,4.23-.3,5.29-.29,10.17.82,14.28,4.39a8.42,8.42,0,0,1,.93,12,5.69,5.69,0,0,1-4.9,2.06c-9-1-18.06-.22-27.08-.73a104,104,0,0,1-20.81-3.2,37.52,37.52,0,0,1-12.75-6c-3.27-2.39-6.74-4.55-9.31-7.85a22.34,22.34,0,0,1-3.7-7.19q-2.62-8.34-5.23-16.68c-.48-1.52-1-3-1.43-4.57a6.33,6.33,0,0,1-.24-1.89,3.35,3.35,0,0,1,4.4-3.35,3.85,3.85,0,0,1,1.33.52c2,1.38,3.72.72,5.17-.73a27.73,27.73,0,0,0,3.77-4.6c2.86-4.42,5.55-9,8.35-13.41a12.43,12.43,0,0,1,1.68-2c1.26-1.31,2.72-1.94,4.53-1.15a4.22,4.22,0,0,1,2.87,4.49,15.22,15.22,0,0,1-.16,1.91,49.25,49.25,0,0,0-.56,11.2,92.87,92.87,0,0,0,2,13.92c.89,3.93,2.23,7.7,5,10.75a11.66,11.66,0,0,0,2.59,2,8.6,8.6,0,0,0,2,.69,34.68,34.68,0,0,1,14.2,7.66c1.52,1.39,3.45,1.6,5.34,1.88A34.18,34.18,0,0,0,556.67,487.36Z" transform="translate(-0.48 -0.48)"/><path class="cls-1" d="M253,388.35c-.31,4.16-2.31,7.47-4.42,10.67-3.3,5-6.72,9.93-10.16,14.84a15.36,15.36,0,0,0-2.36,5.19,14.52,14.52,0,0,1-1.5,4c-2.3,3.87-5.69,3.8-8.46.82a14.86,14.86,0,0,1-2.41-4.1c-1.53-3.43-3-6.89-4.31-10.4a8.86,8.86,0,0,0-3.76-4.2,3.43,3.43,0,0,0-2.26-.25,3.54,3.54,0,0,1-3.67-1.18,3.22,3.22,0,0,1-.17-4c1.83-2.84,1.77-5.6.24-8.58-1.71-3.33-3-6.86-4.73-10.21A51.13,51.13,0,0,1,200.81,369a19.12,19.12,0,0,1,.65-9.94,39.18,39.18,0,0,1,4.86-10.12c1.37-2.06,2.71-4.15,4.07-6.22,2.11-3.2,5.27-3.08,7.13.23A93.14,93.14,0,0,0,233,363.28c3.55,3.56,7.56,6.66,11.09,10.24a55.88,55.88,0,0,1,7.06,8.72C252.29,383.94,252.41,386.29,253,388.35Z" transform="translate(-0.48 -0.48)"/><path class="cls-1" d="M454.42,487.74,439,487.06c-4.3-.21-7.49-2.5-10.22-5.58-1.06-1.2-1.95-2.54-3-3.74-1.69-1.91-3.5-3.71-5.17-5.64-2.61-3-5.19-6.06-7.7-9.16a47.9,47.9,0,0,1-3.31-4.7,12.73,12.73,0,0,1-2.15-8c.22-2.46.44-4.93.69-7.39a3.31,3.31,0,0,1,2.44-3.21,3.44,3.44,0,0,1,3.81,1.35,19.1,19.1,0,0,0,10.62,7,7.85,7.85,0,0,0,6.81-1.19,38.13,38.13,0,0,0,8.78-9.1,22.83,22.83,0,0,1,1.42-1.93,3.28,3.28,0,0,1,3.92-.86,3,3,0,0,1,2,3.25c-.41,2.68-1,5.33-1.6,8-.49,2.17-1.21,4.3-1.64,6.49a10.06,10.06,0,0,0,2.6,9.3c1.74,1.86,3.38,3.82,5.16,5.63a15.12,15.12,0,0,0,14.2,4.49c2.12-.37,4.29-.43,6.44-.6a17.86,17.86,0,0,1,10.13,2.36,9.75,9.75,0,0,1,4.37,4.93c.67,1.63,1.37,3.24,1.94,4.9.68,2,1.36,4.07-.39,5.85s-4,2.08-6.42,1.25A61.07,61.07,0,0,0,462,487.34C459.4,487.38,456.77,487.61,454.42,487.74Z" transform="translate(-0.48 -0.48)"/><path class="cls-1" d="M463.58,386.49a22.14,22.14,0,0,1-.44,2.74,105,105,0,0,1-12.49,29.42,9.18,9.18,0,0,1-2.06,2.29c-2.82,2.22-5.75,4.3-8.55,6.54-1.93,1.54-3.69,3.3-5.58,4.89a16.19,16.19,0,0,1-6.13,3.62,24.21,24.21,0,0,0-3.84,1.93c-2.65,1.26-4.71.43-6.25-2a57.59,57.59,0,0,0-4.7-6.3,4.37,4.37,0,0,1-1.25-3.71c.45-2.43.84-4.88,1.51-7.25,3.78-13.25,9.39-25.63,17.8-36.63,1.64-2.16,3.54-4.11,5.34-6.15a3.64,3.64,0,0,1,3.16-1.39c5,.41,10,.89,15,1.23C460.66,376.07,463.64,381.51,463.58,386.49Z" transform="translate(-0.48 -0.48)"/><path class="cls-1" d="M285,483.06c-1.65-.18-3.83-.25-5.93-.67a31.62,31.62,0,0,0-10.27-.16c-5.84.76-11.49.27-16.8-2.48a6.2,6.2,0,0,1-1.76-1.21c-8.27-8.73-17.53-16.37-26.45-24.39-6.23-5.6-12-11.73-17.73-17.87a16.31,16.31,0,0,1-4.59-12.72,9.15,9.15,0,0,1,3-5.86,6,6,0,0,1,3.4-1.54c4.1-.3,6.74.81,8.45,4.48,1.14,2.45,1.89,5.08,2.8,7.64.48,1.35.82,2.76,1.41,4.06a9.66,9.66,0,0,0,8.89,5.87,25.84,25.84,0,0,0,3.83-.16,10.74,10.74,0,0,1,9.44,3.74c1.76,1.95,3.38,4,5,6.11,3.08,3.89,6.16,7.77,9.17,11.71a6.85,6.85,0,0,0,5.73,2.91c3.27,0,6.56.1,9.81-.19,7.17-.63,13.46,1.09,18.67,6.23a8.2,8.2,0,0,1,2.65,6.2,42.39,42.39,0,0,1-.39,4.78,3.41,3.41,0,0,1-3.27,3.26C288.54,483,287,483,285,483.06Z" transform="translate(-0.48 -0.48)"/><path class="cls-1" d="M662.6,105.42c-.32,1.84-.49,3.19-.79,4.51q-1.47,6.54-3,13-2,8.28-4,16.54-1.9,7.68-4,15.32a17,17,0,0,1-1.38,3.57c-1.51,2.92-4.51,3.79-7.26,2-5.81-3.81-11.71-7.52-16.92-12.18a26.87,26.87,0,0,1-7.67-10.85,6.92,6.92,0,0,1,.22-5.51A58.42,58.42,0,0,1,638,107.38c2-1.44,4-3,6-4.4a28.2,28.2,0,0,1,9.53-4.38c3-.74,5.88-.34,7.62,2.53A18.62,18.62,0,0,1,662.6,105.42Z" transform="translate(-0.48 -0.48)"/><path class="cls-1" d="M640.72,227.71c-2,.29-4,.51-5.91.89-3.21.63-6.39,1.44-9.61,2a13.59,13.59,0,0,1-4.27,0c-2.13-.31-4.22-.87-6.32-1.33-.31-.07-.61-.19-.92-.29-2-.63-3.44-1.87-3.68-4s1.07-3.6,2.72-4.73c1-.72,2.26-1.22,3.27-2a24.11,24.11,0,0,0,3.93-3.46c6.7-8,10-17.4,10.57-27.72.14-2.42-.67-4.88-1-7.33a63.09,63.09,0,0,1-.74-7.35c0-3.26,2.76-4.75,5.7-3.32,1.5.74,3.1,1.27,4.6,2a74.74,74.74,0,0,1,7,3.61c6.58,4,9.13,10.29,9.71,17.73.42,5.4-.61,10.64-1.28,15.91a23.9,23.9,0,0,0,.83,9.92,19.7,19.7,0,0,0,4.7,8.47,16.75,16.75,0,0,1,1.55,1.82,3.67,3.67,0,0,1-.13,5,3.52,3.52,0,0,1-4.76.65c-1.59-.92-3.19-1.84-4.69-2.9A20.57,20.57,0,0,0,640.72,227.71Zm-2.81-37.64a57.81,57.81,0,0,0,.58,5.8,38.1,38.1,0,0,0,1.52,5c.4,1.21,1.34,1.42,2.49,1.24,3-.44,6-3.88,6-6.83a3.79,3.79,0,0,0-.3-1.61C646.62,190.42,641.63,188.62,637.91,190.07Z" transform="translate(-0.48 -0.48)"/><path class="cls-1" d="M374.46,501.79c-2.1-.45-4.52-1-6.94-1.49-2.8-.61-5.59-1.3-8.4-1.86a7.08,7.08,0,0,0-2.37.16c-3.86.65-7.7,1.34-11.66.65s-7.74-2.48-11.5-4c-.82-.33-1.41-1.27-2.07-1.95a83.16,83.16,0,0,0-6-6.16c-7.09-6-14.33-11.76-21.5-17.63a9,9,0,0,1-1.51-1.52,5.12,5.12,0,0,1,3.64-8.25,6,6,0,0,1,4.76,1.1c3.65,2.9,7.95,4.36,12.33,5.66a21,21,0,0,0,3.05.58,15.69,15.69,0,0,1,10.08,5.45,39.82,39.82,0,0,0,5,4.41c1.17,1,2.49,1.75,3.63,2.75a4.47,4.47,0,0,0,3.74,1.09c5.48-.58,11-1.2,16.45-1.54a14.47,14.47,0,0,1,11.91,4.55c1.78,1.87,3.46,3.74,3.74,6.49a6,6,0,0,0,1,1.91c2.44,4.54.88,8-4.13,9.19C376.74,501.58,375.77,501.62,374.46,501.79Z" transform="translate(-0.48 -0.48)"/><path class="cls-1" d="M588.94,239.57a41,41,0,0,1,1.44-5.22,3.22,3.22,0,0,1,4.07-2.16c8.44,2,17.08,3.31,24.74,7.94A14.89,14.89,0,0,0,633,241a19.58,19.58,0,0,1,8.44-1.49c3.39.16,5.81,1.35,6.84,5.21.25.92.36,1.89.67,2.79a10.42,10.42,0,0,0,1.51,3.48c2.53,2.87,4,6.53,7,9.08a8,8,0,0,1,1.87,3.3,3.23,3.23,0,0,1-3.3,4.51,22.14,22.14,0,0,1-3.81-.36c-6.28-1.16-12.56-2.34-18.82-3.58-8.54-1.7-17.11-3.3-25.6-5.23a27.1,27.1,0,0,1-14.35-8.21A16.2,16.2,0,0,1,588.94,239.57Z" transform="translate(-0.48 -0.48)"/><path class="cls-1" d="M666.45,241.43c1.17.19,2,.28,2.74.45,3,.69,4.4,3.09,3.32,6a25.73,25.73,0,0,1-2.59,4.55,26.44,26.44,0,0,1-2,2.41c-1.86,2.26-4.26,2.24-6,0-.88-1.13-1.69-2.33-2.64-3.4-2.22-2.55-2.2-7.24,2.15-8.8A38.68,38.68,0,0,1,666.45,241.43Z" transform="translate(-0.48 -0.48)"/><path d="M600.32,201.1a12.5,12.5,0,0,1-6.62-1.93,5.79,5.79,0,0,1-1.54-9.06,3.64,3.64,0,0,1,1.6-1,19.64,19.64,0,0,1,8.72-1.08,14,14,0,0,1,3.84,1.22,6.09,6.09,0,0,1,3,6.24,5.61,5.61,0,0,1-4.46,5C603.35,200.84,601.82,200.91,600.32,201.1Z" transform="translate(-0.48 -0.48)"/><path d="M637.91,190.07c3.72-1.45,8.71.35,10.32,3.58a3.79,3.79,0,0,1,.3,1.61c0,3-3.08,6.39-6,6.83-1.15.18-2.09,0-2.49-1.24a38.1,38.1,0,0,1-1.52-5A57.81,57.81,0,0,1,637.91,190.07Z" transform="translate(-0.48 -0.48)"/></svg>