<svg id="Layer_1" data-name="Layer 1" xmlns="http://www.w3.org/2000/svg" viewBox="0 0 720 612"><defs><style>.cls-1{fill:none;stroke:#000;stroke-miterlimit:10;stroke-width:0.01px;}</style></defs><path d="M.48,612.48V.48h720v612ZM338,227.22c1.36.07,2.72.22,4.07.17a3.76,3.76,0,0,0,3.54-5.34,15.7,15.7,0,0,0-1.17-2.36C343.33,217.78,342,216,341,214a92.6,92.6,0,0,0-8.12-12.69,13.39,13.39,0,0,0-7.59-5.11,77.22,77.22,0,0,1-15.44-5.82,46.44,46.44,0,0,1-9.39-6.14c-3.41-2.92-5.74-6.89-7.74-10.86a26.91,26.91,0,0,1-1.53-20.75c1-3.27,2.47-6.41,3.7-9.62a6.29,6.29,0,0,0,.58-2.29,3.53,3.53,0,0,0-5.41-2.92c-5.07,2.7-10.07,5.56-15.08,8.37s-10.07,5.92-15.26,8.55a121.49,121.49,0,0,1-28.89,10.8,298.64,298.64,0,0,0-47.18,14.39c-6.34,2.54-9.4,7.32-10,14a7.26,7.26,0,0,1-.77,3,50.72,50.72,0,0,1-3.29,5,5.74,5.74,0,0,0-.62,6.1,4.47,4.47,0,0,0,5,2.93,63.26,63.26,0,0,0,7.81-1.09,115.63,115.63,0,0,1,25.63-3.3c12.39-.34,24.78-.63,37.16.43,7.25.63,14.51,1,21.58,2.94,5.62,1.55,11.34,2.76,16.91,4.45,3.42,1,6.59,2.89,10,4.06A167.08,167.08,0,0,0,338,227.22Zm79.61,160.23c-.14-4.79-1.8-8.12-5.85-9.92-2.62-1.17-5.28-2.26-7.94-3.37-6.18-2.59-12.38-5.16-18.56-7.76-5-2.09-9.68-1.24-14.3,1.15a46.81,46.81,0,0,0-11.44,8.64c-7.38,7.31-14.77,14.6-21.72,22.35a229.67,229.67,0,0,0-19.45,25.24,79.68,79.68,0,0,0-5.85,11,40,40,0,0,0-3.33,12c-.16,1.37-.29,3.12.39,4.16,2.64,4.07,5.1,8.37,9.24,11.21,3.29,2.25,6.63,4.42,9.87,6.74a5.58,5.58,0,0,0,5,.8,28.2,28.2,0,0,0,11-5.19c4.29-3.47,8.61-6.92,12.67-10.64,8.85-8.12,16.82-17.1,24.92-25.95,2.69-2.94,5.38-5.92,8.28-8.66,3.95-3.73,8.19-7.16,12.13-10.89,3.77-3.57,7.4-7.29,10.93-11.1A16.94,16.94,0,0,0,417.65,387.45ZM442.47,250.1c.53-7.55-1-14.82-2.85-22a3.86,3.86,0,0,0-1-1.59c-5.74-5.91-11.31-12-17.3-17.63-10.09-9.48-20.69-18.32-32.63-25.53-6.65-4-13.82-5.68-21.27-6.77a5.36,5.36,0,0,0-5.76,2.57c-2.16,3.5-5.1,6.34-8,9.23-2.09,2.09-4.09,4.28-6.19,6.36a7.76,7.76,0,0,0-2.12,6.41,16.85,16.85,0,0,0,6,11.39c3.85,3.36,7.9,6.49,11.86,9.73,3.34,2.73,6.67,5.49,9,9.26a15.27,15.27,0,0,0,1.65,2,71,71,0,0,0,11.78,10.53,36.57,36.57,0,0,1,5,4.12c4.51,4.64,9,9.35,13.31,14.14,2.47,2.72,4.48,5.88,7.05,8.48,6.07,6.14,12.34,12.07,18.56,18.05,1.74,1.67,4.19,1.46,5.31-.62a41.46,41.46,0,0,0,3.82-8.5,87,87,0,0,0,2.51-12.92C441.79,261.27,442,255.67,442.47,250.1ZM565,442.63a16.24,16.24,0,0,0,5.58,12.87,101.61,101.61,0,0,0,15.48,12c3.92,2.43,7.1,1.87,9.7-1.91,1.86-2.69,3.59-5.49,5.2-8.34a270.76,270.76,0,0,0,13.15-28c5.53-13.19,11.2-26.33,16.87-39.46a32,32,0,0,0,2.68-15.9c-.46-4.93-4.31-11.6-11.3-11.57-3.74,0-7.48-.24-11.23-.36A18.6,18.6,0,0,0,599.5,366a48,48,0,0,0-13.93,16.24c-3.13,5.67-5.82,11.55-8.42,17.48a135.25,135.25,0,0,0-7.69,21.91c-1.05,4.27-2.08,8.54-3,12.83C565.85,437.14,565.45,439.89,565,442.63ZM289.11,268.38a71.44,71.44,0,0,0,31.69-9.5c4.16-2.39,8.38-4.73,11.59-8.42,2.41-2.76,4.73-5.62,7-8.5a3.28,3.28,0,0,0-1.85-5.44,13.75,13.75,0,0,0-3.57-.27,29.13,29.13,0,0,1-8.31-.82q-24.92-6.54-49.85-13a230.85,230.85,0,0,0-46.61-7.07,181.22,181.22,0,0,0-34.92,1.56c-2,.28-4,.38-6,.47a3.44,3.44,0,0,0-2.34,6,7.24,7.24,0,0,0,2.3,1.17c.82.29,1.73.32,2.55.62a116,116,0,0,0,25.39,6c4,.49,8.09.87,12.14,1.26a10.84,10.84,0,0,1,5.6,1.91c.83.62,1.79,1,2.63,1.66a32,32,0,0,1,3.91,3.11,33.2,33.2,0,0,1,6,8.36c2.39,4.75,5.17,9.15,10.14,11.7,1.63.83,3.1,2,4.68,2.89,5.5,3.22,11.58,4.51,17.81,5.25C282.44,267.7,285.77,268,289.11,268.38Zm-59,30.9a4.2,4.2,0,0,0-1.32-3.31c-1.2-1.38-2.44-2.75-3.59-4.18a29.38,29.38,0,0,1-3.24-4.43,87.61,87.61,0,0,1-5.33-11.26c-1.34-3.79-5.5-5-9-3.27-2.16,1-4.42,1.85-6.66,2.7S196.17,277,194,278.1c-12,5.75-21.77,14.26-30.23,24.35a113.69,113.69,0,0,0-8.28,11.45c-4.46,7-7.35,14.71-10.1,22.48a4.27,4.27,0,0,0,0,2.55,16.93,16.93,0,0,0,1.79,3.89c1.12,1.74,2.55,3.28,3.63,5.05a4.94,4.94,0,0,0,4.79,2.57,24.15,24.15,0,0,0,3.75-.66c2.33-.51,4.62-1.27,7-1.55,4.71-.56,9,.87,13,3.32a4.42,4.42,0,0,0,5.55-.22,27.14,27.14,0,0,0,3.65-3.08c3.78-4.24,7.7-8.38,11.08-12.92,5.23-7,11.37-13.19,17.44-19.44,3.62-3.73,7.35-7.34,11-11A7,7,0,0,0,230.08,299.28Zm-7.92-35c.21,2.3.27,4.64.7,6.9a46.85,46.85,0,0,0,1.79,6c2.38,7.3,6.93,12.28,14.75,13.73.55.11,1.09.28,1.63.41,4.77,1.16,8.49,4,11.72,7.5a43.25,43.25,0,0,1,3.94,5.72A209.94,209.94,0,0,0,275,328.25c6.17,7,12.92,13.31,21.06,18,1.37.79,2.53,1.92,3.84,2.8a38.36,38.36,0,0,0,5.43,3.43c2.23,1,4.4-.46,4.67-2.9a15.4,15.4,0,0,0,0-2.63,114.37,114.37,0,0,0-5.48-29.38c-2.81-8.66-5.87-17.23-8.7-25.89a10.84,10.84,0,0,0-5-6.12,37.34,37.34,0,0,0-11.85-4.23c-2.74-.57-5.47-1.14-8.18-1.84q-5.1-1.32-10.14-2.84c-8.6-2.58-15.24-7.49-18.86-16-.31-.73-.69-1.44-1-2.16a26,26,0,0,1-2.64-8.91,3.52,3.52,0,0,0-2.27-3.36,3.6,3.6,0,0,0-3.95,1c-1,1-2.08,2-3.18,2.91C224.23,253.83,221.47,258.25,222.16,264.32Zm225.49,40.84a44,44,0,0,0,4.47,22.28c1.4,2.76,4.78,3.14,6.36.76a11.14,11.14,0,0,1,2.2-2.19c4.33-3.66,8.78-7.19,13-11,10.63-9.54,19-20.71,23.63-34.37a65.63,65.63,0,0,0,3.77-18.48c.21-5.18-.94-7.92-6.15-10.17-9.74-4.21-19.53-8.34-29.29-12.54a30.66,30.66,0,0,1-8.8-5.7c-1.73-1.59-3.15-1.94-4.71-1.05s-1.95,2.26-1.6,4.36c.8,4.64,1.76,9.26,2.29,13.92.57,5,1.16,10,.24,15.05-.78,4.32-1.3,8.69-2.19,13A143.7,143.7,0,0,0,447.65,305.16ZM530.11,334l-.45.05c.52,3.05.84,6.16,1.61,9.15.65,2.55,2.19,3.2,4.78,2.65,5.05-1.08,9.26-3.79,13.3-6.85,1.46-1.11,2.88-2.29,4.35-3.38a140.25,140.25,0,0,1,31.82-17.54c5.34-2.14,5.94-4.6,2.15-8.94-2.53-2.89-5-5.8-7.77-8.48a149.47,149.47,0,0,0-12.54-11.49,315.38,315.38,0,0,0-25.66-18.49c-2.5-1.57-5.06-3.06-7.49-4.74-6-4.17-12.7-7-19.37-9.92a3.55,3.55,0,0,0-5.06,3.3,4,4,0,0,0,1.34,3,47.25,47.25,0,0,1,7.14,9.86,78.82,78.82,0,0,1,4.59,11,114.91,114.91,0,0,1,4.45,14.38,109.9,109.9,0,0,1,2.78,20.4C530.26,323.31,530.11,328.66,530.11,334Zm-90.3-10.91h-.12c0-.4,0-.8,0-1.2.11-4.89-1.08-9.33-4.45-13-.8-.89-1.46-1.91-2.29-2.77q-13.43-14.2-26.9-28.36-10.67-11.21-21.37-22.37a73.1,73.1,0,0,0-6.16-6c-4.86-4-9.88-7.87-14.84-11.77a3.69,3.69,0,0,0-4.84,0,3.8,3.8,0,0,0-1.06,4.14,52.31,52.31,0,0,1,1.74,8.66c.63,9.65.91,19.32,1.51,29a48.69,48.69,0,0,0,1.53,8.69,15.42,15.42,0,0,0,5.94,8.75c2.21,1.68,4.82,2.13,7.35,2.71a179.9,179.9,0,0,1,26,7.55c2.89,1.13,5.63,2.62,8.43,4a20,20,0,0,0,2.81,1.34,10.55,10.55,0,0,1,5.69,4.16c2.17,3,4.36,5.92,6.32,9a85.74,85.74,0,0,0,8.11,11.26,6,6,0,0,0,1.64,1.37,3.12,3.12,0,0,0,3.4-.25,3.61,3.61,0,0,0,1.41-3.59c-.16-2.06-.29-4.13-.27-6.19C439.38,326.43,439.65,324.76,439.81,323.1Zm82.71,9.1c-.31-3.9-.69-6.84-.74-9.79a58,58,0,0,0-2.14-13.69c-.64-2.46-1.6-4.84-2.39-7.26-1.18-3.56-2.21-7.17-3.56-10.67a13.68,13.68,0,0,0-2.78-4.12c-1.36-1.47-3.14-1.37-4.73-.11a8.07,8.07,0,0,0-2.46,4.3c-.51,1.68-.94,3.39-1.54,5-2.19,6-5.79,11.17-9.88,16a75.46,75.46,0,0,1-8.15,8.43c-6,5.23-12.25,10.25-17.28,16.56a36.33,36.33,0,0,0-6.77,12.56,19.54,19.54,0,0,0-.33,9.49,4.2,4.2,0,0,0,3,3.34,22.53,22.53,0,0,0,8.5,1.12c6.79-.3,13.57-.67,20.36-.89a62.32,62.32,0,0,0,25-5.9,5.53,5.53,0,0,0,3.59-4.62C521.08,345.11,521.84,338.2,522.52,332.2ZM102.67,378.48a42.68,42.68,0,0,1,1.69,5.85c.43,2.87.55,5.88-2,8a23.43,23.43,0,0,1-4.72,2.76,4.18,4.18,0,0,1-2.28,0,10.24,10.24,0,0,0-9.56,4.33c-1.68,2.75-1,6.52,1.63,9.21a16.33,16.33,0,0,0,8.32,4.49c4.27.93,8.32.39,11.45-3.07,1.54-1.71,2.9-3.58,4.33-5.4a27.75,27.75,0,0,1,1.72-2.28c2.17-2.24,4.37-4.45,6.63-6.6a11.74,11.74,0,0,1,2.69-1.94c11.77-6,20.09-15.38,26.09-26.92,2.05-3.93,2.33-8.15-.57-12a40.72,40.72,0,0,0-3.92-4.83c-2.55-2.49-5.63-4-9.29-3.54a40.11,40.11,0,0,0-7.68,1.73c-5.74,2-10.53,5.66-15.24,9.37a33.88,33.88,0,0,0-4.52,4.28,11.94,11.94,0,0,1-6.16,3.92,116.39,116.39,0,0,1-12.16,2.58c-4.66.63-9.39.91-14.07-.25a4.45,4.45,0,0,1-3-2.08,12.85,12.85,0,0,0-7.93-5.8,9.81,9.81,0,0,0-4.93-.09A12.28,12.28,0,0,0,51,374.39c2.08,8.49,11.21,11.66,17.23,8a3.17,3.17,0,0,1,2.72-.29,30,30,0,0,0,14,.26C90.7,381.15,96.45,379.84,102.67,378.48Zm428,128.17c-.57.7-.89,1.39-1.44,1.72-3.61,2.18-7.05,4.66-11.31,5.59a10.18,10.18,0,0,0-3.73,2c-3.27,2.49-4.45,9.58,0,13.37a8.79,8.79,0,0,0,9.92,1.63,15.81,15.81,0,0,0,6.84-5.45,5.33,5.33,0,0,1,2.09-1.81c2.82-1.1,5.72-2,8.59-3,6.13-2.14,11.27.07,16.07,3.69a2.35,2.35,0,0,1,1.08,2.72c-.86,2-1.88,3.87-4.25,4.54a15.31,15.31,0,0,0-3.53,1.44c-4.55,2.65-4.41,10-.21,12.3a15.29,15.29,0,0,0,12.06,1.07,23.62,23.62,0,0,0,9-5.35c1.73-1.54,3.34-3.21,3.78-5.67a3.22,3.22,0,0,1,.7-1.22c4.17-5.62,8.8-10.8,14.74-14.62a27.31,27.31,0,0,0,6.7-6,76.19,76.19,0,0,0,9.08-14.35,31.07,31.07,0,0,0,3-10.53c.28-2.78-1.9-4.71-4.53-3.72a12,12,0,0,0-3.38,2.17c-3.53,3-6.84,6.29-10.53,9.08-6.69,5.05-13.46,10-22.28,10.92-6,.65-11.93,1.64-17.8-.29-3.4-1.11-7-2.15-10-4-4.22-2.55-8-5.82-12-8.79a9.74,9.74,0,0,1-1-1c-1.38-1.43-2.79-2.84-4.14-4.3-3.24-3.5-7.27-3.75-11.51-2.65-5,1.3-7.15,8-4.07,12.08a10.83,10.83,0,0,0,10.93,3.67,3.9,3.9,0,0,1,1.84-.19C524.84,502.53,527.68,504.39,530.63,506.65ZM364.79,317.73c.37,3.07.83,6.79,1.27,10.51a35.82,35.82,0,0,1,.54,5.23c-.21,6.45,2.83,11.32,7.75,14.89a76.21,76.21,0,0,0,12.2,7.06c5.26,2.5,10.77,4.46,16.14,6.71,4,1.66,8,3.2,11.84,5.17,4.31,2.23,8.43,4.82,11.66,8.61a3.4,3.4,0,0,0,5.88-.87,19.49,19.49,0,0,0,1.22-3.38c.88-3.47,1.83-6.94,2.44-10.46a10.36,10.36,0,0,0-1.52-7.82,69.71,69.71,0,0,0-4.26-6c-4-4.66-8.19-9.19-12.33-13.74a73.26,73.26,0,0,0-14.3-12.71A160.56,160.56,0,0,0,381.74,309a21.19,21.19,0,0,0-13.06-1.83c-2.08.42-3.18,1.4-3.38,3.44S365,314.9,364.79,317.73Zm-64.25,172c5.27-.3,11-1.26,15.28-4.84,2.07-1.73,4.11-3.52,6.06-5.39s1.67-3.92-.39-5.53c-1.89-1.47-3.76-3-5.68-4.4a70.49,70.49,0,0,0-6-4.32,30.35,30.35,0,0,0-23.11-3.43,44.43,44.43,0,0,1-8.25,1.23c-9.27.35-18.09-1.91-26.6-5.34-4.27-1.72-8.24-4.3-13.13-3.83a2.49,2.49,0,0,1-.7-.14,2.46,2.46,0,0,1-2.45-2.18,3.32,3.32,0,0,0-1-1.62,13.29,13.29,0,0,0-6.93-4A16.13,16.13,0,0,0,218,447a12.56,12.56,0,0,0-6.22,6.08c-1.76,3.37.75,9.54,4.31,11.38a14.53,14.53,0,0,0,7.6,1.63,9.26,9.26,0,0,0,3.42-.67,4.27,4.27,0,0,1,3.42-.46c1.06.35,2.16.59,3.24.84,4.67,1.08,9.33,2.17,14,3.22,1.16.26,2.38.28,3.54.57,2.07.5,2.51,2.13,1.21,3.77-.88,1.12-1.88.85-3,.68-3.56-.56-7-.58-9.77,2.34-2.51,2.62-2.93,8.32-.66,11.13,2.54,3.12,9,4.83,12.85.9a3.21,3.21,0,0,1,1.85-.77c2.22-.21,4.47-.19,6.68-.45a32.27,32.27,0,0,0,12.32-3.68,11.56,11.56,0,0,1,11.89.09c2.7,1.55,5.34,3.14,8.19,4.43A17.69,17.69,0,0,0,300.54,489.71Zm58.67-333.62c.21-3.62-1-7.77-3-11.63a21.58,21.58,0,0,0-6.72-8,41,41,0,0,0-20.7-7.51c-7.28-.59-13.91,1.36-19.14,6.52s-9.25,11.46-10.48,19a22.36,22.36,0,0,0,2.33,15.11A32,32,0,0,0,315.84,183c1.94.93,4,1.65,6,2.51a22.43,22.43,0,0,0,12.93,1.42c6.73-1.17,12.45-4.52,17.4-9.09a15.3,15.3,0,0,0,3.68-5.27A44.15,44.15,0,0,0,359.21,156.09ZM489.43,432.91l0-.24c2.24,0,4.48.05,6.71,0a79.12,79.12,0,0,0,24.5-4c5.56-1.94,9.31-5.37,11.28-11.11,2.89-8.48,5.14-17.13,7.55-25.74a4.08,4.08,0,0,0-3.32-5.18,7.78,7.78,0,0,0-5,1c-7.12,3.63-14.21,7.34-21.39,10.83q-25.67,12.48-51.41,24.77c-1.51.72-2.55,1.69-2.55,3.41a3.46,3.46,0,0,0,2.55,3.42,23.66,23.66,0,0,0,5.74,1.52C472.51,432.13,481,432.48,489.43,432.91Zm91.41-71.22a37.79,37.79,0,0,0,4.5-.8c6.57-2,13.09-4.17,19.65-6.2,2.26-.7,3.3-2.16,3.84-4.41,1-4.18.24-8.26-.26-12.38a36.37,36.37,0,0,0-5-13.63,13.3,13.3,0,0,0-1.48-1.88c-1.84-2.14-4.28-2.15-6.57-1.17-1.61.69-3.09,1.67-4.64,2.5-5.14,2.73-10.22,5.59-15.45,8.15A84.19,84.19,0,0,0,561,340.24a28.29,28.29,0,0,1-3,2,28.14,28.14,0,0,0-11.77,12.9A101.1,101.1,0,0,1,536.52,372a6.72,6.72,0,0,0-.73,1.24,3.56,3.56,0,0,0,.84,4.17,3.32,3.32,0,0,0,4,.46,19.2,19.2,0,0,0,2.48-1.46c6.51-4.78,13.1-9.45,19.44-14.43a10.47,10.47,0,0,1,9.6-2.09C575.09,360.55,578.08,361.1,580.84,361.69ZM185,396.92c-.68.88-1.07,1.38-1.45,1.89a8.15,8.15,0,0,0,2.63,12.13,11.86,11.86,0,0,0,11.28-.31c5.18-2.73,6.69-7.77,4-13a37,37,0,0,1-2.93-6.8,13.76,13.76,0,0,0-7.77-8.9c-2.51-1.22-5-2.51-7.48-3.8s-4-2.84-3.5-6a11.15,11.15,0,0,0-3.46-10.46c-3-2.72-6.26-4.66-10.38-4.95a4.91,4.91,0,0,0-5.59,4.58c-.32,2.28-.89,4.53-1.39,6.78-1.84,8.29-6.64,14.36-13.95,18.53a3.42,3.42,0,0,0-1.37,4.93,7.78,7.78,0,0,0,2.17,1.79c1.38.94,2.84,1.76,4.2,2.73,1.77,1.27,1.65,3.36,2,5.2.27,1.46-.85,2.25-1.77,3.18a10.85,10.85,0,0,0-3.53,7.63c0,4.36,4.82,8.7,9.64,8.48a16.35,16.35,0,0,0,10.28-4.05c3.79-3.35,4.16-8.28,1-12a32.55,32.55,0,0,0-3.53-3c.11-3.21.71-6.36,3.31-8.8.87-.82,1.62-1.77,2.46-2.62,1.41-1.43,2-1.52,3.77-.49s3.31,1.94,4.91,3C180.7,394,182.79,395.4,185,396.92ZM567.64,372a10.64,10.64,0,0,0-1.5,0c-3.23.5-6.56.81-9.11,3.16a15.23,15.23,0,0,0-4.1,7.2c-1.38,4.83-2.56,9.72-3.87,14.57a43.19,43.19,0,0,1-1.68,5.24c-2.1,5.09-4.25,10.16-6.5,15.18-5.53,12.3-9.25,25.19-12.72,38.16-.62,2.31-.85,4.72-1.25,7.08a3.57,3.57,0,0,0,5.82,3.6l.21-.13c2.34-1.79,4.82-3.45,7-5.42,4-3.58,7.77-7.37,11.67-11a7.6,7.6,0,0,0,2.18-4.12c1.51-6.7,2.91-13.44,4.83-20,4.22-14.46,10.47-28.13,16.75-41.77a26.78,26.78,0,0,0,1.51-5.27,3.48,3.48,0,0,0-1.39-3.6A11.21,11.21,0,0,0,567.64,372ZM459.46,408.62a3.3,3.3,0,0,0,4.71,3.45,54.2,54.2,0,0,0,6.5-3.06c15.43-8.31,30.19-17.73,44.86-27.28a24.57,24.57,0,0,0,3.79-3.29c2.49-2.47,5-5,7.34-7.56a31.6,31.6,0,0,0,3.74-5,3.45,3.45,0,0,0-2.85-5.24,5.94,5.94,0,0,0-2.83,1.09,44.18,44.18,0,0,1-14.91,6.35c-5,1.06-10,2.24-15.12,2.48s-10.06.49-15.07,1a44.56,44.56,0,0,0-13.51,3.05c-2.32,1-4.1,2.51-4,5.38a6,6,0,0,1-.18,1.18A164.87,164.87,0,0,0,459.46,408.62Zm101,89.3c8.44,0,15.68-3.15,22.13-8.2a16.29,16.29,0,0,0,3.87-5.09,5.24,5.24,0,0,0-.61-6.05c-1.86-2.45-4.37-3.94-7-5.39s-5.07-2.49-7.22-4.21c-3-2.38-5.6-5.22-8.36-7.87a3.06,3.06,0,0,1-.4-.59c-1.72-2.52-3.91-3.18-6.84-2.24A20.21,20.21,0,0,0,550,462c-5.91,4.62-11.44,9.78-18.42,12.87a5.11,5.11,0,0,0-.8.54c-2.69,1.91-3,3.6-1.06,6.2a41.08,41.08,0,0,0,7.79,8,36.29,36.29,0,0,0,13.31,6.8C554,497.16,557.23,497.43,560.46,497.92ZM350,316.83c-.58-1.24-.92-2.76-1.83-3.77-2.07-2.29-4.09-4.66-6.82-6.32-3.06-1.87-6-3.92-8.94-6a208.08,208.08,0,0,0-21-12.89,13.83,13.83,0,0,0-1.95-.91,3.48,3.48,0,0,0-3.95.91,3.35,3.35,0,0,0-.5,4,7.52,7.52,0,0,0,1.11,1.85,17,17,0,0,1,3,5.91c2.3,6.59,3.5,13.44,4.74,20.27,1.28,7.06,2.27,14.17,3.41,21.26a15.92,15.92,0,0,0,.57,2.57c1.74,5.05,4.75,5.89,8.78,2.35A150.24,150.24,0,0,0,343,329.2a40.17,40.17,0,0,0,6.16-9.95C349.45,318.53,349.67,317.76,350,316.83Zm103.77,67.93c-.31-8.56-.69-15.25-2.12-21.83a3.49,3.49,0,0,0-3.34-2.9,3.44,3.44,0,0,0-3.38,2.53,9.21,9.21,0,0,0-.22.94c-.57,2.73-1.14,5.46-1.73,8.19a49.41,49.41,0,0,1-13.54,25.42c-5,5-9.67,10.2-14.42,15.37A15.82,15.82,0,0,0,412.6,416c-1.46,2.86-.72,4.75,2.33,5.79,2.18.74,4.46,1.23,6.7,1.78a70.42,70.42,0,0,0,20.19,2.13,4.83,4.83,0,0,0,4.33-2.78,46.81,46.81,0,0,0,6-18.07C453,397.59,453.34,390.24,453.76,384.76ZM215,132.19c0-1,0-1.88,0-2.75a20.77,20.77,0,0,0-2.84-10c-3.12-5.16-7.37-6.69-13.83-5.24a6.27,6.27,0,0,0-2.36,1.12,3.27,3.27,0,0,0-.16,5.36,21.46,21.46,0,0,1,4.47,5.88c2.14,3.65,2.94,7.78,3.7,11.84,1.07,5.76.77,11.62.49,17.45,0,1-.36,2.06-.37,3.09a3.25,3.25,0,0,0,3.9,3.44c.86-.11,1.7-.44,2.56-.58,10.22-1.67,20-4.81,29.74-8.29,5.19-1.87,10.21-4.17,15.6-5.45a35,35,0,0,0,4.16-1.14,5.54,5.54,0,0,0,2.35-1.49c1.33-1.6.63-3.11-1.46-3.34-4.68-.51-9.38-.92-14-1.5-4-.51-8.09-1.06-12.08-1.83A81.56,81.56,0,0,1,215,132.19ZM360.5,351.41a21.33,21.33,0,0,0-4.9-14.66,4.5,4.5,0,0,0-6.59-.67l-10.53,10.14c-4.2,4-9.17,6.91-14.33,9.49a8.1,8.1,0,0,1-1.82.53c-3.28.75-4.43,2.59-3.37,5.82.66,2,1.7,3.95,2.47,6,2.43,6.36,6.7,11.4,11.45,16.09a8.82,8.82,0,0,0,1.78,1.2,3.62,3.62,0,0,0,4.63-.36c3.48-2.95,7.1-5.72,10.41-8.85,5-4.74,8.84-10.33,10-17.31C360.21,356,360.33,353.23,360.5,351.41ZM352,261.51c.06-1,.18-2.31.18-3.58s-.12-2.54-.18-3.82a3.59,3.59,0,0,0-1.75-3c-2.32-1.55-4.25-1.58-6.61.23s-4.61,3.7-6.81,5.66A74,74,0,0,1,314.35,271c-1.85.72-3.37,1.54-3.47,3.74s1.53,3.09,3.33,3.82a49.75,49.75,0,0,1,12,6.5c7.35,5.64,14.77,11.18,22.21,16.7a8.93,8.93,0,0,0,3.4,1.6,3.22,3.22,0,0,0,3.86-3,17.26,17.26,0,0,0,.07-2.16A112.79,112.79,0,0,0,354,279.12,100.57,100.57,0,0,1,352,261.51Zm220.38,1.33c-4.15.26-8.3.5-12.44.79a34.43,34.43,0,0,0-4.05.49c-2.09.38-3.22,1.43-3.49,3.12a3.9,3.9,0,0,0,1.94,4.28c2,1.26,4,2.61,6.07,3.87,2.71,1.69,5.64,3.09,8.16,5a195.28,195.28,0,0,1,22.27,20.38l.15.18c1.92,2,4.29,2,6-.19A25.76,25.76,0,0,0,602.11,280a18.58,18.58,0,0,0-4.52-9.63c-3.17-3.42-7.36-5.31-11.86-6.38A44.58,44.58,0,0,0,572.4,262.84ZM640.47,405a8.18,8.18,0,0,0-1.08-2.19,3.24,3.24,0,0,0-5.46,1.12c-.7,1.69-1,3.55-1.72,5.22-2.74,6.28-5.47,12.58-8.43,18.76-3.56,7.41-7.39,14.67-11.43,21.85-3.63,6.46-7,13.11-8.79,20.39a16.21,16.21,0,0,0-.62,3.28,3.22,3.22,0,0,0,3.47,3.44c3-.25,6-.6,9-1.09a6.48,6.48,0,0,0,2.7-1.37c2.58-2.05,4.09-4.87,5.33-7.84,3.32-8,6.22-16.07,8.77-24.32a236.27,236.27,0,0,0,6.42-24.52C639.43,413.67,639.84,409.53,640.47,405ZM195.75,150.42c-.36-4.46-.51-8.07-1-11.62-.74-5.48-1.66-10.88-5.89-15.09-2.37-2.35-3.48-2.8-6.47-1.19a28.26,28.26,0,0,0-14.81,19.62,29.72,29.72,0,0,0-.22,13.78A42.67,42.67,0,0,0,173,168.83a20.68,20.68,0,0,0,2.46,2.92,3.86,3.86,0,0,0,4.38,1.08c3.73-1.4,7.49-2.75,11.14-4.34a4.54,4.54,0,0,0,3-3.46C194.64,159.89,195.23,154.74,195.75,150.42ZM283,447a7.86,7.86,0,0,1-1.33.11c-2.39-.21-4.79-.36-7.15-.71-5.37-.81-10.77-1.5-15.89-3.5-1.14-.45-2.11-1-2.12-2.29,0-3-1.75-4.69-3.89-6.46-5.05-4.16-12.16-2.81-15.88,1.11a4.71,4.71,0,0,0-.88,5.7c2,4.17,7.74,7.37,13.09,6.44a4.66,4.66,0,0,1,3.16.57,58.37,58.37,0,0,0,13.6,5.25c10.14,2.4,20.34,3.17,30.65,1,4.91-1,6.33-4.75,3.17-8.68a10.89,10.89,0,0,0-1.88-2.16,12.11,12.11,0,0,0-3.93-2.11,13.71,13.71,0,0,0-8,.79,3.68,3.68,0,0,0-2.3,2.58C283.18,445.33,283.12,446.05,283,447Zm22.3-41.25c8.39-.5,14.74-4.55,19.36-11.46a3.9,3.9,0,0,0,.36-2.74c-.84-3.41-1.72-6.88-3.79-9.76-3.06-4.28-6.29-8.45-9.64-12.51-2.07-2.52-4.92-3.11-8.05-2.1a4.94,4.94,0,0,0-3.35,4.26,6.26,6.26,0,0,0,4.39,6.21,18.11,18.11,0,0,1,6.4,3.13c2.71,1.9,2.93,4.26,2.28,7a2.6,2.6,0,0,1-3,2.18,8,8,0,0,1-1.87-.35,10.64,10.64,0,0,0-11.87,4.1c-2.47,3.59-2.21,6.12.13,8.69A10.47,10.47,0,0,0,305.26,405.74Z" transform="translate(-0.48 -0.48)"/><path class="cls-1" d="M338,227.22a167.08,167.08,0,0,1-45-8.92c-3.39-1.17-6.56-3-10-4.06-5.57-1.69-11.29-2.9-16.91-4.45-7.07-1.95-14.33-2.31-21.58-2.94-12.38-1.06-24.77-.77-37.16-.43a115.63,115.63,0,0,0-25.63,3.3,63.26,63.26,0,0,1-7.81,1.09,4.47,4.47,0,0,1-5-2.93,5.74,5.74,0,0,1,.62-6.1,50.72,50.72,0,0,0,3.29-5,7.26,7.26,0,0,0,.77-3c.55-6.65,3.61-11.43,10-14A298.64,298.64,0,0,1,230.8,165.5a121.49,121.49,0,0,0,28.89-10.8c5.19-2.63,10.17-5.69,15.26-8.55s10-5.67,15.08-8.37a3.53,3.53,0,0,1,5.41,2.92,6.29,6.29,0,0,1-.58,2.29c-1.23,3.21-2.66,6.35-3.7,9.62a26.91,26.91,0,0,0,1.53,20.75c2,4,4.33,7.94,7.74,10.86a46.44,46.44,0,0,0,9.39,6.14,77.22,77.22,0,0,0,15.44,5.82,13.39,13.39,0,0,1,7.59,5.11A92.6,92.6,0,0,1,341,214c1,2,2.36,3.8,3.51,5.71a15.7,15.7,0,0,1,1.17,2.36,3.76,3.76,0,0,1-3.54,5.34C340.76,227.44,339.4,227.29,338,227.22Zm-84.93-36.51,0-.17c.71,0,1.43,0,2.14,0a2.36,2.36,0,0,0,2.24-1.82,3.3,3.3,0,0,0-.79-3.52,2.29,2.29,0,0,0-2.87-.29c-1.35.66-2.64,1.45-4,2.17-.64.35-1.41.75-1.12,1.57a2.7,2.7,0,0,0,1.35,1.5A14.73,14.73,0,0,0,253.11,190.71Zm-46.58-3.59a29.24,29.24,0,0,0,3.43-.5c1.33-.35,1.63-1.43.78-2.58a8.21,8.21,0,0,0-1.3-1.4,1.55,1.55,0,0,0-2.6.42C206.28,184.23,205.67,185.51,206.53,187.12Z" transform="translate(-0.48 -0.48)"/><path class="cls-1" d="M417.65,387.45a16.94,16.94,0,0,1-4,9.77c-3.53,3.81-7.16,7.53-10.93,11.1-3.94,3.73-8.18,7.16-12.13,10.89-2.9,2.74-5.59,5.72-8.28,8.66-8.1,8.85-16.07,17.83-24.92,25.95-4.06,3.72-8.38,7.17-12.67,10.64a28.2,28.2,0,0,1-11,5.19,5.58,5.58,0,0,1-5-.8c-3.24-2.32-6.58-4.49-9.87-6.74-4.14-2.84-6.6-7.14-9.24-11.21-.68-1-.55-2.79-.39-4.16a40,40,0,0,1,3.33-12,79.68,79.68,0,0,1,5.85-11,229.67,229.67,0,0,1,19.45-25.24c7-7.75,14.34-15,21.72-22.35A46.81,46.81,0,0,1,371,367.55c4.62-2.39,9.33-3.24,14.3-1.15,6.18,2.6,12.38,5.17,18.56,7.76,2.66,1.11,5.32,2.2,7.94,3.37C415.85,379.33,417.51,382.66,417.65,387.45Z" transform="translate(-0.48 -0.48)"/><path class="cls-1" d="M442.47,250.1c-.43,5.57-.68,11.17-1.36,16.72a87,87,0,0,1-2.51,12.92,41.46,41.46,0,0,1-3.82,8.5c-1.12,2.08-3.57,2.29-5.31.62-6.22-6-12.49-11.91-18.56-18.05-2.57-2.6-4.58-5.76-7.05-8.48-4.34-4.79-8.8-9.5-13.31-14.14a36.57,36.57,0,0,0-5-4.12,71,71,0,0,1-11.78-10.53,15.27,15.27,0,0,1-1.65-2c-2.29-3.77-5.62-6.53-9-9.26-4-3.24-8-6.37-11.86-9.73a16.85,16.85,0,0,1-6-11.39,7.76,7.76,0,0,1,2.12-6.41c2.1-2.08,4.1-4.27,6.19-6.36,2.89-2.89,5.83-5.73,8-9.23a5.36,5.36,0,0,1,5.76-2.57c7.45,1.09,14.62,2.75,21.27,6.77,11.94,7.21,22.54,16.05,32.63,25.53,6,5.63,11.56,11.72,17.3,17.63a3.86,3.86,0,0,1,1,1.59C441.47,235.28,443,242.55,442.47,250.1Z" transform="translate(-0.48 -0.48)"/><path class="cls-1" d="M565,442.63c.49-2.74.89-5.49,1.48-8.21.94-4.29,2-8.56,3-12.83a135.25,135.25,0,0,1,7.69-21.91c2.6-5.93,5.29-11.81,8.42-17.48A48,48,0,0,1,599.5,366,18.6,18.6,0,0,1,611.09,362c3.75.12,7.49.38,11.23.36,7,0,10.84,6.64,11.3,11.57a32,32,0,0,1-2.68,15.9c-5.67,13.13-11.34,26.27-16.87,39.46a270.76,270.76,0,0,1-13.15,28c-1.61,2.85-3.34,5.65-5.2,8.34-2.6,3.78-5.78,4.34-9.7,1.91a101.61,101.61,0,0,1-15.48-12A16.24,16.24,0,0,1,565,442.63Z" transform="translate(-0.48 -0.48)"/><path class="cls-1" d="M289.11,268.38c-3.34-.36-6.67-.68-10-1.07-6.23-.74-12.31-2-17.81-5.25-1.58-.93-3.05-2.06-4.68-2.89-5-2.55-7.75-7-10.14-11.7a33.2,33.2,0,0,0-6-8.36A32,32,0,0,0,236.6,236c-.84-.61-1.8-1-2.63-1.66a10.84,10.84,0,0,0-5.6-1.91c-4.05-.39-8.1-.77-12.14-1.26a116,116,0,0,1-25.39-6c-.82-.3-1.73-.33-2.55-.62a7.24,7.24,0,0,1-2.3-1.17,3.44,3.44,0,0,1,2.34-6c2-.09,4-.19,6-.47a181.22,181.22,0,0,1,34.92-1.56,230.85,230.85,0,0,1,46.61,7.07q24.93,6.48,49.85,13a29.13,29.13,0,0,0,8.31.82,13.75,13.75,0,0,1,3.57.27A3.28,3.28,0,0,1,339.4,242c-2.28,2.88-4.6,5.74-7,8.5-3.21,3.69-7.43,6-11.59,8.42A71.44,71.44,0,0,1,289.11,268.38Z" transform="translate(-0.48 -0.48)"/><path class="cls-1" d="M230.08,299.28a7,7,0,0,1-2.13,5.57c-3.66,3.7-7.39,7.31-11,11-6.07,6.25-12.21,12.41-17.44,19.44-3.38,4.54-7.3,8.68-11.08,12.92a27.14,27.14,0,0,1-3.65,3.08,4.42,4.42,0,0,1-5.55.22c-4-2.45-8.28-3.88-13-3.32-2.35.28-4.64,1-7,1.55a24.15,24.15,0,0,1-3.75.66,4.94,4.94,0,0,1-4.79-2.57c-1.08-1.77-2.51-3.31-3.63-5.05a16.93,16.93,0,0,1-1.79-3.89,4.27,4.27,0,0,1,0-2.55c2.75-7.77,5.64-15.5,10.1-22.48a113.69,113.69,0,0,1,8.28-11.45c8.46-10.09,18.26-18.6,30.23-24.35,2.21-1.06,4.64-1.68,6.94-2.57s4.5-1.66,6.66-2.7c3.54-1.72,7.7-.52,9,3.27a87.61,87.61,0,0,0,5.33,11.26,29.38,29.38,0,0,0,3.24,4.43c1.15,1.43,2.39,2.8,3.59,4.18A4.2,4.2,0,0,1,230.08,299.28Z" transform="translate(-0.48 -0.48)"/><path class="cls-1" d="M222.16,264.32c-.69-6.07,2.07-10.49,6.52-14.18,1.1-.91,2.14-1.91,3.18-2.91a3.6,3.6,0,0,1,3.95-1,3.52,3.52,0,0,1,2.27,3.36,26,26,0,0,0,2.64,8.91c.34.72.72,1.43,1,2.16,3.62,8.48,10.26,13.39,18.86,16q5,1.51,10.14,2.84c2.71.7,5.44,1.27,8.18,1.84a37.34,37.34,0,0,1,11.85,4.23,10.84,10.84,0,0,1,5,6.12c2.83,8.66,5.89,17.23,8.7,25.89A114.37,114.37,0,0,1,310,346.94a15.4,15.4,0,0,1,0,2.63c-.27,2.44-2.44,3.92-4.67,2.9a38.36,38.36,0,0,1-5.43-3.43c-1.31-.88-2.47-2-3.84-2.8-8.14-4.68-14.89-11-21.06-18a209.94,209.94,0,0,1-18.3-23.71,43.25,43.25,0,0,0-3.94-5.72c-3.23-3.48-6.95-6.34-11.72-7.5-.54-.13-1.08-.3-1.63-.41-7.82-1.45-12.37-6.43-14.75-13.73a46.85,46.85,0,0,1-1.79-6C222.43,269,222.37,266.62,222.16,264.32Z" transform="translate(-0.48 -0.48)"/><path class="cls-1" d="M447.65,305.16A143.7,143.7,0,0,1,450.87,279c.89-4.29,1.41-8.66,2.19-13,.92-5,.33-10.06-.24-15.05-.53-4.66-1.49-9.28-2.29-13.92-.35-2.1.15-3.53,1.6-4.36s3-.54,4.71,1.05a30.66,30.66,0,0,0,8.8,5.7c9.76,4.2,19.55,8.33,29.29,12.54,5.21,2.25,6.36,5,6.15,10.17a65.63,65.63,0,0,1-3.77,18.48c-4.66,13.66-13,24.83-23.63,34.37-4.22,3.79-8.67,7.32-13,11a11.14,11.14,0,0,0-2.2,2.19c-1.58,2.38-5,2-6.36-.76A44,44,0,0,1,447.65,305.16Z" transform="translate(-0.48 -0.48)"/><path class="cls-1" d="M530.11,334c0-5.35.15-10.7,0-16a109.9,109.9,0,0,0-2.78-20.4,114.91,114.91,0,0,0-4.45-14.38,78.82,78.82,0,0,0-4.59-11,47.25,47.25,0,0,0-7.14-9.86,4,4,0,0,1-1.34-3,3.55,3.55,0,0,1,5.06-3.3c6.67,2.88,13.35,5.75,19.37,9.92,2.43,1.68,5,3.17,7.49,4.74a315.38,315.38,0,0,1,25.66,18.49,149.47,149.47,0,0,1,12.54,11.49c2.73,2.68,5.24,5.59,7.77,8.48,3.79,4.34,3.19,6.8-2.15,8.94a140.25,140.25,0,0,0-31.82,17.54c-1.47,1.09-2.89,2.27-4.35,3.38-4,3.06-8.25,5.77-13.3,6.85-2.59.55-4.13-.1-4.78-2.65-.77-3-1.09-6.1-1.61-9.15Z" transform="translate(-0.48 -0.48)"/><path class="cls-1" d="M439.81,323.1c-.16,1.66-.43,3.33-.45,5,0,2.06.11,4.13.27,6.19a3.61,3.61,0,0,1-1.41,3.59,3.12,3.12,0,0,1-3.4.25,6,6,0,0,1-1.64-1.37,85.74,85.74,0,0,1-8.11-11.26c-2-3.1-4.15-6.05-6.32-9a10.55,10.55,0,0,0-5.69-4.16,20,20,0,0,1-2.81-1.34c-2.8-1.34-5.54-2.83-8.43-4a179.9,179.9,0,0,0-26-7.55c-2.53-.58-5.14-1-7.35-2.71a15.42,15.42,0,0,1-5.94-8.75,48.69,48.69,0,0,1-1.53-8.69c-.6-9.65-.88-19.32-1.51-29a52.31,52.31,0,0,0-1.74-8.66,3.8,3.8,0,0,1,1.06-4.14,3.69,3.69,0,0,1,4.84,0c5,3.9,10,7.74,14.84,11.77a73.1,73.1,0,0,1,6.16,6q10.71,11.16,21.37,22.37,13.47,14.16,26.9,28.36c.83.86,1.49,1.88,2.29,2.77,3.37,3.71,4.56,8.15,4.45,13,0,.4,0,.8,0,1.2Z" transform="translate(-0.48 -0.48)"/><path class="cls-1" d="M522.52,332.2c-.68,6-1.44,12.91-2.24,19.81a5.53,5.53,0,0,1-3.59,4.62,62.32,62.32,0,0,1-25,5.9c-6.79.22-13.57.59-20.36.89a22.53,22.53,0,0,1-8.5-1.12,4.2,4.2,0,0,1-3-3.34,19.54,19.54,0,0,1,.33-9.49,36.33,36.33,0,0,1,6.77-12.56c5-6.31,11.25-11.33,17.28-16.56a75.46,75.46,0,0,0,8.15-8.43c4.09-4.86,7.69-10,9.88-16,.6-1.64,1-3.35,1.54-5a8.07,8.07,0,0,1,2.46-4.3c1.59-1.26,3.37-1.36,4.73.11a13.68,13.68,0,0,1,2.78,4.12c1.35,3.5,2.38,7.11,3.56,10.67.79,2.42,1.75,4.8,2.39,7.26a58,58,0,0,1,2.14,13.69C521.83,325.36,522.21,328.3,522.52,332.2Z" transform="translate(-0.48 -0.48)"/><path class="cls-1" d="M102.67,378.48c-6.22,1.36-12,2.67-17.75,3.88a30,30,0,0,1-14-.26,3.17,3.17,0,0,0-2.72.29c-6,3.66-15.15.49-17.23-8a12.28,12.28,0,0,1,8.19-14.19,9.81,9.81,0,0,1,4.93.09,12.85,12.85,0,0,1,7.93,5.8,4.45,4.45,0,0,0,3,2.08c4.68,1.16,9.41.88,14.07.25a116.39,116.39,0,0,0,12.16-2.58,11.94,11.94,0,0,0,6.16-3.92,33.88,33.88,0,0,1,4.52-4.28c4.71-3.71,9.5-7.38,15.24-9.37a40.11,40.11,0,0,1,7.68-1.73c3.66-.49,6.74,1,9.29,3.54a40.72,40.72,0,0,1,3.92,4.83c2.9,3.85,2.62,8.07.57,12-6,11.54-14.32,20.92-26.09,26.92a11.74,11.74,0,0,0-2.69,1.94c-2.26,2.15-4.46,4.36-6.63,6.6a27.75,27.75,0,0,0-1.72,2.28c-1.43,1.82-2.79,3.69-4.33,5.4-3.13,3.46-7.18,4-11.45,3.07a16.33,16.33,0,0,1-8.32-4.49c-2.63-2.69-3.31-6.46-1.63-9.21a10.24,10.24,0,0,1,9.56-4.33,4.18,4.18,0,0,0,2.28,0,23.43,23.43,0,0,0,4.72-2.76c2.57-2.08,2.45-5.09,2-8A42.68,42.68,0,0,0,102.67,378.48Z" transform="translate(-0.48 -0.48)"/><path class="cls-1" d="M530.63,506.65c-3-2.26-5.79-4.12-9.19-4.93a3.9,3.9,0,0,0-1.84.19,10.83,10.83,0,0,1-10.93-3.67c-3.08-4.1-.9-10.78,4.07-12.08,4.24-1.1,8.27-.85,11.51,2.65,1.35,1.46,2.76,2.87,4.14,4.3a9.74,9.74,0,0,0,1,1c4,3,7.74,6.24,12,8.79,3,1.83,6.56,2.87,10,4,5.87,1.93,11.82.94,17.8.29,8.82-1,15.59-5.87,22.28-10.92,3.69-2.79,7-6.08,10.53-9.08a12,12,0,0,1,3.38-2.17c2.63-1,4.81.94,4.53,3.72a31.07,31.07,0,0,1-3,10.53,76.19,76.19,0,0,1-9.08,14.35,27.31,27.31,0,0,1-6.7,6c-5.94,3.82-10.57,9-14.74,14.62a3.22,3.22,0,0,0-.7,1.22c-.44,2.46-2.05,4.13-3.78,5.67a23.62,23.62,0,0,1-9,5.35,15.29,15.29,0,0,1-12.06-1.07c-4.2-2.28-4.34-9.65.21-12.3a15.31,15.31,0,0,1,3.53-1.44c2.37-.67,3.39-2.57,4.25-4.54a2.35,2.35,0,0,0-1.08-2.72c-4.8-3.62-9.94-5.83-16.07-3.69-2.87,1-5.77,1.91-8.59,3a5.33,5.33,0,0,0-2.09,1.81,15.81,15.81,0,0,1-6.84,5.45,8.79,8.79,0,0,1-9.92-1.63c-4.44-3.79-3.26-10.88,0-13.37a10.18,10.18,0,0,1,3.73-2c4.26-.93,7.7-3.41,11.31-5.59C529.74,508,530.06,507.35,530.63,506.65Z" transform="translate(-0.48 -0.48)"/><path class="cls-1" d="M364.79,317.73c.2-2.83.29-5,.51-7.13s1.3-3,3.38-3.44A21.19,21.19,0,0,1,381.74,309a160.56,160.56,0,0,1,21.58,11.9,73.26,73.26,0,0,1,14.3,12.71c4.14,4.55,8.3,9.08,12.33,13.74a69.71,69.71,0,0,1,4.26,6,10.36,10.36,0,0,1,1.52,7.82c-.61,3.52-1.56,7-2.44,10.46a19.49,19.49,0,0,1-1.22,3.38,3.4,3.4,0,0,1-5.88.87c-3.23-3.79-7.35-6.38-11.66-8.61-3.82-2-7.86-3.51-11.84-5.17-5.37-2.25-10.88-4.21-16.14-6.71a76.21,76.21,0,0,1-12.2-7.06c-4.92-3.57-8-8.44-7.75-14.89a35.82,35.82,0,0,0-.54-5.23C365.62,324.52,365.16,320.8,364.79,317.73Z" transform="translate(-0.48 -0.48)"/><path class="cls-1" d="M300.54,489.71A17.69,17.69,0,0,1,292.9,488c-2.85-1.29-5.49-2.88-8.19-4.43a11.56,11.56,0,0,0-11.89-.09,32.27,32.27,0,0,1-12.32,3.68c-2.21.26-4.46.24-6.68.45a3.21,3.21,0,0,0-1.85.77c-3.88,3.93-10.31,2.22-12.85-.9-2.27-2.81-1.85-8.51.66-11.13,2.79-2.92,6.21-2.9,9.77-2.34,1.14.17,2.14.44,3-.68,1.3-1.64.86-3.27-1.21-3.77-1.16-.29-2.38-.31-3.54-.57-4.68-1.05-9.34-2.14-14-3.22-1.08-.25-2.18-.49-3.24-.84a4.27,4.27,0,0,0-3.42.46,9.26,9.26,0,0,1-3.42.67,14.53,14.53,0,0,1-7.6-1.63c-3.56-1.84-6.07-8-4.31-11.38A12.56,12.56,0,0,1,218,447a16.13,16.13,0,0,1,9.61-1.09,13.29,13.29,0,0,1,6.93,4,3.32,3.32,0,0,1,1,1.62,2.46,2.46,0,0,0,2.45,2.18,2.49,2.49,0,0,0,.7.14c4.89-.47,8.86,2.11,13.13,3.83,8.51,3.43,17.33,5.69,26.6,5.34a44.43,44.43,0,0,0,8.25-1.23,30.35,30.35,0,0,1,23.11,3.43,70.49,70.49,0,0,1,6,4.32c1.92,1.44,3.79,2.93,5.68,4.4,2.06,1.61,2.27,3.72.39,5.53s-4,3.66-6.06,5.39C311.52,488.45,305.81,489.41,300.54,489.71Z" transform="translate(-0.48 -0.48)"/><path class="cls-1" d="M359.21,156.09a44.15,44.15,0,0,1-3.4,16.43,15.3,15.3,0,0,1-3.68,5.27c-4.95,4.57-10.67,7.92-17.4,9.09a22.43,22.43,0,0,1-12.93-1.42c-2-.86-4-1.58-6-2.51a32,32,0,0,1-14.35-13.34,22.36,22.36,0,0,1-2.33-15.11c1.23-7.55,5.16-13.77,10.48-19s11.86-7.11,19.14-6.52a41,41,0,0,1,20.7,7.51,21.58,21.58,0,0,1,6.72,8C358.19,148.32,359.42,152.47,359.21,156.09ZM342.83,158a7.13,7.13,0,0,0-.41-2,81.24,81.24,0,0,0-4.89-9.79c-2.85-4.37-5-4.73-9.33-1.76a71.43,71.43,0,0,0-8.28,6.88c-2.16,2-2.14,3.43-.61,5.93,1.88,3.07,3.67,6.17,4.24,9.82.25,1.57.61,3.12,1,4.68.41,1.84,1.4,2.53,3.29,2.31a8.19,8.19,0,0,0,4.64-2.29c3.31-3,6.7-5.9,9.21-9.68A6.3,6.3,0,0,0,342.83,158Z" transform="translate(-0.48 -0.48)"/><path class="cls-1" d="M489.43,432.91c-8.45-.43-16.92-.78-25.37-1.35a23.66,23.66,0,0,1-5.74-1.52,3.46,3.46,0,0,1-2.55-3.42c0-1.72,1-2.69,2.55-3.41q25.73-12.34,51.41-24.77c7.18-3.49,14.27-7.2,21.39-10.83a7.78,7.78,0,0,1,5-1,4.08,4.08,0,0,1,3.32,5.18c-2.41,8.61-4.66,17.26-7.55,25.74-2,5.74-5.72,9.17-11.28,11.11a79.12,79.12,0,0,1-24.5,4c-2.23.05-4.47,0-6.71,0Z" transform="translate(-0.48 -0.48)"/><path class="cls-1" d="M580.84,361.69c-2.76-.59-5.75-1.14-8.69-1.85a10.47,10.47,0,0,0-9.6,2.09c-6.34,5-12.93,9.65-19.44,14.43a19.2,19.2,0,0,1-2.48,1.46,3.32,3.32,0,0,1-4-.46,3.56,3.56,0,0,1-.84-4.17,6.72,6.72,0,0,1,.73-1.24,101.1,101.1,0,0,0,9.72-16.77A28.14,28.14,0,0,1,558,342.28a28.29,28.29,0,0,0,3-2,84.19,84.19,0,0,1,14.49-8.37c5.23-2.56,10.31-5.42,15.45-8.15,1.55-.83,3-1.81,4.64-2.5,2.29-1,4.73-1,6.57,1.17a13.3,13.3,0,0,1,1.48,1.88,36.37,36.37,0,0,1,5,13.63c.5,4.12,1.28,8.2.26,12.38-.54,2.25-1.58,3.71-3.84,4.41-6.56,2-13.08,4.18-19.65,6.2A37.79,37.79,0,0,1,580.84,361.69Z" transform="translate(-0.48 -0.48)"/><path class="cls-1" d="M185,396.92c-2.25-1.52-4.34-3-6.47-4.34-1.6-1-3.25-2-4.91-3s-2.36-.94-3.77.49c-.84.85-1.59,1.8-2.46,2.62-2.6,2.44-3.2,5.59-3.31,8.8a32.55,32.55,0,0,1,3.53,3c3.19,3.69,2.82,8.62-1,12a16.35,16.35,0,0,1-10.28,4.05c-4.82.22-9.66-4.12-9.64-8.48a10.85,10.85,0,0,1,3.53-7.63c.92-.93,2-1.72,1.77-3.18-.35-1.84-.23-3.93-2-5.2-1.36-1-2.82-1.79-4.2-2.73a7.78,7.78,0,0,1-2.17-1.79,3.42,3.42,0,0,1,1.37-4.93c7.31-4.17,12.11-10.24,13.95-18.53.5-2.25,1.07-4.5,1.39-6.78a4.91,4.91,0,0,1,5.59-4.58c4.12.29,7.39,2.23,10.38,4.95a11.15,11.15,0,0,1,3.46,10.46c-.47,3.19,1.07,4.77,3.5,6s5,2.58,7.48,3.8a13.76,13.76,0,0,1,7.77,8.9,37,37,0,0,0,2.93,6.8c2.68,5.2,1.17,10.24-4,13a11.86,11.86,0,0,1-11.28.31,8.15,8.15,0,0,1-2.63-12.13C184,398.3,184.36,397.8,185,396.92Z" transform="translate(-0.48 -0.48)"/><path class="cls-1" d="M567.64,372a11.21,11.21,0,0,1,7.86,2.83,3.48,3.48,0,0,1,1.39,3.6,26.78,26.78,0,0,1-1.51,5.27c-6.28,13.64-12.53,27.31-16.75,41.77-1.92,6.58-3.32,13.32-4.83,20a7.6,7.6,0,0,1-2.18,4.12c-3.9,3.67-7.7,7.46-11.67,11-2.19,2-4.67,3.63-7,5.42l-.21.13a3.57,3.57,0,0,1-5.82-3.6c.4-2.36.63-4.77,1.25-7.08,3.47-13,7.19-25.86,12.72-38.16,2.25-5,4.4-10.09,6.5-15.18a43.19,43.19,0,0,0,1.68-5.24c1.31-4.85,2.49-9.74,3.87-14.57a15.23,15.23,0,0,1,4.1-7.2c2.55-2.35,5.88-2.66,9.11-3.16A10.64,10.64,0,0,1,567.64,372Z" transform="translate(-0.48 -0.48)"/><path class="cls-1" d="M459.46,408.62A164.87,164.87,0,0,1,462,381.19a6,6,0,0,0,.18-1.18c-.12-2.87,1.66-4.38,4-5.38a44.56,44.56,0,0,1,13.51-3.05c5-.49,10-.74,15.07-1s10.12-1.42,15.12-2.48a44.18,44.18,0,0,0,14.91-6.35,5.94,5.94,0,0,1,2.83-1.09,3.45,3.45,0,0,1,2.85,5.24,31.6,31.6,0,0,1-3.74,5c-2.36,2.6-4.85,5.09-7.34,7.56a24.57,24.57,0,0,1-3.79,3.29c-14.67,9.55-29.43,19-44.86,27.28a54.2,54.2,0,0,1-6.5,3.06A3.3,3.3,0,0,1,459.46,408.62Z" transform="translate(-0.48 -0.48)"/><path class="cls-1" d="M560.46,497.92c-3.23-.49-6.51-.76-9.68-1.52a36.29,36.29,0,0,1-13.31-6.8,41.08,41.08,0,0,1-7.79-8c-2-2.6-1.63-4.29,1.06-6.2a5.11,5.11,0,0,1,.8-.54c7-3.09,12.51-8.25,18.42-12.87a20.21,20.21,0,0,1,6.12-3.69c2.93-.94,5.12-.28,6.84,2.24a3.06,3.06,0,0,0,.4.59c2.76,2.65,5.38,5.49,8.36,7.87,2.15,1.72,4.78,2.85,7.22,4.21s5.09,2.94,7,5.39a5.24,5.24,0,0,1,.61,6.05,16.29,16.29,0,0,1-3.87,5.09C576.14,494.77,568.9,497.9,560.46,497.92Z" transform="translate(-0.48 -0.48)"/><path class="cls-1" d="M350,316.83c-.32.93-.54,1.7-.85,2.42A40.17,40.17,0,0,1,343,329.2a150.24,150.24,0,0,1-16.33,16.85c-4,3.54-7,2.7-8.78-2.35a15.92,15.92,0,0,1-.57-2.57c-1.14-7.09-2.13-14.2-3.41-21.26-1.24-6.83-2.44-13.68-4.74-20.27a17,17,0,0,0-3-5.91,7.52,7.52,0,0,1-1.11-1.85,3.35,3.35,0,0,1,.5-4,3.48,3.48,0,0,1,3.95-.91,13.83,13.83,0,0,1,1.95.91,208.08,208.08,0,0,1,21,12.89c2.92,2.09,5.88,4.14,8.94,6,2.73,1.66,4.75,4,6.82,6.32C349.07,314.07,349.41,315.59,350,316.83Z" transform="translate(-0.48 -0.48)"/><path class="cls-1" d="M453.76,384.76c-.42,5.48-.76,12.83-1.61,20.11a46.81,46.81,0,0,1-6,18.07,4.83,4.83,0,0,1-4.33,2.78,70.42,70.42,0,0,1-20.19-2.13c-2.24-.55-4.52-1-6.7-1.78-3.05-1-3.79-2.93-2.33-5.79a15.82,15.82,0,0,1,2.41-3.54c4.75-5.17,9.45-10.41,14.42-15.37A49.41,49.41,0,0,0,443,371.69c.59-2.73,1.16-5.46,1.73-8.19a9.21,9.21,0,0,1,.22-.94A3.44,3.44,0,0,1,448.3,360a3.49,3.49,0,0,1,3.34,2.9C453.07,369.51,453.45,376.2,453.76,384.76Z" transform="translate(-0.48 -0.48)"/><path class="cls-1" d="M215,132.19a81.56,81.56,0,0,0,19.81,6.52c4,.77,8,1.32,12.08,1.83,4.67.58,9.37,1,14,1.5,2.09.23,2.79,1.74,1.46,3.34a5.54,5.54,0,0,1-2.35,1.49,35,35,0,0,1-4.16,1.14c-5.39,1.28-10.41,3.58-15.6,5.45-9.7,3.48-19.52,6.62-29.74,8.29-.86.14-1.7.47-2.56.58a3.25,3.25,0,0,1-3.9-3.44c0-1,.32-2.06.37-3.09.28-5.83.58-11.69-.49-17.45-.76-4.06-1.56-8.19-3.7-11.84a21.46,21.46,0,0,0-4.47-5.88,3.27,3.27,0,0,1,.16-5.36,6.27,6.27,0,0,1,2.36-1.12c6.46-1.45,10.71.08,13.83,5.24a20.77,20.77,0,0,1,2.84,10C215,130.31,215,131.18,215,132.19Z" transform="translate(-0.48 -0.48)"/><path class="cls-1" d="M360.5,351.41c-.17,1.82-.29,4.63-.76,7.38-1.2,7-5,12.57-10,17.31-3.31,3.13-6.93,5.9-10.41,8.85a3.62,3.62,0,0,1-4.63.36,8.82,8.82,0,0,1-1.78-1.2c-4.75-4.69-9-9.73-11.45-16.09-.77-2-1.81-3.92-2.47-6-1.06-3.23.09-5.07,3.37-5.82a8.1,8.1,0,0,0,1.82-.53c5.16-2.58,10.13-5.45,14.33-9.49L349,336.08a4.5,4.5,0,0,1,6.59.67A21.33,21.33,0,0,1,360.5,351.41Z" transform="translate(-0.48 -0.48)"/><path class="cls-1" d="M352,261.51A100.57,100.57,0,0,0,354,279.12a112.79,112.79,0,0,1,1.75,19.06,17.26,17.26,0,0,1-.07,2.16,3.22,3.22,0,0,1-3.86,3,8.93,8.93,0,0,1-3.4-1.6c-7.44-5.52-14.86-11.06-22.21-16.7a49.75,49.75,0,0,0-12-6.5c-1.8-.73-3.43-1.53-3.33-3.82s1.62-3,3.47-3.74A74,74,0,0,0,336.85,257c2.2-2,4.47-3.86,6.81-5.66s4.29-1.78,6.61-.23a3.59,3.59,0,0,1,1.75,3c.06,1.28.18,2.55.18,3.82S352.08,260.48,352,261.51Z" transform="translate(-0.48 -0.48)"/><path class="cls-1" d="M572.4,262.84A44.58,44.58,0,0,1,585.73,264c4.5,1.07,8.69,3,11.86,6.38a18.58,18.58,0,0,1,4.52,9.63A25.76,25.76,0,0,1,597,300.78c-1.68,2.2-4.05,2.17-6,.19l-.15-.18a195.28,195.28,0,0,0-22.27-20.38c-2.52-1.93-5.45-3.33-8.16-5-2-1.26-4-2.61-6.07-3.87a3.9,3.9,0,0,1-1.94-4.28c.27-1.69,1.4-2.74,3.49-3.12a34.43,34.43,0,0,1,4.05-.49C564.1,263.34,568.25,263.1,572.4,262.84Z" transform="translate(-0.48 -0.48)"/><path class="cls-1" d="M640.47,405c-.63,4.53-1,8.67-1.83,12.73a236.27,236.27,0,0,1-6.42,24.52c-2.55,8.25-5.45,16.36-8.77,24.32-1.24,3-2.75,5.79-5.33,7.84a6.48,6.48,0,0,1-2.7,1.37c-3,.49-6,.84-9,1.09a3.22,3.22,0,0,1-3.47-3.44,16.21,16.21,0,0,1,.62-3.28c1.79-7.28,5.16-13.93,8.79-20.39,4-7.18,7.87-14.44,11.43-21.85,3-6.18,5.69-12.48,8.43-18.76.73-1.67,1-3.53,1.72-5.22a3.24,3.24,0,0,1,5.46-1.12A8.18,8.18,0,0,1,640.47,405Z" transform="translate(-0.48 -0.48)"/><path class="cls-1" d="M195.75,150.42c-.52,4.32-1.11,9.47-1.77,14.61a4.54,4.54,0,0,1-3,3.46c-3.65,1.59-7.41,2.94-11.14,4.34a3.86,3.86,0,0,1-4.38-1.08,20.68,20.68,0,0,1-2.46-2.92,42.67,42.67,0,0,1-5.58-12.91,29.72,29.72,0,0,1,.22-13.78,28.26,28.26,0,0,1,14.81-19.62c3-1.61,4.1-1.16,6.47,1.19,4.23,4.21,5.15,9.61,5.89,15.09C195.24,142.35,195.39,146,195.75,150.42ZM173.55,149c.38,3.5,1.13,7.51,2.23,9.63.25.48.9,1.09,1.31,1.06s1-.66,1.31-1.16a7.9,7.9,0,0,0,.49-2.08c1.05-5.63,1.54-11.37,3.71-16.75a9.17,9.17,0,0,0,.43-2.58,1.93,1.93,0,0,0-1.06-2.2c-1-.38-1.43.45-2,1a26.59,26.59,0,0,0-5,8.1A49,49,0,0,0,173.55,149Z" transform="translate(-0.48 -0.48)"/><path class="cls-1" d="M283,447c.16-.94.22-1.66.41-2.35a3.68,3.68,0,0,1,2.3-2.58,13.71,13.71,0,0,1,8-.79,12.11,12.11,0,0,1,3.93,2.11,10.89,10.89,0,0,1,1.88,2.16c3.16,3.93,1.74,7.65-3.17,8.68-10.31,2.16-20.51,1.39-30.65-1a58.37,58.37,0,0,1-13.6-5.25,4.66,4.66,0,0,0-3.16-.57c-5.35.93-11.12-2.27-13.09-6.44a4.71,4.71,0,0,1,.88-5.7c3.72-3.92,10.83-5.27,15.88-1.11,2.14,1.77,3.89,3.47,3.89,6.46,0,1.27,1,1.84,2.12,2.29,5.12,2,10.52,2.69,15.89,3.5,2.36.35,4.76.5,7.15.71A7.86,7.86,0,0,0,283,447Z" transform="translate(-0.48 -0.48)"/><path class="cls-1" d="M305.26,405.74a10.47,10.47,0,0,1-8.65-3.38c-2.34-2.57-2.6-5.1-.13-8.69a10.64,10.64,0,0,1,11.87-4.1,8,8,0,0,0,1.87.35,2.6,2.6,0,0,0,3-2.18c.65-2.71.43-5.07-2.28-7a18.11,18.11,0,0,0-6.4-3.13,6.26,6.26,0,0,1-4.39-6.21,4.94,4.94,0,0,1,3.35-4.26c3.13-1,6-.42,8.05,2.1,3.35,4.06,6.58,8.23,9.64,12.51,2.07,2.88,2.95,6.35,3.79,9.76a3.9,3.9,0,0,1-.36,2.74C320,401.19,313.65,405.24,305.26,405.74Z" transform="translate(-0.48 -0.48)"/><path d="M253.11,190.71a14.73,14.73,0,0,1-3-.56,2.7,2.7,0,0,1-1.35-1.5c-.29-.82.48-1.22,1.12-1.57,1.33-.72,2.62-1.51,4-2.17a2.29,2.29,0,0,1,2.87.29,3.3,3.3,0,0,1,.79,3.52,2.36,2.36,0,0,1-2.24,1.82c-.71,0-1.43,0-2.14,0Z" transform="translate(-0.48 -0.48)"/><path d="M206.53,187.12c-.86-1.61-.25-2.89.31-4.06a1.55,1.55,0,0,1,2.6-.42,8.21,8.21,0,0,1,1.3,1.4c.85,1.15.55,2.23-.78,2.58A29.24,29.24,0,0,1,206.53,187.12Z" transform="translate(-0.48 -0.48)"/><path d="M342.83,158a6.3,6.3,0,0,1-1.18,4.07c-2.51,3.78-5.9,6.68-9.21,9.68A8.19,8.19,0,0,1,327.8,174c-1.89.22-2.88-.47-3.29-2.31-.35-1.56-.71-3.11-1-4.68-.57-3.65-2.36-6.75-4.24-9.82-1.53-2.5-1.55-3.91.61-5.93a71.43,71.43,0,0,1,8.28-6.88c4.35-3,6.48-2.61,9.33,1.76a81.24,81.24,0,0,1,4.89,9.79A7.13,7.13,0,0,1,342.83,158Z" transform="translate(-0.48 -0.48)"/><path d="M173.55,149a49,49,0,0,1,1.47-5,26.59,26.59,0,0,1,5-8.1c.53-.56,1-1.39,2-1a1.93,1.93,0,0,1,1.06,2.2,9.17,9.17,0,0,1-.43,2.58c-2.17,5.38-2.66,11.12-3.71,16.75a7.9,7.9,0,0,1-.49,2.08c-.26.5-.83,1.12-1.31,1.16s-1.06-.58-1.31-1.06C174.68,156.5,173.93,152.49,173.55,149Z" transform="translate(-0.48 -0.48)"/></svg>