<svg id="Layer_1" data-name="Layer 1" xmlns="http://www.w3.org/2000/svg" viewBox="0 0 720 612"><defs><style>.cls-1{fill:none;stroke:#000;stroke-miterlimit:10;stroke-width:0.01px;}</style></defs><path d="M.48,612.48V.48h720v612Zm552.33-99.71,0,.38c5.28-.13,10.55-.23,15.82-.4a257.8,257.8,0,0,0,31.74-2.88,11.81,11.81,0,0,0,7.82-4.6c3.2-4.17,5.7-8.71,5.86-14.15.07-2.31,0-4.62-.06-6.93a18.83,18.83,0,0,0-5.5-12.43,10,10,0,0,0-6.63-3.47c-2.07-.13-4.15-.33-6.21-.29-2.48.06-4.94.36-7.41.53-4.07.27-8.14.51-12,2.05a5.15,5.15,0,0,1-1.4.3c-8,.81-15.88,1.77-23.84,2.37-7.48.55-15,.68-22.49,1.08-6,.32-12,1.09-17.59,3.34a36.72,36.72,0,0,0-8.47,4.37,40.1,40.1,0,0,0-9.61,10.61,9.87,9.87,0,0,0-1.27,2.56,37.28,37.28,0,0,0-.8,13.8,4.65,4.65,0,0,0,1.82,3.21,12,12,0,0,0,7.76,2.74c4.23.14,8.47.11,12.69-.09C526.32,514.23,539.57,513.48,552.81,512.77ZM147.37,368c4.75,0,9.78-1.27,14.84-2.46,9.47-2.23,16.45-8.26,23.11-14.8a30.23,30.23,0,0,0,4.62-5.49c3.25-5.25,4.91-10.84,3.25-17.14-1.3-4.94-2.36-9.95-3.33-15-.74-3.84-1.45-7.79,0-11.61,1.08-2.82,2.5-5.52,3.82-8.26,1.25-2.59,2.6-5.13,3.83-7.73A2.74,2.74,0,0,0,197,282a3,3,0,0,0-3.77-.18c-.68.41-1.32.91-2,1.37a79,79,0,0,1-15.69,8.7,37.41,37.41,0,0,1-24.88,1.47,31.68,31.68,0,0,1-9-3.85c-1.4-.89-2.64-.84-3.51.12a4.37,4.37,0,0,0-1.27,3.95c1,4.45,1.91,8.9,2.92,13.34a16.78,16.78,0,0,1,.07,6.66c-1.27,7.54-4.41,14.33-8.37,20.77a20.06,20.06,0,0,1-5.41,6.36,35.67,35.67,0,0,1-24.49,6.47c-2.07-.2-4.12-.62-6.19-.66-2.77-.05-4,2.07-2.79,4.57A4.17,4.17,0,0,0,94,352.79a30.59,30.59,0,0,0,5.33,3.13c4.31,1.7,8.77,3,13.09,4.67a127.47,127.47,0,0,0,17.4,5.32C135.41,367.22,141,368.43,147.37,368ZM398,130.79c.44.6.7.9.91,1.23q6.06,9.64,12.1,19.31c1.59,2.55,3.56,3.15,6,1.67,11.16-6.73,22.29-13.51,33.5-20.16a7.91,7.91,0,0,0,4-6.6c.61-6.36,1.39-12.71,2.13-19.06.45-3.75-1.38-5.27-4.93-4.06l-.69.22L419.41,114.4c-.64.22-1.3.37-2.15.61,0-.66,0-1.05,0-1.44.37-4.46.73-8.92,1.14-13.38a3.22,3.22,0,0,0-4.95-3.36c-.63.36-1.26.7-1.89,1l-25.73,14.44c-.64.37-1.32.68-2.11,1.08-.13-.67-.21-1-.26-1.29-.72-4.66-1.35-9.33-2.2-14-.62-3.33-2.49-4-5.34-2.25-7.91,5-15.8,10-23.73,15a4.52,4.52,0,0,0-2.44,3.8c-.54,7.41-1.25,14.82-1.8,22.23a21.63,21.63,0,0,1-2.29,9.19c-1.08,2-1.86,4.07-2.84,6.09-.76,1.56-1,3.09.28,4.46s2.7,1.37,4.4.86q16-4.74,32-9.34a9.77,9.77,0,0,0,4.61-2.84c4-4.27,8-8.49,12-12.73C396.66,132,397.25,131.52,398,130.79ZM688.64,473.88c5-.7,9.17-2,12.19-5.48,2.63-3.06,3.74-6.52,2.13-10.66a34.07,34.07,0,0,0-11.2-14.66c-2.52-2-5.3-3.58-7.88-5.47a45.51,45.51,0,0,0-9.38-5.27c-5.45-2.27-11-4.31-15.76-8a84,84,0,0,1-8.75-7.41c-3.41-3.55-5.49-8-7.18-12.63-1.59-4.34-3.23-8.68-4.69-13.07a50,50,0,0,0-9.62-17,41.37,41.37,0,0,0-14.43-10.87,2.72,2.72,0,0,0-2.94.18,2.68,2.68,0,0,0-1,3,27.14,27.14,0,0,0,1,3.45,75,75,0,0,1,3.59,15.36,45.51,45.51,0,0,1-.08,16.21c-1.73,8.29-3.63,16.54-5.43,24.81a14,14,0,0,0-.55,3.77,32.88,32.88,0,0,0,7.63,19.52,8.25,8.25,0,0,0,4.85,2.92,37.39,37.39,0,0,0,6.63.86A127.41,127.41,0,0,1,653.2,456a49.26,49.26,0,0,1,15,5.5c3.38,2,6.47,4.39,9.72,6.58,2.12,1.43,4.22,2.91,6.45,4.14A27.6,27.6,0,0,0,688.64,473.88Zm-201.72-346c0-3.77,0-7.19,0-10.61,0-1.28.19-2.56.14-3.83a3.26,3.26,0,0,0-2.59-3.31c-1.38-.21-2.22.67-3.06,1.55l-24.3,25.23a7.32,7.32,0,0,0-2.17,5.4c.05,4.15,0,8.31,0,12.47,0,4.32,0,8.64,0,13,0,3.29,2.23,4.76,5.31,3.64a11.86,11.86,0,0,0,1.3-.61l36.89-18.43c.55-.27,1.15-.45,2-.76.25,1,.51,1.82.66,2.66,1.32,7.55,2.69,15.1,3.89,22.67a5,5,0,0,0,3.7,4.46q8.4,2.85,16.75,5.83a5,5,0,0,0,5.66-1.26c10.41-10.06,20.89-20.05,31.3-30.1a9.53,9.53,0,0,0,2-2.92,2.86,2.86,0,0,0-2-4.14,13.68,13.68,0,0,0-2.1-.51L531.14,143c-2.79-.5-5.57-1-8.68-1.6.62-.76,1-1.27,1.39-1.71,3.86-4.05,7.72-8.11,11.61-12.13,1-1.06,1.72-2.19,1-3.64s-2-1.65-3.47-1.52-2.55.29-3.81.44q-15.36,1.86-30.71,3.7C494.71,127,490.9,127.42,486.92,127.87ZM363.54,250.3c.73.65,1.33,1.16,1.91,1.7,2.74,2.56,5.46,5.15,8.23,7.7,2.61,2.4,4.25,2.49,7.22.49L403.34,245c.92-.61,1.87-1.16,2.91-1.79l2,2.3c4,4.68,8,9.38,12,14,1.81,2.09,3,2.38,5.25,1.35,4.56-2.14,9.08-4.36,13.65-6.47a5.9,5.9,0,0,0,3.52-4.5c.74-3.68,1.51-7.36,2.42-11a17.09,17.09,0,0,0,.16-7.12c-.79-4.72-1.5-9.46-2.24-14.2-.78-5-1.52-10-2.36-14.91-.55-3.27-2.35-4.17-5.27-2.79-.36.17-.72.36-1.07.54l-42.77,21.12c-.77.38-1.56.71-2.49,1.14-.12-.58-.22-1-.27-1.32-.65-5.56-1.28-11.11-1.93-16.67-.26-2.22-.57-4.43-.83-6.65a2.74,2.74,0,0,0-1.9-2.52,2.7,2.7,0,0,0-3,1c-.27.29-.54.59-.8.89-11.41,13.07-22.78,26.17-34.26,39.17a6.8,6.8,0,0,0-1.69,5.89c.71,5.71,1.24,11.43,1.8,17.15.12,1.29.46,2.39,1.74,2.89a2.84,2.84,0,0,0,3.24-.86q5-4.83,10.09-9.57C361.92,251.5,362.7,251,363.54,250.3Zm8.32,227.28v-.16c1,0,1.92.05,2.88,0,8.3-.52,16.59-1.2,24.9-1.55,15.42-.65,30.85-1.07,46.27-1.66,4.46-.18,8.92-.58,13.38-1a4.87,4.87,0,0,0,4.33-3.89c.55-2.7.4-5.24-1.6-7.41-.76-.82-1.33-1.83-2.14-2.58a10.36,10.36,0,0,1-3.42-9.73,37.36,37.36,0,0,0,.43-5.48c0-3.2-1.2-4.6-4.42-4.83a48.43,48.43,0,0,0-9.09.1c-11.84,1.41-23.28,4.91-35,7.1-3,.55-5.93,1.29-8.91,1.84a143.81,143.81,0,0,1-19.54,2c-10.94.49-21.87,1.27-32.82,1.58s-22.07.19-33.11.29q-9.6.09-19.19.3c-2.52.05-3.34.85-3.33,3.35,0,3.68.18,7.35.3,11a2.45,2.45,0,0,0,1.9,2.47,17.24,17.24,0,0,0,2.56.58c2.06.27,4.13.58,6.2.67,7.34.32,14.69.9,22,.73,6.69-.15,13.37-1.17,20.06-1.74,2.62-.22,5.24-.55,7.87.15a3.11,3.11,0,0,1,2.64,2.68,5.51,5.51,0,0,0,4.41,4.55,21.31,21.31,0,0,0,4.73.54C366.75,477.65,369.31,477.58,371.86,477.58ZM261.35,300.26c.78-1.1,1.33-1.85,1.85-2.63q9.75-14.69,19.5-29.38a8.56,8.56,0,0,1,1.67-2c1.37-1.1,2.59-.94,3.76.41q3.83,4.44,7.59,9c1.33,1.6,2.56,3.28,3.89,4.88,1.66,2,3.27,2.22,5.48.82a16.12,16.12,0,0,0,2.07-1.63c1.67-1.49,3.31-3,5-4.51,7.46-6.78,14.87-13.61,22.4-20.32,2.25-2,2.88-3.89,1.76-6.9-4.72-12.65-9.17-25.4-13.73-38.12a17.37,17.37,0,0,0-.77-2c-1.2-2.34-3.37-2.7-5.27-.91-.35.33-.67.69-1,1l-28.6,29.43c-.6.62-1.23,1.21-2,1.95-1-1.17-1.9-2.19-2.76-3.22L272,224a13.48,13.48,0,0,0-1.63-1.74c-2.71-2.25-5.43-1.59-6.64,1.7q-6.51,17.64-12.91,35.34a11.75,11.75,0,0,0,0,8c2.79,8.33,5.36,16.74,8,25.11C259.57,294.85,260.39,297.33,261.35,300.26ZM235.92,186.2c2.24,2.07,4.26,4,6.34,5.86s3.13,1.6,4.6-.66q4.71-7.23,9.39-14.49c3.78-5.83,7.54-11.68,11.34-17.51a6.24,6.24,0,0,0,.27-7c-4.22-7.89-8.26-15.88-12.39-23.82-2-3.81-4.39-3.94-6.67-.36q-10.68,16.8-21.35,33.59c-.47.74-1,1.45-1.54,2.29-.8-.67-1.48-1.21-2.14-1.78q-7.8-6.74-15.62-13.47c-2.58-2.23-4.14-2.16-6.6.28l-25.23,25a20.26,20.26,0,0,0-1.74,2c-1.41,1.83-1.34,3,.25,4.61Q190.76,197,206.7,213.33c2.45,2.51,4.08,2.46,6.35-.2,3.49-4.07,6.94-8.17,10.41-12.25C227.54,196.06,231.63,191.26,235.92,186.2Zm141.36,88.57-13.45-13.39a14.58,14.58,0,0,0-1.56-1.49,2.55,2.55,0,0,0-4,1,7.74,7.74,0,0,0-.6,2.06q-2.82,16.79-5.61,33.56a6.3,6.3,0,0,0,.49,3.73c2.19,5.05,4.33,10.14,6.49,15.2a2.78,2.78,0,0,0,4.48,1.34,17.51,17.51,0,0,0,2.17-1.88q10.05-9.45,20.1-18.89c.43-.4.93-.74,1.47-1.17.58.8,1.05,1.44,1.51,2.09q6.57,9.45,13.15,18.89c1.79,2.57,3,2.95,5.91,1.89,10.72-4,21.41-8,32.15-11.88a4.18,4.18,0,0,0,3.06-4.25c.54-9.58,1.21-19.14,1.81-28.71.11-1.76.23-3.52.21-5.27,0-2.17-1.32-3.13-3.48-2.74-.47.09-.94.21-1.4.34l-23.09,6.38c-.9.25-1.81.44-2.78.67-2.49-5.34-4.87-10.48-7.29-15.61a10.37,10.37,0,0,0-1.51-2.42,2.63,2.63,0,0,0-3.67-.43,14.19,14.19,0,0,0-1.47,1.22l-21.08,18.16C378.68,273.66,378.06,274.14,377.28,274.77Zm-186.41,179c-.13.52-.12.71-.21.8-7.36,7.63-15.79,13.2-26.76,13.83-1.17.07-2.25.3-2.62,1.64a3,3,0,0,0,1.34,3.32,8.42,8.42,0,0,0,2,.84q7,2.11,14,4.17a44.31,44.31,0,0,0,19.46,1.27,87,87,0,0,0,20.39-6.09,123.17,123.17,0,0,0,12.46-6.16A46.48,46.48,0,0,0,247,452.25a64.85,64.85,0,0,0,6.86-12.59c1.44-3.81,3.07-7.55,4.49-11.37s2.61-7.71,1.89-11.91a3.64,3.64,0,0,0-2.7-3c-1.53-.51-2.61.22-3.57,1.31-2.68,3.07-5.34,6.15-8.06,9.18a54.87,54.87,0,0,1-20,14.49,17.07,17.07,0,0,1-6.76,1.28c-6.67,0-12-2.56-15.48-8.34a29.83,29.83,0,0,0-14.8-12.36c-2.94-1.2-3.41-1.06-5.53,1.4a12.85,12.85,0,0,1-4.57,3.79c-3.94,1.66-7.93,2.91-12.31,2.29a3.39,3.39,0,0,0-3.44,1.76,3.08,3.08,0,0,0,.1,3.61,74.23,74.23,0,0,0,5.07,6.35c1.85,2,3.94,3.75,6,5.54C179.1,448,184,452.48,190.87,453.74Zm63.89-107.46H255c0-3.12,0-6.23,0-9.35,0-1.83-1-3-2.36-3.17s-2.32.59-3,2.2c-.13.29-.25.59-.36.89a41.88,41.88,0,0,1-7.48,12.48,124.88,124.88,0,0,1-18.31,17.22,154.59,154.59,0,0,0-15.71,13.7C200,388.16,196,397.69,195,408.5c-.6,6.49-.73,5.94,5.39,8.55a20.41,20.41,0,0,1,5,2.76,62.17,62.17,0,0,1,5.77,5.71,13,13,0,0,0,4.87,3.75,10.21,10.21,0,0,0,7.7-.31,61.58,61.58,0,0,0,25.64-19.15,28,28,0,0,0,5.58-12.57,94.82,94.82,0,0,0,.89-21.49C255.3,365.93,255.09,356.1,254.76,346.28Zm45.66-51.51c-.34-.37-.47-.48-.56-.61-3.79-5.92-7.6-11.83-11.37-17.76a3,3,0,0,0-2.64-1.77,2.84,2.84,0,0,0-2.55,1.89c-.17.36-.33.72-.51,1.08-4.66,9.73-9.36,19.44-14,29.18A6.82,6.82,0,0,1,266,309.9q-3.3,2-6.5,4.08c-1.77,1.19-2,2.31-1.2,4.32a18.74,18.74,0,0,1,1.14,3.64c.41,2.44,1.47,4.15,4.1,4.57a8.59,8.59,0,0,1,1.57.6q11.53,4.39,23.06,8.78c2.59,1,3.8.59,5.13-1.45q7.49-11.43,15-22.84c.3-.46.67-.86,1.12-1.42.77.85,1.46,1.61,2.14,2.38,4.13,4.67,8.24,9.36,12.38,14a14.89,14.89,0,0,0,2.06,2,3.16,3.16,0,0,0,4.51-.38A15.44,15.44,0,0,0,332,326c4-6.35,7.94-12.76,12.11-19a11.06,11.06,0,0,0,1.81-7.91c-.7-6-1.24-12.08-1.83-18.13-.36-3.57-.65-7.16-1-10.73-.37-3.41-2.69-4.42-5.58-2.51-.33.23-.66.46-1,.7l-28.86,21.06C305.29,291.25,302.9,293,300.42,294.77Zm-45.87,187c-.39,1.35-.78,2.47-1,3.63s-1,1.59-2.13,1.88c-4.56,1.2-9.18,2.27-13.59,3.88A60.85,60.85,0,0,0,216,504.69a25.92,25.92,0,0,0-7,12.9c-.61,2.5.26,4.15,2.55,5.33a8.42,8.42,0,0,0,2.24.83,59.41,59.41,0,0,0,5.92.85c10.07.79,20.15.25,30.22-.12,4.62-.16,9.24-.71,13.84-1.25a8.87,8.87,0,0,0,6-3.55A29.52,29.52,0,0,0,275.11,508c1.19-4.76,1-9.18-2.16-13.17a5.13,5.13,0,0,1-.62-1c-1.68-3.54-2-7.08.2-10.51a35.6,35.6,0,0,1,3.47-4.56c1.28-1.42,2.88-2.55,4.15-4,4.22-4.79,6.63-10.23,4.91-16.73-1.07-4-1.69-5.65-6.85-6.43a134.22,134.22,0,0,0-18.89-1.28c-2.7,0-3.4.63-4.44,3.11a21.42,21.42,0,0,1-2.8,5.24,65.36,65.36,0,0,1-12.2,11.82,31.21,31.21,0,0,1-8.95,5c-1.74.56-3.47,1.19-5.18,1.87A2.52,2.52,0,0,0,224,480.2a2.48,2.48,0,0,0,2.42,2.24c2,.27,4,.6,5.94.73,4.38.26,8.75,1,13.15.16C248.4,482.8,251.29,482.3,254.55,481.72ZM88.44,396.8c-.7,0-1,.07-1.3.06-4-.14-8-.46-12-.39a34.42,34.42,0,0,0-14.45,4c-3.33,1.63-4,3.79-2.65,7.25a6.13,6.13,0,0,1,.24.68c2.3,8.29,7.12,15.08,12.57,21.56,5.88,7,13.52,9.93,22.32,9.54,8.58-.38,16.7-2.65,23.64-8.16,3.78-3,3.91-2.92,3.71-7.7a45,45,0,0,1,1.61-13.5c1.45-5.48,2.83-11,3.82-16.57,1.55-8.72-2.53-16.22-10.42-19.49a99.11,99.11,0,0,0-10-3.42,15.69,15.69,0,0,1-5.5-2.81,21.86,21.86,0,0,1-4.69-5.71,3.54,3.54,0,0,0-6-.27,6.24,6.24,0,0,0-.84,1.44,31.29,31.29,0,0,0-2.32,17.81C87,386.23,87.67,391.37,88.44,396.8Zm301.73,12.43c-.68-.91-1.21-1.6-1.74-2.3-2.3-3.08-4.57-6.17-6.9-9.22-1.57-2-3.15-2.46-5.43-1.35-6.76,3.28-13.5,6.62-20.25,9.92a5,5,0,0,0-3.05,4.51c0,.87-.16,1.75-.24,2.62-.56,6.13-1.09,12.27-1.68,18.39a4.65,4.65,0,0,0,1.78,4.42c2.33,1.95,4.61,4,6.74,6.13a7.29,7.29,0,0,0,6.25,2.23c8.69-.63,17.4-1.11,26.1-1.63A45.3,45.3,0,0,0,402.82,441c3.2-1,6.45-1.85,9.68-2.75l25-6.9c3.7-1,4.32-2.84,2.14-6.15-.35-.53-.68-1.08-1-1.63l-19.08-30.79c-1.84-3-3.71-3.27-6.49-1.11q-10.62,8.24-21.26,16.43C391.33,408.48,390.86,408.76,390.17,409.23ZM150.25,211.12c-6.62-1.56-12.84-3-19.06-4.48a10.71,10.71,0,0,0-2.37-.36,2.56,2.56,0,0,0-2.56,3.58,7.27,7.27,0,0,0,1,1.64c1.24,1.86,2.83,3.57,3.67,5.6a72.52,72.52,0,0,1,4.77,17.27,111.88,111.88,0,0,1,1,22.49c-.36,6.7-.36,13.43-.5,20.14,0,.8,0,1.6,0,2.4.17,2.13,1,2.89,3.07,2.73a11.34,11.34,0,0,0,7.7-3.45,55.21,55.21,0,0,0,4.55-5.25c6.67-9.28,13.41-18.52,19.84-28,5.69-8.37,10.32-17.3,12.2-27.41a63.32,63.32,0,0,0,1.31-16,6,6,0,0,0-1.69-4.11q-11.29-11.09-22.55-22.23A3.18,3.18,0,0,0,155,177.7q-1.68,12-3.4,24C151.2,204.74,150.74,207.81,150.25,211.12Zm445.13-12.63c.82-.9,1.5-1.67,2.2-2.43,2.56-2.75,5.13-5.49,7.67-8.26,2-2.23,1.69-4.14-1-5.56-.35-.19-.73-.32-1.1-.48-10.72-4.39-21.45-8.76-32.15-13.2a4.8,4.8,0,0,0-5.31.72c-5.45,4.2-11,8.28-16.49,12.39-4,3-8.1,6-12.11,9-2.72,2.06-2.49,4.46.44,6.25,2.38,1.46,4.7,3,7,4.57,1.19.8,2.92,1.44,3.34,2.56s-.26,2.91-.56,4.38c-.5,2.51-1.14,5-1.61,7.5-.34,1.84.1,2.47,1.83,3.08a13.38,13.38,0,0,0,1.38.37c9.49,2.23,19,4.49,28.46,6.7,7.77,1.82,15.56,3.57,23.34,5.4a4.27,4.27,0,0,0,3.24-.33c4.52-2.56,9.07-5.07,13.53-7.73,2.17-1.28,2.26-3.68.42-5.43-.35-.33-.73-.63-1.09-.94l-19.63-16.91C596.65,199.66,596.08,199.13,595.38,198.49Zm-239.14-3.87c-.3-1.5-.49-2.85-.84-4.15q-2.7-10.32-5.48-20.61c-.84-3.12-2.54-4.05-5.54-2.91-2.54,1-5,2.07-7.52,3.13l-11.22,4.85a2.77,2.77,0,0,1-3.48-.5c-4.06-4.08-8.17-8.1-12.28-12.12a7.75,7.75,0,0,0-1.52-1.16,2.91,2.91,0,0,0-3.74.35c-.43.35-.84.75-1.24,1.13Q288.66,176.39,274,190.16A24.41,24.41,0,0,0,272,192.3a2.8,2.8,0,0,0-.38,3.33c3.3,6.83,6.56,13.69,9.87,20.52,1.45,3,3.24,3.47,6,1.68,3.67-2.41,7.32-4.86,11-7.3q9.78-6.5,19.57-13c2.13-1.41,3.18-1.16,4.52,1,.69,1.08,1.32,2.19,2,3.28q6.6,10.86,13.21,21.71c1.45,2.37,3.72,2.92,5.59,1.33a5.38,5.38,0,0,0,1.33-1.94q5.32-12.45,10.57-24.94A28,28,0,0,0,356.24,194.62ZM207.3,353a51.54,51.54,0,0,0,5.7-1,55.27,55.27,0,0,0,20.41-10.77c6.84-5.74,11.86-12.91,16.15-20.65a11.86,11.86,0,0,0,1.14-9q-.72-2.79-1.39-5.58c-1-4.35-2.19-8.67-3.08-13.05-.85-4.15-1.51-8.35-3.46-12.17q-3.21-6.3-6.57-12.53a3.9,3.9,0,0,0-4.78-1.67,8.88,8.88,0,0,0-3.11,1.69,216.16,216.16,0,0,0-23.9,24.23,22.33,22.33,0,0,0-4.7,10.12c-1.39,6.92,0,13.49,2.89,19.8.77,1.67,1.73,3.26,2.38,5a14.51,14.51,0,0,1,.54,9.16,23.44,23.44,0,0,1-5.19,9.09c-2.72,3.15-1.15,4.81,1.42,5.93A33.49,33.49,0,0,0,207.3,353ZM583.82,318l8.49-4.27c2.78-1.41,5.6-2.76,8.31-4.29a2.75,2.75,0,0,0,.35-4.77,10.64,10.64,0,0,0-2.28-1.29q-24.93-12.09-49.86-24.14c-3.16-1.53-6.34-3.05-9.51-4.56a3.75,3.75,0,0,0-4.45.57,4.05,4.05,0,0,0-1,4.63A10.94,10.94,0,0,0,535,282c9.1,15.06,18.16,30.13,27.37,45.12a10.42,10.42,0,0,1,1.45,8.38c-1.91,8.5-3.56,17.05-5.42,25.56-.69,3.17.18,4.35,4.07,3.94a15.19,15.19,0,0,0,1.87-.4c4-1,8-1.82,11.86-2.94a10.67,10.67,0,0,1,6.77.32c5.8,2,11.66,3.92,17.49,5.87a19.46,19.46,0,0,0,2.07.6,2.21,2.21,0,0,0,2.21-3.44c-.39-.51-.81-1-1.24-1.46q-4.77-5.24-9.54-10.47c-.4-.44-.73-.94-1.28-1.65l2.41-.17c.71-.05,1.44-.05,2.15-.16,2.41-.35,3.26-1.81,2.38-4.12a17.73,17.73,0,0,0-1.06-2.14q-6.71-12.18-13.43-24.37C584.68,319.72,584.31,318.94,583.82,318ZM429.43,371.17c-.35-.49-.61-.79-.81-1.13-1.81-3.11-3.6-6.23-5.42-9.33s-3.84-3.6-6.86-1.44c-5.6,4-11.18,8-16.78,12-1.75,1.24-2.37,1.12-3.51-.57-3.57-5.31-7.15-10.61-10.69-15.94-1-1.55-1.91-3.21-4.2-3s-2.69,2-3.45,3.58q-7.32,15.09-14.63,30.21c-.24.5-.51,1-.71,1.52-1.06,2.84.64,5.05,3.64,4.67,1.42-.18,2.82-.54,4.24-.8,3.69-.69,7.38-1.35,11.07-2.07a3.5,3.5,0,0,1,4.1,1.63c1,1.56,2.12,3,3.23,4.47,1.54,2,3.24,2.38,5.42,1.12,1.24-.72,2.46-1.49,3.71-2.21q9.66-5.56,19.33-11.13c1.72-1,1.88-1,3.05.36q8.83,10.13,17.6,20.3c2,2.33,4.56,2.19,6.3-.44,7-10.59,14-21.21,21.13-31.75a6.3,6.3,0,0,0,.94-5.84c-1.69-5.49-3.26-11-4.9-16.55a9.54,9.54,0,0,0-.78-2,2.58,2.58,0,0,0-3.71-1,11.45,11.45,0,0,0-1.62,1.42q-11.85,11-23.69,22.09C430.79,370,430.14,370.53,429.43,371.17Zm74,5.52c1,1.28,1.8,2.35,2.61,3.43q5.71,7.58,11.41,15.14c2.89,3.81,3.7,4,7.68,1.54l27.48-16.68c.72-.44,1.47-.83,2.24-1.26.66.82,1.17,1.43,1.65,2.05,2.69,3.49,5.35,7,8.05,10.46a3.44,3.44,0,0,0,4.43,1.26,18.29,18.29,0,0,0,2-.93c6.45-3.36,12.91-6.7,19.35-10.1,2.26-1.19,4.45-2.51,6.68-3.76a2.74,2.74,0,0,0,1.6-3.16,2.93,2.93,0,0,0-2.56-2.21c-.31-.07-.63-.08-.95-.12-6.43-.77-12.85-1.52-19.28-2.31-3.25-.39-6.49-.9-9.78-.33-4.49.76-9,1.45-13.5,2.14-.92.14-1.85.17-3,.27.8-3.28,1.51-6.22,2.23-9.15.67-2.72,1.42-5.42,2-8.14.56-2.57-.93-4.08-3.49-3.6a15.89,15.89,0,0,0-2.52.76q-15.09,5.53-30.15,11.09l-3.75,1.37c-.84-1.4-1.62-2.68-2.39-4-1.62-2.75-3.23-5.52-4.87-8.27-1.92-3.23-2.79-3.44-5.87-1.47q-13.25,8.46-26.47,16.95a22.27,22.27,0,0,0-2,1.35c-1.5,1.22-1.71,2.33-.79,4,.3.56.69,1.08,1,1.61,2.71,4.15,5.47,8.28,8.12,12.47,1.7,2.7,2.74,2.92,5.36,1.16C491.72,384.41,497.48,380.65,503.47,376.69ZM361.3,368.8l-.25-.05c-.26-2.78-.58-5.56-.76-8.35a2.94,2.94,0,0,0-4.3-2.25,18,18,0,0,0-1.79,1.2l-21.82,16c-1.68,1.24-2.42,1.25-4-.06-.74-.6-1.41-1.3-2.09-2l-10.59-10.44c-2.83-2.78-4.7-2.73-7.48.19s-5.5,5.81-8.23,8.73q-4.9,5.25-9.79,10.53c-1.23,1.34-2,1.43-3.76.39Q278,378,269.53,373.15a15.13,15.13,0,0,0-2.36-1.15c-1.84-.63-3.71-.62-5.18.75s-.93,2.91-.53,4.51q2.91,11.73,5.76,23.49c.71,2.88,1,3.11,4,3.42,4.92.51,9.86.93,14.77,1.57,7.24.95,5.3-.34,11.73,5l.19.15c3.15,2.55,4,2.59,7.4.35l.8-.54,26-17.67c2.79-1.91,3.16-1.92,6-.09s5.62,3.66,8.45,5.47c3.28,2.11,5,1.49,6.26-2.24,2.56-7.48,5.13-14.95,7.61-22.46A36,36,0,0,0,361.3,368.8Zm168.43,97.88c8.55-.49,17-.86,25.47-1.47,12.83-.93,25.65-2,38.47-3.07,3.42-.29,6.82-.83,10.22-1.32a6.42,6.42,0,0,0,4.73-3.68c1.79-3.22.62-6-1.19-8.72a60.23,60.23,0,0,1-7.34-14.49,5.1,5.1,0,0,0-2.35-2.9,9.92,9.92,0,0,0-5.49-1.4c-7.83.1-15.66.22-23.48.3-9.12.09-18.25,0-27.36.29a64.18,64.18,0,0,0-11.56,1.8,12.11,12.11,0,0,0-7.42,5,21.44,21.44,0,0,0-3.8,13.62,96,96,0,0,0,1.82,12.56c.46,2.58,1.41,3.31,4.1,3.5C526.29,466.78,528.06,466.68,529.73,466.68ZM612.35,309c-.82.54-1.47,1-2.13,1.39-3.74,2.31-7.47,4.64-11.24,6.89a3.76,3.76,0,0,0-2.06,3,8.69,8.69,0,0,0,.37,3.25c2.15,6.18,4.35,12.35,6.65,18.48a8.38,8.38,0,0,0,2.16,3.06q15.07,13.71,30.24,27.33a9.43,9.43,0,0,0,1.48,1.21,2.63,2.63,0,0,0,3.84-1.15,7.34,7.34,0,0,0,.55-2.08c1.1-8.23,2.22-16.46,3.21-24.71a10.11,10.11,0,0,0-.49-4.22c-2-6.07-4.14-12.09-6.21-18.13-.22-.63-.34-1.29-.54-2.12.61.06.92.08,1.22.12,3.39.52,6.78,1.09,10.18,1.56,3.11.42,4.5-1.45,3.34-4.39-.24-.59-.53-1.17-.81-1.74l-12.76-25.5c-.32-.65-.67-1.27-1-1.91a2.65,2.65,0,0,0-2.78-1.47,12.38,12.38,0,0,0-2.33.49c-6.81,2-13.62,4.09-20.42,6.13-1.84.55-3.7,1-5.51,1.66s-2.18,1.82-1.28,3.38,1.88,3,2.86,4.42C610,305.65,611.13,307.26,612.35,309ZM297.72,130.3c-.24-.86-.46-1.52-.61-2.19-.94-4.29-1.84-8.59-2.79-12.87-.83-3.73-3.22-4.53-6-2q-9.21,8.41-18.38,16.87c-2.08,1.91-2.19,2.53-1.08,5.24q5,12.31,10.05,24.63a18.46,18.46,0,0,0,1.36,2.79,3.48,3.48,0,0,0,4.31,1.7,10.45,10.45,0,0,0,2-.78q11.28-5.83,22.54-11.72c2.58-1.36,3.26-1.27,5,1,3.3,4.22,6.56,8.47,9.88,12.67a3.08,3.08,0,0,0,5.34-.28,18.64,18.64,0,0,0,1.12-2.12c3.39-7.15,6.72-14.32,10.18-21.44a11.06,11.06,0,0,0,1.16-5.76c-.59-9.41-1.11-18.83-1.66-28.24a6.81,6.81,0,0,0-.16-1.19,2.7,2.7,0,0,0-3.77-2.18,10.73,10.73,0,0,0-2.5,1.38q-16.95,11.55-33.87,23.12C299.27,129.35,298.59,129.75,297.72,130.3Zm90.71,56.58c1.36,3.1,2.59,5.87,3.79,8.65,1.48,3.45,2.91,6.92,4.43,10.36,1.14,2.59,3.21,3.27,5.68,1.94.49-.27.94-.6,1.41-.91,13.7-9,27.37-18,41.13-26.94,3-1.92,4.18-4.2,3.88-7.77-.53-6.45-.66-12.93-1-19.4-.07-1.6-.12-3.2-.33-4.79-.35-2.67-2.69-3.69-4.9-2.22-.4.27-.77.58-1.15.87l-25.77,19.21c-.56.42-1.16.79-1.83,1.24-.61-.68-1.14-1.25-1.65-1.85C407,159.16,401.83,153,396.64,147c-1.83-2.14-3.93-2-5.53.29-.5.72-.89,1.52-1.32,2.28L368.89,187c-.93,1.67-.92,3,.05,4.23a3.4,3.4,0,0,0,4.11,1c1.75-.58,3.46-1.24,5.2-1.84C381.55,189.26,384.86,188.12,388.43,186.88ZM307.14,520.63v0c7-.13,14.06-.23,21.09-.44a12,12,0,0,0,4.43-.79,22.3,22.3,0,0,0,8.58-6.36,41.67,41.67,0,0,0,9.67-23.79,26,26,0,0,0-.67-7.82c-.86-3.41-2.78-4.43-5.69-4.34a57.11,57.11,0,0,0-13,1.77,36.64,36.64,0,0,1-17.78.51,31.41,31.41,0,0,0-6.4-.81c-5.75-.08-11.5-.08-17.24.1a16.9,16.9,0,0,0-7.79,2.15,6.37,6.37,0,0,0-2.23,2.05,8.22,8.22,0,0,0-1.15,7.06c1,3.28,1.81,6.62,2.6,9.95a22.3,22.3,0,0,1-.39,13,18.17,18.17,0,0,0-.71,3,5,5,0,0,0,4.9,5.44C292.59,520.81,299.88,520.82,307.14,520.63ZM131.71,392.69c.1,1.28.16,2.55.31,3.82.4,3.25,2.82,4.42,5.69,2.78,1.39-.79,2.74-1.65,4.16-2.38,2.11-1.09,3.93-.68,5.14,1.3a25.75,25.75,0,0,1,2.32,4.71c1.15,3.06,2.15,6.18,3.14,9.3a9.79,9.79,0,0,0,5.21,5.95,13,13,0,0,0,10.71.67c12.91-4.78,21.55-13.44,24.09-27.38a29,29,0,0,1,3.79-10.27,63.3,63.3,0,0,1,13.3-15.64c1.05-.87,2.14-1.69,3.11-2.63a2.55,2.55,0,0,0,.17-3.83,4.06,4.06,0,0,0-3.46-1.34c-3.87.57-7.77,1-11.59,1.79-7.85,1.59-15.55,3.68-22.75,7.32a48.34,48.34,0,0,1-5.79,2.28c-9.31,3.29-19,4.89-28.72,6.41a6.86,6.86,0,0,0-5.48,4A28.84,28.84,0,0,0,131.71,392.69Zm384-170.79c-1.89-1.27-3.65-2.52-5.47-3.66a5.33,5.33,0,0,0-5.71-.08c-1.73,1-1.66,2.77-1.49,4.49,0,.32.05.64.1.95.73,4.25,1.55,8.49,2.17,12.76a3,3,0,0,0,2.46,2.75c8.57,2.84,17.09,5.83,25.65,8.72a5.36,5.36,0,0,1,3.87,4.06c1.38,5.25,3.07,10.43,4.52,15.66a4.41,4.41,0,0,0,2.82,3.25c8.14,3.31,16.25,6.71,24.38,10.06,1.72.7,3.66,1.46,5.35.66a32.29,32.29,0,0,0,11.29-8.27,3.54,3.54,0,0,0-.29-5,10.35,10.35,0,0,0-1.54-1.13l-18.94-12.67c-.71-.48-1.38-1-2.16-1.57.62-.92,1.11-1.64,1.61-2.36,2.87-4.14,5.8-8.24,8.62-12.42,1.89-2.79.87-5.05-2.39-5.38-9.38-1-18.77-1.86-28.15-2.8-2.06-.2-4.1-.43-6.31-.67.1-.9.13-1.61.25-2.3.8-4.65,1.63-9.29,2.44-13.93a8.12,8.12,0,0,0,.17-1.19c0-2.52-2-3.76-4.25-2.58-.42.23-.8.52-1.2.79l-15.56,10.4ZM404.45,328.41c-.67-.86-1.17-1.47-1.64-2.11-4.56-6.17-9.1-12.36-13.68-18.52-2.11-2.83-4.11-3-6.53-.5-7.38,7.44-14.72,14.91-22.14,22.3a5.94,5.94,0,0,0-2,4.89c.24,4.23.25,8.47.59,12.69a11,11,0,0,0,1.47,4.72,25.11,25.11,0,0,0,4,4.71c1.29,1.26,2.68,1.17,4.06-.06a27,27,0,0,0,2.15-2.26c3-3.34,5.94-6.7,8.94-10,2.43-2.69,2.44-2.67,4.82,0q6.39,7.15,12.79,14.31c2.08,2.31,3.65,2.39,5.92.39l11.88-10.45c.65-.57,1.33-1.11,2.07-1.72.79.51,1.47.91,2.12,1.36,3.35,2.32,6.68,4.67,10.05,7,2.11,1.44,3.27,1.34,5.41-.9,1-1,.6-2.27.45-3.42-.93-7-1.89-13.94-2.84-20.9-.43-3.17-.82-6.34-1.34-9.5a3.61,3.61,0,0,0-5.13-3,23.29,23.29,0,0,0-2.82,1.32q-6.58,3.43-13.16,6.9Zm-79.36,12.08c-.94-1.34-1.76-2.5-2.57-3.68l-7.68-11.31c-1.73-2.55-4.06-2.73-6.16-.47a15.83,15.83,0,0,0-1.18,1.52l-13.06,17.78c-1.34,1.83-2,2-4,1.17q-10.95-4.56-21.89-9.16a2.62,2.62,0,0,0-2.92.3,2.67,2.67,0,0,0-.9,2.78c1.25,6.76,2.49,13.52,3.66,20.28a5.59,5.59,0,0,0,2.42,3.91c4.17,3,8.23,6.08,12.34,9.13,3.38,2.49,5.2,2.36,8.18-.56q9.34-9.14,18.7-18.27c2.67-2.6,3.75-2.62,6.51-.24.18.15.35.32.53.48,3.91,3.42,7.81,6.86,11.74,10.26,2,1.72,3.2,1.73,5,0q8.28-7.65,16.51-15.36a5.11,5.11,0,0,0,2-3.68c.21-8.55.46-17.09.7-25.64a6.12,6.12,0,0,0,0-1A2.54,2.54,0,0,0,348.7,317a17,17,0,0,0-1.75,1.65L327.1,338.53ZM202.3,268.86c.19,1.46.34,2.49.45,3.52s.21,2.23.35,3.33c.41,3.28,3.31,4.54,5.91,2.52a12.17,12.17,0,0,0,2.68-2.73c3.78-5.64,7.46-11.35,11.21-17a7.53,7.53,0,0,0,.14-8.38,36.85,36.85,0,0,0-6.46-8.89c-3.29-3.15-6.59-6.3-9.83-9.5a28.23,28.23,0,0,1-3.13-3.61c-2.5-3.52-4.92-7.09-7.35-10.66-1.73-2.55-4.51-2.65-6.24-.09a12.46,12.46,0,0,0-1.38,3c-.87,2.66-1.61,5.35-2.44,8-3.75,12.08-8.92,23.47-17,33.33-4.35,5.32-9,10.35-13.51,15.58a20.9,20.9,0,0,0-2.89,4.38c-1.15,2.33.15,4.31,2.71,4.46a39.27,39.27,0,0,0,12.58-1.32c11.46-3.1,21.9-8.39,31.91-14.63C200.69,269.81,201.36,269.43,202.3,268.86ZM294.21,447.5l33.65-2c5-.3,10.06-.59,15.09-.92,2.23-.15,3.13-1.19,3.07-3.42a9.41,9.41,0,0,0-.25-1.65q-3.31-16.22-6.65-32.41c-.37-1.8-.64-3.63-1.17-5.38-.64-2.07-2.24-2.62-4.16-1.62a13.93,13.93,0,0,0-1.22.77l-9.27,6c-7.38,4.79-14.78,9.55-22.12,14.38-1.19.78-2.06.91-3.19,0-1.47-1.22-3.08-2.28-4.64-3.41-2.91-2.11-5.79-4.28-8.76-6.31-2.37-1.61-4.49-.84-5.45,1.83-.32.91-.6,1.82-.91,2.73q-4.17,12.38-8.35,24.76c-.72,2.13.28,3.75,2.61,4.15,2.76.48,5.52,1,8.29,1.3C285.52,446.79,290.19,448.33,294.21,447.5Zm253.83-24v.17c7.75,0,15.51,0,23.26,0a58.08,58.08,0,0,0,6.45-.45c4.12-.51,8.22-1.14,12.34-1.71l11.15-1.55a3.42,3.42,0,0,0,3.24-2.93c1.16-4.73,2.61-9.39,3.81-14.1a9.58,9.58,0,0,0,.17-3.77c-.51-3.48-1.3-6.91-1.8-10.38a4,4,0,0,0-5.84-3.14c-4.1,1.95-8.36,3.6-12.55,5.37l-23.85,10c-3,1.27-3.72.91-4.74-2.12-.78-2.35-1.61-4.68-2.53-7a3.05,3.05,0,0,0-4.09-1.85,10.41,10.41,0,0,0-1.54.64q-13.69,7.2-27.36,14.39a3.31,3.31,0,0,0-1.79,2.11c-1.16,4.06-2.4,8.11-3.54,12.18a3.09,3.09,0,0,0,2.84,4.08,17.34,17.34,0,0,0,1.91,0ZM498,243.74c-.06-.73-.15-1.36-.17-2q-.3-10.42-.59-20.86c0-1.12,0-2.24-.15-3.35-.24-2.52-1.3-3.4-3.78-3.15a12.93,12.93,0,0,0-2.1.46c-4.31,1.19-8.63,2.37-12.93,3.59-7.6,2.18-15.2,4.34-22.78,6.6-2.72.81-3.27,1.73-3.25,4.52,0,.64,0,1.28.07,1.92l1.38,24.89a9.63,9.63,0,0,0,.1,1.43,3.36,3.36,0,0,0,5.17,2.32,10,10,0,0,0,1.33-1l17.32-14.44c.53-.44,1.09-.86,1.82-1.44l6.67,19.85c1.36-.08,2.62-.14,3.88-.24,6.29-.53,12.57-1.12,18.87-1.61,2.87-.22,3.73.5,4.33,3.25,1.1,5,2.21,10,3.27,15,.35,1.62,1.1,3,2.77,3.23a10.61,10.61,0,0,0,6.68-1.42c1.71-.89,1.85-2.7,2.07-4.35.93-7,1.82-13.95,2.72-20.92a3.51,3.51,0,0,0-2.18-3.87,11.93,11.93,0,0,0-2-.65l-26.15-7C499.54,244.23,498.79,244,498,243.74Zm-2.08-74.82h0a19.12,19.12,0,0,0,.21-2.38c-.09-3.12-2.73-4.7-5.55-3.37a10.72,10.72,0,0,0-1,.61q-6.19,3.87-12.4,7.74-11.1,6.88-22.21,13.75a4.3,4.3,0,0,0-2.34,3.37c-.51,4.52-1.12,9-1.71,13.54-.47,3.64-1,7.27-1.46,10.92-.39,3.15,1.09,4.5,4.19,3.92.47-.09.93-.19,1.4-.31q18.86-4.53,37.71-9.1a9.08,9.08,0,0,1,4.93.13c5.43,1.63,10.89,3.13,16.33,4.75a4,4,0,0,0,3.77-.58c3.68-2.56,7.46-5,11.2-7.41a19.09,19.09,0,0,0,2-1.37,2.26,2.26,0,0,0-.09-3.84,9.84,9.84,0,0,0-2.12-1.08L498,185.29c-2.83-1.2-3.31-1.94-3.07-4.92C495.21,176.55,495.57,172.74,495.9,168.92ZM472.46,293.43l5.65,12c1.53,3.25,3,6.52,4.62,9.75.92,1.87,2.27,2.33,4.15,1.55a7,7,0,0,0,1.61-1c6.45-5.38,12.87-10.8,19.34-16.15a5.15,5.15,0,0,0,2-4.78c-.48-6-.79-12-1.19-17.95-.13-2-.2-4-.5-6-.37-2.49-1.77-3.38-4.24-2.9a13,13,0,0,0-1.84.54c-1.36.48-2.71,1-4.06,1.47-3.38,1.23-6.75,2.49-10.13,3.69-2.25.8-3,.43-3.78-1.84-.27-.75-.49-1.52-.73-2.28-1.24-4-2.47-7.94-3.74-11.89-.7-2.16-1.7-2.66-3.8-1.93a7.47,7.47,0,0,0-1.89,1q-10.62,7.85-21.21,15.71a3.74,3.74,0,0,0-1.7,3.21c-.07,8.64-.21,17.28-.32,25.91a5.11,5.11,0,0,0,0,1,2.6,2.6,0,0,0,3.75,2.08,11,11,0,0,0,1.65-1l14-8.86C470.83,294.34,471.52,294,472.46,293.43Zm47.19,62.33a15.41,15.41,0,0,0,2.27-.72q9.17-4.12,18.31-8.34,6.75-3.1,13.45-6.3c2.72-1.3,3.47-3.3,2.37-6-1.67-4.24-3.36-8.46-5-12.69-.86-2.16-1.65-4.34-2.57-6.46a4.7,4.7,0,0,0-6.48-2.71,16.21,16.21,0,0,0-2.53,1.36c-5.59,3.42-11.15,6.88-16.74,10.29-2.24,1.37-3.12,1.07-4.34-1.26-2.1-4-4.23-8.07-6.32-12.11-1.68-3.25-3.93-3.66-6.68-1.2-7.62,6.82-15.23,13.66-22.93,20.39a7.45,7.45,0,0,0-2.7,4.84c-.47,3.4-1.11,6.78-1.67,10.16a19.25,19.25,0,0,0-.5,3.07,3.23,3.23,0,0,0,4.12,3.38,11.6,11.6,0,0,0,2.24-.82c7.15-3,14.3-6,21.45-8.94,2.59-1.08,3.05-.88,4.3,1.57q2.4,4.69,4.82,9.38A5.25,5.25,0,0,0,519.65,355.76Zm-48.56,71.58V427c7-.11,14.07-.2,21.1-.35a11.87,11.87,0,0,0,3.77-.55c3.83-1.38,7.61-2.92,11.4-4.41a4.73,4.73,0,0,0,2.93-3c1.42-4.33,2.8-8.66,4.19-13a3.14,3.14,0,0,0-.42-2.95c-3.37-4.87-6.65-9.79-10-14.63-1.45-2.06-2.74-2.21-4.92-.83-.74.47-1.45,1-2.17,1.5q-6.4,4.65-12.81,9.29c-2.46,1.77-3.33,1.64-5.1-.81-2.58-3.56-5.11-7.16-7.71-10.71-1.85-2.52-4.37-2.54-6.32-.09-2.14,2.69-4.23,5.42-6.34,8.13-4.28,5.49-8.51,11-12.84,16.46a6,6,0,0,0-1.32,5.1c.52,2.91.84,5.86,1.28,8.78.3,2,1.25,2.75,3.26,2.65,1.6-.08,3.19-.24,4.79-.25C459.57,427.32,465.33,427.34,471.09,427.34Zm127.3-160c-.51.77-.84,1.31-1.22,1.81-3.28,4.33-6.55,8.67-9.86,13-1.86,2.43-1.55,4.4,1.05,5.95s5.25,3.05,7.84,4.63a3.6,3.6,0,0,0,3.85.18c.56-.31,1.13-.59,1.7-.89q12.16-6.45,24.34-12.9c3.74-2,7.5-3.94,11.18-6,2.8-1.6,3-3.1,1.06-5.59-1.33-1.7-2.68-3.38-4-5.08-5.6-7.08-11.23-14.14-16.79-21.25a6.18,6.18,0,0,0-5-2.75c-1.44,0-2.87-.19-4.3-.3-6.3-.45-12.59-.86-18.88-1.36a6.81,6.81,0,0,0-6.59,3c-2.15,3-4.51,5.8-6.81,8.66-2.09,2.6-1.67,4.82,1.23,6.49q9.75,5.62,19.48,11.3C597.16,266.45,597.67,266.81,598.39,267.29ZM148.28,463.63c2.72,0,5.44.11,8.15,0A52,52,0,0,0,171,460.79a2.83,2.83,0,0,0,2.24-2.52c.09-1.38-.75-2.14-1.91-2.75-2.68-1.41-5.35-2.87-8-4.39a11.1,11.1,0,0,1-2.62-2.05,24.37,24.37,0,0,1-5.42-9c-.61-1.9-1.41-3.74-2.1-5.61-2-5.55-4.11-11.07-5.23-16.92a57.67,57.67,0,0,0-3-9.81c-.78-2-2.79-2.82-4.94-2.5a6.1,6.1,0,0,0-3.91,2.16c-3.77,4.6-7.31,9.4-8.39,15.42-.7,3.91-1,7.91-1.32,11.88-.12,1.43-.19,2.68-1.69,3.39A54.36,54.36,0,0,1,109,443.08c-2.52.37-5.09.32-7.63.56-2.16.2-3.53,1.34-3.88,3a3.62,3.62,0,0,0,2.33,4.26c6.6,3,13.13,6.28,19.93,8.81C128.87,463.13,138.54,463.91,148.28,463.63ZM501.51,431.8a251.13,251.13,0,0,0-25.57,1.81c-2.46.25-4.92.53-7.37.86-3,.4-4.37,2.16-3.95,5.13a15.05,15.05,0,0,0,.91,3.21,9.41,9.41,0,0,1,.32,6.12A7.79,7.79,0,0,0,468,457c3.47,3.67,4.44,7.75,2.29,12.52-1.35,3,.09,5,3.31,5.2,9.78.68,19.28-1.16,28.7-3.27,7.89-1.76,11.67-7.67,10.49-15.63-.82-5.56-.9-11,2.05-16.05a11,11,0,0,0,1-3.43c.48-2.51-.48-3.79-3.1-4C509,432.13,505.26,432,501.51,431.8ZM247.35,208.56c-.77-.73-1.36-1.24-1.9-1.79-2.52-2.57-5-5.17-7.55-7.72s-4.58-2.11-6.3.84Q224.31,212.3,217,224.66c-1.12,1.89-1.06,2.81.52,4.45l5,5.15q8.43,8.72,16.84,17.42a3.81,3.81,0,0,0,6.42-1.22c.21-.51.35-1.06.51-1.59,2.4-7.7,4.76-15.42,7.22-23.1a19.17,19.17,0,0,1,2.06-4.28c2-3.11,4.12-6.09,6.08-9.2a18.67,18.67,0,0,0,3-7.25c1.28-8.77,2.72-17.52,4.09-26.28a12,12,0,0,0,.15-2.39,2.61,2.61,0,0,0-4.85-1.21,15.11,15.11,0,0,0-.89,1.69l-14.37,29C248.32,206.69,247.89,207.51,247.35,208.56ZM69.8,342.59l-.46,0c-2.37-.1-3.18.54-3.51,2.89-.16,1.11-.15,2.24-.33,3.34a28.9,28.9,0,0,1-1.06,5.36,20.07,20.07,0,0,1-10.61,11.8,29,29,0,0,1-7.77,2.27,21.29,21.29,0,0,0-4.59,1.22c-1.36.55-1.66,1.33-1.17,2.72a27,27,0,0,0,2,4.33c1.84,3.18,3.75,6.32,5.7,9.43,1.57,2.51,3.1,5,4.9,7.39s2.77,2.31,5.3.85c4.58-2.64,9.2-5.21,14.74-5.14,1.12,0,2.24-.05,3.36-.09,3-.12,4.11-1.21,3.76-4.21a60.87,60.87,0,0,1,.17-14.34c.68-5.56,1.53-11.08,4.71-15.93a18.84,18.84,0,0,0,1.62-3.2c1.16-2.81,0-5.43-2.87-6.29A50.28,50.28,0,0,0,69.8,342.59ZM459,335.83c.45.57.82,1,1.13,1.43,1.64,2.37,3.25,4.75,4.88,7.12,1.87,2.73,5.27,2.51,6.72-.45a7.69,7.69,0,0,0,.53-1.83c.29-1.58.54-3.15.79-4.73.7-4.5,1.38-9,2.09-13.5a5.92,5.92,0,0,0-1.2-4.71c-2.58-3.46-5-7-7.51-10.55-1.7-2.38-3.52-2.72-5.92-1.11-2.25,1.52-4.47,3.1-6.7,4.65-5,3.48-10,6.94-14.95,10.44-2.14,1.5-2.49,2.62-1.76,5.14.14.46.32.91.48,1.36q2.63,7.2,5.25,14.41c1.12,3.06,3.73,3.66,6.19,1.41,2.72-2.49,5.41-5,8.12-7.49C457.72,336.89,458.34,336.41,459,335.83ZM41.08,333.5c-2.06.32-4.62.55-7.09,1.15a31.26,31.26,0,0,0-15.72,8.66c-2.66,2.79-4,6.13-2.77,9.88A12.92,12.92,0,0,0,24.26,362c4.55,1.38,9.15,2.18,13.91,1.37a33.17,33.17,0,0,0,10.44-3.28,22.69,22.69,0,0,0,7.76-7.3,11.71,11.71,0,0,0-4.12-17C48.84,334,45.21,334,41.08,333.5Zm474.06-29a22.29,22.29,0,0,0,1.1,2.68c1.22,2.15,2.53,4.25,3.81,6.36,1.81,3,4.21,3.27,6.62.78,2.88-3,5.77-5.95,8.59-9a12,12,0,0,0,2-2.93,3.49,3.49,0,0,0-.35-3.83c-2.14-2.78-4.18-5.64-6.34-8.4a3.36,3.36,0,0,0-5.66,0q-4.42,5.81-8.71,11.7A12,12,0,0,0,515.14,304.54ZM358.51,166.14c.17,1.49.38,3.07.54,4.66.34,3.33.65,6.67,1,10a3.78,3.78,0,0,0,2.86,3.43,3.51,3.51,0,0,0,3.71-2c.2-.35.35-.72.52-1.08l7.08-15.19c1.11-2.38,2.24-4.76,3.31-7.17a2.66,2.66,0,0,0-.56-3.29,2.55,2.55,0,0,0-3.12-.34q-6.73,3.63-13.45,7.33A3.59,3.59,0,0,0,358.51,166.14Z" transform="translate(-0.48 -0.48)"/><path class="cls-1" d="M552.81,512.77c-13.24.71-26.49,1.46-39.74,2.1-4.22.2-8.46.23-12.69.09a12,12,0,0,1-7.76-2.74A4.65,4.65,0,0,1,490.8,509a37.28,37.28,0,0,1,.8-13.8,9.87,9.87,0,0,1,1.27-2.56A40.1,40.1,0,0,1,502.48,482a36.72,36.72,0,0,1,8.47-4.37c5.62-2.25,11.58-3,17.59-3.34,7.49-.4,15-.53,22.49-1.08,8-.6,15.89-1.56,23.84-2.37a5.15,5.15,0,0,0,1.4-.3c3.85-1.54,7.92-1.78,12-2.05,2.47-.17,4.93-.47,7.41-.53,2.06,0,4.14.16,6.21.29a10,10,0,0,1,6.63,3.47,18.83,18.83,0,0,1,5.5,12.43c.09,2.31.13,4.62.06,6.93-.16,5.44-2.66,10-5.86,14.15a11.81,11.81,0,0,1-7.82,4.6,257.8,257.8,0,0,1-31.74,2.88c-5.27.17-10.54.27-15.82.4Z" transform="translate(-0.48 -0.48)"/><path class="cls-1" d="M147.37,368c-6.33.42-12-.79-17.57-2.1a127.47,127.47,0,0,1-17.4-5.32c-4.32-1.68-8.78-3-13.09-4.67A30.59,30.59,0,0,1,94,352.79a4.17,4.17,0,0,1-1.32-1.66c-1.22-2.5,0-4.62,2.79-4.57,2.07,0,4.12.46,6.19.66a35.67,35.67,0,0,0,24.49-6.47,20.06,20.06,0,0,0,5.41-6.36c4-6.44,7.1-13.23,8.37-20.77a16.78,16.78,0,0,0-.07-6.66c-1-4.44-2-8.89-2.92-13.34a4.37,4.37,0,0,1,1.27-3.95c.87-1,2.11-1,3.51-.12a31.68,31.68,0,0,0,9,3.85,37.41,37.41,0,0,0,24.88-1.47,79,79,0,0,0,15.69-8.7c.65-.46,1.29-1,2-1.37A3,3,0,0,1,197,282a2.74,2.74,0,0,1,.51,3.51c-1.23,2.6-2.58,5.14-3.83,7.73-1.32,2.74-2.74,5.44-3.82,8.26-1.45,3.82-.74,7.77,0,11.61,1,5,2,10,3.33,15,1.66,6.3,0,11.89-3.25,17.14a30.23,30.23,0,0,1-4.62,5.49c-6.66,6.54-13.64,12.57-23.11,14.8C157.15,366.74,152.12,368.05,147.37,368Zm10.9-42.25c.19,1.5.34,3,.6,4.5a5.74,5.74,0,0,0,4.74,4.78c2.67.32,5.38.28,7-2.43a35.43,35.43,0,0,0,2.52-4.9,17,17,0,0,0,.48-12.4c-1.15-3.25-3.28-4.9-6.38-4.74-2.48.13-4.11,1.77-5.34,3.65A21,21,0,0,0,158.27,325.76Z" transform="translate(-0.48 -0.48)"/><path class="cls-1" d="M398,130.79c-.76.73-1.35,1.25-1.89,1.81-4,4.24-8.06,8.46-12,12.73a9.77,9.77,0,0,1-4.61,2.84q-16,4.59-32,9.34c-1.7.51-3.18.48-4.4-.86s-1-2.9-.28-4.46c1-2,1.76-4.13,2.84-6.09a21.63,21.63,0,0,0,2.29-9.19c.55-7.41,1.26-14.82,1.8-22.23a4.52,4.52,0,0,1,2.44-3.8c7.93-4.95,15.82-10,23.73-15,2.85-1.8,4.72-1.08,5.34,2.25.85,4.64,1.48,9.31,2.2,14,.05.31.13.62.26,1.29.79-.4,1.47-.71,2.11-1.08l25.73-14.44c.63-.35,1.26-.69,1.89-1a3.22,3.22,0,0,1,4.95,3.36c-.41,4.46-.77,8.92-1.14,13.38,0,.39,0,.78,0,1.44.85-.24,1.51-.39,2.15-.61l31.69-11.06.69-.22c3.55-1.21,5.38.31,4.93,4.06-.74,6.35-1.52,12.7-2.13,19.06a7.91,7.91,0,0,1-4,6.6C439.33,139.49,428.2,146.27,417,153c-2.46,1.48-4.43.88-6-1.67q-6-9.68-12.1-19.31C398.71,131.69,398.45,131.39,398,130.79Z" transform="translate(-0.48 -0.48)"/><path class="cls-1" d="M688.64,473.88a27.6,27.6,0,0,1-4.27-1.62c-2.23-1.23-4.33-2.71-6.45-4.14-3.25-2.19-6.34-4.62-9.72-6.58a49.26,49.26,0,0,0-15-5.5,127.41,127.41,0,0,0-25.47-2.62,37.39,37.39,0,0,1-6.63-.86,8.25,8.25,0,0,1-4.85-2.92,32.88,32.88,0,0,1-7.63-19.52,14,14,0,0,1,.55-3.77c1.8-8.27,3.7-16.52,5.43-24.81a45.51,45.51,0,0,0,.08-16.21A75,75,0,0,0,611.09,370a27.14,27.14,0,0,1-1-3.45,2.68,2.68,0,0,1,1-3,2.72,2.72,0,0,1,2.94-.18,41.37,41.37,0,0,1,14.43,10.87,50,50,0,0,1,9.62,17c1.46,4.39,3.1,8.73,4.69,13.07,1.69,4.61,3.77,9.08,7.18,12.63a84,84,0,0,0,8.75,7.41c4.72,3.71,10.31,5.75,15.76,8a45.51,45.51,0,0,1,9.38,5.27c2.58,1.89,5.36,3.51,7.88,5.47A34.07,34.07,0,0,1,703,457.74c1.61,4.14.5,7.6-2.13,10.66C697.81,471.91,693.59,473.18,688.64,473.88Z" transform="translate(-0.48 -0.48)"/><path class="cls-1" d="M486.92,127.87c4-.45,7.79-.86,11.59-1.31q15.36-1.83,30.71-3.7c1.26-.15,2.53-.32,3.81-.44s2.79,0,3.47,1.52,0,2.58-1,3.64c-3.89,4-7.75,8.08-11.61,12.13-.42.44-.77.95-1.39,1.71,3.11.57,5.89,1.1,8.68,1.6l29.26,5.24a13.68,13.68,0,0,1,2.1.51,2.86,2.86,0,0,1,2,4.14,9.53,9.53,0,0,1-2,2.92c-10.41,10-20.89,20-31.3,30.1a5,5,0,0,1-5.66,1.26q-8.36-3-16.75-5.83a5,5,0,0,1-3.7-4.46c-1.2-7.57-2.57-15.12-3.89-22.67-.15-.84-.41-1.66-.66-2.66-.81.31-1.41.49-2,.76l-36.89,18.43a11.86,11.86,0,0,1-1.3.61c-3.08,1.12-5.27-.35-5.31-3.64-.05-4.32,0-8.64,0-13,0-4.16,0-8.32,0-12.47a7.32,7.32,0,0,1,2.17-5.4l24.3-25.23c.84-.88,1.68-1.76,3.06-1.55a3.26,3.26,0,0,1,2.59,3.31c.05,1.27-.13,2.55-.14,3.83C486.91,120.68,486.92,124.1,486.92,127.87Z" transform="translate(-0.48 -0.48)"/><path class="cls-1" d="M363.54,250.3c-.84.67-1.62,1.2-2.3,1.84q-5.07,4.75-10.09,9.57a2.84,2.84,0,0,1-3.24.86c-1.28-.5-1.62-1.6-1.74-2.89-.56-5.72-1.09-11.44-1.8-17.15a6.8,6.8,0,0,1,1.69-5.89c11.48-13,22.85-26.1,34.26-39.17.26-.3.53-.6.8-.89a2.7,2.7,0,0,1,3-1,2.74,2.74,0,0,1,1.9,2.52c.26,2.22.57,4.43.83,6.65.65,5.56,1.28,11.11,1.93,16.67.05.37.15.74.27,1.32.93-.43,1.72-.76,2.49-1.14l42.77-21.12c.35-.18.71-.37,1.07-.54,2.92-1.38,4.72-.48,5.27,2.79.84,5,1.58,9.94,2.36,14.91.74,4.74,1.45,9.48,2.24,14.2a17.09,17.09,0,0,1-.16,7.12c-.91,3.64-1.68,7.32-2.42,11a5.9,5.9,0,0,1-3.52,4.5c-4.57,2.11-9.09,4.33-13.65,6.47-2.21,1-3.44.74-5.25-1.35-4-4.65-8-9.35-12-14l-2-2.3c-1,.63-2,1.18-2.91,1.79L380.9,260.19c-3,2-4.61,1.91-7.22-.49-2.77-2.55-5.49-5.14-8.23-7.7C364.87,251.46,364.27,251,363.54,250.3Z" transform="translate(-0.48 -0.48)"/><path class="cls-1" d="M371.86,477.58c-2.55,0-5.11.07-7.66,0a21.31,21.31,0,0,1-4.73-.54,5.51,5.51,0,0,1-4.41-4.55,3.11,3.11,0,0,0-2.64-2.68c-2.63-.7-5.25-.37-7.87-.15-6.69.57-13.37,1.59-20.06,1.74-7.34.17-14.69-.41-22-.73-2.07-.09-4.14-.4-6.2-.67a17.24,17.24,0,0,1-2.56-.58,2.45,2.45,0,0,1-1.9-2.47c-.12-3.67-.29-7.34-.3-11,0-2.5.81-3.3,3.33-3.35q9.59-.21,19.19-.3c11-.1,22.08,0,33.11-.29S369,450.88,380,450.39a143.81,143.81,0,0,0,19.54-2c3-.55,5.93-1.29,8.91-1.84,11.7-2.19,23.14-5.69,35-7.1a48.43,48.43,0,0,1,9.09-.1c3.22.23,4.39,1.63,4.42,4.83a37.36,37.36,0,0,1-.43,5.48,10.36,10.36,0,0,0,3.42,9.73c.81.75,1.38,1.76,2.14,2.58,2,2.17,2.15,4.71,1.6,7.41a4.87,4.87,0,0,1-4.33,3.89c-4.46.38-8.92.78-13.38,1-15.42.59-30.85,1-46.27,1.66-8.31.35-16.6,1-24.9,1.55-1,.06-1.92,0-2.88,0Z" transform="translate(-0.48 -0.48)"/><path class="cls-1" d="M261.35,300.26c-1-2.93-1.78-5.41-2.58-7.91-2.67-8.37-5.24-16.78-8-25.11a11.75,11.75,0,0,1,0-8q6.36-17.7,12.91-35.34c1.21-3.29,3.93-3.95,6.64-1.7A13.48,13.48,0,0,1,272,224l10.19,12.13c.86,1,1.75,2,2.76,3.22.76-.74,1.39-1.33,2-1.95l28.6-29.43c.34-.34.66-.7,1-1,1.9-1.79,4.07-1.43,5.27.91a17.37,17.37,0,0,1,.77,2c4.56,12.72,9,25.47,13.73,38.12,1.12,3,.49,4.9-1.76,6.9-7.53,6.71-14.94,13.54-22.4,20.32-1.66,1.5-3.3,3-5,4.51a16.12,16.12,0,0,1-2.07,1.63c-2.21,1.4-3.82,1.16-5.48-.82-1.33-1.6-2.56-3.28-3.89-4.88q-3.77-4.5-7.59-9c-1.17-1.35-2.39-1.51-3.76-.41a8.56,8.56,0,0,0-1.67,2q-9.76,14.69-19.5,29.38C262.68,298.41,262.13,299.16,261.35,300.26Z" transform="translate(-0.48 -0.48)"/><path class="cls-1" d="M235.92,186.2c-4.29,5.06-8.38,9.86-12.46,14.68-3.47,4.08-6.92,8.18-10.41,12.25-2.27,2.66-3.9,2.71-6.35.2Q190.76,197,174.83,180.74c-1.59-1.62-1.66-2.78-.25-4.61a20.26,20.26,0,0,1,1.74-2l25.23-25c2.46-2.44,4-2.51,6.6-.28q7.82,6.72,15.62,13.47c.66.57,1.34,1.11,2.14,1.78.57-.84,1.07-1.55,1.54-2.29q10.68-16.79,21.35-33.59c2.28-3.58,4.69-3.45,6.67.36,4.13,7.94,8.17,15.93,12.39,23.82a6.24,6.24,0,0,1-.27,7c-3.8,5.83-7.56,11.68-11.34,17.51q-4.69,7.25-9.39,14.49c-1.47,2.26-2.62,2.43-4.6.66S238.16,188.27,235.92,186.2Z" transform="translate(-0.48 -0.48)"/><path class="cls-1" d="M377.28,274.77c.78-.63,1.4-1.11,2-1.63L400.35,255a14.19,14.19,0,0,1,1.47-1.22,2.63,2.63,0,0,1,3.67.43,10.37,10.37,0,0,1,1.51,2.42c2.42,5.13,4.8,10.27,7.29,15.61,1-.23,1.88-.42,2.78-.67l23.09-6.38c.46-.13.93-.25,1.4-.34,2.16-.39,3.45.57,3.48,2.74,0,1.75-.1,3.51-.21,5.27-.6,9.57-1.27,19.13-1.81,28.71A4.18,4.18,0,0,1,440,305.8c-10.74,3.89-21.43,7.92-32.15,11.88-2.87,1.06-4.12.68-5.91-1.89q-6.6-9.44-13.15-18.89c-.46-.65-.93-1.29-1.51-2.09-.54.43-1,.77-1.47,1.17q-10.06,9.43-20.1,18.89a17.51,17.51,0,0,1-2.17,1.88,2.78,2.78,0,0,1-4.48-1.34c-2.16-5.06-4.3-10.15-6.49-15.2a6.3,6.3,0,0,1-.49-3.73q2.82-16.77,5.61-33.56a7.74,7.74,0,0,1,.6-2.06,2.55,2.55,0,0,1,4-1,14.58,14.58,0,0,1,1.56,1.49Z" transform="translate(-0.48 -0.48)"/><path class="cls-1" d="M190.87,453.74c-6.92-1.26-11.77-5.76-16.7-10.09-2-1.79-4.13-3.56-6-5.54a74.23,74.23,0,0,1-5.07-6.35,3.08,3.08,0,0,1-.1-3.61,3.39,3.39,0,0,1,3.44-1.76c4.38.62,8.37-.63,12.31-2.29a12.85,12.85,0,0,0,4.57-3.79c2.12-2.46,2.59-2.6,5.53-1.4a29.83,29.83,0,0,1,14.8,12.36c3.51,5.78,8.81,8.32,15.48,8.34a17.07,17.07,0,0,0,6.76-1.28,54.87,54.87,0,0,0,20-14.49c2.72-3,5.38-6.11,8.06-9.18,1-1.09,2-1.82,3.57-1.31a3.64,3.64,0,0,1,2.7,3c.72,4.2-.47,8.09-1.89,11.91s-3.05,7.56-4.49,11.37A64.85,64.85,0,0,1,247,452.25a46.48,46.48,0,0,1-16.1,15.11,123.17,123.17,0,0,1-12.46,6.16,87,87,0,0,1-20.39,6.09,44.31,44.31,0,0,1-19.46-1.27q-7-2.07-14-4.17a8.42,8.42,0,0,1-2-.84,3,3,0,0,1-1.34-3.32c.37-1.34,1.45-1.57,2.62-1.64,11-.63,19.4-6.2,26.76-13.83C190.75,454.45,190.74,454.26,190.87,453.74Z" transform="translate(-0.48 -0.48)"/><path class="cls-1" d="M254.76,346.28c.33,9.82.54,19.65,1,29.47a94.82,94.82,0,0,1-.89,21.49,28,28,0,0,1-5.58,12.57A61.58,61.58,0,0,1,223.69,429a10.21,10.21,0,0,1-7.7.31,13,13,0,0,1-4.87-3.75,62.17,62.17,0,0,0-5.77-5.71,20.41,20.41,0,0,0-5-2.76c-6.12-2.61-6-2.06-5.39-8.55,1-10.81,5-20.34,12.74-28.26a154.59,154.59,0,0,1,15.71-13.7,124.88,124.88,0,0,0,18.31-17.22,41.88,41.88,0,0,0,7.48-12.48c.11-.3.23-.6.36-.89.7-1.61,1.77-2.4,3-2.2s2.32,1.34,2.36,3.17c.07,3.12,0,6.23,0,9.35Z" transform="translate(-0.48 -0.48)"/><path class="cls-1" d="M300.42,294.77c2.48-1.8,4.87-3.52,7.25-5.26l28.86-21.06c.32-.24.65-.47,1-.7,2.89-1.91,5.21-.9,5.58,2.51.39,3.57.68,7.16,1,10.73.59,6.05,1.13,12.1,1.83,18.13a11.06,11.06,0,0,1-1.81,7.91c-4.17,6.25-8.08,12.66-12.11,19a15.44,15.44,0,0,1-1.52,2.15,3.16,3.16,0,0,1-4.51.38,14.89,14.89,0,0,1-2.06-2c-4.14-4.66-8.25-9.35-12.38-14-.68-.77-1.37-1.53-2.14-2.38-.45.56-.82,1-1.12,1.42q-7.51,11.41-15,22.84c-1.33,2-2.54,2.44-5.13,1.45q-11.54-4.36-23.06-8.78a8.59,8.59,0,0,0-1.57-.6c-2.63-.42-3.69-2.13-4.1-4.57a18.74,18.74,0,0,0-1.14-3.64c-.79-2-.57-3.13,1.2-4.32q3.19-2.13,6.5-4.08a6.82,6.82,0,0,0,2.81-3.12c4.62-9.74,9.32-19.45,14-29.18.18-.36.34-.72.51-1.08a2.84,2.84,0,0,1,2.55-1.89,3,3,0,0,1,2.64,1.77c3.77,5.93,7.58,11.84,11.37,17.76C300,294.29,300.08,294.4,300.42,294.77Z" transform="translate(-0.48 -0.48)"/><path class="cls-1" d="M254.55,481.72c-3.26.58-6.15,1.08-9,1.61-4.4.8-8.77.1-13.15-.16-2-.13-4-.46-5.94-.73A2.48,2.48,0,0,1,224,480.2a2.52,2.52,0,0,1,1.75-2.81c1.71-.68,3.44-1.31,5.18-1.87a31.21,31.21,0,0,0,8.95-5,65.36,65.36,0,0,0,12.2-11.82,21.42,21.42,0,0,0,2.8-5.24c1-2.48,1.74-3.14,4.44-3.11a134.22,134.22,0,0,1,18.89,1.28c5.16.78,5.78,2.42,6.85,6.43,1.72,6.5-.69,11.94-4.91,16.73-1.27,1.43-2.87,2.56-4.15,4a35.6,35.6,0,0,0-3.47,4.56c-2.2,3.43-1.88,7-.2,10.51a5.13,5.13,0,0,0,.62,1c3.19,4,3.35,8.41,2.16,13.17a29.52,29.52,0,0,1-5.34,11.66,8.87,8.87,0,0,1-6,3.55c-4.6.54-9.22,1.09-13.84,1.25-10.07.37-20.15.91-30.22.12a59.41,59.41,0,0,1-5.92-.85,8.42,8.42,0,0,1-2.24-.83c-2.29-1.18-3.16-2.83-2.55-5.33a25.92,25.92,0,0,1,7-12.9,60.85,60.85,0,0,1,21.84-13.58c4.41-1.61,9-2.68,13.59-3.88,1.13-.29,1.87-.68,2.13-1.88S254.16,483.07,254.55,481.72Z" transform="translate(-0.48 -0.48)"/><path class="cls-1" d="M88.44,396.8c-.77-5.43-1.43-10.57-2.23-15.7a31.29,31.29,0,0,1,2.32-17.81,6.24,6.24,0,0,1,.84-1.44,3.54,3.54,0,0,1,6,.27,21.86,21.86,0,0,0,4.69,5.71,15.69,15.69,0,0,0,5.5,2.81,99.11,99.11,0,0,1,10,3.42c7.89,3.27,12,10.77,10.42,19.49-1,5.57-2.37,11.09-3.82,16.57a45,45,0,0,0-1.61,13.5c.2,4.78.07,4.69-3.71,7.7-6.94,5.51-15.06,7.78-23.64,8.16-8.8.39-16.44-2.55-22.32-9.54-5.45-6.48-10.27-13.27-12.57-21.56a6.13,6.13,0,0,0-.24-.68c-1.36-3.46-.68-5.62,2.65-7.25a34.42,34.42,0,0,1,14.45-4c4-.07,8,.25,12,.39C87.44,396.87,87.74,396.83,88.44,396.8Z" transform="translate(-0.48 -0.48)"/><path class="cls-1" d="M390.17,409.23c.69-.47,1.16-.75,1.59-1.09q10.64-8.2,21.26-16.43c2.78-2.16,4.65-1.86,6.49,1.11l19.08,30.79c.33.55.66,1.1,1,1.63,2.18,3.31,1.56,5.12-2.14,6.15l-25,6.9c-3.23.9-6.48,1.74-9.68,2.75A45.3,45.3,0,0,1,391.75,443c-8.7.52-17.41,1-26.1,1.63a7.29,7.29,0,0,1-6.25-2.23c-2.13-2.16-4.41-4.18-6.74-6.13a4.65,4.65,0,0,1-1.78-4.42c.59-6.12,1.12-12.26,1.68-18.39.08-.87.21-1.75.24-2.62a5,5,0,0,1,3.05-4.51c6.75-3.3,13.49-6.64,20.25-9.92,2.28-1.11,3.86-.7,5.43,1.35,2.33,3.05,4.6,6.14,6.9,9.22C389,407.63,389.49,408.32,390.17,409.23Z" transform="translate(-0.48 -0.48)"/><path class="cls-1" d="M150.25,211.12c.49-3.31.95-6.38,1.39-9.45q1.71-12,3.4-24a3.18,3.18,0,0,1,5.62-1.94q11.25,11.15,22.55,22.23a6,6,0,0,1,1.69,4.11,63.32,63.32,0,0,1-1.31,16c-1.88,10.11-6.51,19-12.2,27.41-6.43,9.45-13.17,18.69-19.84,28a55.21,55.21,0,0,1-4.55,5.25,11.34,11.34,0,0,1-7.7,3.45c-2.08.16-2.9-.6-3.07-2.73-.06-.8,0-1.6,0-2.4.14-6.71.14-13.44.5-20.14a111.88,111.88,0,0,0-1-22.49,72.52,72.52,0,0,0-4.77-17.27c-.84-2-2.43-3.74-3.67-5.6a7.27,7.27,0,0,1-1-1.64,2.56,2.56,0,0,1,2.56-3.58,10.71,10.71,0,0,1,2.37.36C137.41,208.09,143.63,209.56,150.25,211.12Z" transform="translate(-0.48 -0.48)"/><path class="cls-1" d="M595.38,198.49c.7.64,1.27,1.17,1.87,1.68l19.63,16.91c.36.31.74.61,1.09.94,1.84,1.75,1.75,4.15-.42,5.43-4.46,2.66-9,5.17-13.53,7.73a4.27,4.27,0,0,1-3.24.33c-7.78-1.83-15.57-3.58-23.34-5.4-9.49-2.21-19-4.47-28.46-6.7a13.38,13.38,0,0,1-1.38-.37c-1.73-.61-2.17-1.24-1.83-3.08.47-2.51,1.11-5,1.61-7.5.3-1.47,1-3.16.56-4.38s-2.15-1.76-3.34-2.56c-2.33-1.55-4.65-3.11-7-4.57-2.93-1.79-3.16-4.19-.44-6.25,4-3,8.08-6,12.11-9,5.51-4.11,11-8.19,16.49-12.39a4.8,4.8,0,0,1,5.31-.72c10.7,4.44,21.43,8.81,32.15,13.2.37.16.75.29,1.1.48,2.65,1.42,3,3.33,1,5.56-2.54,2.77-5.11,5.51-7.67,8.26C596.88,196.82,596.2,197.59,595.38,198.49Z" transform="translate(-0.48 -0.48)"/><path class="cls-1" d="M356.24,194.62a28,28,0,0,1-1,3.31q-5.24,12.49-10.57,24.94a5.38,5.38,0,0,1-1.33,1.94c-1.87,1.59-4.14,1-5.59-1.33q-6.63-10.84-13.21-21.71c-.67-1.09-1.3-2.2-2-3.28-1.34-2.12-2.39-2.37-4.52-1q-9.8,6.48-19.57,13c-3.66,2.44-7.31,4.89-11,7.3-2.73,1.79-4.52,1.3-6-1.68-3.31-6.83-6.57-13.69-9.87-20.52a2.8,2.8,0,0,1,.38-3.33,24.41,24.41,0,0,1,1.92-2.14q14.69-13.78,29.42-27.53c.4-.38.81-.78,1.24-1.13a2.91,2.91,0,0,1,3.74-.35,7.75,7.75,0,0,1,1.52,1.16c4.11,4,8.22,8,12.28,12.12a2.77,2.77,0,0,0,3.48.5l11.22-4.85c2.5-1.06,5-2.17,7.52-3.13,3-1.14,4.7-.21,5.54,2.91q2.76,10.3,5.48,20.61C355.75,191.77,355.94,193.12,356.24,194.62Z" transform="translate(-0.48 -0.48)"/><path class="cls-1" d="M207.3,353a33.49,33.49,0,0,1-5.55-1.41c-2.57-1.12-4.14-2.78-1.42-5.93a23.44,23.44,0,0,0,5.19-9.09,14.51,14.51,0,0,0-.54-9.16c-.65-1.71-1.61-3.3-2.38-5-2.91-6.31-4.28-12.88-2.89-19.8a22.33,22.33,0,0,1,4.7-10.12,216.16,216.16,0,0,1,23.9-24.23,8.88,8.88,0,0,1,3.11-1.69,3.9,3.9,0,0,1,4.78,1.67q3.35,6.22,6.57,12.53c1.95,3.82,2.61,8,3.46,12.17.89,4.38,2,8.7,3.08,13.05q.67,2.79,1.39,5.58a11.86,11.86,0,0,1-1.14,9c-4.29,7.74-9.31,14.91-16.15,20.65A55.27,55.27,0,0,1,213,352.08,51.54,51.54,0,0,1,207.3,353Z" transform="translate(-0.48 -0.48)"/><path class="cls-1" d="M583.82,318c.49.95.86,1.73,1.28,2.48q6.71,12.19,13.43,24.37a17.73,17.73,0,0,1,1.06,2.14c.88,2.31,0,3.77-2.38,4.12-.71.11-1.44.11-2.15.16l-2.41.17c.55.71.88,1.21,1.28,1.65q4.76,5.25,9.54,10.47c.43.47.85.95,1.24,1.46a2.21,2.21,0,0,1-2.21,3.44,19.46,19.46,0,0,1-2.07-.6c-5.83-2-11.69-3.84-17.49-5.87a10.67,10.67,0,0,0-6.77-.32c-3.91,1.12-7.9,2-11.86,2.94a15.19,15.19,0,0,1-1.87.4c-3.89.41-4.76-.77-4.07-3.94,1.86-8.51,3.51-17.06,5.42-25.56a10.42,10.42,0,0,0-1.45-8.38c-9.21-15-18.27-30.06-27.37-45.12a10.94,10.94,0,0,1-1.08-2.13,4.05,4.05,0,0,1,1-4.63,3.75,3.75,0,0,1,4.45-.57c3.17,1.51,6.35,3,9.51,4.56q24.93,12.06,49.86,24.14a10.64,10.64,0,0,1,2.28,1.29,2.75,2.75,0,0,1-.35,4.77c-2.71,1.53-5.53,2.88-8.31,4.29Z" transform="translate(-0.48 -0.48)"/><path class="cls-1" d="M429.43,371.17c.71-.64,1.36-1.2,2-1.79q11.83-11.06,23.69-22.09a11.45,11.45,0,0,1,1.62-1.42,2.58,2.58,0,0,1,3.71,1,9.54,9.54,0,0,1,.78,2c1.64,5.52,3.21,11.06,4.9,16.55a6.3,6.3,0,0,1-.94,5.84c-7.11,10.54-14.1,21.16-21.13,31.75-1.74,2.63-4.3,2.77-6.3.44q-8.75-10.19-17.6-20.3c-1.17-1.34-1.33-1.35-3.05-.36q-9.67,5.55-19.33,11.13c-1.25.72-2.47,1.49-3.71,2.21-2.18,1.26-3.88.92-5.42-1.12-1.11-1.47-2.26-2.91-3.23-4.47a3.5,3.5,0,0,0-4.1-1.63c-3.69.72-7.38,1.38-11.07,2.07-1.42.26-2.82.62-4.24.8-3,.38-4.7-1.83-3.64-4.67.2-.52.47-1,.71-1.52q7.31-15.1,14.63-30.21c.76-1.57,1.27-3.37,3.45-3.58s3.16,1.43,4.2,3c3.54,5.33,7.12,10.63,10.69,15.94,1.14,1.69,1.76,1.81,3.51.57,5.6-4,11.18-8,16.78-12,3-2.16,5-1.74,6.86,1.44s3.61,6.22,5.42,9.33C428.82,370.38,429.08,370.68,429.43,371.17Z" transform="translate(-0.48 -0.48)"/><path class="cls-1" d="M503.47,376.69c-6,4-11.75,7.72-17.45,11.56-2.62,1.76-3.66,1.54-5.36-1.16-2.65-4.19-5.41-8.32-8.12-12.47-.35-.53-.74-1.05-1-1.61-.92-1.65-.71-2.76.79-4a22.27,22.27,0,0,1,2-1.35q13.23-8.48,26.47-16.95c3.08-2,3.95-1.76,5.87,1.47,1.64,2.75,3.25,5.52,4.87,8.27.77,1.3,1.55,2.58,2.39,4l3.75-1.37q15.07-5.55,30.15-11.09a15.89,15.89,0,0,1,2.52-.76c2.56-.48,4.05,1,3.49,3.6-.61,2.72-1.36,5.42-2,8.14-.72,2.93-1.43,5.87-2.23,9.15,1.16-.1,2.09-.13,3-.27,4.5-.69,9-1.38,13.5-2.14,3.29-.57,6.53-.06,9.78.33,6.43.79,12.85,1.54,19.28,2.31.32,0,.64,0,.95.12a2.93,2.93,0,0,1,2.56,2.21,2.74,2.74,0,0,1-1.6,3.16c-2.23,1.25-4.42,2.57-6.68,3.76-6.44,3.4-12.9,6.74-19.35,10.1a18.29,18.29,0,0,1-2,.93,3.44,3.44,0,0,1-4.43-1.26c-2.7-3.47-5.36-7-8.05-10.46-.48-.62-1-1.23-1.65-2.05-.77.43-1.52.82-2.24,1.26L525.17,396.8c-4,2.42-4.79,2.27-7.68-1.54q-5.72-7.56-11.41-15.14C505.27,379,504.44,378,503.47,376.69Z" transform="translate(-0.48 -0.48)"/><path class="cls-1" d="M361.3,368.8a36,36,0,0,1-.9,4.89c-2.48,7.51-5,15-7.61,22.46-1.27,3.73-3,4.35-6.26,2.24q-4.25-2.72-8.45-5.47c-2.83-1.83-3.2-1.82-6,.09l-26,17.67-.8.54c-3.36,2.24-4.25,2.2-7.4-.35l-.19-.15c-6.43-5.32-4.49-4-11.73-5-4.91-.64-9.85-1.06-14.77-1.57-3-.31-3.31-.54-4-3.42q-2.87-11.75-5.76-23.49c-.4-1.6-.82-3.25.53-4.51s3.34-1.38,5.18-.75a15.13,15.13,0,0,1,2.36,1.15q8.45,4.8,16.87,9.62c1.81,1,2.53,1,3.76-.39Q295,377.1,300,371.85q4.1-4.38,8.23-8.73c2.78-2.92,4.65-3,7.48-.19l10.59,10.44c.68.67,1.35,1.37,2.09,2,1.62,1.31,2.36,1.3,4,.06l21.82-16a18,18,0,0,1,1.79-1.2,2.94,2.94,0,0,1,4.3,2.25c.18,2.79.5,5.57.76,8.35Z" transform="translate(-0.48 -0.48)"/><path class="cls-1" d="M529.73,466.68c-1.67,0-3.44.1-5.18,0-2.69-.19-3.64-.92-4.1-3.5a96,96,0,0,1-1.82-12.56,21.44,21.44,0,0,1,3.8-13.62,12.11,12.11,0,0,1,7.42-5,64.18,64.18,0,0,1,11.56-1.8c9.11-.31,18.24-.2,27.36-.29,7.82-.08,15.65-.2,23.48-.3a9.92,9.92,0,0,1,5.49,1.4,5.1,5.1,0,0,1,2.35,2.9,60.23,60.23,0,0,0,7.34,14.49c1.81,2.71,3,5.5,1.19,8.72a6.42,6.42,0,0,1-4.73,3.68c-3.4.49-6.8,1-10.22,1.32-12.82,1.08-25.64,2.14-38.47,3.07C546.75,465.82,538.28,466.19,529.73,466.68Z" transform="translate(-0.48 -0.48)"/><path class="cls-1" d="M612.35,309c-1.22-1.76-2.36-3.37-3.47-5-1-1.46-2-2.9-2.86-4.42s-.43-2.78,1.28-3.38,3.67-1.11,5.51-1.66c6.8-2,13.61-4.1,20.42-6.13a12.38,12.38,0,0,1,2.33-.49,2.65,2.65,0,0,1,2.78,1.47c.34.64.69,1.26,1,1.91l12.76,25.5c.28.57.57,1.15.81,1.74,1.16,2.94-.23,4.81-3.34,4.39-3.4-.47-6.79-1-10.18-1.56-.3,0-.61-.06-1.22-.12.2.83.32,1.49.54,2.12,2.07,6,4.22,12.06,6.21,18.13a10.11,10.11,0,0,1,.49,4.22c-1,8.25-2.11,16.48-3.21,24.71a7.34,7.34,0,0,1-.55,2.08,2.63,2.63,0,0,1-3.84,1.15,9.43,9.43,0,0,1-1.48-1.21q-15.14-13.65-30.24-27.33a8.38,8.38,0,0,1-2.16-3.06c-2.3-6.13-4.5-12.3-6.65-18.48a8.69,8.69,0,0,1-.37-3.25,3.76,3.76,0,0,1,2.06-3c3.77-2.25,7.5-4.58,11.24-6.89C610.88,310,611.53,309.56,612.35,309Z" transform="translate(-0.48 -0.48)"/><path class="cls-1" d="M297.72,130.3c.87-.55,1.55-1,2.2-1.39q16.93-11.55,33.87-23.12a10.73,10.73,0,0,1,2.5-1.38,2.7,2.7,0,0,1,3.77,2.18,6.81,6.81,0,0,1,.16,1.19c.55,9.41,1.07,18.83,1.66,28.24a11.06,11.06,0,0,1-1.16,5.76c-3.46,7.12-6.79,14.29-10.18,21.44a18.64,18.64,0,0,1-1.12,2.12,3.08,3.08,0,0,1-5.34.28c-3.32-4.2-6.58-8.45-9.88-12.67-1.77-2.27-2.45-2.36-5-1q-11.25,5.9-22.54,11.72a10.45,10.45,0,0,1-2,.78,3.48,3.48,0,0,1-4.31-1.7A18.46,18.46,0,0,1,279,160q-5-12.32-10.05-24.63c-1.11-2.71-1-3.33,1.08-5.24q9.18-8.45,18.38-16.87c2.74-2.51,5.13-1.71,6,2,.95,4.28,1.85,8.58,2.79,12.87C297.26,128.78,297.48,129.44,297.72,130.3Z" transform="translate(-0.48 -0.48)"/><path class="cls-1" d="M388.43,186.88c-3.57,1.24-6.88,2.38-10.18,3.54-1.74.6-3.45,1.26-5.2,1.84a3.4,3.4,0,0,1-4.11-1c-1-1.21-1-2.56-.05-4.23l20.9-37.5c.43-.76.82-1.56,1.32-2.28,1.6-2.29,3.7-2.43,5.53-.29,5.19,6.09,10.33,12.21,15.5,18.32.51.6,1,1.17,1.65,1.85.67-.45,1.27-.82,1.83-1.24l25.77-19.21c.38-.29.75-.6,1.15-.87,2.21-1.47,4.55-.45,4.9,2.22.21,1.59.26,3.19.33,4.79.32,6.47.45,12.95,1,19.4.3,3.57-.92,5.85-3.88,7.77-13.76,8.9-27.43,18-41.13,26.94-.47.31-.92.64-1.41.91-2.47,1.33-4.54.65-5.68-1.94-1.52-3.44-2.95-6.91-4.43-10.36C391,192.75,389.79,190,388.43,186.88Z" transform="translate(-0.48 -0.48)"/><path class="cls-1" d="M307.14,520.63c-7.26.19-14.55.18-21.8.66a5,5,0,0,1-4.9-5.44,18.17,18.17,0,0,1,.71-3,22.3,22.3,0,0,0,.39-13c-.79-3.33-1.59-6.67-2.6-9.95a8.22,8.22,0,0,1,1.15-7.06,6.37,6.37,0,0,1,2.23-2.05,16.9,16.9,0,0,1,7.79-2.15c5.74-.18,11.49-.18,17.24-.1a31.41,31.41,0,0,1,6.4.81,36.64,36.64,0,0,0,17.78-.51,57.11,57.11,0,0,1,13-1.77c2.91-.09,4.83.93,5.69,4.34a26,26,0,0,1,.67,7.82A41.67,41.67,0,0,1,341.24,513a22.3,22.3,0,0,1-8.58,6.36,12,12,0,0,1-4.43.79c-7,.21-14.06.31-21.09.44Z" transform="translate(-0.48 -0.48)"/><path class="cls-1" d="M131.71,392.69a28.84,28.84,0,0,1,3.35-13.12,6.86,6.86,0,0,1,5.48-4c9.71-1.52,19.41-3.12,28.72-6.41a48.34,48.34,0,0,0,5.79-2.28c7.2-3.64,14.9-5.73,22.75-7.32,3.82-.77,7.72-1.22,11.59-1.79a4.06,4.06,0,0,1,3.46,1.34,2.55,2.55,0,0,1-.17,3.83c-1,.94-2.06,1.76-3.11,2.63a63.3,63.3,0,0,0-13.3,15.64,29,29,0,0,0-3.79,10.27c-2.54,13.94-11.18,22.6-24.09,27.38a13,13,0,0,1-10.71-.67,9.79,9.79,0,0,1-5.21-5.95c-1-3.12-2-6.24-3.14-9.3a25.75,25.75,0,0,0-2.32-4.71c-1.21-2-3-2.39-5.14-1.3-1.42.73-2.77,1.59-4.16,2.38-2.87,1.64-5.29.47-5.69-2.78C131.87,395.24,131.81,394,131.71,392.69Z" transform="translate(-0.48 -0.48)"/><path class="cls-1" d="M515.7,221.9l2.24-1.47L533.5,210c.4-.27.78-.56,1.2-.79,2.21-1.18,4.27.06,4.25,2.58a8.12,8.12,0,0,1-.17,1.19c-.81,4.64-1.64,9.28-2.44,13.93-.12.69-.15,1.4-.25,2.3,2.21.24,4.25.47,6.31.67,9.38.94,18.77,1.84,28.15,2.8,3.26.33,4.28,2.59,2.39,5.38-2.82,4.18-5.75,8.28-8.62,12.42-.5.72-1,1.44-1.61,2.36.78.57,1.45,1.09,2.16,1.57l18.94,12.67a10.35,10.35,0,0,1,1.54,1.13,3.54,3.54,0,0,1,.29,5,32.29,32.29,0,0,1-11.29,8.27c-1.69.8-3.63,0-5.35-.66-8.13-3.35-16.24-6.75-24.38-10.06a4.41,4.41,0,0,1-2.82-3.25c-1.45-5.23-3.14-10.41-4.52-15.66a5.36,5.36,0,0,0-3.87-4.06c-8.56-2.89-17.08-5.88-25.65-8.72a3,3,0,0,1-2.46-2.75c-.62-4.27-1.44-8.51-2.17-12.76-.05-.31-.07-.63-.1-.95-.17-1.72-.24-3.51,1.49-4.49a5.33,5.33,0,0,1,5.71.08C512.05,219.38,513.81,220.63,515.7,221.9Z" transform="translate(-0.48 -0.48)"/><path class="cls-1" d="M404.45,328.41l5.51-2.84q6.59-3.45,13.16-6.9a23.29,23.29,0,0,1,2.82-1.32,3.61,3.61,0,0,1,5.13,3c.52,3.16.91,6.33,1.34,9.5.95,7,1.91,13.93,2.84,20.9.15,1.15.53,2.4-.45,3.42-2.14,2.24-3.3,2.34-5.41.9-3.37-2.29-6.7-4.64-10.05-7-.65-.45-1.33-.85-2.12-1.36-.74.61-1.42,1.15-2.07,1.72l-11.88,10.45c-2.27,2-3.84,1.92-5.92-.39q-6.42-7.14-12.79-14.31c-2.38-2.67-2.39-2.69-4.82,0-3,3.33-5.95,6.69-8.94,10a27,27,0,0,1-2.15,2.26c-1.38,1.23-2.77,1.32-4.06.06a25.11,25.11,0,0,1-4-4.71,11,11,0,0,1-1.47-4.72c-.34-4.22-.35-8.46-.59-12.69a5.94,5.94,0,0,1,2-4.89c7.42-7.39,14.76-14.86,22.14-22.3,2.42-2.46,4.42-2.33,6.53.5,4.58,6.16,9.12,12.35,13.68,18.52C403.28,326.94,403.78,327.55,404.45,328.41Z" transform="translate(-0.48 -0.48)"/><path class="cls-1" d="M325.09,340.49l2-2L347,318.69A17,17,0,0,1,348.7,317a2.54,2.54,0,0,1,4.26,1.77,6.12,6.12,0,0,1,0,1c-.24,8.55-.49,17.09-.7,25.64a5.11,5.11,0,0,1-2,3.68q-8.24,7.7-16.51,15.36c-1.83,1.69-3,1.68-5,0-3.93-3.4-7.83-6.84-11.74-10.26-.18-.16-.35-.33-.53-.48-2.76-2.38-3.84-2.36-6.51.24q-9.36,9.12-18.7,18.27c-3,2.92-4.8,3.05-8.18.56-4.11-3.05-8.17-6.16-12.34-9.13a5.59,5.59,0,0,1-2.42-3.91c-1.17-6.76-2.41-13.52-3.66-20.28a2.67,2.67,0,0,1,.9-2.78,2.62,2.62,0,0,1,2.92-.3q10.94,4.61,21.89,9.16c2.07.86,2.69.66,4-1.17l13.06-17.78a15.83,15.83,0,0,1,1.18-1.52c2.1-2.26,4.43-2.08,6.16.47l7.68,11.31C323.33,338,324.15,339.15,325.09,340.49Z" transform="translate(-0.48 -0.48)"/><path class="cls-1" d="M202.3,268.86c-.94.57-1.61.95-2.27,1.36-10,6.24-20.45,11.53-31.91,14.63a39.27,39.27,0,0,1-12.58,1.32c-2.56-.15-3.86-2.13-2.71-4.46a20.9,20.9,0,0,1,2.89-4.38c4.46-5.23,9.16-10.26,13.51-15.58,8.06-9.86,13.23-21.25,17-33.33.83-2.67,1.57-5.36,2.44-8a12.46,12.46,0,0,1,1.38-3c1.73-2.56,4.51-2.46,6.24.09,2.43,3.57,4.85,7.14,7.35,10.66a28.23,28.23,0,0,0,3.13,3.61c3.24,3.2,6.54,6.35,9.83,9.5a36.85,36.85,0,0,1,6.46,8.89,7.53,7.53,0,0,1-.14,8.38c-3.75,5.66-7.43,11.37-11.21,17a12.17,12.17,0,0,1-2.68,2.73c-2.6,2-5.5.76-5.91-2.52-.14-1.1-.22-2.22-.35-3.33S202.49,270.32,202.3,268.86Z" transform="translate(-0.48 -0.48)"/><path class="cls-1" d="M294.21,447.5c-4,.83-8.69-.71-13.43-1.28-2.77-.33-5.53-.82-8.29-1.3-2.33-.4-3.33-2-2.61-4.15q4.17-12.39,8.35-24.76c.31-.91.59-1.82.91-2.73,1-2.67,3.08-3.44,5.45-1.83,3,2,5.85,4.2,8.76,6.31,1.56,1.13,3.17,2.19,4.64,3.41,1.13.95,2,.82,3.19,0,7.34-4.83,14.74-9.59,22.12-14.38l9.27-6a13.93,13.93,0,0,1,1.22-.77c1.92-1,3.52-.45,4.16,1.62.53,1.75.8,3.58,1.17,5.38q3.33,16.2,6.65,32.41a9.41,9.41,0,0,1,.25,1.65c.06,2.23-.84,3.27-3.07,3.42-5,.33-10.06.62-15.09.92Z" transform="translate(-0.48 -0.48)"/><path class="cls-1" d="M548,423.46H523.58a17.34,17.34,0,0,1-1.91,0,3.09,3.09,0,0,1-2.84-4.08c1.14-4.07,2.38-8.12,3.54-12.18a3.31,3.31,0,0,1,1.79-2.11q13.68-7.17,27.36-14.39a10.41,10.41,0,0,1,1.54-.64,3.05,3.05,0,0,1,4.09,1.85c.92,2.3,1.75,4.63,2.53,7,1,3,1.72,3.39,4.74,2.12l23.85-10c4.19-1.77,8.45-3.42,12.55-5.37a4,4,0,0,1,5.84,3.14c.5,3.47,1.29,6.9,1.8,10.38a9.58,9.58,0,0,1-.17,3.77c-1.2,4.71-2.65,9.37-3.81,14.1a3.42,3.42,0,0,1-3.24,2.93l-11.15,1.55c-4.12.57-8.22,1.2-12.34,1.71a58.08,58.08,0,0,1-6.45.45c-7.75.05-15.51,0-23.26,0Z" transform="translate(-0.48 -0.48)"/><path class="cls-1" d="M498,243.74c.81.24,1.56.49,2.32.69l26.15,7a11.93,11.93,0,0,1,2,.65,3.51,3.51,0,0,1,2.18,3.87c-.9,7-1.79,13.95-2.72,20.92-.22,1.65-.36,3.46-2.07,4.35a10.61,10.61,0,0,1-6.68,1.42c-1.67-.28-2.42-1.61-2.77-3.23-1.06-5-2.17-10-3.27-15-.6-2.75-1.46-3.47-4.33-3.25-6.3.49-12.58,1.08-18.87,1.61-1.26.1-2.52.16-3.88.24l-6.67-19.85c-.73.58-1.29,1-1.82,1.44L460.28,259.1a10,10,0,0,1-1.33,1,3.36,3.36,0,0,1-5.17-2.32,9.63,9.63,0,0,1-.1-1.43l-1.38-24.89c0-.64-.07-1.28-.07-1.92,0-2.79.53-3.71,3.25-4.52,7.58-2.26,15.18-4.42,22.78-6.6,4.3-1.22,8.62-2.4,12.93-3.59a12.93,12.93,0,0,1,2.1-.46c2.48-.25,3.54.63,3.78,3.15.11,1.11.11,2.23.15,3.35q.3,10.44.59,20.86C497.83,242.38,497.92,243,498,243.74Z" transform="translate(-0.48 -0.48)"/><path class="cls-1" d="M495.9,168.92c-.33,3.82-.69,7.63-1,11.45-.24,3,.24,3.72,3.07,4.92l30.69,12.91a9.84,9.84,0,0,1,2.12,1.08,2.26,2.26,0,0,1,.09,3.84,19.09,19.09,0,0,1-2,1.37c-3.74,2.46-7.52,4.85-11.2,7.41a4,4,0,0,1-3.77.58c-5.44-1.62-10.9-3.12-16.33-4.75a9.08,9.08,0,0,0-4.93-.13q-18.84,4.59-37.71,9.1c-.47.12-.93.22-1.4.31-3.1.58-4.58-.77-4.19-3.92.46-3.65,1-7.28,1.46-10.92.59-4.51,1.2-9,1.71-13.54a4.3,4.3,0,0,1,2.34-3.37q11.12-6.85,22.21-13.75,6.21-3.85,12.4-7.74a10.72,10.72,0,0,1,1-.61c2.82-1.33,5.46.25,5.55,3.37a19.12,19.12,0,0,1-.21,2.38Z" transform="translate(-0.48 -0.48)"/><path class="cls-1" d="M472.46,293.43c-.94.54-1.63.91-2.29,1.32l-14,8.86a11,11,0,0,1-1.65,1,2.6,2.6,0,0,1-3.75-2.08,5.11,5.11,0,0,1,0-1c.11-8.63.25-17.27.32-25.91a3.74,3.74,0,0,1,1.7-3.21q10.62-7.85,21.21-15.71a7.47,7.47,0,0,1,1.89-1c2.1-.73,3.1-.23,3.8,1.93,1.27,3.95,2.5,7.92,3.74,11.89.24.76.46,1.53.73,2.28.82,2.27,1.53,2.64,3.78,1.84,3.38-1.2,6.75-2.46,10.13-3.69,1.35-.49,2.7-1,4.06-1.47a13,13,0,0,1,1.84-.54c2.47-.48,3.87.41,4.24,2.9.3,2,.37,4,.5,6,.4,6,.71,12,1.19,17.95a5.15,5.15,0,0,1-2,4.78c-6.47,5.35-12.89,10.77-19.34,16.15a7,7,0,0,1-1.61,1c-1.88.78-3.23.32-4.15-1.55-1.59-3.23-3.09-6.5-4.62-9.75Z" transform="translate(-0.48 -0.48)"/><path class="cls-1" d="M519.65,355.76a5.25,5.25,0,0,1-5.17-3.16q-2.43-4.68-4.82-9.38c-1.25-2.45-1.71-2.65-4.3-1.57-7.15,3-14.3,6-21.45,8.94a11.6,11.6,0,0,1-2.24.82,3.23,3.23,0,0,1-4.12-3.38,19.25,19.25,0,0,1,.5-3.07c.56-3.38,1.2-6.76,1.67-10.16a7.45,7.45,0,0,1,2.7-4.84c7.7-6.73,15.31-13.57,22.93-20.39,2.75-2.46,5-2.05,6.68,1.2,2.09,4,4.22,8.07,6.32,12.11,1.22,2.33,2.1,2.63,4.34,1.26,5.59-3.41,11.15-6.87,16.74-10.29a16.21,16.21,0,0,1,2.53-1.36,4.7,4.7,0,0,1,6.48,2.71c.92,2.12,1.71,4.3,2.57,6.46,1.68,4.23,3.37,8.45,5,12.69,1.1,2.75.35,4.75-2.37,6q-6.69,3.21-13.45,6.3-9.13,4.21-18.31,8.34A15.41,15.41,0,0,1,519.65,355.76Z" transform="translate(-0.48 -0.48)"/><path class="cls-1" d="M471.09,427.34c-5.76,0-11.52,0-17.27,0-1.6,0-3.19.17-4.79.25-2,.1-3-.65-3.26-2.65-.44-2.92-.76-5.87-1.28-8.78a6,6,0,0,1,1.32-5.1c4.33-5.45,8.56-11,12.84-16.46,2.11-2.71,4.2-5.44,6.34-8.13,1.95-2.45,4.47-2.43,6.32.09,2.6,3.55,5.13,7.15,7.71,10.71,1.77,2.45,2.64,2.58,5.1.81q6.42-4.63,12.81-9.29c.72-.51,1.43-1,2.17-1.5,2.18-1.38,3.47-1.23,4.92.83,3.39,4.84,6.67,9.76,10,14.63a3.14,3.14,0,0,1,.42,2.95c-1.39,4.34-2.77,8.67-4.19,13a4.73,4.73,0,0,1-2.93,3c-3.79,1.49-7.57,3-11.4,4.41a11.87,11.87,0,0,1-3.77.55c-7,.15-14.07.24-21.1.35Z" transform="translate(-0.48 -0.48)"/><path class="cls-1" d="M598.39,267.29c-.72-.48-1.23-.84-1.77-1.16q-9.74-5.65-19.48-11.3c-2.9-1.67-3.32-3.89-1.23-6.49,2.3-2.86,4.66-5.69,6.81-8.66a6.81,6.81,0,0,1,6.59-3c6.29.5,12.58.91,18.88,1.36,1.43.11,2.86.28,4.3.3a6.18,6.18,0,0,1,5,2.75c5.56,7.11,11.19,14.17,16.79,21.25,1.34,1.7,2.69,3.38,4,5.08,2,2.49,1.74,4-1.06,5.59-3.68,2.1-7.44,4.05-11.18,6q-12.17,6.46-24.34,12.9c-.57.3-1.14.58-1.7.89a3.6,3.6,0,0,1-3.85-.18c-2.59-1.58-5.23-3.08-7.84-4.63s-2.91-3.52-1.05-5.95c3.31-4.3,6.58-8.64,9.86-13C597.55,268.6,597.88,268.06,598.39,267.29Z" transform="translate(-0.48 -0.48)"/><path class="cls-1" d="M148.28,463.63c-9.74.28-19.41-.5-28.57-3.91-6.8-2.53-13.33-5.77-19.93-8.81a3.62,3.62,0,0,1-2.33-4.26c.35-1.67,1.72-2.81,3.88-3,2.54-.24,5.11-.19,7.63-.56a54.36,54.36,0,0,0,15.71-4.95c1.5-.71,1.57-2,1.69-3.39.33-4,.62-8,1.32-11.88,1.08-6,4.62-10.82,8.39-15.42a6.1,6.1,0,0,1,3.91-2.16c2.15-.32,4.16.47,4.94,2.5a57.67,57.67,0,0,1,3,9.81c1.12,5.85,3.2,11.37,5.23,16.92.69,1.87,1.49,3.71,2.1,5.61a24.37,24.37,0,0,0,5.42,9,11.1,11.1,0,0,0,2.62,2.05c2.63,1.52,5.3,3,8,4.39,1.16.61,2,1.37,1.91,2.75a2.83,2.83,0,0,1-2.24,2.52,52,52,0,0,1-14.55,2.82C153.72,463.74,151,463.63,148.28,463.63Z" transform="translate(-0.48 -0.48)"/><path class="cls-1" d="M501.51,431.8c3.75.19,7.5.33,11.24.59,2.62.19,3.58,1.47,3.1,4a11,11,0,0,1-1,3.43c-3,5.09-2.87,10.49-2.05,16.05,1.18,8-2.6,13.87-10.49,15.63-9.42,2.11-18.92,3.95-28.7,3.27-3.22-.22-4.66-2.2-3.31-5.2,2.15-4.77,1.18-8.85-2.29-12.52a7.79,7.79,0,0,1-2.14-8.1,9.41,9.41,0,0,0-.32-6.12,15.05,15.05,0,0,1-.91-3.21c-.42-3,.95-4.73,3.95-5.13,2.45-.33,4.91-.61,7.37-.86A251.13,251.13,0,0,1,501.51,431.8Z" transform="translate(-0.48 -0.48)"/><path class="cls-1" d="M247.35,208.56c.54-1.05,1-1.87,1.38-2.71l14.37-29a15.11,15.11,0,0,1,.89-1.69,2.61,2.61,0,0,1,4.85,1.21,12,12,0,0,1-.15,2.39c-1.37,8.76-2.81,17.51-4.09,26.28a18.67,18.67,0,0,1-3,7.25c-2,3.11-4.12,6.09-6.08,9.2a19.17,19.17,0,0,0-2.06,4.28c-2.46,7.68-4.82,15.4-7.22,23.1-.16.53-.3,1.08-.51,1.59a3.81,3.81,0,0,1-6.42,1.22q-8.43-8.69-16.84-17.42l-5-5.15c-1.58-1.64-1.64-2.56-.52-4.45q7.34-12.37,14.63-24.77c1.72-2.95,3.88-3.29,6.3-.84s5,5.15,7.55,7.72C246,207.32,246.58,207.83,247.35,208.56Z" transform="translate(-0.48 -0.48)"/><path class="cls-1" d="M69.8,342.59A50.28,50.28,0,0,1,83.7,345c2.88.86,4,3.48,2.87,6.29a18.84,18.84,0,0,1-1.62,3.2c-3.18,4.85-4,10.37-4.71,15.93a60.87,60.87,0,0,0-.17,14.34c.35,3-.75,4.09-3.76,4.21-1.12,0-2.24.1-3.36.09-5.54-.07-10.16,2.5-14.74,5.14-2.53,1.46-3.5,1.48-5.3-.85s-3.33-4.88-4.9-7.39c-1.95-3.11-3.86-6.25-5.7-9.43a27,27,0,0,1-2-4.33c-.49-1.39-.19-2.17,1.17-2.72a21.29,21.29,0,0,1,4.59-1.22,29,29,0,0,0,7.77-2.27,20.07,20.07,0,0,0,10.61-11.8,28.9,28.9,0,0,0,1.06-5.36c.18-1.1.17-2.23.33-3.34.33-2.35,1.14-3,3.51-2.89Z" transform="translate(-0.48 -0.48)"/><path class="cls-1" d="M459,335.83c-.67.58-1.29,1.06-1.86,1.59-2.71,2.49-5.4,5-8.12,7.49-2.46,2.25-5.07,1.65-6.19-1.41q-2.64-7.2-5.25-14.41c-.16-.45-.34-.9-.48-1.36-.73-2.52-.38-3.64,1.76-5.14,5-3.5,10-7,14.95-10.44,2.23-1.55,4.45-3.13,6.7-4.65,2.4-1.61,4.22-1.27,5.92,1.11,2.51,3.51,4.93,7.09,7.51,10.55a5.92,5.92,0,0,1,1.2,4.71c-.71,4.49-1.39,9-2.09,13.5-.25,1.58-.5,3.15-.79,4.73a7.69,7.69,0,0,1-.53,1.83c-1.45,3-4.85,3.18-6.72.45-1.63-2.37-3.24-4.75-4.88-7.12C459.83,336.81,459.46,336.4,459,335.83Z" transform="translate(-0.48 -0.48)"/><path class="cls-1" d="M41.08,333.5c4.13.47,7.76.47,11.17,2.3a11.71,11.71,0,0,1,4.12,17,22.69,22.69,0,0,1-7.76,7.3,33.17,33.17,0,0,1-10.44,3.28c-4.76.81-9.36,0-13.91-1.37a12.92,12.92,0,0,1-8.76-8.82c-1.24-3.75.11-7.09,2.77-9.88A31.26,31.26,0,0,1,34,334.65C36.46,334.05,39,333.82,41.08,333.5Z" transform="translate(-0.48 -0.48)"/><path class="cls-1" d="M515.14,304.54a12,12,0,0,1,1.07-2.67q4.27-5.89,8.71-11.7a3.36,3.36,0,0,1,5.66,0c2.16,2.76,4.2,5.62,6.34,8.4a3.49,3.49,0,0,1,.35,3.83,12,12,0,0,1-2,2.93c-2.82,3-5.71,6-8.59,9-2.41,2.49-4.81,2.2-6.62-.78-1.28-2.11-2.59-4.21-3.81-6.36A22.29,22.29,0,0,1,515.14,304.54Z" transform="translate(-0.48 -0.48)"/><path class="cls-1" d="M358.51,166.14a3.59,3.59,0,0,1,1.88-3.7q6.71-3.69,13.45-7.33a2.55,2.55,0,0,1,3.12.34,2.66,2.66,0,0,1,.56,3.29c-1.07,2.41-2.2,4.79-3.31,7.17l-7.08,15.19c-.17.36-.32.73-.52,1.08a3.51,3.51,0,0,1-3.71,2A3.78,3.78,0,0,1,360,180.8c-.34-3.33-.65-6.67-1-10C358.89,169.21,358.68,167.63,358.51,166.14Z" transform="translate(-0.48 -0.48)"/><path d="M158.27,325.76a21,21,0,0,1,3.63-11.54c1.23-1.88,2.86-3.52,5.34-3.65,3.1-.16,5.23,1.49,6.38,4.74a17,17,0,0,1-.48,12.4,35.43,35.43,0,0,1-2.52,4.9c-1.63,2.71-4.34,2.75-7,2.43a5.74,5.74,0,0,1-4.74-4.78C158.61,328.77,158.46,327.26,158.27,325.76Z" transform="translate(-0.48 -0.48)"/></svg>