<svg id="Layer_1" data-name="Layer 1" xmlns="http://www.w3.org/2000/svg" viewBox="0 0 720 612"><defs><style>.cls-1{fill:none;stroke:#000;stroke-miterlimit:10;stroke-width:0.01px;}</style></defs><path d="M.48,612.48V.48h720v612ZM443.72,431c.48,0,1,0,1.44,0,6.06-.31,12.13-.61,18.19-1a4,4,0,0,0,2.14-.93c7.25-6,13.92-12.48,18-21.16a13,13,0,0,0-3.17-15.43,9.36,9.36,0,0,1-3.59-6.76c0-.4,0-.8-.09-1.2-.67-7.43-1.85-14.75-5.13-21.56a30.94,30.94,0,0,0-1.9-4.12c-3.23-4.75-6.6-9.41-9.92-14.11a38.79,38.79,0,0,0-8.5-9c-5.23-3.88-11-5.76-17.54-4.93-3.82.48-6.87,2-8.27,5.89-.38,1.05-.83,2.08-1.21,3.13a20.64,20.64,0,0,1-6.22,8.67c-1.86,1.57-3,1.61-5.11.25-1.14-.75-2.34-1.42-3.39-2.27-1.71-1.37-3.37-1.31-5.35-.54-6.19,2.43-10.41,7-13.88,12.4a7.73,7.73,0,0,0-.51,7.36,51.78,51.78,0,0,0,6.9,12.83c1.56,2,1.53,2.11,0,4.14a101.14,101.14,0,0,0-9.4,15C383.75,404.68,381,412,381,420c0,2.53.85,3.73,3.28,4.19,1.17.22,2.35.44,3.54.61,8.46,1.23,16.91,2.51,25.38,3.64A248.35,248.35,0,0,0,443.72,431ZM324.51,526c4.78-.27,9.59-.34,14.35-.86a103.19,103.19,0,0,0,11.77-2.18,13.25,13.25,0,0,0,8.23-5.4,31.72,31.72,0,0,0,4.92-10.33,82.53,82.53,0,0,0,2.36-18c.18-8.35-1.16-16.57-2.52-24.77-1.4-8.46-2.76-16.9-1.59-25.51a6.4,6.4,0,0,0-1.75-5.28,14.3,14.3,0,0,0-7.31-4.36c-3.7-.95-7.5-1.53-11.28-2.14a246.37,246.37,0,0,1-33.61-7.71c-5-1.56-10.14-2.86-15.29-4-5.63-1.22-8.49,3.87-8,7.82a18.07,18.07,0,0,0,2.46,6.7c.8,1.38,1.63,2.75,2.44,4.13,4.37,7.35,8.64,14.75,13.16,22a73.75,73.75,0,0,1,5.08,9.48,31.13,31.13,0,0,1,2.59,16.82,12.92,12.92,0,0,1-5.21,9.26,37.6,37.6,0,0,0-6,5.81,22.76,22.76,0,0,0-5.62,15.67,9.16,9.16,0,0,0,4.66,8.15,31.65,31.65,0,0,0,5.49,2.33C310.57,525.82,317.53,525.92,324.51,526Zm228.43.49c7.48-.14,12.78-.26,17.93-1.49,4.58-1.09,9.16-2.22,13.21-4.83a103.54,103.54,0,0,0,24.12-21.76,70.89,70.89,0,0,1,8.7-8.88c1-.83,1.94-1.67,2.88-2.53a51.67,51.67,0,0,0,9.08-10.49,26.81,26.81,0,0,0,4-17.41A96.22,96.22,0,0,0,624.36,428a4.87,4.87,0,0,0-4.84-3.17,17.85,17.85,0,0,0-3.57.34,52.67,52.67,0,0,0-13.08,4.58A43.18,43.18,0,0,1,591.18,434c-8,1.39-16.08,2.59-24.13,3.77-2.38.35-3.81,1.87-3.44,4.23a16.44,16.44,0,0,0,.71,2.53,81.63,81.63,0,0,1,4.1,20.63,5.16,5.16,0,0,1-.44,2.53,18.13,18.13,0,0,1-6.27,7.41,113.2,113.2,0,0,0-15.88,12c-5.62,5.16-10.76,10.72-14.51,17.44a21.93,21.93,0,0,0-2.66,7.65c-.8,5.48,1.35,9.42,6.37,11.52a14.42,14.42,0,0,0,3.45,1C544,525.36,549.56,526,552.94,526.45ZM187.84,233.91a51.55,51.55,0,0,0,.69,5.45c1.34,6.31,4.83,11.43,9.3,15.91a9.94,9.94,0,0,0,3.77,2.46c5.85,1.92,11.36,1.34,16.18-2.81a42.21,42.21,0,0,0,4.05-3.74,23.08,23.08,0,0,1,13-7.17c1.49-.32,3-.7,4.45-1a21.79,21.79,0,0,1,9.74-.22c2.63.67,5.3,1.22,8,1.71,4.42.79,8.77,1,12.46-2.29.89-.8,1.76-1.62,2.63-2.44a11.46,11.46,0,0,0,3.72-9.76c-.61-6.1-1.22-12.27-3.71-18a3.07,3.07,0,0,1,.23-3.12,30.32,30.32,0,0,0,2.58-5.12A17.92,17.92,0,0,0,272.36,186c-4-5.35-9.93-6.13-16.13-1.8-3.06,2.12-5.65,4.92-8.41,7.47-.82.75-1.44,1.71-2.23,2.5-1.24,1.22-2.68,1.11-3.59-.35-1.39-2.23-2.63-4.57-4-6.82s-2.89-4.59-4.38-6.86a8.92,8.92,0,0,0-6.55-4c-2.93-.38-5.88-.6-8.82-.92a15.41,15.41,0,0,0-10.57,3c-5.19,3.49-10.55,6.61-17,7.18a4.12,4.12,0,0,0-3.6,5.6,46.85,46.85,0,0,0,2.46,6,27,27,0,0,1,1,21.64A43.7,43.7,0,0,0,187.84,233.91Zm319.87,114.2a64.81,64.81,0,0,0,7.19-.75,17.22,17.22,0,0,0,11.6-7.81c3.4-5.53,4.11-11.7,3.59-18-.58-7.06-2.92-13.7-5.39-20.29-.92-2.46-1.54-5-2.28-7.55a2.75,2.75,0,0,1,.78-2.83c2.06-2.23,4.12-4.48,6.08-6.79,3.25-3.84,6.63-7.6,9.58-11.67a39.41,39.41,0,0,0,4.58-8.63c1.52-3.85-.15-8.76-3.16-10.4a11.56,11.56,0,0,0-8.81-1.09,50.85,50.85,0,0,0-13.4,5.75c-3.8,2.34-7.47,4.9-11.12,7.49-3.27,2.31-5.43,2.55-8.8.41a17.91,17.91,0,0,1-3.26-2.77,4.33,4.33,0,0,0-5.18-1.32c-2.28.94-4.6,1.83-6.8,3-2.94,1.52-3.25,3.66-1.53,6.53a35.3,35.3,0,0,1,3.14,6.67,5.65,5.65,0,0,1-.82,5.69,31.22,31.22,0,0,1-6.5,6.33,129.94,129.94,0,0,0-17.77,13.82c-3.37,3.17-6.48,6.62-9.54,10.1-1.79,2-1.26,4.22.91,5.71s4.33,3,6.39,4.64a83.37,83.37,0,0,0,15.35,9.75c7.11,3.46,14.21,6.94,21.39,10.25A49.26,49.26,0,0,0,507.71,348.11ZM363.09,257c.25,2.22.35,4.47.79,6.65,1.12,5.54,3.42,10.47,8,14.07a11,11,0,0,0,4.7,2.22c4.73,1,9.39.41,14.06-.36a29.4,29.4,0,0,0,13.26-5.79,49.92,49.92,0,0,0,7.39-7.14,36.67,36.67,0,0,0,8-14.58c1.09-4-.41-7.21-3.27-9.85a58.64,58.64,0,0,0-4.8-3.58c-3.87-2.88-7.54-5.85-9-10.82-1.35-4.61-1.5-9,1.42-13l7.24-10.16c.56-.78,1.19-1.51,1.67-2.34a3.44,3.44,0,0,0-1.33-4.94,7.92,7.92,0,0,0-2.92-1c-4-.41-7.95-.73-11.93-1-2.23-.14-4.47-.12-6.71-.16-5.43-.07-10.87-.34-16.3-.14a25,25,0,0,0-11.07,2.7c-5.39,2.87-9.68,7-13.93,11.27a23.34,23.34,0,0,0-6.4,11.34,8.41,8.41,0,0,0,.33,5.16,15.42,15.42,0,0,0,5.12,6.51,48.55,48.55,0,0,0,10.29,6.1,29.65,29.65,0,0,1,3.9,1.85c2.41,1.54,4.54,3.65,3.11,7.34A29.24,29.24,0,0,0,363.09,257ZM239.18,269.84l-.18,0c-.12-1.19-.27-2.38-.35-3.58a7.07,7.07,0,0,0-2.77-5.1c-2-1.65-4.36-1.88-6.79-1.7a21.17,21.17,0,0,0-9.27,3c-2.4,1.42-4.74,3-7,4.59a6.77,6.77,0,0,1-5.19,1.2c-4.59-.64-9.19-1.22-13.8-1.7a5.32,5.32,0,0,1-3.33-1.61c-3.87-3.71-7.84-7.31-11.64-11.08a4.83,4.83,0,0,0-5.2-1.43c-2.68.79-5.38,1.53-8.05,2.36s-3.5,2.56-2.74,5.16c1.08,3.68,2.2,7.34,3.14,11.05a88,88,0,0,1,2,9.6c.93,6.73,1.51,13.51,2.45,20.23a69.72,69.72,0,0,1,.78,14.57c-.37,5.26-.69,10.53-1.12,15.79-.23,2.88.66,4.14,3.54,4.55a10.33,10.33,0,0,0,2.14.15c2.92-.21,3-.22,4.17,2.32.68,1.44,1.28,2.93,2,4.34a21.17,21.17,0,0,0,2.15,3.45c2.06,2.56,4.48,2.82,7.12.87a32.74,32.74,0,0,0,7.33-7.53c5.77-8.25,11.48-16.55,17.24-24.82a69.25,69.25,0,0,1,4.92-6.77,65.64,65.64,0,0,0,8.5-11.86,122.17,122.17,0,0,0,8.49-19A49.05,49.05,0,0,0,239.18,269.84Zm90.47,64.46c-.13,5.17.6,9.87,3.27,13.74,3.92,5.67,8.82,10.38,16.13,11.49a22.84,22.84,0,0,1,2.57.61,25.52,25.52,0,0,0,11.4.36A32.22,32.22,0,0,0,381.66,350c3.84-4.22,5-9.51,5.78-15a21.65,21.65,0,0,0-3.71-15.94c-1.81-2.63-4-5-6-7.5a15.21,15.21,0,0,0-12.29-6.36c-3.35-.09-5.77-3.25-5.88-6.59-.22-6.83-3.47-12.08-9-15.84a10.92,10.92,0,0,0-9.9-1.26c-3.32,1.13-6.61,2.41-9.81,3.85a82.5,82.5,0,0,0-20.38,13.39,7,7,0,0,0-2.44,3.95c-.62,2.85.38,5.17,2.17,7.27,3.22,3.77,6.36,7.6,9.68,11.29a66.56,66.56,0,0,0,6.83,6.71C329,329.8,330.91,331.51,329.65,334.3Zm140.08-83.37a77.8,77.8,0,0,0,27.56-4.66,32.86,32.86,0,0,0,6.81-3.41,9.24,9.24,0,0,0,4.15-5.38c1.34-5.06,1.61-10.06-.15-15.11-1.65-4.74-4.55-8.76-7.09-13-2.94-4.91-7.4-7.37-12.69-8.66-2.79-.68-5.63-1.18-8.45-1.71a171.72,171.72,0,0,0-36.28-2.76,8.71,8.71,0,0,0-3.89,1c-15.87,8.21-19.62,27.7-14.43,40.05a8.88,8.88,0,0,0,2.73,3.8,43.29,43.29,0,0,0,11,5.74C448.23,249.85,457.7,251,469.73,250.93ZM305.2,283.29l0-.17,1.67-.13c4.47-.27,8.53-1.9,12.59-3.62A34.09,34.09,0,0,0,339,259.08c2.47-6.69,1.18-12.75-3.19-18.19a56.38,56.38,0,0,0-5.41-5.41c-1.91-1.81-3.92-3.52-5.87-5.3a4,4,0,0,1-1.51-3.62c.56-3.39,1.22-6.79,3.44-9.59,3.77-4.75,7.16-9.85,11.81-13.84,2.3-2,.79-6.71-2.07-7a17.8,17.8,0,0,0-2.62-.21c-5.5.29-11,.52-16.51,1a65.23,65.23,0,0,0-20.92,5.77,15.67,15.67,0,0,0-6,4.31c-2.58,3.11-3.05,8.73.6,11.39a18.9,18.9,0,0,1,3.77,4.32,11.84,11.84,0,0,1,2.06,10c-1,4.6-3.48,8.14-6.58,11.45-3.27,3.49-7.4,5.81-11.18,8.61-2.32,1.72-3.23,3.38-2.41,6.13a26.91,26.91,0,0,0,2.49,5.4,4,4,0,0,1,.18,4.24A16.32,16.32,0,0,0,277,277c.24,4.07,3.31,7.52,7.86,6.34a23.28,23.28,0,0,0,5.5-2.24,5,5,0,0,1,5-.43,25.72,25.72,0,0,0,4.3,1.49C301.44,282.59,303.33,282.9,305.2,283.29Zm329.53,228A43.23,43.23,0,0,0,658,504.47a18.44,18.44,0,0,0,7.26-8.06,166.18,166.18,0,0,0,8-21,124.57,124.57,0,0,1,6.24-16.31,27.37,27.37,0,0,0,1.88-19.63A137.75,137.75,0,0,0,675.55,424c-1.42-3.39-3.32-6.57-4.81-9.92a35.3,35.3,0,0,1-2.11-6.35c-.93-4-.52-8.1-.06-12.16.24-2.06-.54-3.44-2.18-4.06s-3,.06-4.25,1.75c-1.92,2.64-3.86,5.29-6,7.8-4.75,5.67-10.71,10.06-16.19,15a60.16,60.16,0,0,0-5,5.45,4.45,4.45,0,0,0-.59,5c2.35,5.6,4.62,11.23,7.06,16.79s5.11,11.19,7.62,16.8c1.1,2.45,1.91,5.12.87,7.67a35.7,35.7,0,0,1-11.1,15.07c-3.45,2.7-6.84,5.52-10,8.54a25.89,25.89,0,0,0-6.16,9.35c-1.05,2.66-.7,5,1.47,7a8.43,8.43,0,0,0,1.74,1.23C629,510.46,632.26,511.4,634.73,511.24ZM357,417.24c3.2,0,5.44-.05,7.67,0a4.16,4.16,0,0,0,4-2.17c.41-.68.92-1.31,1.31-2A96.36,96.36,0,0,0,380,385.5a38,38,0,0,0,.7-7.37c0-5.2-1.27-6.72-6.38-8a54.65,54.65,0,0,0-14.76-1.24c-6.3.16-12.55,1.26-18.9.38a29.34,29.34,0,0,1-8-2.4,11.87,11.87,0,0,1-5.39-4.89c-4.73-7.65-7.58-16-9.51-24.72-1.43-6.47-5.7-10.14-11.3-12.64a5.1,5.1,0,0,0-6.55,2.82,10.21,10.21,0,0,0-.9,4.38c.24,3.5.8,7,1.27,10.44A76.47,76.47,0,0,0,304,356.65a52.47,52.47,0,0,1,1.94,6.17,136.85,136.85,0,0,0,9.6,28.05A65.72,65.72,0,0,0,328.31,409c4.25,4.44,9.4,7.39,15.78,7.65C348.72,416.82,353.35,417.07,357,417.24ZM111.36,363.3c-2.07.31-4,.66-5.84.88s-4,.37-6,.44c-1.36.05-2.63.27-3.3,1.54a40.51,40.51,0,0,0-3.51,7.31,48.48,48.48,0,0,0-1.86,10.34c-.43,6.86,3.86,12.22,10.59,13.56a94,94,0,0,0,29.59,1.44,72,72,0,0,0,18.31-4.63,11.55,11.55,0,0,0,3.49-2,23.76,23.76,0,0,0,6.51-9.09q2.89-7.74,5.52-15.57a21.67,21.67,0,0,0,.68-9c-.18-1.91-.89-3.65-2.76-4.49-4.88-2.19-9.81-4.28-14.71-6.44a4.09,4.09,0,0,0-4.27.5c-3.59,2.4-7.24,4.7-10.88,7a12.89,12.89,0,0,1-1.53.74c-1-1.82-1.84-3.52-2.74-5.2A121.11,121.11,0,0,0,119,334.87c-1.48-2-2.78-2.48-4.93-1.83a4.16,4.16,0,0,0-2.76,3,42.23,42.23,0,0,0-1.64,18.24C110,357.25,110.76,360.13,111.36,363.3Zm496.42-56.69c2.34-.14,4.36-.54,5.81-2a42.57,42.57,0,0,0,5.08-6c3.24-4.88,4.67-10.47,5.81-16.13a3.16,3.16,0,0,0-1-3.28c-2.55-2-3.74-4.94-5.56-7.45a2.78,2.78,0,0,1-.42-2.7,39.71,39.71,0,0,1,5.35-10.94c1.48-2.07,2.9-4.19,4.26-6.34,1.15-1.82.92-3.16-.66-4.7-1-.95-1.9-1.95-3-2.8-2.37-1.88-4.74-3.8-7.25-5.49-2.73-1.83-4.18-1.69-6.64.51-5.77,5.18-11.55,10.34-17.18,15.67a11,11,0,0,1-11.69,2.65c-4.12-1.27-8.24-2.55-12.37-3.79a5.88,5.88,0,0,0-7,2.24c-.62.84-1.27,1.65-1.83,2.52a103.88,103.88,0,0,0-9.33,18.62,23.46,23.46,0,0,0-1.22,4.62,3.42,3.42,0,0,0,2.6,4.22,12.71,12.71,0,0,0,6.39.29c4-.73,8-1.45,12-2.37a8,8,0,0,1,6.85,1.19c3.61,2.63,7.22,5.29,10.6,8.2a124.44,124.44,0,0,0,13.72,10.84A20.53,20.53,0,0,0,607.78,306.61Zm-219.35-7.23a28.15,28.15,0,0,0,1.59,5c2.38,4.52,4.87,9,7.49,13.37s5.57,9,8.48,13.34c2.05,3.09,4.54,3.59,7.56,1.49a14.18,14.18,0,0,0,3.51-3.53,31.29,31.29,0,0,0,2.9-5.49,11.55,11.55,0,0,1,4.35-5.28c2.06-1.36,4.16-2.67,6.19-4.09a232.39,232.39,0,0,0,30.31-24.6,43.14,43.14,0,0,0,4.76-5.68,9,9,0,0,0,1.53-3.69,10.11,10.11,0,0,0-3.28-9.11,55.92,55.92,0,0,0-11.11-8.29c-4.31-2.51-8.42-2.32-12.76-.19A45.51,45.51,0,0,0,428,270.91c-4.09,4-8,8.26-11.87,12.51a10.25,10.25,0,0,1-6.48,3.64,60.3,60.3,0,0,0-8.83,2.11,25.92,25.92,0,0,0-9.1,4.71C390,295.28,388.58,296.87,388.43,299.38ZM268.61,275.63c-.25-4.36-1.53-7.82-2.55-11.35-1.2-4.15-3.85-7.11-7.21-9.57a8.24,8.24,0,0,0-5.2-1.51c-2.84.06-4.83,2-5,5.14a109.28,109.28,0,0,0,0,11.73,20.22,20.22,0,0,1-2,10.68c-.47.93-.88,1.89-1.36,2.81q-6,11.35-11.92,22.72a110.09,110.09,0,0,1-8.16,13.27c-3.22,4.48-6.39,9-9.41,13.61a75.17,75.17,0,0,1-7.9,9.61,109,109,0,0,0-8.25,10,30.25,30.25,0,0,0-3.48,7,5.13,5.13,0,0,0,2.32,6.18c1.81,1.18,3.65,2.32,5.36,3.62a8.16,8.16,0,0,0,10-.18,41.88,41.88,0,0,0,8.89-9.33c7.31-10.6,14.23-21.44,20.61-32.63,4.91-8.61,9.69-17.29,14.7-25.84,4.23-7.22,6.89-15.09,9.79-22.87A21.22,21.22,0,0,0,268.61,275.63Zm241.17,157.6V433c3.12,0,6.25.11,9.36,0s6.36-.53,9.55-.79a4.41,4.41,0,0,0,3.86-2.75,62.8,62.8,0,0,0,5.27-13.84c.9-3.9,0-6.4-3.37-8.64-2.13-1.42-4.35-2.68-6.46-4.14-3.87-2.67-7.7-5.43-11.53-8.17a7.55,7.55,0,0,1-3-5,11.85,11.85,0,0,1,.62-6.81,53.24,53.24,0,0,0,2.55-7.21c1.2-4.95-.58-8.72-4.91-11.4-5.54-3.45-11.79-5.28-17.68-7.95a5.62,5.62,0,0,0-1.15-.33c-3.19-.79-4.57-.25-6.14,2.6a29,29,0,0,0-3.42,11.88,9.32,9.32,0,0,0,2.45,7c3.53,4.13,7,8.31,10.47,12.48,1.18,1.42,2.35,2.84,3.46,4.3a3.77,3.77,0,0,1,.64,3.84,53.34,53.34,0,0,1-2.1,5.06,89.44,89.44,0,0,1-6.67,10.21c-3,4.21-5.46,8.82-8.18,13.23a3.61,3.61,0,0,0,3.39,5.82c1.27-.05,2.55-.12,3.83-.06C497,432.6,503.4,432.92,509.78,433.23Zm41.07-133.48a15.71,15.71,0,0,0-7.25,1.3,6.2,6.2,0,0,0-3.89,6.28q.52,10.17,1,20.36c.24,4.79.5,9.57-.62,14.32a10.32,10.32,0,0,1-3.2,5.45,92.74,92.74,0,0,0-6.85,7c-2.34,2.69-2.37,4.8-.12,7.51a12.76,12.76,0,0,0,4,3.32c4.92,2.41,9.78,1.76,14.38-1a18.87,18.87,0,0,0,6.33-6.45,4.07,4.07,0,0,1,5-2.13,8.68,8.68,0,0,1,2.27.7,22.25,22.25,0,0,1,3.4,2.21c2.6,2.12,5,4.46,7.72,6.45s5.82,1.36,7.32-1.6c2.31-4.56,4.36-9.25,6.41-13.93a3.81,3.81,0,0,0-1.33-4.71c-.93-.75-2-1.39-2.92-2.11-2.11-1.58-4.29-3.08-6.28-4.8-2.5-2.17-2.94-4.5-1.66-7.56.71-1.69,1.63-3.3,2.29-5,.87-2.23,1.64-4.5,2.33-6.79a5.26,5.26,0,0,0-1.41-5.31,26.73,26.73,0,0,0-2.82-2.6,70.19,70.19,0,0,0-14.81-8.78A23,23,0,0,0,550.85,299.75Zm14.85,130a129.26,129.26,0,0,0,22.07-2.81,21.56,21.56,0,0,0,7.3-2.92,6,6,0,0,0,1.85-1.8,58.6,58.6,0,0,0,6.23-16,16.14,16.14,0,0,0,.38-7.12c-.78-3.71-3.25-5.91-7-5.89a26.27,26.27,0,0,0-5,.67A54.48,54.48,0,0,1,578.67,395a18.09,18.09,0,0,1-7.33-2.05,2.54,2.54,0,0,1-1.54-2.23,24.29,24.29,0,0,1,.19-8.06c1.46-6.06-3.45-10.95-9.61-9.88a11.28,11.28,0,0,0-6.7,3.45,13.43,13.43,0,0,1-7,4c-3.63,1-7.27,1.87-10.94,2.64a5.06,5.06,0,0,0-4.08,3.58c-1.24,3.65-.24,6.77,2.37,9.42,2.34,2.39,5.35,3.38,8.54,4a54.91,54.91,0,0,1,7.22,1.7c4.95,1.7,7.19,5.28,6.9,10.47-.14,2.39-.35,4.79-.3,7.18a22.3,22.3,0,0,0,1.29,8,3.56,3.56,0,0,0,3.67,2.51C562.82,429.68,564.26,429.71,565.7,429.71Zm43.15-50.44a19.6,19.6,0,0,0,12.61-4.94A33.33,33.33,0,0,0,631,361.54a43,43,0,0,1,5.37-9c.48-.64,1-1.28,1.39-2a23.51,23.51,0,0,0,3.74-9,4.51,4.51,0,0,0-.9-3.78c-1.54-2-2.84-4.24-4.42-6.24a48.6,48.6,0,0,0-5.65-6.48c-4.71-4.15-10.12-6.57-16.65-5.84a28.36,28.36,0,0,1-10-.78c-1.86-.46-3.68-1.05-5.52-1.58-2.07-.59-3.68-.18-4.52,1.61a49.19,49.19,0,0,0-2.92,7.56c-1,3.75.26,6.73,3.62,8.77.55.33,1,.76,1.6,1.06,3.81,2.06,5.13,5.4,4.52,9.46q-1.07,7.11-2.63,14.12a26.76,26.76,0,0,0-.43,10.69c1,5.49,3.16,7.78,8.61,8.79C607.1,379.13,608.06,379.18,608.85,379.27ZM159.67,300.32c.22-8-1-15.92-2.24-23.83a157.53,157.53,0,0,0-5.59-25.22,11.22,11.22,0,0,0-7.33-7.66c-4.71-1.52-9.45-1.31-13.55,1.57-3.71,2.61-7.06,5.75-10.52,8.7a3.39,3.39,0,0,0-1,3.91,14.72,14.72,0,0,1,.83,4c.19,6.38.32,12.77.32,19.16,0,2.94-.43,5.89-.52,8.84-.07,2.48,1.1,3.68,3.51,4,1.51.18,3,.36,4.52.57a56.25,56.25,0,0,1,16,4.65,6.18,6.18,0,0,1,3.73,4.63c.73,3.52,1.54,7,2.47,10.49a5.65,5.65,0,0,0,1.62,2.79,14.68,14.68,0,0,0,3.79,2,3.34,3.34,0,0,0,4.76-2.81,23.81,23.81,0,0,0,.06-4.05C160.31,308.12,160,304.22,159.67,300.32Zm417.83-64c.88,0,1.76,0,2.64,0,5.65.12,10.62-2,15.37-4.73,2.35-1.37,2.68-4.05.89-6.15a10.3,10.3,0,0,0-2.3-2.08,58.89,58.89,0,0,0-6-3.47,172.21,172.21,0,0,0-23.91-9.14c-10-3.08-20.06-6-30.54-7-4.68-.44-9.4-.5-14.11-.64a3.58,3.58,0,0,0-3.79,2.37c-.59,1.64.1,2.91,1.28,4.07a22.43,22.43,0,0,1,5.33,9,6.25,6.25,0,0,1,.12,4.22c-.78,2.26-1.62,4.5-2.45,6.75-.53,1.41-1.17,2.8-1.62,4.24-1.7,5.58,2.67,9.35,6.47,10.21a11.31,11.31,0,0,0,7.21-1,34.42,34.42,0,0,0,13.09-10.59,3.66,3.66,0,0,1,2.42-1.78,14.7,14.7,0,0,1,9.07,1.31C563.18,235.25,570.22,236.4,577.5,236.27ZM270,364.78c.22,3,.3,6.07.68,9.08,1.27,9.75,5.69,17.62,13.84,23.39a131.67,131.67,0,0,0,18.74,10.63,12.58,12.58,0,0,0,2.95,1,3.24,3.24,0,0,0,4-3.71,6.27,6.27,0,0,0-.62-2c-1-2-2.07-4-3.17-5.92-1.53-2.71-3.28-5.31-4.63-8.1a80.71,80.71,0,0,1-7.13-21.28c-.85-4.8-1.47-9.64-2.41-14.42a100,100,0,0,1-1.78-18.58,149.8,149.8,0,0,0-2.38-25,6.84,6.84,0,0,0-2-4.26,3.57,3.57,0,0,0-4.19-.79,3.7,3.7,0,0,0-2,3.77c.06,1.75.09,3.51,0,5.25-.11,2-.4,4-.59,6a71.21,71.21,0,0,1-4.66,20.23A65.46,65.46,0,0,0,270,364.78ZM57.56,355.49c-1.05.83-2.05,1.5-2.92,2.31-2.48,2.33-3.83,5.12-3,8.59a55.53,55.53,0,0,0,2.14,7.33c1.77,4.37,3.87,8.56,7.76,11.58a39.58,39.58,0,0,0,14,6.69c3.19.89,5.91-1.07,5.07-4.68a41.53,41.53,0,0,1-.8-12.63c.45-6.11,2.57-11.28,7.75-15a17,17,0,0,1,6.62-2.59c2.44-.52,4-1.83,4.25-4.47.35-4.62.71-9.23,1-13.84a3,3,0,0,0-1.31-2.69,3.45,3.45,0,0,0-4.4.35,26.3,26.3,0,0,1-3.55,2.82c-4.11,2.29-8.29,4.48-12.49,6.62-2.25,1.15-2.75,1-4.16-1.09a96.58,96.58,0,0,1-10.89-22.06c-.53-1.49-1.31-2.56-2.92-2.78A3.42,3.42,0,0,0,56,322a13.38,13.38,0,0,0-1.3,3.82C53,335.9,53.64,345.75,57.56,355.49ZM296.47,480.62a15.16,15.16,0,0,0-.27-3,38.88,38.88,0,0,0-1.93-5.91c-4-9-7.56-18.15-12.31-26.79-1.72-3.15-3.28-6.39-4.93-9.58a3.18,3.18,0,0,0-3.1-1.87,3.3,3.3,0,0,0-3.08,2.28,13.27,13.27,0,0,0-.66,2.8c-.56,3.55-.87,7.16-1.67,10.65-1.33,5.76-3,11.42-4.44,17.16a15,15,0,0,1-3.74,7.08,26.42,26.42,0,0,0-6,9.44c-1.53,4.42-1,8.18,2.73,11.47a51.52,51.52,0,0,0,13.2,8.16,13.6,13.6,0,0,0,14.7-1.75A29.66,29.66,0,0,0,296.47,480.62ZM677.41,338.76c-.2-4.28-.29-8.2-.61-12.09a33,33,0,0,0-1.24-7.29c-1.62-5-3.64-9.88-5.37-14.85a99.92,99.92,0,0,0-9.42-19.09,98.82,98.82,0,0,0-19.95-23.15c-2.83-2.45-5.27-1.85-6.79,1.58a20.76,20.76,0,0,0-1.68,11,46.31,46.31,0,0,0,6.29,18A52.41,52.41,0,0,0,653.06,309c4.08,3,7.12,6.81,7.85,12.13a92.07,92.07,0,0,1,.82,21,42.28,42.28,0,0,0,.3,9.54,6.27,6.27,0,0,0,3,4.92c5.75,3.22,11.5-1.6,11.73-6C677,346.54,677.21,342.47,677.41,338.76ZM246.69,385c1.13,1.29,2.24,2.53,3.32,3.79a30.59,30.59,0,0,0,7.35,6.45,9.18,9.18,0,0,0,5.24,1.44,3.71,3.71,0,0,0,3.76-4.49,40.26,40.26,0,0,0-5.05-14.62,38.18,38.18,0,0,1-4.82-13.92c-.66-4.86-.21-9.54,2.32-13.91,1.8-3.11,3.37-6.35,5.13-9.49a42.71,42.71,0,0,0,5.23-22.59,18.46,18.46,0,0,0-.59-4.26,3.42,3.42,0,0,0-5.35-2,6.64,6.64,0,0,0-2.18,2.47,63.41,63.41,0,0,0-4,9.2c-2.8,9.39-8,17.32-14.2,24.73-3.33,4-6.48,8.12-9.44,12.38a43.56,43.56,0,0,0-7,17.42,14.32,14.32,0,0,0-.22,3.33,6.29,6.29,0,0,0,3.89,5.84,31.7,31.7,0,0,0,4,1.59c4.18,1.2,8.07.75,11.38-2.36C245.75,385.69,246.14,385.42,246.69,385ZM179.43,205.14c.32-6.31-1.44-11.51-5.62-15.68a32.17,32.17,0,0,0-12.07-7.59,8.86,8.86,0,0,0-2.12-.35c-3.11-.27-4.87,1-5.44,4.08-.27,1.41-.42,2.84-.57,4.27a16.72,16.72,0,0,1-4,9.79,34.28,34.28,0,0,0-4.4,6.55,18.33,18.33,0,0,0,.17,18.74c1.25,2.23,2.53,4.44,3.78,6.67a19,19,0,0,0,8.66,8c6,2.85,11.58,1.13,14.44-4.89C176.76,225.24,179.63,215.33,179.43,205.14Zm-116.6-7.86c1-.17,1.55-.28,2.1-.34,3.89-.42,7.79-.74,11.67-1.25,3-.39,5.87-1.17,8.09-3.29a38.76,38.76,0,0,0,8-10.7c1.36-2.73.74-4.57-2.12-5.74A31.27,31.27,0,0,0,84,173.89a99.78,99.78,0,0,0-33.65-.09c-5.54,1-10.92,2.38-15.78,5.37A5.28,5.28,0,0,0,32,181.89a27.3,27.3,0,0,0-.78,14.42,4.13,4.13,0,0,0,3.87,3.39,25.76,25.76,0,0,0,8.58-.34c1.06-.24,2.14-.41,3.44-.66-.12.7-.19,1.14-.26,1.59-.3,1.81-.71,3.61-.85,5.43-.19,2.36.77,3.57,3.08,4.11A23.8,23.8,0,0,0,60,209.48a3.12,3.12,0,0,0,2.42-3c.18-1.58.35-3.18.43-4.77C62.88,200.33,62.83,198.9,62.83,197.28Zm83-26.35c.36-3.58-1.39-6.3-3.88-8.39a10.5,10.5,0,0,1-3.6-6.23,10.78,10.78,0,0,0-4.42-6.62,30.89,30.89,0,0,0-9.13-4.14,12.58,12.58,0,0,0-8.45.34c-3.75,1.42-7.08,3.32-8.75,7.29-.65,1.54-1.58,3-2.32,4.46a4.84,4.84,0,0,1-3.63,2.83c-1.5.26-3,.51-4.46.91a15.73,15.73,0,0,0-3.55,1.37,3.4,3.4,0,0,0-1.55,3.95,3.17,3.17,0,0,0,3.21,2.36,15.69,15.69,0,0,0,1.68,0,20.3,20.3,0,0,1,8.43,1.51c3,1.22,6.15,2.28,9.14,3.63,7.36,3.32,14.69,6.72,19.81,13.38a4.1,4.1,0,0,0,.5.52c2.66,2.47,5.54,2,7.23-1.2.23-.42.42-.86.61-1.3C144.71,180.91,145.37,175.93,145.85,170.93ZM97.53,205.54c-.15.94-.27,1.64-.38,2.34s-.25,1.42-.29,2.14c-.16,2.5,1.26,3.89,3.72,3.86s4.63,0,6.93.14c2.64.15,3.88-.71,4.32-3.32.28-1.66.4-3.34.67-5,.23-1.47,1.12-1.87,2.38-1.12a11,11,0,0,1,1.32,1c3.24,2.72,6.49,5.44,9.72,8.18,1.5,1.26,3,1.44,4.39.51a3.42,3.42,0,0,0,1.22-4.23c-1.88-5-3.76-10-5.68-15a4.76,4.76,0,0,0-1.23-2,51,51,0,0,0-6.73-4.94,19.72,19.72,0,0,0-13.14-2.58,7.37,7.37,0,0,0-5.82,4.06c-1,2-2.16,3.92-3.23,5.89a5.54,5.54,0,0,1-3.59,2.9c-3.08.84-6.12,1.86-9.14,2.9-2.19.74-4.33,1.62-6.48,2.46a4.87,4.87,0,0,0-2.8,2.79c-.9,2-1.92,4-2.83,6.09a2.83,2.83,0,0,1-2,1.82c-1.47.33-2.94.67-4.42.94a52,52,0,0,0-12.34,3.78,3.39,3.39,0,0,0-2.28,3.1c0,1.68,0,3.36,0,5a3.17,3.17,0,0,0,2.71,3.45,29.58,29.58,0,0,0,6.16.45c3.23-.12,4.72-1.8,4.85-5,0-1.25.09-2.5.14-3.94,2.16-.37,4.12-.67,6.06-1,4.24-.78,8.12-2.1,11-5.62,2.45-2.94,5.31-5.54,7.92-8.35a4.69,4.69,0,0,1,3.08-1.67C93.56,205.46,95.38,205.54,97.53,205.54ZM71.8,162.32a7,7,0,0,0,6.68-1.86,9.89,9.89,0,0,1,8.16-3.28c4.43.31,7.36-2.18,9.93-5.27,2-2.38,1.48-4.84-1.16-6.46a23.37,23.37,0,0,0-2.35-1.17A6.14,6.14,0,0,1,90,141.44a33.67,33.67,0,0,0-3.08-4.55A7,7,0,0,0,81.35,134a20.7,20.7,0,0,0-15.74,5.74,12.36,12.36,0,0,1-6.45,3.31C46.48,145.57,36.6,152.45,29,162.8c-1.43,1.95-1.42,3.61-.11,5a3.86,3.86,0,0,0,4.86.54c3.53-2.17,7.47-3.2,11.4-4.2C53.72,162,62.45,162.35,71.8,162.32ZM614.52,408.91c.07.87.11,2.07.26,3.25a3.08,3.08,0,0,0,3.15,3,8,8,0,0,0,3.24-.6,33.47,33.47,0,0,0,4.16-2.34,92.69,92.69,0,0,0,17.34-14.31c4.39-4.44,8.29-9.26,10.8-15.08.95-2.2,2.15-4.28,3.21-6.43a23,23,0,0,0,2.63-8.9,7.17,7.17,0,0,0-4.78-7.25,8.52,8.52,0,0,0-10.36,3.63c-.75,1.31-1.25,2.76-1.88,4.14-1.22,2.68-2.39,5.39-3.68,8.05a10.74,10.74,0,0,1-5.19,5.11,27.13,27.13,0,0,0-7.43,5.18,48.78,48.78,0,0,0-9.22,12.77A20.1,20.1,0,0,0,614.52,408.91ZM163.14,336.4a5.25,5.25,0,0,0-2.76-4.25q-5.79-3.37-11.56-6.79a8.86,8.86,0,0,1-2.1-1.57c-3-3.43-5.93-6.89-7.31-11.39a6.46,6.46,0,0,0-6-4.76c-4.91-.56-9.8-1.23-14.34-3.48-1.93-1-3.62-.28-4.61,1.65-1.68,3.26-3.32,6.55-4.86,9.88-1.37,2.94-.19,4.84,3.08,5.43a18.29,18.29,0,0,1,4.59,1.29,34,34,0,0,1,16.1,15.8c1.24,2.51,2.56,3.1,5.19,2.23,3-1,6.08-1.95,9.08-3a3.42,3.42,0,0,1,3.17.24c1.92,1.14,3.86,2.26,5.85,3.29,1.67.86,3.39.7,4.36-.61A27.61,27.61,0,0,0,163.14,336.4ZM84.3,233.05c1.15.22,1.94.31,2.69.53,8.71,2.63,17.43,5.22,26.12,7.93,6.45,2,6.43,2.1,12.28-1.29a20.67,20.67,0,0,0,4.42-2.82c2-2,3.7-4.4,5.59-6.55,1.46-1.65,1.22-4.28-1.38-5.58a17,17,0,0,0-4.09-1.3,3.26,3.26,0,0,0-4.12,3.16c-.06.79,0,1.59,0,2.39a2.07,2.07,0,0,1-1.73,2.24c-1.63.39-3.24.87-4.89,1.17s-2.31-.26-2.41-2c-.07-1.27,0-2.55,0-3.83,0-2.43-1.19-3.75-3.64-3.77a10.4,10.4,0,0,0-4,.72,7.8,7.8,0,0,1-6.86-.24c-2.52-1.2-5.21-2-7.78-3.11a7.47,7.47,0,0,0-6.69.06q-8.3,4.29-16.63,8.53a3.57,3.57,0,0,0-2.11,3.92c.27,2,.52,4,.86,5.93a5,5,0,0,0,5,4.24c3.07.16,5.56-1.19,7.92-2.89a4,4,0,0,0,1.71-4.4A28.09,28.09,0,0,1,84.3,233.05Z" transform="translate(-0.48 -0.48)"/><path class="cls-1" d="M443.72,431a248.35,248.35,0,0,1-30.57-2.51c-8.47-1.13-16.92-2.41-25.38-3.64-1.19-.17-2.37-.39-3.54-.61-2.43-.46-3.3-1.66-3.28-4.19.08-8,2.8-15.34,6.32-22.4a101.14,101.14,0,0,1,9.4-15c1.51-2,1.54-2.13,0-4.14a51.78,51.78,0,0,1-6.9-12.83,7.73,7.73,0,0,1,.51-7.36c3.47-5.41,7.69-10,13.88-12.4,2-.77,3.64-.83,5.35.54,1.05.85,2.25,1.52,3.39,2.27,2.08,1.36,3.25,1.32,5.11-.25a20.64,20.64,0,0,0,6.22-8.67c.38-1.05.83-2.08,1.21-3.13,1.4-3.88,4.45-5.41,8.27-5.89,6.55-.83,12.31,1,17.54,4.93a38.79,38.79,0,0,1,8.5,9c3.32,4.7,6.69,9.36,9.92,14.11a30.94,30.94,0,0,1,1.9,4.12c3.28,6.81,4.46,14.13,5.13,21.56,0,.4.06.8.09,1.2a9.36,9.36,0,0,0,3.59,6.76,13,13,0,0,1,3.17,15.43c-4.12,8.68-10.79,15.16-18,21.16a4,4,0,0,1-2.14.93c-6.06.39-12.13.69-18.19,1C444.68,431,444.2,431,443.72,431Z" transform="translate(-0.48 -0.48)"/><path class="cls-1" d="M324.51,526c-7,0-13.94-.14-20.65-2.36a31.65,31.65,0,0,1-5.49-2.33,9.16,9.16,0,0,1-4.66-8.15,22.76,22.76,0,0,1,5.62-15.67,37.6,37.6,0,0,1,6-5.81,12.92,12.92,0,0,0,5.21-9.26A31.13,31.13,0,0,0,308,465.56a73.75,73.75,0,0,0-5.08-9.48c-4.52-7.26-8.79-14.66-13.16-22-.81-1.38-1.64-2.75-2.44-4.13a18.07,18.07,0,0,1-2.46-6.7c-.53-3.95,2.33-9,8-7.82,5.15,1.11,10.27,2.41,15.29,4a246.37,246.37,0,0,0,33.61,7.71c3.78.61,7.58,1.19,11.28,2.14a14.3,14.3,0,0,1,7.31,4.36,6.4,6.4,0,0,1,1.75,5.28c-1.17,8.61.19,17.05,1.59,25.51,1.36,8.2,2.7,16.42,2.52,24.77a82.53,82.53,0,0,1-2.36,18,31.72,31.72,0,0,1-4.92,10.33,13.25,13.25,0,0,1-8.23,5.4,103.19,103.19,0,0,1-11.77,2.18C334.1,525.62,329.29,525.69,324.51,526Z" transform="translate(-0.48 -0.48)"/><path class="cls-1" d="M552.94,526.45c-3.38-.43-8.92-1.09-14.46-1.84a14.42,14.42,0,0,1-3.45-1c-5-2.1-7.17-6-6.37-11.52a21.93,21.93,0,0,1,2.66-7.65c3.75-6.72,8.89-12.28,14.51-17.44a113.2,113.2,0,0,1,15.88-12,18.13,18.13,0,0,0,6.27-7.41,5.16,5.16,0,0,0,.44-2.53,81.63,81.63,0,0,0-4.1-20.63,16.44,16.44,0,0,1-.71-2.53c-.37-2.36,1.06-3.88,3.44-4.23,8.05-1.18,16.11-2.38,24.13-3.77a43.18,43.18,0,0,0,11.69-4.21A52.67,52.67,0,0,1,616,425.18a17.85,17.85,0,0,1,3.57-.34,4.87,4.87,0,0,1,4.84,3.17,96.22,96.22,0,0,1,8.55,31.05,26.81,26.81,0,0,1-4,17.41A51.67,51.67,0,0,1,619.78,487c-.94.86-1.91,1.7-2.88,2.53a70.89,70.89,0,0,0-8.7,8.88,103.54,103.54,0,0,1-24.12,21.76c-4.05,2.61-8.63,3.74-13.21,4.83C565.72,526.19,560.42,526.31,552.94,526.45Z" transform="translate(-0.48 -0.48)"/><path class="cls-1" d="M187.84,233.91a43.7,43.7,0,0,1,2.69-15.28,27,27,0,0,0-1-21.64,46.85,46.85,0,0,1-2.46-6,4.12,4.12,0,0,1,3.6-5.6c6.47-.57,11.83-3.69,17-7.18a15.41,15.41,0,0,1,10.57-3c2.94.32,5.89.54,8.82.92a8.92,8.92,0,0,1,6.55,4c1.49,2.27,3,4.55,4.38,6.86s2.62,4.59,4,6.82c.91,1.46,2.35,1.57,3.59.35.79-.79,1.41-1.75,2.23-2.5,2.76-2.55,5.35-5.35,8.41-7.47,6.2-4.33,12.09-3.55,16.13,1.8a17.92,17.92,0,0,1,2.52,17.74,30.32,30.32,0,0,1-2.58,5.12,3.07,3.07,0,0,0-.23,3.12c2.49,5.73,3.1,11.9,3.71,18a11.46,11.46,0,0,1-3.72,9.76c-.87.82-1.74,1.64-2.63,2.44-3.69,3.3-8,3.08-12.46,2.29-2.67-.49-5.34-1-8-1.71a21.79,21.79,0,0,0-9.74.22c-1.49.29-3,.67-4.45,1a23.08,23.08,0,0,0-13,7.17,42.21,42.21,0,0,1-4.05,3.74c-4.82,4.15-10.33,4.73-16.18,2.81a9.94,9.94,0,0,1-3.77-2.46c-4.47-4.48-8-9.6-9.3-15.91A51.55,51.55,0,0,1,187.84,233.91ZM228,205l.08-.26c.4,0,.8,0,1.2,0a5.65,5.65,0,0,0,.71,0c1.3-.21,1.68-.8,1.17-2a7.75,7.75,0,0,0-1.15-1.8c-.86-1-1.85-2-2.64-3.09-2.6-3.6-7-3.44-10.2-2.4-1.84.6-2.3,1.82-1.51,3.59a7.12,7.12,0,0,0,4.5,4C222.69,203.8,225.34,204.34,228,205Z" transform="translate(-0.48 -0.48)"/><path class="cls-1" d="M507.71,348.11a49.26,49.26,0,0,1-13.78-3.8c-7.18-3.31-14.28-6.79-21.39-10.25a83.37,83.37,0,0,1-15.35-9.75c-2.06-1.64-4.22-3.16-6.39-4.64s-2.7-3.67-.91-5.71c3.06-3.48,6.17-6.93,9.54-10.1A129.94,129.94,0,0,1,477.2,290a31.22,31.22,0,0,0,6.5-6.33,5.65,5.65,0,0,0,.82-5.69,35.3,35.3,0,0,0-3.14-6.67c-1.72-2.87-1.41-5,1.53-6.53,2.2-1.14,4.52-2,6.8-3a4.33,4.33,0,0,1,5.18,1.32,17.91,17.91,0,0,0,3.26,2.77c3.37,2.14,5.53,1.9,8.8-.41,3.65-2.59,7.32-5.15,11.12-7.49a50.85,50.85,0,0,1,13.4-5.75,11.56,11.56,0,0,1,8.81,1.09c3,1.64,4.68,6.55,3.16,10.4a39.41,39.41,0,0,1-4.58,8.63c-3,4.07-6.33,7.83-9.58,11.67-2,2.31-4,4.56-6.08,6.79a2.75,2.75,0,0,0-.78,2.83c.74,2.52,1.36,5.09,2.28,7.55,2.47,6.59,4.81,13.23,5.39,20.29.52,6.31-.19,12.48-3.59,18a17.22,17.22,0,0,1-11.6,7.81A64.81,64.81,0,0,1,507.71,348.11Z" transform="translate(-0.48 -0.48)"/><path class="cls-1" d="M363.09,257a29.24,29.24,0,0,1,1.62-9.69c1.43-3.69-.7-5.8-3.11-7.34a29.65,29.65,0,0,0-3.9-1.85,48.55,48.55,0,0,1-10.29-6.1,15.42,15.42,0,0,1-5.12-6.51,8.41,8.41,0,0,1-.33-5.16,23.34,23.34,0,0,1,6.4-11.34c4.25-4.22,8.54-8.4,13.93-11.27a25,25,0,0,1,11.07-2.7c5.43-.2,10.87.07,16.3.14,2.24,0,4.48,0,6.71.16,4,.27,8,.59,11.93,1a7.92,7.92,0,0,1,2.92,1,3.44,3.44,0,0,1,1.33,4.94c-.48.83-1.11,1.56-1.67,2.34l-7.24,10.16c-2.92,4.08-2.77,8.43-1.42,13,1.46,5,5.13,7.94,9,10.82a58.64,58.64,0,0,1,4.8,3.58c2.86,2.64,4.36,5.83,3.27,9.85a36.67,36.67,0,0,1-8,14.58,49.92,49.92,0,0,1-7.39,7.14,29.4,29.4,0,0,1-13.26,5.79c-4.67.77-9.33,1.35-14.06.36a11,11,0,0,1-4.7-2.22c-4.59-3.6-6.89-8.53-8-14.07C363.44,261.44,363.34,259.19,363.09,257Z" transform="translate(-0.48 -0.48)"/><path class="cls-1" d="M239.18,269.84a49.05,49.05,0,0,1-1.43,7,122.17,122.17,0,0,1-8.49,19,65.64,65.64,0,0,1-8.5,11.86,69.25,69.25,0,0,0-4.92,6.77c-5.76,8.27-11.47,16.57-17.24,24.82a32.74,32.74,0,0,1-7.33,7.53c-2.64,1.95-5.06,1.69-7.12-.87a21.17,21.17,0,0,1-2.15-3.45c-.74-1.41-1.34-2.9-2-4.34-1.21-2.54-1.25-2.53-4.17-2.32a10.33,10.33,0,0,1-2.14-.15c-2.88-.41-3.77-1.67-3.54-4.55.43-5.26.75-10.53,1.12-15.79a69.72,69.72,0,0,0-.78-14.57c-.94-6.72-1.52-13.5-2.45-20.23a88,88,0,0,0-2-9.6c-.94-3.71-2.06-7.37-3.14-11.05-.76-2.6.11-4.35,2.74-5.16s5.37-1.57,8.05-2.36a4.83,4.83,0,0,1,5.2,1.43c3.8,3.77,7.77,7.37,11.64,11.08a5.32,5.32,0,0,0,3.33,1.61c4.61.48,9.21,1.06,13.8,1.7a6.77,6.77,0,0,0,5.19-1.2c2.27-1.63,4.61-3.17,7-4.59a21.17,21.17,0,0,1,9.27-3c2.43-.18,4.79,0,6.79,1.7a7.07,7.07,0,0,1,2.77,5.1c.08,1.2.23,2.39.35,3.58Z" transform="translate(-0.48 -0.48)"/><path class="cls-1" d="M329.65,334.3c1.26-2.79-.67-4.5-2.89-6.34a66.56,66.56,0,0,1-6.83-6.71c-3.32-3.69-6.46-7.52-9.68-11.29-1.79-2.1-2.79-4.42-2.17-7.27a7,7,0,0,1,2.44-3.95,82.5,82.5,0,0,1,20.38-13.39c3.2-1.44,6.49-2.72,9.81-3.85a10.92,10.92,0,0,1,9.9,1.26c5.51,3.76,8.76,9,9,15.84.11,3.34,2.53,6.5,5.88,6.59a15.21,15.21,0,0,1,12.29,6.36c1.95,2.53,4.16,4.87,6,7.5A21.65,21.65,0,0,1,387.44,335c-.78,5.46-1.94,10.75-5.78,15A32.22,32.22,0,0,1,363,360.5a25.52,25.52,0,0,1-11.4-.36,22.84,22.84,0,0,0-2.57-.61c-7.31-1.11-12.21-5.82-16.13-11.49C330.25,344.17,329.52,339.47,329.65,334.3Z" transform="translate(-0.48 -0.48)"/><path class="cls-1" d="M469.73,250.93c-12,.11-21.5-1.08-30.71-4.11a43.29,43.29,0,0,1-11-5.74,8.88,8.88,0,0,1-2.73-3.8c-5.19-12.35-1.44-31.84,14.43-40.05a8.71,8.71,0,0,1,3.89-1A171.72,171.72,0,0,1,479.87,199c2.82.53,5.66,1,8.45,1.71,5.29,1.29,9.75,3.75,12.69,8.66,2.54,4.25,5.44,8.27,7.09,13,1.76,5,1.49,10,.15,15.11a9.24,9.24,0,0,1-4.15,5.38,32.86,32.86,0,0,1-6.81,3.41A77.8,77.8,0,0,1,469.73,250.93Z" transform="translate(-0.48 -0.48)"/><path class="cls-1" d="M305.2,283.29c-1.87-.39-3.76-.7-5.6-1.18a25.72,25.72,0,0,1-4.3-1.49,5,5,0,0,0-5,.43,23.28,23.28,0,0,1-5.5,2.24c-4.55,1.18-7.62-2.27-7.86-6.34a16.32,16.32,0,0,1,2.14-8.5,4,4,0,0,0-.18-4.24,26.91,26.91,0,0,1-2.49-5.4c-.82-2.75.09-4.41,2.41-6.13,3.78-2.8,7.91-5.12,11.18-8.61,3.1-3.31,5.59-6.85,6.58-11.45a11.84,11.84,0,0,0-2.06-10,18.9,18.9,0,0,0-3.77-4.32c-3.65-2.66-3.18-8.28-.6-11.39a15.67,15.67,0,0,1,6-4.31,65.23,65.23,0,0,1,20.92-5.77c5.5-.45,11-.68,16.51-1a17.8,17.8,0,0,1,2.62.21c2.86.3,4.37,5,2.07,7-4.65,4-8,9.09-11.81,13.84-2.22,2.8-2.88,6.2-3.44,9.59a4,4,0,0,0,1.51,3.62c2,1.78,4,3.49,5.87,5.3a56.38,56.38,0,0,1,5.41,5.41c4.37,5.44,5.66,11.5,3.19,18.19a34.09,34.09,0,0,1-19.5,20.29c-4.06,1.72-8.12,3.35-12.59,3.62l-1.67.13Z" transform="translate(-0.48 -0.48)"/><path class="cls-1" d="M634.73,511.24c-2.47.16-5.74-.78-8.83-2.42a8.43,8.43,0,0,1-1.74-1.23c-2.17-1.95-2.52-4.3-1.47-7a25.89,25.89,0,0,1,6.16-9.35c3.17-3,6.56-5.84,10-8.54A35.7,35.7,0,0,0,650,467.67c1-2.55.23-5.22-.87-7.67-2.51-5.61-5.16-11.17-7.62-16.8s-4.71-11.19-7.06-16.79a4.45,4.45,0,0,1,.59-5,60.16,60.16,0,0,1,5-5.45c5.48-4.9,11.44-9.29,16.19-15,2.1-2.51,4-5.16,6-7.8,1.22-1.69,2.64-2.36,4.25-1.75s2.42,2,2.18,4.06c-.46,4.06-.87,8.14.06,12.16a35.3,35.3,0,0,0,2.11,6.35c1.49,3.35,3.39,6.53,4.81,9.92a137.75,137.75,0,0,1,5.84,15.44,27.37,27.37,0,0,1-1.88,19.63,124.57,124.57,0,0,0-6.24,16.31,166.18,166.18,0,0,1-8,21,18.44,18.44,0,0,1-7.26,8.06A43.23,43.23,0,0,1,634.73,511.24Z" transform="translate(-0.48 -0.48)"/><path class="cls-1" d="M357,417.24c-3.67-.17-8.3-.42-12.93-.6-6.38-.26-11.53-3.21-15.78-7.65a65.72,65.72,0,0,1-12.8-18.12,136.85,136.85,0,0,1-9.6-28.05,52.47,52.47,0,0,0-1.94-6.17,76.47,76.47,0,0,1-3.61-14.38c-.47-3.47-1-6.94-1.27-10.44a10.21,10.21,0,0,1,.9-4.38,5.1,5.1,0,0,1,6.55-2.82c5.6,2.5,9.87,6.17,11.3,12.64,1.93,8.68,4.78,17.07,9.51,24.72a11.87,11.87,0,0,0,5.39,4.89,29.34,29.34,0,0,0,8,2.4c6.35.88,12.6-.22,18.9-.38a54.65,54.65,0,0,1,14.76,1.24c5.11,1.27,6.39,2.79,6.38,8a38,38,0,0,1-.7,7.37A96.36,96.36,0,0,1,370,413.08c-.39.69-.9,1.32-1.31,2a4.16,4.16,0,0,1-4,2.17C362.46,417.19,360.22,417.24,357,417.24Z" transform="translate(-0.48 -0.48)"/><path class="cls-1" d="M111.36,363.3c-.6-3.17-1.33-6.05-1.66-9a42.23,42.23,0,0,1,1.64-18.24,4.16,4.16,0,0,1,2.76-3c2.15-.65,3.45-.14,4.93,1.83a121.11,121.11,0,0,1,9.64,15.73c.9,1.68,1.78,3.38,2.74,5.2a12.89,12.89,0,0,0,1.53-.74c3.64-2.32,7.29-4.62,10.88-7a4.09,4.09,0,0,1,4.27-.5c4.9,2.16,9.83,4.25,14.71,6.44,1.87.84,2.58,2.58,2.76,4.49a21.67,21.67,0,0,1-.68,9q-2.62,7.83-5.52,15.57a23.76,23.76,0,0,1-6.51,9.09,11.55,11.55,0,0,1-3.49,2,72,72,0,0,1-18.31,4.63,94,94,0,0,1-29.59-1.44c-6.73-1.34-11-6.7-10.59-13.56a48.48,48.48,0,0,1,1.86-10.34,40.51,40.51,0,0,1,3.51-7.31c.67-1.27,1.94-1.49,3.3-1.54q3-.11,6-.44C107.41,364,109.29,363.61,111.36,363.3Z" transform="translate(-0.48 -0.48)"/><path class="cls-1" d="M607.78,306.61a20.53,20.53,0,0,1-6.64-2.45,124.44,124.44,0,0,1-13.72-10.84c-3.38-2.91-7-5.57-10.6-8.2a8,8,0,0,0-6.85-1.19c-4,.92-8,1.64-12,2.37a12.71,12.71,0,0,1-6.39-.29,3.42,3.42,0,0,1-2.6-4.22,23.46,23.46,0,0,1,1.22-4.62,103.88,103.88,0,0,1,9.33-18.62c.56-.87,1.21-1.68,1.83-2.52a5.88,5.88,0,0,1,7-2.24c4.13,1.24,8.25,2.52,12.37,3.79a11,11,0,0,0,11.69-2.65c5.63-5.33,11.41-10.49,17.18-15.67,2.46-2.2,3.91-2.34,6.64-.51,2.51,1.69,4.88,3.61,7.25,5.49,1.06.85,2,1.85,3,2.8,1.58,1.54,1.81,2.88.66,4.7-1.36,2.15-2.78,4.27-4.26,6.34A39.71,39.71,0,0,0,617.49,269a2.78,2.78,0,0,0,.42,2.7c1.82,2.51,3,5.46,5.56,7.45a3.16,3.16,0,0,1,1,3.28c-1.14,5.66-2.57,11.25-5.81,16.13a42.57,42.57,0,0,1-5.08,6C612.14,306.07,610.12,306.47,607.78,306.61Z" transform="translate(-0.48 -0.48)"/><path class="cls-1" d="M388.43,299.38c.15-2.51,1.59-4.1,3.29-5.5a25.92,25.92,0,0,1,9.1-4.71,60.3,60.3,0,0,1,8.83-2.11,10.25,10.25,0,0,0,6.48-3.64c3.87-4.25,7.78-8.48,11.87-12.51A45.51,45.51,0,0,1,440,262.59c4.34-2.13,8.45-2.32,12.76.19a55.92,55.92,0,0,1,11.11,8.29,10.11,10.11,0,0,1,3.28,9.11,9,9,0,0,1-1.53,3.69,43.14,43.14,0,0,1-4.76,5.68,232.39,232.39,0,0,1-30.31,24.6c-2,1.42-4.13,2.73-6.19,4.09a11.55,11.55,0,0,0-4.35,5.28,31.29,31.29,0,0,1-2.9,5.49,14.18,14.18,0,0,1-3.51,3.53c-3,2.1-5.51,1.6-7.56-1.49-2.91-4.39-5.77-8.82-8.48-13.34s-5.11-8.85-7.49-13.37A28.15,28.15,0,0,1,388.43,299.38Z" transform="translate(-0.48 -0.48)"/><path class="cls-1" d="M268.61,275.63a21.22,21.22,0,0,1-.74,3.1c-2.9,7.78-5.56,15.65-9.79,22.87-5,8.55-9.79,17.23-14.7,25.84-6.38,11.19-13.3,22-20.61,32.63a41.88,41.88,0,0,1-8.89,9.33,8.16,8.16,0,0,1-10,.18c-1.71-1.3-3.55-2.44-5.36-3.62a5.13,5.13,0,0,1-2.32-6.18,30.25,30.25,0,0,1,3.48-7,109,109,0,0,1,8.25-10,75.17,75.17,0,0,0,7.9-9.61c3-4.61,6.19-9.13,9.41-13.61a110.09,110.09,0,0,0,8.16-13.27q5.94-11.37,11.92-22.72c.48-.92.89-1.88,1.36-2.81a20.22,20.22,0,0,0,2-10.68,109.28,109.28,0,0,1,0-11.73c.13-3.14,2.12-5.08,5-5.14a8.24,8.24,0,0,1,5.2,1.51c3.36,2.46,6,5.42,7.21,9.57C267.08,267.81,268.36,271.27,268.61,275.63Z" transform="translate(-0.48 -0.48)"/><path class="cls-1" d="M509.78,433.23c-6.38-.31-12.77-.63-19.15-.91-1.28-.06-2.56,0-3.83.06a3.61,3.61,0,0,1-3.39-5.82c2.72-4.41,5.17-9,8.18-13.23a89.44,89.44,0,0,0,6.67-10.21,53.34,53.34,0,0,0,2.1-5.06,3.77,3.77,0,0,0-.64-3.84c-1.11-1.46-2.28-2.88-3.46-4.3-3.47-4.17-6.94-8.35-10.47-12.48a9.32,9.32,0,0,1-2.45-7,29,29,0,0,1,3.42-11.88c1.57-2.85,2.95-3.39,6.14-2.6a5.62,5.62,0,0,1,1.15.33c5.89,2.67,12.14,4.5,17.68,7.95,4.33,2.68,6.11,6.45,4.91,11.4a53.24,53.24,0,0,1-2.55,7.21,11.85,11.85,0,0,0-.62,6.81,7.55,7.55,0,0,0,3,5c3.83,2.74,7.66,5.5,11.53,8.17,2.11,1.46,4.33,2.72,6.46,4.14,3.37,2.24,4.27,4.74,3.37,8.64a62.8,62.8,0,0,1-5.27,13.84,4.41,4.41,0,0,1-3.86,2.75c-3.19.26-6.36.65-9.55.79s-6.24,0-9.36,0Z" transform="translate(-0.48 -0.48)"/><path class="cls-1" d="M550.85,299.75a23,23,0,0,1,9.28,2.11,70.19,70.19,0,0,1,14.81,8.78,26.73,26.73,0,0,1,2.82,2.6,5.26,5.26,0,0,1,1.41,5.31c-.69,2.29-1.46,4.56-2.33,6.79-.66,1.71-1.58,3.32-2.29,5-1.28,3.06-.84,5.39,1.66,7.56,2,1.72,4.17,3.22,6.28,4.8,1,.72,2,1.36,2.92,2.11a3.81,3.81,0,0,1,1.33,4.71c-2,4.68-4.1,9.37-6.41,13.93-1.5,3-4.59,3.61-7.32,1.6s-5.12-4.33-7.72-6.45a22.25,22.25,0,0,0-3.4-2.21,8.68,8.68,0,0,0-2.27-.7,4.07,4.07,0,0,0-5,2.13,18.87,18.87,0,0,1-6.33,6.45c-4.6,2.8-9.46,3.45-14.38,1a12.76,12.76,0,0,1-4-3.32c-2.25-2.71-2.22-4.82.12-7.51a92.74,92.74,0,0,1,6.85-7,10.32,10.32,0,0,0,3.2-5.45c1.12-4.75.86-9.53.62-14.32q-.5-10.19-1-20.36a6.2,6.2,0,0,1,3.89-6.28A15.71,15.71,0,0,1,550.85,299.75Z" transform="translate(-0.48 -0.48)"/><path class="cls-1" d="M565.7,429.71c-1.44,0-2.88,0-4.31,0a3.56,3.56,0,0,1-3.67-2.51,22.3,22.3,0,0,1-1.29-8c0-2.39.16-4.79.3-7.18.29-5.19-2-8.77-6.9-10.47a54.91,54.91,0,0,0-7.22-1.7c-3.19-.63-6.2-1.62-8.54-4-2.61-2.65-3.61-5.77-2.37-9.42a5.06,5.06,0,0,1,4.08-3.58c3.67-.77,7.31-1.69,10.94-2.64a13.43,13.43,0,0,0,7-4,11.28,11.28,0,0,1,6.7-3.45c6.16-1.07,11.07,3.82,9.61,9.88a24.29,24.29,0,0,0-.19,8.06,2.54,2.54,0,0,0,1.54,2.23,18.09,18.09,0,0,0,7.33,2.05,54.48,54.48,0,0,0,12.86-1.18,26.27,26.27,0,0,1,5-.67c3.78,0,6.25,2.18,7,5.89a16.14,16.14,0,0,1-.38,7.12,58.6,58.6,0,0,1-6.23,16,6,6,0,0,1-1.85,1.8,21.56,21.56,0,0,1-7.3,2.92A129.26,129.26,0,0,1,565.7,429.71Z" transform="translate(-0.48 -0.48)"/><path class="cls-1" d="M608.85,379.27c-.79-.09-1.75-.14-2.69-.32-5.45-1-7.64-3.3-8.61-8.79a26.76,26.76,0,0,1,.43-10.69q1.57-7,2.63-14.12c.61-4.06-.71-7.4-4.52-9.46-.56-.3-1.05-.73-1.6-1.06-3.36-2-4.67-5-3.62-8.77a49.19,49.19,0,0,1,2.92-7.56c.84-1.79,2.45-2.2,4.52-1.61,1.84.53,3.66,1.12,5.52,1.58a28.36,28.36,0,0,0,10,.78c6.53-.73,11.94,1.69,16.65,5.84a48.6,48.6,0,0,1,5.65,6.48c1.58,2,2.88,4.21,4.42,6.24a4.51,4.51,0,0,1,.9,3.78,23.51,23.51,0,0,1-3.74,9c-.43.67-.91,1.31-1.39,2a43,43,0,0,0-5.37,9,33.33,33.33,0,0,1-9.49,12.79A19.6,19.6,0,0,1,608.85,379.27Z" transform="translate(-0.48 -0.48)"/><path class="cls-1" d="M159.67,300.32c.3,3.9.64,7.8.9,11.7a23.81,23.81,0,0,1-.06,4.05,3.34,3.34,0,0,1-4.76,2.81,14.68,14.68,0,0,1-3.79-2,5.65,5.65,0,0,1-1.62-2.79c-.93-3.47-1.74-7-2.47-10.49a6.18,6.18,0,0,0-3.73-4.63,56.25,56.25,0,0,0-16-4.65c-1.51-.21-3-.39-4.52-.57-2.41-.29-3.58-1.49-3.51-4,.09-2.95.52-5.9.52-8.84,0-6.39-.13-12.78-.32-19.16a14.72,14.72,0,0,0-.83-4,3.39,3.39,0,0,1,1-3.91c3.46-2.95,6.81-6.09,10.52-8.7,4.1-2.88,8.84-3.09,13.55-1.57a11.22,11.22,0,0,1,7.33,7.66,157.53,157.53,0,0,1,5.59,25.22C158.65,284.4,159.89,292.28,159.67,300.32Z" transform="translate(-0.48 -0.48)"/><path class="cls-1" d="M577.5,236.27c-7.28.13-14.32-1-20.84-4.43a14.7,14.7,0,0,0-9.07-1.31,3.66,3.66,0,0,0-2.42,1.78,34.42,34.42,0,0,1-13.09,10.59,11.31,11.31,0,0,1-7.21,1c-3.8-.86-8.17-4.63-6.47-10.21.45-1.44,1.09-2.83,1.62-4.24.83-2.25,1.67-4.49,2.45-6.75a6.25,6.25,0,0,0-.12-4.22,22.43,22.43,0,0,0-5.33-9c-1.18-1.16-1.87-2.43-1.28-4.07a3.58,3.58,0,0,1,3.79-2.37c4.71.14,9.43.2,14.11.64,10.48,1,20.52,3.88,30.54,7a172.21,172.21,0,0,1,23.91,9.14,58.89,58.89,0,0,1,6,3.47,10.3,10.3,0,0,1,2.3,2.08c1.79,2.1,1.46,4.78-.89,6.15-4.75,2.74-9.72,4.85-15.37,4.73C579.26,236.26,578.38,236.27,577.5,236.27Z" transform="translate(-0.48 -0.48)"/><path class="cls-1" d="M270,364.78a65.46,65.46,0,0,1,4.68-24.84,71.21,71.21,0,0,0,4.66-20.23c.19-2,.48-4,.59-6,.1-1.74.07-3.5,0-5.25a3.7,3.7,0,0,1,2-3.77,3.57,3.57,0,0,1,4.19.79,6.84,6.84,0,0,1,2,4.26,149.8,149.8,0,0,1,2.38,25,100,100,0,0,0,1.78,18.58c.94,4.78,1.56,9.62,2.41,14.42a80.71,80.71,0,0,0,7.13,21.28c1.35,2.79,3.1,5.39,4.63,8.1,1.1,1.95,2.15,3.92,3.17,5.92a6.27,6.27,0,0,1,.62,2,3.24,3.24,0,0,1-4,3.71,12.58,12.58,0,0,1-2.95-1,131.67,131.67,0,0,1-18.74-10.63c-8.15-5.77-12.57-13.64-13.84-23.39C270.3,370.85,270.22,367.81,270,364.78Z" transform="translate(-0.48 -0.48)"/><path class="cls-1" d="M57.56,355.49c-3.92-9.74-4.52-19.59-2.85-29.64A13.38,13.38,0,0,1,56,322,3.42,3.42,0,0,1,59.73,320c1.61.22,2.39,1.29,2.92,2.78a96.58,96.58,0,0,0,10.89,22.06c1.41,2.08,1.91,2.24,4.16,1.09,4.2-2.14,8.38-4.33,12.49-6.62a26.3,26.3,0,0,0,3.55-2.82,3.45,3.45,0,0,1,4.4-.35,3,3,0,0,1,1.31,2.69c-.32,4.61-.68,9.22-1,13.84-.2,2.64-1.81,3.95-4.25,4.47a17,17,0,0,0-6.62,2.59c-5.18,3.7-7.3,8.87-7.75,15a41.53,41.53,0,0,0,.8,12.63c.84,3.61-1.88,5.57-5.07,4.68a39.58,39.58,0,0,1-14-6.69c-3.89-3-6-7.21-7.76-11.58a55.53,55.53,0,0,1-2.14-7.33c-.87-3.47.48-6.26,3-8.59C55.51,357,56.51,356.32,57.56,355.49Z" transform="translate(-0.48 -0.48)"/><path class="cls-1" d="M296.47,480.62A29.66,29.66,0,0,1,285,500.78a13.6,13.6,0,0,1-14.7,1.75,51.52,51.52,0,0,1-13.2-8.16c-3.73-3.29-4.26-7.05-2.73-11.47a26.42,26.42,0,0,1,6-9.44,15,15,0,0,0,3.74-7.08c1.41-5.74,3.11-11.4,4.44-17.16.8-3.49,1.11-7.1,1.67-10.65a13.27,13.27,0,0,1,.66-2.8,3.3,3.3,0,0,1,3.08-2.28,3.18,3.18,0,0,1,3.1,1.87c1.65,3.19,3.21,6.43,4.93,9.58,4.75,8.64,8.29,17.82,12.31,26.79a38.88,38.88,0,0,1,1.93,5.91A15.16,15.16,0,0,1,296.47,480.62Z" transform="translate(-0.48 -0.48)"/><path class="cls-1" d="M677.41,338.76c-.2,3.71-.42,7.78-.62,11.84-.23,4.4-6,9.22-11.73,6a6.27,6.27,0,0,1-3-4.92,42.28,42.28,0,0,1-.3-9.54,92.07,92.07,0,0,0-.82-21c-.73-5.32-3.77-9.11-7.85-12.13a52.41,52.41,0,0,1-14.42-16.14,46.31,46.31,0,0,1-6.29-18,20.76,20.76,0,0,1,1.68-11c1.52-3.43,4-4,6.79-1.58a98.82,98.82,0,0,1,19.95,23.15,99.92,99.92,0,0,1,9.42,19.09c1.73,5,3.75,9.85,5.37,14.85a33,33,0,0,1,1.24,7.29C677.12,330.56,677.21,334.48,677.41,338.76Z" transform="translate(-0.48 -0.48)"/><path class="cls-1" d="M246.69,385c-.55.44-.94.71-1.28,1-3.31,3.11-7.2,3.56-11.38,2.36a31.7,31.7,0,0,1-4-1.59,6.29,6.29,0,0,1-3.89-5.84,14.32,14.32,0,0,1,.22-3.33,43.56,43.56,0,0,1,7-17.42c3-4.26,6.11-8.41,9.44-12.38,6.21-7.41,11.4-15.34,14.2-24.73a63.41,63.41,0,0,1,4-9.2,6.64,6.64,0,0,1,2.18-2.47,3.42,3.42,0,0,1,5.35,2,18.46,18.46,0,0,1,.59,4.26,42.71,42.71,0,0,1-5.23,22.59c-1.76,3.14-3.33,6.38-5.13,9.49-2.53,4.37-3,9-2.32,13.91a38.18,38.18,0,0,0,4.82,13.92,40.26,40.26,0,0,1,5.05,14.62,3.71,3.71,0,0,1-3.76,4.49,9.18,9.18,0,0,1-5.24-1.44,30.59,30.59,0,0,1-7.35-6.45C248.93,387.51,247.82,386.27,246.69,385Z" transform="translate(-0.48 -0.48)"/><path class="cls-1" d="M179.43,205.14c.2,10.19-2.67,20.1-7.16,29.58-2.86,6-8.41,7.74-14.44,4.89a19,19,0,0,1-8.66-8c-1.25-2.23-2.53-4.44-3.78-6.67a18.33,18.33,0,0,1-.17-18.74,34.28,34.28,0,0,1,4.4-6.55,16.72,16.72,0,0,0,4-9.79c.15-1.43.3-2.86.57-4.27.57-3,2.33-4.35,5.44-4.08a8.86,8.86,0,0,1,2.12.35,32.17,32.17,0,0,1,12.07,7.59C178,193.63,179.75,198.83,179.43,205.14Z" transform="translate(-0.48 -0.48)"/><path class="cls-1" d="M62.83,197.28c0,1.62.05,3.05,0,4.47-.08,1.59-.25,3.19-.43,4.77a3.12,3.12,0,0,1-2.42,3,23.8,23.8,0,0,1-10.91.35c-2.31-.54-3.27-1.75-3.08-4.11.14-1.82.55-3.62.85-5.43.07-.45.14-.89.26-1.59-1.3.25-2.38.42-3.44.66a25.76,25.76,0,0,1-8.58.34,4.13,4.13,0,0,1-3.87-3.39A27.3,27.3,0,0,1,32,181.89a5.28,5.28,0,0,1,2.57-2.72c4.86-3,10.24-4.41,15.78-5.37a99.78,99.78,0,0,1,33.65.09A31.27,31.27,0,0,1,90.58,176c2.86,1.17,3.48,3,2.12,5.74a38.76,38.76,0,0,1-8,10.7c-2.22,2.12-5.13,2.9-8.09,3.29-3.88.51-7.78.83-11.67,1.25C64.38,197,63.85,197.11,62.83,197.28Z" transform="translate(-0.48 -0.48)"/><path class="cls-1" d="M145.85,170.93c-.48,5-1.14,10-3.13,14.68-.19.44-.38.88-.61,1.3-1.69,3.19-4.57,3.67-7.23,1.2a4.1,4.1,0,0,1-.5-.52c-5.12-6.66-12.45-10.06-19.81-13.38-3-1.35-6.1-2.41-9.14-3.63A20.3,20.3,0,0,0,97,169.07a15.69,15.69,0,0,1-1.68,0,3.17,3.17,0,0,1-3.21-2.36,3.4,3.4,0,0,1,1.55-3.95,15.73,15.73,0,0,1,3.55-1.37c1.46-.4,3-.65,4.46-.91a4.84,4.84,0,0,0,3.63-2.83c.74-1.5,1.67-2.92,2.32-4.46,1.67-4,5-5.87,8.75-7.29a12.58,12.58,0,0,1,8.45-.34,30.89,30.89,0,0,1,9.13,4.14,10.78,10.78,0,0,1,4.42,6.62,10.5,10.5,0,0,0,3.6,6.23C144.46,164.63,146.21,167.35,145.85,170.93Z" transform="translate(-0.48 -0.48)"/><path class="cls-1" d="M97.53,205.54c-2.15,0-4-.08-5.79,0a4.69,4.69,0,0,0-3.08,1.67c-2.61,2.81-5.47,5.41-7.92,8.35-2.93,3.52-6.81,4.84-11,5.62-1.94.36-3.9.66-6.06,1-.05,1.44-.09,2.69-.14,3.94-.13,3.24-1.62,4.92-4.85,5a29.58,29.58,0,0,1-6.16-.45,3.17,3.17,0,0,1-2.71-3.45c0-1.68,0-3.36,0-5a3.39,3.39,0,0,1,2.28-3.1,52,52,0,0,1,12.34-3.78c1.48-.27,3-.61,4.42-.94a2.83,2.83,0,0,0,2-1.82c.91-2,1.93-4,2.83-6.09a4.87,4.87,0,0,1,2.8-2.79c2.15-.84,4.29-1.72,6.48-2.46,3-1,6.06-2.06,9.14-2.9a5.54,5.54,0,0,0,3.59-2.9c1.07-2,2.21-3.89,3.23-5.89a7.37,7.37,0,0,1,5.82-4.06,19.72,19.72,0,0,1,13.14,2.58,51,51,0,0,1,6.73,4.94,4.76,4.76,0,0,1,1.23,2c1.92,5,3.8,10,5.68,15a3.42,3.42,0,0,1-1.22,4.23c-1.43.93-2.89.75-4.39-.51-3.23-2.74-6.48-5.46-9.72-8.18a11,11,0,0,0-1.32-1c-1.26-.75-2.15-.35-2.38,1.12-.27,1.65-.39,3.33-.67,5-.44,2.61-1.68,3.47-4.32,3.32-2.3-.14-4.62-.18-6.93-.14s-3.88-1.36-3.72-3.86c0-.72.18-1.43.29-2.14S97.38,206.48,97.53,205.54Z" transform="translate(-0.48 -0.48)"/><path class="cls-1" d="M71.8,162.32c-9.35,0-18.08-.33-26.61,1.82-3.93,1-7.87,2-11.4,4.2a3.86,3.86,0,0,1-4.86-.54c-1.31-1.39-1.32-3.05.11-5,7.56-10.35,17.44-17.23,30.12-19.72a12.36,12.36,0,0,0,6.45-3.31A20.7,20.7,0,0,1,81.35,134a7,7,0,0,1,5.54,2.86A33.67,33.67,0,0,1,90,141.44a6.14,6.14,0,0,0,3.09,2.84,23.37,23.37,0,0,1,2.35,1.17c2.64,1.62,3.13,4.08,1.16,6.46-2.57,3.09-5.5,5.58-9.93,5.27a9.89,9.89,0,0,0-8.16,3.28A7,7,0,0,1,71.8,162.32Z" transform="translate(-0.48 -0.48)"/><path class="cls-1" d="M614.52,408.91a20.1,20.1,0,0,1,2.25-9.79A48.78,48.78,0,0,1,626,386.35a27.13,27.13,0,0,1,7.43-5.18,10.74,10.74,0,0,0,5.19-5.11c1.29-2.66,2.46-5.37,3.68-8.05.63-1.38,1.13-2.83,1.88-4.14a8.52,8.52,0,0,1,10.36-3.63,7.17,7.17,0,0,1,4.78,7.25,23,23,0,0,1-2.63,8.9c-1.06,2.15-2.26,4.23-3.21,6.43-2.51,5.82-6.41,10.64-10.8,15.08a92.69,92.69,0,0,1-17.34,14.31,33.47,33.47,0,0,1-4.16,2.34,8,8,0,0,1-3.24.6,3.08,3.08,0,0,1-3.15-3C614.63,411,614.59,409.78,614.52,408.91Z" transform="translate(-0.48 -0.48)"/><path class="cls-1" d="M163.14,336.4a27.61,27.61,0,0,1-2.08,3.92c-1,1.31-2.69,1.47-4.36.61-2-1-3.93-2.15-5.85-3.29a3.42,3.42,0,0,0-3.17-.24c-3,1.09-6.05,2-9.08,3-2.63.87-3.95.28-5.19-2.23a34,34,0,0,0-16.1-15.8,18.29,18.29,0,0,0-4.59-1.29c-3.27-.59-4.45-2.49-3.08-5.43,1.54-3.33,3.18-6.62,4.86-9.88,1-1.93,2.68-2.61,4.61-1.65,4.54,2.25,9.43,2.92,14.34,3.48a6.46,6.46,0,0,1,6,4.76c1.38,4.5,4.31,8,7.31,11.39a8.86,8.86,0,0,0,2.1,1.57q5.76,3.42,11.56,6.79A5.25,5.25,0,0,1,163.14,336.4Z" transform="translate(-0.48 -0.48)"/><path class="cls-1" d="M84.3,233.05a28.09,28.09,0,0,0,.25,3,4,4,0,0,1-1.71,4.4c-2.36,1.7-4.85,3-7.92,2.89a5,5,0,0,1-5-4.24c-.34-2-.59-4-.86-5.93a3.57,3.57,0,0,1,2.11-3.92q8.32-4.26,16.63-8.53a7.47,7.47,0,0,1,6.69-.06c2.57,1.09,5.26,1.91,7.78,3.11a7.8,7.8,0,0,0,6.86.24,10.4,10.4,0,0,1,4-.72c2.45,0,3.62,1.34,3.64,3.77,0,1.28-.06,2.56,0,3.83.1,1.77.74,2.34,2.41,2s3.26-.78,4.89-1.17a2.07,2.07,0,0,0,1.73-2.24c0-.8,0-1.6,0-2.39a3.26,3.26,0,0,1,4.12-3.16,17,17,0,0,1,4.09,1.3c2.6,1.3,2.84,3.93,1.38,5.58-1.89,2.15-3.56,4.53-5.59,6.55a20.67,20.67,0,0,1-4.42,2.82c-5.85,3.39-5.83,3.3-12.28,1.29-8.69-2.71-17.41-5.3-26.12-7.93C86.24,233.36,85.45,233.27,84.3,233.05Z" transform="translate(-0.48 -0.48)"/><path d="M228,205c-2.61-.65-5.26-1.19-7.84-2a7.12,7.12,0,0,1-4.5-4c-.79-1.77-.33-3,1.51-3.59,3.17-1,7.6-1.2,10.2,2.4.79,1.1,1.78,2,2.64,3.09a7.75,7.75,0,0,1,1.15,1.8c.51,1.19.13,1.78-1.17,2a5.65,5.65,0,0,1-.71,0c-.4,0-.8,0-1.2,0Z" transform="translate(-0.48 -0.48)"/></svg>