<svg id="Layer_1" data-name="Layer 1" xmlns="http://www.w3.org/2000/svg" viewBox="0 0 720 612"><defs><style>.cls-1{fill:none;stroke:#000;stroke-miterlimit:10;stroke-width:0.01px;}</style></defs><path d="M.48,612.48V.48h720v612ZM628.54,278.1a10.18,10.18,0,0,0,5.25-1.56,23.25,23.25,0,0,0,9.06-9.66,16.9,16.9,0,0,1,1.84-3.06c2.54-3.19,2.89-6.51.68-10a18.08,18.08,0,0,1-2.65-10.28,51.67,51.67,0,0,0-3.06-17.14,15.23,15.23,0,0,0-9.47-10.08c-4.7-1.77-9.29-3.86-14-5.66a20.18,20.18,0,0,0-9.4-1.44,23,23,0,0,0-9.38,2.63,7.48,7.48,0,0,1-8.75-.69,33.16,33.16,0,0,1-4.42-4,56.57,56.57,0,0,1-4.4-5.37c-4.6-6.42-10.82-10.79-17.78-14.23A42.64,42.64,0,0,0,557,185.4c-2.81-.94-5.23.09-6.18,2.86a13.39,13.39,0,0,0-.79,5.38c.46,5.08,1.15,10.15,1.93,15.2a16.84,16.84,0,0,0,1.64,4.47c2.74,5.8,7.6,9.18,13.44,11.19,4.91,1.68,10,2.93,14.91,4.51a23.36,23.36,0,0,1,14.33,13c2.11,4.47,3.82,9.14,5.71,13.71,2.19,5.29,4.91,10.27,9,14.34C615.63,274.65,621,278,628.54,278.1ZM352.68,404.65c4.32-.39,9.95-.94,15.6-1.37a5.25,5.25,0,0,0,3.89-2c6.87-8.46,9.8-17.65,5.45-28.28a14.13,14.13,0,0,0-7.08-7.48,34.53,34.53,0,0,0-8.42-2.65,53.38,53.38,0,0,0-19.07.29,4.34,4.34,0,0,1-4.91-2,87.64,87.64,0,0,0-13-15.3c-2.85-2.67-5.61-5.44-8.48-8.09a17.12,17.12,0,0,0-3.31-2.35,3.39,3.39,0,0,0-4.48,1,45.22,45.22,0,0,0-7.33,13.92,15,15,0,0,0-.38,8.52,44.77,44.77,0,0,0,5.41,13,30.27,30.27,0,0,1,2.29,3.93c2.75,6.17,6.72,11.61,10.41,17.2a47.63,47.63,0,0,0,5.86,6.62,6.92,6.92,0,0,0,2.82,1.75,49.7,49.7,0,0,0,8.56,2.16C341.41,404.12,346.37,404.25,352.68,404.65ZM284.1,263.57a85,85,0,0,0-18.27,1.91,15.43,15.43,0,0,0-3.8,1.38c-2.07,1.11-2.51,3.07-1.32,5.08.29.48.65.91.89,1.41,2.51,5,5.38,9.81,9.55,13.68a13.71,13.71,0,0,1,1.38,1.65A26.94,26.94,0,0,0,288.45,299c1.64.36,3.29.65,4.93,1,3.21.68,6.33,1.39,8.76,4a19.42,19.42,0,0,1,4.14,6.65A44.54,44.54,0,0,0,311,320.6a12.44,12.44,0,0,0,6,4.95,15.13,15.13,0,0,0,17.59-5.7c4.69-6.91,6-14.37,3.44-22.37-.77-2.43-1.92-4.73-2.73-7.16a10.61,10.61,0,0,1-.7-4.17c.39-4,1.33-7.85,3.91-11.15a16.48,16.48,0,0,0,2.32-4.16,4.46,4.46,0,0,0-4.16-5.83c-2.95.1-5.9.35-8.85.63-6.85.65-13.7,1.08-20.55-.06A134.27,134.27,0,0,0,284.1,263.57Zm113.82,52.64a25.84,25.84,0,0,0-3-12.39,15,15,0,0,0-6.75-6.26c-3.29-1.6-6.56-.84-9.73.48a31.23,31.23,0,0,0-10.89,8.1c-2.74,3-5.08,6.37-7.72,9.47-1.86,2.18-3.79,4.29-6.57,5.46s-5.51,2.54-8.17,4a14.79,14.79,0,0,0-5.88,5.49c-2.6,4.42-3.3,9.09-1,13.74a16.54,16.54,0,0,0,12.5,9.47A39.43,39.43,0,0,0,370,351.91a3.14,3.14,0,0,1,3.63.76,72.47,72.47,0,0,0,11.92,8.82c3.49,2.21,7.23,3.66,11.33,2.4a17.7,17.7,0,0,0,10.16-7.6,32.78,32.78,0,0,0,3.7-9.78c1.06-4.81-1.2-8.69-4.73-11.87-1.9-1.72-3.88-3.35-5.7-5.14-2.57-2.52-4.31-5.32-3-9.21A19.31,19.31,0,0,0,397.92,316.21Zm-241.21-2.88a3.32,3.32,0,0,1,1.48.63,8.9,8.9,0,0,1,2.73,5.18,79.58,79.58,0,0,1-.32,19.14c-.76,5.74-2,11.3-5.18,16.3a3.82,3.82,0,0,0,.51,4.47,3.2,3.2,0,0,0,4.16.61,26.72,26.72,0,0,0,5.6-4,62,62,0,0,0,17-31.07c1.55-6.93,2.06-14.05,3.9-20.95a33.92,33.92,0,0,1,3.44-8.36c1.51-2.62,3.28-5.09,4.94-7.63a3.19,3.19,0,0,0,.46-3.17c-1.29-3-2.85-5.86-5.67-7.84a28.33,28.33,0,0,0-9.21-4.47c-4.74-1.22-9.53-1-14.3-.45-6.12.68-12,2.21-16.8,6.33-3.74,3.22-7.13,6.85-10.64,10.33a8,8,0,0,0-2.11,6.18c0,1.27.14,2.55.23,3.83s.28,2.7.27,4.06a34.73,34.73,0,0,1-6.32,19.73,11.14,11.14,0,0,0-1,1.91c-.82,2-.55,3.65.74,4.86a3.93,3.93,0,0,0,4.89.44,22.77,22.77,0,0,0,4.52-3.1c3.21-3,6.22-6.21,9.37-9.27C151.36,315.15,153.4,313.48,156.71,313.33Zm73.64,7.7v.07c2.16,0,4.32.06,6.48,0a18.81,18.81,0,0,0,9.18-2.46c7-4.2,13-9.25,15.75-17.38a12,12,0,0,0,.11-8.61,35.52,35.52,0,0,0-14.45-18,14,14,0,0,0-11.7-1.8,77.13,77.13,0,0,0-20.19,9.2,37.72,37.72,0,0,0-12.08,12.16c-2.14,3.47-4.29,7-6.08,10.6a78.73,78.73,0,0,0-6.84,21.89,45.44,45.44,0,0,0-.83,11.21c.11,1.4.3,3.08,1.12,4.07a8.76,8.76,0,0,0,8.94,3.32c4.06-.93,6.52-3.75,7.89-7.39a24.84,24.84,0,0,1,4-7.05c2.26-2.78,4.74-5.39,7.23-8a6.18,6.18,0,0,1,4.78-1.86C225.88,321.07,228.12,321,230.35,321Zm174.88,84c3.67-.2,7.43-.27,11.16-.64,7.55-.76,15.06-1.93,22.62-2.48,10.92-.79,21.45-3.32,31.85-6.5a14,14,0,0,0,4-2.15,5,5,0,0,0,2.39-4.2,30.06,30.06,0,0,0-1.78-11c-1.05-2.76-2.28-5.47-3.08-8.3a27.16,27.16,0,0,0-6.74-11.42,11.63,11.63,0,0,0-3.23-2.43c-4.74-2.36-9.49-2.9-13.95.66a23.89,23.89,0,0,0-6.78,8c-1.2,2.43-2.37,4.9-3.8,7.19a18.4,18.4,0,0,1-3.61,4.12c-2,1.69-4,1.32-5.59-.7-.9-1.12-1.76-2.29-2.76-3.32a12.67,12.67,0,0,0-14.69-3.11,25.86,25.86,0,0,0-8.89,6c-6.62,6.76-10.77,15-14,23.78a4.86,4.86,0,0,0-.22,2.11c.28,2.17,1.53,3.41,4.07,3.64C396.52,404.52,400.83,404.71,405.23,405Zm1.24-111a55.54,55.54,0,0,0,5.93-.76c5-1.18,9.29-3.64,11.58-8.48,2.18-4.61,4.17-9.33,6-14.08s0-8-4.9-9.2a16.74,16.74,0,0,0-3.09-.26c-.48,0-1,.13-1.44.1a2.37,2.37,0,0,1-2.53-2.78,15.81,15.81,0,0,1,.4-2.35c.32-1.49.74-2.95,1-4.45.52-3.56-1.29-6-4.68-6.1a8.23,8.23,0,0,0-3.47.76c-5.7,2.52-11.31,5.23-17,7.71a94.76,94.76,0,0,1-16.52,5.67c-6.38,1.46-12.72,3.15-19,4.82a8.73,8.73,0,0,0-3.46,1.56c-3.31,2.91-6.27,6.14-7.9,10.38-2.56,6.64-2.44,12.95,2,18.83,3.34,4.37,7.75,5.94,13.09,5.18a7.58,7.58,0,0,0,4.88-2.77c2.84-3.36,5.75-6.66,8.66-9.95,2-2.22,6.67-2.92,9.32-1.56,3.54,1.82,7.11,3.6,10.72,5.3A26.27,26.27,0,0,0,406.47,294Zm111.28.45a44.52,44.52,0,0,0-.67-6.14A5.59,5.59,0,0,0,512.7,284c-2.14-.55-3.72.36-5.34,1.38-1.28.81-2.47,1.77-3.77,2.54a4,4,0,0,1-3.9.18,13.32,13.32,0,0,0-3.67-1c-8.72-1-18.21,4.08-22.08,11.91-1.32,2.67-1.67,5.53-.14,8.28a18.39,18.39,0,0,0,2.93,4.34,5.71,5.71,0,0,1,1.32,7,60.21,60.21,0,0,1-3.94,7.92,48.79,48.79,0,0,0-4.14,8.35,19.81,19.81,0,0,0-.29,13.16,44.35,44.35,0,0,0,7.1,13.24,47.61,47.61,0,0,1,3,4.36c2.5,4.31,4.69,4.28,7.54.29,4.28-6,8.93-11.6,16.42-14,6-1.94,6.91-8,5.4-11.87-.8-2.08-1.93-4-2.88-6s-1.88-3.71-2.59-5.65a8.23,8.23,0,0,1,1.6-8.52c1.32-1.61,2.71-3.16,3.95-4.82a82.84,82.84,0,0,0,4.81-6.86A25.74,25.74,0,0,0,517.75,294.41Zm-268,71.44a16.92,16.92,0,0,0-2.41-9.77c-1.59-2.82-3.61-5.26-5.41-7.88a51,51,0,0,0-10.06-10.54,20.41,20.41,0,0,0-2.57-1.75c-5.62-3.27-11.1-1.75-14.18,4-1,1.82-1.69,3.79-2.56,5.68a22.19,22.19,0,0,1-6.41,8.53,5.81,5.81,0,0,1-5.82,1.08,53,53,0,0,0-6.73-1.7c-3.17-.65-5.4.83-5.86,4a19.18,19.18,0,0,0-.11,5.95c1.11,6.12,2.48,12.19,3.76,18.28.31,1.48.63,3,1.05,4.43,1.24,4.36,4.71,6.08,8.9,4.43a19.48,19.48,0,0,0,2.17-1,13.7,13.7,0,0,1,11.09-1.15,55,55,0,0,0,8,1.69,26.43,26.43,0,0,0,5.48.25c3.61-.2,6.79-1.81,9.78-3.65C245.41,382.08,250.26,375.77,249.78,365.85Zm-187.91-18a9.18,9.18,0,0,1-5.1,1.7,3.38,3.38,0,0,0-3.39,2.53,3.88,3.88,0,0,0,1.69,4.17,6.1,6.1,0,0,0,1.48.76c2.28.72,4.55,1.51,6.87,2A19.74,19.74,0,0,0,75,358.28c2-.76,4-1.71,6-2.45a25.46,25.46,0,0,0,10.57-7.6c1.46-1.7,2.94-3.38,4.46-5,3.25-3.52,6.83-6.5,11.91-6.89a5.2,5.2,0,0,0,.92-.24c5.79-1.47,10.34-4.52,13-10.05.34-.72.85-1.37,1.13-2.11,1.27-3.27,2.86-6.46,3.61-9.85.91-4.11,1.1-8.38,1.6-12.59a3.58,3.58,0,0,0-5.89-3.52c-1,.74-2,1.59-3,2.43-.6.52-1.06,1.21-1.7,1.68-5.84,4.31-11.46,9-18.08,12.14a14.94,14.94,0,0,1-3.1,1.23c-10.54,2.39-21.09,3.58-31.73.49a4,4,0,0,0-5.13,4.87c1.27,5.3,4.2,9.27,9.66,10.92l2.79.82a4.89,4.89,0,0,1-3.38,1.55,62.68,62.68,0,0,1-15.3.5c-3.56-.22-6.93-.92-9.83-3.26a3.3,3.3,0,0,0-4.77.19,3.79,3.79,0,0,0-.8,5.17,18.44,18.44,0,0,0,9.34,7.9,54,54,0,0,0,6.65,2C56.38,347.13,58.9,347.41,61.87,347.89Zm373.5-149.07c-1.08,2.85-2.39,5-5,6-.89.37-1.76.77-2.61,1.22a25.83,25.83,0,0,1-17.62,2.79c-5.11-1-10,.08-14.68,2.23-3,1.37-6,2.6-9.05,3.85a14,14,0,0,1-6.56,1.13c-2-.16-4-.4-5.95-.59-2.71-.27-4.59,1.83-3.85,4.3a3.31,3.31,0,0,0,3,2.43c3.73.43,7.46.83,11.2,1.11a23.78,23.78,0,0,0,9.67-1.38c2.27-.78,4.57-1.47,6.79-2.38a15.49,15.49,0,0,1,10.53-.48,25.18,25.18,0,0,0,12.35.21,60.25,60.25,0,0,0,17.16-6.58,23,23,0,0,0,8.85-8.89,5.93,5.93,0,0,0,.61-4.76c-1.25-5.11-.78-7.84,3.69-11.11a57,57,0,0,1,7.09-4c1.27-.67,2.64-1.15,3.89-1.86a4.66,4.66,0,0,0,1.69-1.61q2.75-4.77,5.35-9.62a4.63,4.63,0,0,0-2.34-6.55,39.31,39.31,0,0,0-8.66-2.68c-4.31-.89-8.65-1.73-12.54-3.91-2.72-1.52-5.4-3.11-8.08-4.69a3.48,3.48,0,0,0-4.82,4.84,10.5,10.5,0,0,0,1.85,1.86c1,.88,2,1.71,3.27,2.76a5.14,5.14,0,0,1-1.1.14c-3.75-.76-7.54-1.34-10.9-3.42a3.68,3.68,0,0,0-5.11,1,3.46,3.46,0,0,0,.89,4.71l10.81,9.1a7,7,0,0,1,.76,1c-.68.06-1.07.12-1.46.14-6,.36-12,.7-17.94,1.07a3.42,3.42,0,0,0-3.33,2.6,3.39,3.39,0,0,0,1.93,4,8,8,0,0,0,1.31.57c3.21,1,6.42,1.93,9.64,2.85,1,.28,2,.44,2.94.66a47.59,47.59,0,0,1-7.68,1.57,26.57,26.57,0,0,1-3.08.32c-2.15.06-3.43.82-3.93,2.45a3.93,3.93,0,0,0,1.63,4.41,11.14,11.14,0,0,0,5.55,2.09,46.88,46.88,0,0,0,10.25.64A18,18,0,0,1,435.37,198.82ZM258.28,378.46h0c0,1.36,0,2.72,0,4.07a4.51,4.51,0,0,1-2.6,4.5,35.19,35.19,0,0,1-5.23,2.3,15.1,15.1,0,0,0-9.22,7.14,18.68,18.68,0,0,0-2.25,9.91c.17,5.68,3.44,9,9.13,9.32a16.85,16.85,0,0,0,8.58-1.81c2.22-1.1,4.41-2.27,6.51-3.57a6.27,6.27,0,0,1,5.73-.5,18.45,18.45,0,0,1,5.56,3.68,33.78,33.78,0,0,0,5.59,4,5.18,5.18,0,0,0,7.05-1.52,13.65,13.65,0,0,0,1.51-3.23c.35-.88.5-1.85.89-2.72a31.8,31.8,0,0,0,2.31-8.78,15.6,15.6,0,0,1,.53-2.82c1-2.91,2.71-3.52,5.19-1.83a10.58,10.58,0,0,0,4.56,2c2.21.29,5-.88,5.34-2.68s.5-3.84-.18-5.37c-2.5-5.62-5.32-11.1-8.16-16.55a12.93,12.93,0,0,0-5.92-6.08A37.54,37.54,0,0,0,289,366.4c-3.49-1.11-7-2-10.27-3.87a14.06,14.06,0,0,0-5.24-1.53c-7.44-.88-16.25,8.74-15.19,14.82A15.5,15.5,0,0,1,258.28,378.46Zm-29.41,35.86h.19c0-1.84.1-3.68,0-5.51-.44-7.21-5.65-11.17-11.45-11.84A18.36,18.36,0,0,0,203.94,401a5.68,5.68,0,0,0-2.27,4.57,31.76,31.76,0,0,0,6.05,18.85,19.85,19.85,0,0,1,2.15,4c1.33,3.24.77,5.82-1.89,8.14-3.64,3.17-2.86,6.67-.64,9.24,3.4,3.92,6.77,7.87,10.28,11.68a9.82,9.82,0,0,0,7.42,3.34,22.17,22.17,0,0,0,8.37-1.8c7.63-3.09,15.2-6.24,21.68-11.55,2.76-2.26,6-3.9,9-5.89s5.87-3.87,8.68-6c3.43-2.59,3.64-6.24,1.61-9.57a24.71,24.71,0,0,0-3-3.75c-3.34-3.65-7.75-4.36-11.87-1.63a45.82,45.82,0,0,0-7.46,6,10.49,10.49,0,0,1-6.89,3.41,40.65,40.65,0,0,1-7.15-.1,9.19,9.19,0,0,1-7.8-5.61,15.68,15.68,0,0,1-1.34-4.52A43.85,43.85,0,0,1,228.87,414.32Zm303-271.7c-.48,1.06-.9,1.83-1.18,2.64-.63,1.81-1.28,3.61-1.75,5.45-.76,3,1.51,5.23,5.22,4.22a6.12,6.12,0,0,0,2.06-1.56c3.91-3.51,8.14-6.43,13.4-7.54,1.64-.35,3.31-.66,4.9-1.17,3.25-1,4.24-3.18,3-6.28-1.49-3.74-1.61-7.63-1.39-11.57.29-5.1,2-9.83,3.71-14.58.43-1.2.84-2.41,1.18-3.64a4.4,4.4,0,0,0-.83-4,23.12,23.12,0,0,1-3.93-9.18c-.19-.86-.33-1.73-.54-2.58-.52-2-2.05-3.17-3.79-2.91-1.9.28-3,1.9-2.81,4a13.67,13.67,0,0,0,.31,1.65l1,4.53c-.49,0-.79,0-1.08-.11-4.28-1-8.56-1.94-12.84-2.94-2.09-.49-3.7.16-4.39,1.86s-.08,3.13,1.64,4.28c.4.27.85.47,1.22.77,1.3,1,2.57,2,3.9,3.09-.34.27-.4.36-.45.35-7.48-1.1-14.72-2.86-20.79-7.77a3.35,3.35,0,0,0-5.37,1.24,4.85,4.85,0,0,0,1.94,5.64c.88.55,1.84.95,2.76,1.43,1.63.84,3.27,1.67,4.87,2.56a6.6,6.6,0,0,1,1.18,1.19c-3.68-.24-7-.4-10.36-.7-8.23-.75-15-4.09-19.69-11.17-1.4-2.13-2.89-4.21-4.39-6.28a8.74,8.74,0,0,0-1.79-1.9,3.31,3.31,0,0,0-3.82,0,3.25,3.25,0,0,0-1.2,3.82,31.41,31.41,0,0,0,7.63,12.59,60.4,60.4,0,0,0,13.38,10.06,19.5,19.5,0,0,1,7.55,7.14c.76,1.22,1.4,2.51,2.14,3.74,2.52,4.21,5.21,8.29,9.77,10.59A23.27,23.27,0,0,0,531.84,142.62Zm-110,208.45c-.19,1.64.81,3.58,2.59,5.31,3.34,3.25,7.14,3.44,10.63.38.54-.48,1.07-1,1.56-1.5,3.47-3.75,6.93-7.52,10.41-11.27a32.7,32.7,0,0,1,3.36-3.4c4.18-3.35,8.44-6.59,12.65-9.89a39.58,39.58,0,0,0,3.27-2.8,7.46,7.46,0,0,0,2.26-5.36,12.52,12.52,0,0,0-2.68-7.77A21.76,21.76,0,0,0,454,306.35a3.87,3.87,0,0,1-3.23-3.25,21.52,21.52,0,0,0-5-9.42c-2.93-3.47-6.64-4.48-11-3.43a20.61,20.61,0,0,0-8.16,4.38,63.45,63.45,0,0,0-11.76,12.89,20,20,0,0,0-3.22,7.68,11.32,11.32,0,0,0,1.15,7.65,20.75,20.75,0,0,0,6.37,7,17,17,0,0,1,4.66,5.36,5.38,5.38,0,0,1,.36,5.45C422.68,343.7,422.1,346.91,421.86,351.07ZM608.43,200.19c5.34-.24,10.34.74,14.75,4a10.05,10.05,0,0,0,1.66.95c4.39,2,8.66.28,9.94-4.23a14.65,14.65,0,0,0,.45-5.67,42.7,42.7,0,0,0-1.77-7.43,4.77,4.77,0,0,1,.54-4.32c1-1.47,1.92-2.95,2.94-4.38a6.19,6.19,0,0,0,1.15-4.54,29.12,29.12,0,0,0-1.7-6.44,57.31,57.31,0,0,0-3.24-6.15c-2-3.65-3.79-4.09-7.32-1.8a21.54,21.54,0,0,0-1.72,1.3c-1.35,1.12-2.75,2.21-4,3.4a4.85,4.85,0,0,1-3.45,1.4c-6.71,0-13.42.06-20.13,0a50.21,50.21,0,0,1-16.87-3.19c-1.2-.43-2.46-.71-3.7-1a3.59,3.59,0,0,0-4.67,2.2,20.66,20.66,0,0,0-1,3.18c-.91,3.63-.48,7.33-.35,11a5.11,5.11,0,0,0,1.49,2.86,49.78,49.78,0,0,0,8.67,7.84c4,2.75,7.76,5.9,11.71,8.75a13.33,13.33,0,0,0,8.29,2.68C602.85,200.49,605.64,200.32,608.43,200.19Zm-53,128.56a45.2,45.2,0,0,0-3.18-17.09c-1.8-4.87-3.9-9.63-5.92-14.41-2.23-5.3-4.49-10.6-6.83-15.85a8.78,8.78,0,0,0-2.11-2.84,3.18,3.18,0,0,0-4-.29c-6.23,3.71-11.6,13.23-8.33,21.3a54.59,54.59,0,0,1,2,6.4c1,3.82.47,7.21-2.58,10.08A27.82,27.82,0,0,0,517,327.92a17,17,0,0,0-.57,10.15c2.2,7.35,6.69,12.89,13.88,15.83a18.77,18.77,0,0,0,6.31,1,30.17,30.17,0,0,0,5.47-.67,12.72,12.72,0,0,0,7-3.49c4.31-4.1,6.82-9,6.71-15.09C555.75,333,555.52,330.27,555.44,328.75Zm36,118.27a55.41,55.41,0,0,0-1.29,6.92c-.26,4.34,1.1,8,5.09,10.37,1.93,1.14,3.76,2.44,5.68,3.58,1.77,1.07,16.21,6.07,18.23,6.51a3.48,3.48,0,0,0,3.5-1,11.18,11.18,0,0,0,3-9,15.84,15.84,0,0,1-.18-3.56,5.6,5.6,0,0,0-2.22-5.27c-2.67-2.26-5.49-4.36-8.22-6.55-2.31-1.85-4.75-3.62-5.92-6.48a43.43,43.43,0,0,1-3-10.57c-.84-6.33-1-12.75-2.82-18.93-1.33-4.5-2.26-9-4.75-13.22a28.12,28.12,0,0,0-9.77-10c-3.28-2-6.7-3.73-10.11-5.49a8.25,8.25,0,0,0-8,.08c-4.86,2.58-7.07,6.95-8.08,12.09a3.37,3.37,0,0,0,1.89,3.79,23.32,23.32,0,0,1,3.09,1.84c4.89,3.91,10.48,6.71,15.77,10,2.3,1.43,4.56,2.95,6.72,4.59a4.16,4.16,0,0,1,1.4,2.34,15.65,15.65,0,0,1,.41,4.76c-.56,5.23-1.12,10.49-2.08,15.66C589.23,442.5,589.29,445,591.49,447ZM514.91,262.6H515c0,1-.06,1.92,0,2.88.3,4.8,3.28,7.72,8.08,7.53a42.3,42.3,0,0,0,7.52-1.31,6.92,6.92,0,0,0,5.07-4.35c1.17-2.88,2.33-5.77,3.25-8.74,2.8-9,5.36-18.06,8.24-27,1.87-5.81,2-11.42-.53-17a4,4,0,0,0-3.24-2.49,5.28,5.28,0,0,0-4.73,1.78c-3.66,3.44-7.95,4.13-12.68,3a13.42,13.42,0,0,0-2.59-.4c-3.35-.09-6.7-.07-10-.17a21.37,21.37,0,0,0-11.4,3.12,8.8,8.8,0,0,0-4.73,8.06,18.84,18.84,0,0,0,7.62,15.78,70,70,0,0,0,6.71,4.62,7.38,7.38,0,0,1,4,7.55c-.07.8-.09,1.6-.16,2.39C515.2,259.42,515.05,261,514.91,262.6ZM494.38,138.8c-2.25.92-4.1,1.61-5.89,2.44-5.7,2.63-11.67,3.13-17.82,2.45a45.66,45.66,0,0,1-18.86-6.54,7.13,7.13,0,0,0-1-.59,3.51,3.51,0,0,0-3.95.89,3.3,3.3,0,0,0-.47,4,7.16,7.16,0,0,0,1.61,2.07c2.58,2,5,4.3,7.92,5.75,8.73,4.37,17.65,8.33,27.53,9.32,2.53.26,3,1.27,2.21,3.8a4.51,4.51,0,0,1-.49,1.1c-1.84,3.07-3.57,6.23-6.33,8.65a3.29,3.29,0,0,0-1,3.9,3.45,3.45,0,0,0,3.74,2,14.85,14.85,0,0,0,7.34-2.65c1.55-1.12,3.05-2.33,4.64-3.39s3.13-1.84,4.59-2.7c2.33,1.93,3.33,3.61,4.44,7.25a4,4,0,0,0,6.46,2.15,9.53,9.53,0,0,0,1.61-1.43,44.35,44.35,0,0,0,10.48-22c.74-4.68.15-5.09-3.49-6.69a4.8,4.8,0,0,0-.65-.3c-2.52-.85-3.78-2.7-4.43-5.21a15.29,15.29,0,0,0-3.83-6.83A38.68,38.68,0,0,0,496,127.32a68.22,68.22,0,0,0-22.41-5.74,11.68,11.68,0,0,0-3.78.26,3.22,3.22,0,0,0-2.46,3.19,3.16,3.16,0,0,0,2.27,3.3,39,39,0,0,0,4.11,1.26c3.17.84,6.36,1.59,9.52,2.43A24.65,24.65,0,0,1,494.38,138.8ZM451.76,265.35v-.14c-.8,0-1.6,0-2.4,0-3.79,0-7.31.74-10.16,3.45a7,7,0,0,0-2.29,6.94,9.49,9.49,0,0,0,2.89,4.87c3.15,3,7,3.75,11.1,3.29a3.81,3.81,0,0,1,4.36,2.51,36.82,36.82,0,0,0,3,5.42,6.18,6.18,0,0,0,8.22,2.18,14.54,14.54,0,0,0,4.11-3.53c2.3-3.06,4.39-6.29,6.42-9.55a7.15,7.15,0,0,1,7.48-3.6c2.39.26,4.77.58,7.16.75,3.36.23,6.72.29,9.91-1.11a8.62,8.62,0,0,0,5.49-7.51A12.94,12.94,0,0,0,503.44,259c-2.22-2.5-4.54-4.94-5.5-8.28a3.36,3.36,0,0,0-.2-.43c-6.17-11.78-20.73-11.58-26.88-1.41-1.28,2.12-2.49,4.29-3.89,6.33-1.81,2.63-3.69,5.23-5.7,7.7a6.71,6.71,0,0,1-6.16,2.57C454,265.39,452.88,265.4,451.76,265.35ZM606.43,380.17c1.74-.15,3.82-.22,5.87-.54,4.17-.64,8.45-.46,12.54-1.8a8.46,8.46,0,0,0,5.95-6c.45-1.53,1.05-3,1.62-4.49,1-2.6.39-7.35-2.79-9.43a15,15,0,0,0-6.75-2.23c-6.27-.74-12.55-1.34-18.83-2-7.39-.74-14.82-1.14-22.08-2.87-5.9-1.4-11.82-2.73-17.69-4.25a5.83,5.83,0,0,0-7,3.66q-1.41,3.94-3,7.82c-.93,2.24-.44,4.13,1.71,5.3,2.87,1.56,5.79,3.06,8.74,4.46,3.75,1.78,7.58,3.38,11.35,5.13A78.79,78.79,0,0,0,606.43,380.17ZM546,398.37l0-.33.48,0c4.64.34,5.28-.14,6.92-4.34,1.8-4.6,3.31-9.35,7.77-12.34,1.59-1.07,1.46-3.61,0-4.87a6.43,6.43,0,0,0-2.88-1.61,23.83,23.83,0,0,1-6-2.31c-2.24-1-4.5-2.07-6.79-3-8-3.26-16.51-4.89-24.94-6.72a31.59,31.59,0,0,0-9.05-.46c-7.23.53-12.81,4.11-17.34,9.52a6.42,6.42,0,0,0-1.28,3c-.52,3.2.89,5.56,3.58,7.23q2.94,1.85,5.9,3.66c5.34,3.26,10.85,6.13,17,7.55,3,.7,6.08,1.37,9.14,1.94C534.34,396.37,540.16,397.35,546,398.37ZM186.21,493.46c4.81-.41,8.79-3.52,7.91-9.22a56.57,56.57,0,0,0-1.16-5.62c-.7-2.66-.28-4,2.28-4.89a88.72,88.72,0,0,1,9.85-3,14.94,14.94,0,0,0,4.19-1.59c1.81-1.07,2.49-2.47,1.76-4.43a20.2,20.2,0,0,0-2.5-4.87c-2.26-3.09-4.83-6-7.08-9.05a15.15,15.15,0,0,0-5.72-4.58,5.83,5.83,0,0,0-5.07-.37c-1.84.75-3.72,1.44-5.62,2a59.73,59.73,0,0,1-6.65,1.87c-5.72,1.11-10.79,3.39-14.87,7.64-1.9,2-3.13,4.33-2.8,7.12a34.44,34.44,0,0,0,1.38,5.8A99.59,99.59,0,0,0,168,486c1.57,3.24,3.53,4.66,7.09,4.05a8,8,0,0,1,5.87,1.46C182.45,492.51,184.43,492.84,186.21,493.46Zm38.72,58.06v.41c3.11-.13,6.22-.21,9.33-.42a9.76,9.76,0,0,0,3-.73c2.26-.95,3.45-3,2.69-5-2.21-5.77-5.87-10.09-12.31-11.18-1.88-.32-3.82-.25-5.72-.39-1.43-.11-2.85-.3-4.27-.41a2.36,2.36,0,0,1-2.22-1.81c-1.86-4.93-3.69-9.88-5.77-14.72-1.72-4-3.64-8-5.74-11.84-1.89-3.44-5.16-4.67-9-3.78a16.77,16.77,0,0,0-2.95,1,4,4,0,0,1-4.08-.3c-1.42-.89-2.94-1.63-4.39-2.46a5.85,5.85,0,0,0-5.31-.15,3.67,3.67,0,0,0-2.21,5.05c.81,2.08,1.64,4.16,2.43,6.25q2.75,7.27,5.47,14.56a10.78,10.78,0,0,1,.47,1.35,10.07,10.07,0,0,0,4.61,6.19c2.43,1.52,5,2.79,7.54,4.16.91.49,1.85.93,2.75,1.45,2.43,1.41,3.85,3.75,5.48,5.92,1.5,2,2.56,4.55,5.27,5.3a40.77,40.77,0,0,0,6.76,1.46C219.48,551.71,222.22,551.52,224.93,551.52Zm45.12-226.31c-.74-.35-1.32-.59-1.85-.89s-1.19-.82-1.83-1.14A15.6,15.6,0,0,0,247.11,328c-3.35,4.52-2.83,9.32.65,13a24.89,24.89,0,0,0,8.91,6.35,147.37,147.37,0,0,0,19.69,6.72,16.45,16.45,0,0,0,3.56.45,3.78,3.78,0,0,0,3.62-2.27c1.24-2.33,2.6-4.58,4-6.83,1.79-2.94,3.79-5.75,5.41-8.77a59.74,59.74,0,0,0,3.85-8.75,15.94,15.94,0,0,0-.59-11.94c-2.33-5.18-7.16-8.54-13.72-6.1a19,19,0,0,0-3,1.45c-4.27,2.53-6.75,6.45-8.37,11C270.74,323.23,270.43,324.12,270.05,325.21ZM589.78,119.57a6.31,6.31,0,0,1-1-.22,20.53,20.53,0,0,1-9.47-8.17c-1.19-1.88-2.15-3.9-3.2-5.87a4,4,0,0,0-4.68-2,3.29,3.29,0,0,0-2.44,3.42,47.31,47.31,0,0,0,.7,4.73c1.08,5.71,4.44,10,8.75,13.64,1.83,1.55,3.81,2.92,5.65,4.45a9.66,9.66,0,0,1,2.45,2.58,63.39,63.39,0,0,1,3.49,7.59c1.11,3,.38,4.7-2.19,6.64-1.34,1-2.6,2.11-3.86,3.22a3.55,3.55,0,0,0-1.34,4c.58,1.67,1.94,2.23,3.52,2.47a9.55,9.55,0,0,0,1.19.1,20.27,20.27,0,0,0,10.47-2.06,6.08,6.08,0,0,1,6.73.35,14.76,14.76,0,0,0,2.07,1.19,25.85,25.85,0,0,0,4.88,1.91c4.13.84,6.66-1.22,6.82-5.17a38.43,38.43,0,0,0-.34-6,5.27,5.27,0,0,1,.77-3.63,16.78,16.78,0,0,0,2.27-4.46c1-3.93,0-6.16-3.76-6.73a7.53,7.53,0,0,1-1.41-.3,4,4,0,0,1-2.49-4.62c.82-2.91,1.83-5.77,2.75-8.65a10.07,10.07,0,0,0,.63-2.28,3.06,3.06,0,0,0-1.89-3.07,3,3,0,0,0-3.37.34,6.23,6.23,0,0,0-1.35,1.66c-1.86,3.08-4.78,4.52-8.15,5.48-.45-.66-.84-1.15-1.15-1.69-1.28-2.21-2.52-4.45-3.82-6.65a13.27,13.27,0,0,0-1.64-2.34,3.64,3.64,0,0,0-4-1,3.15,3.15,0,0,0-2.25,3.09,17.26,17.26,0,0,0,.46,3.76C589.9,116.71,590.4,118.06,589.78,119.57ZM100.63,368.92l.47.56c-.48.5-1,1-1.45,1.51a3.42,3.42,0,0,0,2.56,5.9,14.1,14.1,0,0,0,7.76-2.07,45.7,45.7,0,0,0,12.32-10.52,4.68,4.68,0,0,1,1-1.06q4.44-3,8.94-6a5.17,5.17,0,0,1,1.41-.44,12.37,12.37,0,0,1-2.13,4.12,21.26,21.26,0,0,1-2.45,2.28,3.43,3.43,0,0,0-1.08,4.09,3.24,3.24,0,0,0,3.71,2,8.72,8.72,0,0,0,3.55-1.17,81.13,81.13,0,0,0,6.5-4.89,17.1,17.1,0,0,0,5.51-8.55,86.07,86.07,0,0,0,2.11-8.84c.68-3.69,1.08-7.42,1.71-11.12.28-1.64.54-3.19-.92-4.41s-3.15-.87-4.74-.19a5.46,5.46,0,0,0-1.6,1c-1.1,1-2.08,2.21-3.18,3.25-3.13,3-6.24,5.93-9.45,8.8A6.66,6.66,0,0,1,126,344.7a68.21,68.21,0,0,0-7.43-.05,30.75,30.75,0,0,0-16.48,5.86c-3.44,2.4-6.36,5.59-9.37,8.56-3.46,3.41-6.51,7.25-11,9.42a3.12,3.12,0,0,0-1.33,4c.55,1.46,2.15,2.63,3.59,2.12a17.16,17.16,0,0,1,6.27-.73,5.52,5.52,0,0,0,2.33-.5c1.73-.81,3.41-1.72,5.09-2.63C98.66,370.16,99.63,369.52,100.63,368.92Zm424.2-161.65c.72,0,1.44,0,2.16,0,5.77-.21,10-3.7,11-9.47l.66-3.78a36.7,36.7,0,0,1,7.32-16.23,3.67,3.67,0,0,1,3.46-1.68c1.19.11,2.39.19,3.57.4,4.73.85,7.58-2.31,7.29-6.46a24.49,24.49,0,0,0-.36-2.84c-.5-2.59-1-5.18-1.59-7.74a5.19,5.19,0,0,0-1.07-2.34A9,9,0,0,0,550.7,154a11.49,11.49,0,0,0-7.86,3.05,55.34,55.34,0,0,0-5.48,5.35,43.48,43.48,0,0,1-8.42,7.43,63.56,63.56,0,0,0-12.16,10.07c-3.48,3.77-6.58,7.78-8,12.9s.3,8.72,4.66,11.36A20.2,20.2,0,0,0,524.83,207.27ZM263,496.43c5,.11,8.4-3.44,6.1-8.81q-1-2.31-2-4.63c-1.6-3.77-1.57-3.92,1.3-6.84.34-.34.7-.66,1-1,3.45-3.35,7-6.63,10.3-10.05a46.81,46.81,0,0,0,4-5.06,3.71,3.71,0,0,0,.06-4.27,22.33,22.33,0,0,0-6.9-7.53c-2.42-1.75-3.44-1.75-5.72.1s-4.3,3.59-6.59,5.18a51.78,51.78,0,0,1-12.51,6,11.36,11.36,0,0,0-5.21,3.26c-1.74,2.08-3.54,4.12-5.18,6.28a37.39,37.39,0,0,0-3.29,5c-1.73,3.24-2.37,6.73-.7,10.13a83.82,83.82,0,0,0,5.27,8.82,5.46,5.46,0,0,0,4.36,2.18c3.73.31,7.47.54,11.21.83C260.13,496.12,261.64,496.29,263,496.43ZM454.62,242.32a8.24,8.24,0,0,1-.17,1.35,22.9,22.9,0,0,1-4.54,7.83,3.28,3.28,0,0,0-.2,4.73,3.39,3.39,0,0,0,4.93.09,18.29,18.29,0,0,0,2.2-2.2,66,66,0,0,0,12.34-22,50.17,50.17,0,0,0,1.27-5.11,3,3,0,0,0-.89-3.08c-1.47-1.24-2.94-2.44-5.11-2.23a10.73,10.73,0,0,1-3.06-.37,1.67,1.67,0,0,1-1.51-2c.11-.86,0-1.75,0-2.62a4.47,4.47,0,0,0-2.57-4.28c-1.62-.92-3.05-.17-4.43.79-2.61,1.82-5.21,3.66-7.9,5.36-8.48,5.34-17,10.49-27.56,10.55-1.64,0-2.73,1.24-3.28,2.79a3.44,3.44,0,0,0,1.16,3.86,8.86,8.86,0,0,0,6.15,2.32c3.67.09,7.34-.06,11-.22,1.89-.08,3.76-.42,5.84-.67a4.78,4.78,0,0,1-.37,1.09c-2.7,3.86-5.24,7.84-9.7,10a4.18,4.18,0,0,0-2.07,4.9c.64,1.77,2.17,2.61,4.51,2.07a27.93,27.93,0,0,0,5.4-1.9A110.53,110.53,0,0,0,454.62,242.32ZM682.67,428c.23-2.75-.84-4.76-3.31-6.42-3.18-2.14-6.33-4.32-9.55-6.39a8.49,8.49,0,0,1-4.2-6.06,49,49,0,0,0-2.15-8.33c-1.08-3.08-2.5-6.05-3.82-9.05-2.8-6.37-5.71-12.68-10.54-17.87a27.91,27.91,0,0,1-2.33-3.05c-2.16-3.06-5.73-2.83-7.4.58-.91,1.86-1.51,3.86-2.31,5.77-1.5,3.55-.58,6.52,2,9.17a10.41,10.41,0,0,1,1.56,2.1c1.53,2.61,2.89,5.33,4.54,7.86a22.47,22.47,0,0,1,4,12.84c-.08,4,.31,7.8,2.36,11.32a3.89,3.89,0,0,1,.3,1.15,11.14,11.14,0,0,0,4.35,6.41,46.82,46.82,0,0,0,10,6.15c2.94,1.26,5.82,2.64,8.69,4,3.8,1.83,7.17,0,7.52-4.25C682.52,432,682.57,430,682.67,428ZM304.13,544.14c2.5-.36,5.33-.74,8.17-1.16a3.46,3.46,0,0,0,2.62-2.21c1.17-2.41.4-4.73-.33-7a8.69,8.69,0,0,0-5.69-6,42.17,42.17,0,0,0-9.31-2.13c-1.66-.18-3.3-.57-4.95-.83a5.88,5.88,0,0,1-3.9-2.57c-1.25-1.75-2.37-3.59-3.48-5.44-1.9-3.15-3.83-6.25-6.76-8.62-2.53-2.06-5.37-3.06-8.47-2-5.36,1.82-4.16,1.3-9.58-.68a13.38,13.38,0,0,0-2.5-.78,12.86,12.86,0,0,0-3.33-.15,3.36,3.36,0,0,0-2.72,4.81,55.24,55.24,0,0,0,3.78,6.65,58.38,58.38,0,0,0,4.67,6.08c2.37,2.7,4.82,5.38,8.56,6.23,1.24.28,2.52.41,3.78.62,4.77.76,8.53,3,9.95,7.81a7.66,7.66,0,0,0,7,5.94C295.63,543.24,299.68,543.64,304.13,544.14ZM482.51,206.59c.05.85.1,1.23.08,1.6a31.2,31.2,0,0,1-3.21,12.68,3.45,3.45,0,0,0,.25,4,3.87,3.87,0,0,0,4.3,1.32,8.08,8.08,0,0,0,4.17-2.67c2.26-2.68,4.55-5.36,6.58-8.22a24,24,0,0,0,4.45-11.75c.14-1.51.3-3,.4-4.53.32-4.79.54-9.57-.74-14.29-.93-3.39-3.52-4.94-6.9-3.8-2.49.83-4.92,1.83-7.37,2.78-7.45,2.86-14.85,5.87-22.74,7.41a6,6,0,0,0-.91.28c-1.64.64-2.19,2-2.36,3.61a3.45,3.45,0,0,0,1.92,3.56,10.11,10.11,0,0,0,5.3,1.23c1.31,0,2.61,0,4.16,0-.37.71-.57,1.13-.81,1.53-1.13,1.93-2.3,3.84-3.43,5.77-1.66,2.84-.18,5.63,3.11,5.68a8.16,8.16,0,0,0,3.48-.71c2.75-1.25,5.42-2.7,8.11-4.09C481,207.68,481.53,207.24,482.51,206.59ZM318.38,411.33c0-3.13-1.41-4.44-3.75-4.38-3.35.08-6.69.3-10,.35a7.21,7.21,0,0,0-6.6,3.9c-3.7,6.16-7.68,12.15-11.46,18.26a68.77,68.77,0,0,0-3.19,6.15,3.32,3.32,0,0,0,.12,3.44,39.45,39.45,0,0,1,4,7.87,3.25,3.25,0,0,0,4.78,1.64,11.27,11.27,0,0,0,2.49-1.85q3.81-3.79,7.53-7.7a75.71,75.71,0,0,0,13.83-20.87A53.91,53.91,0,0,0,318.38,411.33ZM572.24,149a11.49,11.49,0,0,0,2.3-.52,13.33,13.33,0,0,0,6-5.32,5.47,5.47,0,0,0,.56-2.95c-.15-2.37-1.75-4-3.15-5.78s-2.91-3.8-4.51-5.56a31.55,31.55,0,0,0-4.51-4.22,3.4,3.4,0,0,0-4.25.18,3.89,3.89,0,0,0-1.82,4.11c.29,1.49.38,3,.69,4.5.85,4.14,1.63,8.31,3.63,12.1C568.24,147.56,569.59,149.24,572.24,149Z" transform="translate(-0.48 -0.48)"/><path class="cls-1" d="M628.54,278.1C621,278,615.63,274.65,611,270c-4.08-4.07-6.8-9-9-14.34-1.89-4.57-3.6-9.24-5.71-13.71A23.36,23.36,0,0,0,582,229c-4.94-1.58-10-2.83-14.91-4.51-5.84-2-10.7-5.39-13.44-11.19a16.84,16.84,0,0,1-1.64-4.47c-.78-5.05-1.47-10.12-1.93-15.2a13.39,13.39,0,0,1,.79-5.38c.95-2.77,3.37-3.8,6.18-2.86a42.64,42.64,0,0,1,5.07,2.16c7,3.44,13.18,7.81,17.78,14.23a56.57,56.57,0,0,0,4.4,5.37,33.16,33.16,0,0,0,4.42,4,7.48,7.48,0,0,0,8.75.69,23,23,0,0,1,9.38-2.63,20.18,20.18,0,0,1,9.4,1.44c4.69,1.8,9.28,3.89,14,5.66a15.23,15.23,0,0,1,9.47,10.08,51.67,51.67,0,0,1,3.06,17.14,18.08,18.08,0,0,0,2.65,10.28c2.21,3.45,1.86,6.77-.68,10a16.9,16.9,0,0,0-1.84,3.06,23.25,23.25,0,0,1-9.06,9.66A10.18,10.18,0,0,1,628.54,278.1Zm8.4-21.16a10.62,10.62,0,0,0-1.35-2.43,2,2,0,0,0-3.5,1,11.11,11.11,0,0,0-.25,1.9c-.14,1.87,1,3.32,2.6,3.34C635.85,260.72,637,259.23,636.94,256.94Z" transform="translate(-0.48 -0.48)"/><path class="cls-1" d="M352.68,404.65c-6.31-.4-11.27-.53-16.19-1.1a49.7,49.7,0,0,1-8.56-2.16,6.92,6.92,0,0,1-2.82-1.75,47.63,47.63,0,0,1-5.86-6.62c-3.69-5.59-7.66-11-10.41-17.2a30.27,30.27,0,0,0-2.29-3.93,44.77,44.77,0,0,1-5.41-13,15,15,0,0,1,.38-8.52,45.22,45.22,0,0,1,7.33-13.92,3.39,3.39,0,0,1,4.48-1,17.12,17.12,0,0,1,3.31,2.35c2.87,2.65,5.63,5.42,8.48,8.09a87.64,87.64,0,0,1,13,15.3,4.34,4.34,0,0,0,4.91,2,53.38,53.38,0,0,1,19.07-.29,34.53,34.53,0,0,1,8.42,2.65,14.13,14.13,0,0,1,7.08,7.48c4.35,10.63,1.42,19.82-5.45,28.28a5.25,5.25,0,0,1-3.89,2C362.63,403.71,357,404.26,352.68,404.65Z" transform="translate(-0.48 -0.48)"/><path class="cls-1" d="M284.1,263.57a134.27,134.27,0,0,1,23.19,2c6.85,1.14,13.7.71,20.55.06,3-.28,5.9-.53,8.85-.63a4.46,4.46,0,0,1,4.16,5.83,16.48,16.48,0,0,1-2.32,4.16c-2.58,3.3-3.52,7.15-3.91,11.15a10.61,10.61,0,0,0,.7,4.17c.81,2.43,2,4.73,2.73,7.16,2.55,8,1.25,15.46-3.44,22.37a15.13,15.13,0,0,1-17.59,5.7,12.44,12.44,0,0,1-6-4.95,44.54,44.54,0,0,1-4.74-9.92,19.42,19.42,0,0,0-4.14-6.65c-2.43-2.6-5.55-3.31-8.76-4-1.64-.35-3.29-.64-4.93-1a26.94,26.94,0,0,1-15.92-10.36,13.71,13.71,0,0,0-1.38-1.65c-4.17-3.87-7-8.64-9.55-13.68-.24-.5-.6-.93-.89-1.41-1.19-2-.75-4,1.32-5.08a15.43,15.43,0,0,1,3.8-1.38A85,85,0,0,1,284.1,263.57Z" transform="translate(-0.48 -0.48)"/><path class="cls-1" d="M397.92,316.21a19.31,19.31,0,0,1-.57,4.08c-1.31,3.89.43,6.69,3,9.21,1.82,1.79,3.8,3.42,5.7,5.14,3.53,3.18,5.79,7.06,4.73,11.87a32.78,32.78,0,0,1-3.7,9.78,17.7,17.7,0,0,1-10.16,7.6c-4.1,1.26-7.84-.19-11.33-2.4a72.47,72.47,0,0,1-11.92-8.82,3.14,3.14,0,0,0-3.63-.76,39.43,39.43,0,0,1-19.36,1.85,16.54,16.54,0,0,1-12.5-9.47c-2.29-4.65-1.59-9.32,1-13.74a14.79,14.79,0,0,1,5.88-5.49c2.66-1.45,5.38-2.81,8.17-4s4.71-3.28,6.57-5.46c2.64-3.1,5-6.46,7.72-9.47a31.23,31.23,0,0,1,10.89-8.1c3.17-1.32,6.44-2.08,9.73-.48a15,15,0,0,1,6.75,6.26A25.84,25.84,0,0,1,397.92,316.21Z" transform="translate(-0.48 -0.48)"/><path class="cls-1" d="M156.71,313.33c-3.31.15-5.35,1.82-7.26,3.67-3.15,3.06-6.16,6.27-9.37,9.27a22.77,22.77,0,0,1-4.52,3.1,3.93,3.93,0,0,1-4.89-.44c-1.29-1.21-1.56-2.88-.74-4.86a11.14,11.14,0,0,1,1-1.91,34.73,34.73,0,0,0,6.32-19.73c0-1.36-.18-2.71-.27-4.06s-.21-2.56-.23-3.83a8,8,0,0,1,2.11-6.18c3.51-3.48,6.9-7.11,10.64-10.33,4.76-4.12,10.68-5.65,16.8-6.33,4.77-.52,9.56-.77,14.3.45a28.33,28.33,0,0,1,9.21,4.47c2.82,2,4.38,4.8,5.67,7.84a3.19,3.19,0,0,1-.46,3.17c-1.66,2.54-3.43,5-4.94,7.63a33.92,33.92,0,0,0-3.44,8.36c-1.84,6.9-2.35,14-3.9,20.95a62,62,0,0,1-17,31.07,26.72,26.72,0,0,1-5.6,4,3.2,3.2,0,0,1-4.16-.61,3.82,3.82,0,0,1-.51-4.47c3.13-5,4.42-10.56,5.18-16.3a79.58,79.58,0,0,0,.32-19.14,8.9,8.9,0,0,0-2.73-5.18A3.32,3.32,0,0,0,156.71,313.33Z" transform="translate(-0.48 -0.48)"/><path class="cls-1" d="M230.35,321c-2.23,0-4.47,0-6.7,0a6.18,6.18,0,0,0-4.78,1.86c-2.49,2.59-5,5.2-7.23,8a24.84,24.84,0,0,0-4,7.05c-1.37,3.64-3.83,6.46-7.89,7.39a8.76,8.76,0,0,1-8.94-3.32c-.82-1-1-2.67-1.12-4.07a45.44,45.44,0,0,1,.83-11.21,78.73,78.73,0,0,1,6.84-21.89c1.79-3.65,3.94-7.13,6.08-10.6a37.72,37.72,0,0,1,12.08-12.16,77.13,77.13,0,0,1,20.19-9.2,14,14,0,0,1,11.7,1.8,35.52,35.52,0,0,1,14.45,18,12,12,0,0,1-.11,8.61C259,309.38,253,314.43,246,318.63a18.81,18.81,0,0,1-9.18,2.46c-2.16.07-4.32,0-6.48,0Z" transform="translate(-0.48 -0.48)"/><path class="cls-1" d="M405.23,405c-4.4-.27-8.71-.46-13-.84-2.54-.23-3.79-1.47-4.07-3.64a4.86,4.86,0,0,1,.22-2.11c3.19-8.79,7.34-17,14-23.78a25.86,25.86,0,0,1,8.89-6,12.67,12.67,0,0,1,14.69,3.11c1,1,1.86,2.2,2.76,3.32,1.62,2,3.61,2.39,5.59.7a18.4,18.4,0,0,0,3.61-4.12c1.43-2.29,2.6-4.76,3.8-7.19a23.89,23.89,0,0,1,6.78-8c4.46-3.56,9.21-3,13.95-.66a11.63,11.63,0,0,1,3.23,2.43,27.16,27.16,0,0,1,6.74,11.42c.8,2.83,2,5.54,3.08,8.3a30.06,30.06,0,0,1,1.78,11,5,5,0,0,1-2.39,4.2,14,14,0,0,1-4,2.15c-10.4,3.18-20.93,5.71-31.85,6.5-7.56.55-15.07,1.72-22.62,2.48C412.66,404.71,408.9,404.78,405.23,405Z" transform="translate(-0.48 -0.48)"/><path class="cls-1" d="M406.47,294A26.27,26.27,0,0,1,396,291.53c-3.61-1.7-7.18-3.48-10.72-5.3-2.65-1.36-7.35-.66-9.32,1.56-2.91,3.29-5.82,6.59-8.66,9.95a7.58,7.58,0,0,1-4.88,2.77c-5.34.76-9.75-.81-13.09-5.18-4.48-5.88-4.6-12.19-2-18.83,1.63-4.24,4.59-7.47,7.9-10.38a8.73,8.73,0,0,1,3.46-1.56c6.33-1.67,12.67-3.36,19-4.82a94.76,94.76,0,0,0,16.52-5.67c5.72-2.48,11.33-5.19,17-7.71a8.23,8.23,0,0,1,3.47-.76c3.39.12,5.2,2.54,4.68,6.1-.22,1.5-.64,3-1,4.45a15.81,15.81,0,0,0-.4,2.35,2.37,2.37,0,0,0,2.53,2.78c.48,0,1-.12,1.44-.1a16.74,16.74,0,0,1,3.09.26c4.87,1.19,6.73,4.53,4.9,9.2s-3.85,9.47-6,14.08c-2.29,4.84-6.55,7.3-11.58,8.48A55.54,55.54,0,0,1,406.47,294Z" transform="translate(-0.48 -0.48)"/><path class="cls-1" d="M517.75,294.41A25.74,25.74,0,0,1,514,308.16a82.84,82.84,0,0,1-4.81,6.86c-1.24,1.66-2.63,3.21-3.95,4.82a8.23,8.23,0,0,0-1.6,8.52c.71,1.94,1.7,3.78,2.59,5.65s2.08,4,2.88,6c1.51,3.9.61,9.93-5.4,11.87-7.49,2.42-12.14,8-16.42,14-2.85,4-5,4-7.54-.29a47.61,47.61,0,0,0-3-4.36,44.35,44.35,0,0,1-7.1-13.24,19.81,19.81,0,0,1,.29-13.16,48.79,48.79,0,0,1,4.14-8.35,60.21,60.21,0,0,0,3.94-7.92,5.71,5.71,0,0,0-1.32-7,18.39,18.39,0,0,1-2.93-4.34c-1.53-2.75-1.18-5.61.14-8.28,3.87-7.83,13.36-12.92,22.08-11.91a13.32,13.32,0,0,1,3.67,1,4,4,0,0,0,3.9-.18c1.3-.77,2.49-1.73,3.77-2.54,1.62-1,3.2-1.93,5.34-1.38a5.59,5.59,0,0,1,4.38,4.27A44.52,44.52,0,0,1,517.75,294.41Z" transform="translate(-0.48 -0.48)"/><path class="cls-1" d="M249.78,365.85c.48,9.92-4.37,16.23-11.93,20.87-3,1.84-6.17,3.45-9.78,3.65a26.43,26.43,0,0,1-5.48-.25,55,55,0,0,1-8-1.69,13.7,13.7,0,0,0-11.09,1.15,19.48,19.48,0,0,1-2.17,1c-4.19,1.65-7.66-.07-8.9-4.43-.42-1.46-.74-2.95-1.05-4.43-1.28-6.09-2.65-12.16-3.76-18.28a19.18,19.18,0,0,1,.11-5.95c.46-3.18,2.69-4.66,5.86-4a53,53,0,0,1,6.73,1.7,5.81,5.81,0,0,0,5.82-1.08,22.19,22.19,0,0,0,6.41-8.53c.87-1.89,1.58-3.86,2.56-5.68,3.08-5.75,8.56-7.27,14.18-4a20.41,20.41,0,0,1,2.57,1.75A51,51,0,0,1,242,348.2c1.8,2.62,3.82,5.06,5.41,7.88A16.92,16.92,0,0,1,249.78,365.85Z" transform="translate(-0.48 -0.48)"/><path class="cls-1" d="M61.87,347.89c-3-.48-5.49-.76-7.95-1.32a54,54,0,0,1-6.65-2,18.44,18.44,0,0,1-9.34-7.9,3.79,3.79,0,0,1,.8-5.17,3.3,3.3,0,0,1,4.77-.19c2.9,2.34,6.27,3,9.83,3.26a62.68,62.68,0,0,0,15.3-.5A4.89,4.89,0,0,0,72,332.53l-2.79-.82c-5.46-1.65-8.39-5.62-9.66-10.92a4,4,0,0,1,5.13-4.87c10.64,3.09,21.19,1.9,31.73-.49a14.94,14.94,0,0,0,3.1-1.23c6.62-3.16,12.24-7.83,18.08-12.14.64-.47,1.1-1.16,1.7-1.68,1-.84,1.92-1.69,3-2.43a3.58,3.58,0,0,1,5.89,3.52c-.5,4.21-.69,8.48-1.6,12.59-.75,3.39-2.34,6.58-3.61,9.85-.28.74-.79,1.39-1.13,2.11-2.64,5.53-7.19,8.58-13,10.05a5.2,5.2,0,0,1-.92.24c-5.08.39-8.66,3.37-11.91,6.89-1.52,1.65-3,3.33-4.46,5A25.46,25.46,0,0,1,81,355.83c-2,.74-4,1.69-6,2.45a19.74,19.74,0,0,1-11.55.81c-2.32-.53-4.59-1.32-6.87-2a6.1,6.1,0,0,1-1.48-.76,3.88,3.88,0,0,1-1.69-4.17,3.38,3.38,0,0,1,3.39-2.53A9.18,9.18,0,0,0,61.87,347.89Z" transform="translate(-0.48 -0.48)"/><path class="cls-1" d="M435.37,198.82a18,18,0,0,0-3.57-.44,46.88,46.88,0,0,1-10.25-.64,11.14,11.14,0,0,1-5.55-2.09,3.93,3.93,0,0,1-1.63-4.41c.5-1.63,1.78-2.39,3.93-2.45a26.57,26.57,0,0,0,3.08-.32,47.59,47.59,0,0,0,7.68-1.57c-1-.22-2-.38-2.94-.66-3.22-.92-6.43-1.88-9.64-2.85a8,8,0,0,1-1.31-.57,3.39,3.39,0,0,1-1.93-4,3.42,3.42,0,0,1,3.33-2.6c6-.37,12-.71,17.94-1.07.39,0,.78-.08,1.46-.14a7,7,0,0,0-.76-1L424.4,165a3.46,3.46,0,0,1-.89-4.71,3.68,3.68,0,0,1,5.11-1c3.36,2.08,7.15,2.66,10.9,3.42a5.14,5.14,0,0,0,1.1-.14c-1.25-1.05-2.28-1.88-3.27-2.76a10.5,10.5,0,0,1-1.85-1.86,3.48,3.48,0,0,1,4.82-4.84c2.68,1.58,5.36,3.17,8.08,4.69,3.89,2.18,8.23,3,12.54,3.91a39.31,39.31,0,0,1,8.66,2.68,4.63,4.63,0,0,1,2.34,6.55q-2.61,4.84-5.35,9.62a4.66,4.66,0,0,1-1.69,1.61c-1.25.71-2.62,1.19-3.89,1.86a57,57,0,0,0-7.09,4c-4.47,3.27-4.94,6-3.69,11.11a5.93,5.93,0,0,1-.61,4.76,23,23,0,0,1-8.85,8.89,60.25,60.25,0,0,1-17.16,6.58,25.18,25.18,0,0,1-12.35-.21,15.49,15.49,0,0,0-10.53.48c-2.22.91-4.52,1.6-6.79,2.38a23.78,23.78,0,0,1-9.67,1.38c-3.74-.28-7.47-.68-11.2-1.11a3.31,3.31,0,0,1-3-2.43c-.74-2.47,1.14-4.57,3.85-4.3,2,.19,4,.43,5.95.59a14,14,0,0,0,6.56-1.13c3-1.25,6.07-2.48,9.05-3.85,4.69-2.15,9.57-3.26,14.68-2.23a25.83,25.83,0,0,0,17.62-2.79c.85-.45,1.72-.85,2.61-1.22C433,203.77,434.29,201.67,435.37,198.82Z" transform="translate(-0.48 -0.48)"/><path class="cls-1" d="M258.28,378.46a15.5,15.5,0,0,0,0-2.64c-1.06-6.08,7.75-15.7,15.19-14.82a14.06,14.06,0,0,1,5.24,1.53c3.24,1.86,6.78,2.76,10.27,3.87a37.54,37.54,0,0,1,4.27,1.56,12.93,12.93,0,0,1,5.92,6.08c2.84,5.45,5.66,10.93,8.16,16.55.68,1.53.48,3.62.18,5.37s-3.13,3-5.34,2.68a10.58,10.58,0,0,1-4.56-2c-2.48-1.69-4.24-1.08-5.19,1.83a15.6,15.6,0,0,0-.53,2.82,31.8,31.8,0,0,1-2.31,8.78c-.39.87-.54,1.84-.89,2.72a13.65,13.65,0,0,1-1.51,3.23,5.18,5.18,0,0,1-7.05,1.52,33.78,33.78,0,0,1-5.59-4,18.45,18.45,0,0,0-5.56-3.68,6.27,6.27,0,0,0-5.73.5c-2.1,1.3-4.29,2.47-6.51,3.57a16.85,16.85,0,0,1-8.58,1.81c-5.69-.32-9-3.64-9.13-9.32a18.68,18.68,0,0,1,2.25-9.91,15.1,15.1,0,0,1,9.22-7.14,35.19,35.19,0,0,0,5.23-2.3,4.51,4.51,0,0,0,2.6-4.5c0-1.35,0-2.71,0-4.07Z" transform="translate(-0.48 -0.48)"/><path class="cls-1" d="M228.87,414.32a43.85,43.85,0,0,0,.06,5.5,15.68,15.68,0,0,0,1.34,4.52,9.19,9.19,0,0,0,7.8,5.61,40.65,40.65,0,0,0,7.15.1,10.49,10.49,0,0,0,6.89-3.41,45.82,45.82,0,0,1,7.46-6c4.12-2.73,8.53-2,11.87,1.63a24.71,24.71,0,0,1,3,3.75c2,3.33,1.82,7-1.61,9.57-2.81,2.11-5.76,4-8.68,6s-6.27,3.63-9,5.89c-6.48,5.31-14.05,8.46-21.68,11.55a22.17,22.17,0,0,1-8.37,1.8,9.82,9.82,0,0,1-7.42-3.34c-3.51-3.81-6.88-7.76-10.28-11.68-2.22-2.57-3-6.07.64-9.24,2.66-2.32,3.22-4.9,1.89-8.14a19.85,19.85,0,0,0-2.15-4,31.76,31.76,0,0,1-6.05-18.85,5.68,5.68,0,0,1,2.27-4.57A18.36,18.36,0,0,1,217.6,397c5.8.67,11,4.63,11.45,11.84.11,1.83,0,3.67,0,5.51Z" transform="translate(-0.48 -0.48)"/><path class="cls-1" d="M531.84,142.62a23.27,23.27,0,0,1-9.63-3c-4.56-2.3-7.25-6.38-9.77-10.59-.74-1.23-1.38-2.52-2.14-3.74a19.5,19.5,0,0,0-7.55-7.14,60.4,60.4,0,0,1-13.38-10.06,31.41,31.41,0,0,1-7.63-12.59,3.25,3.25,0,0,1,1.2-3.82,3.31,3.31,0,0,1,3.82,0,8.74,8.74,0,0,1,1.79,1.9c1.5,2.07,3,4.15,4.39,6.28,4.67,7.08,11.46,10.42,19.69,11.17,3.33.3,6.68.46,10.36.7a6.6,6.6,0,0,0-1.18-1.19c-1.6-.89-3.24-1.72-4.87-2.56-.92-.48-1.88-.88-2.76-1.43a4.85,4.85,0,0,1-1.94-5.64,3.35,3.35,0,0,1,5.37-1.24c6.07,4.91,13.31,6.67,20.79,7.77.05,0,.11-.08.45-.35-1.33-1.06-2.6-2.09-3.9-3.09-.37-.3-.82-.5-1.22-.77-1.72-1.15-2.29-2.67-1.64-4.28s2.3-2.35,4.39-1.86c4.28,1,8.56,2,12.84,2.94.29.06.59.06,1.08.11l-1-4.53a13.67,13.67,0,0,1-.31-1.65c-.23-2.15.91-3.77,2.81-4,1.74-.26,3.27.9,3.79,2.91.21.85.35,1.72.54,2.58a23.12,23.12,0,0,0,3.93,9.18,4.4,4.4,0,0,1,.83,4c-.34,1.23-.75,2.44-1.18,3.64-1.69,4.75-3.42,9.48-3.71,14.58-.22,3.94-.1,7.83,1.39,11.57,1.24,3.1.25,5.24-3,6.28-1.59.51-3.26.82-4.9,1.17-5.26,1.11-9.49,4-13.4,7.54a6.12,6.12,0,0,1-2.06,1.56c-3.71,1-6-1.23-5.22-4.22.47-1.84,1.12-3.64,1.75-5.45C530.94,144.45,531.36,143.68,531.84,142.62Z" transform="translate(-0.48 -0.48)"/><path class="cls-1" d="M421.86,351.07c.24-4.16.82-7.37,2.29-10.36a5.38,5.38,0,0,0-.36-5.45,17,17,0,0,0-4.66-5.36,20.75,20.75,0,0,1-6.37-7,11.32,11.32,0,0,1-1.15-7.65,20,20,0,0,1,3.22-7.68,63.45,63.45,0,0,1,11.76-12.89,20.61,20.61,0,0,1,8.16-4.38c4.36-1.05,8.07,0,11,3.43a21.52,21.52,0,0,1,5,9.42,3.87,3.87,0,0,0,3.23,3.25,21.76,21.76,0,0,1,11.91,8.42,12.52,12.52,0,0,1,2.68,7.77,7.46,7.46,0,0,1-2.26,5.36,39.58,39.58,0,0,1-3.27,2.8c-4.21,3.3-8.47,6.54-12.65,9.89a32.7,32.7,0,0,0-3.36,3.4c-3.48,3.75-6.94,7.52-10.41,11.27-.49.53-1,1-1.56,1.5-3.49,3.06-7.29,2.87-10.63-.38C422.67,354.65,421.67,352.71,421.86,351.07Z" transform="translate(-0.48 -0.48)"/><path class="cls-1" d="M608.43,200.19c-2.79.13-5.58.3-8.38.38a13.33,13.33,0,0,1-8.29-2.68c-4-2.85-7.69-6-11.71-8.75a49.78,49.78,0,0,1-8.67-7.84,5.11,5.11,0,0,1-1.49-2.86c-.13-3.66-.56-7.36.35-11a20.66,20.66,0,0,1,1-3.18,3.59,3.59,0,0,1,4.67-2.2c1.24.31,2.5.59,3.7,1a50.21,50.21,0,0,0,16.87,3.19c6.71,0,13.42,0,20.13,0a4.85,4.85,0,0,0,3.45-1.4c1.28-1.19,2.68-2.28,4-3.4a21.54,21.54,0,0,1,1.72-1.3c3.53-2.29,5.32-1.85,7.32,1.8a57.31,57.31,0,0,1,3.24,6.15,29.12,29.12,0,0,1,1.7,6.44,6.19,6.19,0,0,1-1.15,4.54c-1,1.43-2,2.91-2.94,4.38a4.77,4.77,0,0,0-.54,4.32,42.7,42.7,0,0,1,1.77,7.43,14.65,14.65,0,0,1-.45,5.67c-1.28,4.51-5.55,6.22-9.94,4.23a10.05,10.05,0,0,1-1.66-.95C618.77,200.93,613.77,200,608.43,200.19Zm-6.22-15a15.1,15.1,0,0,0-1-2.85,20.65,20.65,0,0,0-5.48-6.25,12.11,12.11,0,0,0-3.21-1.5,2.45,2.45,0,0,0-3,.74,2.59,2.59,0,0,0,0,2.92,24.43,24.43,0,0,0,7.43,9.21,3.84,3.84,0,0,0,4.1.35C601.86,187.46,602.36,186.8,602.21,185.23Z" transform="translate(-0.48 -0.48)"/><path class="cls-1" d="M555.44,328.75c.08,1.52.31,4.23.36,6.94.11,6.06-2.4,11-6.71,15.09a12.72,12.72,0,0,1-7,3.49,30.17,30.17,0,0,1-5.47.67,18.77,18.77,0,0,1-6.31-1c-7.19-2.94-11.68-8.48-13.88-15.83a17,17,0,0,1,.57-10.15,27.82,27.82,0,0,1,7.45-11.87c3-2.87,3.61-6.26,2.58-10.08a54.59,54.59,0,0,0-2-6.4c-3.27-8.07,2.1-17.59,8.33-21.3a3.18,3.18,0,0,1,4,.29,8.78,8.78,0,0,1,2.11,2.84c2.34,5.25,4.6,10.55,6.83,15.85,2,4.78,4.12,9.54,5.92,14.41A45.2,45.2,0,0,1,555.44,328.75Z" transform="translate(-0.48 -0.48)"/><path class="cls-1" d="M591.49,447c-2.2-2-2.26-4.52-1.7-7.51,1-5.17,1.52-10.43,2.08-15.66a15.65,15.65,0,0,0-.41-4.76,4.16,4.16,0,0,0-1.4-2.34c-2.16-1.64-4.42-3.16-6.72-4.59-5.29-3.3-10.88-6.1-15.77-10a23.32,23.32,0,0,0-3.09-1.84,3.37,3.37,0,0,1-1.89-3.79c1-5.14,3.22-9.51,8.08-12.09a8.25,8.25,0,0,1,8-.08c3.41,1.76,6.83,3.51,10.11,5.49a28.12,28.12,0,0,1,9.77,10c2.49,4.17,3.42,8.72,4.75,13.22,1.81,6.18,2,12.6,2.82,18.93a43.43,43.43,0,0,0,3,10.57c1.17,2.86,3.61,4.63,5.92,6.48,2.73,2.19,5.55,4.29,8.22,6.55a5.6,5.6,0,0,1,2.22,5.27,15.84,15.84,0,0,0,.18,3.56,11.18,11.18,0,0,1-3,9,3.48,3.48,0,0,1-3.5,1c-2-.44-16.46-5.44-18.23-6.51-1.92-1.14-3.75-2.44-5.68-3.58-4-2.35-5.35-6-5.09-10.37A55.41,55.41,0,0,1,591.49,447Z" transform="translate(-0.48 -0.48)"/><path class="cls-1" d="M514.91,262.6c.14-1.59.29-3.18.43-4.78.07-.79.09-1.59.16-2.39a7.38,7.38,0,0,0-4-7.55,70,70,0,0,1-6.71-4.62,18.84,18.84,0,0,1-7.62-15.78,8.8,8.8,0,0,1,4.73-8.06,21.37,21.37,0,0,1,11.4-3.12c3.35.1,6.7.08,10,.17a13.42,13.42,0,0,1,2.59.4c4.73,1.09,9,.4,12.68-3a5.28,5.28,0,0,1,4.73-1.78,4,4,0,0,1,3.24,2.49c2.48,5.62,2.4,11.23.53,17-2.88,9-5.44,18-8.24,27-.92,3-2.08,5.86-3.25,8.74a6.92,6.92,0,0,1-5.07,4.35,42.3,42.3,0,0,1-7.52,1.31c-4.8.19-7.78-2.73-8.08-7.53-.07-1,0-1.92,0-2.88Z" transform="translate(-0.48 -0.48)"/><path class="cls-1" d="M494.38,138.8a24.65,24.65,0,0,0-11.1-6.78c-3.16-.84-6.35-1.59-9.52-2.43a39,39,0,0,1-4.11-1.26,3.16,3.16,0,0,1-2.27-3.3,3.22,3.22,0,0,1,2.46-3.19,11.68,11.68,0,0,1,3.78-.26A68.22,68.22,0,0,1,496,127.32a38.68,38.68,0,0,1,12.69,8.88,15.29,15.29,0,0,1,3.83,6.83c.65,2.51,1.91,4.36,4.43,5.21a4.8,4.8,0,0,1,.65.3c3.64,1.6,4.23,2,3.49,6.69a44.35,44.35,0,0,1-10.48,22,9.53,9.53,0,0,1-1.61,1.43,4,4,0,0,1-6.46-2.15c-1.11-3.64-2.11-5.32-4.44-7.25-1.46.86-3.07,1.7-4.59,2.7s-3.09,2.27-4.64,3.39a14.85,14.85,0,0,1-7.34,2.65,3.45,3.45,0,0,1-3.74-2,3.29,3.29,0,0,1,1-3.9c2.76-2.42,4.49-5.58,6.33-8.65a4.51,4.51,0,0,0,.49-1.1c.76-2.53.32-3.54-2.21-3.8-9.88-1-18.8-5-27.53-9.32-2.88-1.45-5.34-3.75-7.92-5.75a7.16,7.16,0,0,1-1.61-2.07,3.3,3.3,0,0,1,.47-4,3.51,3.51,0,0,1,3.95-.89,7.13,7.13,0,0,1,1,.59,45.66,45.66,0,0,0,18.86,6.54c6.15.68,12.12.18,17.82-2.45C490.28,140.41,492.13,139.72,494.38,138.8Z" transform="translate(-0.48 -0.48)"/><path class="cls-1" d="M451.76,265.35c1.12,0,2.24,0,3.35.16a6.71,6.71,0,0,0,6.16-2.57c2-2.47,3.89-5.07,5.7-7.7,1.4-2,2.61-4.21,3.89-6.33,6.15-10.17,20.71-10.37,26.88,1.41a3.36,3.36,0,0,1,.2.43c1,3.34,3.28,5.78,5.5,8.28a12.94,12.94,0,0,1,3.64,10.29,8.62,8.62,0,0,1-5.49,7.51c-3.19,1.4-6.55,1.34-9.91,1.11-2.39-.17-4.77-.49-7.16-.75a7.15,7.15,0,0,0-7.48,3.6c-2,3.26-4.12,6.49-6.42,9.55a14.54,14.54,0,0,1-4.11,3.53,6.18,6.18,0,0,1-8.22-2.18,36.82,36.82,0,0,1-3-5.42,3.81,3.81,0,0,0-4.36-2.51c-4.13.46-7.95-.28-11.1-3.29a9.49,9.49,0,0,1-2.89-4.87,7,7,0,0,1,2.29-6.94c2.85-2.71,6.37-3.5,10.16-3.45.8,0,1.6,0,2.4,0Z" transform="translate(-0.48 -0.48)"/><path class="cls-1" d="M606.43,380.17A78.79,78.79,0,0,1,576,373c-3.77-1.75-7.6-3.35-11.35-5.13-2.95-1.4-5.87-2.9-8.74-4.46-2.15-1.17-2.64-3.06-1.71-5.3q1.6-3.87,3-7.82a5.83,5.83,0,0,1,7-3.66c5.87,1.52,11.79,2.85,17.69,4.25,7.26,1.73,14.69,2.13,22.08,2.87,6.28.64,12.56,1.24,18.83,2a15,15,0,0,1,6.75,2.23c3.18,2.08,3.8,6.83,2.79,9.43-.57,1.48-1.17,3-1.62,4.49a8.46,8.46,0,0,1-5.95,6c-4.09,1.34-8.37,1.16-12.54,1.8C610.25,380,608.17,380,606.43,380.17Z" transform="translate(-0.48 -0.48)"/><path class="cls-1" d="M546,398.37c-5.82-1-11.64-2-17.44-3.07-3.06-.57-6.1-1.24-9.14-1.94-6.15-1.42-11.66-4.29-17-7.55q-3-1.81-5.9-3.66c-2.69-1.67-4.1-4-3.58-7.23a6.42,6.42,0,0,1,1.28-3c4.53-5.41,10.11-9,17.34-9.52a31.59,31.59,0,0,1,9.05.46c8.43,1.83,16.91,3.46,24.94,6.72,2.29.93,4.55,2,6.79,3a23.83,23.83,0,0,0,6,2.31,6.43,6.43,0,0,1,2.88,1.61c1.46,1.26,1.59,3.8,0,4.87-4.46,3-6,7.74-7.77,12.34-1.64,4.2-2.28,4.68-6.92,4.34l-.48,0Z" transform="translate(-0.48 -0.48)"/><path class="cls-1" d="M186.21,493.46c-1.78-.62-3.76-.95-5.3-1.95a8,8,0,0,0-5.87-1.46c-3.56.61-5.52-.81-7.09-4.05a99.59,99.59,0,0,1-5.84-15.68,34.44,34.44,0,0,1-1.38-5.8c-.33-2.79.9-5.14,2.8-7.12,4.08-4.25,9.15-6.53,14.87-7.64a59.73,59.73,0,0,0,6.65-1.87c1.9-.6,3.78-1.29,5.62-2a5.83,5.83,0,0,1,5.07.37,15.15,15.15,0,0,1,5.72,4.58c2.25,3.1,4.82,6,7.08,9.05a20.2,20.2,0,0,1,2.5,4.87c.73,2,.05,3.36-1.76,4.43a14.94,14.94,0,0,1-4.19,1.59,88.72,88.72,0,0,0-9.85,3c-2.56.93-3,2.23-2.28,4.89a56.57,56.57,0,0,1,1.16,5.62C195,489.94,191,493.05,186.21,493.46Z" transform="translate(-0.48 -0.48)"/><path class="cls-1" d="M224.93,551.52c-2.71,0-5.45.19-8.14-.06A40.77,40.77,0,0,1,210,550c-2.71-.75-3.77-3.3-5.27-5.3-1.63-2.17-3-4.51-5.48-5.92-.9-.52-1.84-1-2.75-1.45-2.52-1.37-5.11-2.64-7.54-4.16a10.07,10.07,0,0,1-4.61-6.19,10.78,10.78,0,0,0-.47-1.35q-2.73-7.29-5.47-14.56c-.79-2.09-1.62-4.17-2.43-6.25a3.67,3.67,0,0,1,2.21-5.05,5.85,5.85,0,0,1,5.31.15c1.45.83,3,1.57,4.39,2.46a4,4,0,0,0,4.08.3,16.77,16.77,0,0,1,2.95-1c3.82-.89,7.09.34,9,3.78,2.1,3.85,4,7.81,5.74,11.84,2.08,4.84,3.91,9.79,5.77,14.72a2.36,2.36,0,0,0,2.22,1.81c1.42.11,2.84.3,4.27.41,1.9.14,3.84.07,5.72.39,6.44,1.09,10.1,5.41,12.31,11.18.76,2-.43,4-2.69,5a9.76,9.76,0,0,1-3,.73c-3.11.21-6.22.29-9.33.42Z" transform="translate(-0.48 -0.48)"/><path class="cls-1" d="M270.05,325.21c.38-1.09.69-2,1-2.87,1.62-4.56,4.1-8.48,8.37-11a19,19,0,0,1,3-1.45c6.56-2.44,11.39.92,13.72,6.1a15.94,15.94,0,0,1,.59,11.94,59.74,59.74,0,0,1-3.85,8.75c-1.62,3-3.62,5.83-5.41,8.77-1.36,2.25-2.72,4.5-4,6.83a3.78,3.78,0,0,1-3.62,2.27,16.45,16.45,0,0,1-3.56-.45,147.37,147.37,0,0,1-19.69-6.72,24.89,24.89,0,0,1-8.91-6.35c-3.48-3.73-4-8.53-.65-13a15.6,15.6,0,0,1,19.26-4.79c.64.32,1.21.79,1.83,1.14S269.31,324.86,270.05,325.21Z" transform="translate(-0.48 -0.48)"/><path class="cls-1" d="M589.78,119.57c.62-1.51.12-2.86-.16-4.24a17.26,17.26,0,0,1-.46-3.76,3.15,3.15,0,0,1,2.25-3.09,3.64,3.64,0,0,1,4,1,13.27,13.27,0,0,1,1.64,2.34c1.3,2.2,2.54,4.44,3.82,6.65.31.54.7,1,1.15,1.69,3.37-1,6.29-2.4,8.15-5.48a6.23,6.23,0,0,1,1.35-1.66,3,3,0,0,1,3.37-.34,3.06,3.06,0,0,1,1.89,3.07,10.07,10.07,0,0,1-.63,2.28c-.92,2.88-1.93,5.74-2.75,8.65a4,4,0,0,0,2.49,4.62,7.53,7.53,0,0,0,1.41.3c3.78.57,4.75,2.8,3.76,6.73a16.78,16.78,0,0,1-2.27,4.46,5.27,5.27,0,0,0-.77,3.63,38.43,38.43,0,0,1,.34,6c-.16,3.95-2.69,6-6.82,5.17a25.85,25.85,0,0,1-4.88-1.91,14.76,14.76,0,0,1-2.07-1.19,6.08,6.08,0,0,0-6.73-.35,20.27,20.27,0,0,1-10.47,2.06,9.55,9.55,0,0,1-1.19-.1c-1.58-.24-2.94-.8-3.52-2.47a3.55,3.55,0,0,1,1.34-4c1.26-1.11,2.52-2.21,3.86-3.22,2.57-1.94,3.3-3.64,2.19-6.64a63.39,63.39,0,0,0-3.49-7.59,9.66,9.66,0,0,0-2.45-2.58c-1.84-1.53-3.82-2.9-5.65-4.45-4.31-3.64-7.67-7.93-8.75-13.64a47.31,47.31,0,0,1-.7-4.73,3.29,3.29,0,0,1,2.44-3.42,4,4,0,0,1,4.68,2c1,2,2,4,3.2,5.87a20.53,20.53,0,0,0,9.47,8.17A6.31,6.31,0,0,0,589.78,119.57Z" transform="translate(-0.48 -0.48)"/><path class="cls-1" d="M100.63,368.92c-1,.6-2,1.24-3,1.8-1.68.91-3.36,1.82-5.09,2.63a5.52,5.52,0,0,1-2.33.5,17.16,17.16,0,0,0-6.27.73c-1.44.51-3-.66-3.59-2.12a3.12,3.12,0,0,1,1.33-4c4.54-2.17,7.59-6,11-9.42,3-3,5.93-6.16,9.37-8.56a30.75,30.75,0,0,1,16.48-5.86,68.21,68.21,0,0,1,7.43.05,6.66,6.66,0,0,0,5.13-1.54c3.21-2.87,6.32-5.84,9.45-8.8,1.1-1,2.08-2.21,3.18-3.25a5.46,5.46,0,0,1,1.6-1c1.59-.68,3.22-1.08,4.74.19s1.2,2.77.92,4.41c-.63,3.7-1,7.43-1.71,11.12a86.07,86.07,0,0,1-2.11,8.84,17.1,17.1,0,0,1-5.51,8.55,81.13,81.13,0,0,1-6.5,4.89,8.72,8.72,0,0,1-3.55,1.17,3.24,3.24,0,0,1-3.71-2,3.43,3.43,0,0,1,1.08-4.09,21.26,21.26,0,0,0,2.45-2.28,12.37,12.37,0,0,0,2.13-4.12,5.17,5.17,0,0,0-1.41.44q-4.5,3-8.94,6a4.68,4.68,0,0,0-1,1.06A45.7,45.7,0,0,1,110,374.82a14.1,14.1,0,0,1-7.76,2.07,3.42,3.42,0,0,1-2.56-5.9c.48-.51,1-1,1.45-1.51Z" transform="translate(-0.48 -0.48)"/><path class="cls-1" d="M524.83,207.27a20.2,20.2,0,0,1-11.42-3.07c-4.36-2.64-6.11-6.25-4.66-11.36s4.55-9.13,8-12.9a63.56,63.56,0,0,1,12.16-10.07,43.48,43.48,0,0,0,8.42-7.43,55.34,55.34,0,0,1,5.48-5.35A11.49,11.49,0,0,1,550.7,154a9,9,0,0,1,6.53,3.09,5.19,5.19,0,0,1,1.07,2.34c.6,2.56,1.09,5.15,1.59,7.74a24.49,24.49,0,0,1,.36,2.84c.29,4.15-2.56,7.31-7.29,6.46-1.18-.21-2.38-.29-3.57-.4a3.67,3.67,0,0,0-3.46,1.68A36.7,36.7,0,0,0,538.61,194L538,197.8c-1,5.77-5.19,9.26-11,9.47C526.27,207.29,525.55,207.27,524.83,207.27Z" transform="translate(-0.48 -0.48)"/><path class="cls-1" d="M263,496.43c-1.4-.14-2.91-.31-4.42-.43-3.74-.29-7.48-.52-11.21-.83a5.46,5.46,0,0,1-4.36-2.18,83.82,83.82,0,0,1-5.27-8.82c-1.67-3.4-1-6.89.7-10.13a37.39,37.39,0,0,1,3.29-5c1.64-2.16,3.44-4.2,5.18-6.28a11.36,11.36,0,0,1,5.21-3.26,51.78,51.78,0,0,0,12.51-6c2.29-1.59,4.42-3.42,6.59-5.18s3.3-1.85,5.72-.1a22.33,22.33,0,0,1,6.9,7.53,3.71,3.71,0,0,1-.06,4.27,46.81,46.81,0,0,1-4,5.06c-3.35,3.42-6.85,6.7-10.3,10.05-.34.33-.7.65-1,1-2.87,2.92-2.9,3.07-1.3,6.84q1,2.33,2,4.63C271.44,493,268,496.54,263,496.43Z" transform="translate(-0.48 -0.48)"/><path class="cls-1" d="M454.62,242.32a110.53,110.53,0,0,1-18.54,11,27.93,27.93,0,0,1-5.4,1.9c-2.34.54-3.87-.3-4.51-2.07a4.18,4.18,0,0,1,2.07-4.9c4.46-2.19,7-6.17,9.7-10a4.78,4.78,0,0,0,.37-1.09c-2.08.25-3.95.59-5.84.67-3.67.16-7.34.31-11,.22a8.86,8.86,0,0,1-6.15-2.32,3.44,3.44,0,0,1-1.16-3.86c.55-1.55,1.64-2.78,3.28-2.79C428,229,436.51,223.83,445,218.49c2.69-1.7,5.29-3.54,7.9-5.36,1.38-1,2.81-1.71,4.43-.79a4.47,4.47,0,0,1,2.57,4.28c0,.87.1,1.76,0,2.62a1.67,1.67,0,0,0,1.51,2,10.73,10.73,0,0,0,3.06.37c2.17-.21,3.64,1,5.11,2.23a3,3,0,0,1,.89,3.08,50.17,50.17,0,0,1-1.27,5.11,66,66,0,0,1-12.34,22,18.29,18.29,0,0,1-2.2,2.2,3.39,3.39,0,0,1-4.93-.09,3.28,3.28,0,0,1,.2-4.73,22.9,22.9,0,0,0,4.54-7.83A8.24,8.24,0,0,0,454.62,242.32Z" transform="translate(-0.48 -0.48)"/><path class="cls-1" d="M682.67,428c-.1,2-.15,4-.32,6-.35,4.22-3.72,6.08-7.52,4.25-2.87-1.39-5.75-2.77-8.69-4a46.82,46.82,0,0,1-10-6.15,11.14,11.14,0,0,1-4.35-6.41,3.89,3.89,0,0,0-.3-1.15c-2-3.52-2.44-7.31-2.36-11.32a22.47,22.47,0,0,0-4-12.84c-1.65-2.53-3-5.25-4.54-7.86a10.41,10.41,0,0,0-1.56-2.1c-2.6-2.65-3.52-5.62-2-9.17.8-1.91,1.4-3.91,2.31-5.77,1.67-3.41,5.24-3.64,7.4-.58a27.91,27.91,0,0,0,2.33,3.05c4.83,5.19,7.74,11.5,10.54,17.87,1.32,3,2.74,6,3.82,9.05a49,49,0,0,1,2.15,8.33,8.49,8.49,0,0,0,4.2,6.06c3.22,2.07,6.37,4.25,9.55,6.39C681.83,423.27,682.9,425.28,682.67,428Z" transform="translate(-0.48 -0.48)"/><path class="cls-1" d="M304.13,544.14c-4.45-.5-8.5-.9-12.53-1.42a7.66,7.66,0,0,1-7-5.94c-1.42-4.85-5.18-7-9.95-7.81-1.26-.21-2.54-.34-3.78-.62-3.74-.85-6.19-3.53-8.56-6.23a58.38,58.38,0,0,1-4.67-6.08,55.24,55.24,0,0,1-3.78-6.65,3.36,3.36,0,0,1,2.72-4.81,12.86,12.86,0,0,1,3.33.15,13.38,13.38,0,0,1,2.5.78c5.42,2,4.22,2.5,9.58.68,3.1-1.05,5.94-.05,8.47,2,2.93,2.37,4.86,5.47,6.76,8.62,1.11,1.85,2.23,3.69,3.48,5.44a5.88,5.88,0,0,0,3.9,2.57c1.65.26,3.29.65,4.95.83a42.17,42.17,0,0,1,9.31,2.13,8.69,8.69,0,0,1,5.69,6c.73,2.26,1.5,4.58.33,7A3.46,3.46,0,0,1,312.3,543C309.46,543.4,306.63,543.78,304.13,544.14Z" transform="translate(-0.48 -0.48)"/><path class="cls-1" d="M482.51,206.59c-1,.65-1.54,1.09-2.16,1.42-2.69,1.39-5.36,2.84-8.11,4.09a8.16,8.16,0,0,1-3.48.71c-3.29-.05-4.77-2.84-3.11-5.68,1.13-1.93,2.3-3.84,3.43-5.77.24-.4.44-.82.81-1.53-1.55,0-2.85,0-4.16,0a10.11,10.11,0,0,1-5.3-1.23,3.45,3.45,0,0,1-1.92-3.56c.17-1.57.72-3,2.36-3.61a6,6,0,0,1,.91-.28c7.89-1.54,15.29-4.55,22.74-7.41,2.45-.95,4.88-1.95,7.37-2.78,3.38-1.14,6,.41,6.9,3.8,1.28,4.72,1.06,9.5.74,14.29-.1,1.51-.26,3-.4,4.53a24,24,0,0,1-4.45,11.75c-2,2.86-4.32,5.54-6.58,8.22a8.08,8.08,0,0,1-4.17,2.67,3.87,3.87,0,0,1-4.3-1.32,3.45,3.45,0,0,1-.25-4,31.2,31.2,0,0,0,3.21-12.68C482.61,207.82,482.56,207.44,482.51,206.59Z" transform="translate(-0.48 -0.48)"/><path class="cls-1" d="M318.38,411.33a53.91,53.91,0,0,1-2.27,6.81A75.71,75.71,0,0,1,302.28,439q-3.72,3.9-7.53,7.7a11.27,11.27,0,0,1-2.49,1.85,3.25,3.25,0,0,1-4.78-1.64,39.45,39.45,0,0,0-4-7.87,3.32,3.32,0,0,1-.12-3.44,68.77,68.77,0,0,1,3.19-6.15c3.78-6.11,7.76-12.1,11.46-18.26a7.21,7.21,0,0,1,6.6-3.9c3.35-.05,6.69-.27,10-.35C317,406.89,318.34,408.2,318.38,411.33Z" transform="translate(-0.48 -0.48)"/><path class="cls-1" d="M572.24,149c-2.65.2-4-1.48-5-3.46-2-3.79-2.78-8-3.63-12.1-.31-1.48-.4-3-.69-4.5a3.89,3.89,0,0,1,1.82-4.11,3.4,3.4,0,0,1,4.25-.18,31.55,31.55,0,0,1,4.51,4.22c1.6,1.76,3,3.7,4.51,5.56s3,3.41,3.15,5.78a5.47,5.47,0,0,1-.56,2.95,13.33,13.33,0,0,1-6,5.32A11.49,11.49,0,0,1,572.24,149Z" transform="translate(-0.48 -0.48)"/><path d="M636.94,256.94c.08,2.29-1.09,3.78-2.5,3.76-1.59,0-2.74-1.47-2.6-3.34a11.11,11.11,0,0,1,.25-1.9,2,2,0,0,1,3.5-1A10.62,10.62,0,0,1,636.94,256.94Z" transform="translate(-0.48 -0.48)"/><path d="M602.21,185.23c.15,1.57-.35,2.23-1.23,2.62a3.84,3.84,0,0,1-4.1-.35,24.43,24.43,0,0,1-7.43-9.21,2.59,2.59,0,0,1,0-2.92,2.45,2.45,0,0,1,3-.74,12.11,12.11,0,0,1,3.21,1.5,20.65,20.65,0,0,1,5.48,6.25A15.1,15.1,0,0,1,602.21,185.23Z" transform="translate(-0.48 -0.48)"/></svg>