<svg id="Layer_1" data-name="Layer 1" xmlns="http://www.w3.org/2000/svg" viewBox="0 0 720 612"><defs><style>.cls-1{fill:none;stroke:#000;stroke-miterlimit:10;stroke-width:0.01px;}</style></defs><path d="M.48,612.48V.48h720v612ZM200.57,274.21c.56,0,1.11,0,1.67,0,5.84-.1,9.23-2.72,10.73-8.36a25.45,25.45,0,0,0,.43-11.41,3.49,3.49,0,0,1,1.91-4.3,23.84,23.84,0,0,0,4.76-3.58c1.79-1.81,1.35-4.1-.74-5.51a13.68,13.68,0,0,0-6.09-2c-2.25-.28-4.38-.73-6.11-2.37a9.08,9.08,0,0,0-2.06-1.19c-3.86-2-8.1-2.31-12.33-2.62-3.42-.25-3.43-.22-3.68-3.54a21.79,21.79,0,0,0-2.71-9.35c-.92-1.59-1.81-3.21-2.85-4.72a4.47,4.47,0,0,1-.59-4.07c1.09-3.84,2.06-7.71,3.06-11.58a5.13,5.13,0,0,0,.21-1.65c-.23-3.41-3.43-5.06-5.91-3a11,11,0,0,1-1.38,1c-1.37.82-2.71,1.7-4.15,2.39-2.14,1-2.92.76-4.14-1.22-.33-.55-.59-1.14-.91-1.69-1.22-2.06-3-2.56-5.07-1.41-.35.2-.65.48-1,.65-3.49,1.7-7,2.41-10.35-.24-2.65-2.07-5.31-1.6-6.93,1.43A57.62,57.62,0,0,0,139,220.64a4.55,4.55,0,0,0,.16,1.65c1.33,4,2.7,8,4.06,12,.43,1.29.85,2.57,1.25,3.87.72,2.36,1.07,4.92,2.2,7.06a65.6,65.6,0,0,0,7.91,12.26,38.67,38.67,0,0,0,12.91,9.37,25.37,25.37,0,0,0,13.06,2.46,12.53,12.53,0,0,1,7.1,1.69A24.85,24.85,0,0,0,200.57,274.21Zm70.34-115.83c-1.52-.11-3.85-.16-6.14-.47-3.2-.43-4.39-2-4.25-5.23a9.63,9.63,0,0,0,0-1.2,3.3,3.3,0,0,0-2.68-3.25,10.92,10.92,0,0,0-3.55-.27c-1.81.21-3.59.74-5.38,1.09a55.38,55.38,0,0,1-6.82,1.21c-4.6.31-5.4-.55-5.53-5.23-.09-3-1.51-4.53-4.56-4.72a11.12,11.12,0,0,0-1.91.1c-5.93.64-11.52,2.57-17,4.75-2.9,1.14-5.72,2.47-8.64,3.55a23.58,23.58,0,0,1-4.66,1,2.64,2.64,0,0,1-3.08-1.71,9.38,9.38,0,0,0-1.11-1.84c-1.79-2.47-4.78-3.06-7.07-1.1a18.12,18.12,0,0,0-6.07,9.26,5.53,5.53,0,0,0,.87,5.21c1.52,1.86,1.47,3.73.73,5.83a44.29,44.29,0,0,1-8.75,14.75c-1.24,1.4-1.8,2.8-1,4.57a3.8,3.8,0,0,0,4,2.47c2.3-.16,4.61-.33,6.92-.53a9.8,9.8,0,0,1,7,1.76,13,13,0,0,0,9.53,2.35A21.28,21.28,0,0,0,206,190a9.36,9.36,0,0,1,7.62.86c1,.52,2,1.07,3,1.57a6.65,6.65,0,0,0,9.14-2.6c1.72-2.9,4.17-5,6.64-7.17,3.8-3.33,8.08-5.07,13.21-4.19.63.11,1.29,0,1.91.14a8.22,8.22,0,0,1,2.49.77,21.06,21.06,0,0,0,9.12,2.65,32.65,32.65,0,0,0,17.67-3.4,32.69,32.69,0,0,1,15.82-3.06,12,12,0,0,0,2.16-.05,3.44,3.44,0,0,0,.7-6.62,8.23,8.23,0,0,0-1.86-.41c-3.41-.46-6.23-1.78-8-5a9.9,9.9,0,0,0-5.42-4.14C277.45,158.28,274.59,158.23,270.91,158.38ZM459,214c-1.83,0-3.67,0-5.5,0a64,64,0,0,0-15.89,2,7.73,7.73,0,0,0-2.42,1,21.51,21.51,0,0,0-7.71,8.66,63.69,63.69,0,0,0-4.58,12.83,56.88,56.88,0,0,0-.81,22.13,11.83,11.83,0,0,0,6.58,9.17,44,44,0,0,0,13.08,4.51,14.26,14.26,0,0,0,9.29-1.41,36.41,36.41,0,0,0,5.06-3.18c6.43-4.75,13.43-8,21.55-8.4,2-.09,4-.1,6,0A3.91,3.91,0,0,0,487,259.9c1.41-1.81,3.06-3.56,4-5.62,4-8.91,7.69-17.91,11.49-26.89a16.43,16.43,0,0,0,.92-2.72,3.26,3.26,0,0,0-2-3.92c-.72-.34-1.51-.52-2.25-.81C486.26,214.84,472.77,213.34,459,214Zm-143.2,31,.35-.56c1.06.17,2.14.31,3.2.52,4,.8,6.28-1.54,5.32-5.4a9.73,9.73,0,0,0-.74-2.27c-1.93-3.58-3.83-7.19-5.91-10.68a23.4,23.4,0,0,0-6.48-7,7.13,7.13,0,0,1-.75-.58,4.12,4.12,0,0,1-.79-4.67,3.51,3.51,0,0,1,3.72-1.57,11.4,11.4,0,0,1,2.71.86,3.32,3.32,0,0,0,3.78-.58,3.26,3.26,0,0,0,.9-3.52,9,9,0,0,0-.78-2c-1.87-3.53-3.65-7.11-5.7-10.53a27.93,27.93,0,0,0-7.94-8.86c-4.93-3.43-10.26-5.24-16.26-3.94-3.35.72-6.65,1.69-9.91,2.73-3.56,1.15-6.91,2.92-10.69,3.45-6.69.93-13.31,1.79-19.59-1.89a11.08,11.08,0,0,0-6.5-1.3c-2.44.19-3.9,1.69-3.57,4.1a22.5,22.5,0,0,0,1.39,5.3,89.87,89.87,0,0,0,8.53,15.8,29.1,29.1,0,0,0,11.78,10.27,39.67,39.67,0,0,0,4.79,2.19,35,35,0,0,1,10.88,6.38,13.88,13.88,0,0,1,4.4,5c1,2.33,1.9,4.74,2.85,7.11,1.59,3.93,3.2,7.84,6.07,11.08,2.44,2.74,6.25,4.67,10.36,1.52a2.75,2.75,0,0,1,.4-.26c1.69-.93,2.45-.88,3.86.44,1.17,1.1,2.17,2.38,3.4,3.38a24.38,24.38,0,0,0,4.54,3,3.42,3.42,0,0,0,2.71-.12,5.32,5.32,0,0,0,3.14-4.48,21.7,21.7,0,0,0-2.45-10.85C316.46,246.4,316.11,245.71,315.77,245Zm35.44-28.47c-2.53.2-7.26.33-11.92.95-6.61.89-10.06,6.68-8.13,13.1q.73,2.42,1.32,4.86c1.12,4.66,1.13,9.19-1.7,13.37a11.61,11.61,0,0,0-1.25,2.58c-.51,1.43-.93,2.89-1.32,4.35a3.78,3.78,0,0,0,1.1,3.95,37.06,37.06,0,0,0,3.45,3,48.11,48.11,0,0,0,15.89,7.11c5.11,1.35,10.25,2.51,15.59,2.42a8.1,8.1,0,0,0,5.4-1.61c1.87-1.61,4-3.11,5.36-5.07a171.06,171.06,0,0,0,9.44-14.43,20,20,0,0,1,15-10.32c1.81-.3,3.65-.41,5.47-.64a9.43,9.43,0,0,0,5.49-2.72,31.15,31.15,0,0,0,5.89-8.11c1.92-3.77,3.12-7.7,2.57-12-.37-2.87-1.66-4.27-4.52-4.72-7.15-1.12-14.08.31-20.77,2.48a55.81,55.81,0,0,1-18.87,2.74C367.61,217.61,360.5,217.06,351.21,216.55ZM241.66,298.17c1.27.72,2.16,1.2,3,1.72,2.17,1.3,4.43.67,5.28-1.68a8.92,8.92,0,0,0,.42-3.74,23.92,23.92,0,0,0-4.71-12.4c-2.9-3.82-6-7.46-9-11.19-1-1.24-2.06-2.46-2.94-3.78-1.46-2.17-1.32-2.7.54-4.49a13.65,13.65,0,0,0,2.37-2.68,3.19,3.19,0,0,0-2.3-4.92,31.49,31.49,0,0,0-7.39.24c-2.72.43-3.56,1.95-3.79,4.7-.36,4.21-.83,8.42-1.47,12.6a10.58,10.58,0,0,1-1.69,4.18,20,20,0,0,1-12.86,8.49,34.59,34.59,0,0,1-10.5.38,46.07,46.07,0,0,1-18.29-5.27,24.64,24.64,0,0,0-5.06-2.12,4.56,4.56,0,0,0-3.18.27c-3.22,1.86-5.75,4.45-6.17,8.33a25.59,25.59,0,0,0,.11,7.62c1.71,8.63,5.56,16.46,9.68,24.15a4,4,0,0,0,4.75,1.79,9.14,9.14,0,0,0,1.84-1.1c2.06-1.34,3.3-1.24,5.14.42.48.42,1,.82,1.46,1.24,2.67,2.37,4,1.48,6.28.24,1.46-.81,1.85-2.37,2.2-3.83a25.51,25.51,0,0,0,.41-3.81c.1-1.2.1-2.4.23-3.59.22-1.82,1.41-2.55,3-1.73a11.32,11.32,0,0,1,3.33,2.28,53.29,53.29,0,0,1,5,6.41,41.65,41.65,0,0,1,3,6c1.51,3.42,4.28,3.88,6.63,1.05a18.54,18.54,0,0,0,3.6-6.7c.4-1.38.66-2.8,1.08-4.17.53-1.74,1.62-2.21,3.31-1.52a7.53,7.53,0,0,1,3.47,3.18c2.28,3.49,5,3.43,7.17-.18a47.57,47.57,0,0,0,4.93-12.44C240.87,300.93,241.21,299.8,241.66,298.17ZM448.39,526c1.3,2.18,2.66,4,5.26,4.33a13.12,13.12,0,0,0,6.32-1q3.6-1.32,7.21-2.6c3.41-1.19,6.32-3,7.95-6.4a15.35,15.35,0,0,1,1.68-2.62c3.75-5,7.45-10,11.32-14.89,2.37-3,4.92-5.89,7.56-8.66,3-3.18,6.18-6.21,8.91-9.69a19.92,19.92,0,0,0,4.59-11.32c.27-4.34.22-8.64-1.2-12.8-1.18-3.45-3.36-4.6-6.9-3.67-1.39.36-2.74.85-4.11,1.31-5.55,1.88-11.12,3.36-17.13,2.46a6.55,6.55,0,0,0-6.16,2,65.43,65.43,0,0,0-4.71,6.61c-2.85,4.53-5.39,9.25-8.41,13.66-5.23,7.67-11.51,14.51-17.95,21.36a4.94,4.94,0,0,1-1.06-.17,18.18,18.18,0,0,0-9.7-.44,7.35,7.35,0,0,0-4.95,2.62,8.8,8.8,0,0,0,3.46,13.3,17.56,17.56,0,0,0,4.17,1c.91.15,1.72.28,2,1.33.66,2.21,2.43,3.26,4.37,4.13C443.32,526.89,445.77,526.67,448.39,526ZM324.57,286.53c-.16,3-.43,5.66-.44,8.38a12.14,12.14,0,0,1-3.31,8.46,34.29,34.29,0,0,0-7.91,17,27.1,27.1,0,0,1-1.18,4.63c-2,5.19-6.42,7.52-11.81,6.28-2.9-.67-4.86.84-5,3.84a12.18,12.18,0,0,0,7.21,11.24c4.76,2.06,9.47,4.17,14.7,4.89,4.66.64,9.28,1.65,14,1,2.3-.3,4.6-.63,6.91-.73,5.24-.24,9.77-1.85,13.5-5.75a13.27,13.27,0,0,0,3.94-8c.14-1.35.06-2.72.11-4.07.33-7.8-1.3-15.44-1.81-23.17-.3-4.53-.28-9.09-.46-13.64a9,9,0,0,1,2.23-5.9,21,21,0,0,0,2.5-4.06c1.11-2.57-.54-4.86-3.36-4.87a23,23,0,0,1-2.87,0c-7.7-1.06-15.08-2.86-20.77-8.77a3.4,3.4,0,0,0-5.75,1.49,11.4,11.4,0,0,0-.47,3.3C324.53,281,324.57,283.89,324.57,286.53Zm126,5.82c-.33-3.49-1.69-5.32-5-6.31a24.41,24.41,0,0,0-4.67-1c-4-.35-8-.63-12-.75a27.91,27.91,0,0,1-11.72-3.06,5.88,5.88,0,0,1-3.36-4.12c-1.58-7.23-5.85-12.65-11.53-17.13a5.63,5.63,0,0,0-6.87-.44,19.93,19.93,0,0,0-3.65,2.7c-5.95,6-11.92,12-17.7,18.2-4.06,4.34-4.12,8-.59,12.93a68.26,68.26,0,0,0,11.21,11.77c2.43,2.07,4.79,4.23,7,6.5a69.94,69.94,0,0,0,17,12.39c3.11,1.65,6.38,2.12,9.63.4a45.39,45.39,0,0,0,6.55-3.92c5.76-4.44,11.32-9.13,17.08-13.57a20,20,0,0,0,7.85-11.64C450,294.33,450.27,293.34,450.53,292.35Zm46.31-16.51c.4,3.32.64,6.68,1.26,10,.87,4.65,3.59,8.48,5.87,12.52,3.65,6.49,9.13,11.72,12.42,18.45,1.05,2.15,3.93,2.16,5.46.28a13.35,13.35,0,0,0,1-1.61q8.19-13.69,16.34-27.4a17.47,17.47,0,0,0,1.73-4.19c1.26-4.52.77-9-.48-13.48a60.46,60.46,0,0,1-1.43-6.54c-.94-5.9.22-11.62,1.6-17.32,1-4-.12-7.75-1.38-11.48a2.61,2.61,0,0,0-.71-.95c-5-4.88-10.76-8.29-17.75-9.29-2.14-.3-5,.5-5.93,3.07-.55,1.58-1.43,3-1.92,4.64a59.47,59.47,0,0,1-7.06,14.35A54.91,54.91,0,0,0,496.84,275.84Zm5.39,75a7.32,7.32,0,0,0,6.76-4.24c1.45-2.74,2.52-5.68,3.72-8.55,1.87-4.48.47-8.42-2.13-12.12-.73-1-1.56-2-2.29-3.08-2.09-3-4.3-5.95-6.2-9.08-3.06-5.06-6-10.18-8.82-15.39-2.34-4.35-4.45-8.84-6.53-13.32a66.41,66.41,0,0,0-5.88-11,4.7,4.7,0,0,0-4.69-2.15c-5,.46-8.7,3-11.66,6.76a7.52,7.52,0,0,0-1.73,4.37c-.5,11-1.09,22-1.64,33-.26,5.06-.81,10.06-3.59,14.49-1.79,2.85.54,8.21,4.7,8.31a28.45,28.45,0,0,0,5.22-.34c4.61-.78,9.23-1.41,13.73.25,5.62,2.08,11.22,4.2,15.19,9.14A7.51,7.51,0,0,0,502.23,350.87ZM163.17,150.49c-2.61-.1-3.31-.67-3.62-3.2a9.11,9.11,0,0,1,.07-2.39c.25-1.65.63-3.29.87-5a3.29,3.29,0,0,0-4.51-3.71,12.29,12.29,0,0,0-2.91,1.64,27,27,0,0,0-9.56,13.45c-1,3.19-1.87,6.44-2.92,9.63a8.77,8.77,0,0,1-1.63,2.86,7.67,7.67,0,0,1-6.32,2.82c-4.14-.1-7.48,1.38-9.46,5.27-1,2-2,4-3.16,5.89-1.41,2.41-2.81,4.82-4.41,7.1a5.47,5.47,0,0,1-5.25,2.26,23,23,0,0,0-2.62-.1c-2.68.08-4.83,1.11-5.94,3.68-.92,2.12-1.77,4.28-2.6,6.44-1.29,3.32-2.75,4.17-6.21,3.54-2.31-.41-4,.63-4.29,3a31.27,31.27,0,0,0,0,4.74,7.25,7.25,0,0,0,4.17,6.5,11.21,11.21,0,0,0,11,.1c4.64-2.3,9.66-3.27,14.67-4.24a6.53,6.53,0,0,1,6,1.37c2.73,2.37,5.13,1.66,6.6-1.74.91-2.11,1.61-4.33,2.32-6.53,2.09-6.54,4.13-13.1,6.2-19.65a10.59,10.59,0,0,1,3.91-5.31,4.79,4.79,0,0,1,4.07-.85c3.25.64,5.27,2.77,6.86,5.48s3.64,3.1,6.11,1.09,4.12-4.64,5.85-7.24,3.48-5.36,5.49-7.83c2.83-3.5,2.65-5.61-.89-7.88a2.16,2.16,0,0,1-1-2.88c.54-1.41,1.13-2.81,1.75-4.19,1.29-2.86-.46-5.45-3.59-5.23a13.58,13.58,0,0,0-1.87.41ZM208.25,515.9l4,2a11.79,11.79,0,0,0,8,.88c3.86-.87,5.55-3.92,6.23-7.44.72-3.76,1.08-7.58,1.47-11.39a11.47,11.47,0,0,0-.22-4.05,9.62,9.62,0,0,1,.49-5.62A57.63,57.63,0,0,1,236,475c2.13-3,4.18-6,6.28-9.06a4,4,0,0,0,.41-4.3,3.43,3.43,0,0,0-3.62-1.83,12.86,12.86,0,0,0-3.53.48,81.07,81.07,0,0,0-8.59,3.6c-7,3.61-13.27,8.58-20.48,11.93a15.21,15.21,0,0,1-7.18,1.36,5,5,0,0,1-2.18-.79,21.93,21.93,0,0,1-1.86-1.51c-2.65-2-5-1.46-6.32,1.59-.93,2.12-1.75,4.29-2.71,6.4-1.79,3.95-3.82,7.68-7.5,10.33a17.25,17.25,0,0,0-5.92,7.7,11.05,11.05,0,0,0,0,9.06c2.3,5.09,7.77,6.61,12.35,3.45.49-.34,1-.63,1.52-.93C193.56,521.4,199.58,522.36,208.25,515.9Zm97-214.77a21.23,21.23,0,0,1,2.35,1.29c2.46,1.82,4.88,1.18,5.84-1.72a35.86,35.86,0,0,0,.32-21.48,6,6,0,0,0-.88-2,29.38,29.38,0,0,0-8.82-8c-3.07-1.75-6.41-1.67-9.81-1.48-4.21.23-7.06,2.16-8.59,6.09a17.11,17.11,0,0,1-4.9,7c-1.85,1.56-3.89,2.28-6.22,1.48-2.8-.94-5.54-2-8.31-3.06A22.62,22.62,0,0,0,262.4,278c-3-.48-4.93,1.28-4.89,4.34,0,2,.15,4,.17,6a31.09,31.09,0,0,0,2.92,12.76c1.66,3.6,2.67,4.08,6.51,3.13.23-.05.46-.14.7-.17a3.6,3.6,0,0,1,4.31,2.83c.26.84.46,1.7.66,2.55,1.92,8.15,2.15,16.47,2.71,24.77a55.86,55.86,0,0,0,.82,6.16,3.27,3.27,0,0,0,2.64,2.79,3.21,3.21,0,0,0,3.72-1.54,39.75,39.75,0,0,0,2.87-5.77c2.78-7.44,4.32-15.2,5.66-23a7.18,7.18,0,0,1,2.11-3.9,3,3,0,0,1,2.47,2.39c.6,1.89,1.08,3.83,1.58,5.76a3.48,3.48,0,0,0,3,3,3.82,3.82,0,0,0,3.8-2.39,10.76,10.76,0,0,0,.69-2.79c.2-2,.34-4,.39-6C305.32,306.46,305.27,304,305.27,301.13ZM257.8,442.83a10.12,10.12,0,0,0-2.38-6.62,13.37,13.37,0,0,1-2.63-6.09c-.86-6-1.86-12-2.69-18-.63-4.51-1.06-9.05-1.63-13.56a3.47,3.47,0,0,0-5.1-2.9c-.58.26-1.13.59-1.69.9a132,132,0,0,0-16.05,10.89,43.25,43.25,0,0,0-11.13,13,143.72,143.72,0,0,0-15.08,36.93c-.88,3.5.45,7.51,6,6.84a17.36,17.36,0,0,0,5.72-1.6,100.43,100.43,0,0,0,10.35-6c5.49-3.65,11.23-6.49,18-6.3a24.78,24.78,0,0,1,6.58,1C251.56,453,257.74,448.65,257.8,442.83ZM235.37,335c-1-.69-1.91-1.37-2.85-2.06a5.21,5.21,0,0,0-5.24-.61c-1.78.73-2.13,2.53-2.08,4.25a21.09,21.09,0,0,0,.63,3.76c.18.86.54,1.67.74,2.53,1.94,8.4,3.86,16.83,4.1,25.49.23,7.86.1,15.71-4.93,22.49a3.24,3.24,0,0,0,.33,4.38,3.36,3.36,0,0,0,4.59.21,15.93,15.93,0,0,0,3.53-3.52A111.63,111.63,0,0,0,240,382c1.48-2.91,2.56-6,3.84-9a3.59,3.59,0,0,1,3-2,2.45,2.45,0,0,1,2.39,2,37.84,37.84,0,0,1,.86,4.21c.29,2.12,1.13,3.33,2.79,3.73,1.5.36,2.95-.29,4-2a19.57,19.57,0,0,0,3-7c.42-2.28.91-4.54,1.44-6.79a11.09,11.09,0,0,1,1-2.69,1.89,1.89,0,0,1,2.19-1.08c.9.2.93,1,1,1.68a3.3,3.3,0,0,0,2.92,3.05,3.53,3.53,0,0,0,3.73-2,11.15,11.15,0,0,0,1.22-8.35,53.6,53.6,0,0,0-2.51-7.46,68.8,68.8,0,0,1-5-19.67c-.23-2.95-.31-5.91-.41-8.86-.07-2.09-.93-3.47-2.54-3.88s-3,.26-4.09,2.12a16,16,0,0,1-1.36,2.25A17.09,17.09,0,0,1,255.5,322c-.76-.74-1.3-1.32-1.89-1.83-1.87-1.62-3.67-3.35-5.68-4.78-2.36-1.69-6.06-1-6.36,2.84a5.51,5.51,0,0,1-.08.71c-.79,3.34-1.48,6.71-2.43,10A12.88,12.88,0,0,1,235.37,335Zm70.81,178c2.74,1.45,5.15,2.87,7.68,4a6.15,6.15,0,0,0,6.18-.32,10.12,10.12,0,0,0,3.93-5.55,25.4,25.4,0,0,0,1-10.43,8.54,8.54,0,0,1,.76-4.41A22.49,22.49,0,0,0,326,476.9c-1.52-3.43-3.17-6.82-5-10.08a29.07,29.07,0,0,1-2.83-6.83,54.72,54.72,0,0,1-1.19-5.37,3.44,3.44,0,0,0-2.8-3.18,3.22,3.22,0,0,0-3.64,1.72c-1.35,2.44-2.58,4.95-3.72,7.49-.75,1.67-1.21,3.46-1.87,5.18-1.65,4.34-5.05,6.41-9.45,7.07-1.26.19-2.55.09-3.82.21a3.51,3.51,0,0,0-3.39,4.28c.07.47.15.94.25,1.41a43.11,43.11,0,0,1,.52,13.12,3.22,3.22,0,0,1-2.39,3.09c-5.73,2.12-10.46,5.5-12.91,11.39-1.65,4-.58,6.17,2,7.93a9.39,9.39,0,0,0,7.54,1.43l2.56-.57c2.21,3.39,5.37,4.36,9,3.51a24.4,24.4,0,0,0,5.56-2.14C302.47,515.51,304.38,514.17,306.18,513.05ZM573.62,277.52a17.77,17.77,0,0,0-1.87-7.73c-1.7-3.44-3.47-6.84-5.17-10.28a23.69,23.69,0,0,0-6.21-7.83q-3-2.46-6-4.76a3.73,3.73,0,0,0-4.09-.29,3.29,3.29,0,0,0-1.92,3.55,28.24,28.24,0,0,0,.88,4.94c1.21,4,2.66,7.87,3.87,11.84,1,3.46,1.66,7,.76,10.63a56.45,56.45,0,0,1-8.92,19.78,105.42,105.42,0,0,0-13.88,26.13c-2,5.62-4,11.29-7,16.51a16.17,16.17,0,0,0-1.06,2.41,3.22,3.22,0,0,0,.63,3.57,3.41,3.41,0,0,0,3.73,1c4-1.16,8-2.39,11.92-3.57,1-.29,2-.54,3-.74,3-.62,6.13-1.13,9.16-1.83,4.47-1,6.17-3,6.25-7.5a111.29,111.29,0,0,1,4.57-27.85c1.83-6.55,3.95-13,7.74-18.76a27.92,27.92,0,0,0,2.56-5.13A31.12,31.12,0,0,0,573.62,277.52ZM361.86,352.4c0,1.12,0,2.24,0,3.36a6.71,6.71,0,0,0,1.57,4.43,26.56,26.56,0,0,0,4.07,4.39c5.07,4,10.66,7.06,17.11,8.23,4.65.84,8.7-.18,11.8-4.05a26.44,26.44,0,0,0,4.15-8.05c1.61-4.6,3.26-9.19,4.84-13.8.74-2.19,1.37-4.42,2-6.64a4.47,4.47,0,0,0-.81-4.52c-2-2.24-3.85-4.82-6.27-6.53-3.91-2.79-7.6-5.85-11.48-8.64a74.89,74.89,0,0,1-12.68-11.3,28.11,28.11,0,0,0-4.07-3.71c-2.35-1.81-5-.94-5.86,1.87a9.45,9.45,0,0,0-.52,2.33c-.19,3.51-.4,7-.43,10.53a67.15,67.15,0,0,1-.88,12.4A110.56,110.56,0,0,0,361.86,352.4ZM578.47,433a34.45,34.45,0,0,0-1.89-3.64,97.58,97.58,0,0,1-10.52-19.86c-.63-1.64-1.5-3.18-2.17-4.8A110.92,110.92,0,0,1,559.7,394a59.17,59.17,0,0,1-2.84-17.44A3.34,3.34,0,0,0,554,373a3.46,3.46,0,0,0-3.76,2.32c-.25.58-.37,1.23-.63,1.81a80.11,80.11,0,0,1-3.51,7.57c-5.52,9.56-10.75,19.25-14.33,29.74-.67,2-1.21,4-2,5.9-1.18,2.9-1.11,3.51,1,5.7,4.24,4.34,8.51,8.66,12.67,13.07a28.43,28.43,0,0,1,5.72,7.91,31.12,31.12,0,0,0,3.33,5.53c2.45,3.4,5.92,3.76,9,.89a77.05,77.05,0,0,0,5.78-6.07c3.33-3.88,6.57-7.84,9.79-11.81A15.56,15.56,0,0,0,578.47,433Zm-74.81-38a73.88,73.88,0,0,0,.41,15.8,24.18,24.18,0,0,0,7.38,15.44c2.1,2,4.4,2.07,6.16-.23a17.21,17.21,0,0,0,2.27-4.41c2.25-6,4.06-12.15,6.69-17.95,2.82-6.24,6.34-12.16,9.63-18.18,3.94-7.23,8.06-14.36,11.89-21.64a73.24,73.24,0,0,0,4.12-9.94c.91-2.59-1-4.82-3.79-4.64a17.7,17.7,0,0,0-2.37.38,136.93,136.93,0,0,0-22.51,6.6,70.36,70.36,0,0,0-14,7.29c-1.73,1.18-3.26,2.58-3.71,4.79a93.36,93.36,0,0,0-2.16,23.58C503.71,392.88,503.66,393.92,503.66,395ZM350.19,409.44c1.95-.33,5.33-.87,8.71-1.47a107.36,107.36,0,0,0,37.82-13.76c1.51-.92,2.51-1.95,2.28-3.81-.21-1.67-1.26-2.66-3.48-3.06a61.65,61.65,0,0,0-6.87-.95,26.34,26.34,0,0,1-10.16-2.54c-5.53-2.69-11.08-5.35-16.49-8.26a105.63,105.63,0,0,1-9.49-6,28.54,28.54,0,0,0-7.81-4.12c-6.2-1.82-10.73-.58-13.6,6.11a12.76,12.76,0,0,0-.56,1.57,59.16,59.16,0,0,0-2.5,14.61c-.21,7.27,1.94,13.46,8.35,17.74A23.09,23.09,0,0,0,350.19,409.44Zm-147.36-64c2.7,1.18,4.57,2.31,5.53,4.69,1.19,2.93,4.28,3.29,6.28.82a15.5,15.5,0,0,0,.89-1.42c1.82-3,2.27-6.27,2.4-9.65.14-3.57-2.41-5.69-5.91-4.78a5.62,5.62,0,0,1-3.92-.42c-2.64-1.18-3.94-3.35-4.57-6.06-.58-2.49-2.83-3.73-4.85-2.57a6.35,6.35,0,0,0-1.86,2.08c-.8,1.19-1.35,2.55-2.2,3.69a5,5,0,0,1-6.21,1.48,12.24,12.24,0,0,1-2.55-1.74,9,9,0,0,0-6.85-2.26c-2,.19-4,.4-6,.45-3.77.1-4.54-.48-5.94-3.92-1.5-3.7-3-7.38-4.59-11.06a3.35,3.35,0,0,0-3.32-2.3A3.27,3.27,0,0,0,156,314.9q-.94,2.72-1.77,5.47a17.78,17.78,0,0,0,2,14.51c1.36,2.35,2.56,4.8,3.91,7.15,1.74,3,3,6.15,2.7,9.75a3.51,3.51,0,0,0,1.67,3.5,11.49,11.49,0,0,1,5.69,8.91c.34,2.71,2.6,4.13,5.39,4a8,8,0,0,0,3-.67c1.52-.69,2.92-1.65,4.4-2.42,1-.5,2-1.1,3.28-.34.19.76.37,1.61.6,2.45a3.56,3.56,0,0,0,3.64,2.87,7.19,7.19,0,0,0,4.7-1.46,15.44,15.44,0,0,0,5.44-7.71,35.56,35.56,0,0,0,1.86-11.53C202.43,348.23,202.66,347.07,202.83,345.48ZM407,376a36.52,36.52,0,0,0,0,5c.5,3.61,3.54,5.26,6.87,3.87,3.83-1.6,7.67-3.18,11.46-4.88,6.27-2.81,12.48-5.73,18-10a15.45,15.45,0,0,0,5.89-8.12,16.1,16.1,0,0,0-.66-11.66,19.82,19.82,0,0,1-2.15-7.27c-.18-5.62.6-11.15,3.71-16.1a21,21,0,0,0,1.85-4.13,5.19,5.19,0,0,0-.93-5c-2-2.57-3.54-3.33-6.37-1.84a28.41,28.41,0,0,0-5.36,3.57,122.63,122.63,0,0,0-22.95,26.27A56.48,56.48,0,0,0,407,376ZM45,287.63a8,8,0,0,1-1.57.17c-3.87-.41-5.65,2-4.1,5.64A26.71,26.71,0,0,0,44.37,301a47.08,47.08,0,0,1,6,7.18,3.42,3.42,0,0,0,4.38,1.46c1.62-.68,2.32-2.12,1.95-4.18-.22-1.25-.56-2.49-.76-3.75-.92-5.92-2.06-11.82-2.64-17.77a83.72,83.72,0,0,1,.68-22.24,22.46,22.46,0,0,1,5.24-11.36c4-4.57,7.89-9.26,11.55-14.11a69.51,69.51,0,0,0,5.92-9.56c2.3-4.34.47-8.08-4.28-9.35-.68-.18-1.35-.4-2-.6a20,20,0,0,0-.75-3.09A6.45,6.45,0,0,0,66,210a4,4,0,0,1-2.67-3.88c0-1.12-.18-2.23-.32-3.34a3.33,3.33,0,0,0-3.13-3.08,3.43,3.43,0,0,0-3.62,2.83,17.17,17.17,0,0,0-.13,1.91c-.45,5.65-.88,11.31-1.38,17a11.08,11.08,0,0,1-.55,2.22,30.13,30.13,0,0,0-4.62,1.75c-1.87,1.08-1.71,3.13-1.75,4.95,0,2.31.22,4.64.07,7-.18,2.62-.6,5.23-1,7.83a4,4,0,0,1-2.68,3.14c-1.26.46-1.78-.78-2.51-1.45l-.18-.16A3.35,3.35,0,0,0,36,248.34a6.16,6.16,0,0,0-.24,2.13c.47,4.85.76,9.73,2.64,14.32a9,9,0,0,1,.34,1.56c-.86,0-1.49,0-2.12,0-2.5.22-4.1,2.67-2.89,4.84,1.71,3.05,3.3,6.21,5.83,8.75A24.84,24.84,0,0,1,45,287.63ZM88.07,170c-.91-2-.93-2.36-.44-4.33A3.79,3.79,0,0,0,86,161.07c-1.55-.94-2.9-.71-4.58.69-1.86,1.55-2.74,3.7-3.67,5.82a40.06,40.06,0,0,0-2.88,11.35c-.09.77,0,1.69-1,1.93a2,2,0,0,1-2.21-1.09c-.31-.46-.49-1-.81-1.47a9.88,9.88,0,0,0-1.63-2A3.27,3.27,0,0,0,63.74,178a9.32,9.32,0,0,0-.22,3.56,34.84,34.84,0,0,0,4.3,12.13,96,96,0,0,0,6.84,9.54,3.7,3.7,0,0,0,5.85.34,14.23,14.23,0,0,0,2.06-3.2c1.18-2.27,2.26-4.58,3.4-6.87a4.56,4.56,0,0,1,3.44-2.74c3.88-.5,6.24-2.91,8.21-6,1.21-1.88,2.59-3.65,3.89-5.47a2.65,2.65,0,0,1,2.21-1.22,10.08,10.08,0,0,0,6.79-3.14,87.62,87.62,0,0,0,12.32-13.72,22,22,0,0,1,7.75-7,10.18,10.18,0,0,0,4.84-5.44A3.37,3.37,0,0,0,132.2,144c-.94,0-1.89,0-2.91,0-.09-.44-.16-.74-.23-1-.76-3.19-3-4.13-5.71-2.31a26.29,26.29,0,0,0-3.54,2.85c-2.92,2.85-5.75,5.78-8.63,8.66a10.28,10.28,0,0,1-5.13,3c-2.07.45-3.16-.18-3.88-2.15-.13-.37-.25-.76-.4-1.13a3.3,3.3,0,0,0-3.09-2.26,3.19,3.19,0,0,0-3.13,1.81,16.86,16.86,0,0,0-1.33,2.82c-1.24,3.87-2.43,7.77-3.57,11.67C90.2,167.46,89.77,169,88.07,170Zm67.84,110.9c0-2.35.1-4.67,0-7a15.81,15.81,0,0,0-4.29-10.15c-4-4.36-9.19-6.87-14.28-9.49a5.45,5.45,0,0,0-6.44,1.11c-1,1-2.11,2-3.06,3-3.49,4-6.92,8-10.4,11.93a4.15,4.15,0,0,0-1,3.78,88.09,88.09,0,0,0,5.17,18.15c1.92,4.47,3.92,8.91,5.93,13.35,1.61,3.55,3.86,6.41,8,7.25,2.68.56,5.37,1,8,.27,3.68-1.08,5.34-4.1,6.63-7.38.87-2.23,1.67-4.49,2.54-6.72C155,293.16,157,287.26,155.91,280.86Zm58.92,105.2.66,1.22a3.28,3.28,0,0,0,3.32,1.89,3.36,3.36,0,0,0,3-2.71c.19-.69.31-1.4.46-2.11,1.68-7.81,1.61-15.7.94-23.61-.17-2.07-1-3.12-2.66-3.53a3.48,3.48,0,0,0-3.86,1.78,38.75,38.75,0,0,1-10.14,10.4c-4.1,2.93-8.31,5.69-12.51,8.46a8.61,8.61,0,0,1-3.26,1.43,23.4,23.4,0,0,1-4.95,0c-1.33-.08-1.61-1.4-2.29-2.25a3.85,3.85,0,0,0-4.25-1.51,33.59,33.59,0,0,1-10.47.82,4.25,4.25,0,0,0-4.1,1.94,15.42,15.42,0,0,1-7.81,6.4,3.36,3.36,0,0,0-.66,5.87,5.45,5.45,0,0,0,2.13,1.05,11.1,11.1,0,0,1,6.38,4.39,21,21,0,0,1,4.29,7.92c1.07,4.25,4.88,6.3,9.09,5a16.48,16.48,0,0,0,4.82-2.57,70.59,70.59,0,0,0,12.58-12.45c.71-.86,1.38-1.77,2.15-2.58a2.15,2.15,0,0,1,3.24-.18c-.27,1.45-.52,3-.86,4.53a3.37,3.37,0,0,0,1.22,3.63,3.48,3.48,0,0,0,4,.05,6.6,6.6,0,0,0,1.56-1.47c1.67-2.24,3.33-4.49,4.9-6.8C212.83,389.52,213.75,387.85,214.83,386.06Zm16-147.21a3.8,3.8,0,0,0,2.6,3.77c2.11.91,4.2,1.89,6.24,3a4.91,4.91,0,0,1,1.91,1.73,30.32,30.32,0,0,1,2.58,5.12,44.41,44.41,0,0,1,2.82,14,3.59,3.59,0,0,0,5.75,3,12.09,12.09,0,0,0,4-5,2.15,2.15,0,0,1,3.06-1.32,4.89,4.89,0,0,1,1.07.54c3.1,2.1,6.28,4.1,9.27,6.35s5.13,2,7.06-1a18.77,18.77,0,0,0-1.39-21c-2.8-3.47-6.82-5.22-10.54-7.36-1.9-1.09-2-1.14-1.44-3.13.95-3.36.09-4.89-3.32-5.33A19.66,19.66,0,0,1,249,226.37c-6.32-6.23-10.46-13.85-14.1-21.8-.91-2-2.18-3-3.93-2.78a3.42,3.42,0,0,0-3.05,3.9,91.92,91.92,0,0,0,1,10.24C230.12,223.49,232,231,230.87,238.85ZM97.1,364.26V364c1.6,0,3.19,0,4.79,0a38.62,38.62,0,0,0,6.19-.3c3.92-.72,7.82-1.61,11.66-2.69,2.59-.74,5-1.92,7.57-2.92a4.51,4.51,0,0,0,2.75-3.14,85.25,85.25,0,0,0,2.29-9.3,9.67,9.67,0,0,1,3.31-6.09,69.76,69.76,0,0,0,6.54-7,9.17,9.17,0,0,0,2.06-5.52c.17-2.51-.94-3.93-3.37-4.43-1.25-.26-2.48-.61-3.74-.81-1.89-.3-3.78-.55-5.69-.72a6.17,6.17,0,0,0-4.45,1.41,50.65,50.65,0,0,1-11.23,6.37c-6.4,2.69-12.78,5.44-19.25,7.95-4.41,1.71-6.7,4.76-6.83,9.39a6.89,6.89,0,0,1-3.44,5.92,25.24,25.24,0,0,0-3.71,2.62c-2.87,2.75-3.47,6.48,1.51,7.95a15.07,15.07,0,0,0,2.78.69C90.26,363.72,93.68,364,97.1,364.26Zm16.8-143.81c-1.19.18-1.91.26-2.61.41-3.43.76-6.85,1.55-10.28,2.32a52,52,0,0,0-11.66,4.3,14.54,14.54,0,0,0-5.65,4.7,5.08,5.08,0,0,0-.69,5.41c.6,1.3,1.08,2.67,1.77,3.93,2.38,4.34,4.85,8.63,7.25,12.95a8.2,8.2,0,0,0,5,4.23A27.72,27.72,0,0,1,100.1,260a34.62,34.62,0,0,0,8.48,2.44,5.78,5.78,0,0,0,5.06-1.46c2.26-2,4.67-3.89,6.89-6q5.41-5.07,10.63-10.36a20.8,20.8,0,0,0,2.73-3.92,3.17,3.17,0,0,0-.48-4c-.63-.72-1.24-1.46-1.86-2.19a49.52,49.52,0,0,0-10.32-9.6c-1.46-1-2.82-2.11-4.3-3A25.54,25.54,0,0,0,113.9,220.45ZM288.16,363.88h.17a38.28,38.28,0,0,0-.24-4.29,3.06,3.06,0,0,0-3-2.63,3.24,3.24,0,0,0-3.39,2.14,6.54,6.54,0,0,0-.32,1.15,17.36,17.36,0,0,1-5.62,9.55,133,133,0,0,0-17.49,19,7.91,7.91,0,0,0-1.71,5.95A119.08,119.08,0,0,0,260,412.14a53.12,53.12,0,0,1,1.7,12.54,12.6,12.6,0,0,0,.82,4.43A3.29,3.29,0,0,0,268,430.2a13.18,13.18,0,0,0,1.7-2A166.54,166.54,0,0,0,285.49,400a41.48,41.48,0,0,0,3.28-16.79C288.84,376.79,288.39,370.33,288.16,363.88Zm-190.06-38a57.84,57.84,0,0,0,6.9-1.57,11.34,11.34,0,0,0,4.41-2.75,60.29,60.29,0,0,0,5.44-6.68,9.44,9.44,0,0,0,1.58-8.59c-1.76-6.3-3.27-12.68-4.84-19-.78-3.18-1.38-6.4-2.22-9.56a5.27,5.27,0,0,0-4.06-4c-2.64-.61-5.31-1.13-8-1.55-3.94-.6-5,.05-6.59,3.71-.21.51-.39,1-.56,1.58a156.75,156.75,0,0,0-4.58,20.3c-1.07,6.13-1.22,12.4-3,18.42a3.36,3.36,0,0,0,1.53,4c2,1.31,4,2.66,6,3.88S94.61,325.76,98.1,325.86Zm204.6,83.63,0-.21c-3.17.33-6.35.69-9.52,1a6.19,6.19,0,0,0-4.2,2.48,129.59,129.59,0,0,0-9.29,12.8,8.47,8.47,0,0,0-1.54,5.57c.43,7.76,2.57,15.11,5.08,22.37a15.57,15.57,0,0,0,9.16,9.85,4.34,4.34,0,0,0,6.2-3.7,21,21,0,0,1,4.31-11,55.77,55.77,0,0,1,7.53-7.68,7.4,7.4,0,0,0,2.78-7.82,49.56,49.56,0,0,1-.62-5.46c-.42-4.61-.75-9.24-1.26-13.84-.35-3-1.69-4.14-4.77-4.31C305.26,409.43,304,409.49,302.7,409.49Zm173.72,10.56h-.16c0,7.43,0,14.86,0,22.29a22.92,22.92,0,0,0,.35,4.05c.59,3.27,2.28,4.82,5.54,5.4a18,18,0,0,0,7.13-.31c5.92-1.3,11.65-3.41,17.76-3.91a5.24,5.24,0,0,0,2.39-1,10.78,10.78,0,0,0,4-5.8,3.39,3.39,0,0,0-1.73-4.47c-1-.58-2.21-.91-3.3-1.41-6.76-3.08-11.37-7.75-12.15-15.58-.43-4.37-1.34-8.68-2-13-1-6.93-5.35-11-11.43-13.62-3.31-1.43-6.67-1-6.53,4.57C476.56,404.86,476.42,412.46,476.42,420.05Zm191,41.34c2.28,0,4.51,0,6.75,0a3.38,3.38,0,0,0,2.28-5.88c-.27-.29-.6-.52-.88-.81-3.34-3.49-6.25-7-6.73-12.3s-4-8.36-8.73-9.21a14.7,14.7,0,0,0-10.38,1.93,2.7,2.7,0,0,1-3.31,0,15.73,15.73,0,0,1-2.13-1.52c-4.85-5-9.72-9.94-14.48-15-2.54-2.71-6-3.94-9.22-2.32a30.65,30.65,0,0,0-6.54,4.76c-1.76,1.6-1.51,3.6.29,5.21,3.39,3.05,6.72,6.17,10.26,9a50.56,50.56,0,0,0,8.3,5.64,61.7,61.7,0,0,1,10.12,6.79,8.88,8.88,0,0,1,2.75,3.77c2,4.93,5.57,8.15,11,8.88C660.32,460.86,663.91,461.07,667.45,461.39ZM579.36,528c.34.45.59.76.81,1.09,2.5,3.75,7,4,9.85.43,4.38-5.58,6.92-11.77,5.6-19.09a7.14,7.14,0,0,0-2.77-4.58,9.15,9.15,0,0,0-2.73-1.47c-3.57-1.13-7.17-2.16-10.77-3.19a43.44,43.44,0,0,1-12.49-5.34c-3-2-5.22-1.36-6.6,1.91a44.81,44.81,0,0,0-3,13.49,7.24,7.24,0,0,1-2.52,5.45,4.63,4.63,0,0,0-1.92,3.7c0,3.64,2.45,6.28,6.11,6.06a19.36,19.36,0,0,0,4.59-1.17,25.59,25.59,0,0,0,2.73-1.19C569.6,530.32,573.09,531.62,579.36,528Zm8.88-33.15c2.79-.17,4.24-1.24,4.48-3.91a15.24,15.24,0,0,0-.39-4c-1.18-6.28-2.5-12.53-3.6-18.82-.94-5.42-1.88-10.86-1.67-16.42a28.23,28.23,0,0,0-.41-5,3.29,3.29,0,0,0-4.93-2.69,10.28,10.28,0,0,0-2.66,2.33c-2.39,2.57-4.69,5.22-7.07,7.79-2.55,2.76-5.17,5.45-7.74,8.19-1.31,1.4-2.48,3-3.91,4.21a4.35,4.35,0,0,0-1.55,4.25c.36,2.45.66,4.9,1,7.36a7.67,7.67,0,0,0,3.08,5.43,36.23,36.23,0,0,0,8.8,5.3c3.66,1.39,7.31,2.78,11,4.13C584.49,493.64,586.37,494.21,588.24,494.84ZM150,374.1c1.41-.32,1.87.65,2.54,1.29,2.2,2.1,5.29,1.26,5.83-1.74a22,22,0,0,0,.29-6.42c-1.21-9.46-5.42-17.81-10-26a2.73,2.73,0,0,0-3.58-1.05,3.77,3.77,0,0,0-2.42,3.77c-.06,4.52-1.27,8.83-2.22,13.21-1.11,5.1-4.4,8-9,9.72a24.68,24.68,0,0,1-5.1,1.25c-2.29.33-4.61.41-6.92.6a4.57,4.57,0,0,0-4.53,4.89,26,26,0,0,0,1,5.64,3,3,0,0,0,2.73,2.36,3.21,3.21,0,0,0,3.42-1.7,16.92,16.92,0,0,0,.86-2c2.23-.17,4,.89,5.85,1.82a5.6,5.6,0,0,1,3.16,4c.51,2.5,1,5,1.56,7.5A12.21,12.21,0,0,0,134.7,395c1.32,2.07,3.84,2.13,5.52.32.48-.53.89-1.13,1.32-1.7a47.57,47.57,0,0,0,7.7-16.65C149.49,376,149.75,375,150,374.1ZM598,337a28.53,28.53,0,0,0-.61-3.47q-4.07-13.92-8.23-27.8a63.19,63.19,0,0,0-2.42-7c-1.11-2.56-2.47-5-3.81-7.46a3.42,3.42,0,0,0-3.83-1.84A3.32,3.32,0,0,0,576.3,292c-.26.92-.61,1.82-.9,2.73-1.14,3.58-2.31,7.15-3.41,10.73a18.46,18.46,0,0,0,.08,11.08c1.6,5.18,3,10.44,4.28,15.71a72.42,72.42,0,0,0,4.12,13.25,25.26,25.26,0,0,0,3.29,5.53c2.49,3,6,2.88,8.69-.05C595.94,347.17,597.51,342.58,598,337ZM84.67,265.68c-.25-4.6-1.28-8.75-4.37-12.25-.9-1-1.66-2.16-2.56-3.17a3.64,3.64,0,0,0-5.68-.29,17.34,17.34,0,0,0-1.32,1.39c-4,4.41-6.44,9.67-8.77,15.05a17.37,17.37,0,0,0-1.26,8.87c.92,9.63,1.76,19.27,2.7,28.9.37,3.89.89,7.78,1.41,11.66a3.87,3.87,0,0,0,2.75,3.58c1.69.49,2.88-.31,4-1.49,2-2.15,2.67-4.86,3.29-7.59q4-17.76,8-35.54C83.54,271.78,84.07,268.73,84.67,265.68ZM297.43,380.43h-.26c0,2,0,4,0,6s.06,4.17-.1,6.23a4.21,4.21,0,0,0,2.44,4.5,37.6,37.6,0,0,1,3.34,2.32,27.9,27.9,0,0,0,11,4.49,5.83,5.83,0,0,0,7.18-5.92c0-.8-.14-1.59-.21-2.39-.34-4-.87-8-.28-12,.69-4.65,1.4-9.31,2.18-13.95.59-3.57,0-5-3.28-6.5q-7.57-3.58-15.19-7.11a19.41,19.41,0,0,0-3.36-1.25c-3.9-1-5.93,1-5.21,4.88.13.7.39,1.38.51,2.09.43,2.67,1,5.34,1.18,8C297.58,373.39,297.43,376.92,297.43,380.43Zm313.5,30.81a9.77,9.77,0,0,0,8.1-4.05c1.63-2,.36-3.94-.32-5.86-.19-.53-.39-1.06-.62-1.57-1.07-2.4-2.37-4.72-3.21-7.2-1.84-5.45-3.57-10.94-5.13-16.47a143.16,143.16,0,0,1-4.37-19.1,3.44,3.44,0,0,0-4.16-3,5.79,5.79,0,0,0-4.4,2.57c-2.3,3.55-4.61,7.09-6.79,10.72a3.85,3.85,0,0,0-.34,2.73c1,3.77,2.13,7.53,3.46,11.21,2.83,7.81,5.79,15.57,8.75,23.33a20.58,20.58,0,0,0,1.85,3.62,3.77,3.77,0,0,0,1.7,1.57C607.41,410.43,609.45,410.86,610.93,411.24ZM497,382a100,100,0,0,0-5.23-22.69,8.71,8.71,0,0,0-1.88-3,36,36,0,0,0-12.56-9c-6.17-2.44-11.77-1-16.69,3.26a9.72,9.72,0,0,0-1.89,2.45,3.68,3.68,0,0,0,.41,4.25,3.3,3.3,0,0,0,3.92.88c.22-.09.44-.2.66-.28,2.95-.94,4.53-.43,6.61,1.84a8.15,8.15,0,0,1,2.18,5.4c.26,6,3.21,10.77,7.31,14.9a20.87,20.87,0,0,0,3.79,2.87c2.5,1.57,5.08,3,7.59,4.53a3.44,3.44,0,0,0,5.42-2.16A25.53,25.53,0,0,0,497,382Zm-277-167a42.59,42.59,0,0,0-.65-5.43c-1.57-6.4-8.34-10.07-13-10.44-2.12-.16-4.27-.11-6,1.21a44.94,44.94,0,0,0-6.16,5.61,4.63,4.63,0,0,0-.81,5.56,5.2,5.2,0,0,1,.47,1.84c.23,2.22.4,4.45.59,6.67s1.11,3.23,3.28,3.77a39.6,39.6,0,0,1,5,1.67c3,1.17,5.87,2.51,8.86,3.62a4.21,4.21,0,0,0,5.22-1.74,16.55,16.55,0,0,0,1.39-2.51A22.92,22.92,0,0,0,220.06,215ZM82.5,342.67a4.62,4.62,0,0,0-.2-.93,62.14,62.14,0,0,0-5.51-10.3,12.61,12.61,0,0,0-6.88-5.22,3.9,3.9,0,0,0-4.42.77c-1.24,1.21-1.43,2.6-.67,4.4,1.77,4.18,3.52,8.38,5.3,12.56.78,1.83,1.58,3.66,2.45,5.46a2.92,2.92,0,0,0,3.28,1.82C78.81,350.65,82.56,346,82.5,342.67Z" transform="translate(-0.48 -0.48)"/><path class="cls-1" d="M200.57,274.21A24.85,24.85,0,0,1,187.69,271a12.53,12.53,0,0,0-7.1-1.69,25.37,25.37,0,0,1-13.06-2.46,38.67,38.67,0,0,1-12.91-9.37,65.6,65.6,0,0,1-7.91-12.26c-1.13-2.14-1.48-4.7-2.2-7.06-.4-1.3-.82-2.58-1.25-3.87-1.36-4-2.73-8-4.06-12a4.55,4.55,0,0,1-.16-1.65,57.62,57.62,0,0,1,7.29-24.85c1.62-3,4.28-3.5,6.93-1.43,3.4,2.65,6.86,1.94,10.35.24.36-.17.66-.45,1-.65,2-1.15,3.85-.65,5.07,1.41.32.55.58,1.14.91,1.69,1.22,2,2,2.26,4.14,1.22,1.44-.69,2.78-1.57,4.15-2.39a11,11,0,0,0,1.38-1c2.48-2,5.68-.4,5.91,3a5.13,5.13,0,0,1-.21,1.65c-1,3.87-2,7.74-3.06,11.58a4.47,4.47,0,0,0,.59,4.07c1,1.51,1.93,3.13,2.85,4.72a21.79,21.79,0,0,1,2.71,9.35c.25,3.32.26,3.29,3.68,3.54,4.23.31,8.47.59,12.33,2.62a9.08,9.08,0,0,1,2.06,1.19c1.73,1.64,3.86,2.09,6.11,2.37a13.68,13.68,0,0,1,6.09,2c2.09,1.41,2.53,3.7.74,5.51a23.84,23.84,0,0,1-4.76,3.58,3.49,3.49,0,0,0-1.91,4.3,25.45,25.45,0,0,1-.43,11.41c-1.5,5.64-4.89,8.26-10.73,8.36C201.68,274.22,201.13,274.21,200.57,274.21Z" transform="translate(-0.48 -0.48)"/><path class="cls-1" d="M270.91,158.38c3.68-.15,6.54-.1,9.29,1a9.9,9.9,0,0,1,5.42,4.14c1.77,3.19,4.59,4.51,8,5a8.23,8.23,0,0,1,1.86.41,3.44,3.44,0,0,1-.7,6.62,12,12,0,0,1-2.16.05,32.69,32.69,0,0,0-15.82,3.06,32.65,32.65,0,0,1-17.67,3.4,21.06,21.06,0,0,1-9.12-2.65,8.22,8.22,0,0,0-2.49-.77c-.62-.13-1.28,0-1.91-.14-5.13-.88-9.41.86-13.21,4.19-2.47,2.15-4.92,4.27-6.64,7.17a6.65,6.65,0,0,1-9.14,2.6c-1-.5-2-1-3-1.57A9.36,9.36,0,0,0,206,190a21.28,21.28,0,0,1-4.23.74,13,13,0,0,1-9.53-2.35,9.8,9.8,0,0,0-7-1.76c-2.31.2-4.62.37-6.92.53a3.8,3.8,0,0,1-4-2.47c-.8-1.77-.24-3.17,1-4.57a44.29,44.29,0,0,0,8.75-14.75c.74-2.1.79-4-.73-5.83a5.53,5.53,0,0,1-.87-5.21,18.12,18.12,0,0,1,6.07-9.26c2.29-2,5.28-1.37,7.07,1.1a9.38,9.38,0,0,1,1.11,1.84,2.64,2.64,0,0,0,3.08,1.71,23.58,23.58,0,0,0,4.66-1c2.92-1.08,5.74-2.41,8.64-3.55,5.5-2.18,11.09-4.11,17-4.75a11.12,11.12,0,0,1,1.91-.1c3.05.19,4.47,1.68,4.56,4.72.13,4.68.93,5.54,5.53,5.23a55.38,55.38,0,0,0,6.82-1.21c1.79-.35,3.57-.88,5.38-1.09a10.92,10.92,0,0,1,3.55.27,3.3,3.3,0,0,1,2.68,3.25,9.63,9.63,0,0,1,0,1.2c-.14,3.23,1.05,4.8,4.25,5.23C267.06,158.22,269.39,158.27,270.91,158.38Z" transform="translate(-0.48 -0.48)"/><path class="cls-1" d="M459,214c13.8-.65,27.29.85,40.23,5.95.74.29,1.53.47,2.25.81a3.26,3.26,0,0,1,2,3.92,16.43,16.43,0,0,1-.92,2.72c-3.8,9-7.53,18-11.49,26.89-.91,2.06-2.56,3.81-4,5.62a3.91,3.91,0,0,1-3.43,1.36c-2-.06-4-.05-6,0-8.12.37-15.12,3.65-21.55,8.4a36.41,36.41,0,0,1-5.06,3.18,14.26,14.26,0,0,1-9.29,1.41,44,44,0,0,1-13.08-4.51,11.83,11.83,0,0,1-6.58-9.17,56.88,56.88,0,0,1,.81-22.13,63.69,63.69,0,0,1,4.58-12.83,21.51,21.51,0,0,1,7.71-8.66,7.73,7.73,0,0,1,2.42-1,64,64,0,0,1,15.89-2C455.3,214,457.14,214,459,214Z" transform="translate(-0.48 -0.48)"/><path class="cls-1" d="M315.77,245c.34.69.69,1.38,1,2.08A21.7,21.7,0,0,1,319.24,258a5.32,5.32,0,0,1-3.14,4.48,3.42,3.42,0,0,1-2.71.12,24.38,24.38,0,0,1-4.54-3c-1.23-1-2.23-2.28-3.4-3.38-1.41-1.32-2.17-1.37-3.86-.44a2.75,2.75,0,0,0-.4.26c-4.11,3.15-7.92,1.22-10.36-1.52-2.87-3.24-4.48-7.15-6.07-11.08-.95-2.37-1.81-4.78-2.85-7.11a13.88,13.88,0,0,0-4.4-5,35,35,0,0,0-10.88-6.38,39.67,39.67,0,0,1-4.79-2.19,29.1,29.1,0,0,1-11.78-10.27,89.87,89.87,0,0,1-8.53-15.8,22.5,22.5,0,0,1-1.39-5.3c-.33-2.41,1.13-3.91,3.57-4.1a11.08,11.08,0,0,1,6.5,1.3c6.28,3.68,12.9,2.82,19.59,1.89,3.78-.53,7.13-2.3,10.69-3.45,3.26-1,6.56-2,9.91-2.73,6-1.3,11.33.51,16.26,3.94A27.93,27.93,0,0,1,314.6,197c2,3.42,3.83,7,5.7,10.53a9,9,0,0,1,.78,2,3.26,3.26,0,0,1-.9,3.52,3.32,3.32,0,0,1-3.78.58,11.4,11.4,0,0,0-2.71-.86,3.51,3.51,0,0,0-3.72,1.57,4.12,4.12,0,0,0,.79,4.67,7.13,7.13,0,0,0,.75.58,23.4,23.4,0,0,1,6.48,7c2.08,3.49,4,7.1,5.91,10.68a9.73,9.73,0,0,1,.74,2.27c1,3.86-1.36,6.2-5.32,5.4-1.06-.21-2.14-.35-3.2-.52Z" transform="translate(-0.48 -0.48)"/><path class="cls-1" d="M351.21,216.55c9.29.51,16.4,1.06,23.51,1.24a55.81,55.81,0,0,0,18.87-2.74c6.69-2.17,13.62-3.6,20.77-2.48,2.86.45,4.15,1.85,4.52,4.72.55,4.3-.65,8.23-2.57,12a31.15,31.15,0,0,1-5.89,8.11,9.43,9.43,0,0,1-5.49,2.72c-1.82.23-3.66.34-5.47.64a20,20,0,0,0-15,10.32A171.06,171.06,0,0,1,375,265.51c-1.4,2-3.49,3.46-5.36,5.07a8.1,8.1,0,0,1-5.4,1.61c-5.34.09-10.48-1.07-15.59-2.42a48.11,48.11,0,0,1-15.89-7.11,37.06,37.06,0,0,1-3.45-3,3.78,3.78,0,0,1-1.1-3.95c.39-1.46.81-2.92,1.32-4.35a11.61,11.61,0,0,1,1.25-2.58c2.83-4.18,2.82-8.71,1.7-13.37q-.59-2.44-1.32-4.86c-1.93-6.42,1.52-12.21,8.13-13.1C344,216.88,348.68,216.75,351.21,216.55Z" transform="translate(-0.48 -0.48)"/><path class="cls-1" d="M241.66,298.17c-.45,1.63-.79,2.76-1.09,3.91a47.57,47.57,0,0,1-4.93,12.44c-2.15,3.61-4.89,3.67-7.17.18a7.53,7.53,0,0,0-3.47-3.18c-1.69-.69-2.78-.22-3.31,1.52-.42,1.37-.68,2.79-1.08,4.17a18.54,18.54,0,0,1-3.6,6.7c-2.35,2.83-5.12,2.37-6.63-1.05a41.65,41.65,0,0,0-3-6,53.29,53.29,0,0,0-5-6.41,11.32,11.32,0,0,0-3.33-2.28c-1.61-.82-2.8-.09-3,1.73-.13,1.19-.13,2.39-.23,3.59a25.51,25.51,0,0,1-.41,3.81c-.35,1.46-.74,3-2.2,3.83-2.25,1.24-3.61,2.13-6.28-.24-.48-.42-1-.82-1.46-1.24-1.84-1.66-3.08-1.76-5.14-.42a9.14,9.14,0,0,1-1.84,1.1,4,4,0,0,1-4.75-1.79c-4.12-7.69-8-15.52-9.68-24.15a25.59,25.59,0,0,1-.11-7.62c.42-3.88,3-6.47,6.17-8.33a4.56,4.56,0,0,1,3.18-.27,24.64,24.64,0,0,1,5.06,2.12,46.07,46.07,0,0,0,18.29,5.27,34.59,34.59,0,0,0,10.5-.38A20,20,0,0,0,220,276.73a10.58,10.58,0,0,0,1.69-4.18c.64-4.18,1.11-8.39,1.47-12.6.23-2.75,1.07-4.27,3.79-4.7a31.49,31.49,0,0,1,7.39-.24,3.19,3.19,0,0,1,2.3,4.92,13.65,13.65,0,0,1-2.37,2.68c-1.86,1.79-2,2.32-.54,4.49.88,1.32,1.93,2.54,2.94,3.78,3,3.73,6.13,7.37,9,11.19a23.92,23.92,0,0,1,4.71,12.4,8.92,8.92,0,0,1-.42,3.74c-.85,2.35-3.11,3-5.28,1.68C243.82,299.37,242.93,298.89,241.66,298.17Z" transform="translate(-0.48 -0.48)"/><path class="cls-1" d="M448.39,526c-2.62.65-5.07.87-7.45-.19-1.94-.87-3.71-1.92-4.37-4.13-.31-1.05-1.12-1.18-2-1.33a17.56,17.56,0,0,1-4.17-1,8.8,8.8,0,0,1-3.46-13.3,7.35,7.35,0,0,1,4.95-2.62,18.18,18.18,0,0,1,9.7.44,4.94,4.94,0,0,0,1.06.17c6.44-6.85,12.72-13.69,17.95-21.36,3-4.41,5.56-9.13,8.41-13.66a65.43,65.43,0,0,1,4.71-6.61,6.55,6.55,0,0,1,6.16-2c6,.9,11.58-.58,17.13-2.46,1.37-.46,2.72-.95,4.11-1.31,3.54-.93,5.72.22,6.9,3.67,1.42,4.16,1.47,8.46,1.2,12.8a19.92,19.92,0,0,1-4.59,11.32c-2.73,3.48-5.88,6.51-8.91,9.69-2.64,2.77-5.19,5.66-7.56,8.66-3.87,4.89-7.57,9.91-11.32,14.89a15.35,15.35,0,0,0-1.68,2.62c-1.63,3.43-4.54,5.21-7.95,6.4q-3.62,1.28-7.21,2.6a13.12,13.12,0,0,1-6.32,1C451.05,530,449.69,528.2,448.39,526Z" transform="translate(-0.48 -0.48)"/><path class="cls-1" d="M324.57,286.53c0-2.64,0-5.52,0-8.4a11.4,11.4,0,0,1,.47-3.3,3.4,3.4,0,0,1,5.75-1.49c5.69,5.91,13.07,7.71,20.77,8.77a23,23,0,0,0,2.87,0c2.82,0,4.47,2.3,3.36,4.87a21,21,0,0,1-2.5,4.06,9,9,0,0,0-2.23,5.9c.18,4.55.16,9.11.46,13.64.51,7.73,2.14,15.37,1.81,23.17-.05,1.35,0,2.72-.11,4.07a13.27,13.27,0,0,1-3.94,8c-3.73,3.9-8.26,5.51-13.5,5.75-2.31.1-4.61.43-6.91.73-4.76.63-9.38-.38-14-1-5.23-.72-9.94-2.83-14.7-4.89a12.18,12.18,0,0,1-7.21-11.24c.12-3,2.08-4.51,5-3.84,5.39,1.24,9.86-1.09,11.81-6.28a27.1,27.1,0,0,0,1.18-4.63,34.29,34.29,0,0,1,7.91-17,12.14,12.14,0,0,0,3.31-8.46C324.14,292.19,324.41,289.48,324.57,286.53Z" transform="translate(-0.48 -0.48)"/><path class="cls-1" d="M450.53,292.35c-.26,1-.53,2-.75,3A20,20,0,0,1,441.93,307c-5.76,4.44-11.32,9.13-17.08,13.57a45.39,45.39,0,0,1-6.55,3.92c-3.25,1.72-6.52,1.25-9.63-.4a69.94,69.94,0,0,1-17-12.39c-2.25-2.27-4.61-4.43-7-6.5a68.26,68.26,0,0,1-11.21-11.77c-3.53-4.89-3.47-8.59.59-12.93,5.78-6.18,11.75-12.19,17.7-18.2a19.93,19.93,0,0,1,3.65-2.7,5.63,5.63,0,0,1,6.87.44c5.68,4.48,10,9.9,11.53,17.13a5.88,5.88,0,0,0,3.36,4.12,27.91,27.91,0,0,0,11.72,3.06c4,.12,8,.4,12,.75a24.41,24.41,0,0,1,4.67,1C448.84,287,450.2,288.86,450.53,292.35Z" transform="translate(-0.48 -0.48)"/><path class="cls-1" d="M496.84,275.84a54.91,54.91,0,0,1,9.05-29A59.47,59.47,0,0,0,513,232.5c.49-1.59,1.37-3.06,1.92-4.64.9-2.57,3.79-3.37,5.93-3.07,7,1,12.77,4.41,17.75,9.29a2.61,2.61,0,0,1,.71.95c1.26,3.73,2.35,7.48,1.38,11.48-1.38,5.7-2.54,11.42-1.6,17.32a60.46,60.46,0,0,0,1.43,6.54c1.25,4.47,1.74,9,.48,13.48a17.47,17.47,0,0,1-1.73,4.19q-8.12,13.72-16.34,27.4a13.35,13.35,0,0,1-1,1.61c-1.53,1.88-4.41,1.87-5.46-.28-3.29-6.73-8.77-12-12.42-18.45-2.28-4-5-7.87-5.87-12.52C497.48,282.52,497.24,279.16,496.84,275.84Z" transform="translate(-0.48 -0.48)"/><path class="cls-1" d="M502.23,350.87a7.51,7.51,0,0,1-5.84-2.87c-4-4.94-9.57-7.06-15.19-9.14-4.5-1.66-9.12-1-13.73-.25a28.45,28.45,0,0,1-5.22.34c-4.16-.1-6.49-5.46-4.7-8.31,2.78-4.43,3.33-9.43,3.59-14.49.55-11,1.14-22,1.64-33a7.52,7.52,0,0,1,1.73-4.37c3-3.8,6.7-6.3,11.66-6.76a4.7,4.7,0,0,1,4.69,2.15,66.41,66.41,0,0,1,5.88,11c2.08,4.48,4.19,9,6.53,13.32,2.8,5.21,5.76,10.33,8.82,15.39,1.9,3.13,4.11,6.07,6.2,9.08.73,1.05,1.56,2,2.29,3.08,2.6,3.7,4,7.64,2.13,12.12-1.2,2.87-2.27,5.81-3.72,8.55A7.32,7.32,0,0,1,502.23,350.87Z" transform="translate(-0.48 -0.48)"/><path class="cls-1" d="M163.17,150.49l3.28-.64a13.58,13.58,0,0,1,1.87-.41c3.13-.22,4.88,2.37,3.59,5.23-.62,1.38-1.21,2.78-1.75,4.19a2.16,2.16,0,0,0,1,2.88c3.54,2.27,3.72,4.38.89,7.88-2,2.47-3.73,5.17-5.49,7.83s-3.4,5.24-5.85,7.24-4.5,1.65-6.11-1.09-3.61-4.84-6.86-5.48a4.79,4.79,0,0,0-4.07.85,10.59,10.59,0,0,0-3.91,5.31c-2.07,6.55-4.11,13.11-6.2,19.65-.71,2.2-1.41,4.42-2.32,6.53-1.47,3.4-3.87,4.11-6.6,1.74a6.53,6.53,0,0,0-6-1.37c-5,1-10,1.94-14.67,4.24a11.21,11.21,0,0,1-11-.1,7.25,7.25,0,0,1-4.17-6.5,31.27,31.27,0,0,1,0-4.74c.33-2.38,2-3.42,4.29-3,3.46.63,4.92-.22,6.21-3.54.83-2.16,1.68-4.32,2.6-6.44,1.11-2.57,3.26-3.6,5.94-3.68a23,23,0,0,1,2.62.1,5.47,5.47,0,0,0,5.25-2.26c1.6-2.28,3-4.69,4.41-7.1,1.12-1.92,2.15-3.91,3.16-5.89,2-3.89,5.32-5.37,9.46-5.27a7.67,7.67,0,0,0,6.32-2.82,8.77,8.77,0,0,0,1.63-2.86c1-3.19,1.87-6.44,2.92-9.63a27,27,0,0,1,9.56-13.45,12.29,12.29,0,0,1,2.91-1.64,3.29,3.29,0,0,1,4.51,3.71c-.24,1.66-.62,3.3-.87,5a9.11,9.11,0,0,0-.07,2.39C159.86,149.82,160.56,150.39,163.17,150.49Z" transform="translate(-0.48 -0.48)"/><path class="cls-1" d="M208.25,515.9c-8.67,6.46-14.69,5.5-21.56-3.47-.5.3-1,.59-1.52.93-4.58,3.16-10,1.64-12.35-3.45a11.05,11.05,0,0,1,0-9.06,17.25,17.25,0,0,1,5.92-7.7c3.68-2.65,5.71-6.38,7.5-10.33,1-2.11,1.78-4.28,2.71-6.4,1.35-3.05,3.67-3.62,6.32-1.59a21.93,21.93,0,0,0,1.86,1.51,5,5,0,0,0,2.18.79,15.21,15.21,0,0,0,7.18-1.36c7.21-3.35,13.45-8.32,20.48-11.93a81.07,81.07,0,0,1,8.59-3.6,12.86,12.86,0,0,1,3.53-.48,3.43,3.43,0,0,1,3.62,1.83,4,4,0,0,1-.41,4.3c-2.1,3-4.15,6.06-6.28,9.06a57.63,57.63,0,0,0-7.82,15.3,9.62,9.62,0,0,0-.49,5.62,11.47,11.47,0,0,1,.22,4.05c-.39,3.81-.75,7.63-1.47,11.39-.68,3.52-2.37,6.57-6.23,7.44a11.79,11.79,0,0,1-8-.88Z" transform="translate(-0.48 -0.48)"/><path class="cls-1" d="M305.27,301.13c0,2.87.05,5.33,0,7.8-.05,2-.19,4-.39,6a10.76,10.76,0,0,1-.69,2.79,3.82,3.82,0,0,1-3.8,2.39,3.48,3.48,0,0,1-3-3c-.5-1.93-1-3.87-1.58-5.76a3,3,0,0,0-2.47-2.39,7.18,7.18,0,0,0-2.11,3.9c-1.34,7.81-2.88,15.57-5.66,23a39.75,39.75,0,0,1-2.87,5.77,3.21,3.21,0,0,1-3.72,1.54,3.27,3.27,0,0,1-2.64-2.79,55.86,55.86,0,0,1-.82-6.16c-.56-8.3-.79-16.62-2.71-24.77-.2-.85-.4-1.71-.66-2.55a3.6,3.6,0,0,0-4.31-2.83c-.24,0-.47.12-.7.17-3.84.95-4.85.47-6.51-3.13a31.09,31.09,0,0,1-2.92-12.76c0-2-.15-4-.17-6,0-3.06,1.88-4.82,4.89-4.34a22.62,22.62,0,0,1,3.85,1.29c2.77,1,5.51,2.12,8.31,3.06,2.33.8,4.37.08,6.22-1.48a17.11,17.11,0,0,0,4.9-7c1.53-3.93,4.38-5.86,8.59-6.09,3.4-.19,6.74-.27,9.81,1.48a29.38,29.38,0,0,1,8.82,8,6,6,0,0,1,.88,2,35.86,35.86,0,0,1-.32,21.48c-1,2.9-3.38,3.54-5.84,1.72A21.23,21.23,0,0,0,305.27,301.13Z" transform="translate(-0.48 -0.48)"/><path class="cls-1" d="M257.8,442.83c-.06,5.82-6.24,10.17-11.76,8.48a24.78,24.78,0,0,0-6.58-1c-6.77-.19-12.51,2.65-18,6.3a100.43,100.43,0,0,1-10.35,6,17.36,17.36,0,0,1-5.72,1.6c-5.52.67-6.85-3.34-6-6.84a143.72,143.72,0,0,1,15.08-36.93,43.25,43.25,0,0,1,11.13-13,132,132,0,0,1,16.05-10.89c.56-.31,1.11-.64,1.69-.9a3.47,3.47,0,0,1,5.1,2.9c.57,4.51,1,9.05,1.63,13.56.83,6,1.83,12,2.69,18a13.37,13.37,0,0,0,2.63,6.09A10.12,10.12,0,0,1,257.8,442.83Z" transform="translate(-0.48 -0.48)"/><path class="cls-1" d="M235.37,335a12.88,12.88,0,0,0,3.69-6.09c.95-3.29,1.64-6.66,2.43-10a5.51,5.51,0,0,0,.08-.71c.3-3.83,4-4.53,6.36-2.84,2,1.43,3.81,3.16,5.68,4.78.59.51,1.13,1.09,1.89,1.83a17.09,17.09,0,0,0,1.95-1.74,16,16,0,0,0,1.36-2.25c1.06-1.86,2.4-2.56,4.09-2.12s2.47,1.79,2.54,3.88c.1,2.95.18,5.91.41,8.86a68.8,68.8,0,0,0,5,19.67,53.6,53.6,0,0,1,2.51,7.46,11.15,11.15,0,0,1-1.22,8.35,3.53,3.53,0,0,1-3.73,2,3.3,3.3,0,0,1-2.92-3.05c-.11-.72-.14-1.48-1-1.68a1.89,1.89,0,0,0-2.19,1.08,11.09,11.09,0,0,0-1,2.69c-.53,2.25-1,4.51-1.44,6.79a19.57,19.57,0,0,1-3,7c-1.06,1.68-2.51,2.33-4,2-1.66-.4-2.5-1.61-2.79-3.73a37.84,37.84,0,0,0-.86-4.21,2.45,2.45,0,0,0-2.39-2,3.59,3.59,0,0,0-3,2c-1.28,3-2.36,6.13-3.84,9a111.63,111.63,0,0,1-5.78,9.93,15.93,15.93,0,0,1-3.53,3.52,3.36,3.36,0,0,1-4.59-.21,3.24,3.24,0,0,1-.33-4.38c5-6.78,5.16-14.63,4.93-22.49-.24-8.66-2.16-17.09-4.1-25.49-.2-.86-.56-1.67-.74-2.53a21.09,21.09,0,0,1-.63-3.76c0-1.72.3-3.52,2.08-4.25a5.21,5.21,0,0,1,5.24.61C233.46,333.65,234.41,334.33,235.37,335Z" transform="translate(-0.48 -0.48)"/><path class="cls-1" d="M306.18,513.05c-1.8,1.12-3.71,2.46-5.76,3.51a24.4,24.4,0,0,1-5.56,2.14c-3.66.85-6.82-.12-9-3.51l-2.56.57a9.39,9.39,0,0,1-7.54-1.43c-2.61-1.76-3.68-4-2-7.93,2.45-5.89,7.18-9.27,12.91-11.39a3.22,3.22,0,0,0,2.39-3.09,43.11,43.11,0,0,0-.52-13.12c-.1-.47-.18-.94-.25-1.41a3.51,3.51,0,0,1,3.39-4.28c1.27-.12,2.56,0,3.82-.21,4.4-.66,7.8-2.73,9.45-7.07.66-1.72,1.12-3.51,1.87-5.18,1.14-2.54,2.37-5,3.72-7.49a3.22,3.22,0,0,1,3.64-1.72,3.44,3.44,0,0,1,2.8,3.18,54.72,54.72,0,0,0,1.19,5.37,29.07,29.07,0,0,0,2.83,6.83c1.85,3.26,3.5,6.65,5,10.08a22.49,22.49,0,0,1-.21,19.47,8.54,8.54,0,0,0-.76,4.41,25.4,25.4,0,0,1-1,10.43,10.12,10.12,0,0,1-3.93,5.55,6.15,6.15,0,0,1-6.18.32C311.33,515.92,308.92,514.5,306.18,513.05Z" transform="translate(-0.48 -0.48)"/><path class="cls-1" d="M573.62,277.52a31.12,31.12,0,0,1-1.09,4.05A27.92,27.92,0,0,1,570,286.7c-3.79,5.77-5.91,12.21-7.74,18.76a111.29,111.29,0,0,0-4.57,27.85c-.08,4.5-1.78,6.46-6.25,7.5-3,.7-6.11,1.21-9.16,1.83-1,.2-2,.45-3,.74-4,1.18-7.94,2.41-11.92,3.57a3.41,3.41,0,0,1-3.73-1,3.22,3.22,0,0,1-.63-3.57A16.17,16.17,0,0,1,524,340c3-5.22,5-10.89,7-16.51a105.42,105.42,0,0,1,13.88-26.13,56.45,56.45,0,0,0,8.92-19.78c.9-3.64.29-7.17-.76-10.63-1.21-4-2.66-7.87-3.87-11.84a28.24,28.24,0,0,1-.88-4.94,3.29,3.29,0,0,1,1.92-3.55,3.73,3.73,0,0,1,4.09.29q3.06,2.29,6,4.76a23.69,23.69,0,0,1,6.21,7.83c1.7,3.44,3.47,6.84,5.17,10.28A17.77,17.77,0,0,1,573.62,277.52Z" transform="translate(-0.48 -0.48)"/><path class="cls-1" d="M361.86,352.4a110.56,110.56,0,0,1,2.55-19.7,67.15,67.15,0,0,0,.88-12.4c0-3.51.24-7,.43-10.53a9.45,9.45,0,0,1,.52-2.33c.9-2.81,3.51-3.68,5.86-1.87a28.11,28.11,0,0,1,4.07,3.71,74.89,74.89,0,0,0,12.68,11.3c3.88,2.79,7.57,5.85,11.48,8.64,2.42,1.71,4.24,4.29,6.27,6.53a4.47,4.47,0,0,1,.81,4.52c-.65,2.22-1.28,4.45-2,6.64-1.58,4.61-3.23,9.2-4.84,13.8a26.44,26.44,0,0,1-4.15,8.05c-3.1,3.87-7.15,4.89-11.8,4.05-6.45-1.17-12-4.23-17.11-8.23a26.56,26.56,0,0,1-4.07-4.39,6.71,6.71,0,0,1-1.57-4.43C361.88,354.64,361.86,353.52,361.86,352.4Z" transform="translate(-0.48 -0.48)"/><path class="cls-1" d="M578.47,433a15.56,15.56,0,0,1-1.39,2.62c-3.22,4-6.46,7.93-9.79,11.81a77.05,77.05,0,0,1-5.78,6.07c-3.09,2.87-6.56,2.51-9-.89a31.12,31.12,0,0,1-3.33-5.53,28.43,28.43,0,0,0-5.72-7.91c-4.16-4.41-8.43-8.73-12.67-13.07-2.14-2.19-2.21-2.8-1-5.7.77-1.92,1.31-3.94,2-5.9,3.58-10.49,8.81-20.18,14.33-29.74a80.11,80.11,0,0,0,3.51-7.57c.26-.58.38-1.23.63-1.81A3.46,3.46,0,0,1,554,373a3.34,3.34,0,0,1,2.9,3.55A59.17,59.17,0,0,0,559.7,394a110.92,110.92,0,0,0,4.19,10.65c.67,1.62,1.54,3.16,2.17,4.8a97.58,97.58,0,0,0,10.52,19.86A34.45,34.45,0,0,1,578.47,433Z" transform="translate(-0.48 -0.48)"/><path class="cls-1" d="M503.66,395c0-1,0-2.08,0-3.11a93.36,93.36,0,0,1,2.16-23.58c.45-2.21,2-3.61,3.71-4.79a70.36,70.36,0,0,1,14-7.29,136.93,136.93,0,0,1,22.51-6.6,17.7,17.7,0,0,1,2.37-.38c2.75-.18,4.7,2.05,3.79,4.64a73.24,73.24,0,0,1-4.12,9.94c-3.83,7.28-8,14.41-11.89,21.64-3.29,6-6.81,11.94-9.63,18.18-2.63,5.8-4.44,12-6.69,17.95a17.21,17.21,0,0,1-2.27,4.41c-1.76,2.3-4.06,2.27-6.16.23a24.18,24.18,0,0,1-7.38-15.44A73.88,73.88,0,0,1,503.66,395Z" transform="translate(-0.48 -0.48)"/><path class="cls-1" d="M350.19,409.44a23.09,23.09,0,0,1-13.8-4C330,401.18,327.83,395,328,387.72a59.16,59.16,0,0,1,2.5-14.61,12.76,12.76,0,0,1,.56-1.57c2.87-6.69,7.4-7.93,13.6-6.11a28.54,28.54,0,0,1,7.81,4.12,105.63,105.63,0,0,0,9.49,6c5.41,2.91,11,5.57,16.49,8.26a26.34,26.34,0,0,0,10.16,2.54,61.65,61.65,0,0,1,6.87.95c2.22.4,3.27,1.39,3.48,3.06.23,1.86-.77,2.89-2.28,3.81A107.36,107.36,0,0,1,358.9,408C355.52,408.57,352.14,409.11,350.19,409.44Z" transform="translate(-0.48 -0.48)"/><path class="cls-1" d="M202.83,345.48c-.17,1.59-.4,2.75-.4,3.91a35.56,35.56,0,0,1-1.86,11.53,15.44,15.44,0,0,1-5.44,7.71,7.19,7.19,0,0,1-4.7,1.46,3.56,3.56,0,0,1-3.64-2.87c-.23-.84-.41-1.69-.6-2.45-1.29-.76-2.31-.16-3.28.34-1.48.77-2.88,1.73-4.4,2.42a8,8,0,0,1-3,.67c-2.79.12-5.05-1.3-5.39-4a11.49,11.49,0,0,0-5.69-8.91,3.51,3.51,0,0,1-1.67-3.5c.34-3.6-1-6.72-2.7-9.75-1.35-2.35-2.55-4.8-3.91-7.15a17.78,17.78,0,0,1-2-14.51q.82-2.76,1.77-5.47a3.27,3.27,0,0,1,3.24-2.39,3.35,3.35,0,0,1,3.32,2.3c1.55,3.68,3.09,7.36,4.59,11.06,1.4,3.44,2.17,4,5.94,3.92,2-.05,4-.26,6-.45a9,9,0,0,1,6.85,2.26,12.24,12.24,0,0,0,2.55,1.74,5,5,0,0,0,6.21-1.48c.85-1.14,1.4-2.5,2.2-3.69a6.35,6.35,0,0,1,1.86-2.08c2-1.16,4.27.08,4.85,2.57.63,2.71,1.93,4.88,4.57,6.06a5.62,5.62,0,0,0,3.92.42c3.5-.91,6,1.21,5.91,4.78-.13,3.38-.58,6.69-2.4,9.65a15.5,15.5,0,0,1-.89,1.42c-2,2.47-5.09,2.11-6.28-.82C207.4,347.79,205.53,346.66,202.83,345.48Z" transform="translate(-0.48 -0.48)"/><path class="cls-1" d="M407,376a56.48,56.48,0,0,1,9.38-30.25,122.63,122.63,0,0,1,22.95-26.27,28.41,28.41,0,0,1,5.36-3.57c2.83-1.49,4.38-.73,6.37,1.84a5.19,5.19,0,0,1,.93,5,21,21,0,0,1-1.85,4.13c-3.11,4.95-3.89,10.48-3.71,16.1a19.82,19.82,0,0,0,2.15,7.27,16.1,16.1,0,0,1,.66,11.66,15.45,15.45,0,0,1-5.89,8.12c-5.5,4.25-11.71,7.17-18,10-3.79,1.7-7.63,3.28-11.46,4.88-3.33,1.39-6.37-.26-6.87-3.87A36.52,36.52,0,0,1,407,376Z" transform="translate(-0.48 -0.48)"/><path class="cls-1" d="M45,287.63A24.84,24.84,0,0,0,39.51,280c-2.53-2.54-4.12-5.7-5.83-8.75-1.21-2.17.39-4.62,2.89-4.84.63-.05,1.26,0,2.12,0a9,9,0,0,0-.34-1.56c-1.88-4.59-2.17-9.47-2.64-14.32a6.16,6.16,0,0,1,.24-2.13,3.35,3.35,0,0,1,5.51-1.74l.18.16c.73.67,1.25,1.91,2.51,1.45a4,4,0,0,0,2.68-3.14c.43-2.6.85-5.21,1-7.83.15-2.31-.11-4.64-.07-7,0-1.82-.12-3.87,1.75-4.95a30.13,30.13,0,0,1,4.62-1.75,11.08,11.08,0,0,0,.55-2.22c.5-5.65.93-11.31,1.38-17a17.17,17.17,0,0,1,.13-1.91,3.43,3.43,0,0,1,3.62-2.83A3.33,3.33,0,0,1,63,202.75c.14,1.11.27,2.22.32,3.34A4,4,0,0,0,66,210a6.45,6.45,0,0,1,3.65,3.61,20,20,0,0,1,.75,3.09c.65.2,1.32.42,2,.6,4.75,1.27,6.58,5,4.28,9.35a69.51,69.51,0,0,1-5.92,9.56c-3.66,4.85-7.54,9.54-11.55,14.11a22.46,22.46,0,0,0-5.24,11.36,83.72,83.72,0,0,0-.68,22.24c.58,5.95,1.72,11.85,2.64,17.77.2,1.26.54,2.5.76,3.75.37,2.06-.33,3.5-1.95,4.18a3.42,3.42,0,0,1-4.38-1.46,47.08,47.08,0,0,0-6-7.18,26.71,26.71,0,0,1-5.09-7.51c-1.55-3.62.23-6.05,4.1-5.64A8,8,0,0,0,45,287.63Z" transform="translate(-0.48 -0.48)"/><path class="cls-1" d="M88.07,170c1.7-1,2.13-2.5,2.58-4.05,1.14-3.9,2.33-7.8,3.57-11.67a16.86,16.86,0,0,1,1.33-2.82,3.19,3.19,0,0,1,3.13-1.81,3.3,3.3,0,0,1,3.09,2.26c.15.37.27.76.4,1.13.72,2,1.81,2.6,3.88,2.15a10.28,10.28,0,0,0,5.13-3c2.88-2.88,5.71-5.81,8.63-8.66a26.29,26.29,0,0,1,3.54-2.85c2.7-1.82,5-.88,5.71,2.31.07.29.14.59.23,1,1,0,2,0,2.91,0a3.37,3.37,0,0,1,3.22,4.81,10.18,10.18,0,0,1-4.84,5.44,22,22,0,0,0-7.75,7A87.62,87.62,0,0,1,110.51,175a10.08,10.08,0,0,1-6.79,3.14,2.65,2.65,0,0,0-2.21,1.22c-1.3,1.82-2.68,3.59-3.89,5.47-2,3.08-4.33,5.49-8.21,6A4.56,4.56,0,0,0,86,193.54c-1.14,2.29-2.22,4.6-3.4,6.87a14.23,14.23,0,0,1-2.06,3.2,3.7,3.7,0,0,1-5.85-.34,96,96,0,0,1-6.84-9.54,34.84,34.84,0,0,1-4.3-12.13,9.32,9.32,0,0,1,.22-3.56,3.27,3.27,0,0,1,5.44-1.78,9.88,9.88,0,0,1,1.63,2c.32.46.5,1,.81,1.47a2,2,0,0,0,2.21,1.09c1-.24.92-1.16,1-1.93a40.06,40.06,0,0,1,2.88-11.35c.93-2.12,1.81-4.27,3.67-5.82,1.68-1.4,3-1.63,4.58-.69a3.79,3.79,0,0,1,1.66,4.56C87.14,167.6,87.16,168,88.07,170Z" transform="translate(-0.48 -0.48)"/><path class="cls-1" d="M155.91,280.86c1.09,6.4-.87,12.3-3.14,18.16-.87,2.23-1.67,4.49-2.54,6.72-1.29,3.28-2.95,6.3-6.63,7.38-2.68.78-5.37.29-8-.27-4.13-.84-6.38-3.7-8-7.25-2-4.44-4-8.88-5.93-13.35a88.09,88.09,0,0,1-5.17-18.15,4.15,4.15,0,0,1,1-3.78c3.48-4,6.91-8,10.4-11.93.95-1.07,2-2.05,3.06-3a5.45,5.45,0,0,1,6.44-1.11c5.09,2.62,10.29,5.13,14.28,9.49a15.81,15.81,0,0,1,4.29,10.15C156,276.19,155.91,278.51,155.91,280.86ZM133,280.2a5.09,5.09,0,1,0-5,5A5,5,0,0,0,133,280.2Z" transform="translate(-0.48 -0.48)"/><path class="cls-1" d="M214.83,386.06c-1.08,1.79-2,3.46-3.06,5-1.57,2.31-3.23,4.56-4.9,6.8a6.6,6.6,0,0,1-1.56,1.47,3.48,3.48,0,0,1-4-.05,3.37,3.37,0,0,1-1.22-3.63c.34-1.53.59-3.08.86-4.53a2.15,2.15,0,0,0-3.24.18c-.77.81-1.44,1.72-2.15,2.58a70.59,70.59,0,0,1-12.58,12.45,16.48,16.48,0,0,1-4.82,2.57c-4.21,1.29-8-.76-9.09-5a21,21,0,0,0-4.29-7.92,11.1,11.1,0,0,0-6.38-4.39,5.45,5.45,0,0,1-2.13-1.05,3.36,3.36,0,0,1,.66-5.87,15.42,15.42,0,0,0,7.81-6.4,4.25,4.25,0,0,1,4.1-1.94,33.59,33.59,0,0,0,10.47-.82,3.85,3.85,0,0,1,4.25,1.51c.68.85,1,2.17,2.29,2.25a23.4,23.4,0,0,0,4.95,0,8.61,8.61,0,0,0,3.26-1.43c4.2-2.77,8.41-5.53,12.51-8.46A38.75,38.75,0,0,0,216.67,359a3.48,3.48,0,0,1,3.86-1.78c1.68.41,2.49,1.46,2.66,3.53.67,7.91.74,15.8-.94,23.61-.15.71-.27,1.42-.46,2.11a3.36,3.36,0,0,1-3,2.71,3.28,3.28,0,0,1-3.32-1.89Z" transform="translate(-0.48 -0.48)"/><path class="cls-1" d="M230.87,238.85c1.09-7.87-.75-15.36-2-22.92a91.92,91.92,0,0,1-1-10.24,3.42,3.42,0,0,1,3.05-3.9c1.75-.24,3,.8,3.93,2.78,3.64,8,7.78,15.57,14.1,21.8a19.66,19.66,0,0,0,11.52,5.87c3.41.44,4.27,2,3.32,5.33-.57,2-.46,2,1.44,3.13,3.72,2.14,7.74,3.89,10.54,7.36a18.77,18.77,0,0,1,1.39,21c-1.93,3-4.18,3.12-7.06,1s-6.17-4.25-9.27-6.35a4.89,4.89,0,0,0-1.07-.54,2.15,2.15,0,0,0-3.06,1.32,12.09,12.09,0,0,1-4,5,3.59,3.59,0,0,1-5.75-3,44.41,44.41,0,0,0-2.82-14,30.32,30.32,0,0,0-2.58-5.12,4.91,4.91,0,0,0-1.91-1.73c-2-1.07-4.13-2.05-6.24-3A3.8,3.8,0,0,1,230.87,238.85Z" transform="translate(-0.48 -0.48)"/><path class="cls-1" d="M97.1,364.26c-3.42-.29-6.84-.54-10.25-.89a15.07,15.07,0,0,1-2.78-.69c-5-1.47-4.38-5.2-1.51-7.95a25.24,25.24,0,0,1,3.71-2.62,6.89,6.89,0,0,0,3.44-5.92c.13-4.63,2.42-7.68,6.83-9.39,6.47-2.51,12.85-5.26,19.25-7.95A50.65,50.65,0,0,0,127,322.48a6.17,6.17,0,0,1,4.45-1.41c1.91.17,3.8.42,5.69.72,1.26.2,2.49.55,3.74.81,2.43.5,3.54,1.92,3.37,4.43a9.17,9.17,0,0,1-2.06,5.52,69.76,69.76,0,0,1-6.54,7,9.67,9.67,0,0,0-3.31,6.09,85.25,85.25,0,0,1-2.29,9.3,4.51,4.51,0,0,1-2.75,3.14c-2.52,1-5,2.18-7.57,2.92-3.84,1.08-7.74,2-11.66,2.69a38.62,38.62,0,0,1-6.19.3c-1.6,0-3.19,0-4.79,0Z" transform="translate(-0.48 -0.48)"/><path class="cls-1" d="M113.9,220.45a25.54,25.54,0,0,1,3,1.44c1.48.92,2.84,2.06,4.3,3a49.52,49.52,0,0,1,10.32,9.6c.62.73,1.23,1.47,1.86,2.19a3.17,3.17,0,0,1,.48,4,20.8,20.8,0,0,1-2.73,3.92Q126,249.9,120.53,255c-2.22,2.08-4.63,3.94-6.89,6a5.78,5.78,0,0,1-5.06,1.46A34.62,34.62,0,0,1,100.1,260,27.72,27.72,0,0,0,97,258.7a8.2,8.2,0,0,1-5-4.23c-2.4-4.32-4.87-8.61-7.25-12.95-.69-1.26-1.17-2.63-1.77-3.93a5.08,5.08,0,0,1,.69-5.41,14.54,14.54,0,0,1,5.65-4.7,52,52,0,0,1,11.66-4.3c3.43-.77,6.85-1.56,10.28-2.32C112,220.71,112.71,220.63,113.9,220.45Z" transform="translate(-0.48 -0.48)"/><path class="cls-1" d="M288.16,363.88c.23,6.45.68,12.91.61,19.36A41.48,41.48,0,0,1,285.49,400a166.54,166.54,0,0,1-15.81,28.15,13.18,13.18,0,0,1-1.7,2,3.29,3.29,0,0,1-5.51-1.09,12.6,12.6,0,0,1-.82-4.43,53.12,53.12,0,0,0-1.7-12.54,119.08,119.08,0,0,1-3.37-17.38,7.91,7.91,0,0,1,1.71-5.95,133,133,0,0,1,17.49-19,17.36,17.36,0,0,0,5.62-9.55,6.54,6.54,0,0,1,.32-1.15,3.24,3.24,0,0,1,3.39-2.14,3.06,3.06,0,0,1,3,2.63,38.28,38.28,0,0,1,.24,4.29Z" transform="translate(-0.48 -0.48)"/><path class="cls-1" d="M98.1,325.86c-3.49-.1-5.83-.64-7.93-1.87s-4-2.57-6-3.88a3.36,3.36,0,0,1-1.53-4c1.78-6,1.93-12.29,3-18.42a156.75,156.75,0,0,1,4.58-20.3c.17-.53.35-1.07.56-1.58,1.57-3.66,2.65-4.31,6.59-3.71,2.68.42,5.35.94,8,1.55a5.27,5.27,0,0,1,4.06,4c.84,3.16,1.44,6.38,2.22,9.56,1.57,6.35,3.08,12.73,4.84,19a9.44,9.44,0,0,1-1.58,8.59,60.29,60.29,0,0,1-5.44,6.68,11.34,11.34,0,0,1-4.41,2.75A57.84,57.84,0,0,1,98.1,325.86Z" transform="translate(-0.48 -0.48)"/><path class="cls-1" d="M302.7,409.49c1.28,0,2.56-.06,3.84,0,3.08.17,4.42,1.28,4.77,4.31.51,4.6.84,9.23,1.26,13.84a49.56,49.56,0,0,0,.62,5.46,7.4,7.4,0,0,1-2.78,7.82,55.77,55.77,0,0,0-7.53,7.68,21,21,0,0,0-4.31,11,4.34,4.34,0,0,1-6.2,3.7,15.57,15.57,0,0,1-9.16-9.85c-2.51-7.26-4.65-14.61-5.08-22.37a8.47,8.47,0,0,1,1.54-5.57,129.59,129.59,0,0,1,9.29-12.8,6.19,6.19,0,0,1,4.2-2.48c3.17-.29,6.35-.65,9.52-1Z" transform="translate(-0.48 -0.48)"/><path class="cls-1" d="M476.42,420.05c0-7.59.14-15.19-.05-22.78-.14-5.56,3.22-6,6.53-4.57,6.08,2.62,10.44,6.69,11.43,13.62.62,4.35,1.53,8.66,2,13,.78,7.83,5.39,12.5,12.15,15.58,1.09.5,2.26.83,3.3,1.41a3.39,3.39,0,0,1,1.73,4.47,10.78,10.78,0,0,1-4,5.8,5.24,5.24,0,0,1-2.39,1c-6.11.5-11.84,2.61-17.76,3.91a18,18,0,0,1-7.13.31c-3.26-.58-5-2.13-5.54-5.4a22.92,22.92,0,0,1-.35-4.05c0-7.43,0-14.86,0-22.29Z" transform="translate(-0.48 -0.48)"/><path class="cls-1" d="M667.45,461.39c-3.54-.32-7.13-.53-10.68-1-5.4-.73-9-3.95-11-8.88a8.88,8.88,0,0,0-2.75-3.77,61.7,61.7,0,0,0-10.12-6.79,50.56,50.56,0,0,1-8.3-5.64c-3.54-2.86-6.87-6-10.26-9-1.8-1.61-2-3.61-.29-5.21a30.65,30.65,0,0,1,6.54-4.76c3.18-1.62,6.68-.39,9.22,2.32,4.76,5.07,9.63,10,14.48,15a15.73,15.73,0,0,0,2.13,1.52,2.7,2.7,0,0,0,3.31,0,14.7,14.7,0,0,1,10.38-1.93c4.76.85,8.26,4.09,8.73,9.21s3.39,8.81,6.73,12.3c.28.29.61.52.88.81a3.38,3.38,0,0,1-2.28,5.88C672,461.41,669.73,461.39,667.45,461.39Z" transform="translate(-0.48 -0.48)"/><path class="cls-1" d="M579.36,528c-6.27,3.63-9.76,2.33-13.12-3.9a25.59,25.59,0,0,1-2.73,1.19,19.36,19.36,0,0,1-4.59,1.17c-3.66.22-6.13-2.42-6.11-6.06a4.63,4.63,0,0,1,1.92-3.7,7.24,7.24,0,0,0,2.52-5.45,44.81,44.81,0,0,1,3-13.49c1.38-3.27,3.6-3.93,6.6-1.91a43.44,43.44,0,0,0,12.49,5.34c3.6,1,7.2,2.06,10.77,3.19a9.15,9.15,0,0,1,2.73,1.47,7.14,7.14,0,0,1,2.77,4.58c1.32,7.32-1.22,13.51-5.6,19.09-2.84,3.62-7.35,3.32-9.85-.43C580,528.75,579.7,528.44,579.36,528Z" transform="translate(-0.48 -0.48)"/><path class="cls-1" d="M588.24,494.84c-1.87-.63-3.75-1.2-5.6-1.88-3.67-1.35-7.32-2.74-11-4.13a36.23,36.23,0,0,1-8.8-5.3,7.67,7.67,0,0,1-3.08-5.43c-.33-2.46-.63-4.91-1-7.36a4.35,4.35,0,0,1,1.55-4.25c1.43-1.26,2.6-2.81,3.91-4.21,2.57-2.74,5.19-5.43,7.74-8.19,2.38-2.57,4.68-5.22,7.07-7.79a10.28,10.28,0,0,1,2.66-2.33,3.29,3.29,0,0,1,4.93,2.69,28.23,28.23,0,0,1,.41,5c-.21,5.56.73,11,1.67,16.42,1.1,6.29,2.42,12.54,3.6,18.82a15.24,15.24,0,0,1,.39,4C592.48,493.6,591,494.67,588.24,494.84Z" transform="translate(-0.48 -0.48)"/><path class="cls-1" d="M150,374.1c-.23.91-.49,1.89-.74,2.88a47.57,47.57,0,0,1-7.7,16.65c-.43.57-.84,1.17-1.32,1.7-1.68,1.81-4.2,1.75-5.52-.32a12.21,12.21,0,0,1-1.26-3.81c-.58-2.49-1.05-5-1.56-7.5a5.6,5.6,0,0,0-3.16-4c-1.83-.93-3.62-2-5.85-1.82a16.92,16.92,0,0,1-.86,2,3.21,3.21,0,0,1-3.42,1.7,3,3,0,0,1-2.73-2.36,26,26,0,0,1-1-5.64,4.57,4.57,0,0,1,4.53-4.89c2.31-.19,4.63-.27,6.92-.6a24.68,24.68,0,0,0,5.1-1.25c4.59-1.73,7.88-4.62,9-9.72,1-4.38,2.16-8.69,2.22-13.21a3.77,3.77,0,0,1,2.42-3.77,2.73,2.73,0,0,1,3.58,1.05c4.58,8.18,8.79,16.53,10,26a22,22,0,0,1-.29,6.42c-.54,3-3.63,3.84-5.83,1.74C151.85,374.75,151.39,373.78,150,374.1Z" transform="translate(-0.48 -0.48)"/><path class="cls-1" d="M598,337c-.44,5.63-2,10.22-5.5,14.05-2.67,2.93-6.2,3.08-8.69.05a25.26,25.26,0,0,1-3.29-5.53,72.42,72.42,0,0,1-4.12-13.25c-1.27-5.27-2.68-10.53-4.28-15.71a18.46,18.46,0,0,1-.08-11.08c1.1-3.58,2.27-7.15,3.41-10.73.29-.91.64-1.81.9-2.73a3.32,3.32,0,0,1,2.75-2.66,3.42,3.42,0,0,1,3.83,1.84c1.34,2.45,2.7,4.9,3.81,7.46a63.19,63.19,0,0,1,2.42,7q4.17,13.89,8.23,27.8A28.53,28.53,0,0,1,598,337Z" transform="translate(-0.48 -0.48)"/><path class="cls-1" d="M84.67,265.68c-.6,3.05-1.13,6.1-1.8,9.12q-4,17.77-8,35.54c-.62,2.73-1.25,5.44-3.29,7.59-1.12,1.18-2.31,2-4,1.49a3.87,3.87,0,0,1-2.75-3.58c-.52-3.88-1-7.77-1.41-11.66-.94-9.63-1.78-19.27-2.7-28.9A17.37,17.37,0,0,1,62,266.41c2.33-5.38,4.81-10.64,8.77-15.05A17.34,17.34,0,0,1,72.06,250a3.64,3.64,0,0,1,5.68.29c.9,1,1.66,2.15,2.56,3.17C83.39,256.93,84.42,261.08,84.67,265.68Zm-10.34,16.2a5.13,5.13,0,0,0,5.22-5.11,5.15,5.15,0,0,0-10.29.09A5.13,5.13,0,0,0,74.33,281.88Z" transform="translate(-0.48 -0.48)"/><path class="cls-1" d="M297.43,380.43c0-3.51.15-7-.05-10.54-.16-2.69-.75-5.36-1.18-8-.12-.71-.38-1.39-.51-2.09-.72-3.91,1.31-5.84,5.21-4.88a19.41,19.41,0,0,1,3.36,1.25q7.62,3.51,15.19,7.11c3.25,1.54,3.87,2.93,3.28,6.5-.78,4.64-1.49,9.3-2.18,13.95-.59,4-.06,8,.28,12,.07.8.21,1.59.21,2.39a5.83,5.83,0,0,1-7.18,5.92,27.9,27.9,0,0,1-11-4.49,37.6,37.6,0,0,0-3.34-2.32,4.21,4.21,0,0,1-2.44-4.5c.16-2.06.09-4.15.1-6.23s0-4,0-6Z" transform="translate(-0.48 -0.48)"/><path class="cls-1" d="M610.93,411.24c-1.48-.38-3.52-.81-5.48-1.46a3.77,3.77,0,0,1-1.7-1.57,20.58,20.58,0,0,1-1.85-3.62c-3-7.76-5.92-15.52-8.75-23.33-1.33-3.68-2.42-7.44-3.46-11.21a3.85,3.85,0,0,1,.34-2.73c2.18-3.63,4.49-7.17,6.79-10.72a5.79,5.79,0,0,1,4.4-2.57,3.44,3.44,0,0,1,4.16,3,143.16,143.16,0,0,0,4.37,19.1c1.56,5.53,3.29,11,5.13,16.47.84,2.48,2.14,4.8,3.21,7.2.23.51.43,1,.62,1.57.68,1.92,1.95,3.87.32,5.86A9.77,9.77,0,0,1,610.93,411.24Z" transform="translate(-0.48 -0.48)"/><path class="cls-1" d="M497,382a25.53,25.53,0,0,1-.36,3.22,3.44,3.44,0,0,1-5.42,2.16c-2.51-1.53-5.09-3-7.59-4.53a20.87,20.87,0,0,1-3.79-2.87c-4.1-4.13-7.05-8.87-7.31-14.9a8.15,8.15,0,0,0-2.18-5.4c-2.08-2.27-3.66-2.78-6.61-1.84-.22.08-.44.19-.66.28a3.3,3.3,0,0,1-3.92-.88,3.68,3.68,0,0,1-.41-4.25,9.72,9.72,0,0,1,1.89-2.45c4.92-4.28,10.52-5.7,16.69-3.26a36,36,0,0,1,12.56,9,8.71,8.71,0,0,1,1.88,3A100,100,0,0,1,497,382Z" transform="translate(-0.48 -0.48)"/><path class="cls-1" d="M220.06,215a22.92,22.92,0,0,1-1.84,9.83,16.55,16.55,0,0,1-1.39,2.51,4.21,4.21,0,0,1-5.22,1.74c-3-1.11-5.89-2.45-8.86-3.62a39.6,39.6,0,0,0-5-1.67c-2.17-.54-3.08-1.46-3.28-3.77s-.36-4.45-.59-6.67a5.2,5.2,0,0,0-.47-1.84,4.63,4.63,0,0,1,.81-5.56,44.94,44.94,0,0,1,6.16-5.61c1.7-1.32,3.85-1.37,6-1.21,4.68.37,11.45,4,13,10.44A42.59,42.59,0,0,1,220.06,215Z" transform="translate(-0.48 -0.48)"/><path class="cls-1" d="M82.5,342.67c.06,3.3-3.69,8-6.65,8.56a2.92,2.92,0,0,1-3.28-1.82c-.87-1.8-1.67-3.63-2.45-5.46-1.78-4.18-3.53-8.38-5.3-12.56-.76-1.8-.57-3.19.67-4.4a3.9,3.9,0,0,1,4.42-.77,12.61,12.61,0,0,1,6.88,5.22,62.14,62.14,0,0,1,5.51,10.3A4.62,4.62,0,0,1,82.5,342.67Z" transform="translate(-0.48 -0.48)"/><path d="M133,280.2a5,5,0,0,1-5,5,5,5,0,0,1-5.19-5.08,5.09,5.09,0,1,1,10.17.05Z" transform="translate(-0.48 -0.48)"/><path d="M74.33,281.88a5.13,5.13,0,0,1-5.07-5,5.15,5.15,0,0,1,10.29-.09A5.13,5.13,0,0,1,74.33,281.88Z" transform="translate(-0.48 -0.48)"/></svg>