<svg id="Layer_1" data-name="Layer 1" xmlns="http://www.w3.org/2000/svg" viewBox="0 0 720 612"><defs><style>.cls-1{fill:none;stroke:#000;stroke-miterlimit:10;stroke-width:0.01px;}</style></defs><path d="M.48,612.48V.48h720v612ZM559.31,339.27c-.88.58-1.52,1-2.19,1.45-3.39,2.12-6.79,4.22-10.17,6.36a6.91,6.91,0,0,0-3.27,3.37c-.54,1.51-1.1,3-1.54,4.54a4.84,4.84,0,0,0,2.36,5.91c1.65,1,3.33,1.91,5,2.86a3.23,3.23,0,0,0,3.63,0,10.84,10.84,0,0,0,2.6-2.4c2.68-3.78,5.22-7.66,7.88-11.46,2.48-3.53,1.21-3.1,5.75-2.71,6.5.55,12.59-.24,17.86-4.56a7.73,7.73,0,0,1,3.29-1.27c2.89-.58,5.87-.8,8.71-1.57,3.82-1,7.41-2.67,9.48-6.39s4.11-7.42,6-11.18a17,17,0,0,0,1.53-4.27,158.56,158.56,0,0,1,4.79-17.81c1.82-5.42,2.21-11.13,2.9-16.75a76.87,76.87,0,0,0,.79-11.22c-.17-6.73-3-11.87-9.49-14.77-4.53-2-8.94-4.23-13.77-5.49-5.26-1.37-10.44-3-15.7-4.34a23.63,23.63,0,0,0-5-.41,2.77,2.77,0,0,0-2.73,1.65,10.43,10.43,0,0,0-1.1,3.83c-.17,9.19-.34,18.39-.24,27.59a30.9,30.9,0,0,1-2.46,12.1,6.7,6.7,0,0,1-3.39,3.81c-3.81,1.86-7.51,3.94-11.37,5.67a7.15,7.15,0,0,0-4,4.45,17.34,17.34,0,0,0-1.15,5.11c-.05,4,.23,8,.38,12A31.46,31.46,0,0,0,559.31,339.27Zm32.83,169.57c1,0,1.92,0,2.88,0a30.33,30.33,0,0,0,18.43-6.51A90.25,90.25,0,0,0,626.7,489.5a33.84,33.84,0,0,0,8.11-18.6c.46-4.51,1.59-9,2.21-13.46.54-3.91-.81-5.6-4.41-6.4a8.35,8.35,0,0,0-3.3.1,50,50,0,0,0-11.22,4.11c-3.19,1.48-6.36,3-9.66,4.22A74.86,74.86,0,0,1,599.2,462c-2,.45-3.57-.35-4.17-1.89-2.3-5.83-5.54-11.15-8.75-16.5a77.64,77.64,0,0,1-3.69-7.49,3.59,3.59,0,0,0-3.05-2.34,9.14,9.14,0,0,0-5.31,1.17c-3.81,2-7.66,4-11.39,6.15a40.93,40.93,0,0,0-17.47,19.77c-1.63,3.86-2.66,8-1.5,12.15,1.5,5.39,4,10.27,8.51,13.85,2.07,1.64,4,3.39,6.09,5,3.67,3,7.26,6,11.07,8.81a80.94,80.94,0,0,0,9.55,5.94A22.31,22.31,0,0,0,592.14,508.84ZM236.29,289.77c-.09-1.07-.13-1.94-.25-2.8a20.71,20.71,0,0,0-.51-2.83c-.71-2.51-2.48-3.49-4.95-2.64a10.23,10.23,0,0,0-2.6,1.61c-.7.52-1.24,1.26-2,1.74-1.37.9-2.23.56-3-.93-1.15-2.19-2.26-4.41-3.56-6.5-1.67-2.67-4.81-2.49-6.33.27-.31.55-.49,1.18-.77,1.75-.72,1.5-1,1.61-2.62,1.26-.31-.06-.61-.19-.92-.26-7.17-1.69-14.39-3-21.8-2.93a8.86,8.86,0,0,0-4.81,1.26,29.21,29.21,0,0,0-8.8,8c-3.28,4.91-6.59,9.82-9.61,14.9a54.79,54.79,0,0,0-4.33,9.32c-1.66,4.57-3.28,9.21-3.11,14.2.19,5.82.06,6.27,6.08,8.06a95.6,95.6,0,0,0,38,3.34c1.57-.17,3.18,0,4.76-.06a17.56,17.56,0,0,0,3.77-.51,25.2,25.2,0,0,0,8.58-4.67,98.92,98.92,0,0,0,14.19-13.56c3.48-4.07,7-8.12,10.35-12.28a22.06,22.06,0,0,0,2.75-4.73c1.77-3.89,1.4-8.12,1.68-12.24a3,3,0,0,0-2.31-3,3.26,3.26,0,0,0-3.67,1.09c-.4.49-.68,1.08-1.1,1.56A3.52,3.52,0,0,1,236.29,289.77Zm83.79-24.15c3.58-.27,7.18-.43,10.75-.83A237.28,237.28,0,0,1,355.67,263a25.94,25.94,0,0,0,8.72-1.16c2.88-1,4.51-2.85,4.15-5.83a10.4,10.4,0,0,0-1.63-4.39c-1.48-2.26-3.28-4.32-5-6.46a5.54,5.54,0,0,1-.7-6.44c2.26-4.58,4.19-9.33,6.5-13.88a6.62,6.62,0,0,0-.12-6.59c-3.16-6.1-6.32-12.2-9.4-18.34a4.42,4.42,0,0,0-3.71-2.6c-7.29-.91-14.57-1.89-21.86-2.79a5.63,5.63,0,0,0-5.77,2.56c-7.89,11.55-15.84,23-23.72,34.6a11.51,11.51,0,0,0-1.79,3.86c-2,8.78-1.62,17.27,3.15,25.25a6.59,6.59,0,0,0,4,3.19A36.33,36.33,0,0,0,320.08,265.62ZM109.56,368.82c.87-.05,1.75-.07,2.63-.14a247.78,247.78,0,0,0,33.61-5.14,61.57,61.57,0,0,0,14.39-4.45,10.11,10.11,0,0,1,9.61-.1,20.84,20.84,0,0,0,10,1.95c2.68-.05,5.93-3.12,6.11-5.76a9.32,9.32,0,0,0-7.05-9.85,12.75,12.75,0,0,0-3.8-.3c-2.38.16-4.76.59-7.14.76a11.89,11.89,0,0,1-3.77-.21A36.15,36.15,0,0,1,150.69,339a21.31,21.31,0,0,1-6.57-7.82,7,7,0,0,1-.54-4.9A25.5,25.5,0,0,1,145.1,322c4.08-8.5,8.22-17,12.34-25.44a3.48,3.48,0,0,0-.34-4,3.3,3.3,0,0,0-3.7-1,14.35,14.35,0,0,0-1.78.71,131.85,131.85,0,0,0-16.16,8.32,52.7,52.7,0,0,0-9.22,7.59,17.74,17.74,0,0,0-2.44,3.53,79.28,79.28,0,0,0-5.71,12.38,8.53,8.53,0,0,1-1.8,3.07,55.76,55.76,0,0,1-6.57,5.92A50.56,50.56,0,0,0,91,358.2c-1.6,4.71-.88,6.34,3.81,8S104.42,369.18,109.56,368.82ZM519,259.59c-.45-8.12-.71-14.27-1.15-20.41-.57-7.83-4.44-13.4-11.91-16.09A93.91,93.91,0,0,0,484,218a63.82,63.82,0,0,0-7.17-.5c-3.36,0-4.84,1.91-4.69,5.21q.57,12.23.95,24.45a9,9,0,0,1-2.16,6.43c-3.12,3.54-6.09,7.21-9.28,10.69-1.81,2-2.34,3.94-.92,6.27,1.62,2.66,3.14,5.4,5,7.9,2.46,3.34,5,6.64,9,8.45a5.66,5.66,0,0,0,4.15.49c3.82-1.17,7.64-2.34,11.43-3.61a6.07,6.07,0,0,0,3.91-3.61c1-2.53,2.19-5,3.19-7.5A2.5,2.5,0,0,1,500,270.8c2.47,0,4.95-.19,7.42-.37C514.34,269.91,519.19,264.45,519,259.59ZM73,360.94h1.44a7.48,7.48,0,0,0,6.08-2.74,29.07,29.07,0,0,0,4.18-6.39c2.52-5.26,5.08-10.5,7.55-15.77a11,11,0,0,1,5.37-5.55,42,42,0,0,0,3.9-2.35c2.88-1.72,5.77-3.42,8.63-5.17a3.33,3.33,0,0,0,1.68-3.88,3.79,3.79,0,0,0-3.11-3,31.59,31.59,0,0,1-3.47-.91c-4-1.34-8-1.62-11.88.33a40.93,40.93,0,0,0-4.84,2.61,10.89,10.89,0,0,1-14.21-1.36A13.45,13.45,0,0,0,64,312.52c-2.95.08-5.89.44-8.83.71a34.68,34.68,0,0,1-5.71.54c-3.69-.28-7.17-1.18-8.32-5.49a7,7,0,0,0-.74-1.5,3.36,3.36,0,0,0-3.43-1.72,4.35,4.35,0,0,0-3.2,1.88A24.92,24.92,0,0,0,28.28,319c-1.59,11.71.89,21.94,10.61,29.55A56.11,56.11,0,0,0,73,360.94Zm430.25,77.93c.33,1.54.73,4.15,1.48,6.65,1.39,4.71,3.9,8.87,6.34,13.11s5.12,8,9.6,10.3c3.38,1.76,6.76,2.86,10.57,2.15,3.13-.59,4.43-2.69,4.08-5.85-.61-5.46-.07-10.77,3.45-15.27a50,50,0,0,1,5.82-6.35,64,64,0,0,1,18.13-11.09,50,50,0,0,0,9.56-5.87,3.32,3.32,0,0,0,1.23-4.24,23.38,23.38,0,0,0-1.39-2.79c-1.65-3.11-2.07-6.12.22-9.2,1.3-1.76.91-3.47-.83-4.83a7.77,7.77,0,0,0-5.1-1.79c-3.44.1-6.89.06-10.31.33-9.06.7-17.78,3.05-26.44,5.65a35.6,35.6,0,0,0-14.56,8.51,45.83,45.83,0,0,1-3.8,3.3C505.89,425.65,503.63,431.22,503.24,438.87ZM112.91,263.06c-3.39.14-7.71.22-12,.54a93.18,93.18,0,0,0-22.81,4.2,70.19,70.19,0,0,0-21.73,11.92,15.59,15.59,0,0,0-4.78,7c-.78,2.13.31,3.75,1.63,5.19,1.08,1.17,2.51,1.11,4.41.2,1.08-.51,2.19-1,3.31-1.38a61.08,61.08,0,0,1,13.53-3c6.85-.78,13.73-1.19,20.53.27a189.45,189.45,0,0,1,23.27,6.53,10.4,10.4,0,0,0,7.68-.13Q139.5,289,153.1,283.57c5-2,9.94-3.95,14.9-6,2.65-1.08,3.58-2.38,3.39-5.11a16.91,16.91,0,0,0-1-4.9c-1.36-3.46-4.81-4-7.16-1.2a11.93,11.93,0,0,1-1.15,1.21,3.43,3.43,0,0,1-3.91.81,40.87,40.87,0,0,0-7.37-2A233,233,0,0,0,112.91,263.06Zm552.32,48.59a17.84,17.84,0,0,0-1.06-2.84c-2.84-4.92-5.76-9.79-8.65-14.67a10,10,0,0,0-3.69-3.66c-4.35-2.54-8.64-5.18-13-7.76a9.49,9.49,0,0,0-1.5-.74,3.32,3.32,0,0,0-4.55,1.88,20.18,20.18,0,0,0-1.16,3.63c-3.4,16.19-6.82,32.37-10.09,48.59a9,9,0,0,1-6.56,7.43c-2.51.79-5.09,1.4-7.57,2.3a21,21,0,0,0-5.09,2.53c-4.49,3.21-8.85,6.6-13.25,9.92a17.32,17.32,0,0,1-7.65,3.74c-2.21.36-4.35,1.07-6.54,1.52a6.52,6.52,0,0,0-4.53,3.21c-1,1.65-2,3.28-3.07,4.87a3.42,3.42,0,0,0-.29,4,3.46,3.46,0,0,0,4,1.59c3.76-1,7.63-1.82,10.79-4.39,4.52-3.68,9.1-7.3,13.64-11a24.78,24.78,0,0,1,8.19-4.38q19.53-6.18,39.18-12a13,13,0,0,0,8-6.35q6.69-12.06,13.27-24.18A23,23,0,0,0,665.23,311.65ZM500.12,289.91l-11.79,1.51c-3,.38-4.38,1.54-5,4.56q-1.35,6.19-2.5,12.45a3.84,3.84,0,0,0,.32,2.51,92.88,92.88,0,0,0,5.64,8.6c2.92,3.79,6.08,7.4,9.24,11a25.49,25.49,0,0,0,4.32,4.12,51.61,51.61,0,0,0,7.57,4.57c4.25,2.06,8.59,1.38,12.77-.4,6-2.56,11-6.2,13.3-12.63.8-2.25,1.31-4.61,1.91-6.92a14.32,14.32,0,0,0-.43-8.49c-1-2.86-2-5.73-2.91-8.62a70.91,70.91,0,0,0-9-17.64c-1.19-1.79-2.4-3.56-3.66-5.3a3.9,3.9,0,0,0-4.17-1.72c-3.14.62-6.28,1.19-9.38,1.93a5.26,5.26,0,0,0-4.38,4.22C501.46,285.69,500.77,287.66,500.12,289.91Zm-26.86,13.61a6.52,6.52,0,0,0-2.22-6.88,17.78,17.78,0,0,1-2-2.37c-5.11-6.15-10.29-12.25-15.29-18.49a7.2,7.2,0,0,0-8.6-2.09c-5.3,2.25-10.61,4.48-16,6.54a9,9,0,0,0-5.83,7c-2.09,9.6-4.05,19.24-6.36,28.79-1.09,4.52,1,7.54,3.77,10.44a3.26,3.26,0,0,0,4,.53c4.66-2.11,9.33-4.17,14-6.28a2.4,2.4,0,0,1,2.27,0c5.81,3,11.66,6,17.43,9.1,2.53,1.36,4.32,1.28,6.15-.9a26.74,26.74,0,0,0,5.37-9.29C471.52,314.39,473.52,309.19,473.26,303.52Zm-49.4-78.72h-.05c0-2.55,0-5.11,0-7.67a6.9,6.9,0,0,0-2.19-5.11c-4.14-4-9.15-6-14.67-7.05-2.28-.43-4.55-.84-6.81-1.34a108.77,108.77,0,0,0-27.08-3c-1.65.05-3.26.12-4.15,1.78s-.2,3,.62,4.46c2.66,4.83,5.12,9.76,7.7,14.63a3.17,3.17,0,0,1,.11,2.74c-1.2,3.56-2.31,7.14-3.49,10.7a7.73,7.73,0,0,0,.19,5.6c1.19,2.88,2.34,5.77,3.51,8.66,1.63,4,3.36,4.87,7.42,3.58,9.66-3.07,19.3-6.21,29-9.19a14.63,14.63,0,0,0,5.77-3.28c2.67-2.48,4.39-5.43,4.16-9.28C423.75,229,423.86,226.88,423.86,224.8Zm104.38,27.63h.2c.12,4.48.23,8.95.37,13.43A31.87,31.87,0,0,0,531,276.38a162.32,162.32,0,0,0,10.7,22.19,4.17,4.17,0,0,0,5.28,2.08,6.55,6.55,0,0,0,2-.84c3.44-2.6,7-5.06,10.2-7.94a68.41,68.41,0,0,0,6.81-7.69,5,5,0,0,0,.92-2.63c.27-3,.37-6.06.57-9.09.43-6.7.94-13.4,1.3-20.1a11,11,0,0,0-3.66-9,31.79,31.79,0,0,0-12.55-6.77c-4.74-1.37-9.65-2.17-14.51-3.09a11.61,11.61,0,0,0-6.61.55c-2.45,1-3.15,2.08-3.14,4.75C528.26,243.32,528.24,247.87,528.24,252.43ZM414.86,287l-.18,0a23.86,23.86,0,0,0,0-3.59,9.17,9.17,0,0,0-1.11-3.33c-2.71-4.33-5.55-8.58-8.35-12.86-1.22-1.88-2.38-3.79-3.67-5.62s-2.57-2.09-4.57-1.46c-7.31,2.27-14.63,4.55-22,6.72-3.56,1.05-4.66,2.14-5,5.77-.53,6.29-.95,12.59-1.56,18.87a8.93,8.93,0,0,0,1.07,5.74c3.16,5.18,6.18,10.45,10.06,15.15a3.56,3.56,0,0,0,3.83,1.29c4.6-1,9.24-1.84,13.85-2.81a4.33,4.33,0,0,1,3.21.43c1.32.74,2.69,1.41,4.08,2a3.86,3.86,0,0,0,4.58-.95,6.41,6.41,0,0,0,1.71-4.82,16.93,16.93,0,0,1,1.67-6.92,15.93,15.93,0,0,0,1.27-4.34C414.23,293.16,414.51,290.06,414.86,287Zm51.27-59.71c0-.89,0-1.37,0-1.84a4.88,4.88,0,0,0-.18-.94c-1.44-5.15-4.57-8.71-9.75-10.29-6.1-1.85-12.2-1.08-18.22.35a5.13,5.13,0,0,0-4.22,4.91c-.08,1.35-.22,2.7-.31,4.06-.31,4.46-.64,8.92-.88,13.38a4,4,0,0,1-2.14,3.46,82.36,82.36,0,0,0-16.07,12.44c-2.36,2.39-3,4.44-1.56,7.47a31,31,0,0,0,8.72,11.25,4.21,4.21,0,0,0,3.77,1,78.68,78.68,0,0,0,8.1-2,93,93,0,0,0,15.67-7.71,36.18,36.18,0,0,0,8.21-6.56,27.83,27.83,0,0,0,7.46-17.48c.21-2.94.66-5.86,1-8.78C465.87,228.91,466,227.89,466.13,227.26ZM70.38,229.64c.23,2.35.81,4.16,2.65,5.41a26.11,26.11,0,0,0,7.35,3.44c2.26.67,3.28.34,4.74-1.62a6.09,6.09,0,0,1,.89-1.12c5.93-5,12.21-9.27,20.3-9.8a17.24,17.24,0,0,0,2.14-.31q10.38-1.81,20.78-3.63c5-.86,9.9-1.91,14.9-2.46,5.87-.65,11.79-.88,17.7-1.22,5-.29,10.07-.4,15.09-.76a12.72,12.72,0,0,0,4.8-1.24c3.3-1.72,3.32-5.61.16-7.43-1.25-.72-2.61-1.22-3.87-1.91-5.95-3.3-12.44-4.48-19.12-4.86a14.18,14.18,0,0,1-5.76-1.32,8.68,8.68,0,0,0-7.21-.17c-1.42.54-2.85,1.06-4.23,1.69a4.46,4.46,0,0,1-5.09-.36c-1.87-1.42-3.32-1.19-5.25.26-.5.38-.92.89-1.44,1.25-2.13,1.5-4.39,2.48-7.08,1.61-2.2-.71-3.3-.27-4.76,1.6a5.88,5.88,0,0,1-2.2,2.05,139.15,139.15,0,0,1-13.38,4.49c-4.7,1.21-9.54,2-14.35,2.69a32,32,0,0,0-9.92,3.4,15.38,15.38,0,0,0-6.93,7.38A21,21,0,0,0,70.38,229.64ZM682.12,346.83h-.07c0-1.76.08-3.52,0-5.27a8.2,8.2,0,0,0-1.29-4.29,68.24,68.24,0,0,1-4.2-6.95,9,9,0,0,0-4.37-4.24c-2.06-.94-3.63-.32-4.86,1.58-4.91,7.57-9.9,15.09-14.88,22.62-1.6,2.43-3.93,3.48-6.77,4-10,1.83-19.93,3.81-29.87,5.8a9.92,9.92,0,0,0-6.15,3.84c-1.89,2.47-4,4.8-6,7.14a4.76,4.76,0,0,1-1.57,1.07c-4.6,2-9.21,4-13.81,6.07a14.34,14.34,0,0,0-2.33,1.22,3.27,3.27,0,0,0-1.23,4.57,3.33,3.33,0,0,0,4.4,1.28q12.07-5.55,24.11-11.2A10.7,10.7,0,0,1,618,372.9c8.55,0,17.11-.23,25.66,0a25.47,25.47,0,0,0,14.54-4.08c6.82-4.3,13.43-9,20.76-12.43a5.8,5.8,0,0,0,1-.7,5,5,0,0,0,2.2-4.74A37,37,0,0,1,682.12,346.83ZM364.53,431l.33,0c0,1-.06,2.08,0,3.12.26,3.76.63,7.55,2.76,10.78a75.41,75.41,0,0,0,5.59,7.17,10.68,10.68,0,0,0,4.56,3.4c2.32.8,4.23-.05,4.79-2.44a18.81,18.81,0,0,0,.41-4.74c-.11-4.48-.26-8.95,1-13.32.6-2.06,1.37-4.07,1.91-6.13,2.06-7.86,4.82-15.39,9.74-22a63.37,63.37,0,0,0,4.3-6.61c3-5.36,5.93-10.78,8.84-16.19,1.12-2.08.93-3.78-.68-4.93-4-2.85-8.28-4.8-13.41-3.79a5.76,5.76,0,0,0-4.07,2.59c-7.62,11.63-15.32,23.2-22.95,34.81a7.92,7.92,0,0,0-1.35,3C365.65,420.88,365.12,426,364.53,431ZM279.09,292.82c-4.71-.05-8.14,1-11,3.7a38.39,38.39,0,0,1-11.55,7.55c-1.83.77-3.63,1.63-5.42,2.51a3.36,3.36,0,0,0-.37,6,5.94,5.94,0,0,0,2.43.91c4,.49,8.09.9,12.15,1.3,2.95.29,3.33.58,4,3.46q1.68,7.1,3.32,14.21c.65,2.84,2.29,4.91,5.18,5.25a10,10,0,0,0,5.29-1,30.58,30.58,0,0,0,6.74-4.52c6.24-5.59,12.3-11.4,18.46-17.09,2.24-2.06,2.6-4.64,2.29-7.44a5.6,5.6,0,0,0-2.17-3.83,48.28,48.28,0,0,0-8.64-5.54C293.07,294.68,285.73,293.44,279.09,292.82Zm-92-40.4c4.57-.25,6.94-2,7.56-6.19a7.84,7.84,0,0,0-1-5.27c-2.73-4.56-6.41-8.36-9.83-12.36a8.44,8.44,0,0,0-8-3c-7.07,1.05-14.2,1-21.3,1a180.84,180.84,0,0,0-40.18,4.36c-4.36,1-8.67,2.16-13,3.37a3.3,3.3,0,0,0-2.12,5.08,4.57,4.57,0,0,0,4.2,2.26c3.43-.09,6.87-.12,10.3,0,9.42.36,18.84.94,28.26,1.17a68.35,68.35,0,0,1,15.62,2.2c6.33,1.66,12.61,3.53,18.95,5.16C180,251.09,183.57,251.69,187.08,252.42ZM206,362.24c2.29-.35,4.61-.54,6.85-1.08,6.44-1.53,12.83-3.33,19.29-4.8,7.77-1.77,15.27-4.72,23.26-5.58a6,6,0,0,0,.69-.2,10.23,10.23,0,0,0,8.12-9.94,42,42,0,0,0-.91-8.54,11.79,11.79,0,0,0-4.5-7.65,23.2,23.2,0,0,0-10.88-4.69,5.84,5.84,0,0,0-4.95,1.29,21.4,21.4,0,0,0-3.41,4.27c-2.37,3.68-4.56,7.49-6.93,11.18a7.55,7.55,0,0,1-6,3.38,125.2,125.2,0,0,0-24.4,4.83,43.78,43.78,0,0,0-5.92,2.51,3.15,3.15,0,0,0-1.9,3.08c0,1.52.1,3,.13,4.55a5,5,0,0,0,1.55,3.39C198.71,361.18,202.06,362.27,206,362.24Zm-9-151c-3.3,0-4.09.58-5.4,3.67-.22.52-.45,1-.68,1.54a5.4,5.4,0,0,0,.84,6.23,132.17,132.17,0,0,1,12,16.13c1.92,2.93,2.87,5.61,1.49,9.13-1.3,3.32.48,5.74,3.74,6.85a23.08,23.08,0,0,0,5.16,1c3.82.39,7.65.66,11.47.91a38.14,38.14,0,0,0,5.75.12c3-.25,6.1-.41,8-3.39a2.71,2.71,0,0,1,1.91-.79,13.74,13.74,0,0,1,3.79.26c2.16.54,4.26,1.32,6.41,2a3.81,3.81,0,0,0,4.18-1c1.29-1.36,2.1-2.8,1.4-4.75a10.06,10.06,0,0,0-4.54-5.67A36.8,36.8,0,0,0,240.52,239c-3.31-.52-6.61-1.14-9.88-1.88a4.51,4.51,0,0,1-2.31-1.49c-3.06-3.68-6.09-7.39-9-11.18-3.55-4.6-8.21-7.81-13.2-10.56A18.24,18.24,0,0,0,197,211.21ZM666.78,414a46.5,46.5,0,0,0-2.14-6.25c-.81-1.66-1.85-3.36-3.94-3.93-3.28-.89-6.58-1.48-9.92-.56a97.23,97.23,0,0,1-14.35,2.68,25.59,25.59,0,0,1-16.61-3.21c-2.53-1.5-4.93-3.21-7.39-4.85a3.48,3.48,0,0,0-4.43.06,3.37,3.37,0,0,0-1,4.29c2.18,4.07,3.83,8.45,6.92,12,1.88,2.16,3.63,4.45,5.48,6.64A94,94,0,0,0,635,435.94a4.79,4.79,0,0,1,1,1,3.73,3.73,0,0,0,4,1.46,26.37,26.37,0,0,0,12.47-5.74,79.38,79.38,0,0,0,12.58-13.45C666.18,417.81,666.41,416.23,666.78,414ZM285.37,245.21a23.47,23.47,0,0,0,2.54-.74,5.18,5.18,0,0,0,3-6.85c-1-2.65-3.17-3.69-5.6-4.39-3.53-1-7.09-1.93-10.62-2.92-11-3.08-21.47-7.43-30.83-14.05A129.66,129.66,0,0,1,232.54,207c-3.1-2.76-5.77-6-8.92-8.71-5.42-4.6-11.07-8.93-16.64-13.36-2.52-2-5.16-2.31-8-.53-1.42.9-2.94,1.61-4.39,2.46a3.43,3.43,0,0,0-.87,5.65,12.61,12.61,0,0,0,2,1.64c.65.46,1.41.78,2,1.26,5.91,4.5,11.84,9,17.69,13.57,2.38,1.87,4.5,4.08,6.89,5.93,3.35,2.59,6.86,5,10.28,7.46,11.38,8.31,23.92,14.42,37.05,19.37A67.19,67.19,0,0,0,285.37,245.21Zm108.18,91.31c.58,1.91,1,3.26,1.41,4.62.33,1.06.62,2.14,1,3.18a3.5,3.5,0,0,0,2.87,2.24c1.74.35,3.56.34,4.81-.82,3-2.74,6.36-5.11,8.5-8.66l.23-.43a3.52,3.52,0,0,0-.23-3.85,28.16,28.16,0,0,0-8.81-8.34A23,23,0,0,0,391,321.17a45,45,0,0,0-23.45,6.69c-5.07,3.17-10.52,5.71-15.25,9.48a5.37,5.37,0,0,0-2.35,5.06c.14,2,1.5,2.87,3.11,3.55.37.15.73.32,1.11.46a5.9,5.9,0,0,1,3.53,3.37,11.71,11.71,0,0,0,1.65,3.18c1.53,1.77,3,3.87,5.81,3.6a20,20,0,0,0,8.84-2.78c5.84-3.66,11.36-7.74,15.87-13C390.93,339.48,392,338.24,393.55,336.52Zm246.07,44.9v-.26c-3.51,0-7-.23-10.53.06-4.77.4-9.51,1.18-14.26,1.81-2.17.29-3.39,1.3-3.8,3.08-.44,1.95.16,3.17,2.38,4.43,3.05,1.74,6.17,3.36,9.2,5.15a9.43,9.43,0,0,0,6,1.09c10.1-1,20.21-1.8,30.31-2.74a4.69,4.69,0,0,1,4.08,1.4c2.29,2.23,4.77,4.25,7.1,6.44s5,1,6.12-1.25a7.13,7.13,0,0,0,.41-1.12c.88-2.82,1.8-5.63,2.58-8.48a7.1,7.1,0,0,0,.23-3.29c-.73-3.21.24-6,1.83-8.65,1.47-2.47,3-4.87,4.53-7.33,1.57-2.62.29-5.25-2.74-5.63a10.65,10.65,0,0,0-5.41.65c-1,.42-2.1.76-3.16,1.12-7.8,2.6-15.09,6.18-21.22,11.75a6.82,6.82,0,0,1-5,1.77C645.36,381.4,642.49,381.42,639.62,381.42Zm-178.52,69c.52,1.41,1.07,3,1.65,4.52a4.65,4.65,0,0,0,2.89,2.64c2.2.92,3.89,0,5.55-1.17A46.78,46.78,0,0,0,485,441c2-3.75,2.36-7.54.07-11.38a12,12,0,0,1-1.31-3.3c-1.29-5.27-2.5-10.56-3.73-15.85-1.49-6.37-2.95-12.75-4.46-19.12-.69-2.88-3-4.53-5.62-3.91a7.82,7.82,0,0,1-5.54-.42c-2.32-1.11-4.57.49-4.65,3.09a15.58,15.58,0,0,0,.38,3.32q3.74,18.79,7.55,37.57a4.65,4.65,0,0,1-.55,3.36c-1.73,3.4-3.38,6.87-4.81,10.41A33.38,33.38,0,0,0,461.1,450.39ZM296.36,189.47A65.91,65.91,0,0,0,280,192.29c-5,1.49-9.86,3.26-14.82,4.8a79.65,79.65,0,0,1-15.86,3.63c-3.27.31-4.58,3.09-2.84,5.89a7.91,7.91,0,0,0,4.15,3.48,28.84,28.84,0,0,0,6,1.57,4.13,4.13,0,0,1,3.64,2.59,16.24,16.24,0,0,0,1.23,2c1.86,2.66,4.37,2.7,7.31.66a13.58,13.58,0,0,0,2.36-2.37,23.27,23.27,0,0,0,2.2-2.85,10.85,10.85,0,0,1,8.25-5.13c2-.25,4-.43,6-.61,4.42-.41,8.68,2.19,10.74,7.21,1.2,2.94,4,3.63,6.3,1.42a27.5,27.5,0,0,0,2.69-3.36c2.46-3.24,4.5-6.81,7.56-9.58a9.67,9.67,0,0,0,1.67-2,3.67,3.67,0,0,0-.89-5.29,19.18,19.18,0,0,0-4.13-2.4A36.79,36.79,0,0,0,296.36,189.47ZM294.3,382.9c-.31,1.13-.49,1.73-.65,2.33a3.38,3.38,0,0,0,4.6,4c.66-.28,1.29-.62,1.93-.95q24.06-12.44,48.11-24.88a5.4,5.4,0,0,0,1.74-1.56c1.78-2.44,1.6-5.28,1.27-8a3.54,3.54,0,0,0-2.24-2.94c-2.66-1-5.36-1.53-8.15-.38q-7.41,3.09-14.84,6.12c-11.16,4.57-22.29,9.23-33.5,13.67-4.68,1.85-7.22,5.35-8.69,9.84a3.28,3.28,0,0,0,3.51,4.4,27.33,27.33,0,0,0,4.44-.91C292.5,383.47,293.16,383.24,294.3,382.9Zm153.45-29.2c5.06.07,6.51-.82,8.47-4.79.92-1.87,1.85-3.72,2.8-5.57,1.32-2.58,1-4.09-1.32-5.78a10.83,10.83,0,0,0-1.63-1q-5.16-2.48-10.35-4.89a7.94,7.94,0,0,0-1.59-.5,17.31,17.31,0,0,0-10.11.95,35.89,35.89,0,0,0-11.1,6.55q-5.78,4.86-11.4,9.91a47.39,47.39,0,0,0-10.33,13.13c-1,1.82-.78,3.64.77,4.73a26.67,26.67,0,0,0,13.74,5.13,5.29,5.29,0,0,0,3.56-1.13,24,24,0,0,0,5.93-6.84c3.88-6.06,7.68-12.17,11.47-18.29.58-.94,1.17-1.42,2.31-1.13a1.91,1.91,0,0,1,1.68,2,21.32,21.32,0,0,0,.13,2.4,5.23,5.23,0,0,0,5.13,5C446.71,353.66,447.51,353.68,447.75,353.7Zm45.54-12.05c-1.88-5.58-5.81-8.94-9.43-12.53-2.29-2.27-4.72-2.4-7.28-.56a25.33,25.33,0,0,0-6.25,6.88c-1.31,2-2.62,4-4,6a21.55,21.55,0,0,0-3.61,8.28c-.6,3.05-1.29,6.09-1.76,9.17a47.77,47.77,0,0,0-.29,15.51,5.11,5.11,0,0,0,1.1,2.55,5.84,5.84,0,0,0,8.53-.17,8,8,0,0,0,1.62-2.35,55.59,55.59,0,0,0,2.77-7.62,35,35,0,0,1,4-10.46c1.32-2.15,2.75-4.24,5.42-5.6.74,2.06,1.51,3.88,2.05,5.78,1.16,4,6.69,5.77,9.57,2.45a82,82,0,0,0,6.48-8.28c1.95-2.94.39-8.12-2.67-9.88C497.46,339.61,495.45,339.4,493.29,341.65ZM360.66,286.19h-.13c0-4.16-.09-8.32,0-12.47a3.56,3.56,0,0,0-4.14-3.82c-6.83,1.24-13.63,2.63-20.44,4a4.94,4.94,0,0,0-3.77,4,79,79,0,0,0-1.88,19.51c0,2.32.9,4.36,3.44,5.23a24,24,0,0,1,4.18,1.75c5.84,3.29,12.21,5.53,17.83,9.25a21.18,21.18,0,0,0,2.51,1.4c2.94,1.45,5.7.91,7.51-1.45a3.79,3.79,0,0,0,0-5.21c-1.62-2.09-3.22-4.18-4.75-6.33a3.5,3.5,0,0,1-.73-1.95C360.35,295.44,360.52,290.81,360.66,286.19ZM147.22,129l0-.35c-5.1.32-10.23.4-15.29,1s-10,1.82-15.07,2.8a14.76,14.76,0,0,0-2.73.89,3.31,3.31,0,0,0-2.29,3.53,3.18,3.18,0,0,0,2.71,3,13.16,13.16,0,0,0,3.55.11c4.78-.34,9.55-1,14.33-1.05a146.44,146.44,0,0,1,32.12,3.41c5.7,1.2,11.53,2,16.82,4.65,6.72,3.33,13.37,6.82,20,10.27a4.49,4.49,0,0,1,1.26,1.08,3.34,3.34,0,0,0,4,1.25c1.7-.67,2.28-2.09,2.29-3.85,0-1.51.17-3,.16-4.54a5.64,5.64,0,0,0-2.69-5.21,109,109,0,0,0-18.52-9.5,94.74,94.74,0,0,0-28-7.12C155.7,129,151.45,129.12,147.22,129ZM334.47,327.4a27,27,0,0,0,2.19,1.9c1.91,1.29,3.82,2.6,5.83,3.73a3.51,3.51,0,0,0,2.51.34,33.5,33.5,0,0,0,9.61-5.27,6.7,6.7,0,0,0,1.38-1.65,3.16,3.16,0,0,0,0-4,7.29,7.29,0,0,0-2.27-2.09c-2.32-1.22-4.71-2.32-7.13-3.32-4.28-1.77-8.62-3.4-12.91-5.16a9,9,0,0,0-7,0,13.43,13.43,0,0,0-5,3.24,150.36,150.36,0,0,1-14.32,13.07,97.43,97.43,0,0,0-9.16,8.8,30.17,30.17,0,0,0-3.75,4.94c-1.77,2.81.9,5.57,3.1,5.56,3.43,0,6.87,0,10.2-1.11a72.56,72.56,0,0,0,15.21-7c4.47-2.74,8.53-5.95,10.86-10.86C334,328.19,334.16,327.93,334.47,327.4Zm256,75.13c-3.93-.16-6.83,1.73-9,4.71-1.89,2.61-1.67,5.6-.57,8.49a13.73,13.73,0,0,0,7.1,7.48,5.14,5.14,0,0,1,3.16,4.39,25.27,25.27,0,0,1,.25,2.87c0,5,2.66,8.75,5.34,12.57,1.82,2.59,4.57,3.67,7.38,4.63a18.89,18.89,0,0,0,4.19,1,17.4,17.4,0,0,0,13.81-4.15,3.34,3.34,0,0,0,1.11-4.08,18.3,18.3,0,0,0-1.76-3.37c-7.08-10-14.26-19.89-21.27-29.92a9,9,0,0,0-5.75-3.91C593.11,402.93,591.77,402.75,590.43,402.53ZM272.48,250.71l-.06.2a13.62,13.62,0,0,0-1.43,0,3.27,3.27,0,0,0-2.69,4.9,9.51,9.51,0,0,0,2.13,2.17,17,17,0,0,1,2.2,1.81q3.12,3.93,6.05,8c1.72,2.39,3.22,5,5,7.31,3.75,4.94,8.08,9.31,13.66,12.15,4.83,2.46,9.75,4.75,14.71,6.93,4.36,1.91,6.62.7,9-2.49,3-4,3.85-8.88,3.34-13.89a3.22,3.22,0,0,0-2.78-2.9,10.65,10.65,0,0,0-5.2.31,13,13,0,0,1-9.92-1.49L303.4,272a15.8,15.8,0,0,1-6.52-7.44,15.44,15.44,0,0,0-9-8.68c-3.58-1.35-7.16-2.71-10.78-4C275.59,251.36,274,251.09,272.48,250.71Zm-92.32-65.54a14.66,14.66,0,0,0,9.19-3.9c2.65-2.37,2.41-5.44-.66-7.32a17.37,17.37,0,0,0-3.69-1.7c-3.66-1.16-7.29-2.44-11-3.25-12.94-2.79-25.91-2.35-38.8.3-9.85,2-19,6-28.12,10.17-2.25,1-4.32,2.42-6.46,3.66A3.37,3.37,0,0,0,98.81,187c.29,1.48,1.47,2.41,3.27,2.73s3.11-.44,4.56-1.12c2.74-1.29,5.44-2.71,8.25-3.83a85,85,0,0,1,34-5.89c9.1.21,18,1.51,26.46,5A35.07,35.07,0,0,0,180.16,185.17ZM251,189a11.57,11.57,0,0,0-2.53-6.32c-3-3.87-5.89-7.78-9-11.5-4.54-5.38-9.31-10.56-15.18-14.57a27.48,27.48,0,0,0-3.89-2.34,3.49,3.49,0,0,0-4,.47,3.38,3.38,0,0,0-1,3.71,16.1,16.1,0,0,1,.61,2.8,9,9,0,0,0,3.13,5.74,67,67,0,0,1,11.71,15.1c2,3.4,3.86,6.82,5.8,10.22a10,10,0,0,0,1.09,1.57c1.7,1.94,2.91,2.26,5.31,1.35,1.79-.68,3.55-1.44,5.33-2.16A3.82,3.82,0,0,0,251,189Zm32.65,36.19a8.81,8.81,0,0,0,6-2.07,5.17,5.17,0,0,0,.78-7.07,7.2,7.2,0,0,0-11.55-.41,6.17,6.17,0,0,0-1.08,6.72c.89,2.16,3,2.64,5.17,2.83C283.17,225.24,283.41,225.22,283.65,225.22Z" transform="translate(-0.48 -0.48)"/><path class="cls-1" d="M559.31,339.27a31.46,31.46,0,0,1-4.61-16c-.15-4-.43-8-.38-12a17.34,17.34,0,0,1,1.15-5.11,7.15,7.15,0,0,1,4-4.45c3.86-1.73,7.56-3.81,11.37-5.67a6.7,6.7,0,0,0,3.39-3.81,30.9,30.9,0,0,0,2.46-12.1c-.1-9.2.07-18.4.24-27.59a10.43,10.43,0,0,1,1.1-3.83,2.77,2.77,0,0,1,2.73-1.65,23.63,23.63,0,0,1,5,.41c5.26,1.35,10.44,3,15.7,4.34,4.83,1.26,9.24,3.47,13.77,5.49,6.51,2.9,9.32,8,9.49,14.77a76.87,76.87,0,0,1-.79,11.22c-.69,5.62-1.08,11.33-2.9,16.75a158.56,158.56,0,0,0-4.79,17.81,17,17,0,0,1-1.53,4.27c-1.94,3.76-4,7.47-6,11.18s-5.66,5.35-9.48,6.39c-2.84.77-5.82,1-8.71,1.57a7.73,7.73,0,0,0-3.29,1.27c-5.27,4.32-11.36,5.11-17.86,4.56-4.54-.39-3.27-.82-5.75,2.71-2.66,3.8-5.2,7.68-7.88,11.46a10.84,10.84,0,0,1-2.6,2.4,3.23,3.23,0,0,1-3.63,0c-1.66-.95-3.34-1.89-5-2.86a4.84,4.84,0,0,1-2.36-5.91c.44-1.53,1-3,1.54-4.54a6.91,6.91,0,0,1,3.27-3.37c3.38-2.14,6.78-4.24,10.17-6.36C557.79,340.3,558.43,339.85,559.31,339.27Z" transform="translate(-0.48 -0.48)"/><path class="cls-1" d="M592.14,508.84a22.31,22.31,0,0,1-13-2.19,80.94,80.94,0,0,1-9.55-5.94c-3.81-2.77-7.4-5.84-11.07-8.81-2.05-1.66-4-3.41-6.09-5-4.54-3.58-7-8.46-8.51-13.85-1.16-4.18-.13-8.29,1.5-12.15a40.93,40.93,0,0,1,17.47-19.77c3.73-2.17,7.58-4.14,11.39-6.15a9.14,9.14,0,0,1,5.31-1.17,3.59,3.59,0,0,1,3.05,2.34,77.64,77.64,0,0,0,3.69,7.49c3.21,5.35,6.45,10.67,8.75,16.5.6,1.54,2.15,2.34,4.17,1.89a74.86,74.86,0,0,0,9.23-2.51c3.3-1.19,6.47-2.74,9.66-4.22a50,50,0,0,1,11.22-4.11,8.35,8.35,0,0,1,3.3-.1c3.6.8,4.95,2.49,4.41,6.4-.62,4.5-1.75,8.95-2.21,13.46a33.84,33.84,0,0,1-8.11,18.6,90.25,90.25,0,0,1-13.25,12.82A30.33,30.33,0,0,1,595,508.83C594.06,508.86,593.1,508.84,592.14,508.84Z" transform="translate(-0.48 -0.48)"/><path class="cls-1" d="M236.29,289.77a3.52,3.52,0,0,0,3.08-1.58c.42-.48.7-1.07,1.1-1.56a3.26,3.26,0,0,1,3.67-1.09,3,3,0,0,1,2.31,3c-.28,4.12.09,8.35-1.68,12.24a22.06,22.06,0,0,1-2.75,4.73c-3.36,4.16-6.87,8.21-10.35,12.28a98.92,98.92,0,0,1-14.19,13.56A25.2,25.2,0,0,1,208.9,336a17.56,17.56,0,0,1-3.77.51c-1.58.09-3.19-.11-4.76.06a95.6,95.6,0,0,1-38-3.34c-6-1.79-5.89-2.24-6.08-8.06-.17-5,1.45-9.63,3.11-14.2a54.79,54.79,0,0,1,4.33-9.32c3-5.08,6.33-10,9.61-14.9a29.21,29.21,0,0,1,8.8-8,8.86,8.86,0,0,1,4.81-1.26c7.41-.11,14.63,1.24,21.8,2.93.31.07.61.2.92.26,1.67.35,1.9.24,2.62-1.26.28-.57.46-1.2.77-1.75,1.52-2.76,4.66-2.94,6.33-.27,1.3,2.09,2.41,4.31,3.56,6.5.78,1.49,1.64,1.83,3,.93.73-.48,1.27-1.22,2-1.74a10.23,10.23,0,0,1,2.6-1.61c2.47-.85,4.24.13,4.95,2.64A20.71,20.71,0,0,1,236,287C236.16,287.83,236.2,288.7,236.29,289.77Z" transform="translate(-0.48 -0.48)"/><path class="cls-1" d="M320.08,265.62A36.33,36.33,0,0,1,308.5,264a6.59,6.59,0,0,1-4-3.19c-4.77-8-5.13-16.47-3.15-25.25a11.51,11.51,0,0,1,1.79-3.86c7.88-11.56,15.83-23.05,23.72-34.6a5.63,5.63,0,0,1,5.77-2.56c7.29.9,14.57,1.88,21.86,2.79a4.42,4.42,0,0,1,3.71,2.6c3.08,6.14,6.24,12.24,9.4,18.34a6.62,6.62,0,0,1,.12,6.59c-2.31,4.55-4.24,9.3-6.5,13.88a5.54,5.54,0,0,0,.7,6.44c1.67,2.14,3.47,4.2,5,6.46a10.4,10.4,0,0,1,1.63,4.39c.36,3-1.27,4.79-4.15,5.83a25.94,25.94,0,0,1-8.72,1.16,237.28,237.28,0,0,0-24.84,1.82C327.26,265.19,323.66,265.35,320.08,265.62Z" transform="translate(-0.48 -0.48)"/><path class="cls-1" d="M109.56,368.82c-5.14.36-10-.89-14.78-2.6s-5.41-3.31-3.81-8a50.56,50.56,0,0,1,18.75-25.12,55.76,55.76,0,0,0,6.57-5.92,8.53,8.53,0,0,0,1.8-3.07,79.28,79.28,0,0,1,5.71-12.38,17.74,17.74,0,0,1,2.44-3.53,52.7,52.7,0,0,1,9.22-7.59,131.85,131.85,0,0,1,16.16-8.32,14.35,14.35,0,0,1,1.78-.71,3.3,3.3,0,0,1,3.7,1,3.48,3.48,0,0,1,.34,4c-4.12,8.47-8.26,16.94-12.34,25.44a25.5,25.5,0,0,0-1.52,4.27,7,7,0,0,0,.54,4.9,21.31,21.31,0,0,0,6.57,7.82,36.15,36.15,0,0,0,13.48,6.58,11.89,11.89,0,0,0,3.77.21c2.38-.17,4.76-.6,7.14-.76a12.75,12.75,0,0,1,3.8.3,9.32,9.32,0,0,1,7.05,9.85c-.18,2.64-3.43,5.71-6.11,5.76a20.84,20.84,0,0,1-10-1.95,10.11,10.11,0,0,0-9.61.1,61.57,61.57,0,0,1-14.39,4.45,247.78,247.78,0,0,1-33.61,5.14C111.31,368.75,110.43,368.77,109.56,368.82Z" transform="translate(-0.48 -0.48)"/><path class="cls-1" d="M519,259.59c.22,4.86-4.63,10.32-11.51,10.84-2.47.18-4.95.37-7.42.37a2.5,2.5,0,0,0-2.66,1.86c-1,2.53-2.19,5-3.19,7.5a6.07,6.07,0,0,1-3.91,3.61c-3.79,1.27-7.61,2.44-11.43,3.61a5.66,5.66,0,0,1-4.15-.49c-4-1.81-6.51-5.11-9-8.45-1.84-2.5-3.36-5.24-5-7.9-1.42-2.33-.89-4.29.92-6.27,3.19-3.48,6.16-7.15,9.28-10.69a9,9,0,0,0,2.16-6.43q-.36-12.22-.95-24.45c-.15-3.3,1.33-5.18,4.69-5.21a63.82,63.82,0,0,1,7.17.5,93.91,93.91,0,0,1,21.89,5.1c7.47,2.69,11.34,8.26,11.91,16.09C518.26,245.32,518.52,251.47,519,259.59Z" transform="translate(-0.48 -0.48)"/><path class="cls-1" d="M73,360.94a56.11,56.11,0,0,1-34.1-12.37C29.17,341,26.69,330.73,28.28,319a24.92,24.92,0,0,1,5.46-12.08,4.35,4.35,0,0,1,3.2-1.88,3.36,3.36,0,0,1,3.43,1.72,7,7,0,0,1,.74,1.5c1.15,4.31,4.63,5.21,8.32,5.49a34.68,34.68,0,0,0,5.71-.54c2.94-.27,5.88-.63,8.83-.71a13.45,13.45,0,0,1,10.34,4.27,10.89,10.89,0,0,0,14.21,1.36,40.93,40.93,0,0,1,4.84-2.61c3.9-2,7.87-1.67,11.88-.33a31.59,31.59,0,0,0,3.47.91,3.79,3.79,0,0,1,3.11,3,3.33,3.33,0,0,1-1.68,3.88c-2.86,1.75-5.75,3.45-8.63,5.17a42,42,0,0,1-3.9,2.35A11,11,0,0,0,92.24,336c-2.47,5.27-5,10.51-7.55,15.77a29.07,29.07,0,0,1-4.18,6.39,7.48,7.48,0,0,1-6.08,2.74Z" transform="translate(-0.48 -0.48)"/><path class="cls-1" d="M503.24,438.87c.39-7.65,2.65-13.22,8.05-17.28a45.83,45.83,0,0,0,3.8-3.3,35.6,35.6,0,0,1,14.56-8.51c8.66-2.6,17.38-4.95,26.44-5.65,3.42-.27,6.87-.23,10.31-.33a7.77,7.77,0,0,1,5.1,1.79c1.74,1.36,2.13,3.07.83,4.83-2.29,3.08-1.87,6.09-.22,9.2a23.38,23.38,0,0,1,1.39,2.79,3.32,3.32,0,0,1-1.23,4.24,50,50,0,0,1-9.56,5.87,64,64,0,0,0-18.13,11.09,50,50,0,0,0-5.82,6.35c-3.52,4.5-4.06,9.81-3.45,15.27.35,3.16-.95,5.26-4.08,5.85-3.81.71-7.19-.39-10.57-2.15-4.48-2.33-7.14-6-9.6-10.3s-4.95-8.4-6.34-13.11C504,443,503.57,440.41,503.24,438.87Z" transform="translate(-0.48 -0.48)"/><path class="cls-1" d="M112.91,263.06a233,233,0,0,1,37.87,3.3,40.87,40.87,0,0,1,7.37,2,3.43,3.43,0,0,0,3.91-.81,11.93,11.93,0,0,0,1.15-1.21c2.35-2.77,5.8-2.26,7.16,1.2a16.91,16.91,0,0,1,1,4.9c.19,2.73-.74,4-3.39,5.11-5,2-9.93,4-14.9,6Q139.51,289,125.94,294.4a10.4,10.4,0,0,1-7.68.13A189.45,189.45,0,0,0,95,288c-6.8-1.46-13.68-1.05-20.53-.27a61.08,61.08,0,0,0-13.53,3c-1.12.4-2.23.87-3.31,1.38-1.9.91-3.33,1-4.41-.2-1.32-1.44-2.41-3.06-1.63-5.19a15.59,15.59,0,0,1,4.78-7A70.19,70.19,0,0,1,78.09,267.8a93.18,93.18,0,0,1,22.81-4.2C105.2,263.28,109.52,263.2,112.91,263.06Z" transform="translate(-0.48 -0.48)"/><path class="cls-1" d="M665.23,311.65a23,23,0,0,1-1.16,3.27Q657.48,327,650.8,339.1a13,13,0,0,1-8,6.35q-19.63,5.87-39.18,12a24.78,24.78,0,0,0-8.19,4.38c-4.54,3.67-9.12,7.29-13.64,11-3.16,2.57-7,3.35-10.79,4.39a3.46,3.46,0,0,1-4-1.59,3.42,3.42,0,0,1,.29-4c1.06-1.59,2.09-3.22,3.07-4.87a6.52,6.52,0,0,1,4.53-3.21c2.19-.45,4.33-1.16,6.54-1.52a17.32,17.32,0,0,0,7.65-3.74c4.4-3.32,8.76-6.71,13.25-9.92a21,21,0,0,1,5.09-2.53c2.48-.9,5.06-1.51,7.57-2.3a9,9,0,0,0,6.56-7.43c3.27-16.22,6.69-32.4,10.09-48.59a20.18,20.18,0,0,1,1.16-3.63,3.32,3.32,0,0,1,4.55-1.88,9.49,9.49,0,0,1,1.5.74c4.32,2.58,8.61,5.22,13,7.76a10,10,0,0,1,3.69,3.66c2.89,4.88,5.81,9.75,8.65,14.67A17.84,17.84,0,0,1,665.23,311.65Z" transform="translate(-0.48 -0.48)"/><path class="cls-1" d="M500.12,289.91c.65-2.25,1.34-4.22,1.77-6.24a5.26,5.26,0,0,1,4.38-4.22c3.1-.74,6.24-1.31,9.38-1.93a3.9,3.9,0,0,1,4.17,1.72c1.26,1.74,2.47,3.51,3.66,5.3a70.91,70.91,0,0,1,9,17.64c.93,2.89,1.91,5.76,2.91,8.62a14.32,14.32,0,0,1,.43,8.49c-.6,2.31-1.11,4.67-1.91,6.92-2.28,6.43-7.32,10.07-13.3,12.63-4.18,1.78-8.52,2.46-12.77.4a51.61,51.61,0,0,1-7.57-4.57,25.49,25.49,0,0,1-4.32-4.12c-3.16-3.61-6.32-7.22-9.24-11a92.88,92.88,0,0,1-5.64-8.6,3.84,3.84,0,0,1-.32-2.51q1.14-6.26,2.5-12.45c.66-3,2-4.18,5-4.56Z" transform="translate(-0.48 -0.48)"/><path class="cls-1" d="M473.26,303.52c.26,5.67-1.74,10.87-3.34,16.13a26.74,26.74,0,0,1-5.37,9.29c-1.83,2.18-3.62,2.26-6.15.9-5.77-3.1-11.62-6.06-17.43-9.1a2.4,2.4,0,0,0-2.27,0c-4.65,2.11-9.32,4.17-14,6.28a3.26,3.26,0,0,1-4-.53c-2.8-2.9-4.86-5.92-3.77-10.44,2.31-9.55,4.27-19.19,6.36-28.79a9,9,0,0,1,5.83-7c5.37-2.06,10.68-4.29,16-6.54a7.2,7.2,0,0,1,8.6,2.09c5,6.24,10.18,12.34,15.29,18.49a17.78,17.78,0,0,0,2,2.37A6.52,6.52,0,0,1,473.26,303.52Z" transform="translate(-0.48 -0.48)"/><path class="cls-1" d="M423.86,224.8c0,2.08-.11,4.17,0,6.24.23,3.85-1.49,6.8-4.16,9.28A14.63,14.63,0,0,1,414,243.6c-9.69,3-19.33,6.12-29,9.19-4.06,1.29-5.79.44-7.42-3.58-1.17-2.89-2.32-5.78-3.51-8.66a7.73,7.73,0,0,1-.19-5.6c1.18-3.56,2.29-7.14,3.49-10.7a3.17,3.17,0,0,0-.11-2.74c-2.58-4.87-5-9.8-7.7-14.63-.82-1.49-1.49-2.85-.62-4.46s2.5-1.73,4.15-1.78a108.77,108.77,0,0,1,27.08,3c2.26.5,4.53.91,6.81,1.34,5.52,1,10.53,3.08,14.67,7.05a6.9,6.9,0,0,1,2.19,5.11c0,2.56,0,5.12,0,7.67Z" transform="translate(-0.48 -0.48)"/><path class="cls-1" d="M528.24,252.43c0-4.56,0-9.11,0-13.67,0-2.67.69-3.76,3.14-4.75a11.61,11.61,0,0,1,6.61-.55c4.86.92,9.77,1.72,14.51,3.09A31.79,31.79,0,0,1,565,243.32a11,11,0,0,1,3.66,9c-.36,6.7-.87,13.4-1.3,20.1-.2,3-.3,6.07-.57,9.09a5,5,0,0,1-.92,2.63,68.41,68.41,0,0,1-6.81,7.69c-3.2,2.88-6.76,5.34-10.2,7.94a6.55,6.55,0,0,1-2,.84,4.17,4.17,0,0,1-5.28-2.08A162.32,162.32,0,0,1,531,276.38a31.87,31.87,0,0,1-2.14-10.52c-.14-4.48-.25-8.95-.37-13.43Z" transform="translate(-0.48 -0.48)"/><path class="cls-1" d="M414.86,287c-.35,3.09-.63,6.19-1.09,9.26a15.93,15.93,0,0,1-1.27,4.34,16.93,16.93,0,0,0-1.67,6.92,6.41,6.41,0,0,1-1.71,4.82,3.86,3.86,0,0,1-4.58.95c-1.39-.61-2.76-1.28-4.08-2a4.33,4.33,0,0,0-3.21-.43c-4.61,1-9.25,1.83-13.85,2.81a3.56,3.56,0,0,1-3.83-1.29c-3.88-4.7-6.9-10-10.06-15.15a8.93,8.93,0,0,1-1.07-5.74c.61-6.28,1-12.58,1.56-18.87.3-3.63,1.4-4.72,5-5.77,7.35-2.17,14.67-4.45,22-6.72,2-.63,3.28-.35,4.57,1.46s2.45,3.74,3.67,5.62c2.8,4.28,5.64,8.53,8.35,12.86a9.17,9.17,0,0,1,1.11,3.33,23.86,23.86,0,0,1,0,3.59Z" transform="translate(-0.48 -0.48)"/><path class="cls-1" d="M466.13,227.26c-.09.63-.26,1.65-.39,2.68-.35,2.92-.8,5.84-1,8.78a27.83,27.83,0,0,1-7.46,17.48,36.18,36.18,0,0,1-8.21,6.56,93,93,0,0,1-15.67,7.71,78.68,78.68,0,0,1-8.1,2,4.21,4.21,0,0,1-3.77-1,31,31,0,0,1-8.72-11.25c-1.44-3-.8-5.08,1.56-7.47a82.36,82.36,0,0,1,16.07-12.44,4,4,0,0,0,2.14-3.46c.24-4.46.57-8.92.88-13.38.09-1.36.23-2.71.31-4.06a5.13,5.13,0,0,1,4.22-4.91c6-1.43,12.12-2.2,18.22-.35,5.18,1.58,8.31,5.14,9.75,10.29a4.88,4.88,0,0,1,.18.94C466.16,225.89,466.13,226.37,466.13,227.26Z" transform="translate(-0.48 -0.48)"/><path class="cls-1" d="M70.38,229.64a21,21,0,0,1,.91-2.94,15.38,15.38,0,0,1,6.93-7.38,32,32,0,0,1,9.92-3.4c4.81-.74,9.65-1.48,14.35-2.69a139.15,139.15,0,0,0,13.38-4.49,5.88,5.88,0,0,0,2.2-2.05c1.46-1.87,2.56-2.31,4.76-1.6,2.69.87,5-.11,7.08-1.61.52-.36.94-.87,1.44-1.25,1.93-1.45,3.38-1.68,5.25-.26a4.46,4.46,0,0,0,5.09.36c1.38-.63,2.81-1.15,4.23-1.69a8.68,8.68,0,0,1,7.21.17,14.18,14.18,0,0,0,5.76,1.32c6.68.38,13.17,1.56,19.12,4.86,1.26.69,2.62,1.19,3.87,1.91,3.16,1.82,3.14,5.71-.16,7.43a12.72,12.72,0,0,1-4.8,1.24c-5,.36-10.06.47-15.09.76-5.91.34-11.83.57-17.7,1.22-5,.55-9.94,1.6-14.9,2.46q-10.39,1.8-20.78,3.63a17.24,17.24,0,0,1-2.14.31c-8.09.53-14.37,4.81-20.3,9.8a6.09,6.09,0,0,0-.89,1.12c-1.46,2-2.48,2.29-4.74,1.62A26.11,26.11,0,0,1,73,235.05C71.19,233.8,70.61,232,70.38,229.64Z" transform="translate(-0.48 -0.48)"/><path class="cls-1" d="M682.12,346.83a37,37,0,0,0,0,4.08,5,5,0,0,1-2.2,4.74,5.8,5.8,0,0,1-1,.7c-7.33,3.47-13.94,8.13-20.76,12.43a25.47,25.47,0,0,1-14.54,4.08c-8.55-.19-17.11.05-25.66,0a10.7,10.7,0,0,0-4.81,1.17q-12,5.67-24.11,11.2a3.33,3.33,0,0,1-4.4-1.28,3.27,3.27,0,0,1,1.23-4.57,14.34,14.34,0,0,1,2.33-1.22c4.6-2,9.21-4,13.81-6.07a4.76,4.76,0,0,0,1.57-1.07c2-2.34,4.11-4.67,6-7.14a9.92,9.92,0,0,1,6.15-3.84c9.94-2,19.89-4,29.87-5.8,2.84-.52,5.17-1.57,6.77-4,5-7.53,10-15,14.88-22.62,1.23-1.9,2.8-2.52,4.86-1.58a9,9,0,0,1,4.37,4.24,68.24,68.24,0,0,0,4.2,6.95,8.2,8.2,0,0,1,1.29,4.29c.11,1.75,0,3.51,0,5.27Z" transform="translate(-0.48 -0.48)"/><path class="cls-1" d="M364.53,431c.59-5.08,1.12-10.16,1.81-15.21a7.92,7.92,0,0,1,1.35-3c7.63-11.61,15.33-23.18,22.95-34.81a5.76,5.76,0,0,1,4.07-2.59c5.13-1,9.41.94,13.41,3.79,1.61,1.15,1.8,2.85.68,4.93C405.89,389.53,403,395,400,400.31a63.37,63.37,0,0,1-4.3,6.61c-4.92,6.6-7.68,14.13-9.74,22C385.38,431,384.61,433,384,435c-1.28,4.37-1.13,8.84-1,13.32a18.81,18.81,0,0,1-.41,4.74c-.56,2.39-2.47,3.24-4.79,2.44a10.68,10.68,0,0,1-4.56-3.4,75.41,75.41,0,0,1-5.59-7.17c-2.13-3.23-2.5-7-2.76-10.78-.08-1,0-2.08,0-3.12Z" transform="translate(-0.48 -0.48)"/><path class="cls-1" d="M279.09,292.82c6.64.62,14,1.86,20.76,5.51a48.28,48.28,0,0,1,8.64,5.54,5.6,5.6,0,0,1,2.17,3.83c.31,2.8-.05,5.38-2.29,7.44-6.16,5.69-12.22,11.5-18.46,17.09a30.58,30.58,0,0,1-6.74,4.52,10,10,0,0,1-5.29,1c-2.89-.34-4.53-2.41-5.18-5.25q-1.63-7.11-3.32-14.21c-.68-2.88-1.06-3.17-4-3.46-4.06-.4-8.11-.81-12.15-1.3a5.94,5.94,0,0,1-2.43-.91,3.36,3.36,0,0,1,.37-6c1.79-.88,3.59-1.74,5.42-2.51a38.39,38.39,0,0,0,11.55-7.55C271,293.85,274.38,292.77,279.09,292.82Z" transform="translate(-0.48 -0.48)"/><path class="cls-1" d="M187.08,252.42c-3.51-.73-7.05-1.33-10.51-2.23-6.34-1.63-12.62-3.5-18.95-5.16a68.35,68.35,0,0,0-15.62-2.2c-9.42-.23-18.84-.81-28.26-1.17-3.43-.13-6.87-.1-10.3,0a4.57,4.57,0,0,1-4.2-2.26,3.3,3.3,0,0,1,2.12-5.08c4.3-1.21,8.61-2.39,13-3.37a180.84,180.84,0,0,1,40.18-4.36c7.1,0,14.23.1,21.3-1a8.44,8.44,0,0,1,8,3c3.42,4,7.1,7.8,9.83,12.36a7.84,7.84,0,0,1,1,5.27C194,250.38,191.65,252.17,187.08,252.42Z" transform="translate(-0.48 -0.48)"/><path class="cls-1" d="M206,362.24c-3.91,0-7.26-1.06-9.95-4a5,5,0,0,1-1.55-3.39c0-1.51-.11-3-.13-4.55a3.15,3.15,0,0,1,1.9-3.08,43.78,43.78,0,0,1,5.92-2.51,125.2,125.2,0,0,1,24.4-4.83,7.55,7.55,0,0,0,6-3.38c2.37-3.69,4.56-7.5,6.93-11.18a21.4,21.4,0,0,1,3.41-4.27,5.84,5.84,0,0,1,4.95-1.29,23.2,23.2,0,0,1,10.88,4.69,11.79,11.79,0,0,1,4.5,7.65,42,42,0,0,1,.91,8.54,10.23,10.23,0,0,1-8.12,9.94,6,6,0,0,1-.69.2c-8,.86-15.49,3.81-23.26,5.58-6.46,1.47-12.85,3.27-19.29,4.8C210.58,361.7,208.26,361.89,206,362.24Z" transform="translate(-0.48 -0.48)"/><path class="cls-1" d="M197,211.21a18.24,18.24,0,0,1,9.1,2.64c5,2.75,9.65,6,13.2,10.56,2.93,3.79,6,7.5,9,11.18a4.51,4.51,0,0,0,2.31,1.49c3.27.74,6.57,1.36,9.88,1.88a36.8,36.8,0,0,1,12.07,4.48,10.06,10.06,0,0,1,4.54,5.67c.7,1.95-.11,3.39-1.4,4.75a3.81,3.81,0,0,1-4.18,1c-2.15-.64-4.25-1.42-6.41-2a13.74,13.74,0,0,0-3.79-.26,2.71,2.71,0,0,0-1.91.79c-1.94,3-5,3.14-8,3.39a38.14,38.14,0,0,1-5.75-.12c-3.82-.25-7.65-.52-11.47-.91a23.08,23.08,0,0,1-5.16-1c-3.26-1.11-5-3.53-3.74-6.85,1.38-3.52.43-6.2-1.49-9.13a132.17,132.17,0,0,0-12-16.13,5.4,5.4,0,0,1-.84-6.23c.23-.51.46-1,.68-1.54C192.92,211.79,193.71,211.26,197,211.21Z" transform="translate(-0.48 -0.48)"/><path class="cls-1" d="M666.78,414c-.37,2.23-.6,3.81-1.72,5.24a79.38,79.38,0,0,1-12.58,13.45A26.37,26.37,0,0,1,640,438.43a3.73,3.73,0,0,1-4-1.46,4.79,4.79,0,0,0-1-1,94,94,0,0,1-15.68-15.07c-1.85-2.19-3.6-4.48-5.48-6.64-3.09-3.55-4.74-7.93-6.92-12a3.37,3.37,0,0,1,1-4.29,3.48,3.48,0,0,1,4.43-.06c2.46,1.64,4.86,3.35,7.39,4.85a25.59,25.59,0,0,0,16.61,3.21,97.23,97.23,0,0,0,14.35-2.68c3.34-.92,6.64-.33,9.92.56,2.09.57,3.13,2.27,3.94,3.93A46.5,46.5,0,0,1,666.78,414Z" transform="translate(-0.48 -0.48)"/><path class="cls-1" d="M285.37,245.21a67.19,67.19,0,0,1-15.63-3.46c-13.13-4.95-25.67-11.06-37.05-19.37-3.42-2.5-6.93-4.87-10.28-7.46-2.39-1.85-4.51-4.06-6.89-5.93-5.85-4.59-11.78-9.07-17.69-13.57-.63-.48-1.39-.8-2-1.26a12.61,12.61,0,0,1-2-1.64,3.43,3.43,0,0,1,.87-5.65c1.45-.85,3-1.56,4.39-2.46,2.82-1.78,5.46-1.47,8,.53,5.57,4.43,11.22,8.76,16.64,13.36,3.15,2.69,5.82,5.95,8.92,8.71a129.66,129.66,0,0,0,11.29,9.25c9.36,6.62,19.82,11,30.83,14.05,3.53,1,7.09,1.9,10.62,2.92,2.43.7,4.61,1.74,5.6,4.39a5.18,5.18,0,0,1-3,6.85A23.47,23.47,0,0,1,285.37,245.21Z" transform="translate(-0.48 -0.48)"/><path class="cls-1" d="M393.55,336.52c-1.51,1.72-2.62,3-3.7,4.23-4.51,5.29-10,9.37-15.87,13a20,20,0,0,1-8.84,2.78c-2.85.27-4.28-1.83-5.81-3.6a11.71,11.71,0,0,1-1.65-3.18,5.9,5.9,0,0,0-3.53-3.37c-.38-.14-.74-.31-1.11-.46-1.61-.68-3-1.53-3.11-3.55a5.37,5.37,0,0,1,2.35-5.06c4.73-3.77,10.18-6.31,15.25-9.48A45,45,0,0,1,391,321.17a23,23,0,0,1,12.35,3.29,28.16,28.16,0,0,1,8.81,8.34,3.52,3.52,0,0,1,.23,3.85l-.23.43c-2.14,3.55-5.52,5.92-8.5,8.66-1.25,1.16-3.07,1.17-4.81.82a3.5,3.5,0,0,1-2.87-2.24c-.38-1-.67-2.12-1-3.18C394.55,339.78,394.13,338.43,393.55,336.52Z" transform="translate(-0.48 -0.48)"/><path class="cls-1" d="M639.62,381.42c2.87,0,5.74,0,8.62,0a6.82,6.82,0,0,0,5-1.77c6.13-5.57,13.42-9.15,21.22-11.75,1.06-.36,2.12-.7,3.16-1.12a10.65,10.65,0,0,1,5.41-.65c3,.38,4.31,3,2.74,5.63-1.48,2.46-3.06,4.86-4.53,7.33-1.59,2.66-2.56,5.44-1.83,8.65a7.1,7.1,0,0,1-.23,3.29c-.78,2.85-1.7,5.66-2.58,8.48a7.13,7.13,0,0,1-.41,1.12c-1.14,2.23-3.74,3.49-6.12,1.25s-4.81-4.21-7.1-6.44a4.69,4.69,0,0,0-4.08-1.4c-10.1.94-20.21,1.77-30.31,2.74a9.43,9.43,0,0,1-6-1.09c-3-1.79-6.15-3.41-9.2-5.15-2.22-1.26-2.82-2.48-2.38-4.43.41-1.78,1.63-2.79,3.8-3.08,4.75-.63,9.49-1.41,14.26-1.81,3.49-.29,7-.06,10.53-.06Z" transform="translate(-0.48 -0.48)"/><path class="cls-1" d="M461.1,450.39a33.38,33.38,0,0,1,1.2-5.64c1.43-3.54,3.08-7,4.81-10.41a4.65,4.65,0,0,0,.55-3.36q-3.84-18.78-7.55-37.57a15.58,15.58,0,0,1-.38-3.32c.08-2.6,2.33-4.2,4.65-3.09a7.82,7.82,0,0,0,5.54.42c2.64-.62,4.93,1,5.62,3.91,1.51,6.37,3,12.75,4.46,19.12,1.23,5.29,2.44,10.58,3.73,15.85a12,12,0,0,0,1.31,3.3c2.29,3.84,2,7.63-.07,11.38a46.78,46.78,0,0,1-13.78,15.4c-1.66,1.2-3.35,2.09-5.55,1.17a4.65,4.65,0,0,1-2.89-2.64C462.17,453.36,461.62,451.8,461.1,450.39Z" transform="translate(-0.48 -0.48)"/><path class="cls-1" d="M296.36,189.47a36.79,36.79,0,0,1,15.2,2.48,19.18,19.18,0,0,1,4.13,2.4,3.67,3.67,0,0,1,.89,5.29,9.67,9.67,0,0,1-1.67,2c-3.06,2.77-5.1,6.34-7.56,9.58a27.5,27.5,0,0,1-2.69,3.36c-2.33,2.21-5.1,1.52-6.3-1.42-2.06-5-6.32-7.62-10.74-7.21-2,.18-4,.36-6,.61a10.85,10.85,0,0,0-8.25,5.13,23.27,23.27,0,0,1-2.2,2.85,13.58,13.58,0,0,1-2.36,2.37c-2.94,2-5.45,2-7.31-.66a16.24,16.24,0,0,1-1.23-2,4.13,4.13,0,0,0-3.64-2.59,28.84,28.84,0,0,1-6-1.57,7.91,7.91,0,0,1-4.15-3.48c-1.74-2.8-.43-5.58,2.84-5.89a79.65,79.65,0,0,0,15.86-3.63c5-1.54,9.84-3.31,14.82-4.8A65.91,65.91,0,0,1,296.36,189.47Z" transform="translate(-0.48 -0.48)"/><path class="cls-1" d="M294.3,382.9c-1.14.34-1.8.57-2.47.73a27.33,27.33,0,0,1-4.44.91,3.28,3.28,0,0,1-3.51-4.4c1.47-4.49,4-8,8.69-9.84,11.21-4.44,22.34-9.1,33.5-13.67q7.43-3,14.84-6.12c2.79-1.15,5.49-.61,8.15.38a3.54,3.54,0,0,1,2.24,2.94c.33,2.76.51,5.6-1.27,8a5.4,5.4,0,0,1-1.74,1.56q-24,12.46-48.11,24.88c-.64.33-1.27.67-1.93.95a3.38,3.38,0,0,1-4.6-4C293.81,384.63,294,384,294.3,382.9Z" transform="translate(-0.48 -0.48)"/><path class="cls-1" d="M447.75,353.7c-.24,0-1,0-1.84-.12a5.23,5.23,0,0,1-5.13-5,21.32,21.32,0,0,1-.13-2.4,1.91,1.91,0,0,0-1.68-2c-1.14-.29-1.73.19-2.31,1.13-3.79,6.12-7.59,12.23-11.47,18.29a24,24,0,0,1-5.93,6.84,5.29,5.29,0,0,1-3.56,1.13A26.67,26.67,0,0,1,402,366.43c-1.55-1.09-1.74-2.91-.77-4.73a47.39,47.39,0,0,1,10.33-13.13q5.63-5,11.4-9.91a35.89,35.89,0,0,1,11.1-6.55,17.31,17.31,0,0,1,10.11-.95,7.94,7.94,0,0,1,1.59.5q5.19,2.41,10.35,4.89a10.83,10.83,0,0,1,1.63,1c2.31,1.69,2.64,3.2,1.32,5.78-.95,1.85-1.88,3.7-2.8,5.57C454.26,352.88,452.81,353.77,447.75,353.7Z" transform="translate(-0.48 -0.48)"/><path class="cls-1" d="M493.29,341.65c2.16-2.25,4.17-2,6.23-.86,3.06,1.76,4.62,6.94,2.67,9.88a82,82,0,0,1-6.48,8.28c-2.88,3.32-8.41,1.58-9.57-2.45-.54-1.9-1.31-3.72-2.05-5.78-2.67,1.36-4.1,3.45-5.42,5.6a35,35,0,0,0-4,10.46,55.59,55.59,0,0,1-2.77,7.62,8,8,0,0,1-1.62,2.35,5.84,5.84,0,0,1-8.53.17,5.11,5.11,0,0,1-1.1-2.55,47.77,47.77,0,0,1,.29-15.51c.47-3.08,1.16-6.12,1.76-9.17a21.55,21.55,0,0,1,3.61-8.28c1.38-2,2.69-4,4-6a25.33,25.33,0,0,1,6.25-6.88c2.56-1.84,5-1.71,7.28.56C487.48,332.71,491.41,336.07,493.29,341.65Z" transform="translate(-0.48 -0.48)"/><path class="cls-1" d="M360.66,286.19c-.14,4.62-.31,9.25-.38,13.87A3.5,3.5,0,0,0,361,302c1.53,2.15,3.13,4.24,4.75,6.33a3.79,3.79,0,0,1,0,5.21c-1.81,2.36-4.57,2.9-7.51,1.45a21.18,21.18,0,0,1-2.51-1.4c-5.62-3.72-12-6-17.83-9.25a24,24,0,0,0-4.18-1.75c-2.54-.87-3.42-2.91-3.44-5.23a79,79,0,0,1,1.88-19.51,4.94,4.94,0,0,1,3.77-4c6.81-1.37,13.61-2.76,20.44-4a3.56,3.56,0,0,1,4.14,3.82c-.12,4.15,0,8.31,0,12.47Z" transform="translate(-0.48 -0.48)"/><path class="cls-1" d="M147.22,129c4.23.11,8.48,0,12.7.37a94.74,94.74,0,0,1,28,7.12,109,109,0,0,1,18.52,9.5,5.64,5.64,0,0,1,2.69,5.21c0,1.52-.14,3-.16,4.54,0,1.76-.59,3.18-2.29,3.85a3.34,3.34,0,0,1-4-1.25,4.49,4.49,0,0,0-1.26-1.08c-6.66-3.45-13.31-6.94-20-10.27-5.29-2.62-11.12-3.45-16.82-4.65a146.44,146.44,0,0,0-32.12-3.41c-4.78.06-9.55.71-14.33,1.05a13.16,13.16,0,0,1-3.55-.11,3.18,3.18,0,0,1-2.71-3,3.31,3.31,0,0,1,2.29-3.53,14.76,14.76,0,0,1,2.73-.89c5-1,10-2.16,15.07-2.8s10.19-.72,15.29-1Z" transform="translate(-0.48 -0.48)"/><path class="cls-1" d="M334.47,327.4c-.31.53-.49.79-.62,1.08-2.33,4.91-6.39,8.12-10.86,10.86a72.56,72.56,0,0,1-15.21,7c-3.33,1.11-6.77,1.08-10.2,1.11-2.2,0-4.87-2.75-3.1-5.56a30.17,30.17,0,0,1,3.75-4.94,97.43,97.43,0,0,1,9.16-8.8,150.36,150.36,0,0,0,14.32-13.07,13.43,13.43,0,0,1,5-3.24,9,9,0,0,1,7,0c4.29,1.76,8.63,3.39,12.91,5.16,2.42,1,4.81,2.1,7.13,3.32a7.29,7.29,0,0,1,2.27,2.09,3.16,3.16,0,0,1,0,4,6.7,6.7,0,0,1-1.38,1.65,33.5,33.5,0,0,1-9.61,5.27,3.51,3.51,0,0,1-2.51-.34c-2-1.13-3.92-2.44-5.83-3.73A27,27,0,0,1,334.47,327.4Z" transform="translate(-0.48 -0.48)"/><path class="cls-1" d="M590.43,402.53c1.34.22,2.68.4,4,.68a9,9,0,0,1,5.75,3.91c7,10,14.19,19.94,21.27,29.92a18.3,18.3,0,0,1,1.76,3.37,3.34,3.34,0,0,1-1.11,4.08,17.4,17.4,0,0,1-13.81,4.15,18.89,18.89,0,0,1-4.19-1c-2.81-1-5.56-2-7.38-4.63-2.68-3.82-5.36-7.61-5.34-12.57a25.27,25.27,0,0,0-.25-2.87,5.14,5.14,0,0,0-3.16-4.39,13.73,13.73,0,0,1-7.1-7.48c-1.1-2.89-1.32-5.88.57-8.49C583.6,404.26,586.5,402.37,590.43,402.53Z" transform="translate(-0.48 -0.48)"/><path class="cls-1" d="M272.48,250.71c1.53.38,3.11.65,4.59,1.17,3.62,1.26,7.2,2.62,10.78,4a15.44,15.44,0,0,1,9,8.68A15.8,15.8,0,0,0,303.4,272l3.12,1.78a13,13,0,0,0,9.92,1.49,10.65,10.65,0,0,1,5.2-.31,3.22,3.22,0,0,1,2.78,2.9c.51,5-.34,9.9-3.34,13.89-2.41,3.19-4.67,4.4-9,2.49-5-2.18-9.88-4.47-14.71-6.93-5.58-2.84-9.91-7.21-13.66-12.15-1.78-2.35-3.28-4.92-5-7.31q-2.94-4.08-6.05-8a17,17,0,0,0-2.2-1.81,9.51,9.51,0,0,1-2.13-2.17,3.27,3.27,0,0,1,2.69-4.9,13.62,13.62,0,0,1,1.43,0Z" transform="translate(-0.48 -0.48)"/><path class="cls-1" d="M180.16,185.17a35.07,35.07,0,0,1-4.81-1.28c-8.48-3.52-17.36-4.82-26.46-5a85,85,0,0,0-34,5.89c-2.81,1.12-5.51,2.54-8.25,3.83-1.45.68-2.86,1.43-4.56,1.12s-3-1.25-3.27-2.73a3.37,3.37,0,0,1,1.78-3.84c2.14-1.24,4.21-2.64,6.46-3.66,9.1-4.13,18.27-8.15,28.12-10.17,12.89-2.65,25.86-3.09,38.8-.3,3.74.81,7.37,2.09,11,3.25a17.37,17.37,0,0,1,3.69,1.7c3.07,1.88,3.31,5,.66,7.32A14.66,14.66,0,0,1,180.16,185.17Z" transform="translate(-0.48 -0.48)"/><path class="cls-1" d="M251,189a3.82,3.82,0,0,1-2.69,4.07c-1.78.72-3.54,1.48-5.33,2.16-2.4.91-3.61.59-5.31-1.35a10,10,0,0,1-1.09-1.57c-1.94-3.4-3.84-6.82-5.8-10.22A67,67,0,0,0,219.07,167a9,9,0,0,1-3.13-5.74,16.1,16.1,0,0,0-.61-2.8,3.38,3.38,0,0,1,1-3.71,3.49,3.49,0,0,1,4-.47,27.48,27.48,0,0,1,3.89,2.34c5.87,4,10.64,9.19,15.18,14.57,3.15,3.72,6.07,7.63,9,11.5A11.57,11.57,0,0,1,251,189Z" transform="translate(-0.48 -0.48)"/><path class="cls-1" d="M283.65,225.22c-.24,0-.48,0-.71,0-2.14-.19-4.28-.67-5.17-2.83a6.17,6.17,0,0,1,1.08-6.72,7.2,7.2,0,0,1,11.55.41,5.17,5.17,0,0,1-.78,7.07A8.81,8.81,0,0,1,283.65,225.22Z" transform="translate(-0.48 -0.48)"/></svg>