<svg id="Layer_1" data-name="Layer 1" xmlns="http://www.w3.org/2000/svg" viewBox="0 0 720 612"><defs><style>.cls-1{fill:none;stroke:#000;stroke-miterlimit:10;stroke-width:0.01px;}</style></defs><path d="M.48,612.48V.48h720v612ZM235.6,388.91a38.55,38.55,0,0,0,15.75-3.47c5.73-2.51,8.81-6.91,9.14-12.94a35.48,35.48,0,0,0-1.41-12.56c-.68-2.13-1.37-4.26-2.09-6.37a26.86,26.86,0,0,0-4.72-8.56c-1.77-2.16-3.59-4.3-5.53-6.3a37.2,37.2,0,0,0-7.35-6.11A172.34,172.34,0,0,1,219,318.75c-4.08-3.32-8.2-6.64-13.06-8.87a19,19,0,0,0-10-1.76c-3.37.36-6.47,1.54-8.06,4.82a25.82,25.82,0,0,0-2.34,11.87c.06,4.92,1.72,9.42,3.49,13.86a81.9,81.9,0,0,0,4.63,9.16,50,50,0,0,0,3.53,5.4,42,42,0,0,0,10.94,9.93,11.72,11.72,0,0,1,5.15,7.74,20.47,20.47,0,0,0,3.59,8.8C221.69,385.81,227.72,389.5,235.6,388.91ZM200,301.28a56.13,56.13,0,0,0,5.68-.72A4,4,0,0,0,207.9,299c1.63-2.55,3.17-5.18,4.56-7.86,1.74-3.33,3.35-6.73,4.93-10.13a7.4,7.4,0,0,1,6-4.53c3.33-.46,6.64-1,10-1.32a5.41,5.41,0,0,0,3.72-1.86,46.23,46.23,0,0,0,11.38-25.4,29.62,29.62,0,0,0-.44-7.61c-.33-2.46-1.79-3.88-4.41-4.27a68.59,68.59,0,0,0-19.35-.48c-4.66.63-9.29,1.54-13.92,2.41-6,1.14-12.11,2.18-18.09,3.61a92.76,92.76,0,0,0-10.88,3.67,6,6,0,0,0-3.93,4.76,16,16,0,0,1-1.17,3.65q-3.74,8-7.62,16c-.71,1.47-1.06,2.94-.2,4.34a87.89,87.89,0,0,0,6,9.21,85.05,85.05,0,0,1,9,13,4.64,4.64,0,0,0,2.24,2A41.58,41.58,0,0,0,200,301.28Zm76.5-12.75a32.31,32.31,0,0,0,4.69-.4,18.92,18.92,0,0,0,12.36-8.82c3.37-5.42,6.37-11.08,7.71-17.45.47-2.26,1-4.52,1.7-6.73a50.36,50.36,0,0,1,7.82-16.08A28.67,28.67,0,0,1,321,230.53,64.63,64.63,0,0,1,331.1,227,32.39,32.39,0,0,0,342,221.59a4.67,4.67,0,0,0,1.75-4.88,4.24,4.24,0,0,0-4.14-2.7,19.51,19.51,0,0,0-3.57.32c-4.18.68-8.34,1.44-12.51,2.12-19.45,3.16-38.37,8.39-57,14.62a42.62,42.62,0,0,0-6.76,3c-1.87,1-2.34,2.68-1.75,4.73.26.92.58,1.83.76,2.76a23.91,23.91,0,0,1-3.91,18.7,28.06,28.06,0,0,0-4.5,9.73,11.07,11.07,0,0,0,2,9.75,20.37,20.37,0,0,0,10.59,7.07A47,47,0,0,0,276.47,288.53Zm48.17,39c3.88.32,7.69.6,11.49,1a30.15,30.15,0,0,1,5.18.88,3.55,3.55,0,0,0,4.63-4.8c-.7-2.09-.55-2.43,1.33-3.69,2.6-1.74,2.78-4.14.59-6.41-1.5-1.56-3-3.15-4.33-4.82-4.22-5.16-6.07-10.83-4.44-17.61,1.69-7,1.67-14.24,1.24-21.43-.27-4.58-2.24-8.45-5-12a10,10,0,0,0-8.12-3.94,15.85,15.85,0,0,0-7.42,1.65c-4.79,2.44-7.62,6.51-9.13,11.49-1,3.28-1.68,6.66-2.36,10a27.35,27.35,0,0,1-3.84,10c-2.31,3.43-5,6.59-7.54,9.89-2.18,2.86-4.54,5.6-6.42,8.64-3.33,5.39-4.26,11.47-4.26,17.72,0,3.74.84,7.2,3.85,9.68A23.7,23.7,0,0,0,304.48,339a3.21,3.21,0,0,0,3.33-1.88,3.44,3.44,0,0,0-.53-3.81c-.49-.65-1.15-1.27-1.06-2,5,.82,9.86,1.72,14.74,2.38,3.64.5,5.4-2,3.93-5.39C324.8,328.12,324.74,327.89,324.64,327.57Zm84,158.9,0-.35a36.45,36.45,0,0,0,4.31,0,311,311,0,0,0,31.24-5,10.55,10.55,0,0,0,2.92-1c2.56-1.47,5.14-2.95,7.54-4.65,6.48-4.6,11.42-10.67,16-17a12,12,0,0,0,2.38-6.19c.22-2.82-.69-7-4.49-8.47a25.77,25.77,0,0,1-6.93-4.21c-4.05-3.37-7.88-7-11.7-10.65a22.78,22.78,0,0,1-3-4c-1.89-2.87-3.64-5.83-5.59-8.65-1.28-1.85-2.45-2.2-4.57-1.46a25.83,25.83,0,0,0-5,2.27c-5.13,3.15-9.06,7.56-12.58,12.37a3.69,3.69,0,0,0-.43,3.64,25.71,25.71,0,0,0,11.6,14.14c.42.24.88.4,1.28.67,1.88,1.24,2.1,2.58.74,4.4-.19.25-.45.46-.64.71-2.69,3.43-6.11,6.09-9.32,9a5.64,5.64,0,0,1-4.1,1.61,59.19,59.19,0,0,0-15.88,2.08,44.72,44.72,0,0,0-18.14,8.89,12,12,0,0,0-2.25,2.46,3.32,3.32,0,0,0,1.1,5c2.25,1.16,4.61,2.49,7,2.83C396.35,485.61,402.51,485.94,408.63,486.47ZM649.06,231.19l.13-.42,1.17.09a3.17,3.17,0,0,0,3.33-1.86,3.3,3.3,0,0,0-.76-4l-1-1a329.25,329.25,0,0,0-27.57-25.64c-6.9-5.73-14-11.18-22.2-15-3-1.4-5.92-1.3-8.54.79a9.5,9.5,0,0,0-3.52,9,19.2,19.2,0,0,0,3.27,8.66,6.67,6.67,0,0,1,1.06,5.48c-.56,2.16-1.38,4.25-2.11,6.36-.54,1.58-1.25,3.12-1.66,4.73a3.65,3.65,0,0,0,2.06,4.6c7,3.11,12.78,7.86,18.5,12.75a15.89,15.89,0,0,1,2.87,3.2,5.15,5.15,0,0,0,4.11,2.51,9.49,9.49,0,0,1,1.41.27,39,39,0,0,1,17.17,9.15,16.48,16.48,0,0,0,6.2,3.94A126.43,126.43,0,0,1,665.58,264a17.08,17.08,0,0,0,2.66,1.09,3.29,3.29,0,0,0,3.81-1.23,3.52,3.52,0,0,0-.24-4.23,10.24,10.24,0,0,0-1.44-1.26c-1.85-1.47-3.72-2.92-5.86-4.59.6-.15.88-.2,1.15-.28,3.07-.87,4-3.24,2.24-5.83a19,19,0,0,0-3.07-3.66c-3.67-3.21-7.44-6.31-11.21-9.4C652.16,233.41,650.59,232.33,649.06,231.19ZM367.32,385.35a57.85,57.85,0,0,0,5,21.81,13.79,13.79,0,0,0,2.51,3.77,29.66,29.66,0,0,0,10,7.32c2.94,1.24,6,2.31,8.82,3.73a25.13,25.13,0,0,0,8.77,2.17,15.9,15.9,0,0,0,12.17-3.3c1.49-1.21,2.92-2.49,4.3-3.82,2-1.93,4-3.9,5.94-5.92a9,9,0,0,1,5.22-2.7c1.73-.28,3.5-.34,5.25-.5s3.1-.77,3.67-2.56c.47-1.51,0-2.77-1.74-4.07-2.55-1.94-5.1-3.87-7.71-5.7a11.59,11.59,0,0,1-4-4.9c-3.2-7-7.84-12.64-15.35-15.29-3.08-1.09-6.24-2-9.41-2.78-4.45-1.1-8.36-3-11.44-6.52-2.67-3.07-5.53-6-8.4-8.88a3.8,3.8,0,0,0-6.37,1c-.48.92-.9,1.87-1.33,2.81A60.34,60.34,0,0,0,367.32,385.35Zm17.31-174.21c-4.38.39-8.62.6-12.8,1.19-3.79.53-7.52,1.46-11.26,2.25a4.93,4.93,0,0,0-3.33,2.54c-1.26,2.21-2.55,4.42-3.86,6.61a4.39,4.39,0,0,1-1.16,1.48,12.71,12.71,0,0,1-3.31,1.8,39.22,39.22,0,0,0-16.78,9.82c-1.57,1.55-1.94,3.28-.85,4.69a6.92,6.92,0,0,0,2.26,1.68c2.17,1.18,4.48,2.13,6.56,3.44a13.4,13.4,0,0,1,6.33,8.11c1,4.1,1.7,8.28,2.55,12.42.69,3.35,1.82,6.51,4.59,8.72a18.57,18.57,0,0,0,9.86,4,21.57,21.57,0,0,0,23.34-24.36,40.61,40.61,0,0,1,1.72-18.46,63.35,63.35,0,0,1,9-17.39c2.85-4,1.19-7.74-3.63-8.12C390.71,211.32,387.6,211.27,384.63,211.14Zm144.13-.5a10,10,0,0,0-.91-2.67,18.8,18.8,0,0,0-3.51-4.2c-3.76-3-7.59-5.86-11.6-8.45a44.32,44.32,0,0,0-14.06-6,26.8,26.8,0,0,0-11.11-.47,156.6,156.6,0,0,0-26.67,7.64,86.72,86.72,0,0,0-18.23,9,22.56,22.56,0,0,0-3.79,2.91,4.23,4.23,0,0,0,1.17,6.69c2.85,1.61,5.7,3.23,8.45,5a23.27,23.27,0,0,1,4.25,3.47,52.16,52.16,0,0,1,9.34,13c1.26,2.58,2.86,3,5.47,1.81,1.95-.92,3.88-1.91,5.9-2.64,7.82-2.79,15.67-5.5,23.51-8.22,8.37-2.91,16.87-5.49,24.61-10,1.92-1.12,3.74-2.44,5.57-3.72A4,4,0,0,0,528.76,210.64ZM450.4,349c.45-.23,1-.44,1.41-.72a3.34,3.34,0,0,0,1.66-2.77,7.23,7.23,0,0,0-4.57-7.16,15,15,0,0,0-5.16-.69c-8.47.32-16.15-1.76-22.78-7.14a21.13,21.13,0,0,1-4.43-4.32c-2.7-4.05-5.06-8.31-7.58-12.47a31.08,31.08,0,0,0-6.83-8.27,5.08,5.08,0,0,0-3.3-1.17,7.17,7.17,0,0,0-6.12,3.16c-2.37,3.12-4.7,6.26-7,9.45a27.61,27.61,0,0,0-4.5,23.89c.68,2.65,1.83,5.23,4.22,6.77a120.92,120.92,0,0,0,15.86,8.92c2,.88,3.78,2,5.66,3.1,2.24,1.24,4.51,2.42,6.69,3.75a23.28,23.28,0,0,1,4.62,3.32,46.32,46.32,0,0,1,7.57,11.29c.71,1.41,1.56,2.45,3.15,2.56a3.59,3.59,0,0,0,3.34-2,17.06,17.06,0,0,0,2.56-6.4c.22-1.3.41-2.61.64-4a7.1,7.1,0,0,1,.68.52c2.42,2.32,5,1.88,6.17-1.21a17.67,17.67,0,0,0,1.06-4.88c.18-2.36.05-4.74.05-7,.38-.09.47-.14.53-.12a1.2,1.2,0,0,1,.41.24,3.27,3.27,0,0,0,4.17.57,4,4,0,0,0,2.13-4C450.65,351.15,450.52,350.13,450.4,349ZM190.25,369.75c.05,0,.53,0,1-.08,3-.31,4.4-2.39,3.39-5.23a17.71,17.71,0,0,0-2-3.51c-.43-.66-1.09-1.17-1.55-1.82-2.88-4-5.82-8-8.57-12.13a32.61,32.61,0,0,1-4.12-7.79c-2.15-6.41-2-12.91-1-19.43.55-3.54,1.52-7,2.39-10.5a5.46,5.46,0,0,0-1-5.16c-1.3-1.61-2.21-3.51-3.38-5.23-3.38-4.95-6.69-9.95-10.23-14.77-2.14-2.9-4.26-2.89-7.12-.5-.92.77-1.88,1.49-2.83,2.22-2.23,1.71-4.31,2.08-6.92.29a22.3,22.3,0,0,0-10-3.76c-3.74-.46-5.21.26-7,3.57a14.68,14.68,0,0,0-1.18,2.87,25.09,25.09,0,0,0-.37,10.94,22.08,22.08,0,0,0,2.56,8.42,154.66,154.66,0,0,0,10,14.62A169.67,169.67,0,0,0,156.86,339c5,5.12,9.78,10.53,14.63,15.84,1.24,1.36,2.37,2.81,3.58,4.19,2.06,2.34,4.05,4.75,6.23,7A11.5,11.5,0,0,0,190.25,369.75Zm-58,76.9c1.47-.35,2.74-.54,3.93-1a31.55,31.55,0,0,0,8.59-5.15c8.93-6.92,16.94-14.84,25.07-22.63a68.57,68.57,0,0,0,5.9-6.61,3.29,3.29,0,0,0,.28-4.39c-1-1.3-2.38-1.66-4.31-.9a8.44,8.44,0,0,1-8.95-1.65c-3-2.52-5.6-5.46-8.42-8.17s-5.73-5.53-8.73-8.15a10,10,0,0,0-3.59-1.82,4.27,4.27,0,0,0-5.71,4.63,3.3,3.3,0,0,0,.1.95,2.88,2.88,0,0,1-.92,3.24,64.52,64.52,0,0,1-5,4.79,124.93,124.93,0,0,0-13.27,12.45,218.83,218.83,0,0,0-16.75,20.94,6.75,6.75,0,0,0-1,1.91c-.86,2.61.31,4.78,2.88,5.23,5.42,1,10.83,2,16.38,1.73,3.93-.21,7.62.2,10.66,3.14A10.44,10.44,0,0,0,132.24,446.65Zm412.94-277.3c-2.56,0-5.12-.06-7.67,0-8.67.26-17.23,1.24-25.39,4.43a43.43,43.43,0,0,0-5.31,2.7,3.5,3.5,0,0,0-1.94,3.79,3.64,3.64,0,0,0,2.78,3c1.36.48,2.69,1,4.06,1.46a78.31,78.31,0,0,1,19.45,9.71,15.7,15.7,0,0,1,7,9.37c.22.84.45,1.69.62,2.55a3.47,3.47,0,0,0,3.38,3.15c1.91.12,3.83.15,5.74.22,6.39.22,12.78.34,19,2,3.56.94,7.06,1.85,10.2,4,2.48,1.68,5.16.32,5.75-2.63a25.55,25.55,0,0,0,.43-3.8c.33-5.74-.75-11.32-2.14-16.83-1-4.21-.17-7.68,3.05-10.64,2.14-2,1.71-4.52-.91-5.84a35.11,35.11,0,0,0-4.19-1.78A85.29,85.29,0,0,0,545.18,169.35ZM460,285.38c1.45.56,2.24.93,3.08,1.16a3.22,3.22,0,0,0,4.31-2.62,32,32,0,0,0,.2-6.91c-.5-5.44-3.18-10-6.36-14.27a3.42,3.42,0,0,0-5.68.3c-.68,1-1.22,2.09-2,3-3.83,4.64-8.1,8.53-14.4,9.59a79.21,79.21,0,0,0-10.66,2.79,39.32,39.32,0,0,0-17.75,11.81,7.7,7.7,0,0,0-1.37,2.21c-1.08,2.76.17,4.82,2.23,6.51a23.16,23.16,0,0,1,6.9,8.46,38.69,38.69,0,0,0,2.06,3.79,59.8,59.8,0,0,0,8.49,11.86,15,15,0,0,0,10.84,4.9c4.55.09,9.11.23,13.66.28,3.48,0,4.66-1,4.91-4.42.3-4.3.58-8.61-.31-12.89-.48-2.26-.92-4.53-1.37-6.8a8.81,8.81,0,0,1,0-1.18c.69.57,1.07.94,1.5,1.24a3.47,3.47,0,0,0,3.85.21,3.16,3.16,0,0,0,1.64-3.22,16.82,16.82,0,0,0-.35-2.85c-.87-3.49-1.81-6.95-2.73-10.42C460.53,287.25,460.34,286.61,460,285.38ZM272.7,345.79c.81.32,1.22.51,1.65.66,2.34.78,4.66,1.63,7,2.31a3.77,3.77,0,0,0,4.05-6,53.38,53.38,0,0,1-5.9-11.71c-2.3-6.35-3.41-12.8-1.76-19.51.48-1.93,1-3.86,1.37-5.8a3.2,3.2,0,0,0-1.87-4,10,10,0,0,0-3.19-.81c-1.91-.19-3.84-.09-5.74-.31A38.18,38.18,0,0,1,247.7,292a22.46,22.46,0,0,0-16.4-5.43c-4.78.31-10.83,4.29-11.73,9.9a14.68,14.68,0,0,0,3.91,12.82,62.76,62.76,0,0,0,19.16,14.52,43.94,43.94,0,0,1,14.59,10.65c2.13,2.44,4.24,4.9,5,8.3a22.84,22.84,0,0,0,2.67,6.11,9.62,9.62,0,0,0,2.65,2.67,3.08,3.08,0,0,0,3.81.08,3.33,3.33,0,0,0,1.53-3.51C272.8,347.44,272.78,346.77,272.7,345.79Zm404.09-54.22a4.88,4.88,0,0,1,.77-.1c2.27.37,3.64-.07,4.32-1.55a3.72,3.72,0,0,0-.87-4.38,60.68,60.68,0,0,0-11.66-10.28,145.47,145.47,0,0,0-32.83-15.57,17.47,17.47,0,0,1-5.58-2.65,3.21,3.21,0,0,0-4-.13,3.4,3.4,0,0,0-1.19,4,29.93,29.93,0,0,0,1.12,2.9c2.32,5.35,4.73,10.66,6.94,16.06a55.35,55.35,0,0,1,4,14.75c.33,2.94.65,5.88,1.15,8.79a41.15,41.15,0,0,1,.36,11.46c-.35,3.38.89,4.71,4.3,4.72,5.54,0,10.48-1.93,15.17-4.66a58.62,58.62,0,0,0,11.26-8.5c1.49-1.43,2.09-1.48,3.72-.33a10.81,10.81,0,0,1,1.41,1.3c.45.45.84,1,1.29,1.41,1.37,1.37,3,1.76,4.33,1a3.32,3.32,0,0,0,1.8-3.84,47.49,47.49,0,0,0-2.18-7.3C679.45,296.33,678.07,294.06,676.79,291.57ZM180.94,387.52a67.07,67.07,0,0,0-.46-7.2,9.76,9.76,0,0,0-1.72-3.85c-1.26-1.75-2.8-3.28-4.22-4.9A204.79,204.79,0,0,0,155,351.51a88.35,88.35,0,0,1-13-14.69c-3.51-4.76-7.12-9.44-10.75-14.11a3.27,3.27,0,0,0-5.72.52,7.15,7.15,0,0,0-.67,3.21c0,2.71.29,5.42.28,8.13,0,2.07-.36,4.14-.46,6.21-.51,9.94,2,19.3,5.35,28.54,1.25,3.52,3.21,5.74,7.05,6.61a38.42,38.42,0,0,1,18.52,10.54c1.36,1.34,2.57,2.84,3.92,4.2,2.25,2.27,4.45,4.61,7.35,6.08a9.52,9.52,0,0,0,13-4.38A20.46,20.46,0,0,0,180.94,387.52Zm267-147.16c4.09-2,4.48-4,1.49-7.21a11.65,11.65,0,0,0-1.36-1.36c-5-3.74-9.9-7.56-15-11.14a20.54,20.54,0,0,0-9.67-3.27,9.85,9.85,0,0,1-3.23-.82,6.81,6.81,0,0,0-8.19,1.11c-.47.43-1,.81-1.46,1.24-6.9,6.17-10.78,14-12.39,23a23.81,23.81,0,0,0,.19,6.41,3.21,3.21,0,0,0,2.81,2.89c1.33.26,2.68.38,4,.58a38,38,0,0,1,16.14,6.31,63.33,63.33,0,0,1,6.44,5c4,3.65,11.61,3.24,15.44.4a15.43,15.43,0,0,0,6.39-10c.22-1.28.75-2.09,2-2.32,1.55-.3,3.13-.49,4.7-.71a3.45,3.45,0,0,0,3.24-2.73,3.24,3.24,0,0,0-1.87-3.77,22.57,22.57,0,0,0-8-3A9.93,9.93,0,0,1,447.9,240.36ZM134.59,267.49a35.83,35.83,0,0,1,2.82,3.66c1,1.64,1.94,3.21,4.19,2.91s2.72-2.19,3.26-4c.38-1.27.75-2.54,1.2-4.07a8.16,8.16,0,0,1,2,1.24,6.66,6.66,0,0,1,1.94,5,3.52,3.52,0,0,0,2.42,3.94c1.66.62,3.12.19,4.31-1.61,3.82-5.82,5.35-12.06,3.25-18.92a5.87,5.87,0,0,0-2.32-3.22A13.17,13.17,0,0,0,147,250.39c-5.57,1.14-10.94.8-16-2-2.32-1.31-4.4-.61-5.55,1.81-.86,1.8-1.6,3.66-2.41,5.48a8.47,8.47,0,0,1-6,5,47,47,0,0,1-16.65,1.16c-2.2-.25-3.92.05-5.41,1.69a17.21,17.21,0,0,1-2,1.77c-3.65,3-7.6,4.91-12.54,4.18a3.38,3.38,0,0,0-3.55,4.76,32.07,32.07,0,0,0,1.59,3.48c1.13,2.14,3.13,2.65,5.25,1.38L86,277.69c1.4,1.73,2.63,3.3,3.92,4.82a25.61,25.61,0,0,0,3.11,3.3,3.32,3.32,0,0,0,5.44-1.51c.28-.71.52-1.44.88-2.43l5.37,4.46a40.72,40.72,0,0,0,10.87,6.48c2.36.95,3.68.53,5.06-1.64a17.59,17.59,0,0,0,1.7-3.42c1.49-4.15,2.71-8.37,2.64-12.84a3.16,3.16,0,0,1,2-3.17C129.48,270.5,131.85,269,134.59,267.49ZM266.81,426.07c-.31-2-.73-4.79-1.13-7.55q-1-6.75-2-13.51c-.33-2.37-.55-4.76-1-7.11a6.34,6.34,0,0,0-5.86-5.42,17.47,17.47,0,0,0-5.33,1c-2,.56-3.88,1.45-5.86,2-3.4,1-6.92.94-10.44,1a24.38,24.38,0,0,1-11.6-2.37,7.84,7.84,0,0,0-3-.7c-2.85-.11-5,2.28-3.72,5.3,2.72,6.39,5.34,12.81,8,19.22,1.41,3.38,2.93,6.73,4.28,10.14,1.83,4.6,3.56,9.24,5.3,13.87a4.34,4.34,0,0,0,4,2.91c2.43.27,4.33-.88,6.2-2.1,1.67-1.1,3.19-2.43,4.9-3.44a48.49,48.49,0,0,1,10.89-4.9C264.81,433.21,266.87,430.55,266.81,426.07ZM52.17,232.5c-1.41,1.15-2.63,2-3.71,3-2,1.82-1.7,4.28.64,5.54a3.86,3.86,0,0,1,1.77,1.78,3,3,0,0,0,3,1.62h1.89c.49,1.27.92,2.47,1.41,3.64,1.77,4.23,4.18,7.84,8.66,9.72,2.87,1.19,5.51,3,8.43,4a13.72,13.72,0,0,0,12.81-1.6c1.25-.86,2.57-1.64,3.74-2.59a13.81,13.81,0,0,1,11.84-3.14,24.54,24.54,0,0,0,4.77.33,13.86,13.86,0,0,0,12.08-7,34.81,34.81,0,0,0,4.21-11.91,5.09,5.09,0,0,0-.09-1.9c-.7-3.26-2.95-4.12-5.65-2.14-1.16.85-2.28,1.76-3.36,2.7a13,13,0,0,1-7.93,3,30.32,30.32,0,0,1-11.13-1.23c-3.58-1.13-7.17-2.26-10.66-3.65a106.28,106.28,0,0,0-31.36-7.39,15.55,15.55,0,0,0-2.64-.06,3.49,3.49,0,0,0-3.26,3.26c-.08,1.62,1,2.84,2.79,3.34C50.9,232,51.37,232.19,52.17,232.5ZM463.85,489.22a22.46,22.46,0,0,0,5.73,14,4.22,4.22,0,0,0,5,1.15,11.4,11.4,0,0,0,3.8-2.4,39.41,39.41,0,0,0,4.21-4.9,142,142,0,0,0,14.93-25.37,112.87,112.87,0,0,0,8.37-25,14.54,14.54,0,0,0-1.68-10.15c-2.3-4.12-6.16-6.15-10.69-6.9-2.12-.35-4.28-.08-5.76,1.65a73.72,73.72,0,0,0-5.68,7.4,8.79,8.79,0,0,0-.76,8.91,11.15,11.15,0,0,1,.81,2.51c.76,4,.58,7.6-3.18,10.48a36.68,36.68,0,0,0-12.22,16.59A46.5,46.5,0,0,0,463.85,489.22Zm-97-174.12c1.11,1.78,2.11,3.5,3.23,5.14a3.63,3.63,0,0,0,4.34,1.7c1.55-.49,2.24-1.83,2.33-4.05a28.28,28.28,0,0,1,.48-4.5,4.19,4.19,0,0,1,1.31-2.16,28.94,28.94,0,0,0,6.9-8.5c1-1.75,2.07-3.41,3.15-5.09,3.79-5.88,9.07-10.32,14.49-14.52,4-3.12,8.47-5.71,12.77-8.47a7.74,7.74,0,0,0,3.47-3.81,3.6,3.6,0,0,0-.82-4.19,16.88,16.88,0,0,0-2-1.68c-2-1.34-4-2.6-6-3.92a10,10,0,0,0-9.16-1,11.3,11.3,0,0,0-6.25,5.31c-1.74,3-3.36,6-5,9-3,5.38-7.28,9.28-13.38,10.85-3.24.84-6.51,1.57-9.78,2.29a19.36,19.36,0,0,1-11.77-.8,6.86,6.86,0,0,0-1.61-.44,4.12,4.12,0,0,0-5.08,4,15.22,15.22,0,0,0,2.58,9.52c1.84,2.76,4,5.27,5,8.63s2,6.38,1.63,9.83a3.07,3.07,0,0,0,2,3.23,3.46,3.46,0,0,0,3.93-.94,9.07,9.07,0,0,0,1-1.59C365.37,317.7,366.11,316.39,366.85,315.1ZM586.4,363.34c1.17,6.25,4.57,11.21,8.32,16.05,2.62,3.38,6.15,2.43,7.22-1.19.27-.9.57-1.78.93-2.92,1,.86,1.92,1.62,2.83,2.35a18.06,18.06,0,0,0,6.86,3.78c1.59.39,3,.29,4.14-1.06a2.07,2.07,0,0,1,2.6-.53,11.85,11.85,0,0,1,2.15,1,8.57,8.57,0,0,0,8.47.4c3-1.35,3.93-4.14,2.29-6.89a11.81,11.81,0,0,0-2.4-2.95,105,105,0,0,0-14.53-10.53,11.34,11.34,0,0,0-2.7-.85,12.62,12.62,0,0,1-3.39-1c-5.38-3.53-9.74-7.94-12.05-14.15q-3-8-6.25-15.8a14.69,14.69,0,0,0-5.45-7.09c-5.07-3.26-9.47-1.22-11.84,3.57a15.81,15.81,0,0,0-.94,11.43,66.24,66.24,0,0,0,5.4,13.8,7.54,7.54,0,0,1,.87,3.41c.05,2.39.27,4.78.37,7.18.08,1.73.63,3.19,2.39,3.77a3.38,3.38,0,0,0,4-1.35A2.92,2.92,0,0,1,586.4,363.34Zm70.8-3.08a19.74,19.74,0,0,0,6.35-4.86,10.49,10.49,0,0,1,2.88-2c1.64-.82,3.39-1.41,5.06-2.18a3.29,3.29,0,0,0-.9-6.23,15.59,15.59,0,0,0-1.81-.15c4.57-2.66,6.7-7,8.71-11.5a3.5,3.5,0,0,0-.55-4.21,3.56,3.56,0,0,0-4.22-.47l-1.43.62-.37-.36,1.28-1.81a27,27,0,0,0,1.67-2.34,3.13,3.13,0,0,0-.55-4,3.23,3.23,0,0,0-4.17-.43c-.4.25-.75.6-1.13.89-1.9,1.45-3.75,3-5.72,4.34-5.57,3.79-11.73,5.54-18.42,4.45a6.1,6.1,0,0,0-6.61,2.7,17.77,17.77,0,0,0-2,3.23A56.8,56.8,0,0,1,628,347.77c-1.39,1.86-2.87,3.64-4.3,5.46-1.81,2.31-1.35,4.58,1.24,5.95a24.61,24.61,0,0,0,3.23,1.56,44.36,44.36,0,0,1,10.39,5.38,7,7,0,0,1,3,3.83c.67,2.17,1.71,2.77,4,2.6a31.1,31.1,0,0,0,11.26-3.1A11,11,0,0,0,660,367c1.58-1.68,1.3-3.77-.54-5.2C658.8,361.31,658.13,360.9,657.2,360.26ZM67,453.66,67,454c-1.12.06-2.24.09-3.35.18A23.72,23.72,0,0,0,47,462.67c-1.23,1.44-2.14,3.08-1.79,5,1,5.54,3.8,8.6,9.15,9.81a35.55,35.55,0,0,0,12.4.86C73.87,477.44,81,476.29,88,475a52.7,52.7,0,0,0,14.4-5.17c5.54-2.85,11.2-5.47,16.76-8.28a33.63,33.63,0,0,0,4.63-3,3.5,3.5,0,0,0,1.6-3.95A3.57,3.57,0,0,0,122.3,452a21.52,21.52,0,0,0-2.84-.46c-1.83-.07-3.67-.06-5.51,0a14.84,14.84,0,0,1-7.61-1.71c-2.75-1.45-5.58-2.75-8.41-4-3-1.35-5.66-.82-8.17,1.39a69.21,69.21,0,0,1-7.26,5.5,23.12,23.12,0,0,1-5,2.31,5.31,5.31,0,0,1-2.54,0C72.33,454.63,69.67,454.13,67,453.66Zm33.93-224a29,29,0,0,0,8.75-1.27,7.27,7.27,0,0,0,4.43-3.39,18.32,18.32,0,0,0,2.93-12.33,18.57,18.57,0,0,0-9-14.24c-5.34-3.36-16.82-3-22.09,2.11a5.33,5.33,0,0,1-4.51,1.62,13.69,13.69,0,0,0-1.92-.06c-2.56.11-4.39-1.14-5.91-3.05a21.75,21.75,0,0,0-2.41-2.66A10.62,10.62,0,0,0,56.62,196c-5.33,4.41-7.67,10.88-4.95,18.31a5.31,5.31,0,0,0,1.72,2.19,18.27,18.27,0,0,0,10.43,3.73c3.5.25,7,.25,10.51.59a24.9,24.9,0,0,1,12.74,4.47A21.91,21.91,0,0,0,100.94,229.61Zm63.16-11.06.11-.51c1.42-.16,2.84-.36,4.27-.48,2-.18,3.19-.92,3.65-2.51a3.59,3.59,0,0,0-1.54-4.19c-3.31-2.36-6.52-4.87-10.28-6.56a13.61,13.61,0,0,0-8.65-1c-2.26.49-4.52,1-6.73,1.71a14.36,14.36,0,0,1-11.17-.73,13.23,13.23,0,0,0-2-.82,3.58,3.58,0,0,0-4.11,1.09,3.38,3.38,0,0,0-.12,4c2.53,4.36,3.67,9.16,4.5,14.07a18.71,18.71,0,0,1-.19,7.6,17.92,17.92,0,0,0-.39,3.81,4.1,4.1,0,0,0,2,3.85,14,14,0,0,0,3.68,1.62c4.51,1.06,9.09,1.83,13.58,3,4.07,1,8.2,1.93,11.59,4.8,2.1,1.76,5,.38,5.35-2.38a20.41,20.41,0,0,0-.49-8.55c-.29-1-.5-2-.84-3.29l2.79.8a26.76,26.76,0,0,0,3.22.93c3,.47,5-2,3.81-4.78-2-4.61-5-8.37-9.74-10.4C165.63,219.3,164.87,218.91,164.1,218.55Zm133.62,271.7c1.5-.24,3.42-.41,5.27-.88a8.52,8.52,0,0,0,5.91-4.83,3.74,3.74,0,0,0-.64-4.45,38.29,38.29,0,0,0-3.8-3.63,32.49,32.49,0,0,0-12.67-6c-2.8-.67-5.61-1.29-8.4-2a7.3,7.3,0,0,1-2.22-.82A18.49,18.49,0,0,1,273,456.54a91.35,91.35,0,0,0-3.64-10.39,6.93,6.93,0,0,0-9.13-3.78A28.83,28.83,0,0,0,246,454.68a4.45,4.45,0,0,0-.64,1.53,12.57,12.57,0,0,0,1.64,9,32.91,32.91,0,0,0,11.72,11.1,117.93,117.93,0,0,0,16.51,7.09c4.44,1.57,8.87,3.17,13.21,5C291.31,489.62,294.29,489.89,297.72,490.25ZM473,432.82a6.73,6.73,0,0,0,2.67-.91c2.07-1.83,4.27-3.49,5.87-5.9,3.59-5.42,1.36-12.88-2.88-15.62a11.58,11.58,0,0,1-3.13-2.91c-5.47-7.68-10.94-15.36-15.11-23.88-1.44-2.93-3.3-5.66-4.93-8.5-2-3.51-4.8-3.14-6.81-1a30.22,30.22,0,0,1-3,2.74,13.62,13.62,0,0,1-2.71,1.92,5,5,0,0,0-2.7,3.44,28.47,28.47,0,0,1-2.21,6.06c-1.59,2.75-.62,5.52,2.1,7.15a22.88,22.88,0,0,1,5.87,5.18,14.33,14.33,0,0,1,3.38,6.5c.37,1.88.87,3.74,1.26,5.61A25.22,25.22,0,0,0,459.7,428C463.58,431.13,467.81,432.27,473,432.82ZM106.15,165.06a19.82,19.82,0,0,0-9.33,1.78c-2.51,1-3.25,2.78-2.32,5.36a10.06,10.06,0,0,0,4.31,5.3,76.61,76.61,0,0,0,9,4.53,80.47,80.47,0,0,0,7.92,2.74,27.87,27.87,0,0,1,9.52,5.36,25.7,25.7,0,0,0,10.93,5.73c6.21,1.34,12.23.17,18.18-1.48a3.32,3.32,0,0,0,1.94-4.87,8.43,8.43,0,0,0-.93-1.39,58,58,0,0,0-20.38-16.72C125.89,166.88,116.08,165.65,106.15,165.06ZM78.77,176.2a7.68,7.68,0,0,1-6.68-.93,3.35,3.35,0,0,0-4.4.4,3.24,3.24,0,0,0-.22,4.37,4.47,4.47,0,0,1,.85,3.13,4.26,4.26,0,0,0,1.89,4.13,56.46,56.46,0,0,1,5.34,4.4A7.31,7.31,0,0,0,84.72,193a20.41,20.41,0,0,1,4.18-1.77A65.25,65.25,0,0,1,95.71,190c1.82-.27,3-1,3.38-2.57a3.23,3.23,0,0,0-1.54-3.7,25.29,25.29,0,0,0-3.26-2c-4.19-2.08-7.49-4.9-8.5-9.75a4.4,4.4,0,0,0-.34-.89c-.75-1.83-2-2.73-3.59-2.57A3.41,3.41,0,0,0,78.8,172C78.67,173.31,78.77,174.68,78.77,176.2Z" transform="translate(-0.48 -0.48)"/><path class="cls-1" d="M235.6,388.91c-7.88.59-13.91-3.1-18.75-9.21a20.47,20.47,0,0,1-3.59-8.8,11.72,11.72,0,0,0-5.15-7.74,42,42,0,0,1-10.94-9.93,50,50,0,0,1-3.53-5.4,81.9,81.9,0,0,1-4.63-9.16c-1.77-4.44-3.43-8.94-3.49-13.86a25.82,25.82,0,0,1,2.34-11.87c1.59-3.28,4.69-4.46,8.06-4.82a19,19,0,0,1,10,1.76c4.86,2.23,9,5.55,13.06,8.87a172.34,172.34,0,0,0,20.38,13.85,37.2,37.2,0,0,1,7.35,6.11c1.94,2,3.76,4.14,5.53,6.3a26.86,26.86,0,0,1,4.72,8.56c.72,2.11,1.41,4.24,2.09,6.37a35.48,35.48,0,0,1,1.41,12.56c-.33,6-3.41,10.43-9.14,12.94A38.55,38.55,0,0,1,235.6,388.91Z" transform="translate(-0.48 -0.48)"/><path class="cls-1" d="M200,301.28a41.58,41.58,0,0,1-14.25-3.12,4.64,4.64,0,0,1-2.24-2,85.05,85.05,0,0,0-9-13,87.89,87.89,0,0,1-6-9.21c-.86-1.4-.51-2.87.2-4.34q3.87-8,7.62-16a16,16,0,0,0,1.17-3.65,6,6,0,0,1,3.93-4.76,92.76,92.76,0,0,1,10.88-3.67c6-1.43,12.05-2.47,18.09-3.61,4.63-.87,9.26-1.78,13.92-2.41a68.59,68.59,0,0,1,19.35.48c2.62.39,4.08,1.81,4.41,4.27a29.62,29.62,0,0,1,.44,7.61,46.23,46.23,0,0,1-11.38,25.4,5.41,5.41,0,0,1-3.72,1.86c-3.34.34-6.65.86-10,1.32a7.4,7.4,0,0,0-6,4.53c-1.58,3.4-3.19,6.8-4.93,10.13-1.39,2.68-2.93,5.31-4.56,7.86a4,4,0,0,1-2.25,1.56A56.13,56.13,0,0,1,200,301.28Z" transform="translate(-0.48 -0.48)"/><path class="cls-1" d="M276.47,288.53a47,47,0,0,1-13.57-1.7,20.37,20.37,0,0,1-10.59-7.07,11.07,11.07,0,0,1-2-9.75,28.06,28.06,0,0,1,4.5-9.73,23.91,23.91,0,0,0,3.91-18.7c-.18-.93-.5-1.84-.76-2.76-.59-2-.12-3.71,1.75-4.73a42.62,42.62,0,0,1,6.76-3c18.65-6.23,37.57-11.46,57-14.62,4.17-.68,8.33-1.44,12.51-2.12a19.51,19.51,0,0,1,3.57-.32,4.24,4.24,0,0,1,4.14,2.7,4.67,4.67,0,0,1-1.75,4.88A32.39,32.39,0,0,1,331.1,227,64.63,64.63,0,0,0,321,230.53a28.67,28.67,0,0,0-10.21,8.52,50.36,50.36,0,0,0-7.82,16.08c-.66,2.21-1.23,4.47-1.7,6.73-1.34,6.37-4.34,12-7.71,17.45a18.92,18.92,0,0,1-12.36,8.82A32.31,32.31,0,0,1,276.47,288.53Z" transform="translate(-0.48 -0.48)"/><path class="cls-1" d="M324.64,327.57c.1.32.16.55.25.76,1.47,3.35-.29,5.89-3.93,5.39-4.88-.66-9.74-1.56-14.74-2.38-.09.72.57,1.34,1.06,2a3.44,3.44,0,0,1,.53,3.81,3.21,3.21,0,0,1-3.33,1.88,23.7,23.7,0,0,1-14.38-5.18c-3-2.48-3.86-5.94-3.85-9.68,0-6.25.93-12.33,4.26-17.72,1.88-3,4.24-5.78,6.42-8.64,2.51-3.3,5.23-6.46,7.54-9.89a27.35,27.35,0,0,0,3.84-10c.68-3.36,1.36-6.74,2.36-10,1.51-5,4.34-9.05,9.13-11.49a15.85,15.85,0,0,1,7.42-1.65,10,10,0,0,1,8.12,3.94c2.75,3.53,4.72,7.4,5,12,.43,7.19.45,14.4-1.24,21.43-1.63,6.78.22,12.45,4.44,17.61,1.37,1.67,2.83,3.26,4.33,4.82,2.19,2.27,2,4.67-.59,6.41-1.88,1.26-2,1.6-1.33,3.69a3.55,3.55,0,0,1-4.63,4.8,30.15,30.15,0,0,0-5.18-.88C332.33,328.17,328.52,327.89,324.64,327.57Z" transform="translate(-0.48 -0.48)"/><path class="cls-1" d="M408.63,486.47c-6.12-.53-12.28-.86-18.36-1.7-2.44-.34-4.8-1.67-7-2.83a3.32,3.32,0,0,1-1.1-5,12,12,0,0,1,2.25-2.46,44.72,44.72,0,0,1,18.14-8.89,59.19,59.19,0,0,1,15.88-2.08,5.64,5.64,0,0,0,4.1-1.61c3.21-2.87,6.63-5.53,9.32-9,.19-.25.45-.46.64-.71,1.36-1.82,1.14-3.16-.74-4.4-.4-.27-.86-.43-1.28-.67a25.71,25.71,0,0,1-11.6-14.14,3.69,3.69,0,0,1,.43-3.64c3.52-4.81,7.45-9.22,12.58-12.37a25.83,25.83,0,0,1,5-2.27c2.12-.74,3.29-.39,4.57,1.46,2,2.82,3.7,5.78,5.59,8.65a22.78,22.78,0,0,0,3,4c3.82,3.64,7.65,7.28,11.7,10.65a25.77,25.77,0,0,0,6.93,4.21c3.8,1.51,4.71,5.65,4.49,8.47a12,12,0,0,1-2.38,6.19c-4.63,6.36-9.57,12.43-16,17-2.4,1.7-5,3.18-7.54,4.65a10.55,10.55,0,0,1-2.92,1,311,311,0,0,1-31.24,5,36.45,36.45,0,0,1-4.31,0Z" transform="translate(-0.48 -0.48)"/><path class="cls-1" d="M649.06,231.19c1.53,1.14,3.1,2.22,4.56,3.43,3.77,3.09,7.54,6.19,11.21,9.4a19,19,0,0,1,3.07,3.66c1.78,2.59.83,5-2.24,5.83-.27.08-.55.13-1.15.28,2.14,1.67,4,3.12,5.86,4.59a10.24,10.24,0,0,1,1.44,1.26,3.52,3.52,0,0,1,.24,4.23,3.29,3.29,0,0,1-3.81,1.23,17.08,17.08,0,0,1-2.66-1.09A126.43,126.43,0,0,0,643,254.76a16.48,16.48,0,0,1-6.2-3.94,39,39,0,0,0-17.17-9.15,9.49,9.49,0,0,0-1.41-.27,5.15,5.15,0,0,1-4.11-2.51,15.89,15.89,0,0,0-2.87-3.2c-5.72-4.89-11.54-9.64-18.5-12.75a3.65,3.65,0,0,1-2.06-4.6c.41-1.61,1.12-3.15,1.66-4.73.73-2.11,1.55-4.2,2.11-6.36a6.67,6.67,0,0,0-1.06-5.48,19.2,19.2,0,0,1-3.27-8.66,9.5,9.5,0,0,1,3.52-9c2.62-2.09,5.5-2.19,8.54-.79,8.21,3.8,15.3,9.25,22.2,15A329.25,329.25,0,0,1,651.94,224l1,1a3.3,3.3,0,0,1,.76,4,3.17,3.17,0,0,1-3.33,1.86l-1.17-.09Z" transform="translate(-0.48 -0.48)"/><path class="cls-1" d="M367.32,385.35A60.34,60.34,0,0,1,373.14,361c.43-.94.85-1.89,1.33-2.81a3.8,3.8,0,0,1,6.37-1c2.87,2.89,5.73,5.81,8.4,8.88,3.08,3.55,7,5.42,11.44,6.52,3.17.79,6.33,1.69,9.41,2.78,7.51,2.65,12.15,8.31,15.35,15.29a11.59,11.59,0,0,0,4,4.9c2.61,1.83,5.16,3.76,7.71,5.7,1.72,1.3,2.21,2.56,1.74,4.07-.57,1.79-2,2.41-3.67,2.56s-3.52.22-5.25.5a9,9,0,0,0-5.22,2.7c-1.93,2-3.92,4-5.94,5.92-1.38,1.33-2.81,2.61-4.3,3.82a15.9,15.9,0,0,1-12.17,3.3,25.13,25.13,0,0,1-8.77-2.17c-2.85-1.42-5.88-2.49-8.82-3.73a29.66,29.66,0,0,1-10-7.32,13.79,13.79,0,0,1-2.51-3.77A57.85,57.85,0,0,1,367.32,385.35Z" transform="translate(-0.48 -0.48)"/><path class="cls-1" d="M384.63,211.14c3,.13,6.08.18,9.19.43,4.82.38,6.48,4.14,3.63,8.12a63.35,63.35,0,0,0-9,17.39,40.61,40.61,0,0,0-1.72,18.46,21.57,21.57,0,0,1-23.34,24.36,18.57,18.57,0,0,1-9.86-4c-2.77-2.21-3.9-5.37-4.59-8.72-.85-4.14-1.55-8.32-2.55-12.42a13.4,13.4,0,0,0-6.33-8.11c-2.08-1.31-4.39-2.26-6.56-3.44a6.92,6.92,0,0,1-2.26-1.68c-1.09-1.41-.72-3.14.85-4.69A39.22,39.22,0,0,1,348.91,227a12.71,12.71,0,0,0,3.31-1.8,4.39,4.39,0,0,0,1.16-1.48c1.31-2.19,2.6-4.4,3.86-6.61a4.93,4.93,0,0,1,3.33-2.54c3.74-.79,7.47-1.72,11.26-2.25C376,211.74,380.25,211.53,384.63,211.14Z" transform="translate(-0.48 -0.48)"/><path class="cls-1" d="M528.76,210.64a4,4,0,0,1-1.61,3.18c-1.83,1.28-3.65,2.6-5.57,3.72-7.74,4.47-16.24,7.05-24.61,10-7.84,2.72-15.69,5.43-23.51,8.22-2,.73-3.95,1.72-5.9,2.64-2.61,1.23-4.21.77-5.47-1.81a52.16,52.16,0,0,0-9.34-13,23.27,23.27,0,0,0-4.25-3.47c-2.75-1.77-5.6-3.39-8.45-5a4.23,4.23,0,0,1-1.17-6.69,22.56,22.56,0,0,1,3.79-2.91,86.72,86.72,0,0,1,18.23-9,156.6,156.6,0,0,1,26.67-7.64,26.8,26.8,0,0,1,11.11.47,44.32,44.32,0,0,1,14.06,6c4,2.59,7.84,5.49,11.6,8.45a18.8,18.8,0,0,1,3.51,4.2A10,10,0,0,1,528.76,210.64Z" transform="translate(-0.48 -0.48)"/><path class="cls-1" d="M450.4,349c.12,1.14.25,2.16.34,3.18a4,4,0,0,1-2.13,4,3.27,3.27,0,0,1-4.17-.57,1.2,1.2,0,0,0-.41-.24c-.06,0-.15,0-.53.12,0,2.3.13,4.68-.05,7a17.67,17.67,0,0,1-1.06,4.88c-1.18,3.09-3.75,3.53-6.17,1.21a7.1,7.1,0,0,0-.68-.52c-.23,1.43-.42,2.74-.64,4a17.06,17.06,0,0,1-2.56,6.4,3.59,3.59,0,0,1-3.34,2c-1.59-.11-2.44-1.15-3.15-2.56a46.32,46.32,0,0,0-7.57-11.29,23.28,23.28,0,0,0-4.62-3.32c-2.18-1.33-4.45-2.51-6.69-3.75-1.88-1.05-3.7-2.22-5.66-3.1a120.92,120.92,0,0,1-15.86-8.92c-2.39-1.54-3.54-4.12-4.22-6.77a27.61,27.61,0,0,1,4.5-23.89c2.27-3.19,4.6-6.33,7-9.45a7.17,7.17,0,0,1,6.12-3.16,5.08,5.08,0,0,1,3.3,1.17,31.08,31.08,0,0,1,6.83,8.27c2.52,4.16,4.88,8.42,7.58,12.47a21.13,21.13,0,0,0,4.43,4.32c6.63,5.38,14.31,7.46,22.78,7.14a15,15,0,0,1,5.16.69,7.23,7.23,0,0,1,4.57,7.16,3.34,3.34,0,0,1-1.66,2.77C451.35,348.55,450.85,348.76,450.4,349Z" transform="translate(-0.48 -0.48)"/><path class="cls-1" d="M190.25,369.75A11.5,11.5,0,0,1,181.3,366c-2.18-2.22-4.17-4.63-6.23-7-1.21-1.38-2.34-2.83-3.58-4.19-4.85-5.31-9.59-10.72-14.63-15.84a169.67,169.67,0,0,1-14.54-16.25,154.66,154.66,0,0,1-10-14.62,22.08,22.08,0,0,1-2.56-8.42,25.09,25.09,0,0,1,.37-10.94,14.68,14.68,0,0,1,1.18-2.87c1.81-3.31,3.28-4,7-3.57a22.3,22.3,0,0,1,10,3.76c2.61,1.79,4.69,1.42,6.92-.29,1-.73,1.91-1.45,2.83-2.22,2.86-2.39,5-2.4,7.12.5,3.54,4.82,6.85,9.82,10.23,14.77,1.17,1.72,2.08,3.62,3.38,5.23a5.46,5.46,0,0,1,1,5.16c-.87,3.48-1.84,7-2.39,10.5-1,6.52-1.13,13,1,19.43a32.61,32.61,0,0,0,4.12,7.79c2.75,4.12,5.69,8.11,8.57,12.13.46.65,1.12,1.16,1.55,1.82a17.71,17.71,0,0,1,2,3.51c1,2.84-.41,4.92-3.39,5.23C190.78,369.72,190.3,369.75,190.25,369.75Z" transform="translate(-0.48 -0.48)"/><path class="cls-1" d="M132.24,446.65a10.44,10.44,0,0,1-2.83-1.42c-3-2.94-6.73-3.35-10.66-3.14-5.55.29-11-.77-16.38-1.73-2.57-.45-3.74-2.62-2.88-5.23a6.75,6.75,0,0,1,1-1.91,218.83,218.83,0,0,1,16.75-20.94,124.93,124.93,0,0,1,13.27-12.45,64.52,64.52,0,0,0,5-4.79,2.88,2.88,0,0,0,.92-3.24,3.3,3.3,0,0,1-.1-.95,4.27,4.27,0,0,1,5.71-4.63A10,10,0,0,1,145.6,388c3,2.62,5.86,5.39,8.73,8.15s5.44,5.65,8.42,8.17A8.44,8.44,0,0,0,171.7,406c1.93-.76,3.31-.4,4.31.9a3.29,3.29,0,0,1-.28,4.39,68.57,68.57,0,0,1-5.9,6.61c-8.13,7.79-16.14,15.71-25.07,22.63a31.55,31.55,0,0,1-8.59,5.15C135,446.11,133.71,446.3,132.24,446.65Z" transform="translate(-0.48 -0.48)"/><path class="cls-1" d="M545.18,169.35a85.29,85.29,0,0,1,33.93,4.81,35.11,35.11,0,0,1,4.19,1.78c2.62,1.32,3.05,3.85.91,5.84-3.22,3-4.1,6.43-3.05,10.64,1.39,5.51,2.47,11.09,2.14,16.83a25.55,25.55,0,0,1-.43,3.8c-.59,2.95-3.27,4.31-5.75,2.63-3.14-2.12-6.64-3-10.2-4-6.25-1.66-12.64-1.78-19-2-1.91-.07-3.83-.1-5.74-.22a3.47,3.47,0,0,1-3.38-3.15c-.17-.86-.4-1.71-.62-2.55a15.7,15.7,0,0,0-7-9.37,78.31,78.31,0,0,0-19.45-9.71c-1.37-.42-2.7-1-4.06-1.46a3.64,3.64,0,0,1-2.78-3,3.5,3.5,0,0,1,1.94-3.79,43.43,43.43,0,0,1,5.31-2.7c8.16-3.19,16.72-4.17,25.39-4.43C540.06,169.29,542.62,169.35,545.18,169.35Z" transform="translate(-0.48 -0.48)"/><path class="cls-1" d="M460,285.38c.34,1.23.53,1.87.71,2.53.92,3.47,1.86,6.93,2.73,10.42a16.82,16.82,0,0,1,.35,2.85,3.16,3.16,0,0,1-1.64,3.22,3.47,3.47,0,0,1-3.85-.21c-.43-.3-.81-.67-1.5-1.24a8.81,8.81,0,0,0,0,1.18c.45,2.27.89,4.54,1.37,6.8.89,4.28.61,8.59.31,12.89-.25,3.44-1.43,4.46-4.91,4.42-4.55-.05-9.11-.19-13.66-.28a15,15,0,0,1-10.84-4.9,59.8,59.8,0,0,1-8.49-11.86,38.69,38.69,0,0,1-2.06-3.79,23.16,23.16,0,0,0-6.9-8.46c-2.06-1.69-3.31-3.75-2.23-6.51a7.7,7.7,0,0,1,1.37-2.21,39.32,39.32,0,0,1,17.75-11.81,79.21,79.21,0,0,1,10.66-2.79c6.3-1.06,10.57-4.95,14.4-9.59.76-.91,1.3-2,2-3a3.42,3.42,0,0,1,5.68-.3c3.18,4.27,5.86,8.83,6.36,14.27a32,32,0,0,1-.2,6.91,3.22,3.22,0,0,1-4.31,2.62C462.24,286.31,461.45,285.94,460,285.38Z" transform="translate(-0.48 -0.48)"/><path class="cls-1" d="M272.7,345.79c.08,1,.1,1.65.2,2.3a3.33,3.33,0,0,1-1.53,3.51,3.08,3.08,0,0,1-3.81-.08,9.62,9.62,0,0,1-2.65-2.67,22.84,22.84,0,0,1-2.67-6.11c-.77-3.4-2.88-5.86-5-8.3a43.94,43.94,0,0,0-14.59-10.65,62.76,62.76,0,0,1-19.16-14.52,14.68,14.68,0,0,1-3.91-12.82c.9-5.61,7-9.59,11.73-9.9A22.46,22.46,0,0,1,247.7,292a38.18,38.18,0,0,0,20.64,8.71c1.9.22,3.83.12,5.74.31a10,10,0,0,1,3.19.81,3.2,3.2,0,0,1,1.87,4c-.41,1.94-.89,3.87-1.37,5.8-1.65,6.71-.54,13.16,1.76,19.51a53.38,53.38,0,0,0,5.9,11.71,3.77,3.77,0,0,1-4.05,6c-2.37-.68-4.69-1.53-7-2.31C273.92,346.3,273.51,346.11,272.7,345.79Z" transform="translate(-0.48 -0.48)"/><path class="cls-1" d="M676.79,291.57c1.28,2.49,2.66,4.76,3.65,7.18a47.49,47.49,0,0,1,2.18,7.3,3.32,3.32,0,0,1-1.8,3.84c-1.38.73-3,.34-4.33-1-.45-.45-.84-1-1.29-1.41a10.81,10.81,0,0,0-1.41-1.3c-1.63-1.15-2.23-1.1-3.72.33a58.62,58.62,0,0,1-11.26,8.5c-4.69,2.73-9.63,4.68-15.17,4.66-3.41,0-4.65-1.34-4.3-4.72a41.15,41.15,0,0,0-.36-11.46c-.5-2.91-.82-5.85-1.15-8.79a55.35,55.35,0,0,0-4-14.75c-2.21-5.4-4.62-10.71-6.94-16.06a29.93,29.93,0,0,1-1.12-2.9,3.4,3.4,0,0,1,1.19-4,3.21,3.21,0,0,1,4,.13,17.47,17.47,0,0,0,5.58,2.65,145.47,145.47,0,0,1,32.83,15.57A60.68,60.68,0,0,1,681,285.54a3.72,3.72,0,0,1,.87,4.38c-.68,1.48-2,1.92-4.32,1.55A4.88,4.88,0,0,0,676.79,291.57Z" transform="translate(-0.48 -0.48)"/><path class="cls-1" d="M180.94,387.52a20.46,20.46,0,0,1-1.08,4.85,9.52,9.52,0,0,1-13,4.38c-2.9-1.47-5.1-3.81-7.35-6.08-1.35-1.36-2.56-2.86-3.92-4.2a38.42,38.42,0,0,0-18.52-10.54c-3.84-.87-5.8-3.09-7.05-6.61-3.31-9.24-5.86-18.6-5.35-28.54.1-2.07.45-4.14.46-6.21,0-2.71-.28-5.42-.28-8.13a7.15,7.15,0,0,1,.67-3.21,3.27,3.27,0,0,1,5.72-.52c3.63,4.67,7.24,9.35,10.75,14.11a88.35,88.35,0,0,0,13,14.69,204.79,204.79,0,0,1,19.57,20.06c1.42,1.62,3,3.15,4.22,4.9a9.76,9.76,0,0,1,1.72,3.85A67.07,67.07,0,0,1,180.94,387.52Z" transform="translate(-0.48 -0.48)"/><path class="cls-1" d="M447.9,240.36a9.93,9.93,0,0,0,1.66.49,22.57,22.57,0,0,1,8,3,3.24,3.24,0,0,1,1.87,3.77,3.45,3.45,0,0,1-3.24,2.73c-1.57.22-3.15.41-4.7.71-1.23.23-1.76,1-2,2.32a15.43,15.43,0,0,1-6.39,10c-3.83,2.84-11.41,3.25-15.44-.4a63.33,63.33,0,0,0-6.44-5,38,38,0,0,0-16.14-6.31c-1.34-.2-2.69-.32-4-.58a3.21,3.21,0,0,1-2.81-2.89,23.81,23.81,0,0,1-.19-6.41c1.61-9,5.49-16.81,12.39-23,.47-.43,1-.81,1.46-1.24a6.81,6.81,0,0,1,8.19-1.11,9.85,9.85,0,0,0,3.23.82,20.54,20.54,0,0,1,9.67,3.27c5.09,3.58,10,7.4,15,11.14a11.65,11.65,0,0,1,1.36,1.36C452.38,236.32,452,238.39,447.9,240.36Z" transform="translate(-0.48 -0.48)"/><path class="cls-1" d="M134.59,267.49c-2.74,1.55-5.11,3-7.6,4.25a3.16,3.16,0,0,0-2,3.17c.07,4.47-1.15,8.69-2.64,12.84a17.59,17.59,0,0,1-1.7,3.42c-1.38,2.17-2.7,2.59-5.06,1.64a40.72,40.72,0,0,1-10.87-6.48l-5.37-4.46c-.36,1-.6,1.72-.88,2.43A3.32,3.32,0,0,1,93,285.81a25.61,25.61,0,0,1-3.11-3.3c-1.29-1.52-2.52-3.09-3.92-4.82l-2.28,1.37c-2.12,1.27-4.12.76-5.25-1.38a32.07,32.07,0,0,1-1.59-3.48,3.38,3.38,0,0,1,3.55-4.76c4.94.73,8.89-1.21,12.54-4.18a17.21,17.21,0,0,0,2-1.77c1.49-1.64,3.21-1.94,5.41-1.69A47,47,0,0,0,117,260.64a8.47,8.47,0,0,0,6-5c.81-1.82,1.55-3.68,2.41-5.48,1.15-2.42,3.23-3.12,5.55-1.81,5.07,2.85,10.44,3.19,16,2a13.17,13.17,0,0,1,10.73,2.05,5.87,5.87,0,0,1,2.32,3.22c2.1,6.86.57,13.1-3.25,18.92-1.19,1.8-2.65,2.23-4.31,1.61a3.52,3.52,0,0,1-2.42-3.94,6.66,6.66,0,0,0-1.94-5,8.16,8.16,0,0,0-2-1.24c-.45,1.53-.82,2.8-1.2,4.07-.54,1.77-1,3.66-3.26,4s-3.19-1.27-4.19-2.91A35.83,35.83,0,0,0,134.59,267.49Z" transform="translate(-0.48 -0.48)"/><path class="cls-1" d="M266.81,426.07c.06,4.48-2,7.14-6.29,8.41a48.49,48.49,0,0,0-10.89,4.9c-1.71,1-3.23,2.34-4.9,3.44-1.87,1.22-3.77,2.37-6.2,2.1a4.34,4.34,0,0,1-4-2.91c-1.74-4.63-3.47-9.27-5.3-13.87-1.35-3.41-2.87-6.76-4.28-10.14-2.68-6.41-5.3-12.83-8-19.22-1.29-3,.87-5.41,3.72-5.3a7.84,7.84,0,0,1,3,.7,24.38,24.38,0,0,0,11.6,2.37c3.52-.09,7,0,10.44-1,2-.6,3.87-1.49,5.86-2a17.47,17.47,0,0,1,5.33-1,6.34,6.34,0,0,1,5.86,5.42c.42,2.35.64,4.74,1,7.11q1,6.76,2,13.51C266.08,421.28,266.5,424,266.81,426.07Z" transform="translate(-0.48 -0.48)"/><path class="cls-1" d="M52.17,232.5c-.8-.31-1.27-.54-1.77-.68-1.83-.5-2.87-1.72-2.79-3.34a3.49,3.49,0,0,1,3.26-3.26,15.55,15.55,0,0,1,2.64.06,106.28,106.28,0,0,1,31.36,7.39c3.49,1.39,7.08,2.52,10.66,3.65a30.32,30.32,0,0,0,11.13,1.23,13,13,0,0,0,7.93-3c1.08-.94,2.2-1.85,3.36-2.7,2.7-2,5-1.12,5.65,2.14a5.09,5.09,0,0,1,.09,1.9,34.81,34.81,0,0,1-4.21,11.91,13.86,13.86,0,0,1-12.08,7,24.54,24.54,0,0,1-4.77-.33,13.81,13.81,0,0,0-11.84,3.14c-1.17.95-2.49,1.73-3.74,2.59a13.72,13.72,0,0,1-12.81,1.6c-2.92-1-5.56-2.8-8.43-4-4.48-1.88-6.89-5.49-8.66-9.72-.49-1.17-.92-2.37-1.41-3.64H53.85a3,3,0,0,1-3-1.62,3.86,3.86,0,0,0-1.77-1.78c-2.34-1.26-2.6-3.72-.64-5.54C49.54,234.53,50.76,233.65,52.17,232.5Z" transform="translate(-0.48 -0.48)"/><path class="cls-1" d="M463.85,489.22a46.5,46.5,0,0,1,2.91-12A36.68,36.68,0,0,1,479,460.61c3.76-2.88,3.94-6.45,3.18-10.48a11.15,11.15,0,0,0-.81-2.51,8.79,8.79,0,0,1,.76-8.91,73.72,73.72,0,0,1,5.68-7.4c1.48-1.73,3.64-2,5.76-1.65,4.53.75,8.39,2.78,10.69,6.9a14.54,14.54,0,0,1,1.68,10.15,112.87,112.87,0,0,1-8.37,25A142,142,0,0,1,482.62,497a39.41,39.41,0,0,1-4.21,4.9,11.4,11.4,0,0,1-3.8,2.4,4.22,4.22,0,0,1-5-1.15A22.46,22.46,0,0,1,463.85,489.22Z" transform="translate(-0.48 -0.48)"/><path class="cls-1" d="M366.85,315.1c-.74,1.29-1.48,2.6-2.24,3.89a9.07,9.07,0,0,1-1,1.59,3.46,3.46,0,0,1-3.93.94,3.07,3.07,0,0,1-2-3.23c.33-3.45-.67-6.59-1.63-9.83s-3.19-5.87-5-8.63a15.22,15.22,0,0,1-2.58-9.52,4.12,4.12,0,0,1,5.08-4,6.86,6.86,0,0,1,1.61.44,19.36,19.36,0,0,0,11.77.8c3.27-.72,6.54-1.45,9.78-2.29,6.1-1.57,10.35-5.47,13.38-10.85,1.68-3,3.3-6,5-9a11.3,11.3,0,0,1,6.25-5.31,10,10,0,0,1,9.16,1c2,1.32,4,2.58,6,3.92a16.88,16.88,0,0,1,2,1.68,3.6,3.6,0,0,1,.82,4.19,7.74,7.74,0,0,1-3.47,3.81c-4.3,2.76-8.74,5.35-12.77,8.47-5.42,4.2-10.7,8.64-14.49,14.52-1.08,1.68-2.19,3.34-3.15,5.09a28.94,28.94,0,0,1-6.9,8.5,4.19,4.19,0,0,0-1.31,2.16,28.28,28.28,0,0,0-.48,4.5c-.09,2.22-.78,3.56-2.33,4.05a3.63,3.63,0,0,1-4.34-1.7C369,318.6,368,316.88,366.85,315.1Z" transform="translate(-0.48 -0.48)"/><path class="cls-1" d="M586.4,363.34a2.92,2.92,0,0,0-.7.45,3.38,3.38,0,0,1-4,1.35c-1.76-.58-2.31-2-2.39-3.77-.1-2.4-.32-4.79-.37-7.18a7.54,7.54,0,0,0-.87-3.41,66.24,66.24,0,0,1-5.4-13.8,15.81,15.81,0,0,1,.94-11.43c2.37-4.79,6.77-6.83,11.84-3.57a14.69,14.69,0,0,1,5.45,7.09q3.27,7.83,6.25,15.8c2.31,6.21,6.67,10.62,12.05,14.15a12.62,12.62,0,0,0,3.39,1,11.34,11.34,0,0,1,2.7.85,105,105,0,0,1,14.53,10.53,11.81,11.81,0,0,1,2.4,2.95c1.64,2.75.67,5.54-2.29,6.89a8.57,8.57,0,0,1-8.47-.4,11.85,11.85,0,0,0-2.15-1,2.07,2.07,0,0,0-2.6.53c-1.1,1.35-2.55,1.45-4.14,1.06a18.06,18.06,0,0,1-6.86-3.78c-.91-.73-1.79-1.49-2.83-2.35-.36,1.14-.66,2-.93,2.92-1.07,3.62-4.6,4.57-7.22,1.19C591,374.55,587.57,369.59,586.4,363.34Z" transform="translate(-0.48 -0.48)"/><path class="cls-1" d="M657.2,360.26c.93.64,1.6,1.05,2.22,1.53,1.84,1.43,2.12,3.52.54,5.2a11,11,0,0,1-3.19,2.46,31.1,31.1,0,0,1-11.26,3.1c-2.26.17-3.3-.43-4-2.6a7,7,0,0,0-3-3.83,44.36,44.36,0,0,0-10.39-5.38,24.61,24.61,0,0,1-3.23-1.56c-2.59-1.37-3-3.64-1.24-5.95,1.43-1.82,2.91-3.6,4.3-5.46A56.8,56.8,0,0,0,635.22,336a17.77,17.77,0,0,1,2-3.23,6.1,6.1,0,0,1,6.61-2.7c6.69,1.09,12.85-.66,18.42-4.45,2-1.35,3.82-2.89,5.72-4.34.38-.29.73-.64,1.13-.89a3.23,3.23,0,0,1,4.17.43,3.13,3.13,0,0,1,.55,4,27,27,0,0,1-1.67,2.34l-1.28,1.81.37.36,1.43-.62a3.56,3.56,0,0,1,4.22.47,3.5,3.5,0,0,1,.55,4.21c-2,4.46-4.14,8.84-8.71,11.5a15.59,15.59,0,0,1,1.81.15,3.29,3.29,0,0,1,.9,6.23c-1.67.77-3.42,1.36-5.06,2.18a10.49,10.49,0,0,0-2.88,2A19.74,19.74,0,0,1,657.2,360.26Z" transform="translate(-0.48 -0.48)"/><path class="cls-1" d="M67,453.66c2.66.47,5.32,1,8,1.39a5.31,5.31,0,0,0,2.54,0,23.12,23.12,0,0,0,5-2.31,69.21,69.21,0,0,0,7.26-5.5c2.51-2.21,5.17-2.74,8.17-1.39,2.83,1.28,5.66,2.58,8.41,4a14.84,14.84,0,0,0,7.61,1.71c1.84-.07,3.68-.08,5.51,0a21.52,21.52,0,0,1,2.84.46,3.57,3.57,0,0,1,3.13,2.59,3.5,3.5,0,0,1-1.6,3.95,33.63,33.63,0,0,1-4.63,3c-5.56,2.81-11.22,5.43-16.76,8.28A52.7,52.7,0,0,1,88,475c-7.06,1.32-14.17,2.47-21.29,3.4a35.55,35.55,0,0,1-12.4-.86c-5.35-1.21-8.15-4.27-9.15-9.81-.35-1.95.56-3.59,1.79-5a23.72,23.72,0,0,1,16.61-8.54C64.71,454,65.83,454,67,454Z" transform="translate(-0.48 -0.48)"/><path class="cls-1" d="M100.94,229.61a21.91,21.91,0,0,1-13.87-4.31,24.9,24.9,0,0,0-12.74-4.47c-3.49-.34-7-.34-10.51-.59a18.27,18.27,0,0,1-10.43-3.73,5.31,5.31,0,0,1-1.72-2.19c-2.72-7.43-.38-13.9,4.95-18.31a10.62,10.62,0,0,1,14.58.33A21.75,21.75,0,0,1,73.61,199c1.52,1.91,3.35,3.16,5.91,3.05a13.69,13.69,0,0,1,1.92.06A5.33,5.33,0,0,0,86,200.49c5.27-5.14,16.75-5.47,22.09-2.11a18.57,18.57,0,0,1,9,14.24A18.32,18.32,0,0,1,114.12,225a7.27,7.27,0,0,1-4.43,3.39A29,29,0,0,1,100.94,229.61Zm-.19-16.86a4.74,4.74,0,1,0-4.84,4.64A4.78,4.78,0,0,0,100.75,212.75Zm-36.06.33a3.23,3.23,0,0,0,3.13-3.5,3.24,3.24,0,1,0-6.46.43A3.23,3.23,0,0,0,64.69,213.08Z" transform="translate(-0.48 -0.48)"/><path class="cls-1" d="M164.1,218.55c.77.36,1.53.75,2.31,1.08,4.78,2,7.76,5.79,9.74,10.4,1.19,2.77-.82,5.25-3.81,4.78a26.76,26.76,0,0,1-3.22-.93l-2.79-.8c.34,1.34.55,2.32.84,3.29a20.41,20.41,0,0,1,.49,8.55c-.37,2.76-3.25,4.14-5.35,2.38-3.39-2.87-7.52-3.78-11.59-4.8-4.49-1.13-9.07-1.9-13.58-3a14,14,0,0,1-3.68-1.62,4.1,4.1,0,0,1-2-3.85,17.92,17.92,0,0,1,.39-3.81,18.71,18.71,0,0,0,.19-7.6c-.83-4.91-2-9.71-4.5-14.07a3.38,3.38,0,0,1,.12-4,3.58,3.58,0,0,1,4.11-1.09,13.23,13.23,0,0,1,2,.82,14.36,14.36,0,0,0,11.17.73c2.21-.69,4.47-1.22,6.73-1.71a13.61,13.61,0,0,1,8.65,1c3.76,1.69,7,4.2,10.28,6.56a3.59,3.59,0,0,1,1.54,4.19c-.46,1.59-1.63,2.33-3.65,2.51-1.43.12-2.85.32-4.27.48Z" transform="translate(-0.48 -0.48)"/><path class="cls-1" d="M297.72,490.25c-3.43-.36-6.41-.63-9.29-1.85-4.34-1.82-8.77-3.42-13.21-5a117.93,117.93,0,0,1-16.51-7.09A32.91,32.91,0,0,1,247,465.22a12.57,12.57,0,0,1-1.64-9,4.45,4.45,0,0,1,.64-1.53,28.83,28.83,0,0,1,14.26-12.31,6.93,6.93,0,0,1,9.13,3.78A91.35,91.35,0,0,1,273,456.54a18.49,18.49,0,0,0,8.15,11.11,7.3,7.3,0,0,0,2.22.82c2.79.67,5.6,1.29,8.4,2a32.49,32.49,0,0,1,12.67,6,38.29,38.29,0,0,1,3.8,3.63,3.74,3.74,0,0,1,.64,4.45,8.52,8.52,0,0,1-5.91,4.83C301.14,489.84,299.22,490,297.72,490.25Z" transform="translate(-0.48 -0.48)"/><path class="cls-1" d="M473,432.82c-5.15-.55-9.38-1.69-13.26-4.8a25.22,25.22,0,0,1-9.09-15.27c-.39-1.87-.89-3.73-1.26-5.61a14.33,14.33,0,0,0-3.38-6.5,22.88,22.88,0,0,0-5.87-5.18c-2.72-1.63-3.69-4.4-2.1-7.15a28.47,28.47,0,0,0,2.21-6.06,5,5,0,0,1,2.7-3.44,13.62,13.62,0,0,0,2.71-1.92,30.22,30.22,0,0,0,3-2.74c2-2.19,4.8-2.56,6.81,1,1.63,2.84,3.49,5.57,4.93,8.5,4.17,8.52,9.64,16.2,15.11,23.88a11.58,11.58,0,0,0,3.13,2.91c4.24,2.74,6.47,10.2,2.88,15.62-1.6,2.41-3.8,4.07-5.87,5.9A6.73,6.73,0,0,1,473,432.82Z" transform="translate(-0.48 -0.48)"/><path class="cls-1" d="M106.15,165.06c9.93.59,19.74,1.82,28.79,6.34a58,58,0,0,1,20.38,16.72,8.43,8.43,0,0,1,.93,1.39,3.32,3.32,0,0,1-1.94,4.87c-5.95,1.65-12,2.82-18.18,1.48a25.7,25.7,0,0,1-10.93-5.73,27.87,27.87,0,0,0-9.52-5.36,80.47,80.47,0,0,1-7.92-2.74,76.61,76.61,0,0,1-9-4.53,10.06,10.06,0,0,1-4.31-5.3c-.93-2.58-.19-4.35,2.32-5.36A19.82,19.82,0,0,1,106.15,165.06Z" transform="translate(-0.48 -0.48)"/><path class="cls-1" d="M78.77,176.2c0-1.52-.1-2.89,0-4.23a3.41,3.41,0,0,1,3.06-3.43c1.59-.16,2.84.74,3.59,2.57a4.4,4.4,0,0,1,.34.89c1,4.85,4.31,7.67,8.5,9.75a25.29,25.29,0,0,1,3.26,2,3.23,3.23,0,0,1,1.54,3.7c-.42,1.53-1.56,2.3-3.38,2.57a65.25,65.25,0,0,0-6.81,1.25A20.41,20.41,0,0,0,84.72,193a7.31,7.31,0,0,1-9.17-1.32,56.46,56.46,0,0,0-5.34-4.4,4.26,4.26,0,0,1-1.89-4.13,4.47,4.47,0,0,0-.85-3.13,3.24,3.24,0,0,1,.22-4.37,3.35,3.35,0,0,1,4.4-.4A7.68,7.68,0,0,0,78.77,176.2Z" transform="translate(-0.48 -0.48)"/><path d="M100.75,212.75a4.74,4.74,0,1,1-4.64-4.84A4.78,4.78,0,0,1,100.75,212.75Z" transform="translate(-0.48 -0.48)"/><path d="M64.69,213.08A3.23,3.23,0,0,1,61.36,210a3.24,3.24,0,1,1,3.33,3.07Z" transform="translate(-0.48 -0.48)"/></svg>