<svg id="Layer_1" data-name="Layer 1" xmlns="http://www.w3.org/2000/svg" viewBox="0 0 720 612"><defs><style>.cls-1{fill:none;stroke:#000;stroke-miterlimit:10;stroke-width:0.01px;}</style></defs><path d="M.48,612.48V.48h720v612ZM443,348.5a37.58,37.58,0,0,0-14.68,1.07c-4.47,1.27-8.91,2.68-12.56,5.72a50.1,50.1,0,0,0-10.42,11.51c-.76,1.21-1.79,2.27-2.42,3.54a57.72,57.72,0,0,0-2.18,5.56c-3.29,9.1-4.39,18.3-1.43,27.72a9.35,9.35,0,0,0,5.63,6.49,136.31,136.31,0,0,0,17.12,6.12c10.22,2.9,20.46,5.72,30.68,8.62a85.27,85.27,0,0,1,8.42,2.74,5.1,5.1,0,0,0,4.35.05,45.21,45.21,0,0,0,11.34-7.09A36.5,36.5,0,0,0,486.69,406c1-2.68,1.61-5.52,2.49-8.25a20.11,20.11,0,0,0,.91-8c-.82-9.05-4.57-16.88-10.15-23.89-4.53-5.68-10.51-9.52-17.05-12.48a94.86,94.86,0,0,0-9.42-3.48A28.73,28.73,0,0,0,443,348.5ZM416.49,215.34h-.34c0-3,.22-6.09,0-9.11-.52-5.87-2.63-11-7.66-14.58a9.44,9.44,0,0,1-1.24-1.13,12.71,12.71,0,0,0-7.58-3.78,49.7,49.7,0,0,0-16.73.29c-5.78,1.19-11.46,2.86-17.19,4.31-7.23,1.83-13.7,5.27-19.88,9.33a7,7,0,0,0-2.78,3.2,54.5,54.5,0,0,0-4.13,17.67c-.24,4.68,1.5,8.92,3.29,13.14a22.73,22.73,0,0,0,7.53,9.44,32.35,32.35,0,0,0,13.21,5.44,66.27,66.27,0,0,0,27.16-.08,35.39,35.39,0,0,0,20.37-12.27,23.09,23.09,0,0,0,5.59-12.52C416.39,221.58,416.36,218.45,416.49,215.34ZM583.17,327.93H583c0-2.24,0-4.48,0-6.72-.07-3.43-.06-6.88-.34-10.3a21.68,21.68,0,0,0-2.92-9.79c-2.6-4.24-4.19-4.84-8.91-3.19-3.47,1.21-6.85,2.7-10.38,3.7-8.72,2.46-16.39.42-22.41-6.36-3.54-4-7.58-6.25-12.92-6.15-1,0-1.92-.16-2.88-.12a53.59,53.59,0,0,0-7.62.49c-4.26.81-5.4,2.44-5.75,5.4-.43,3.64-1.08,7.28-1.22,10.94-.18,4.54.06,9.11.13,13.66,0,1.92-.05,3.85.11,5.76.23,2.78,2.07,4.06,4.81,3.54q5.89-1.11,11.78-2.18c10.07-1.84,20.15-2.43,30.25-.24a8.4,8.4,0,0,1,2.81,1.18,12.66,12.66,0,0,1,5.5,8.12,37.77,37.77,0,0,1,.87,14.48,87.64,87.64,0,0,1-3.28,14.23,19.2,19.2,0,0,1-3.6,6.44,47.58,47.58,0,0,1-14.17,11.29,33.22,33.22,0,0,0-4.15,2.37c-2.62,1.89-2.56,4.91.17,6.45,4.13,2.33,7.72,5.39,11.58,8.08,4.89,3.4,8.73,3.61,13-1a33.45,33.45,0,0,0,6.08-9.71c.73-1.68,1.64-3.28,2.41-4.94,1.73-3.77,3.52-7.52,5.13-11.34,2.34-5.56,3.13-11.53,4.33-17.39a78.12,78.12,0,0,0,1.75-17.37C583.12,334.16,583.17,331,583.17,327.93ZM285,203c-.3-4.84-.34-9-.88-13.13a21.62,21.62,0,0,0-5.81-12.39,6.63,6.63,0,0,0-6.09-2.12,19.57,19.57,0,0,0-4.36,1.25c-2.65,1.11-5.21,2.44-7.84,3.59a27.87,27.87,0,0,1-4.05,1.44,24.53,24.53,0,0,1-10,.47c-4.5-.65-8,1.21-9.83,5.19a11.71,11.71,0,0,0-.55,9.33,23.24,23.24,0,0,0,4.85,8.2c4,4.17,6.38,9.35,9.14,14.31a6.85,6.85,0,0,1,.35.89,2.7,2.7,0,0,1-.73,3.27,24.81,24.81,0,0,1-3.81,2.84A36.85,36.85,0,0,0,234,235.25c-3.06,3.68-5.44,7.71-5.72,12.67a12.21,12.21,0,0,1-.31,1.89,17.43,17.43,0,0,1-12.94,13.28,4.91,4.91,0,0,0-3.85,3.21,6.1,6.1,0,0,0,.37,5.74,12.19,12.19,0,0,0,7.11,5.36,17.59,17.59,0,0,0,12.18-.9,145.26,145.26,0,0,0,16.28-8.12c4-2.32,7.24-5.51,10.71-8.45a5.78,5.78,0,0,0,.92-1.1c5.41-7.54,10.91-15,16.18-22.64,3.93-5.68,7.42-11.68,8.54-18.6C284.31,212.55,284.53,207.41,285,203Zm198.71,44c3.54-.23,7.84-.45,12.14-.84a8.22,8.22,0,0,0,5.06-2.47,16.06,16.06,0,0,0,4.21-7.92,8.43,8.43,0,0,0-1.74-7.64c-1.19-1.5-2.32-3-3.5-4.56-1.92-2.46-3.57-5.2-5.83-7.28-4.21-3.9-8.67-7.56-13.23-11-6.63-5.08-14.23-8.55-21.52-12.52-.21-.11-.44-.18-.66-.28a87.32,87.32,0,0,0-19.51-5.7,89.59,89.59,0,0,0-11.87-1.41c-3.85-.15-5.66,3.12-4,6.58a43,43,0,0,1,2.11,5.07c1.54,4.84,1,9.83.67,14.76-.28,4.14-.85,8.26-1.3,12.39a5,5,0,0,0,1,4.06,58.5,58.5,0,0,0,4.49,4.92c3.7,3.3,8.19,5.24,12.78,6.93C455.8,244.75,469.23,246.45,483.66,247ZM174.32,324c.17,0,.49-.05.81-.1a54.71,54.71,0,0,0,14.64-4.44,158.55,158.55,0,0,0,20.74-12,19.59,19.59,0,0,0,7.72-9.26,11.88,11.88,0,0,0,.82-4.86c-.16-2.5-2-3.74-4.18-4.78a73.1,73.1,0,0,1-8.59-4.73,9.85,9.85,0,0,1-4.68-7.71,30.66,30.66,0,0,0-.62-4,7.17,7.17,0,0,0-2-4c-1.74-1.64-3.32-3.46-5.1-5.06a15.25,15.25,0,0,1-5.29-9.64,15.18,15.18,0,0,0-.79-3,8.56,8.56,0,0,0-9.7-6,26.89,26.89,0,0,0-5.26,1.57c-1.72.64-3.36,1.48-5.05,2.21a14,14,0,0,1-9.16.64,45.36,45.36,0,0,1-5.16-1.86c-1.28-.5-2.51-1.07-3.93-.66-3.55,1-7,5.71-6.9,9.45,0,.8.06,1.6,0,2.4-.08,5.68,2,10.64,5.25,15.13A49.15,49.15,0,0,0,159,284.07a31.17,31.17,0,0,1,4.74,3.64c4.38,4.79,7.23,10.3,7.2,17a62,62,0,0,1-1.64,13.3C168.55,321.54,170.58,324,174.32,324ZM304,375.4c.95-.19,2.74-.52,4.53-.91,2.06-.45,3-2,3.46-3.88.54-2.25.95-4.53,1.5-6.77A58.58,58.58,0,0,1,320.92,346c1.78-2.76,3.66-5.44,5.59-8.09a5.7,5.7,0,0,0,1.29-4.69,57.89,57.89,0,0,0-1.8-7.43c-1.64-4.63-1.89-9.42-1.86-14.2.07-9.67.39-19.34.58-29a12.78,12.78,0,0,0-.3-3.08,4,4,0,0,0-4.5-3.43,11.26,11.26,0,0,0-2.58.39c-4.8,1.31-12.43,7.09-15,11.36a21.45,21.45,0,0,0-1.19,2.08c-1.15,2.38-2.18,4.81-3.4,7.15-3.43,6.56-5.56,13.6-7.36,20.73a219.51,219.51,0,0,1-6.65,22.76c-2.26,6.07-4.48,12.17-8.59,17.32a5.9,5.9,0,0,0-.84,1.46,4,4,0,0,0,1.35,5.1,61.25,61.25,0,0,0,7,4.5c3,1.55,6.1,2.81,9.21,4.07A35.24,35.24,0,0,0,304,375.4Zm29.69-78.35c-.25,6.75,1.52,13.15,3.44,19.5a32.67,32.67,0,0,0,2.48,5.7,5.94,5.94,0,0,0,5,3.22,19.51,19.51,0,0,0,13-3.23,44.33,44.33,0,0,1,5-2.75c6.64-3.3,12.95-7,17.14-13.44a62,62,0,0,0,3.41-5.77c2.76-5.41,5.57-10.8,6.85-16.81a31.37,31.37,0,0,0,.71-10.71,9.7,9.7,0,0,1-.14-2.57c.56-4-2.15-8.78-7.51-8.39s-10.37-.39-15.54-.72a25.93,25.93,0,0,1-9.75-2.22,17.13,17.13,0,0,0-7.69-1.46,8.86,8.86,0,0,0-6.89,3.28,30.78,30.78,0,0,0-6.66,13.12A104.71,104.71,0,0,0,333.67,297.05ZM508.13,272.5c3.75.33,8.3.59,12.8,1.18,7.42,1,13.06,5,17.21,11.06a17.36,17.36,0,0,0,9.89,7.1c6.76,1.94,13.13.57,19.32-2.21a13.28,13.28,0,0,0,3.28-2.38,3.24,3.24,0,0,0,.81-3.94A70.31,70.31,0,0,0,563.82,269a142.71,142.71,0,0,0-25.49-26.59,34.68,34.68,0,0,0-12.81-6.31,6.77,6.77,0,0,0-7.76,2.89,29.2,29.2,0,0,0-2.38,4.41c-3.47,7.33-9.25,11.82-17,14-6.83,1.94-13.77,1.79-20.71,1.08-4.52-.45-9.07-1-13.21-3.13a3,3,0,0,0-3.57.45,4.06,4.06,0,0,0-1.3,4.14,27.38,27.38,0,0,0,4.45,9.74,7.15,7.15,0,0,0,2.67,2.34,32,32,0,0,0,6.91,2.57c5.4,1.08,10.84.21,16.25-.23C495.71,273.84,501.5,273.17,508.13,272.5Zm-58.38,16.24c-.18-12-2.05-20-5.24-27.83a49.91,49.91,0,0,0-12.62-17.57,17.81,17.81,0,0,0-8.21-4.29,4.35,4.35,0,0,0-4.37,1.16c-2.66,2.53-5.42,4.95-8.2,7.35-1,.88-2.24,1.52-3.3,2.36-2.44,1.93-4.8,4-7.27,5.85A5.71,5.71,0,0,0,398,260c-.23,4.4-.23,8.83,1.41,13,1.71,4.38,3.08,8.92,5.66,12.92a7.64,7.64,0,0,1,.81,1.74c1.38,4.12,4,7.48,6.87,10.59a40.32,40.32,0,0,0,6.61,5.85,55.76,55.76,0,0,0,8.63,4.69,57.7,57.7,0,0,0,9,3.23c3.82,1,5.79-.22,7.55-3.7C448.24,301,449.93,293.29,449.75,288.74ZM296.26,271.31c2.56-.27,5.83-.47,9.06-1,10.16-1.62,19.06-6.32,27.58-11.79a16,16,0,0,0,4-4.36,7.49,7.49,0,0,0,.52-8.38c-1.57-2.87-3.13-5.76-4.87-8.52a28.59,28.59,0,0,1-4.26-13.09A29.92,29.92,0,0,1,329.79,211a3.25,3.25,0,0,0-2.21-4.56,9.36,9.36,0,0,0-3.27-.51c-2.15.1-4.29.53-6.44.62a15.7,15.7,0,0,0-11.3,5,9.5,9.5,0,0,1-1.31,1c-10.55,7.89-17.46,18.35-21.45,30.79a46.83,46.83,0,0,0-2.25,19.15,9.39,9.39,0,0,0,8.24,8.37C291.7,271.08,293.62,271.13,296.26,271.31Zm238.48,62.53a71.06,71.06,0,0,0-18,2.67A55.59,55.59,0,0,0,493,350.4a60.07,60.07,0,0,0-5.06,6.36,3.7,3.7,0,0,0-.18,4.29,23.84,23.84,0,0,0,2.44,3.53c4,4.61,7.05,9.68,8.16,15.76a4.65,4.65,0,0,0,4,4.13,19.36,19.36,0,0,0,2.13.37c11.12.78,21.64-1.24,31.25-7.08a20.79,20.79,0,0,0,4.39-3.66,62.57,62.57,0,0,0,12.67-20.73,27.56,27.56,0,0,0,1.72-10.1,4.76,4.76,0,0,0-1.47-3.9c-2.4-2-5-3.87-8.13-4.36C541.57,334.48,538.15,334.22,534.74,333.84ZM146,325.94a38,38,0,0,0,10.77-2.09,4.29,4.29,0,0,0,3-3.43,23.36,23.36,0,0,0,.43-5.46,41.35,41.35,0,0,0-3.78-14,20.5,20.5,0,0,0-3.18-4.74,59.39,59.39,0,0,0-5.06-5.1,63.51,63.51,0,0,1-9.44-11.14,13.85,13.85,0,0,1-2.34-5.69,123,123,0,0,1-.83-12.89,5.31,5.31,0,0,0-2.22-4.51c-2.15-1.54-9-1.23-11,.4a.93.93,0,0,0-.18.16c-1.32,1.39-2.69,2.74-4,4.18a17,17,0,0,0-4.34,11.16,73,73,0,0,0,.24,8.37,10.8,10.8,0,0,1-1.55,7.34,41.2,41.2,0,0,1-4.3,5.73c-2.45,2.5-5.15,4.77-7.83,7-2.39,2-2.19,4.77.57,6.16.64.32,1.29.63,1.91,1,5.67,3.28,11.29,6.66,17,9.81,7.45,4.1,15.71,5.77,23.9,7.6A12.73,12.73,0,0,0,146,325.94ZM345.52,337h-3.6A13.51,13.51,0,0,0,334,339.5c-2.18,1.53-3.79,3.46-3.49,6.38a26.62,26.62,0,0,0,.51,3.78,58.9,58.9,0,0,0,11.43,22.75c5.09,6.26,11.41,11,19.46,12.82,3.73.85,7.55,1.29,11.34,1.79,2.69.35,5.41.49,8.12.73,1.59.13,3.19.39,4.78.36,3.4-.05,5.87-2.2,5.89-5a37.79,37.79,0,0,1,3.22-15.6,5.42,5.42,0,0,0-1-6.55,80.19,80.19,0,0,0-6.51-6.66c-2.58-2.26-5-4.69-7.8-6.7a49.43,49.43,0,0,0-14.84-7.67A66.24,66.24,0,0,0,345.52,337ZM275.14,321.9c-.22-2.39-.33-4.79-.67-7.15s-2-3.37-4.3-3.07a56.21,56.21,0,0,0-20.45,7.19A65.11,65.11,0,0,0,228.21,339a44.48,44.48,0,0,0-7.75,21.9c-.28,3.39.5,5.11,3.26,6.21a21.4,21.4,0,0,1,9.18,7c.93,1.2,2,2.31,2.83,3.55,2.12,3,5,3.33,8,1.75,1.41-.75,2.77-1.59,4.18-2.34a27,27,0,0,0,8.05-6.7,87.78,87.78,0,0,0,8.2-11.49c3.69-6.22,6.9-12.59,8.29-19.77C273.52,333.45,275.1,327.81,275.14,321.9Zm209.32-38.27c-5-.06-9.5,1.85-13.56,4.89-6.37,4.77-11.13,10.94-15.33,17.6a1.47,1.47,0,0,0-.1.22c-2.28,5.36-4.66,10.68-6.79,16.1a28.8,28.8,0,0,0-1.9,10.08c0,3,1.09,4.21,4.1,4.3a14.73,14.73,0,0,1,4.27.45c5.86,2.07,11.75,4.11,17,7.53,1.73,1.13,3.63,2,5.46,3a5.19,5.19,0,0,0,5.67-.42,12.77,12.77,0,0,0,3.56-3.46,55.43,55.43,0,0,0,3.68-7.5c.92-2.2,1.58-4.52,2.32-6.8a158.86,158.86,0,0,0,5.22-20.4,33.94,33.94,0,0,0-1.48-17.2C495,287.12,489.8,282.78,484.46,283.63ZM85.21,300.07a10.29,10.29,0,0,0,8.33-3.51c1.88-2.07,3.57-4.3,5.43-6.39a26.71,26.71,0,0,0,6.34-12.72,41,41,0,0,1,4.22-12.38A7.54,7.54,0,0,0,110,264c1.57-4.68.52-7.07-3.68-9.16a52.57,52.57,0,0,1-7.86-5.38c-1.7-1.29-3.42-2.12-5.52-1.38a24.74,24.74,0,0,0-4.82,2,41.31,41.31,0,0,0-5.54,4.16,16,16,0,0,1-8.08,3.93c-5.59.91-11.17,2-16.8,2.52-6.22.58-10.64,4-14.69,8.19a6.53,6.53,0,0,0-.82,1.18,3.44,3.44,0,0,0,.22,4.23c.67.88,1.23,1.87,2,2.69a17.54,17.54,0,0,0,3.24,3.15,58,58,0,0,0,15.23,7.43A17.41,17.41,0,0,1,70,291.7a57.23,57.23,0,0,0,7.21,5.54C79.67,298.89,82.34,300.21,85.21,300.07Zm37.6-109c-1,.07-2.27.06-3.53.26a40.8,40.8,0,0,0-13.94,4.91c-3.26,1.87-6.59,3.61-9.83,5.5a92.27,92.27,0,0,0-9.17,5.68c-4.93,3.71-10,7.1-15.27,10.38-2.5,1.57-5,3.16-7.36,4.95-4.26,3.24-8.4,6.63-12.6,10a4.64,4.64,0,0,0-2,3.93,33.55,33.55,0,0,0,2.36,11.91c1.18,2.73,3.28,4.19,6.22,3.91a17.7,17.7,0,0,0,5.52-1.38,85.48,85.48,0,0,0,22.59-14.35c1.77-1.61,3.44-2.33,5.82-1.32,1.89.8,3.33.19,4.62-1.47.74-.95,1.36-2,2.08-2.94q3.69-4.87,7.4-9.73a12.89,12.89,0,0,1,5.69-4.26c2.09-.81,4.19-1.57,6.3-2.32,2.82-1,5.52-2.25,7.36-4.72a28.74,28.74,0,0,0,5.49-13.64c.37-2.84-.83-4.38-3.66-4.9C125.68,191.2,124.39,191.2,122.81,191.07Zm45.55,0c1.15,0,2.11,0,3.07,0a46.14,46.14,0,0,0,6.67-.46c3.63-.73,5.64-3.43,5.77-7.08A32.2,32.2,0,0,1,186.16,173c1.77-4.57,3.84-9.05,3.63-14.25-.35-9-8-17.45-17-18.21a25.59,25.59,0,0,0-19,5.81c-5.39,4.38-10,9.28-11.62,16.26a112.36,112.36,0,0,0-2.5,20.19c-.12,2.39.56,3.43,2.88,4,4.48,1.17,9,2.36,13.53,3.11C160.22,190.64,164.4,190.72,168.36,191.05ZM630.27,375.68a29.85,29.85,0,0,0-4.62-13.61,151.7,151.7,0,0,0-11.79-15.73c-2.83-3.26-5.55-6.62-8.38-9.87-2-2.35-4.22-4.58-6.29-6.89a3.58,3.58,0,0,0-3.86-1.23,3.38,3.38,0,0,0-2.29,3.32c-.13,2.95-.21,5.9-.38,8.85A56.06,56.06,0,0,1,590.47,354c-1.19,3.89-2.1,7.87-3,11.84a16.45,16.45,0,0,0,4.91,16.42c3.8,3.66,7.73,7.17,11.61,10.74,2.06,1.9,4.16,3.75,6.16,5.7s4.11,4.25,6.21,6.33,4.58,1.59,6-.87a7.79,7.79,0,0,0,.71-1.52c1.43-4.4,2.94-8.78,4.21-13.24.9-3.14,1.47-6.38,2.17-9.58C629.76,378.4,630,377,630.27,375.68Zm-15.37,110c2.64-.32,5-.45,7.24-.89,13.56-2.66,25.78-7.9,35.17-18.52a26.08,26.08,0,0,1,2.06-2,23.18,23.18,0,0,0,5.67-8.5,4.24,4.24,0,0,0-.26-3.9c-1.84-3.3-6.22-5.37-10.49-4.79-1.74.23-3.45.66-5.17,1-7.62,1.57-15.21,3-23,.95a16.45,16.45,0,0,0-6.4-.37c-4.58.67-9.11,1.69-13.64,2.67a96.56,96.56,0,0,0-9.51,2.4c-2.91,1-3.55,3.27-2,5.92.2.35.48.65.67,1,1.54,2.8,3.46,5.48,3.7,8.76.27,3.73.3,7.48.32,11.22,0,2,.76,3.23,2.63,3.75a14.61,14.61,0,0,0,2.36.43c2.14.25,4.28.48,6.43.66C612.2,485.57,613.72,485.59,614.9,485.65ZM219.43,185.74c-2.73.43-6,.87-8.72,3.25a68.54,68.54,0,0,0-13.53,16.39c-1.72,2.88-3.39,5.79-5.11,8.68-.78,1.3-1.7,2.53-2.43,3.86a3.42,3.42,0,0,0,1.52,5.06,12.24,12.24,0,0,0,1.54.65,6.14,6.14,0,0,1,4.1,4.64c.54,2.5.95,5,1.45,7.52a27,27,0,0,0,1.2,5.11c1.63,3.9,3.42,7.73,5.29,11.52a5.46,5.46,0,0,0,9.59.63,22.67,22.67,0,0,0,2.17-4.75c1.07-3.1,2-6.25,2.94-9.38s3.22-5.35,6.06-7.09a79.55,79.55,0,0,0,8.59-6.11,21.11,21.11,0,0,0,4-4.7,5.92,5.92,0,0,0-.25-7.18c-1.77-2.36-3.65-4.65-5.61-6.86a6.65,6.65,0,0,1-2-4c-.37-4.5-1.84-8.74-3.24-13a7.22,7.22,0,0,0-1.19-2C224.39,186,222.23,185.85,219.43,185.74Zm71.82,107.05a7.11,7.11,0,0,0-3.59-5.83c-1.75-1.11-3.54-2.14-4.74-3.94-2.89-4.31-6.24-8.32-8.26-13.18-1.2-2.91-3.65-4.36-6.66-4.89a9,9,0,0,0-6.22,1.29c-3,1.81-5.91,3.79-8.76,5.84a11,11,0,0,0-2.52,2.83c-5.35,8.09-11,15.91-18.07,22.62q-6.27,6-12.4,12a21.69,21.69,0,0,0-2.75,3.3,3.22,3.22,0,0,0-.6,2.23c.78,3.09,1.58,6.23,3.51,8.85,2.39,3.26,5.94,3.27,8.41.09.59-.76,1.12-1.56,1.64-2.36a35.83,35.83,0,0,1,8.82-9.06A55.37,55.37,0,0,1,261.58,303c4.84-1,9.68-1.2,14.35.85,1.31.58,2.57,1.28,3.83,2,3.07,1.66,5.33,1,7-2,.2-.34.36-.71.53-1.07.77-1.67,1.6-3.31,2.28-5S290.7,294.43,291.25,292.79Zm-33.71,123a74.17,74.17,0,0,0,32.54-8.41,58.43,58.43,0,0,0,12.12-8.54,13.1,13.1,0,0,0,4.13-5.76c.55-1.77.4-2.95-1.09-4a18.43,18.43,0,0,0-4.53-2.59c-5.26-1.89-10.59-3.59-15.89-5.35-2-.65-3.89-1.46-5.9-1.91a46,46,0,0,0-17.61-.25c-3.94.66-7.63,1.7-10.84,4.14-2.4,1.83-4.84,3.64-7.13,5.61a6.93,6.93,0,0,0-2.28,5.84A16.93,16.93,0,0,1,237,407a3.19,3.19,0,0,0,.84,5.12,22.7,22.7,0,0,0,4.8,2.08C247.16,415.57,251.82,415.6,257.54,415.84Zm179.25-82.91c.1-3.72-.14-7.36-2.84-10.32a1,1,0,0,1-.12-.2A13.49,13.49,0,0,0,428,316.9c-3.39-1.6-6.83-3.12-10.36-4.39a81.62,81.62,0,0,1-13.19-5.66,68,68,0,0,1-8.22-5.34c-2.49-2-5.06-1.34-6.65,1.4-1.44,2.48-2.74,5.06-4.23,7.52-2.47,4.06-2.7,8.46-2.11,13,1,7.29,3.49,14.09,6.53,20.73a5.21,5.21,0,0,0,.47.83c1.45,2,3,3.91,4.33,6a9.58,9.58,0,0,0,4.41,3.54c1.79.83,3,.38,4.55-.93,2.66-2.27,5.26-4.75,8.27-6.45a119.48,119.48,0,0,1,13.68-6.34,23.6,23.6,0,0,1,8.09-1.81,3.18,3.18,0,0,0,3.24-3.17C436.86,334.86,436.79,333.89,436.79,332.93Zm84.78,98.31a20,20,0,0,0,8.61-1.87c8.3-3.63,13.92-10,18-17.86a3.29,3.29,0,0,0-.6-4.18,43.06,43.06,0,0,0-5.39-4.73c-4.29-2.93-8.68-5.73-13.68-7.35-8.23-2.67-16.48-5-25.33-3.57-3.6.59-5.38,1.78-5.78,5.23-.62,5.37-2.82,10.1-5.37,14.74a40.73,40.73,0,0,0-4,8.39,3.57,3.57,0,0,0,.87,3.94c5.34,5.12,11.45,8,19.09,6.8a33,33,0,0,1,6.44-.26C516.81,430.61,519.19,431,521.57,431.24Zm104.52-4.91c.41,3.16.74,6.33,1.26,9.46a6.33,6.33,0,0,0,5.4,5.36,18.26,18.26,0,0,0,10.16-.64,42.61,42.61,0,0,1,9.34-2,10.57,10.57,0,0,1,3.55.09c2.41.52,4.77,1.23,7.14,1.91,3.25.92,5.4-.85,5.08-4.22-.12-1.36-.35-2.7-.48-4.05a40.53,40.53,0,0,0-2-10.79c-.43-1.12-.63-2.32-1-3.44a84.06,84.06,0,0,0-3.64-9.61c-2.27-4.47-4.87-8.79-7.53-13.05a33.24,33.24,0,0,0-8.66-9.19c-2.24-1.62-4.42-1.31-6,.92a16.37,16.37,0,0,0-2.55,4.57,61.7,61.7,0,0,0-2.27,9.53,21,21,0,0,1-3,8.5A28.39,28.39,0,0,0,626.09,426.33ZM164.3,239c2.56,0,4.94-.09,6.93-1.44,4.55-3.08,7.79-7.07,8.39-12.78.1-.95.33-1.89.46-2.84.71-5.35,3.2-10,5.72-14.64,1.21-2.24,2.73-4.31,3.88-6.57a3.75,3.75,0,0,0-3.08-5.46,13.41,13.41,0,0,0-4,.26,104,104,0,0,1-22.29,3,19.71,19.71,0,0,1-7.33-.8q-4.26-1.59-8.51-3.22c-2.48-1-4.3-.28-5.57,2.11a34.34,34.34,0,0,0-1.84,3.63c-1,2.59-2,5.21-2.81,7.87-.87,2.9.35,5.21,2.65,6.9,1.27.93,2.81,1.48,4.17,2.31a73.05,73.05,0,0,1,6.22,4c3.16,2.38,4.43,6,5.65,9.56C154.46,235.37,158.55,239.4,164.3,239ZM282.79,425.18l0-.19c5.8-.57,11.62-1.07,17.41-1.72,6.28-.71,12.49-1.7,18.4-4.19a14.52,14.52,0,0,0,7.27-6.28,75.1,75.1,0,0,0,6.41-13.38,8,8,0,0,1,1.27-2.55c2.67-3.22,5.66-6,9.72-7.55,3.26-1.22,3.6-4,.94-6.27L326.52,368c-2.45-2.08-4.77-1.45-6,1.59a27.09,27.09,0,0,0-1.73,9.15,28.1,28.1,0,0,1-1.5,7.71c-1.38,4.21-3.59,8-5.53,11.95a20.23,20.23,0,0,1-6.28,7.74,59.22,59.22,0,0,1-8.34,5.15c-3.64,1.8-7.5,3.17-11.25,4.76-2.14.91-4.26,1.82-6.67,1.71a4.9,4.9,0,0,0-1.86.43,3.37,3.37,0,0,0-2.43,3.46,3.2,3.2,0,0,0,2.86,3.07C279.45,425,281.13,425,282.79,425.18Zm306.44,44.55a32.19,32.19,0,0,0-3.5-12.87,9.67,9.67,0,0,0-7.22-5.25,97.71,97.71,0,0,1-21.88-6.93,79.55,79.55,0,0,0-8.28-3.14c-3.54-1.13-6.48.7-7.08,4.88-.65,4.57-1.58,9.11-2.5,13.65a3.68,3.68,0,0,0,.74,3.56,19.29,19.29,0,0,0,3.36,3,45.67,45.67,0,0,0,6.53,3.52q13.23,5.63,26.58,11a18.36,18.36,0,0,0,5.34,1.22c3.17.26,5.12-1.09,6.37-4A20.8,20.8,0,0,0,589.23,469.73ZM342.12,489.07c.41-.05,1.21-.12,2-.22a103.36,103.36,0,0,0,16.74-4c7.66-2.3,15.23-4.82,22.32-8.58a25.17,25.17,0,0,0,7-5c1.44-1.57,1.91-3.77.95-5.29a15.21,15.21,0,0,0-3-3.72c-2.88-2.41-5.9-4.65-8.93-6.85a5.55,5.55,0,0,0-2.63-.93,10.17,10.17,0,0,0-5.6.94c-2.14,1.05-4.27,2.15-6.45,3.1a145.13,145.13,0,0,1-20.16,7.56,11.83,11.83,0,0,0-3.11,1.24c-1.57,1-3.13,2.15-3,4.29.26,3.82-.65,7.45-1.52,11.1C335.8,486.92,337.5,489.06,342.12,489.07ZM215.74,351.55c-.44-3.53-.72-6.87-1.3-10.16-1.16-6.65-3.05-13.06-7-18.69-1.4-2-2.6-2.58-4.88-1.86s-4.68,1.61-7,2.53c-3.77,1.52-7.5,3.14-11.27,4.67a3.66,3.66,0,0,0-2.37,5c.45,1.45,1,2.88,1.31,4.35,1.51,6.37,2.93,12.76,4.47,19.11a38.85,38.85,0,0,0,1.82,5.69c1,2.39,2.52,3.06,5,2.44.39-.1.78-.2,1.15-.33a57.68,57.68,0,0,1,14.75-3,4,4,0,0,0,4-3.1C215.07,356,215.35,353.68,215.74,351.55ZM402.26,458.67a10.85,10.85,0,0,0,6.89-2.39c1.08-.83,2.11-1.73,3.25-2.46,7-4.41,13.91-8.83,21-13.11a26.29,26.29,0,0,1,5.31-2c1.13-.38,2.35-.5,3.47-.92a3.69,3.69,0,0,0,2.41-3.55,3.25,3.25,0,0,0-2.23-3.35c-.66-.27-1.35-.48-2-.71-3.26-1.07-6.61-1.94-9.75-3.29A13.81,13.81,0,0,0,423,426a45.23,45.23,0,0,0-17.26,6.25c-5.55,3.32-10.93,6.93-16.37,10.45a13.42,13.42,0,0,0-2.26,1.78,3.19,3.19,0,0,0-.13,4.72,17.06,17.06,0,0,0,1.79,1.59c1.83,1.54,3.81,2.94,5.48,4.64A10.73,10.73,0,0,0,402.26,458.67Zm-171.5,17.61v.11c-1.2,0-2.4,0-3.59,0-1.92.07-3.84.1-5.75.3-2.38.25-4.76.56-7.11,1-3.63.73-4.69,4-2.33,6.9a6.61,6.61,0,0,0,3.71,2c3.24.82,6.48,1.67,9.73,2.48a25,25,0,0,0,2.58.5c6,.8,12,1.55,18,2.4a91.55,91.55,0,0,0,19.58.94,8.88,8.88,0,0,0,7.09-3.72,80.32,80.32,0,0,0,5.21-8.31c1.46-2.68.28-4.94-2.73-5.52a16.67,16.67,0,0,0-4.29-.21c-4.22.33-8.43.77-12.64,1.2-5.25.52-10.47,1.16-15.77.62C238.59,476.63,234.67,476.52,230.76,476.28Zm290.78-18.19a18.7,18.7,0,0,0,1.44,1.65c1.18,1.11,2.61,1.83,4.14,1,3-1.53,5.55-3.47,6.64-6.87,1.35-4.27,1.35-8.65,1.12-13.05a3.17,3.17,0,0,0-2.38-3,6.18,6.18,0,0,0-4.22-.21c-1.2.44-2.43.78-3.65,1.16a6.57,6.57,0,0,1-5.28-.39,18.5,18.5,0,0,0-5.48-1.52c-2.27-.37-4.61-.31-6.89-.67-6.55-1-11.62,1.8-16.17,6a5.35,5.35,0,0,0-1.46,2.16,8.85,8.85,0,0,0-.49,3.48,3.05,3.05,0,0,0,3.46,2.89,19.35,19.35,0,0,0,3.5-.69c.79-.2,1.54-.7,2.55-.24-.35.68-.69,1.22-.92,1.8a3.33,3.33,0,0,0,.87,3.93,3.18,3.18,0,0,0,4.19,0c.84-.61,1.56-1.37,2.39-2a16.92,16.92,0,0,1,1.89-1.1,6.66,6.66,0,0,1-.54,2.5,3,3,0,0,0,.88,3.28,2.88,2.88,0,0,0,3.52.65,13.91,13.91,0,0,0,2.32-2c.4-.36.78-.74,1.5-1.44-.61,3.92-.15,5.46,1.74,6C519.23,462.5,520.25,460.13,521.54,458.09Zm-233,36.37v.13l14-1.59c5.95-.68,11.9-1.32,17.84-2.06,4.76-.6,7-2.56,8-7.23a44,44,0,0,0,1.08-7.81c.12-3.1-1.83-6-5-5.54-8.45,1.23-16.92,2.32-25.39,3.43a15.76,15.76,0,0,0-10.61,5.88,70,70,0,0,0-5.91,9c-1.55,2.72.24,5.61,3.35,5.79C286.82,494.5,287.7,494.46,288.58,494.46ZM192.8,427.35c.23.22.34.27.33.31-.08,1.35-.18,2.69-.26,4-.12,1.9.51,3.08,2,3.71a3.53,3.53,0,0,0,4.17-.89,9.58,9.58,0,0,0,2.08-2.89,36.05,36.05,0,0,0,2.64-7.91,17.36,17.36,0,0,1,4.18-8.72c.45-.55.92-1.1,1.37-1.66,2.59-3.31,2.71-6.91,0-10.08-2.52-3-5.2-5.85-7.94-8.64a3.23,3.23,0,0,0-5.57,1.66,19.33,19.33,0,0,0-.11,2.86c-.31,3.81-1.56,7.39-4.78,9.5a97.64,97.64,0,0,0-12.48,10.07,67.14,67.14,0,0,1-5.56,4.51c-1.72,1.27-2.41,2.87-1.7,4.5s2.42,2.38,4.66,1.69c1-.3,1.92-.68,3.06-1.09-.12.87-.26,1.56-.3,2.25-.08,1.6.28,3.05,1.81,3.89s2.9.33,4.18-.72c2.09-1.74,4.22-3.42,6.35-5.11C191.57,428.16,192.22,427.76,192.8,427.35ZM367.9,392.8c-2.9.38-6.5.63-10,1.35A29.13,29.13,0,0,0,342.55,402a19.19,19.19,0,0,0-4,6.22,4.24,4.24,0,0,0,1.23,4.8,3.45,3.45,0,0,0,4.23.21,22.79,22.79,0,0,1,8.75-2.32,114.79,114.79,0,0,1,35.27,2,3.54,3.54,0,0,0,3.71-1,3.47,3.47,0,0,0,.34-4c-1-2.25-1.91-4.56-2.94-6.81a12.61,12.61,0,0,0-9.13-7C376.33,393.18,372.43,393.21,367.9,392.8ZM208,369.65c-2,.14-3.72.13-5.37.39-4.66.73-6.49,4-4.58,8.13a24.46,24.46,0,0,0,6.75,8.58c3.14,2.59,6.36,5.1,9.31,7.9,2.71,2.56,5.4,5.2,6.87,8.81,1.21,3,3.85,3.83,6.68,2.26a11.86,11.86,0,0,0,6.07-7.39c1.31-4.93.16-9.48-2.24-13.83-2.13-3.85-5.34-6.72-8.56-9.61a18.39,18.39,0,0,0-9.1-4.53C211.83,370,209.75,369.85,208,369.65ZM125.9,225.38c-2.22.26-4.46.37-6.65.8-5.89,1.16-11.09,3.55-14.68,8.66-1.44,2-1.49,3.08-.12,5.23,3.16,5,8.08,7,13.58,8.05,3.85.75,7.62.28,11.42-.37,4.18-.72,7.54-2.94,10.75-5.5a5.71,5.71,0,0,0,1.33-1.67,8.15,8.15,0,0,0-2.14-10.92C135.44,226.58,130.86,225.44,125.9,225.38ZM244.16,445.85c-.19,1.07-.29,1.5-.35,1.95-.31,2.23.43,3.75,2.1,4.29s3.16-.15,4.36-2.06c.81-1.29,1.75-2.49,2.48-3.82a5.77,5.77,0,0,1,5.27-3.06,20.06,20.06,0,0,0,12.33-4.68c1.38-1.19,2.3-2.46,1.91-4.34s-1.82-2.51-3.48-2.82c-2.9-.56-5.8-1.22-8.73-1.6-3.53-.46-6.88-1.23-9.84-3.4a3.09,3.09,0,0,0-4.76,1c-1,2.38-2.93,3.12-5.11,3.88a43.87,43.87,0,0,0-13.55,8,3.39,3.39,0,0,0-.94,4.31,3.47,3.47,0,0,0,4.31,1.6c.76-.24,1.49-.59,2.24-.88s1.33-.48,2.42-.87a38.14,38.14,0,0,0-2.31,3.47,3.37,3.37,0,0,0,3.17,5,4.43,4.43,0,0,0,3-1.32C240.33,449.06,242,447.66,244.16,445.85ZM37.38,244l-1,.2c-2.58.45-4.38,2.16-6.19,3.86a5.19,5.19,0,0,0-1.55,4.34c.22,3.66,2.33,6.2,5.06,8.27a3.29,3.29,0,0,0,4.54-.6c1.49-1.55,2.91-3.17,4.31-4.81a7.67,7.67,0,0,0,1.08-1.84C45.11,250,41.25,244,37.38,244Z" transform="translate(-0.48 -0.48)"/><path class="cls-1" d="M443,348.5a28.73,28.73,0,0,1,10.44,1.35,94.86,94.86,0,0,1,9.42,3.48c6.54,3,12.52,6.8,17.05,12.48,5.58,7,9.33,14.84,10.15,23.89a20.11,20.11,0,0,1-.91,8c-.88,2.73-1.47,5.57-2.49,8.25a36.5,36.5,0,0,1-9.81,14.56,45.21,45.21,0,0,1-11.34,7.09,5.1,5.1,0,0,1-4.35-.05,85.27,85.27,0,0,0-8.42-2.74c-10.22-2.9-20.46-5.72-30.68-8.62A136.31,136.31,0,0,1,405,410.11a9.35,9.35,0,0,1-5.63-6.49c-3-9.42-1.86-18.62,1.43-27.72a57.72,57.72,0,0,1,2.18-5.56c.63-1.27,1.66-2.33,2.42-3.54a50.1,50.1,0,0,1,10.42-11.51c3.65-3,8.09-4.45,12.56-5.72A37.58,37.58,0,0,1,443,348.5Z" transform="translate(-0.48 -0.48)"/><path class="cls-1" d="M416.49,215.34c-.13,3.11-.1,6.24-.43,9.34a23.09,23.09,0,0,1-5.59,12.52,35.39,35.39,0,0,1-20.37,12.27,66.27,66.27,0,0,1-27.16.08,32.35,32.35,0,0,1-13.21-5.44,22.73,22.73,0,0,1-7.53-9.44c-1.79-4.22-3.53-8.46-3.29-13.14A54.5,54.5,0,0,1,343,203.86a7,7,0,0,1,2.78-3.2c6.18-4.06,12.65-7.5,19.88-9.33,5.73-1.45,11.41-3.12,17.19-4.31a49.7,49.7,0,0,1,16.73-.29,12.71,12.71,0,0,1,7.58,3.78,9.44,9.44,0,0,0,1.24,1.13c5,3.56,7.14,8.71,7.66,14.58.27,3,0,6.07,0,9.11Z" transform="translate(-0.48 -0.48)"/><path class="cls-1" d="M583.17,327.93c0,3.11,0,6.23,0,9.35a78.12,78.12,0,0,1-1.75,17.37c-1.2,5.86-2,11.83-4.33,17.39-1.61,3.82-3.4,7.57-5.13,11.34-.77,1.66-1.68,3.26-2.41,4.94a33.45,33.45,0,0,1-6.08,9.71c-4.26,4.59-8.1,4.38-13,1-3.86-2.69-7.45-5.75-11.58-8.08-2.73-1.54-2.79-4.56-.17-6.45a33.22,33.22,0,0,1,4.15-2.37,47.58,47.58,0,0,0,14.17-11.29,19.2,19.2,0,0,0,3.6-6.44,87.64,87.64,0,0,0,3.28-14.23,37.77,37.77,0,0,0-.87-14.48,12.66,12.66,0,0,0-5.5-8.12,8.4,8.4,0,0,0-2.81-1.18c-10.1-2.19-20.18-1.6-30.25.24q-5.89,1.06-11.78,2.18c-2.74.52-4.58-.76-4.81-3.54-.16-1.91-.09-3.84-.11-5.76-.07-4.55-.31-9.12-.13-13.66.14-3.66.79-7.3,1.22-10.94.35-3,1.49-4.59,5.75-5.4a53.59,53.59,0,0,1,7.62-.49c1,0,1.92.14,2.88.12,5.34-.1,9.38,2.16,12.92,6.15,6,6.78,13.69,8.82,22.41,6.36,3.53-1,6.91-2.49,10.38-3.7,4.72-1.65,6.31-1.05,8.91,3.19a21.68,21.68,0,0,1,2.92,9.79c.28,3.42.27,6.87.34,10.3,0,2.24,0,4.48,0,6.72Z" transform="translate(-0.48 -0.48)"/><path class="cls-1" d="M285,203c-.42,4.43-.64,9.57-1.45,14.61-1.12,6.92-4.61,12.92-8.54,18.6-5.27,7.62-10.77,15.1-16.18,22.64a5.78,5.78,0,0,1-.92,1.1c-3.47,2.94-6.72,6.13-10.71,8.45a145.26,145.26,0,0,1-16.28,8.12,17.59,17.59,0,0,1-12.18.9,12.19,12.19,0,0,1-7.11-5.36,6.1,6.1,0,0,1-.37-5.74,4.91,4.91,0,0,1,3.85-3.21A17.43,17.43,0,0,0,228,249.81a12.21,12.21,0,0,0,.31-1.89c.28-5,2.66-9,5.72-12.67a36.85,36.85,0,0,1,11.32-9.13,24.81,24.81,0,0,0,3.81-2.84,2.7,2.7,0,0,0,.73-3.27,6.85,6.85,0,0,0-.35-.89c-2.76-5-5.16-10.14-9.14-14.31a23.24,23.24,0,0,1-4.85-8.2,11.71,11.71,0,0,1,.55-9.33c1.88-4,5.33-5.84,9.83-5.19a24.53,24.53,0,0,0,10-.47,27.87,27.87,0,0,0,4.05-1.44c2.63-1.15,5.19-2.48,7.84-3.59a19.57,19.57,0,0,1,4.36-1.25,6.63,6.63,0,0,1,6.09,2.12,21.62,21.62,0,0,1,5.81,12.39C284.61,194,284.65,198.14,285,203Z" transform="translate(-0.48 -0.48)"/><path class="cls-1" d="M483.66,247c-14.43-.52-27.86-2.22-40.76-7-4.59-1.69-9.08-3.63-12.78-6.93a58.5,58.5,0,0,1-4.49-4.92,5,5,0,0,1-1-4.06c.45-4.13,1-8.25,1.3-12.39.33-4.93.87-9.92-.67-14.76a43,43,0,0,0-2.11-5.07c-1.61-3.46.2-6.73,4-6.58a89.59,89.59,0,0,1,11.87,1.41,87.32,87.32,0,0,1,19.51,5.7c.22.1.45.17.66.28,7.29,4,14.89,7.44,21.52,12.52,4.56,3.49,9,7.15,13.23,11,2.26,2.08,3.91,4.82,5.83,7.28,1.18,1.51,2.31,3.06,3.5,4.56a8.43,8.43,0,0,1,1.74,7.64,16.06,16.06,0,0,1-4.21,7.92,8.22,8.22,0,0,1-5.06,2.47C491.5,246.52,487.2,246.74,483.66,247Z" transform="translate(-0.48 -0.48)"/><path class="cls-1" d="M174.32,324c-3.74,0-5.77-2.43-5-6a62,62,0,0,0,1.64-13.3c0-6.71-2.82-12.22-7.2-17a31.17,31.17,0,0,0-4.74-3.64,49.15,49.15,0,0,1-11.13-10.84c-3.23-4.49-5.33-9.45-5.25-15.13,0-.8,0-1.6,0-2.4-.08-3.74,3.35-8.42,6.9-9.45,1.42-.41,2.65.16,3.93.66a45.36,45.36,0,0,0,5.16,1.86,14,14,0,0,0,9.16-.64c1.69-.73,3.33-1.57,5.05-2.21a26.89,26.89,0,0,1,5.26-1.57,8.56,8.56,0,0,1,9.7,6,15.18,15.18,0,0,1,.79,3,15.25,15.25,0,0,0,5.29,9.64c1.78,1.6,3.36,3.42,5.1,5.06a7.17,7.17,0,0,1,2,4,30.66,30.66,0,0,1,.62,4,9.85,9.85,0,0,0,4.68,7.71,73.1,73.1,0,0,0,8.59,4.73c2.14,1,4,2.28,4.18,4.78a11.88,11.88,0,0,1-.82,4.86,19.59,19.59,0,0,1-7.72,9.26,158.55,158.55,0,0,1-20.74,12,54.71,54.71,0,0,1-14.64,4.44C174.81,323.92,174.49,324,174.32,324Z" transform="translate(-0.48 -0.48)"/><path class="cls-1" d="M304,375.4a35.24,35.24,0,0,1-12.1-2.41c-3.11-1.26-6.23-2.52-9.21-4.07a61.25,61.25,0,0,1-7-4.5,4,4,0,0,1-1.35-5.1,5.9,5.9,0,0,1,.84-1.46c4.11-5.15,6.33-11.25,8.59-17.32a219.51,219.51,0,0,0,6.65-22.76c1.8-7.13,3.93-14.17,7.36-20.73,1.22-2.34,2.25-4.77,3.4-7.15a21.45,21.45,0,0,1,1.19-2.08c2.6-4.27,10.23-10.05,15-11.36a11.26,11.26,0,0,1,2.58-.39,4,4,0,0,1,4.5,3.43,12.78,12.78,0,0,1,.3,3.08c-.19,9.67-.51,19.34-.58,29,0,4.78.22,9.57,1.86,14.2a57.89,57.89,0,0,1,1.8,7.43,5.7,5.7,0,0,1-1.29,4.69c-1.93,2.65-3.81,5.33-5.59,8.09a58.58,58.58,0,0,0-7.45,17.84c-.55,2.24-1,4.52-1.5,6.77-.45,1.89-1.4,3.43-3.46,3.88C306.72,374.88,304.93,375.21,304,375.4Z" transform="translate(-0.48 -0.48)"/><path class="cls-1" d="M333.67,297.05a104.71,104.71,0,0,1,2.87-23.25,30.78,30.78,0,0,1,6.66-13.12,8.86,8.86,0,0,1,6.89-3.28,17.13,17.13,0,0,1,7.69,1.46,25.93,25.93,0,0,0,9.75,2.22c5.17.33,10.31,1.1,15.54.72s8.07,4.43,7.51,8.39a9.7,9.7,0,0,0,.14,2.57,31.37,31.37,0,0,1-.71,10.71c-1.28,6-4.09,11.4-6.85,16.81a62,62,0,0,1-3.41,5.77c-4.19,6.4-10.5,10.14-17.14,13.44a44.33,44.33,0,0,0-5,2.75,19.51,19.51,0,0,1-13,3.23,5.94,5.94,0,0,1-5-3.22,32.67,32.67,0,0,1-2.48-5.7C335.19,310.2,333.42,303.8,333.67,297.05Z" transform="translate(-0.48 -0.48)"/><path class="cls-1" d="M508.13,272.5c-6.63.67-12.42,1.34-18.23,1.81-5.41.44-10.85,1.31-16.25.23a32,32,0,0,1-6.91-2.57,7.15,7.15,0,0,1-2.67-2.34,27.38,27.38,0,0,1-4.45-9.74,4.06,4.06,0,0,1,1.3-4.14,3,3,0,0,1,3.57-.45c4.14,2.14,8.69,2.68,13.21,3.13,6.94.71,13.88.86,20.71-1.08,7.72-2.18,13.5-6.67,17-14a29.2,29.2,0,0,1,2.38-4.41,6.77,6.77,0,0,1,7.76-2.89,34.68,34.68,0,0,1,12.81,6.31A142.71,142.71,0,0,1,563.82,269a70.31,70.31,0,0,1,7.62,14.36,3.24,3.24,0,0,1-.81,3.94,13.28,13.28,0,0,1-3.28,2.38c-6.19,2.78-12.56,4.15-19.32,2.21a17.36,17.36,0,0,1-9.89-7.1c-4.15-6.05-9.79-10.07-17.21-11.06C516.43,273.09,511.88,272.83,508.13,272.5Z" transform="translate(-0.48 -0.48)"/><path class="cls-1" d="M449.75,288.74c.18,4.55-1.51,12.27-5.19,19.56-1.76,3.48-3.73,4.69-7.55,3.7a57.7,57.7,0,0,1-9-3.23,55.76,55.76,0,0,1-8.63-4.69,40.32,40.32,0,0,1-6.61-5.85c-2.89-3.11-5.49-6.47-6.87-10.59a7.64,7.64,0,0,0-.81-1.74c-2.58-4-4-8.54-5.66-12.92-1.64-4.19-1.64-8.62-1.41-13a5.71,5.71,0,0,1,2.51-4.19c2.47-1.89,4.83-3.92,7.27-5.85,1.06-.84,2.28-1.48,3.3-2.36,2.78-2.4,5.54-4.82,8.2-7.35a4.35,4.35,0,0,1,4.37-1.16,17.81,17.81,0,0,1,8.21,4.29,49.91,49.91,0,0,1,12.62,17.57C447.7,268.71,449.57,276.72,449.75,288.74Z" transform="translate(-0.48 -0.48)"/><path class="cls-1" d="M296.26,271.31c-2.64-.18-4.56-.23-6.46-.46a9.39,9.39,0,0,1-8.24-8.37,46.83,46.83,0,0,1,2.25-19.15c4-12.44,10.9-22.9,21.45-30.79a9.5,9.5,0,0,0,1.31-1,15.7,15.7,0,0,1,11.3-5c2.15-.09,4.29-.52,6.44-.62a9.36,9.36,0,0,1,3.27.51,3.25,3.25,0,0,1,2.21,4.56,29.92,29.92,0,0,0-1.49,13.23,28.59,28.59,0,0,0,4.26,13.09c1.74,2.76,3.3,5.65,4.87,8.52a7.49,7.49,0,0,1-.52,8.38,16,16,0,0,1-4,4.36c-8.52,5.47-17.42,10.17-27.58,11.79C302.09,270.84,298.82,271,296.26,271.31Z" transform="translate(-0.48 -0.48)"/><path class="cls-1" d="M534.74,333.84c3.41.38,6.83.64,10.21,1.17,3.18.49,5.73,2.34,8.13,4.36a4.76,4.76,0,0,1,1.47,3.9,27.56,27.56,0,0,1-1.72,10.1,62.57,62.57,0,0,1-12.67,20.73,20.79,20.79,0,0,1-4.39,3.66c-9.61,5.84-20.13,7.86-31.25,7.08a19.36,19.36,0,0,1-2.13-.37,4.65,4.65,0,0,1-4-4.13c-1.11-6.08-4.18-11.15-8.16-15.76a23.84,23.84,0,0,1-2.44-3.53,3.7,3.7,0,0,1,.18-4.29A60.07,60.07,0,0,1,493,350.4a55.59,55.59,0,0,1,23.73-13.89A71.06,71.06,0,0,1,534.74,333.84Z" transform="translate(-0.48 -0.48)"/><path class="cls-1" d="M146,325.94a12.73,12.73,0,0,1-2.17-.18c-8.19-1.83-16.45-3.5-23.9-7.6-5.74-3.15-11.36-6.53-17-9.81-.62-.35-1.27-.66-1.91-1-2.76-1.39-3-4.15-.57-6.16,2.68-2.26,5.38-4.53,7.83-7a41.2,41.2,0,0,0,4.3-5.73,10.8,10.8,0,0,0,1.55-7.34,73,73,0,0,1-.24-8.37,17,17,0,0,1,4.34-11.16c1.27-1.44,2.64-2.79,4-4.18a.93.93,0,0,1,.18-.16c2-1.63,8.9-1.94,11-.4a5.31,5.31,0,0,1,2.22,4.51,123,123,0,0,0,.83,12.89,13.85,13.85,0,0,0,2.34,5.69,63.51,63.51,0,0,0,9.44,11.14,59.39,59.39,0,0,1,5.06,5.1,20.5,20.5,0,0,1,3.18,4.74,41.35,41.35,0,0,1,3.78,14,23.36,23.36,0,0,1-.43,5.46,4.29,4.29,0,0,1-3,3.43A38,38,0,0,1,146,325.94Z" transform="translate(-0.48 -0.48)"/><path class="cls-1" d="M345.52,337a66.24,66.24,0,0,1,19.6,2.92A49.43,49.43,0,0,1,380,347.6c2.8,2,5.22,4.44,7.8,6.7a80.19,80.19,0,0,1,6.51,6.66,5.42,5.42,0,0,1,1,6.55,37.79,37.79,0,0,0-3.22,15.6c0,2.8-2.49,4.95-5.89,5-1.59,0-3.19-.23-4.78-.36-2.71-.24-5.43-.38-8.12-.73-3.79-.5-7.61-.94-11.34-1.79-8.05-1.82-14.37-6.56-19.46-12.82a58.9,58.9,0,0,1-11.43-22.75,26.62,26.62,0,0,1-.51-3.78c-.3-2.92,1.31-4.85,3.49-6.38a13.51,13.51,0,0,1,7.88-2.49Z" transform="translate(-0.48 -0.48)"/><path class="cls-1" d="M275.14,321.9c0,5.91-1.62,11.55-2.72,17.27-1.39,7.18-4.6,13.55-8.29,19.77a87.78,87.78,0,0,1-8.2,11.49,27,27,0,0,1-8.05,6.7c-1.41.75-2.77,1.59-4.18,2.34-3,1.58-5.85,1.29-8-1.75-.86-1.24-1.9-2.35-2.83-3.55a21.4,21.4,0,0,0-9.18-7c-2.76-1.1-3.54-2.82-3.26-6.21a44.48,44.48,0,0,1,7.75-21.9,65.11,65.11,0,0,1,21.51-20.16,56.21,56.21,0,0,1,20.45-7.19c2.33-.3,4,.73,4.3,3.07S274.92,319.51,275.14,321.9Z" transform="translate(-0.48 -0.48)"/><path class="cls-1" d="M484.46,283.63c5.34-.85,10.55,3.49,12.16,8.36a33.94,33.94,0,0,1,1.48,17.2,158.86,158.86,0,0,1-5.22,20.4c-.74,2.28-1.4,4.6-2.32,6.8a55.43,55.43,0,0,1-3.68,7.5,12.77,12.77,0,0,1-3.56,3.46,5.19,5.19,0,0,1-5.67.42c-1.83-1-3.73-1.84-5.46-3-5.29-3.42-11.18-5.46-17-7.53a14.73,14.73,0,0,0-4.27-.45c-3-.09-4.15-1.26-4.1-4.3a28.8,28.8,0,0,1,1.9-10.08c2.13-5.42,4.51-10.74,6.79-16.1a1.47,1.47,0,0,1,.1-.22c4.2-6.66,9-12.83,15.33-17.6C475,285.48,479.45,283.57,484.46,283.63Z" transform="translate(-0.48 -0.48)"/><path class="cls-1" d="M85.21,300.07c-2.87.14-5.54-1.18-8-2.83A57.23,57.23,0,0,1,70,291.7a17.41,17.41,0,0,0-7.18-4.14,58,58,0,0,1-15.23-7.43A17.54,17.54,0,0,1,44.35,277c-.74-.82-1.3-1.81-2-2.69a3.44,3.44,0,0,1-.22-4.23,6.53,6.53,0,0,1,.82-1.18c4.05-4.23,8.47-7.61,14.69-8.19,5.63-.53,11.21-1.61,16.8-2.52a16,16,0,0,0,8.08-3.93,41.31,41.31,0,0,1,5.54-4.16,24.74,24.74,0,0,1,4.82-2c2.1-.74,3.82.09,5.52,1.38a52.57,52.57,0,0,0,7.86,5.38c4.2,2.09,5.25,4.48,3.68,9.16a7.54,7.54,0,0,1-.44,1.11,41,41,0,0,0-4.22,12.38A26.71,26.71,0,0,1,99,290.17c-1.86,2.09-3.55,4.32-5.43,6.39A10.29,10.29,0,0,1,85.21,300.07Z" transform="translate(-0.48 -0.48)"/><path class="cls-1" d="M122.81,191.07c1.58.13,2.87.13,4.12.36,2.83.52,4,2.06,3.66,4.9A28.74,28.74,0,0,1,125.1,210c-1.84,2.47-4.54,3.71-7.36,4.72-2.11.75-4.21,1.51-6.3,2.32a12.89,12.89,0,0,0-5.69,4.26q-3.7,4.86-7.4,9.73c-.72,1-1.34,2-2.08,2.94-1.29,1.66-2.73,2.27-4.62,1.47-2.38-1-4.05-.29-5.82,1.32a85.48,85.48,0,0,1-22.59,14.35,17.7,17.7,0,0,1-5.52,1.38c-2.94.28-5-1.18-6.22-3.91a33.55,33.55,0,0,1-2.36-11.91,4.64,4.64,0,0,1,2-3.93c4.2-3.33,8.34-6.72,12.6-10,2.36-1.79,4.86-3.38,7.36-4.95,5.22-3.28,10.34-6.67,15.27-10.38a92.27,92.27,0,0,1,9.17-5.68c3.24-1.89,6.57-3.63,9.83-5.5a40.8,40.8,0,0,1,13.94-4.91C120.54,191.13,121.83,191.14,122.81,191.07Z" transform="translate(-0.48 -0.48)"/><path class="cls-1" d="M168.36,191.05c-4-.33-8.14-.41-12.23-1.08-4.56-.75-9-1.94-13.53-3.11-2.32-.61-3-1.65-2.88-4a112.36,112.36,0,0,1,2.5-20.19c1.62-7,6.23-11.88,11.62-16.26a25.59,25.59,0,0,1,19-5.81c9,.76,16.63,9.19,17,18.21.21,5.2-1.86,9.68-3.63,14.25a32.2,32.2,0,0,0-2.29,10.48c-.13,3.65-2.14,6.35-5.77,7.08a46.14,46.14,0,0,1-6.67.46C170.47,191.09,169.51,191.05,168.36,191.05Z" transform="translate(-0.48 -0.48)"/><path class="cls-1" d="M630.27,375.68c-.26,1.31-.51,2.72-.82,4.12-.7,3.2-1.27,6.44-2.17,9.58-1.27,4.46-2.78,8.84-4.21,13.24a7.79,7.79,0,0,1-.71,1.52c-1.41,2.46-4,2.86-6,.87s-4.09-4.27-6.21-6.33-4.1-3.8-6.16-5.7c-3.88-3.57-7.81-7.08-11.61-10.74a16.45,16.45,0,0,1-4.91-16.42c.89-4,1.8-7.95,3-11.84a56.06,56.06,0,0,0,2.19-13.46c.17-2.95.25-5.9.38-8.85a3.38,3.38,0,0,1,2.29-3.32,3.58,3.58,0,0,1,3.86,1.23c2.07,2.31,4.25,4.54,6.29,6.89,2.83,3.25,5.55,6.61,8.38,9.87a151.7,151.7,0,0,1,11.79,15.73A29.85,29.85,0,0,1,630.27,375.68Z" transform="translate(-0.48 -0.48)"/><path class="cls-1" d="M614.9,485.65c-1.18-.06-2.7-.08-4.21-.21-2.15-.18-4.29-.41-6.43-.66a14.61,14.61,0,0,1-2.36-.43c-1.87-.52-2.61-1.78-2.63-3.75,0-3.74,0-7.49-.32-11.22-.24-3.28-2.16-6-3.7-8.76-.19-.34-.47-.64-.67-1-1.57-2.65-.93-5,2-5.92a96.56,96.56,0,0,1,9.51-2.4c4.53-1,9.06-2,13.64-2.67a16.45,16.45,0,0,1,6.4.37c7.8,2,15.39.62,23-.95,1.72-.36,3.43-.79,5.17-1,4.27-.58,8.65,1.49,10.49,4.79a4.24,4.24,0,0,1,.26,3.9,23.18,23.18,0,0,1-5.67,8.5,26.08,26.08,0,0,0-2.06,2c-9.39,10.62-21.61,15.86-35.17,18.52C619.87,485.2,617.54,485.33,614.9,485.65Z" transform="translate(-0.48 -0.48)"/><path class="cls-1" d="M219.43,185.74c2.8.11,5,.29,6.43,2.24a7.22,7.22,0,0,1,1.19,2c1.4,4.25,2.87,8.49,3.24,13a6.65,6.65,0,0,0,2,4c2,2.21,3.84,4.5,5.61,6.86a5.92,5.92,0,0,1,.25,7.18,21.11,21.11,0,0,1-4,4.7,79.55,79.55,0,0,1-8.59,6.11c-2.84,1.74-5.07,3.84-6.06,7.09s-1.87,6.28-2.94,9.38a22.67,22.67,0,0,1-2.17,4.75,5.46,5.46,0,0,1-9.59-.63c-1.87-3.79-3.66-7.62-5.29-11.52a27,27,0,0,1-1.2-5.11c-.5-2.5-.91-5-1.45-7.52a6.14,6.14,0,0,0-4.1-4.64,12.24,12.24,0,0,1-1.54-.65,3.42,3.42,0,0,1-1.52-5.06c.73-1.33,1.65-2.56,2.43-3.86,1.72-2.89,3.39-5.8,5.11-8.68A68.54,68.54,0,0,1,210.71,189C213.39,186.61,216.7,186.17,219.43,185.74Z" transform="translate(-0.48 -0.48)"/><path class="cls-1" d="M291.25,292.79c-.55,1.64-1,3.31-1.68,4.92s-1.51,3.34-2.28,5c-.17.36-.33.73-.53,1.07-1.67,3-3.93,3.65-7,2-1.26-.68-2.52-1.38-3.83-2-4.67-2.05-9.51-1.81-14.35-.85a55.37,55.37,0,0,0-22.52,9.63,35.83,35.83,0,0,0-8.82,9.06c-.52.8-1.05,1.6-1.64,2.36-2.47,3.18-6,3.17-8.41-.09-1.93-2.62-2.73-5.76-3.51-8.85a3.22,3.22,0,0,1,.6-2.23,21.69,21.69,0,0,1,2.75-3.3q6.15-6,12.4-12c7.06-6.71,12.72-14.53,18.07-22.62a11,11,0,0,1,2.52-2.83c2.85-2.05,5.76-4,8.76-5.84A9,9,0,0,1,268,265c3,.53,5.46,2,6.66,4.89,2,4.86,5.37,8.87,8.26,13.18,1.2,1.8,3,2.83,4.74,3.94A7.11,7.11,0,0,1,291.25,292.79Z" transform="translate(-0.48 -0.48)"/><path class="cls-1" d="M257.54,415.84c-5.72-.24-10.38-.27-14.86-1.63a22.7,22.7,0,0,1-4.8-2.08A3.19,3.19,0,0,1,237,407a16.93,16.93,0,0,0,4-12.43,6.93,6.93,0,0,1,2.28-5.84c2.29-2,4.73-3.78,7.13-5.61,3.21-2.44,6.9-3.48,10.84-4.14a46,46,0,0,1,17.61.25c2,.45,3.94,1.26,5.9,1.91,5.3,1.76,10.63,3.46,15.89,5.35a18.43,18.43,0,0,1,4.53,2.59c1.49,1.09,1.64,2.27,1.09,4a13.1,13.1,0,0,1-4.13,5.76,58.43,58.43,0,0,1-12.12,8.54A74.17,74.17,0,0,1,257.54,415.84Z" transform="translate(-0.48 -0.48)"/><path class="cls-1" d="M436.79,332.93c0,1,.07,1.93,0,2.88a3.18,3.18,0,0,1-3.24,3.17,23.6,23.6,0,0,0-8.09,1.81,119.48,119.48,0,0,0-13.68,6.34c-3,1.7-5.61,4.18-8.27,6.45-1.53,1.31-2.76,1.76-4.55.93a9.58,9.58,0,0,1-4.41-3.54c-1.3-2.09-2.88-4-4.33-6a5.21,5.21,0,0,1-.47-.83c-3-6.64-5.58-13.44-6.53-20.73-.59-4.52-.36-8.92,2.11-13,1.49-2.46,2.79-5,4.23-7.52,1.59-2.74,4.16-3.37,6.65-1.4a68,68,0,0,0,8.22,5.34,81.62,81.62,0,0,0,13.19,5.66c3.53,1.27,7,2.79,10.36,4.39a13.49,13.49,0,0,1,5.86,5.51,1,1,0,0,0,.12.2C436.65,325.57,436.89,329.21,436.79,332.93Z" transform="translate(-0.48 -0.48)"/><path class="cls-1" d="M521.57,431.24c-2.38-.25-4.76-.63-7.14-.72a33,33,0,0,0-6.44.26c-7.64,1.22-13.75-1.68-19.09-6.8A3.57,3.57,0,0,1,488,420a40.73,40.73,0,0,1,4-8.39c2.55-4.64,4.75-9.37,5.37-14.74.4-3.45,2.18-4.64,5.78-5.23,8.85-1.46,17.1.9,25.33,3.57,5,1.62,9.39,4.42,13.68,7.35a43.06,43.06,0,0,1,5.39,4.73,3.29,3.29,0,0,1,.6,4.18c-4.1,7.88-9.72,14.23-18,17.86A20,20,0,0,1,521.57,431.24Z" transform="translate(-0.48 -0.48)"/><path class="cls-1" d="M626.09,426.33a28.39,28.39,0,0,1,4.71-16.63,21,21,0,0,0,3-8.5,61.7,61.7,0,0,1,2.27-9.53,16.37,16.37,0,0,1,2.55-4.57c1.62-2.23,3.8-2.54,6-.92a33.24,33.24,0,0,1,8.66,9.19c2.66,4.26,5.26,8.58,7.53,13.05a84.06,84.06,0,0,1,3.64,9.61c.41,1.12.61,2.32,1,3.44a40.53,40.53,0,0,1,2,10.79c.13,1.35.36,2.69.48,4.05.32,3.37-1.83,5.14-5.08,4.22-2.37-.68-4.73-1.39-7.14-1.91a10.57,10.57,0,0,0-3.55-.09,42.61,42.61,0,0,0-9.34,2,18.26,18.26,0,0,1-10.16.64,6.33,6.33,0,0,1-5.4-5.36C626.83,432.66,626.5,429.49,626.09,426.33Z" transform="translate(-0.48 -0.48)"/><path class="cls-1" d="M164.3,239c-5.75.39-9.84-3.64-11.41-8.15-1.22-3.53-2.49-7.18-5.65-9.56a73.05,73.05,0,0,0-6.22-4c-1.36-.83-2.9-1.38-4.17-2.31-2.3-1.69-3.52-4-2.65-6.9.81-2.66,1.8-5.28,2.81-7.87a34.34,34.34,0,0,1,1.84-3.63c1.27-2.39,3.09-3.06,5.57-2.11q4.25,1.63,8.51,3.22a19.71,19.71,0,0,0,7.33.8,104,104,0,0,0,22.29-3,13.41,13.41,0,0,1,4-.26,3.75,3.75,0,0,1,3.08,5.46c-1.15,2.26-2.67,4.33-3.88,6.57-2.52,4.63-5,9.29-5.72,14.64-.13,1-.36,1.89-.46,2.84-.6,5.71-3.84,9.7-8.39,12.78C169.24,238.92,166.86,239,164.3,239Z" transform="translate(-0.48 -0.48)"/><path class="cls-1" d="M282.79,425.18c-1.66-.15-3.34-.2-5-.48a3.2,3.2,0,0,1-2.86-3.07,3.37,3.37,0,0,1,2.43-3.46,4.9,4.9,0,0,1,1.86-.43c2.41.11,4.53-.8,6.67-1.71,3.75-1.59,7.61-3,11.25-4.76a59.22,59.22,0,0,0,8.34-5.15,20.23,20.23,0,0,0,6.28-7.74c1.94-3.94,4.15-7.74,5.53-11.95a28.1,28.1,0,0,0,1.5-7.71,27.09,27.09,0,0,1,1.73-9.15c1.22-3,3.54-3.67,6-1.59l17.71,15.07c2.66,2.26,2.32,5.05-.94,6.27-4.06,1.52-7.05,4.33-9.72,7.55a8,8,0,0,0-1.27,2.55,75.1,75.1,0,0,1-6.41,13.38,14.52,14.52,0,0,1-7.27,6.28c-5.91,2.49-12.12,3.48-18.4,4.19-5.79.65-11.61,1.15-17.41,1.72Z" transform="translate(-0.48 -0.48)"/><path class="cls-1" d="M589.23,469.73a20.8,20.8,0,0,1-1.54,8.67c-1.25,2.92-3.2,4.27-6.37,4a18.36,18.36,0,0,1-5.34-1.22q-13.35-5.37-26.58-11a45.67,45.67,0,0,1-6.53-3.52,19.29,19.29,0,0,1-3.36-3,3.68,3.68,0,0,1-.74-3.56c.92-4.54,1.85-9.08,2.5-13.65.6-4.18,3.54-6,7.08-4.88a79.55,79.55,0,0,1,8.28,3.14,97.71,97.71,0,0,0,21.88,6.93,9.67,9.67,0,0,1,7.22,5.25A32.19,32.19,0,0,1,589.23,469.73Z" transform="translate(-0.48 -0.48)"/><path class="cls-1" d="M342.12,489.07c-4.62,0-6.32-2.15-5.33-6.35.87-3.65,1.78-7.28,1.52-11.1-.15-2.14,1.41-3.31,3-4.29a11.83,11.83,0,0,1,3.11-1.24,145.13,145.13,0,0,0,20.16-7.56c2.18-.95,4.31-2,6.45-3.1a10.17,10.17,0,0,1,5.6-.94,5.55,5.55,0,0,1,2.63.93c3,2.2,6.05,4.44,8.93,6.85a15.21,15.21,0,0,1,3,3.72c1,1.52.49,3.72-.95,5.29a25.17,25.17,0,0,1-7,5c-7.09,3.76-14.66,6.28-22.32,8.58a103.36,103.36,0,0,1-16.74,4C343.33,489,342.53,489,342.12,489.07Z" transform="translate(-0.48 -0.48)"/><path class="cls-1" d="M215.74,351.55c-.39,2.13-.67,4.43-1.24,6.65a4,4,0,0,1-4,3.1,57.68,57.68,0,0,0-14.75,3c-.37.13-.76.23-1.15.33-2.48.62-4-.05-5-2.44a38.85,38.85,0,0,1-1.82-5.69c-1.54-6.35-3-12.74-4.47-19.11-.35-1.47-.86-2.9-1.31-4.35a3.66,3.66,0,0,1,2.37-5c3.77-1.53,7.5-3.15,11.27-4.67,2.29-.92,4.61-1.79,7-2.53s3.48-.14,4.88,1.86c3.94,5.63,5.83,12,7,18.69C215,344.68,215.3,348,215.74,351.55Z" transform="translate(-0.48 -0.48)"/><path class="cls-1" d="M402.26,458.67a10.73,10.73,0,0,1-8-3.26c-1.67-1.7-3.65-3.1-5.48-4.64a17.06,17.06,0,0,1-1.79-1.59,3.19,3.19,0,0,1,.13-4.72,13.42,13.42,0,0,1,2.26-1.78c5.44-3.52,10.82-7.13,16.37-10.45A45.23,45.23,0,0,1,423,426a13.81,13.81,0,0,1,7.49.87c3.14,1.35,6.49,2.22,9.75,3.29.68.23,1.37.44,2,.71a3.25,3.25,0,0,1,2.23,3.35,3.69,3.69,0,0,1-2.41,3.55c-1.12.42-2.34.54-3.47.92a26.29,26.29,0,0,0-5.31,2c-7,4.28-14,8.7-21,13.11-1.14.73-2.17,1.63-3.25,2.46A10.85,10.85,0,0,1,402.26,458.67Z" transform="translate(-0.48 -0.48)"/><path class="cls-1" d="M230.76,476.28c3.91.24,7.83.35,11.72.76,5.3.54,10.52-.1,15.77-.62,4.21-.43,8.42-.87,12.64-1.2a16.67,16.67,0,0,1,4.29.21c3,.58,4.19,2.84,2.73,5.52a80.32,80.32,0,0,1-5.21,8.31,8.88,8.88,0,0,1-7.09,3.72A91.55,91.55,0,0,1,246,492c-6-.85-12-1.6-18-2.4a25,25,0,0,1-2.58-.5c-3.25-.81-6.49-1.66-9.73-2.48a6.61,6.61,0,0,1-3.71-2c-2.36-2.85-1.3-6.17,2.33-6.9,2.35-.47,4.73-.78,7.11-1,1.91-.2,3.83-.23,5.75-.3,1.19,0,2.39,0,3.59,0Z" transform="translate(-0.48 -0.48)"/><path class="cls-1" d="M521.54,458.09c-1.29,2-2.31,4.41-5.33,3.5-1.89-.57-2.35-2.11-1.74-6-.72.7-1.1,1.08-1.5,1.44a13.91,13.91,0,0,1-2.32,2,2.88,2.88,0,0,1-3.52-.65,3,3,0,0,1-.88-3.28,6.66,6.66,0,0,0,.54-2.5,16.92,16.92,0,0,0-1.89,1.1c-.83.62-1.55,1.38-2.39,2a3.18,3.18,0,0,1-4.19,0,3.33,3.33,0,0,1-.87-3.93c.23-.58.57-1.12.92-1.8-1-.46-1.76,0-2.55.24a19.35,19.35,0,0,1-3.5.69,3.05,3.05,0,0,1-3.46-2.89,8.85,8.85,0,0,1,.49-3.48,5.35,5.35,0,0,1,1.46-2.16c4.55-4.24,9.62-7.07,16.17-6,2.28.36,4.62.3,6.89.67a18.5,18.5,0,0,1,5.48,1.52,6.57,6.57,0,0,0,5.28.39c1.22-.38,2.45-.72,3.65-1.16a6.18,6.18,0,0,1,4.22.21,3.17,3.17,0,0,1,2.38,3c.23,4.4.23,8.78-1.12,13.05-1.09,3.4-3.69,5.34-6.64,6.87-1.53.79-3,.07-4.14-1A18.7,18.7,0,0,1,521.54,458.09Z" transform="translate(-0.48 -0.48)"/><path class="cls-1" d="M288.58,494.46c-.88,0-1.76,0-2.64,0-3.11-.18-4.9-3.07-3.35-5.79a70,70,0,0,1,5.91-9,15.76,15.76,0,0,1,10.61-5.88c8.47-1.11,16.94-2.2,25.39-3.43,3.21-.47,5.16,2.44,5,5.54a44,44,0,0,1-1.08,7.81c-1,4.67-3.23,6.63-8,7.23-5.94.74-11.89,1.38-17.84,2.06l-14,1.59Z" transform="translate(-0.48 -0.48)"/><path class="cls-1" d="M192.8,427.35c-.58.41-1.23.81-1.83,1.28-2.13,1.69-4.26,3.37-6.35,5.11-1.28,1.05-2.62,1.57-4.18.72s-1.89-2.29-1.81-3.89c0-.69.18-1.38.3-2.25-1.14.41-2.09.79-3.06,1.09-2.24.69-3.9.07-4.66-1.69s0-3.23,1.7-4.5a67.14,67.14,0,0,0,5.56-4.51A97.64,97.64,0,0,1,191,408.64c3.22-2.11,4.47-5.69,4.78-9.5a19.33,19.33,0,0,1,.11-2.86,3.23,3.23,0,0,1,5.57-1.66c2.74,2.79,5.42,5.65,7.94,8.64,2.66,3.17,2.54,6.77,0,10.08-.45.56-.92,1.11-1.37,1.66a17.36,17.36,0,0,0-4.18,8.72,36.05,36.05,0,0,1-2.64,7.91,9.58,9.58,0,0,1-2.08,2.89,3.53,3.53,0,0,1-4.17.89c-1.48-.63-2.11-1.81-2-3.71.08-1.35.18-2.69.26-4C193.14,427.62,193,427.57,192.8,427.35Z" transform="translate(-0.48 -0.48)"/><path class="cls-1" d="M367.9,392.8c4.53.41,8.43.38,12.14,1.22a12.61,12.61,0,0,1,9.13,7c1,2.25,1.91,4.56,2.94,6.81a3.47,3.47,0,0,1-.34,4,3.54,3.54,0,0,1-3.71,1,114.79,114.79,0,0,0-35.27-2,22.79,22.79,0,0,0-8.75,2.32,3.45,3.45,0,0,1-4.23-.21,4.24,4.24,0,0,1-1.23-4.8,19.19,19.19,0,0,1,4-6.22,29.13,29.13,0,0,1,15.35-7.87C361.4,393.43,365,393.18,367.9,392.8Z" transform="translate(-0.48 -0.48)"/><path class="cls-1" d="M208,369.65c1.72.2,3.8.33,5.83.71a18.39,18.39,0,0,1,9.1,4.53c3.22,2.89,6.43,5.76,8.56,9.61,2.4,4.35,3.55,8.9,2.24,13.83a11.86,11.86,0,0,1-6.07,7.39c-2.83,1.57-5.47.71-6.68-2.26-1.47-3.61-4.16-6.25-6.87-8.81-2.95-2.8-6.17-5.31-9.31-7.9a24.46,24.46,0,0,1-6.75-8.58c-1.91-4.09-.08-7.4,4.58-8.13C204.31,369.78,206,369.79,208,369.65Z" transform="translate(-0.48 -0.48)"/><path class="cls-1" d="M125.9,225.38c5,.06,9.54,1.2,13.49,4.28a8.15,8.15,0,0,1,2.14,10.92,5.71,5.71,0,0,1-1.33,1.67c-3.21,2.56-6.57,4.78-10.75,5.5-3.8.65-7.57,1.12-11.42.37-5.5-1.07-10.42-3.06-13.58-8.05-1.37-2.15-1.32-3.19.12-5.23,3.59-5.11,8.79-7.5,14.68-8.66C121.44,225.75,123.68,225.64,125.9,225.38Z" transform="translate(-0.48 -0.48)"/><path class="cls-1" d="M244.16,445.85c-2.13,1.81-3.83,3.21-5.49,4.67a4.43,4.43,0,0,1-3,1.32,3.37,3.37,0,0,1-3.17-5,38.14,38.14,0,0,1,2.31-3.47c-1.09.39-1.76.62-2.42.87s-1.48.64-2.24.88a3.47,3.47,0,0,1-4.31-1.6,3.39,3.39,0,0,1,.94-4.31,43.87,43.87,0,0,1,13.55-8c2.18-.76,4.06-1.5,5.11-3.88a3.09,3.09,0,0,1,4.76-1c3,2.17,6.31,2.94,9.84,3.4,2.93.38,5.83,1,8.73,1.6,1.66.31,3.09,1,3.48,2.82s-.53,3.15-1.91,4.34A20.06,20.06,0,0,1,258,443.15a5.77,5.77,0,0,0-5.27,3.06c-.73,1.33-1.67,2.53-2.48,3.82-1.2,1.91-2.65,2.62-4.36,2.06s-2.41-2.06-2.1-4.29C243.87,447.35,244,446.92,244.16,445.85Z" transform="translate(-0.48 -0.48)"/><path class="cls-1" d="M37.38,244c3.87.08,7.73,6,6.26,9.42a7.67,7.67,0,0,1-1.08,1.84c-1.4,1.64-2.82,3.26-4.31,4.81a3.29,3.29,0,0,1-4.54.6c-2.73-2.07-4.84-4.61-5.06-8.27A5.19,5.19,0,0,1,30.2,248c1.81-1.7,3.61-3.41,6.19-3.86Z" transform="translate(-0.48 -0.48)"/></svg>