<svg id="Layer_1" data-name="Layer 1" xmlns="http://www.w3.org/2000/svg" viewBox="0 0 720 612"><defs><style>.cls-1{fill:none;stroke:#000;stroke-miterlimit:10;stroke-width:0.01px;}</style></defs><path d="M.48,612.48V.48h720v612ZM41.37,247.91a93.57,93.57,0,0,0,7.81,34.42c2,4.62,4.35,9.08,6.66,13.55a5.32,5.32,0,0,0,4,2.79c3.29.58,6.2-.5,8.86-2.2a27.93,27.93,0,0,1,9.73-3.87c4.88-1,8.95.14,12.16,4.16,5.26,6.59,15.35,7.08,20.92,2.59,1.43-1.15,2.88-2.28,4.28-3.48a12.81,12.81,0,0,0,4.14-7.37,25.18,25.18,0,0,0-2.09-17,84.83,84.83,0,0,0-4.49-7.64c-2-3.21-1.94-6.54-.57-9.86,1.13-2.75,4.27-3.71,7.58-2.64,1.74.56,3.5,1.09,5.27,1.54a5,5,0,0,0,4.13-.73c3.34-2.27,4.42-5.6,4-9.39-.48-4.51-1.89-6-6.42-6.68-3.71-.58-7.45-.91-11.18-1.29a24,24,0,0,1-10.31-3.62c-3.3-2-6.36-4.4-8.07-8-2.48-5.19-3.55-10.51-1.6-16.24,1.42-4.16.41-8.06-2.51-11.38a31.59,31.59,0,0,0-3.19-3.25c-4.53-3.82-9.52-6.78-15.6-7.21a5.94,5.94,0,0,0-3.62.8,50.51,50.51,0,0,0-6.58,5.54c-4.59,4.64-7.74,10.35-11.18,15.82a81.76,81.76,0,0,0-8.42,19A68.91,68.91,0,0,0,41.37,247.91Zm137-14.65c5.61.08,9.48-1.77,12.72-5.63a18.05,18.05,0,0,0,4.16-11.27c.2-5.57-1.59-7.15-6.19-8a19.45,19.45,0,0,1-3.86-1.22c-4.48-1.92-7.82-5.3-10.64-9.09-3.26-4.38-4-9.19-1-14.12,1.2-2,2.48-3.91,3.72-5.87,1.91-3,1.91-6.21-.29-8.91a18.53,18.53,0,0,0-7.72-5.91,7.61,7.61,0,0,0-5.76-.07c-6.36,2.35-12.28.88-16.72-4.15a30.28,30.28,0,0,1-7.58-17,3.34,3.34,0,0,0-3.23-3.26,15.31,15.31,0,0,0-2.87-.09,37.4,37.4,0,0,0-13.57,3.68c-2.31,1.1-4.63,2.17-7,3.14a61.69,61.69,0,0,0-27.66,21.86,37.46,37.46,0,0,0-3.79,6.92c-1.13,2.66-.45,5.91,3.13,6.4a44.57,44.57,0,0,1,4.47.66,36.46,36.46,0,0,1,11.59,5,15,15,0,0,1,6.37,16c-.75,2.86-1.54,5.71-2.17,8.59a12.75,12.75,0,0,0,.25,7.77c1.4,3.49,4.16,5.38,7.43,6.69,4.79,1.9,9.82,2.15,14.87,1.91,6.56-.3,12.1-3.09,17.17-7.15a36,36,0,0,1,6.76-4c3-1.49,6.47-.88,9.26,2.35a56.1,56.1,0,0,1,4.6,7C168.08,230.67,172.67,233.5,178.36,233.26Zm101.5-58.13a17,17,0,0,0-5-11.36,84.38,84.38,0,0,0-19.34-13.61,126.52,126.52,0,0,0-23.59-9.32c-6.51-1.93-13.14-3.45-19.73-5.05-3.26-.79-6.56-1.48-9.87-2-3.55-.54-7.16-.67-10.71-1.21a121.25,121.25,0,0,0-31.32-1,33.13,33.13,0,0,0-7.27,1.46c-2.12.73-4.54,1.68-4.89,4.4a16.63,16.63,0,0,0,0,5.93,19.27,19.27,0,0,0,8,11.53,8.76,8.76,0,0,0,7.08,1.49c1.79-.42,3.58-.81,5.39-1.1,2-.34,4.12-.87,6.07.36a24.88,24.88,0,0,1,12.1,20.4,7,7,0,0,1-2.21,5.85,25.43,25.43,0,0,0-2.44,2.64,5.84,5.84,0,0,0-1.38,4.68,13.19,13.19,0,0,0,5.41,8.21c4.73,3.55,10.18,4.26,15.91,3.75,7-.61,11.56-4.59,14.64-10.56a32.38,32.38,0,0,0,1.72-4.46,8.5,8.5,0,0,1,4.4-5.16,33.15,33.15,0,0,1,14.34-3.44,5.32,5.32,0,0,1,5.32,3.37q1.37,3.19,2.67,6.41a21.1,21.1,0,0,0,3.9,6.56c3.53,3.8,8.51,4.2,12.76,1.23s8-6.86,12.82-9.2a4.21,4.21,0,0,0,.74-.61C278.81,182.77,279.52,179.05,279.86,175.13Zm27.41,321.53c3.84,0,7.69.2,11.51-.05,6.93-.44,13.86-1.09,20.77-1.78A86.45,86.45,0,0,0,350,493.31a120.51,120.51,0,0,0,12-3.36c3.18-1.06,6.26-2.42,9.33-3.77a3.35,3.35,0,0,0,2.09-4.12,19.69,19.69,0,0,0-2.47-5.65c-1.62-2.36-3.77-4.34-5.5-6.64a31.2,31.2,0,0,1-3.94-6.24c-1.79-4.18-3.1-8.57-4.82-12.78a91.85,91.85,0,0,0-4.24-8.84A69.61,69.61,0,0,1,345.88,426c-.63-2.56-1.4-5.09-2.28-7.57-1.08-3.05-3.81-3.69-6.24-1.58-.54.48-1,1.06-1.55,1.5-2.49,2-4.82,4.29-7.55,5.87a77.83,77.83,0,0,1-21.89,8.94,5.69,5.69,0,0,0-4.24,3.51,22.25,22.25,0,0,0-1,4.65c-.2,1.09-.18,2.22-.45,3.29a39.67,39.67,0,0,1-4.15,10.45q-8.83,15.31-26.52,16.36c-4,.23-8,.29-12,.42a3.8,3.8,0,0,0-4,3.08c-.56,1.74-1.15,3.48-1.75,5.21-1.25,3.6-.43,5.72,3,7.5a9.79,9.79,0,0,0,1.76.77c7,2.11,13.85,4.78,21.19,5.91C287.84,495.78,297.46,497.29,307.27,496.66Zm233-36.08c2,1.32,3.87,2.68,5.86,3.84a2.09,2.09,0,0,1,1.1,2.78c-.48,1.53-1,3.05-1.47,4.56a3.51,3.51,0,0,0,.49,3.63,22.67,22.67,0,0,0,4.36,4.39c3.56,2.29,6,1.57,8.14-.85a33.6,33.6,0,0,0,3.72-5.27c1.26-2.13,2.27-4.4,3.41-6.6.54-1.07,1.07-2.15,1.71-3.16a8.39,8.39,0,0,1,9.9-3.91A77.27,77.27,0,0,0,590,462.42c3.23.33,5.23-1,6.24-4.11,1.24-3.88,2.57-7.73,3.91-11.57.58-1.66,1.34-3.25,1.88-4.91a3.29,3.29,0,0,0-1.3-4c-1.26-.87-2.67-.8-4.2.38s-3.06,2.56-4.54,3.9c-4.49,4.07-9.32,5.6-15.4,3.45a48.67,48.67,0,0,1-16.32-9.31,43.64,43.64,0,0,1-5.4-5.39,55.1,55.1,0,0,1-7.64-14,59.75,59.75,0,0,1-3.74-25.17c.11-2.28-.55-3.92-2.41-5.07-2.44-1.51-4.87-3.07-7.43-4.37-3.77-1.92-7.66-3.59-11.46-5.43a35.94,35.94,0,0,0-12.46-3.24c-7.91-.75-16.42,4.19-19.13,12-.58,1.65-.88,3.4-1.4,5.07-1.61,5.13-.34,9.84,2.33,14.19,1.57,2.58,3.62,4.85,5.44,7.28,2,2.69,3.87,5.48,6,8.06A28.84,28.84,0,0,1,508,430.29a5.27,5.27,0,0,1-.08,2.81c-.37,1.29-1.09,2.47-1.54,3.75a7.37,7.37,0,0,0-.55,2.75c.15,2.58,4.17,6.54,6.75,6.73a4.79,4.79,0,0,0,1.86-.31c1.59-.53,3.19-1.06,4.73-1.72a3.24,3.24,0,0,1,3.19.18c1.29.8,2.62,1.53,3.91,2.34,1.57,1,1.63,1.53.55,3.05-.83,1.16-1.61,2.37-2.34,3.6-1,1.71-.73,3.27.47,4.87a15,15,0,0,0,6.24,4.72c3.54,1.51,5.56.95,8.28-1.87A7.34,7.34,0,0,1,540.29,460.58ZM276.45,263.66c-.16-3.49-.66-6.51-3.17-8.83a26.51,26.51,0,0,1-2.42-2.65c-2.63-3.27-5.54-6.28-6.47-10.7-1-4.61-5.6-7.08-10.18-5.86a23.87,23.87,0,0,0-4,1.59c-3.77,1.78-7.58,3.22-11.9,3.2-7.48,0-13.63-3.06-19-7.89-3.67-3.29-6.81-7-8-12a6.17,6.17,0,0,0-.92-1.94,3.75,3.75,0,0,0-5.8-.78,8.12,8.12,0,0,0-1.76,2.52,12.13,12.13,0,0,0-.72,2.77c-.71,3.6-1.72,6.95-5.22,9a12.16,12.16,0,0,0-3,3.09,27.27,27.27,0,0,0-5.52,12.36c-.88,5.12-.83,10.19,1.95,14.89a9.53,9.53,0,0,0,7.49,4.9c2.22.25,4.44.53,6.64.95a15.75,15.75,0,0,1,11.26,7.76,22.17,22.17,0,0,1,2.5,17.3c-.68,2.65.46,4.31,3.2,4.73a17.14,17.14,0,0,1,2.55.59c5.23,1.68,9.85,4.55,14.37,7.58,3,2.05,6,4.32,9.12,6.16a8.54,8.54,0,0,0,10.89-1.9,14,14,0,0,0,2.93-11.27A71.46,71.46,0,0,0,259,291a8.24,8.24,0,0,1,2.53-9.33c2.65-2.28,5.63-4.2,8.48-6.26A15.26,15.26,0,0,0,276.45,263.66ZM650.92,442.38c2.22-1.13,2.68-2.82,2.42-4.94a5.37,5.37,0,0,0-3.65-4.62c-2-.81-3.62-.05-4.89,1.49a3.28,3.28,0,0,1-3.86,1.15c-1.94-.7-3.79-1.65-5.68-2.48-1.44-.64-2.84-1.63-4.35-1.85-5.76-.88-11.56-1.53-17.35-2.21-2.39-.28-3.79.91-4.06,3.31-.3,2.69-.55,5.39-.85,8.08a93.16,93.16,0,0,1-5.33,22.08,28.22,28.22,0,0,1-1.5,3.26,5.35,5.35,0,0,1-3.91,2.85,30.5,30.5,0,0,1-17.69-.88c-3-1.11-5.05-.33-6.73,2.35q-1.53,2.43-2.86,5c-1.13,2.19-.35,4.12,1.92,5,.94.37,1.86.79,3.05,1.29-.6,1.46-1.07,2.7-1.63,3.91-1,2.07-.6,3.71,1.25,5a9.58,9.58,0,0,0,2.52,1.35c2.81.88,5.65,1.71,8.51,2.44a11.2,11.2,0,0,0,3.32.27c2.28-.13,3.3-1.12,3.7-3.34.19-1,.37-2,.58-3.14l9.37,1.53c-.1,1.43-.23,2.61-.27,3.8a5.06,5.06,0,0,0,3.86,5.1,37.21,37.21,0,0,0,12.39.89c3-.23,4.06-1.5,4.12-4.5,0-1.26,0-2.51,0-3.85l14-1.56c.34,1.85.55,3.5,1,5.1.93,3.67,3.15,5.22,6.74,4.2a51.16,51.16,0,0,0,9.53-3.79c3.19-1.66,3.83-4.11,2.62-7.53-.48-1.35-1-2.68-1.43-3.87,1.43-3.35,3.76-4.43,7.18-3.57,2.49.62,4.29-.91,4.23-3.46a24.26,24.26,0,0,0-.63-5.46c-.55-2.06-1.57-3.92-4.19-3.92a1.16,1.16,0,0,1-.69-.14c-.38-.35-1-.77-1-1.15a2.17,2.17,0,0,1,.77-1.53c.7-.49,1.64-.63,2.38-1.09,1.65-1,2.32-2.73,1.37-4.32A76.11,76.11,0,0,0,660,451a5.34,5.34,0,0,0-4.1-2.21,2.92,2.92,0,0,1-1.91-1.17C652.92,446,652,444.31,650.92,442.38ZM217.33,206.55c0,7,1.26,11.84,5.17,15.53a45,45,0,0,0,6.59,5.13,20.16,20.16,0,0,0,15.13,2.89,32.07,32.07,0,0,0,9.48-3.9,27.67,27.67,0,0,1,5-2.17,4.17,4.17,0,0,1,5.27,2.11c1.23,2.05,2.33,4.18,3.54,6.25,1.6,2.76,3.15,5.57,4.91,8.23,4.1,6.16,10.21,8.6,17.31,8.39a21.07,21.07,0,0,0,18.11-10.42,72.9,72.9,0,0,0,3.95-7.91c1.45-3.1,1.38-6.34.83-9.63-.67-4-1.5-8-1.83-12.08-.48-6,1.4-11.15,6.23-15,2.2-1.76,2.27-4.31,0-6.08-7.62-5.88-15.63-11.08-25-13.7-2.88-.8-4.54.36-5,3.36a71.32,71.32,0,0,1-1.56,8.22,14,14,0,0,1-8.09,9.53,37.27,37.27,0,0,1-5.11,2c-4.51,1.28-8.15,4.1-11.71,6.86a11.92,11.92,0,0,1-9.29,2.79c-4.71-.59-7.33-3.06-8-7.78a21.66,21.66,0,0,0-.89-3.72A9.59,9.59,0,0,0,228.7,190C221.41,193.77,217.55,200,217.33,206.55Zm60.8,168.21c3.54-.35,6.71-.69,9.9-1a29.36,29.36,0,0,0,14.79-5.08c4.67-3.35,9.16-7,13.56-10.67a10.9,10.9,0,0,0,4.18-7.81q.51-8.49,1-17c.14-2.23.33-4.45.44-6.68a14.2,14.2,0,0,0,0-3.57,21.5,21.5,0,0,1,.26-9.74c.31-1.24.58-2.49.79-3.75.55-3.23-.4-4.67-3.6-5.27-2.74-.51-5.5-.91-8.26-1.28a53.29,53.29,0,0,1-17.14-5.08c-6.08-3.05-11-6.92-13-13.85-.78-2.78-3.36-3.52-5.69-1.77a53.26,53.26,0,0,0-4.63,4.14c-3.14,3-3.66,6.6-2.34,10.57.48,1.44,1.14,2.81,1.69,4.23a9.82,9.82,0,0,1,.06,7.25c-2.12,5.56-6.32,9.32-11.07,12.54-2.17,1.48-2.77,2.7-1.94,5.21.28.84.65,1.64,1,2.44,2.36,5.5,5.23,10.76,7,16.51,2.64,8.37,5.77,16.61,6.11,25.53A3.34,3.34,0,0,0,274,374C275.47,374.31,277,374.54,278.13,374.76ZM79.27,302.42a26.35,26.35,0,0,0-14.15,6c-1.68,1.4-1.85,2.86-.72,4.93,2.18,4,4.31,8,6.68,11.9a85.91,85.91,0,0,0,6.08,8.59c4,5,9.29,8.74,14.14,12.88,4.53,3.87,10.11,6.08,15.15,9.15a40.6,40.6,0,0,0,4.71,2.36c6.6,2.83,13.23,5.59,19.82,8.43a36.29,36.29,0,0,0,10.43,2.55c4,.45,5.44-1,5.44-5,0-2.72,0-5.44,0-8.15a47.32,47.32,0,0,1,1.47-12.34c2.07-8.12,5.26-15.74,10.53-22.39a20.81,20.81,0,0,0,2.66-4.24,11.68,11.68,0,0,0-3.3-14c-1.84-1.33-3.68-1.6-5.55-.33a52.48,52.48,0,0,0-4.49,3.54c-1.34,1.12-2.49,2.47-4.37,2.79-3.34.57-6.13-.06-8.22-3a16,16,0,0,0-5.89-5.18c-4.48-2.17-7.12-1.78-10,1.67a28,28,0,0,0-3.06,4.54,9.15,9.15,0,0,1-3.87,4.12,70.1,70.1,0,0,1-7,3,14.88,14.88,0,0,1-8.29.17,5.63,5.63,0,0,1-3.63-2.54c-.77-1.2-1.61-2.38-2.45-3.54C88.5,304.43,84.67,302.62,79.27,302.42Zm461.92-68a33.89,33.89,0,0,0-2.6,2.76c-1.41,1.9-3.05,2.22-5.22,1.33s-3.47-.46-4.47,1c-1.16,1.74-2.32,3.56-.93,5.74.51.8,1,1.58,1.53,2.33-.59,1.19-1.19,2.23-1.62,3.34a2.18,2.18,0,0,1-2.08,1.63,3.69,3.69,0,0,0-3.46,3.13c-.16.62-.36,1.23-.47,1.86-.42,2.27.32,3.63,2.45,4.57l1.58.69c0,.37,0,.68,0,1,.06,2.67,1.38,4.05,4,3.84a13.66,13.66,0,0,0,4.14-1.06,15.39,15.39,0,0,0,6.12-5.23,74.83,74.83,0,0,1,8.64-9.93,24.37,24.37,0,0,1,7.29-4.54c2.23-.9,2.86-.57,4,1.55a16,16,0,0,0,.83,1.45c2,3,4.76,3.92,8.06,2.59a10.9,10.9,0,0,0,3.32-2.25c1.44-1.38,2.66-3,4-4.45,1.61-1.75,2-1.78,4.1-.59a11.54,11.54,0,0,1,5.78,7.6c.68,2.88,2.45,4.32,5.12,5.06a43.14,43.14,0,0,0,23.18.2c2.31-.62,4.56-1.46,6.83-2.24a29.35,29.35,0,0,0,9.46-5.54c2.44-2.06,2.81-3.94,1.49-6.81-.67-1.44-1.52-2.8-2.38-4.37.46-.53.93-1.17,1.49-1.71,2.26-2.17,2.44-3.45.73-6a13.44,13.44,0,0,0-1.49-1.87c-1.79-1.84-3.06-2.05-5.36-1L623,229.56l-5.86-5.42a6.8,6.8,0,0,0,.83-1.85,5.33,5.33,0,0,0-.24-2.74c-.93-1.8-2.84-2.5-4.57-3.3-1.4-.64-2.63,0-3.77.87a2,2,0,0,1-2.62.1c-1.39-.91-2.91-1.62-4.46-2.46.08-.93.18-1.8.22-2.66a3.27,3.27,0,0,0-2.88-3.76c-.86-.19-1.71-.38-2.55-.63-2.56-.8-4.07,0-4.87,2.67-.2.67-.45,1.33-.72,2.08l-9-1.05c-.1-.93-.17-1.79-.29-2.64-.31-2.28-1.54-3.36-3.86-3.39a17.63,17.63,0,0,0-1.92.09c-2.24.19-3.32,1.17-3.6,3.42-.16,1.34-.18,2.69-.26,4l-6.63,2.36a16.2,16.2,0,0,1-.73-1.8c-.69-2.72-3.62-3.66-6.14-1.86-.91.64-1.74,1.4-2.59,2.13a3.63,3.63,0,0,0-1.12,4.13c.3,1,.71,1.92,1.13,3.05a39.4,39.4,0,0,1-7,5.43l-1.09-1.48c-1.54-2.08-3.56-2.34-5.55-.64a27.79,27.79,0,0,0-2,2,4.27,4.27,0,0,0-.81,5.28C540.4,232.43,540.74,233.32,541.19,234.38Zm-361.12,18.8h0v-3.12c0-6.82-3.78-10.6-9.77-12.09a73.59,73.59,0,0,1-7.5-2.42A9,9,0,0,1,157,229c-.76-2.81-2.88-3.79-5.5-2.4a38.81,38.81,0,0,0-4.39,2.91,14.16,14.16,0,0,0-5.76,15.37,29.15,29.15,0,0,1,.68,4.25c.48,6.49-4.61,11.43-10.16,11.12-1.52-.09-3,0-4.56-.07-3.43-.06-5.18,2.41-3.78,5.56a16.9,16.9,0,0,0,2.27,3.35c1.6,2.09,3.33,4.08,4,6.75a32.22,32.22,0,0,1,.63,11.44,5.24,5.24,0,0,0,2.34,5.32,42.49,42.49,0,0,0,4.61,3c5,2.86,10.3,1.77,13.85-2.82.44-.57.83-1.18,1.24-1.77,2.73-3.85,6.67-3.88,9.45,0a17.41,17.41,0,0,1,1.73,3.14c1.33,3,2.57,6,3.9,9s3.81,3.62,6.57,1.7a31,31,0,0,1,4.93-2.91,36.22,36.22,0,0,1,17.74-3.23c2.23.15,4.47.21,6.7.38a3.7,3.7,0,0,0,3.65-1.81c1.38-2.09,2.54-4.22,2.3-6.87-.13-1.35,0-2.72-.14-4.08-.34-4.44-2.15-8-6.32-10a38.32,38.32,0,0,0-3.93-1.76c-2.41-.83-4.87-1.55-7.32-2.28-7.49-2.21-10.93-6.29-11.64-14C179.94,256.55,180.07,254.86,180.07,253.18ZM677,352.8a7.75,7.75,0,0,1,.91-.28c2.94-.51,4.31-2.1,4.47-5.25a5,5,0,0,0-3.7-5.43c-1.67-.54-3.51-.88-4.91-1.84a49.81,49.81,0,0,0-10.65-5.39c-2.83-1.06-5.61-2.3-8.48-3.28-7.17-2.44-14.43-4.66-21.56-7.21-4.48-1.6-9.11-3-12.89-6.16-1.72-1.45-4-.78-5.1,1.18a4.34,4.34,0,0,0-.46,3.9c2.58,6.93,2.14,14,.69,21a14.26,14.26,0,0,1-4.44,8.28,3.27,3.27,0,0,0,.46,5.18c1.52,1,3,2.06,4.61,3,5.14,3,9.11,7.24,12.86,11.71A39.74,39.74,0,0,1,634,381c2.88,6.13,6.2,12.06,9.4,18a15,15,0,0,0,5.08,5.64,5.05,5.05,0,0,0,6.74-.58c.82-.76,1.6-1.56,2.36-2.39A54.18,54.18,0,0,0,669,383.86a12.85,12.85,0,0,1,.94-1.94,4.32,4.32,0,0,1,1-1.29,6.71,6.71,0,0,0,2.78-6.86,7.82,7.82,0,0,1,.86-3.88c.24-.55,1.28-.82,2-1.06a3.64,3.64,0,0,0,2.75-3.74c.06-2.61-.5-4.89-2.86-6.31C676.67,356.66,676.86,354.7,677,352.8ZM165.14,495.51l0,.48c5.58-.35,11.15-.85,16.73-1,5-.13,9.82-1.18,14.68-2.11,2.41-.47,4.74-1.38,7.13-2s4.64-1.17,7-1.76a10.9,10.9,0,0,0,1.61-.43,3.45,3.45,0,0,0-.66-6.71,32.49,32.49,0,0,1-4.85-1.23,17.51,17.51,0,0,1-9.6-8.93,8.84,8.84,0,0,0-3.78-3.85c-3-1.78-6.16-3.31-8.85-5.64a27.75,27.75,0,0,1-5-5.42,18.59,18.59,0,0,0-2.93-3.45c-2.83-2.62-4.33-2.71-7.75-.92a60.4,60.4,0,0,1-7.1,3.46c-5.38,2-10.84,3.8-16.29,5.59-3.19,1.05-6.43,1.91-9.63,2.89-2.9.88-5.8,1.77-8.67,2.73a3.22,3.22,0,0,0-1.55,1.08,93.37,93.37,0,0,0-5.86,8.71,17.76,17.76,0,0,1-3.72,5.18,20.49,20.49,0,0,1-6.8,4,19.77,19.77,0,0,0-8.26,5.55Q99,493.78,97.19,496a3.47,3.47,0,0,0,.31,4.94c.39.39.86.71,1.24,1.12a5.51,5.51,0,0,0,9.08-.73,6.88,6.88,0,0,1,6.36-3.5c.87,0,1.75-.06,2.63-.1a2.35,2.35,0,0,1,2.54,1.39c1.27,2.94,3.74,3.2,6.43,2.87a3.24,3.24,0,0,0,3.27-3.2,2,2,0,0,1,1.92-2c2.29-.37,4.58-.66,6.87-1,.92-.13,1.4.38,1.93,1.08a6,6,0,0,0,9.43.06,3.23,3.23,0,0,1,3-1.42C156.52,495.53,160.83,495.51,165.14,495.51Zm488.51-218c.87-.43,1.59-.75,2.27-1.14a4.18,4.18,0,0,0,1.49-6.33,28.55,28.55,0,0,1-1.68-2.33c-1.29-2.48-3.4-3.19-6-3-.56.05-1.12.07-1.68.09-1.94.06-3.68-.2-4.17-2.55a2.88,2.88,0,0,0-.48-.82c-1.83-2.87-4.92-3.29-7.53-1a13.54,13.54,0,0,1-2.26,1.77c-2.52,1.36-5.05,2.72-7.67,3.87a44.52,44.52,0,0,1-17.46,3.75,43.76,43.76,0,0,1-7.4-.56c-3-.46-4.89,1.7-4.42,4.64a14,14,0,0,0,.8,2.75q1.93,5.16,3.94,10.28a20.2,20.2,0,0,0,1.23,2.86c2.45,4.29,4.44,8.84,7.4,12.86a12.73,12.73,0,0,0,5.38,4.56c1.47.61,3,1,4.53,1.55l25.4,8.62c.23.07.44.2.66.29,2.84,1.26,5.68,2.54,8.54,3.77,3.74,1.61,7.46,3.27,11.26,4.74a79.53,79.53,0,0,0,8,2.57,3.36,3.36,0,0,0,4.19-1.9,5,5,0,0,0-1.67-6.37,29.57,29.57,0,0,0-2.94-1.59c-.46-.25-.89-.54-1.65-1,1-.63,1.69-1.1,2.41-1.53,3.93-2.33,4-5.08,2.09-8.75a3.39,3.39,0,0,0-3.77-1.93c-.87.13-1.73.39-2.6.44s-1.78,0-2.13-1.1c-.58-1.81-1.2-3.61-1.89-5.65,1.29-.44,2.47-.89,3.67-1.23,2.91-.83,3.86-2.72,2.58-5.45-.78-1.66-1.68-3.26-2.56-4.88a3.73,3.73,0,0,0-4.59-2.08c-.86.18-1.68.56-2.54.7-1.67.27-3.24,0-4.23-1.53C656.66,282.46,655.23,280.06,653.65,277.47Zm-193.3,62.21,0-.19h.72c3.2-.12,3.65-.48,4.33-3.56.7-3.24,1.77-6.3,4.2-8.69.8-.79,1.58-1.59,2.4-2.34a4.34,4.34,0,0,0,1.37-3.44c0-3-1.64-5-4-6.68a39.63,39.63,0,0,1-12.79-15c-2.57-5.22-4.64-10.68-6.79-16.1-1.93-4.86-4.11-9.53-8-13.17a17.62,17.62,0,0,1-2.25-2.48,28.88,28.88,0,0,0-11.28-9c-3.5-1.66-7.76-1-10,2.75a41.77,41.77,0,0,0-3.25,6.9c-.91,2.46-1.43,5.07-2.16,7.6a17.1,17.1,0,0,1-3.41,6.52,22.56,22.56,0,0,1-10.74,7.29c-2.15.65-3.25,2.5-2.62,4.43.53,1.6,1.32,3.11,3.09,3.75.9.32,1.79.67,2.68,1a6.35,6.35,0,0,1,4.27,4.74,25,25,0,0,0,3.77,8.75,4.92,4.92,0,0,0,2.06,1.87,11,11,0,0,0,7.52.39,53.25,53.25,0,0,0,5.19-1.83,10.2,10.2,0,0,1,9.44.34c2.53,1.36,5.09,2.67,7.66,3.95,3.43,1.7,6.4,3.81,8.12,7.44a20.45,20.45,0,0,1,2.36,7.72,25,25,0,0,0,.47,3.32,3.5,3.5,0,0,0,2.93,3.09C457.2,339.35,458.78,339.48,460.35,339.68Zm107.48,40.55c.4,1,.76,2,1.16,3,1.27,3.11,3.47,3.8,6.27,1.86a11.29,11.29,0,0,1,9.3-2c4.31,1,8.09,3,10,7.12a116.86,116.86,0,0,1,5.28,13.88,88.67,88.67,0,0,0,5,12.16,10,10,0,0,0,6.63,5.53,82.41,82.41,0,0,0,14,2c4.24.22,8.19.71,11.81,3.19,2.53,1.74,6.13-.21,6.38-3.3a57,57,0,0,0,.11-6,5.71,5.71,0,0,0-3.46-5.33c-2.09-1-4.25-1.82-6.41-2.65-2.69-1-2.7-1-2.83-3.93l.8-.46c2.62-1.58,3.25-2.77,2.6-5.75a53.09,53.09,0,0,0-2-6.89c-.88-2.45-2.37-3.07-4.93-2.36-1.14.32-2.26.68-3.47,1l-1.42-2.34c.21-.28.33-.48.49-.65,2.68-2.79,2.81-3.48,1.25-7-1.28-2.88-1.93-3.24-5.17-3.05-1.13.06-2.34.36-3.54-.41a12.07,12.07,0,0,0,.86-1.81c.47-1.56.73-3.15-.41-4.56s-2.1-2.63-3.26-3.84c-1.36-1.43-3-2.62-5.08-2.12-3.19.76-5.18-.55-6.59-3.24a11.09,11.09,0,0,0-.76-1.1c1.39-3.49.81-5-2.41-6.7-.91-.47-1.76-1.08-2.62-1.64a3.48,3.48,0,0,0-5.5,2.36c-.13.69-.15,1.39-.22,2h-5.41c0-.87,0-1.58,0-2.28a3.23,3.23,0,0,0-4.35-3.3,13.85,13.85,0,0,0-3.64,1.74,3.46,3.46,0,0,0-1.07,5c.39.68.8,1.34,1.2,2a15.06,15.06,0,0,1-5.22,4c-.63-1.33-1.09-2.52-1.74-3.6a3.35,3.35,0,0,0-5.14-1.08,33.12,33.12,0,0,0-4,3.8,3.31,3.31,0,0,0-.44,4c.91,1.58,1.93,3.15,3.91,3.67,1,.27,1.9.81,2,2.05-2.58,1.56-3.31,2.82-2.74,4.68C563.6,379.59,564.82,380.21,567.83,380.23Zm-310,85.27c6.56-.24,12.85-1.53,18.44-5.17,2.54-1.65,4.92-3.55,7.33-5.38a21.37,21.37,0,0,0,6.05-7.66,20.35,20.35,0,0,0,1.65-6c.35-2.27-.87-3.69-3.1-4-1.74-.26-3.48-.48-5.24-.6-7.18-.49-14.34-1.1-21.25-3.32-3.94-1.27-7.89-2.54-11.81-3.91a46.76,46.76,0,0,1-5.51-2.35c-4-2-8-4-11.88-6.18-2.7-1.55-5.06-3.67-7.77-5.18-3.27-1.84-5.76-4.54-8.47-7-2.89-2.63-5.53-5.51-8.34-8.23a97.57,97.57,0,0,1-8.57-9.6c-2.72-3.43-5.77-6.57-8.09-10.34-1.39-2.25-3.43-2.62-5.11-1.56s-2,2.86-.73,5.29a10.91,10.91,0,0,1,1.29,5.52,10.11,10.11,0,0,0,1.61,6.18c2.65,3.89,5.43,7.68,8.18,11.5,1.23,1.71,1.94,3.4.92,5.55a3.43,3.43,0,0,0-.07,2.75c1.65,2.93,3.43,6,7.33,6.15,3.05.14,5,1.84,6.75,4a42.68,42.68,0,0,0,3.29,3.8,7.83,7.83,0,0,1,2.32,3.54,9.16,9.16,0,0,0,3.47,5.06c4.12,2.88,8.37,5.57,12.58,8.32,2.68,1.75,5.49,3.31,8,5.22,3.53,2.65,6.68,5.71,8.57,9.84a6.38,6.38,0,0,0,5.73,3.71C256.23,465.56,257,465.5,257.84,465.5Zm64.07-238.14c-.35,2.6-.46,4.61-.91,6.54a25.5,25.5,0,0,1-11.73,16.82,58,58,0,0,1-16.19,7.06c-1.24.31-2.47.69-3.68,1.11a7.54,7.54,0,0,0-5.3,7c-.36,3.69.74,7.14,1.77,10.57a29.29,29.29,0,0,0,7.53,12.36,6.36,6.36,0,0,0,4.44,2.08A5.76,5.76,0,0,0,303.6,287a13.7,13.7,0,0,1,5.18-6.09c4-2.78,8.51-3.47,13.14-3.92,3.65-.35,7.34-.44,11-1,4-.59,7.43-3.81,4.49-8.9-1-1.8-2.25-3.49-3.42-5.21a18.92,18.92,0,0,1-3.29-7.63c-2-12.36,2-22.84,10.24-31.87a18.32,18.32,0,0,1,5.64-3.94,78,78,0,0,1,8.73-3.25,4.07,4.07,0,0,0,1-7.31,136.08,136.08,0,0,0-17.81-9.36c-2.58-1.06-5.22-2-7.85-2.91a3.92,3.92,0,0,0-4,.82,17.29,17.29,0,0,0-5.65,8.15c-1.85,5.6-1.5,11.15-.05,16.75C321.44,223.49,321.64,225.72,321.91,227.36Zm-96.5,87.32-4.79-2.19c.18-.75.32-1.28.42-1.82a3.42,3.42,0,0,0-2.27-4.18,3.37,3.37,0,0,0-4.22,2.19c-.29.73-.53,1.48-.84,2.35l-4.56-1c-.34-3.28-1.18-4.5-3.09-4.72s-3.06.76-4.19,3.82h-3a15.43,15.43,0,0,0-.68-1.4,3.3,3.3,0,0,0-3.67-1.63,3.23,3.23,0,0,0-2.63,3,6.12,6.12,0,0,0,0,1c0,1.33-.72,1.64-1.87,1.38-1.56-3.4-3-4.21-5.81-3.2s-3.38,2.51-2.3,6.56l-1.85,1.13c-1-.79-1.75-1.48-2.57-2.11-1.77-1.35-3.64-1.32-5,.05a3.65,3.65,0,0,0-.2,5c.54.76,1.13,1.5,1.79,2.37l-2.8,3.11c-.49-.43-.76-.72-1.08-.95a3.34,3.34,0,0,0-4.57.11,3.38,3.38,0,0,0-.09,4.75c.4.5.88.93,1.24,1.46.49.7.19,1.17-.61,1.42a10.47,10.47,0,0,0-1.18-.78c-2.18-1.13-4.45-.41-6.27,1.95-1.26,1.63-1.06,3.22.67,5.12.8.87,1.65,1.7,2.57,2.64l-1.09,3.29c-1-.17-2-.33-2.87-.47a3.31,3.31,0,0,0-4,3.3,6.26,6.26,0,0,0,2.1,4.91,5.07,5.07,0,0,0,3.47,1.36A5.7,5.7,0,0,1,165,355.7a7.26,7.26,0,0,0,3.7,3.28,16.68,16.68,0,0,0,3.7,1,11.84,11.84,0,0,1,8.37,5.43,3.63,3.63,0,0,0,3.92,1.74,4.23,4.23,0,0,0,3.31-2.82,16.82,16.82,0,0,0,.56-2.33c.41-2.12.65-4.28,1.23-6.35,2-7.19,5.61-13.36,11.73-17.9a9.49,9.49,0,0,1,5.74-2.09c2.24,0,4.48,0,6.71.06a4.05,4.05,0,0,0,4.07-2.4c.47-.93.84-1.9,1.27-2.85a16.41,16.41,0,0,1,4.82-6.19c1.91-1.54,4-2.34,6.43-1.13a3.75,3.75,0,0,0,1.14.34,3.55,3.55,0,0,0,3.7-2.1,3.35,3.35,0,0,0-.86-3.93,13.41,13.41,0,0,0-1.52-1.07c0-.32.1-.55.12-.78.18-2-.5-3.36-2-4a3.62,3.62,0,0,0-4.27,1.27C226.42,313.42,226,314,225.41,314.68ZM406.22,490.86c2.29.86,4.3,1.45,6,3a6.85,6.85,0,0,0,7.09,1.81,92.92,92.92,0,0,0,9.57-3.8c2.84-1.32,3.12-4.27.86-6.46-1.78-1.73-3.57-3.44-5.34-5.17-2.4-2.36-5-2.52-7.75-.48-3,2.21-3,2.21-6.08.29l-.81-.52c-2-1.26-2-1.34-.74-3.33.08-.14.18-.26.26-.4a4.31,4.31,0,0,0-1.71-6.31c-1.12-.61-2.27-1.2-3.33-1.9a3.64,3.64,0,0,0-4.06-.26c-1.15.65-2.21,1.42-3.44,2.23-2.63-3.13-5.82-5.84-7.38-10.24a11.35,11.35,0,0,0,2.38,0,6.12,6.12,0,0,0,2.58-1c1.55-1.32,1.29-3.69-.53-6.83-1.12-1.94-2.66-2.71-4.55-2.26a7.59,7.59,0,0,0-1.13.4l-1.69.67c-2.75-2.48-4.65-5.58-4.66-7.63.43-.28.92-.56,1.35-.9a3.47,3.47,0,0,0,1.29-4.06c-.7-2.12-1.46-4.24-2.36-6.28s-2.38-2.61-4.52-2c-.89.24-1.77.5-2.6.74-1-2.55-1.81-4.78-2.68-7.06,4-.66,4.89-2.17,3.79-5.71-.22-.69-.44-1.37-.7-2-1.59-4.18-2.12-4.47-6.61-3.65l-.46.1a1.91,1.91,0,0,1-2.21-1.06,24.33,24.33,0,0,1-2.26-7.49c.5-.16.8-.25,1.1-.36,2.64-.91,3.49-2.88,2.08-5.22a25.28,25.28,0,0,0-3.07-3.94c-1.39-1.54-3.09-1.67-5.05-1a16.06,16.06,0,0,1-4.41.82c-2.41.12-4.45-1-6.45-2.27a3.34,3.34,0,0,0-4.82,1,3.24,3.24,0,0,0,1.08,4.61C346,398,348,399.3,350,399.64c2.72.45,3.62,2.36,4.68,4.25a2.21,2.21,0,0,1-.69,3.16c-.65.45-1.17,1.08-1.79,1.59-2.77,2.26-2.81,3.69-.92,7.08a9.89,9.89,0,0,0,1.06,1.3,3.49,3.49,0,0,0,4.27,1.2c1.1-.4,2.22-.75,3.39-1.14.86,1.9,1.62,3.66,2.46,5.37a1.79,1.79,0,0,1-.26,2.21,14.62,14.62,0,0,1-2.77,2.21,3.92,3.92,0,0,0-2.15,4.15,10.75,10.75,0,0,0,2.43,5.88,3.36,3.36,0,0,0,4.26,1.15,16.8,16.8,0,0,0,1.52-.77c.85,2,1.61,3.81,2.44,5.62.44,1,0,1.53-.77,2a9.25,9.25,0,0,1-1.12.41c-2.06.89-2.91,2.56-2.09,4.66a13.33,13.33,0,0,0,2.19,3.66c1.79,2.1,3.88,2.49,6.47,1.53.8-.29,1.61-.55,2.47-.84,1.26,1.93,2.47,3.62,3.5,5.41.83,1.46.46,2.54-.94,3.43-.46.29-1,.39-1.54.66a3.35,3.35,0,0,0-1.49,4.51,30,30,0,0,0,2.49,4.34,13.07,13.07,0,0,0,3,3c2.13,1.48,3.18,1.34,5.18-.26.67-.53,1.31-1.11,2.22-1.88l4.71,6.36c-1,1.31-2,2.48-2.84,3.71a3.34,3.34,0,0,0-.15,3.84,24,24,0,0,0,9.78,8.95,4.45,4.45,0,0,0,6.07-2.57Zm55-47.53a62.94,62.94,0,0,0,28.06-8.19,6,6,0,0,0,3.29-6.36,17.26,17.26,0,0,0-.57-3.3c-2.18-6.78-4.3-13.59-8.78-19.31-2-2.58-3.92-5.28-6.7-7.14-3.25-2.18-6.49-4.38-9.77-6.51a16.1,16.1,0,0,1-5.16-5.26,42.91,42.91,0,0,0-4.76-6.57c-3.73-4.23-8-7.57-13.39-9.3-2.34-.74-4.65-1.76-7.23-1.24a5,5,0,0,0-3.61,7.16,14.88,14.88,0,0,0,5.55,5.83,30.21,30.21,0,0,1,2.7,1.94,22.66,22.66,0,0,1,5.16,6.86c2.19,3.88,2.29,8.26,2.84,12.53a67.59,67.59,0,0,0,1.18,8,101.83,101.83,0,0,1,3.19,21.05,53.67,53.67,0,0,0,.82,6.65,3.22,3.22,0,0,0,3.12,2.82C458.49,443.18,459.84,443.24,461.2,443.33Zm26.72-114.95a17.32,17.32,0,0,0-2.39,0c-4.23.6-8.31,1.93-10.76,5.57a15.57,15.57,0,0,0-.63,17.23c2,3.54,4.28,6.94,6.61,10.26a46.46,46.46,0,0,0,4.7,5.42c2.18,2.27,4.62,2.33,7.41.93a28.1,28.1,0,0,1,12.92-3.1c5.27,0,10.26,1.51,15.37,2.39a5.41,5.41,0,0,1,1.12.41c1.55.64,3.11,1.26,4.63,2,4,1.84,8.19,3.24,11.28,6.61a7.8,7.8,0,0,0,2.17,1.48,3.26,3.26,0,0,0,4.35-.66c1.14-1.13,2.15-2.38,3.3-3.49a17.88,17.88,0,0,0,4.51-7.25,7,7,0,0,0-3.74-9c-3.13-1.38-6.33-2.65-9.58-3.74-7.06-2.36-13.86-5.34-20.67-8.31a43.77,43.77,0,0,1-14.06-9.76A22.11,22.11,0,0,0,487.92,328.38ZM329.5,283a26.57,26.57,0,0,0-16.15,5.23c-1.41,1-2.3,2.21-2,4s1.74,2.57,3.4,2.89,3.65.5,5.43.94a44.79,44.79,0,0,0,20.66.23c4-.89,11.6,1.81,12.81,7.66a17.34,17.34,0,0,1,.37,4.25c-.33,8,4.63,18.51,15.69,19.86,5.92.72,11.16-.84,14.79-5.86a10.76,10.76,0,0,1,5.5-4c1.58-.55,3.14-1.17,4.69-1.81a6.32,6.32,0,0,0,3.48-4.07c1-3-.24-5.18-3.2-6.09-6.54-2-10.11-6.63-9.84-14,.11-3.26-1.17-4.75-4.46-5.32-4.95-.84-9.92-1.65-14.84-2.66-5.24-1.09-10.41-2.43-15-5.44-1.92-1.27-3.55-1-5.21.67-2.26,2.29-5.17,3.09-8.08,3.91a9.06,9.06,0,0,1-3.08.09C332.83,283.35,331.17,283.13,329.5,283ZM82.91,499.33a13.15,13.15,0,0,0,6.31-3.76c3.35-3.85,6.76-7.66,10.18-11.46a19.35,19.35,0,0,1,6.84-5.1,9,9,0,0,0,5.77-7.89c.28-3.08-1.15-4.83-4.23-4.61s-6.2.59-9.26,1.08c-1.73.27-3.37,1-5.09,1.36a73.64,73.64,0,0,1-27.36,1.14,35.5,35.5,0,0,1-8.91-2.59c-3.87-1.71-7.77-3.35-11.73-4.8-4.2-1.53-8.44-1.73-12.51.53-2.06,1.14-2.76,2.86-2.31,5.26.61,3.2,1.34,4,4.16,4.34,1.39.17,2.53.6,2.92,2a3.37,3.37,0,0,1-.56,3.39c-1.3,1.41-1.29,3-.82,4.72.88,3.17,3.65,5.12,7.25,5.06,2.93-.05,3.79,1.09,3,3.94A8.51,8.51,0,0,0,46,494.3a5.71,5.71,0,0,0,.63,2.7,8.31,8.31,0,0,0,4.18,3.44,5.37,5.37,0,0,0,6-1.11c2-2,4.5-2.28,7.06-2.2,2.78.09,4.37,1.53,4.93,4.26a4,4,0,0,0,2.81,3.23,12.41,12.41,0,0,0,7.76.25A3.71,3.71,0,0,0,82,502.31C82.31,501.33,82.6,500.34,82.91,499.33ZM102.84,380c-1.46,1.94,0,2.82,1.43,3.72.61.38,1.17.84,1.81,1.17,5.49,2.84,9.9,7,14,11.53,4.35,4.85,6.13,10.71,6.71,17.05.16,1.83.52,3.64.74,5.46a19.1,19.1,0,0,1,.47,4.95,38,38,0,0,1-10.45,21.63,12.78,12.78,0,0,1-5,3.26c-1.13.41-2.28.73-3.4,1.15a4.7,4.7,0,0,0-3,2.28c-1.5,3.28,1.4,7.67,5,7.2a67.49,67.49,0,0,0,10.53-2.21,99.86,99.86,0,0,1,13.31-3c3.87-.6,7.73-1.24,11.57-2a8.3,8.3,0,0,0,3-1.29c2.78-1.88,2.79-4.32.22-6.45A40.69,40.69,0,0,1,135,421.27a34.3,34.3,0,0,1-1.16-14.41,38.81,38.81,0,0,1,1.59-6.26,24.67,24.67,0,0,1,10.69-14,6.43,6.43,0,0,0,3.26-4.9c.05-.32.16-.62.21-.94.58-3.31-.58-4.69-3.9-4.67-2,0-4,.12-6,0a16,16,0,0,1-6.91-1.67,73.68,73.68,0,0,0-7.75-3.11,35.63,35.63,0,0,1-5.16-1.89c-2.66-1.51-4.88-1-7,.85-1.21,1-2.37,2.11-3.58,3.18-1-.72-1.85-1.43-2.8-2a4.62,4.62,0,0,0-5.69.86,4.49,4.49,0,0,0,.36,5.89C101.61,378.74,102.07,379.19,102.84,380ZM384.59,259.21a58.3,58.3,0,0,1-5.92-.7c-9.77-2.18-16-8.52-20-17.35-1.78-3.89-.95-7.32,1.71-10.44a23.6,23.6,0,0,1,7.5-5.87c1.87-.93,2.45-2,2-3.53a3.45,3.45,0,0,0-3.58-2.6,16.51,16.51,0,0,0-2.6.4c-5.74,1.16-10.41,4.24-14.83,7.93a31.4,31.4,0,0,0-9.15,12.38c-3.21,7.81-2.36,15.26,2.77,21.93a38.07,38.07,0,0,0,9.76,8.4c5.69,3.68,12,5.88,18.53,7.59a48.45,48.45,0,0,0,22.05,1.11c5.42-1.06,9.22-4.19,12.44-8.3a6.62,6.62,0,0,0,1.29-3.29,72.6,72.6,0,0,0,.38-8.6,3.08,3.08,0,0,0-3.77-3,20.75,20.75,0,0,0-3.86,1.2,29.56,29.56,0,0,1-2.87,1.2A49.39,49.39,0,0,1,384.59,259.21ZM554.18,305.6a4.86,4.86,0,0,1,1.05-.11c6.33.73,12.25-.85,17.88-3.48a21.77,21.77,0,0,0,10.47-9.87c4-7.9,4.41-15.89-.13-23.84a10.79,10.79,0,0,0-7.59-5.32c-3.57-.75-6.2,1.31-6.87,4.94-.41,2.28.1,4.43.44,6.65,1,6.59-2.17,10.32-7.71,11.43-3.66.72-6.32-.84-7.28-4.49-1.24-4.75-.23-9.36,1.47-13.81a37.67,37.67,0,0,1,2.62-4.55c1.07-1.94,1-3.45-.16-4.63s-2.52-1.23-4.43-.4a14.46,14.46,0,0,0-5.79,4.87c-1.92,2.56-3.83,5.13-6,7.49-4.19,4.61-9.15,7.73-15.75,7a2.58,2.58,0,0,0-.48,0,3.45,3.45,0,0,0-3.19,2.18,3.37,3.37,0,0,0,.86,3.95,6.83,6.83,0,0,0,2.28,1.24c2.15.77,2.17.73,2.37,3.28-.54.22-1.11.47-1.69.69-2.14.84-3,2.61-2.29,4.54a3.89,3.89,0,0,0,4.94,2.23,16.77,16.77,0,0,0,1.91-1l1.38,1.44,1.48,1.53c-.37.86-.71,1.58-1,2.33a3.41,3.41,0,0,0,1.15,4.27,3.48,3.48,0,0,0,4.41-.44c.72-.61,1.38-1.29,2.09-2l5.36,2c-.16,3.46.65,4.85,3,5.31C551.74,309.64,553.06,308.79,554.18,305.6ZM444.43,431.15l.41,0c-.69-5.22-1-10.51-2.16-15.64a64,64,0,0,0-5.53-16.29c-.48-.92-.82-1.91-1.26-2.85q-2.24-4.89-4.51-9.78a4.89,4.89,0,0,0-3.23-2.62c-11.28-3.64-20.88-.63-29.32,7.24-2.15,2-2.76,4.32-1.57,6.93,1.61,3.54,2.65,7.36,5.25,10.43a68.11,68.11,0,0,1,4.13,5.58,57.49,57.49,0,0,0,11.29,12c3.65,3,7.45,5.79,11.37,8.38a76.37,76.37,0,0,0,9.25,5c2.21,1.06,3.84.37,5-1.82a8.55,8.55,0,0,0,.87-2.94A28.64,28.64,0,0,0,444.43,431.15Zm-22.84-61.52a41.1,41.1,0,0,0-1.2-4.28c-1.18-3.05-2.43-6.09-3.84-9-1.72-3.6-3.68-7.07-5.47-10.64a63.29,63.29,0,0,1-3.86-8.22,24.15,24.15,0,0,0-4.48-8.12c-2.3-2.7-6.56-4.53-10.28-2.1a40.13,40.13,0,0,0-3.74,2.59c-3.64,2.95-7.85,4.9-12,6.94-3.08,1.52-3.76,2.55-2.57,5.76q3.71,10,7.53,19.92c2.15,5.59,4.4,11.13,6.59,16.7,1.61,4.1,4.66,5,8.3,2.56,4.14-2.73,8.48-5.16,13.49-5.94,2.43-.39,4.91-.47,7.37-.74C420.18,374.73,421.59,373.14,421.59,369.63ZM481.17,379a7.25,7.25,0,0,0-.6-2.19,22.84,22.84,0,0,0-3.44-5.12A34.8,34.8,0,0,1,469,359.9c-2.63-6.17-7.28-10-14-10.95a15.4,15.4,0,0,1-5.94-2.44,4.55,4.55,0,0,1-2.27-3.46c-.23-1.9-.52-3.8-.9-5.68a13.63,13.63,0,0,0-4.32-8.07c-4.34-3.69-9.12-5.73-15-4.91-3.66.51-7.35.45-10.61-1.79l-.22-.1a4,4,0,0,0-4.82.9c-1.59,1.6-1.89,3-1,5a15.63,15.63,0,0,0,1.29,2.29c1.29,1.93,2.66,3.8,3.91,5.74,4.7,7.34,9.36,14.7,14.07,22a12.66,12.66,0,0,0,1.85,2.16c2.22,2.16,5.08,2.55,8,2.72,3.11.19,6.23.23,9.34.41a15.25,15.25,0,0,1,8.75,2.84,48.22,48.22,0,0,1,10.42,10.49c1.4,2,2.94,4,4.53,5.88a4.39,4.39,0,0,0,4.95,1.46C479.34,383.53,481.2,381.24,481.17,379ZM477.38,294c-1.6.08-3.2.08-4.79.25a5,5,0,0,0-4,3,3.61,3.61,0,0,0,1.1,4.34,15.58,15.58,0,0,0,2.54,2.14c3.57,2.12,7.19,4.16,10.81,6.2a71.19,71.19,0,0,0,12.37,5.72,20.38,20.38,0,0,1,6.09,3.27c4.09,3.2,7.91,6.72,10.62,11.27a6.87,6.87,0,0,0,2.41,2.19c1.51.88,3.18,1.48,4.75,2.27Q529.62,340,540,345.23a17.78,17.78,0,0,0,2.17,1,4.49,4.49,0,0,0,4.53-.62c1.4-1.12,1.36-2.67.93-4.18A19.75,19.75,0,0,0,546,337.2c-1.59-2.85-3.33-5.63-5.06-8.41a16.72,16.72,0,0,0-1.91-2.46c-3.15-3.39-6.42-6.68-9.51-10.13-5.51-6.13-12.58-10-19.69-13.84a81,81,0,0,0-15.66-5.89A60.62,60.62,0,0,0,477.38,294Zm-139.53,64.5c.29,1.5.6,2.89.81,4.3a3.42,3.42,0,0,1-2,3.93,16,16,0,0,0-2.21,1.43,3.53,3.53,0,0,0-1.25,3.87c1.45,5.87,3.12,7.23,9.19,7.23a10.58,10.58,0,0,1,4.83,1.16,60,60,0,0,0,7.12,3.32c3.2,1.12,7.53-2.94,7.23-5.8s-1.27-5.29-4.22-6.43c-1-.37-1.9-.83-2.86-1.23-2.94-1.22-3-1.37-3.07-4.62,0-3.44.16-3.74,3.43-4.95,1.84-.68,2.8-2.06,2.47-3.87-.46-2.51-1-5-1.63-7.49a5.12,5.12,0,0,0-5-4c-1.41-.09-2.83-.26-4.27-.39a33.45,33.45,0,0,1-1.2-8.92c-.05-2.7.19-3.07,2.79-4a3.81,3.81,0,0,0,2.82-3.49c.12-1.35.07-2.71.09-4.06,0-2.28-.85-3.38-3-3.93-1.37-.35-2.73-.76-4-1.13a6.35,6.35,0,0,1-.26-1.14c-.14-2.23-.48-4.49,1.89-6a2.51,2.51,0,0,0,1-1.84c0-3.57-.87-6-4.66-6.23a67,67,0,0,0-6.94.05,3.51,3.51,0,0,0-3.43,2.84c-.19.69-.4,1.38-.53,2.09-.44,2.42.24,4.52,2.1,5.38,1.69.79,1.81,2.19,2.22,3.67.51,1.87-.37,2.79-1.75,3.73-4.29,2.9-5.35,7.12-4.65,12a3.11,3.11,0,0,0,1.78,2.68c2.15.82,2.72,2.53,2.86,4.54a25.88,25.88,0,0,1,.15,3.83,2.48,2.48,0,0,1-.86,1.79c-3.05,1.83-4.08,4.35-3,7.75a5.84,5.84,0,0,1,.06.95c.26,2.25,1.49,3.45,3.8,3.45A36.28,36.28,0,0,0,337.85,358.54ZM31.24,446.9c-.66.19-1.21.32-1.72.51-2.77,1-3.62,3.49-2.07,6,1,1.6,2.33,2.08,4.35,1.6s4.17-1.08,6.3-1.38c2.51-.36,4.89.42,7.22,1.34a30.94,30.94,0,0,0,4.54,1.5,3.16,3.16,0,0,0,4-2.2,8.05,8.05,0,0,0,.2-2.36c0-2.95-.44-5.94-.11-8.86a68.16,68.16,0,0,1,5.18-19.14c2.29-5.4,4.87-10.64,10-14a2.92,2.92,0,0,0,1.23-3A3.81,3.81,0,0,0,67.87,404c-3.24-1.53-6-3.6-7.34-7.16-.86-2.26-2.42-2.91-4.84-2.17a3.68,3.68,0,0,1-2.73,0,3.74,3.74,0,0,0-4.34,1.18,4,4,0,0,0-.8,4.45c.2.5.45,1,.66,1.43l-3.72,5.37c-3-1-4.4-.86-5.48.63s-.79,3,1.78,5.92c-.79,1.64-1.62,3.33-2.45,5.05-.7-.07-1.25-.15-1.8-.16-2.94-.05-4.55,2.37-3.29,5,.37.78,1,1.46,1.36,2.24a3,3,0,0,1,.46,1.69c-.44,2-1,4-1.42,5.44a31.67,31.67,0,0,0-4.36,2.79c-1.79,1.61-1.63,3.83.16,5.43.64.58,1.34,1.11,2.07,1.71Zm414.84,12.21c-.22-1.27-.48-3.57-1-5.79a4.76,4.76,0,0,0-3.75-3.65c-.78-.17-1.57-.32-2.35-.5a63.77,63.77,0,0,1-23.51-10.94c-2.23-1.65-4-3.88-6.07-5.75a12.45,12.45,0,0,1-3.07-3.91,3.53,3.53,0,0,0-5.8-1,85.74,85.74,0,0,0-5.83,6.66c-1.66,2.11-1.35,6,.47,8,1.37,1.46,2.83,2.84,4.29,4.2a8,8,0,0,1,2.36,3.81c.39,1.38,1,2.7,1.35,4.09a6.33,6.33,0,0,0,3.1,4.07c.88.55,1.83,1,2.73,1.49,3.37,1.9,6.49,4.12,8.55,7.47a9.74,9.74,0,0,0,5.44,4.38,19.74,19.74,0,0,1,10,6.77c2.94,4,5.4,3.88,8-.31C444.38,472.66,445.68,466.56,446.08,459.11Zm-240.37,1.47c-.68,1.46-1.33,2.83-2,4.21s-.67,3.07.64,4.19a30.33,30.33,0,0,0,9.2,6,3.29,3.29,0,0,0,4.34-1.9c.26-.55.45-1.12.62-1.54,2.06.81,4,1.5,5.88,2.33a2.76,2.76,0,0,1,1.13,1.35c.47,1,.71,2.13,1.18,3.14,1.85,4,5.36,5.66,9.65,4.7,2.48-.56,4.52-1.93,6.65-3.21a7.5,7.5,0,0,0,3.45-4.66,3.55,3.55,0,0,0-.94-3.94c-1.48-1.33-3-2.61-4.7-4.09.09-.54.17-1.33.34-2.09a3.48,3.48,0,0,0-1.32-3.61c-1.44-1.26-2.88-2.52-4.25-3.85-2-2-4.15-1.8-5.85.49-.94,1.27-1.95,2.48-2.94,3.73-2.8-1.25-5.63-2-7.3-4.83.89-.62,1.65-1.19,2.44-1.71,2.54-1.65,3-3.78.8-5.94a50.14,50.14,0,0,0-5.91-4.85c-2.08-1.53-3.13-1.47-5.21,0-1.16.8-2.26,1.69-3.56,2.68-.67-.77-1.27-1.41-1.82-2.09-.35-.42-.63-.9-1-1.46,1.08-1.53,2.1-3,3.18-4.52a3.51,3.51,0,0,0,0-4.79,33,33,0,0,1-2-3c-.83-1.47-2-2.35-3.68-2.11s-2.55,1.43-3,3c-.68,2.22-1.46,4.4-2.16,6.61a2.77,2.77,0,0,1-2.29,2.08c-2.73.59-5.41,1.4-8.09,2.17-2.16.63-3.34,2.36-2.67,4.37,1.17,3.52,2.9,6.76,6,9.05a4,4,0,0,0,4.7.37c1.16-.67,2.29-1.41,3.46-2.13Zm380.08-63.95c-.1-.5-.19-.81-.22-1.13a3.36,3.36,0,0,0-2.53-3.14c-1.68-.46-2.94.31-4,1.57-.51.62-1.06,1.19-1.57,1.8-1.66,2-1.13,5,1.31,5.73,2.67.77,3.2,2.64,3.4,4.85a35.18,35.18,0,0,1,0,5,15.18,15.18,0,0,1-.61,3.53c-.9,2.93-2.4,3.49-5,2a4.47,4.47,0,0,1-1-.67c-1.88-1.89-3.7-3.92-4.13-6.61a107.93,107.93,0,0,1-1.18-10.91,7.83,7.83,0,0,0-1.65-4.64,26.34,26.34,0,0,0-3.34-3.42,4.59,4.59,0,0,1-1.67-3.29,12.83,12.83,0,0,0-.83-3.95,51.22,51.22,0,0,0-2.88-5.23,3.2,3.2,0,0,0-2.78-1.62,5.59,5.59,0,0,0-4.65,3.23c-1.43,4.17-1,8,2.06,11.39,2.22,2.47,2.27,3.47.51,6.38a26.12,26.12,0,0,0-1.66,2.9c-1.38,3.15-.57,5.63,2.35,7.36l1.48.84a43.11,43.11,0,0,0-.33,4.59c.07,2.38,1,4.34,3.37,5.3.58.23,1.15.5,1.77.77a4.64,4.64,0,0,1,0,1.72c-1,2-.37,3.9.29,5.81.87,2.5,1.77,3.14,4.41,3.09,2.22,0,3.56,1,3.89,3.16a3.3,3.3,0,0,0,2.27,2.82,6.27,6.27,0,0,0,6.34-.84,10.54,10.54,0,0,1,1.23-.72c.55.62,1,1.19,1.5,1.67a3.37,3.37,0,0,0,5.36-.59,16,16,0,0,1,2.82-3.49,32.57,32.57,0,0,0,3-3.7,6.35,6.35,0,0,0,.36-7.43,6.36,6.36,0,0,1-.45-6.74c1.58-3.52.72-6.74-1.78-9.51A4.7,4.7,0,0,1,590,401.1c0-2.32-.94-3.48-3.18-4.16Zm-344.53-67a17.87,17.87,0,0,0-2.29-.76c-4.47-.85-8.5-.11-11.44,3.64-2.81,3.56-3.91,9.47,2.08,12.25a9.51,9.51,0,0,1,3.77,3.85,24.21,24.21,0,0,1,3.36,9.41c.51,4.5,2,8.55,6,11.27a7.57,7.57,0,0,1,.86.84,5.69,5.69,0,0,1,1.7,4.33c0,.64-.11,1.27-.13,1.91-.11,3.22,3,6.46,6.2,6.3a5.24,5.24,0,0,1,3.34.64,3.19,3.19,0,0,0,4.23-1.09,3.33,3.33,0,0,0-.67-4.52c-.46-.4-1-.72-1.5-1.11l1.38-3.09c3.9.58,5.51,0,5.93-2.27.47-2.43-1.16-4.25-4.8-5.24,0-.34-.09-.72-.09-1.11a7.87,7.87,0,0,1,.09-.89c.21-.12.34-.21.48-.28,2.28-1,3.06-2.16,2.83-4.13a4.39,4.39,0,0,0-3.86-3.95c-.38-.07-.74-.17-1.17-.27-.18-.85-.34-1.62-.49-2.32,2.43-1.83,3.1-3.08,2.48-4.77-.92-2.49-3-2.38-5.19-2.17l-1.08-2.45c.17-.3.28-.51.41-.71,2.12-3.22,1.07-5.54-2.69-6a2.74,2.74,0,0,1-1.43-.63c-.88-.79-1.65-1.69-2.46-2.54.85-1.9.87-3.61-.83-4.85S242.77,328.29,241.26,329.66Zm-168,54.06a12.82,12.82,0,0,0-1.34-1.5,3.36,3.36,0,0,0-4.39.18,37.08,37.08,0,0,0-2.86,6.92,6.85,6.85,0,0,0,2,4.24q2.06,2.51,4.25,4.88c2.58,2.8,5.44,4.71,9.61,4.35a26,26,0,0,1,12.88,2.09c4.29,1.9,8,4.35,9.05,9.43.55,2.57,1.56,3.09,4.58,3.19a7,7,0,0,1,7,6.46c.09.8.15,1.6.27,2.39a2.47,2.47,0,0,0,2.48,2.41,3.3,3.3,0,0,0,3.71-2.66,23.24,23.24,0,0,0-.26-12.08,43.65,43.65,0,0,0-7.08-14.31,25.51,25.51,0,0,0-4.76-5,47,47,0,0,0-11.28-7.05c.42-3.16-.15-4.61-2.14-5.19a2.85,2.85,0,0,0-2.06,0,28.08,28.08,0,0,0-3.18,2.84l-3.66-.87c-.39-3.24-1.31-4.54-3.26-4.73s-3.06.86-4.11,4Zm91.66,9.64-1.28.68c-2,1.1-2.75,2.74-2,4.49s2.58,2.48,4.83,1.69l2.17-.78c.59,1.28,1.09,2.37,1.58,3.45a3.9,3.9,0,0,1,.12.46c-2.5,2.49-2.6,3-1.2,6.28.12.29.25.59.38.88,1.56,3.37,2.71,3.88,6.2,2.74.13,0,.3.06.76.17l2.71,6.55c-3.46,1.58-4,2.67-3.22,6.12.44,1.86,1.12,3.66,1.63,5.5.63,2.27,2.37,3.41,4.39,4.06,4,1.28,8.59-.83,10-4.45,1.9-4.81.5-8.94-3.85-11.09a1.52,1.52,0,0,1-1-1.78c3.33-2.09,4.23-3.69,3.13-5.64a4,4,0,0,0-1.7-1.58c-1.71-.8-3.22.13-4.76,1.14l-1.36-2.33c.46-.68.79-1.24,1.19-1.73,2.49-3,2.51-3.7.23-6.81a8.57,8.57,0,0,1-.52-.81,3.57,3.57,0,0,0-3.64-1.83c-1.18.1-2.35.31-3.77.5-.45-1.33-.9-2.64-1.45-4.28,1.24-.37,2.19-.68,3.16-.92,2-.5,3.39-2.12,3.1-4a13.78,13.78,0,0,0-1.15-3.88,4.33,4.33,0,0,0-1.89-1.69,6.61,6.61,0,0,0-2.31-.53c-1.88-.22-3.77-.38-5.79-.57v-5c.65-.09,1.19-.19,1.73-.24,2.49-.24,3.71-1.34,3.7-3.78a13.68,13.68,0,0,0-.72-4.44c-1.08-3.14-2.78-4.06-6.11-3.51-1.33.21-2.62.63-3.94.93-1.84.41-2.79-.12-3.29-1.76-.67-2.21-1.83-3.13-3.71-2.94s-3,1.48-3.05,3.67a26.55,26.55,0,0,0,.4,4.52c.42,2.73,1.69,4,4.46,4.56.39.08.75.23,1.31.41l1.15,6.07a18.18,18.18,0,0,0-2.47-.32,3.12,3.12,0,0,0-2.89,1.82c-1.09,2.16.49,5.82,2.82,6.42,1.69.45,3.42.74,5.3,1.14Zm54.57-26.93c-.23.37-.36.66-.55.9-1,1.24-1.32,2.52-.39,3.95a3.73,3.73,0,0,0,3.71,1.7,5.64,5.64,0,0,0,5.12-4.31,9,9,0,0,0-4.45-10.2,15.49,15.49,0,0,0-17.7,3.12,14.62,14.62,0,0,0-4.09,10.21c-.24,9.25,7,17.68,14.09,20.52a36.55,36.55,0,0,0,14.53,2.59,19.66,19.66,0,0,0,8.62-1.74,10.45,10.45,0,0,0,3.52-2.7c1.46-1.87,1.29-4,.09-6.07s-2.73-4.1-2.42-6.81a4.37,4.37,0,0,0-.77-2.23,3.16,3.16,0,0,0-4.67-1.37,11.43,11.43,0,0,0-2.76,2.87c-2,2.72-5.17,5.6-9.84,3.83-.15-.05-.31-.05-.47-.09a11.66,11.66,0,0,1-7.52-5.86,7,7,0,0,1,.27-7.5C215.16,365,217.49,364.58,219.45,366.43Zm172.79,58.85a11,11,0,0,0,2.87-1.43,23.5,23.5,0,0,0,3-3.7c1.16-1.63.9-2.89-.24-4.59a130.38,130.38,0,0,1-7.42-11.71c-2.57-4.85-4.74-9.94-6.87-15a98.8,98.8,0,0,0-8-16c-2.58-3.94-3.46-8.3-4.15-12.84a124,124,0,0,0-2.87-13.33c-1.25-4.69-4.17-8.4-7.72-11.62a3.36,3.36,0,0,0-4.76,0,3.42,3.42,0,0,0,0,4.76,17.33,17.33,0,0,0,1.33,1.38,19.79,19.79,0,0,1,5,8.31A35.7,35.7,0,0,1,364,361.28a23.19,23.19,0,0,0,3.73,12.45A23.73,23.73,0,0,1,371,383.9a25.94,25.94,0,0,0,.37,3.32c.79,3.26,1.73,6.48,2.51,9.73a15.43,15.43,0,0,0,5.59,8.41,14.84,14.84,0,0,1,5.64,9.69c.17,1.35.31,2.7.56,4C386.23,422.3,388.63,425.13,392.24,425.28Zm27.83-190.15c.08-3.41-.38-6.42-2.06-9.06-5.16-8.11-11.92-14.35-21.18-17.5-2.19-.74-4.46-1.54-6.8-1.15a69.62,69.62,0,0,0-8.15,1.87c-3.29,1-4.28,4.59-2.18,7.29a7.67,7.67,0,0,0,4.69,2.66,32.67,32.67,0,0,1,15.05,8c4.74,4.32,8.64,9.4,10.3,15.87.77,3,2.19,3.78,5.3,3.65a3.17,3.17,0,0,0,3.12-2.19A26.62,26.62,0,0,0,420.07,235.13ZM97.56,444.41A24.1,24.1,0,0,0,109.63,442c3.35-1.6,3.71-3.17,2-6.48a20.8,20.8,0,0,1-1.68-4.93,18.69,18.69,0,0,1,0-3.35c-.1-2.06-1-3.12-2.71-3.39a3.66,3.66,0,0,0-4.18,2.43,13.92,13.92,0,0,0-.43,2.35c-.65,4.06-2.71,5.68-6.78,5.31a7.39,7.39,0,0,1-6.31-8.41c.4-1.9.44-1.92,2.54-2s3.19-1,3.53-2.59a3.38,3.38,0,0,0-2-3.91c-3.33-1.78-7-.92-10.15,1.86a12.66,12.66,0,0,0-4.15,9.65c-.12,6.13,3.33,10.34,8.19,13.47C90.61,444,94.34,444.32,97.56,444.41Zm231.58-50.9c.42.13.71.23,1,.31,3.19.87,5.54-1,5.49-4.32a5.52,5.52,0,0,0-1.44-3.7,67.26,67.26,0,0,1-10.77-17.73,2.43,2.43,0,0,0-2.36-1.73,7.86,7.86,0,0,0-3.18.65,49.35,49.35,0,0,0-5.46,3.47c-1.09.77-2.22,1.56-2.54,3.06-.1.44-.63.86-1.06,1.13-.74.46-1.6.73-2.34,1.19a3.08,3.08,0,0,0-1.75,2.69c.11,1.78.56,3.53,2.16,4.59s3.24.42,4.73-.45a10.45,10.45,0,0,0,1.47-1.22l1.94-1.68c1,.73,1.87,1.29,2.64,2a30.37,30.37,0,0,1,2.09,2.26c-.71,1.11-1.28,2.07-1.92,3-2.28,3.28-1.85,6.62,1.26,9A19.88,19.88,0,0,0,322,397.8a3.49,3.49,0,0,0,4.9-.94A38.77,38.77,0,0,0,329.14,393.51Zm56.63-141.68c2.06-.56,4.17-1,6.18-1.72a8.38,8.38,0,0,0,5.32-10,11.82,11.82,0,0,0-5-7,43,43,0,0,0-9.62-4.2c-5.41-1.89-10-.74-13.78,3.7a8.5,8.5,0,0,0,0,11.34,23.26,23.26,0,0,0,8.57,5.54A26,26,0,0,0,385.77,251.83ZM162.34,417c-.56,0-1.12.07-1.68.08a5.51,5.51,0,0,1-5.59-6.24c.11-.87.39-1.72.46-2.59a3.33,3.33,0,0,0-2-3.51,3.47,3.47,0,0,0-4.08,1.12c-3,3.73-3.8,7.89-1.92,12.31a14.38,14.38,0,0,0,3.28,4.67,15.71,15.71,0,0,0,15.72,4c2.39-.65,3.31-2.39,2.88-4.78C168.77,418.36,166.5,416.74,162.34,417Z" transform="translate(-0.48 -0.48)"/><path class="cls-1" d="M41.37,247.91a68.91,68.91,0,0,1,3.7-21.62,81.76,81.76,0,0,1,8.42-19c3.44-5.47,6.59-11.18,11.18-15.82a50.51,50.51,0,0,1,6.58-5.54,5.94,5.94,0,0,1,3.62-.8c6.08.43,11.07,3.39,15.6,7.21a31.59,31.59,0,0,1,3.19,3.25c2.92,3.32,3.93,7.22,2.51,11.38-2,5.73-.88,11.05,1.6,16.24,1.71,3.58,4.77,5.94,8.07,8a24,24,0,0,0,10.31,3.62c3.73.38,7.47.71,11.18,1.29,4.53.72,5.94,2.17,6.42,6.68.4,3.79-.68,7.12-4,9.39a5,5,0,0,1-4.13.73c-1.77-.45-3.53-1-5.27-1.54-3.31-1.07-6.45-.11-7.58,2.64-1.37,3.32-1.48,6.65.57,9.86a84.83,84.83,0,0,1,4.49,7.64,25.18,25.18,0,0,1,2.09,17,12.81,12.81,0,0,1-4.14,7.37c-1.4,1.2-2.85,2.33-4.28,3.48-5.57,4.49-15.66,4-20.92-2.59-3.21-4-7.28-5.14-12.16-4.16a27.93,27.93,0,0,0-9.73,3.87c-2.66,1.7-5.57,2.78-8.86,2.2a5.32,5.32,0,0,1-4-2.79c-2.31-4.47-4.67-8.93-6.66-13.55A93.57,93.57,0,0,1,41.37,247.91Z" transform="translate(-0.48 -0.48)"/><path class="cls-1" d="M178.36,233.26c-5.69.24-10.28-2.59-13.55-7.82a56.1,56.1,0,0,0-4.6-7c-2.79-3.23-6.22-3.84-9.26-2.35a36,36,0,0,0-6.76,4c-5.07,4.06-10.61,6.85-17.17,7.15-5,.24-10.08,0-14.87-1.91-3.27-1.31-6-3.2-7.43-6.69a12.75,12.75,0,0,1-.25-7.77c.63-2.88,1.42-5.73,2.17-8.59a15,15,0,0,0-6.37-16,36.46,36.46,0,0,0-11.59-5,44.57,44.57,0,0,0-4.47-.66c-3.58-.49-4.26-3.74-3.13-6.4a37.46,37.46,0,0,1,3.79-6.92,61.69,61.69,0,0,1,27.66-21.86c2.36-1,4.68-2,7-3.14a37.4,37.4,0,0,1,13.57-3.68,15.31,15.31,0,0,1,2.87.09,3.34,3.34,0,0,1,3.23,3.26,30.28,30.28,0,0,0,7.58,17c4.44,5,10.36,6.5,16.72,4.15a7.61,7.61,0,0,1,5.76.07,18.53,18.53,0,0,1,7.72,5.91c2.2,2.7,2.2,5.89.29,8.91-1.24,2-2.52,3.89-3.72,5.87-3,4.93-2.25,9.74,1,14.12,2.82,3.79,6.16,7.17,10.64,9.09a19.45,19.45,0,0,0,3.86,1.22c4.6.88,6.39,2.46,6.19,8a18.05,18.05,0,0,1-4.16,11.27C187.84,231.49,184,233.34,178.36,233.26Z" transform="translate(-0.48 -0.48)"/><path class="cls-1" d="M279.86,175.13c-.34,3.92-1.05,7.64-4.42,10.23a4.21,4.21,0,0,1-.74.61c-4.8,2.34-8.5,6.2-12.82,9.2s-9.23,2.57-12.76-1.23a21.1,21.1,0,0,1-3.9-6.56q-1.31-3.21-2.67-6.41a5.32,5.32,0,0,0-5.32-3.37A33.15,33.15,0,0,0,222.89,181a8.5,8.5,0,0,0-4.4,5.16,32.38,32.38,0,0,1-1.72,4.46c-3.08,6-7.64,10-14.64,10.56-5.73.51-11.18-.2-15.91-3.75a13.19,13.19,0,0,1-5.41-8.21,5.84,5.84,0,0,1,1.38-4.68,25.43,25.43,0,0,1,2.44-2.64,7,7,0,0,0,2.21-5.85,24.88,24.88,0,0,0-12.1-20.4c-2-1.23-4-.7-6.07-.36-1.81.29-3.6.68-5.39,1.1a8.76,8.76,0,0,1-7.08-1.49,19.27,19.27,0,0,1-8-11.53,16.63,16.63,0,0,1,0-5.93c.35-2.72,2.77-3.67,4.89-4.4a33.13,33.13,0,0,1,7.27-1.46,121.25,121.25,0,0,1,31.32,1c3.55.54,7.16.67,10.71,1.21,3.31.5,6.61,1.19,9.87,2,6.59,1.6,13.22,3.12,19.73,5.05a126.52,126.52,0,0,1,23.59,9.32,84.38,84.38,0,0,1,19.34,13.61A17,17,0,0,1,279.86,175.13Z" transform="translate(-0.48 -0.48)"/><path class="cls-1" d="M307.27,496.66c-9.81.63-19.43-.88-29.09-2.36-7.34-1.13-14.17-3.8-21.19-5.91a9.79,9.79,0,0,1-1.76-.77c-3.41-1.78-4.23-3.9-3-7.5.6-1.73,1.19-3.47,1.75-5.21a3.8,3.8,0,0,1,4-3.08c4-.13,8-.19,12-.42q17.65-1,26.52-16.36a39.67,39.67,0,0,0,4.15-10.45c.27-1.07.25-2.2.45-3.29a22.25,22.25,0,0,1,1-4.65,5.69,5.69,0,0,1,4.24-3.51,77.83,77.83,0,0,0,21.89-8.94c2.73-1.58,5.06-3.87,7.55-5.87.56-.44,1-1,1.55-1.5,2.43-2.11,5.16-1.47,6.24,1.58.88,2.48,1.65,5,2.28,7.57a69.61,69.61,0,0,0,6.49,15.92,91.85,91.85,0,0,1,4.24,8.84c1.72,4.21,3,8.6,4.82,12.78a31.2,31.2,0,0,0,3.94,6.24c1.73,2.3,3.88,4.28,5.5,6.64a19.69,19.69,0,0,1,2.47,5.65,3.35,3.35,0,0,1-2.09,4.12c-3.07,1.35-6.15,2.71-9.33,3.77a120.51,120.51,0,0,1-12,3.36,86.45,86.45,0,0,1-10.41,1.52c-6.91.69-13.84,1.34-20.77,1.78C315,496.86,311.11,496.66,307.27,496.66Z" transform="translate(-0.48 -0.48)"/><path class="cls-1" d="M540.29,460.58a7.34,7.34,0,0,0-.82.61c-2.72,2.82-4.74,3.38-8.28,1.87a15,15,0,0,1-6.24-4.72c-1.2-1.6-1.49-3.16-.47-4.87.73-1.23,1.51-2.44,2.34-3.6,1.08-1.52,1-2.07-.55-3.05-1.29-.81-2.62-1.54-3.91-2.34a3.24,3.24,0,0,0-3.19-.18c-1.54.66-3.14,1.19-4.73,1.72a4.79,4.79,0,0,1-1.86.31c-2.58-.19-6.6-4.15-6.75-6.73a7.37,7.37,0,0,1,.55-2.75c.45-1.28,1.17-2.46,1.54-3.75a5.27,5.27,0,0,0,.08-2.81,28.84,28.84,0,0,0-5.08-10.22c-2.13-2.58-4-5.37-6-8.06-1.82-2.43-3.87-4.7-5.44-7.28-2.67-4.35-3.94-9.06-2.33-14.19.52-1.67.82-3.42,1.4-5.07,2.71-7.76,11.22-12.7,19.13-12a35.94,35.94,0,0,1,12.46,3.24c3.8,1.84,7.69,3.51,11.46,5.43,2.56,1.3,5,2.86,7.43,4.37,1.86,1.15,2.52,2.79,2.41,5.07a59.75,59.75,0,0,0,3.74,25.17,55.1,55.1,0,0,0,7.64,14,43.64,43.64,0,0,0,5.4,5.39,48.67,48.67,0,0,0,16.32,9.31c6.08,2.15,10.91.62,15.4-3.45,1.48-1.34,3-2.68,4.54-3.9s2.94-1.25,4.2-.38a3.29,3.29,0,0,1,1.3,4c-.54,1.66-1.3,3.25-1.88,4.91-1.34,3.84-2.67,7.69-3.91,11.57-1,3.15-3,4.44-6.24,4.11A77.27,77.27,0,0,1,577.51,460a8.39,8.39,0,0,0-9.9,3.91c-.64,1-1.17,2.09-1.71,3.16-1.14,2.2-2.15,4.47-3.41,6.6a33.6,33.6,0,0,1-3.72,5.27c-2.15,2.42-4.58,3.14-8.14.85a22.67,22.67,0,0,1-4.36-4.39,3.51,3.51,0,0,1-.49-3.63c.51-1.51,1-3,1.47-4.56a2.09,2.09,0,0,0-1.1-2.78C544.16,463.26,542.28,461.9,540.29,460.58Z" transform="translate(-0.48 -0.48)"/><path class="cls-1" d="M276.45,263.66A15.26,15.26,0,0,1,270,275.38c-2.85,2.06-5.83,4-8.48,6.26A8.24,8.24,0,0,0,259,291a71.46,71.46,0,0,1,2.3,8.3,14,14,0,0,1-2.93,11.27,8.54,8.54,0,0,1-10.89,1.9c-3.16-1.84-6.08-4.11-9.12-6.16-4.52-3-9.14-5.9-14.37-7.58a17.14,17.14,0,0,0-2.55-.59c-2.74-.42-3.88-2.08-3.2-4.73a22.17,22.17,0,0,0-2.5-17.3,15.75,15.75,0,0,0-11.26-7.76c-2.2-.42-4.42-.7-6.64-.95a9.53,9.53,0,0,1-7.49-4.9c-2.78-4.7-2.83-9.77-1.95-14.89a27.27,27.27,0,0,1,5.52-12.36,12.16,12.16,0,0,1,3-3.09c3.5-2.06,4.51-5.41,5.22-9a12.13,12.13,0,0,1,.72-2.77,8.12,8.12,0,0,1,1.76-2.52,3.75,3.75,0,0,1,5.8.78,6.17,6.17,0,0,1,.92,1.94c1.16,5,4.3,8.68,8,12,5.41,4.83,11.56,7.85,19,7.89,4.32,0,8.13-1.42,11.9-3.2a23.87,23.87,0,0,1,4-1.59c4.58-1.22,9.21,1.25,10.18,5.86.93,4.42,3.84,7.43,6.47,10.7a26.51,26.51,0,0,0,2.42,2.65C275.79,257.15,276.29,260.17,276.45,263.66Z" transform="translate(-0.48 -0.48)"/><path class="cls-1" d="M650.92,442.38c1.12,1.93,2,3.64,3.07,5.21a2.92,2.92,0,0,0,1.91,1.17A5.34,5.34,0,0,1,660,451a76.11,76.11,0,0,1,5.22,7.71c.95,1.59.28,3.32-1.37,4.32-.74.46-1.68.6-2.38,1.09a2.17,2.17,0,0,0-.77,1.53c0,.38.58.8,1,1.15a1.16,1.16,0,0,0,.69.14c2.62,0,3.64,1.86,4.19,3.92a24.26,24.26,0,0,1,.63,5.46c.06,2.55-1.74,4.08-4.23,3.46-3.42-.86-5.75.22-7.18,3.57.44,1.19,1,2.52,1.43,3.87,1.21,3.42.57,5.87-2.62,7.53a51.16,51.16,0,0,1-9.53,3.79c-3.59,1-5.81-.53-6.74-4.2-.41-1.6-.62-3.25-1-5.1l-14,1.56c0,1.34,0,2.59,0,3.85-.06,3-1.14,4.27-4.12,4.5a37.21,37.21,0,0,1-12.39-.89,5.06,5.06,0,0,1-3.86-5.1c0-1.19.17-2.37.27-3.8l-9.37-1.53c-.21,1.13-.39,2.14-.58,3.14-.4,2.22-1.42,3.21-3.7,3.34a11.2,11.2,0,0,1-3.32-.27c-2.86-.73-5.7-1.56-8.51-2.44a9.58,9.58,0,0,1-2.52-1.35c-1.85-1.33-2.2-3-1.25-5,.56-1.21,1-2.45,1.63-3.91-1.19-.5-2.11-.92-3.05-1.29-2.27-.91-3-2.84-1.92-5q1.33-2.55,2.86-5c1.68-2.68,3.78-3.46,6.73-2.35a30.5,30.5,0,0,0,17.69.88,5.35,5.35,0,0,0,3.91-2.85,28.22,28.22,0,0,0,1.5-3.26,93.16,93.16,0,0,0,5.33-22.08c.3-2.69.55-5.39.85-8.08.27-2.4,1.67-3.59,4.06-3.31,5.79.68,11.59,1.33,17.35,2.21,1.51.22,2.91,1.21,4.35,1.85,1.89.83,3.74,1.78,5.68,2.48a3.28,3.28,0,0,0,3.86-1.15c1.27-1.54,2.89-2.3,4.89-1.49a5.37,5.37,0,0,1,3.65,4.62C653.6,439.56,653.14,441.25,650.92,442.38Z" transform="translate(-0.48 -0.48)"/><path class="cls-1" d="M217.33,206.55c.22-6.52,4.08-12.78,11.37-16.57a9.59,9.59,0,0,1,13.69,5.5,21.66,21.66,0,0,1,.89,3.72c.65,4.72,3.27,7.19,8,7.78a11.92,11.92,0,0,0,9.29-2.79c3.56-2.76,7.2-5.58,11.71-6.86a37.27,37.27,0,0,0,5.11-2,14,14,0,0,0,8.09-9.53,71.32,71.32,0,0,0,1.56-8.22c.42-3,2.08-4.16,5-3.36,9.42,2.62,17.43,7.82,25,13.7,2.29,1.77,2.22,4.32,0,6.08-4.83,3.86-6.71,9-6.23,15,.33,4.05,1.16,8.06,1.83,12.08.55,3.29.62,6.53-.83,9.63a72.9,72.9,0,0,1-3.95,7.91A21.07,21.07,0,0,1,289.76,249c-7.1.21-13.21-2.23-17.31-8.39-1.76-2.66-3.31-5.47-4.91-8.23-1.21-2.07-2.31-4.2-3.54-6.25a4.17,4.17,0,0,0-5.27-2.11,27.67,27.67,0,0,0-5,2.17,32.07,32.07,0,0,1-9.48,3.9,20.16,20.16,0,0,1-15.13-2.89,45,45,0,0,1-6.59-5.13C218.59,218.39,217.29,213.59,217.33,206.55Z" transform="translate(-0.48 -0.48)"/><path class="cls-1" d="M278.13,374.76c-1.16-.22-2.66-.45-4.12-.81a3.34,3.34,0,0,1-2.71-3.27c-.34-8.92-3.47-17.16-6.11-25.53-1.81-5.75-4.68-11-7-16.51-.34-.8-.71-1.6-1-2.44-.83-2.51-.23-3.73,1.94-5.21,4.75-3.22,8.95-7,11.07-12.54a9.82,9.82,0,0,0-.06-7.25c-.55-1.42-1.21-2.79-1.69-4.23-1.32-4-.8-7.58,2.34-10.57a53.26,53.26,0,0,1,4.63-4.14c2.33-1.75,4.91-1,5.69,1.77,1.94,6.93,6.9,10.8,13,13.85A53.29,53.29,0,0,0,311.2,303c2.76.37,5.52.77,8.26,1.28,3.2.6,4.15,2,3.6,5.27-.21,1.26-.48,2.51-.79,3.75A21.5,21.5,0,0,0,322,323a14.2,14.2,0,0,1,0,3.57c-.11,2.23-.3,4.45-.44,6.68q-.53,8.49-1,17a10.9,10.9,0,0,1-4.18,7.81c-4.4,3.7-8.89,7.32-13.56,10.67A29.36,29.36,0,0,1,288,373.79C284.84,374.07,281.67,374.41,278.13,374.76Z" transform="translate(-0.48 -0.48)"/><path class="cls-1" d="M79.27,302.42c5.4.2,9.23,2,12,5.84.84,1.16,1.68,2.34,2.45,3.54a5.63,5.63,0,0,0,3.63,2.54,14.88,14.88,0,0,0,8.29-.17,70.1,70.1,0,0,0,7-3,9.15,9.15,0,0,0,3.87-4.12,28,28,0,0,1,3.06-4.54c2.92-3.45,5.56-3.84,10-1.67a16,16,0,0,1,5.89,5.18c2.09,3,4.88,3.59,8.22,3,1.88-.32,3-1.67,4.37-2.79a52.48,52.48,0,0,1,4.49-3.54c1.87-1.27,3.71-1,5.55.33a11.68,11.68,0,0,1,3.3,14,20.81,20.81,0,0,1-2.66,4.24c-5.27,6.65-8.46,14.27-10.53,22.39a47.32,47.32,0,0,0-1.47,12.34c0,2.71,0,5.43,0,8.15,0,4-1.47,5.41-5.44,5A36.29,36.29,0,0,1,131,366.62c-6.59-2.84-13.22-5.6-19.82-8.43a40.6,40.6,0,0,1-4.71-2.36c-5-3.07-10.62-5.28-15.15-9.15-4.85-4.14-10.12-7.85-14.14-12.88a85.91,85.91,0,0,1-6.08-8.59c-2.37-3.88-4.5-7.91-6.68-11.9-1.13-2.07-1-3.53.72-4.93A26.35,26.35,0,0,1,79.27,302.42Z" transform="translate(-0.48 -0.48)"/><path class="cls-1" d="M541.19,234.38c-.45-1.06-.79-1.95-1.2-2.81a4.27,4.27,0,0,1,.81-5.28,27.79,27.79,0,0,1,2-2c2-1.7,4-1.44,5.55.64l1.09,1.48a39.4,39.4,0,0,0,7-5.43c-.42-1.13-.83-2.07-1.13-3.05a3.63,3.63,0,0,1,1.12-4.13c.85-.73,1.68-1.49,2.59-2.13,2.52-1.8,5.45-.86,6.14,1.86a16.2,16.2,0,0,0,.73,1.8l6.63-2.36c.08-1.35.1-2.7.26-4,.28-2.25,1.36-3.23,3.6-3.42a17.63,17.63,0,0,1,1.92-.09c2.32,0,3.55,1.11,3.86,3.39.12.85.19,1.71.29,2.64l9,1.05c.27-.75.52-1.41.72-2.08.8-2.65,2.31-3.47,4.87-2.67.84.25,1.69.44,2.55.63a3.27,3.27,0,0,1,2.88,3.76c0,.86-.14,1.73-.22,2.66,1.55.84,3.07,1.55,4.46,2.46a2,2,0,0,0,2.62-.1c1.14-.83,2.37-1.51,3.77-.87,1.73.8,3.64,1.5,4.57,3.3a5.33,5.33,0,0,1,.24,2.74,6.8,6.8,0,0,1-.83,1.85l5.86,5.42,2.28-1.07c2.3-1.08,3.57-.87,5.36,1a13.44,13.44,0,0,1,1.49,1.87c1.71,2.57,1.53,3.85-.73,6-.56.54-1,1.18-1.49,1.71.86,1.57,1.71,2.93,2.38,4.37,1.32,2.87,1,4.75-1.49,6.81a29.35,29.35,0,0,1-9.46,5.54c-2.27.78-4.52,1.62-6.83,2.24a43.14,43.14,0,0,1-23.18-.2c-2.67-.74-4.44-2.18-5.12-5.06a11.54,11.54,0,0,0-5.78-7.6c-2.1-1.19-2.49-1.16-4.1.59-1.35,1.47-2.57,3.07-4,4.45a10.9,10.9,0,0,1-3.32,2.25c-3.3,1.33-6.07.37-8.06-2.59a16,16,0,0,1-.83-1.45c-1.11-2.12-1.74-2.45-4-1.55a24.37,24.37,0,0,0-7.29,4.54,74.83,74.83,0,0,0-8.64,9.93,15.39,15.39,0,0,1-6.12,5.23,13.66,13.66,0,0,1-4.14,1.06c-2.65.21-4-1.17-4-3.84,0-.31,0-.62,0-1l-1.58-.69c-2.13-.94-2.87-2.3-2.45-4.57.11-.63.31-1.24.47-1.86a3.69,3.69,0,0,1,3.46-3.13,2.18,2.18,0,0,0,2.08-1.63c.43-1.11,1-2.15,1.62-3.34-.49-.75-1-1.53-1.53-2.33-1.39-2.18-.23-4,.93-5.74,1-1.49,2.41-1.87,4.47-1s3.81.57,5.22-1.33A33.89,33.89,0,0,1,541.19,234.38Z" transform="translate(-0.48 -0.48)"/><path class="cls-1" d="M180.07,253.18c0,1.68-.13,3.37,0,5,.71,7.73,4.15,11.81,11.64,14,2.45.73,4.91,1.45,7.32,2.28a38.32,38.32,0,0,1,3.93,1.76c4.17,2,6,5.57,6.32,10,.11,1.36,0,2.73.14,4.08.24,2.65-.92,4.78-2.3,6.87a3.7,3.7,0,0,1-3.65,1.81c-2.23-.17-4.47-.23-6.7-.38a36.22,36.22,0,0,0-17.74,3.23,31,31,0,0,0-4.93,2.91c-2.76,1.92-5.21,1.36-6.57-1.7s-2.57-6-3.9-9a17.41,17.41,0,0,0-1.73-3.14c-2.78-3.84-6.72-3.81-9.45,0-.41.59-.8,1.2-1.24,1.77-3.55,4.59-8.82,5.68-13.85,2.82a42.49,42.49,0,0,1-4.61-3,5.24,5.24,0,0,1-2.34-5.32,32.22,32.22,0,0,0-.63-11.44c-.65-2.67-2.38-4.66-4-6.75a16.9,16.9,0,0,1-2.27-3.35c-1.4-3.15.35-5.62,3.78-5.56,1.52,0,3,0,4.56.07,5.55.31,10.64-4.63,10.16-11.12a29.15,29.15,0,0,0-.68-4.25,14.16,14.16,0,0,1,5.76-15.37,38.81,38.81,0,0,1,4.39-2.91c2.62-1.39,4.74-.41,5.5,2.4a9,9,0,0,0,5.73,6.59,73.59,73.59,0,0,0,7.5,2.42c6,1.49,9.81,5.27,9.77,12.09v3.12Z" transform="translate(-0.48 -0.48)"/><path class="cls-1" d="M677,352.8c-.18,1.9-.37,3.86-.58,6,2.36,1.42,2.92,3.7,2.86,6.31a3.64,3.64,0,0,1-2.75,3.74c-.72.24-1.76.51-2,1.06a7.82,7.82,0,0,0-.86,3.88,6.71,6.71,0,0,1-2.78,6.86,4.32,4.32,0,0,0-1,1.29,12.85,12.85,0,0,0-.94,1.94,54.18,54.18,0,0,1-11.36,17.88c-.76.83-1.54,1.63-2.36,2.39a5.05,5.05,0,0,1-6.74.58,15,15,0,0,1-5.08-5.64c-3.2-6-6.52-11.91-9.4-18a39.74,39.74,0,0,0-5.18-8.83c-3.75-4.47-7.72-8.73-12.86-11.71-1.58-.91-3.09-1.95-4.61-3a3.27,3.27,0,0,1-.46-5.18,14.26,14.26,0,0,0,4.44-8.28c1.45-7.05,1.89-14.09-.69-21a4.34,4.34,0,0,1,.46-3.9c1.15-2,3.38-2.63,5.1-1.18,3.78,3.2,8.41,4.56,12.89,6.16,7.13,2.55,14.39,4.77,21.56,7.21,2.87,1,5.65,2.22,8.48,3.28A49.81,49.81,0,0,1,673.81,340c1.4,1,3.24,1.3,4.91,1.84a5,5,0,0,1,3.7,5.43c-.16,3.15-1.53,4.74-4.47,5.25A7.75,7.75,0,0,0,677,352.8Z" transform="translate(-0.48 -0.48)"/><path class="cls-1" d="M165.14,495.51c-4.31,0-8.62,0-12.93,0a3.23,3.23,0,0,0-3,1.42,6,6,0,0,1-9.43-.06c-.53-.7-1-1.21-1.93-1.08-2.29.31-4.58.6-6.87,1a2,2,0,0,0-1.92,2,3.24,3.24,0,0,1-3.27,3.2c-2.69.33-5.16.07-6.43-2.87a2.35,2.35,0,0,0-2.54-1.39c-.88,0-1.76.12-2.63.1a6.88,6.88,0,0,0-6.36,3.5,5.51,5.51,0,0,1-9.08.73c-.38-.41-.85-.73-1.24-1.12a3.47,3.47,0,0,1-.31-4.94q1.84-2.21,3.77-4.34a19.77,19.77,0,0,1,8.26-5.55,20.49,20.49,0,0,0,6.8-4,17.76,17.76,0,0,0,3.72-5.18,93.37,93.37,0,0,1,5.86-8.71,3.22,3.22,0,0,1,1.55-1.08c2.87-1,5.77-1.85,8.67-2.73,3.2-1,6.44-1.84,9.63-2.89,5.45-1.79,10.91-3.59,16.29-5.59a60.4,60.4,0,0,0,7.1-3.46c3.42-1.79,4.92-1.7,7.75.92a18.59,18.59,0,0,1,2.93,3.45,27.75,27.75,0,0,0,5,5.42c2.69,2.33,5.84,3.86,8.85,5.64a8.84,8.84,0,0,1,3.78,3.85,17.51,17.51,0,0,0,9.6,8.93,32.49,32.49,0,0,0,4.85,1.23,3.45,3.45,0,0,1,.66,6.71,10.9,10.9,0,0,1-1.61.43c-2.33.59-4.66,1.14-7,1.76s-4.72,1.56-7.13,2c-4.86.93-9.68,2-14.68,2.11-5.58.15-11.15.65-16.73,1Z" transform="translate(-0.48 -0.48)"/><path class="cls-1" d="M653.65,277.47c1.58,2.59,3,5,4.49,7.36,1,1.57,2.56,1.8,4.23,1.53.86-.14,1.68-.52,2.54-.7a3.73,3.73,0,0,1,4.59,2.08c.88,1.62,1.78,3.22,2.56,4.88,1.28,2.73.33,4.62-2.58,5.45-1.2.34-2.38.79-3.67,1.23.69,2,1.31,3.84,1.89,5.65.35,1.11,1.26,1.14,2.13,1.1s1.73-.31,2.6-.44a3.39,3.39,0,0,1,3.77,1.93c1.91,3.67,1.84,6.42-2.09,8.75-.72.43-1.43.9-2.41,1.53.76.47,1.19.76,1.65,1a29.57,29.57,0,0,1,2.94,1.59,5,5,0,0,1,1.67,6.37,3.36,3.36,0,0,1-4.19,1.9,79.53,79.53,0,0,1-8-2.57c-3.8-1.47-7.52-3.13-11.26-4.74-2.86-1.23-5.7-2.51-8.54-3.77-.22-.09-.43-.22-.66-.29l-25.4-8.62c-1.51-.51-3.06-.94-4.53-1.55a12.73,12.73,0,0,1-5.38-4.56c-3-4-4.95-8.57-7.4-12.86a20.2,20.2,0,0,1-1.23-2.86q-2-5.13-3.94-10.28a14,14,0,0,1-.8-2.75c-.47-2.94,1.43-5.1,4.42-4.64a43.76,43.76,0,0,0,7.4.56A44.52,44.52,0,0,0,625.94,266c2.62-1.15,5.15-2.51,7.67-3.87a13.54,13.54,0,0,0,2.26-1.77c2.61-2.26,5.7-1.84,7.53,1a2.88,2.88,0,0,1,.48.82c.49,2.35,2.23,2.61,4.17,2.55.56,0,1.12,0,1.68-.09,2.6-.2,4.71.51,6,3a28.55,28.55,0,0,0,1.68,2.33,4.18,4.18,0,0,1-1.49,6.33C655.24,276.72,654.52,277,653.65,277.47Z" transform="translate(-0.48 -0.48)"/><path class="cls-1" d="M460.35,339.68c-1.57-.2-3.15-.33-4.71-.61a3.5,3.5,0,0,1-2.93-3.09,25,25,0,0,1-.47-3.32,20.45,20.45,0,0,0-2.36-7.72c-1.72-3.63-4.69-5.74-8.12-7.44-2.57-1.28-5.13-2.59-7.66-3.95a10.2,10.2,0,0,0-9.44-.34,53.25,53.25,0,0,1-5.19,1.83,11,11,0,0,1-7.52-.39,4.92,4.92,0,0,1-2.06-1.87,25,25,0,0,1-3.77-8.75,6.35,6.35,0,0,0-4.27-4.74c-.89-.35-1.78-.7-2.68-1-1.77-.64-2.56-2.15-3.09-3.75-.63-1.93.47-3.78,2.62-4.43a22.56,22.56,0,0,0,10.74-7.29,17.1,17.1,0,0,0,3.41-6.52c.73-2.53,1.25-5.14,2.16-7.6a41.77,41.77,0,0,1,3.25-6.9c2.25-3.79,6.51-4.41,10-2.75a28.88,28.88,0,0,1,11.28,9,17.62,17.62,0,0,0,2.25,2.48c3.93,3.64,6.11,8.31,8,13.17,2.15,5.42,4.22,10.88,6.79,16.1a39.63,39.63,0,0,0,12.79,15c2.33,1.65,4,3.64,4,6.68A4.34,4.34,0,0,1,472,324.9c-.82.75-1.6,1.55-2.4,2.34-2.43,2.39-3.5,5.45-4.2,8.69-.68,3.08-1.13,3.44-4.33,3.56h-.72Z" transform="translate(-0.48 -0.48)"/><path class="cls-1" d="M567.83,380.23c-3,0-4.23-.64-4.75-2.29-.57-1.86.16-3.12,2.74-4.68-.07-1.24-.92-1.78-2-2.05-2-.52-3-2.09-3.91-3.67a3.31,3.31,0,0,1,.44-4,33.12,33.12,0,0,1,4-3.8,3.35,3.35,0,0,1,5.14,1.08c.65,1.08,1.11,2.27,1.74,3.6a15.06,15.06,0,0,0,5.22-4c-.4-.67-.81-1.33-1.2-2a3.46,3.46,0,0,1,1.07-5,13.85,13.85,0,0,1,3.64-1.74,3.23,3.23,0,0,1,4.35,3.3c0,.7,0,1.41,0,2.28h5.41c.07-.64.09-1.34.22-2a3.48,3.48,0,0,1,5.5-2.36c.86.56,1.71,1.17,2.62,1.64,3.22,1.7,3.8,3.21,2.41,6.7a11.09,11.09,0,0,1,.76,1.1c1.41,2.69,3.4,4,6.59,3.24,2.08-.5,3.72.69,5.08,2.12,1.16,1.21,2.21,2.53,3.26,3.84s.88,3,.41,4.56a12.07,12.07,0,0,1-.86,1.81c1.2.77,2.41.47,3.54.41,3.24-.19,3.89.17,5.17,3.05,1.56,3.51,1.43,4.2-1.25,7-.16.17-.28.37-.49.65l1.42,2.34c1.21-.37,2.33-.73,3.47-1,2.56-.71,4-.09,4.93,2.36a53.09,53.09,0,0,1,2,6.89c.65,3,0,4.17-2.6,5.75l-.8.46c.13,2.93.14,2.9,2.83,3.93,2.16.83,4.32,1.66,6.41,2.65a5.71,5.71,0,0,1,3.46,5.33,57,57,0,0,1-.11,6c-.25,3.09-3.85,5-6.38,3.3-3.62-2.48-7.57-3-11.81-3.19a82.41,82.41,0,0,1-14-2,10,10,0,0,1-6.63-5.53,88.67,88.67,0,0,1-5-12.16,116.86,116.86,0,0,0-5.28-13.88c-1.89-4.09-5.67-6.13-10-7.12a11.29,11.29,0,0,0-9.3,2c-2.8,1.94-5,1.25-6.27-1.86C568.59,382.24,568.23,381.27,567.83,380.23Z" transform="translate(-0.48 -0.48)"/><path class="cls-1" d="M257.84,465.5c-.8,0-1.61.06-2.4,0a6.38,6.38,0,0,1-5.73-3.71c-1.89-4.13-5-7.19-8.57-9.84-2.54-1.91-5.35-3.47-8-5.22-4.21-2.75-8.46-5.44-12.58-8.32a9.16,9.16,0,0,1-3.47-5.06,7.83,7.83,0,0,0-2.32-3.54,42.68,42.68,0,0,1-3.29-3.8c-1.76-2.17-3.7-3.87-6.75-4-3.9-.17-5.68-3.22-7.33-6.15a3.43,3.43,0,0,1,.07-2.75c1-2.15.31-3.84-.92-5.55-2.75-3.82-5.53-7.61-8.18-11.5a10.11,10.11,0,0,1-1.61-6.18,10.91,10.91,0,0,0-1.29-5.52c-1.25-2.43-1-4.23.73-5.29s3.72-.69,5.11,1.56c2.32,3.77,5.37,6.91,8.09,10.34a97.57,97.57,0,0,0,8.57,9.6c2.81,2.72,5.45,5.6,8.34,8.23,2.71,2.45,5.2,5.15,8.47,7,2.71,1.51,5.07,3.63,7.77,5.18,3.87,2.21,7.89,4.19,11.88,6.18a46.76,46.76,0,0,0,5.51,2.35c3.92,1.37,7.87,2.64,11.81,3.91,6.91,2.22,14.07,2.83,21.25,3.32,1.76.12,3.5.34,5.24.6,2.23.33,3.45,1.75,3.1,4a20.35,20.35,0,0,1-1.65,6,21.37,21.37,0,0,1-6.05,7.66c-2.41,1.83-4.79,3.73-7.33,5.38C270.69,464,264.4,465.26,257.84,465.5Z" transform="translate(-0.48 -0.48)"/><path class="cls-1" d="M321.91,227.36c-.27-1.64-.47-3.87-1-6-1.45-5.6-1.8-11.15.05-16.75a17.29,17.29,0,0,1,5.65-8.15,3.92,3.92,0,0,1,4-.82c2.63.94,5.27,1.85,7.85,2.91a136.08,136.08,0,0,1,17.81,9.36,4.07,4.07,0,0,1-1,7.31,78,78,0,0,0-8.73,3.25,18.32,18.32,0,0,0-5.64,3.94c-8.24,9-12.22,19.51-10.24,31.87a18.92,18.92,0,0,0,3.29,7.63c1.17,1.72,2.38,3.41,3.42,5.21,2.94,5.09-.47,8.31-4.49,8.9-3.63.53-7.32.62-11,1-4.63.45-9.16,1.14-13.14,3.92A13.7,13.7,0,0,0,303.6,287a5.76,5.76,0,0,1-5.76,3.88,6.36,6.36,0,0,1-4.44-2.08,29.29,29.29,0,0,1-7.53-12.36c-1-3.43-2.13-6.88-1.77-10.57a7.54,7.54,0,0,1,5.3-7c1.21-.42,2.44-.8,3.68-1.11a58,58,0,0,0,16.19-7.06A25.5,25.5,0,0,0,321,233.9C321.45,232,321.56,230,321.91,227.36Z" transform="translate(-0.48 -0.48)"/><path class="cls-1" d="M225.41,314.68c.57-.71,1-1.26,1.47-1.79a3.62,3.62,0,0,1,4.27-1.27c1.46.61,2.14,2,2,4,0,.23-.07.46-.12.78a13.41,13.41,0,0,1,1.52,1.07,3.35,3.35,0,0,1,.86,3.93,3.55,3.55,0,0,1-3.7,2.1,3.75,3.75,0,0,1-1.14-.34c-2.43-1.21-4.52-.41-6.43,1.13a16.41,16.41,0,0,0-4.82,6.19c-.43.95-.8,1.92-1.27,2.85a4.05,4.05,0,0,1-4.07,2.4c-2.23-.08-4.47-.06-6.71-.06a9.49,9.49,0,0,0-5.74,2.09c-6.12,4.54-9.73,10.71-11.73,17.9-.58,2.07-.82,4.23-1.23,6.35a16.82,16.82,0,0,1-.56,2.33,4.23,4.23,0,0,1-3.31,2.82,3.63,3.63,0,0,1-3.92-1.74,11.84,11.84,0,0,0-8.37-5.43,16.68,16.68,0,0,1-3.7-1,7.26,7.26,0,0,1-3.7-3.28,5.7,5.7,0,0,0-5.41-3.25,5.07,5.07,0,0,1-3.47-1.36,6.26,6.26,0,0,1-2.1-4.91,3.31,3.31,0,0,1,4-3.3c.92.14,1.84.3,2.87.47l1.09-3.29c-.92-.94-1.77-1.77-2.57-2.64-1.73-1.9-1.93-3.49-.67-5.12,1.82-2.36,4.09-3.08,6.27-1.95a10.47,10.47,0,0,1,1.18.78c.8-.25,1.1-.72.61-1.42-.36-.53-.84-1-1.24-1.46a3.38,3.38,0,0,1,.09-4.75,3.34,3.34,0,0,1,4.57-.11c.32.23.59.52,1.08.95l2.8-3.11c-.66-.87-1.25-1.61-1.79-2.37a3.65,3.65,0,0,1,.2-5c1.33-1.37,3.2-1.4,5-.05.82.63,1.6,1.32,2.57,2.11l1.85-1.13c-1.08-4-.53-5.54,2.3-6.56s4.25-.2,5.81,3.2c1.15.26,1.87-.05,1.87-1.38a6.12,6.12,0,0,1,0-1,3.23,3.23,0,0,1,2.63-3,3.3,3.3,0,0,1,3.67,1.63,15.43,15.43,0,0,1,.68,1.4h3c1.13-3.06,2.23-4,4.19-3.82s2.75,1.44,3.09,4.72l4.56,1c.31-.87.55-1.62.84-2.35a3.37,3.37,0,0,1,4.22-2.19,3.42,3.42,0,0,1,2.27,4.18c-.1.54-.24,1.07-.42,1.82Z" transform="translate(-0.48 -0.48)"/><path class="cls-1" d="M406.22,490.86l-1.14,2.94a4.45,4.45,0,0,1-6.07,2.57,24,24,0,0,1-9.78-8.95,3.34,3.34,0,0,1,.15-3.84c.87-1.23,1.83-2.4,2.84-3.71l-4.71-6.36c-.91.77-1.55,1.35-2.22,1.88-2,1.6-3.05,1.74-5.18.26a13.07,13.07,0,0,1-3-3,30,30,0,0,1-2.49-4.34,3.35,3.35,0,0,1,1.49-4.51c.5-.27,1.08-.37,1.54-.66,1.4-.89,1.77-2,.94-3.43-1-1.79-2.24-3.48-3.5-5.41-.86.29-1.67.55-2.47.84-2.59,1-4.68.57-6.47-1.53a13.33,13.33,0,0,1-2.19-3.66c-.82-2.1,0-3.77,2.09-4.66a9.25,9.25,0,0,0,1.12-.41c.75-.44,1.21-1,.77-2-.83-1.81-1.59-3.65-2.44-5.62a16.8,16.8,0,0,1-1.52.77,3.36,3.36,0,0,1-4.26-1.15,10.75,10.75,0,0,1-2.43-5.88,3.92,3.92,0,0,1,2.15-4.15,14.62,14.62,0,0,0,2.77-2.21,1.79,1.79,0,0,0,.26-2.21c-.84-1.71-1.6-3.47-2.46-5.37-1.17.39-2.29.74-3.39,1.14a3.49,3.49,0,0,1-4.27-1.2,9.89,9.89,0,0,1-1.06-1.3c-1.89-3.39-1.85-4.82.92-7.08.62-.51,1.14-1.14,1.79-1.59a2.21,2.21,0,0,0,.69-3.16c-1.06-1.89-2-3.8-4.68-4.25-2-.34-4-1.66-5.77-2.8a3.24,3.24,0,0,1-1.08-4.61,3.34,3.34,0,0,1,4.82-1c2,1.25,4,2.39,6.45,2.27a16.06,16.06,0,0,0,4.41-.82c2-.67,3.66-.54,5.05,1a25.28,25.28,0,0,1,3.07,3.94c1.41,2.34.56,4.31-2.08,5.22-.3.11-.6.2-1.1.36a24.33,24.33,0,0,0,2.26,7.49,1.91,1.91,0,0,0,2.21,1.06l.46-.1c4.49-.82,5-.53,6.61,3.65.26.67.48,1.35.7,2,1.1,3.54.17,5.05-3.79,5.71.87,2.28,1.71,4.51,2.68,7.06.83-.24,1.71-.5,2.6-.74,2.14-.59,3.61,0,4.52,2s1.66,4.16,2.36,6.28a3.47,3.47,0,0,1-1.29,4.06c-.43.34-.92.62-1.35.9,0,2.05,1.91,5.15,4.66,7.63l1.69-.67a7.59,7.59,0,0,1,1.13-.4c1.89-.45,3.43.32,4.55,2.26,1.82,3.14,2.08,5.51.53,6.83a6.12,6.12,0,0,1-2.58,1,11.35,11.35,0,0,1-2.38,0c1.56,4.4,4.75,7.11,7.38,10.24,1.23-.81,2.29-1.58,3.44-2.23a3.64,3.64,0,0,1,4.06.26c1.06.7,2.21,1.29,3.33,1.9a4.31,4.31,0,0,1,1.71,6.31c-.08.14-.18.26-.26.4-1.25,2-1.23,2.07.74,3.33l.81.52c3.07,1.92,3.07,1.92,6.08-.29,2.79-2,5.35-1.88,7.75.48,1.77,1.73,3.56,3.44,5.34,5.17,2.26,2.19,2,5.14-.86,6.46a92.92,92.92,0,0,1-9.57,3.8,6.85,6.85,0,0,1-7.09-1.81C410.52,492.31,408.51,491.72,406.22,490.86Z" transform="translate(-0.48 -0.48)"/><path class="cls-1" d="M461.2,443.33c-1.36-.09-2.71-.15-4.06-.29a3.22,3.22,0,0,1-3.12-2.82,53.67,53.67,0,0,1-.82-6.65A101.83,101.83,0,0,0,450,412.52a67.59,67.59,0,0,1-1.18-8c-.55-4.27-.65-8.65-2.84-12.53a22.66,22.66,0,0,0-5.16-6.86,30.21,30.21,0,0,0-2.7-1.94,14.88,14.88,0,0,1-5.55-5.83,5,5,0,0,1,3.61-7.16c2.58-.52,4.89.5,7.23,1.24,5.4,1.73,9.66,5.07,13.39,9.3a42.91,42.91,0,0,1,4.76,6.57,16.1,16.1,0,0,0,5.16,5.26c3.28,2.13,6.52,4.33,9.77,6.51,2.78,1.86,4.68,4.56,6.7,7.14,4.48,5.72,6.6,12.53,8.78,19.31a17.26,17.26,0,0,1,.57,3.3,6,6,0,0,1-3.29,6.36A62.94,62.94,0,0,1,461.2,443.33Z" transform="translate(-0.48 -0.48)"/><path class="cls-1" d="M487.92,328.38a22.11,22.11,0,0,1,16.54,7,43.77,43.77,0,0,0,14.06,9.76c6.81,3,13.61,5.95,20.67,8.31,3.25,1.09,6.45,2.36,9.58,3.74a7,7,0,0,1,3.74,9A17.88,17.88,0,0,1,548,373.4c-1.15,1.11-2.16,2.36-3.3,3.49a3.26,3.26,0,0,1-4.35.66,7.8,7.8,0,0,1-2.17-1.48c-3.09-3.37-7.31-4.77-11.28-6.61-1.52-.7-3.08-1.32-4.63-2a5.41,5.41,0,0,0-1.12-.41c-5.11-.88-10.1-2.37-15.37-2.39a28.1,28.1,0,0,0-12.92,3.1c-2.79,1.4-5.23,1.34-7.41-.93a46.46,46.46,0,0,1-4.7-5.42c-2.33-3.32-4.61-6.72-6.61-10.26a15.57,15.57,0,0,1,.63-17.23c2.45-3.64,6.53-5,10.76-5.57A17.32,17.32,0,0,1,487.92,328.38Z" transform="translate(-0.48 -0.48)"/><path class="cls-1" d="M329.5,283c1.67.17,3.33.39,5,.5a9.06,9.06,0,0,0,3.08-.09c2.91-.82,5.82-1.62,8.08-3.91,1.66-1.68,3.29-1.94,5.21-.67,4.58,3,9.75,4.35,15,5.44,4.92,1,9.89,1.82,14.84,2.66,3.29.57,4.57,2.06,4.46,5.32-.27,7.41,3.3,12,9.84,14,3,.91,4.21,3.12,3.2,6.09a6.32,6.32,0,0,1-3.48,4.07c-1.55.64-3.11,1.26-4.69,1.81a10.76,10.76,0,0,0-5.5,4c-3.63,5-8.87,6.58-14.79,5.86-11.06-1.35-16-11.87-15.69-19.86a17.34,17.34,0,0,0-.37-4.25c-1.21-5.85-8.8-8.55-12.81-7.66a44.79,44.79,0,0,1-20.66-.23c-1.78-.44-3.63-.6-5.43-.94s-3.06-1-3.4-2.89.56-3,2-4A26.57,26.57,0,0,1,329.5,283Z" transform="translate(-0.48 -0.48)"/><path class="cls-1" d="M82.91,499.33c-.31,1-.6,2-.91,3a3.71,3.71,0,0,1-2.63,2.56,12.41,12.41,0,0,1-7.76-.25,4,4,0,0,1-2.81-3.23c-.56-2.73-2.15-4.17-4.93-4.26-2.56-.08-5,.18-7.06,2.2a5.37,5.37,0,0,1-6,1.11A8.31,8.31,0,0,1,46.63,497a5.71,5.71,0,0,1-.63-2.7,8.51,8.51,0,0,1,.55-2.32c.8-2.85-.06-4-3-3.94-3.6.06-6.37-1.89-7.25-5.06-.47-1.71-.48-3.31.82-4.72a3.37,3.37,0,0,0,.56-3.39c-.39-1.44-1.53-1.87-2.92-2-2.82-.33-3.55-1.14-4.16-4.34-.45-2.4.25-4.12,2.31-5.26,4.07-2.26,8.31-2.06,12.51-.53,4,1.45,7.86,3.09,11.73,4.8a35.5,35.5,0,0,0,8.91,2.59A73.64,73.64,0,0,0,93.43,469c1.72-.37,3.36-1.09,5.09-1.36,3.06-.49,6.16-.87,9.26-1.08s4.51,1.53,4.23,4.61a9,9,0,0,1-5.77,7.89,19.35,19.35,0,0,0-6.84,5.1c-3.42,3.8-6.83,7.61-10.18,11.46A13.15,13.15,0,0,1,82.91,499.33Z" transform="translate(-0.48 -0.48)"/><path class="cls-1" d="M102.84,380c-.77-.77-1.23-1.22-1.67-1.68a4.49,4.49,0,0,1-.36-5.89,4.62,4.62,0,0,1,5.69-.86c1,.58,1.81,1.29,2.8,2,1.21-1.07,2.37-2.15,3.58-3.18,2.14-1.84,4.36-2.36,7-.85a35.63,35.63,0,0,0,5.16,1.89,73.68,73.68,0,0,1,7.75,3.11,16,16,0,0,0,6.91,1.67c2,.08,4,0,6,0,3.32,0,4.48,1.36,3.9,4.67-.05.32-.16.62-.21.94a6.43,6.43,0,0,1-3.26,4.9,24.67,24.67,0,0,0-10.69,14,38.81,38.81,0,0,0-1.59,6.26A34.3,34.3,0,0,0,135,421.27a40.69,40.69,0,0,0,14.8,23.19c2.57,2.13,2.56,4.57-.22,6.45a8.3,8.3,0,0,1-3,1.29c-3.84.74-7.7,1.38-11.57,2a99.86,99.86,0,0,0-13.31,3,67.49,67.49,0,0,1-10.53,2.21c-3.56.47-6.46-3.92-5-7.2a4.7,4.7,0,0,1,3-2.28c1.12-.42,2.27-.74,3.4-1.15a12.78,12.78,0,0,0,5-3.26A38,38,0,0,0,128,423.84a19.1,19.1,0,0,0-.47-4.95c-.22-1.82-.58-3.63-.74-5.46-.58-6.34-2.36-12.2-6.71-17.05-4.07-4.54-8.48-8.69-14-11.53-.64-.33-1.2-.79-1.81-1.17C102.84,382.78,101.38,381.9,102.84,380Z" transform="translate(-0.48 -0.48)"/><path class="cls-1" d="M384.59,259.21a49.39,49.39,0,0,0,11.88-1.57,29.56,29.56,0,0,0,2.87-1.2,20.75,20.75,0,0,1,3.86-1.2,3.08,3.08,0,0,1,3.77,3,72.6,72.6,0,0,1-.38,8.6,6.62,6.62,0,0,1-1.29,3.29c-3.22,4.11-7,7.24-12.44,8.3a48.45,48.45,0,0,1-22.05-1.11c-6.5-1.71-12.84-3.91-18.53-7.59a38.07,38.07,0,0,1-9.76-8.4c-5.13-6.67-6-14.12-2.77-21.93a31.4,31.4,0,0,1,9.15-12.38c4.42-3.69,9.09-6.77,14.83-7.93a16.51,16.51,0,0,1,2.6-.4,3.45,3.45,0,0,1,3.58,2.6c.42,1.55-.16,2.6-2,3.53a23.6,23.6,0,0,0-7.5,5.87c-2.66,3.12-3.49,6.55-1.71,10.44,4,8.83,10.23,15.17,20,17.35A58.3,58.3,0,0,0,384.59,259.21Z" transform="translate(-0.48 -0.48)"/><path class="cls-1" d="M554.18,305.6c-1.12,3.19-2.44,4-5.2,3.5-2.31-.46-3.12-1.85-3-5.31l-5.36-2c-.71.67-1.37,1.35-2.09,2a3.48,3.48,0,0,1-4.41.44,3.41,3.41,0,0,1-1.15-4.27c.27-.75.61-1.47,1-2.33l-1.48-1.53-1.38-1.44a16.77,16.77,0,0,1-1.91,1,3.89,3.89,0,0,1-4.94-2.23c-.74-1.93.15-3.7,2.29-4.54.58-.22,1.15-.47,1.69-.69-.2-2.55-.22-2.51-2.37-3.28a6.83,6.83,0,0,1-2.28-1.24,3.37,3.37,0,0,1-.86-3.95,3.45,3.45,0,0,1,3.19-2.18,2.58,2.58,0,0,1,.48,0c6.6.69,11.56-2.43,15.75-7,2.15-2.36,4.06-4.93,6-7.49a14.46,14.46,0,0,1,5.79-4.87c1.91-.83,3.32-.72,4.43.4s1.23,2.69.16,4.63a37.67,37.67,0,0,0-2.62,4.55c-1.7,4.45-2.71,9.06-1.47,13.81,1,3.65,3.62,5.21,7.28,4.49,5.54-1.11,8.72-4.84,7.71-11.43-.34-2.22-.85-4.37-.44-6.65.67-3.63,3.3-5.69,6.87-4.94a10.79,10.79,0,0,1,7.59,5.32c4.54,7.95,4.13,15.94.13,23.84A21.77,21.77,0,0,1,573.11,302c-5.63,2.63-11.55,4.21-17.88,3.48A4.86,4.86,0,0,0,554.18,305.6Z" transform="translate(-0.48 -0.48)"/><path class="cls-1" d="M444.43,431.15a28.64,28.64,0,0,1,0,3.59,8.55,8.55,0,0,1-.87,2.94c-1.14,2.19-2.77,2.88-5,1.82a76.37,76.37,0,0,1-9.25-5c-3.92-2.59-7.72-5.41-11.37-8.38a57.49,57.49,0,0,1-11.29-12,68.11,68.11,0,0,0-4.13-5.58c-2.6-3.07-3.64-6.89-5.25-10.43-1.19-2.61-.58-4.93,1.57-6.93,8.44-7.87,18-10.88,29.32-7.24a4.89,4.89,0,0,1,3.23,2.62q2.26,4.89,4.51,9.78c.44.94.78,1.93,1.26,2.85a64,64,0,0,1,5.53,16.29c1.11,5.13,1.47,10.42,2.16,15.64Z" transform="translate(-0.48 -0.48)"/><path class="cls-1" d="M421.59,369.63c0,3.51-1.41,5.1-4.16,5.4-2.46.27-4.94.35-7.37.74-5,.78-9.35,3.21-13.49,5.94-3.64,2.39-6.69,1.54-8.3-2.56-2.19-5.57-4.44-11.11-6.59-16.7q-3.84-9.93-7.53-19.92c-1.19-3.21-.51-4.24,2.57-5.76,4.15-2,8.36-4,12-6.94a40.13,40.13,0,0,1,3.74-2.59c3.72-2.43,8-.6,10.28,2.1a24.15,24.15,0,0,1,4.48,8.12,63.29,63.29,0,0,0,3.86,8.22c1.79,3.57,3.75,7,5.47,10.64,1.41,2.94,2.66,6,3.84,9A41.1,41.1,0,0,1,421.59,369.63Z" transform="translate(-0.48 -0.48)"/><path class="cls-1" d="M481.17,379c0,2.29-1.83,4.58-4.15,5.46a4.39,4.39,0,0,1-4.95-1.46c-1.59-1.89-3.13-3.84-4.53-5.88a48.22,48.22,0,0,0-10.42-10.49,15.25,15.25,0,0,0-8.75-2.84c-3.11-.18-6.23-.22-9.34-.41-2.9-.17-5.76-.56-8-2.72a12.66,12.66,0,0,1-1.85-2.16c-4.71-7.33-9.37-14.69-14.07-22-1.25-1.94-2.62-3.81-3.91-5.74a15.63,15.63,0,0,1-1.29-2.29c-.88-2-.58-3.39,1-5a4,4,0,0,1,4.82-.9l.22.1c3.26,2.24,6.95,2.3,10.61,1.79,5.85-.82,10.63,1.22,15,4.91a13.63,13.63,0,0,1,4.32,8.07c.38,1.88.67,3.78.9,5.68a4.55,4.55,0,0,0,2.27,3.46A15.4,15.4,0,0,0,455,349c6.76,1,11.41,4.78,14,10.95a34.8,34.8,0,0,0,8.1,11.74,22.84,22.84,0,0,1,3.44,5.12A7.25,7.25,0,0,1,481.17,379Z" transform="translate(-0.48 -0.48)"/><path class="cls-1" d="M477.38,294a60.62,60.62,0,0,1,16.77,2.43,81,81,0,0,1,15.66,5.89c7.11,3.82,14.18,7.71,19.69,13.84,3.09,3.45,6.36,6.74,9.51,10.13a16.72,16.72,0,0,1,1.91,2.46c1.73,2.78,3.47,5.56,5.06,8.41a19.75,19.75,0,0,1,1.62,4.24c.43,1.51.47,3.06-.93,4.18a4.49,4.49,0,0,1-4.53.62,17.78,17.78,0,0,1-2.17-1Q529.6,340,519.24,334.71c-1.57-.79-3.24-1.39-4.75-2.27a6.87,6.87,0,0,1-2.41-2.19c-2.71-4.55-6.53-8.07-10.62-11.27a20.38,20.38,0,0,0-6.09-3.27A71.19,71.19,0,0,1,483,310c-3.62-2-7.24-4.08-10.81-6.2a15.58,15.58,0,0,1-2.54-2.14,3.61,3.61,0,0,1-1.1-4.34,5,5,0,0,1,4-3C474.18,294.12,475.78,294.12,477.38,294Z" transform="translate(-0.48 -0.48)"/><path class="cls-1" d="M337.85,358.54a36.28,36.28,0,0,1-4.27.5c-2.31,0-3.54-1.2-3.8-3.45a5.84,5.84,0,0,0-.06-.95c-1.05-3.4,0-5.92,3-7.75a2.48,2.48,0,0,0,.86-1.79,25.88,25.88,0,0,0-.15-3.83c-.14-2-.71-3.72-2.86-4.54a3.11,3.11,0,0,1-1.78-2.68c-.7-4.87.36-9.09,4.65-12,1.38-.94,2.26-1.86,1.75-3.73-.41-1.48-.53-2.88-2.22-3.67-1.86-.86-2.54-3-2.1-5.38.13-.71.34-1.4.53-2.09a3.51,3.51,0,0,1,3.43-2.84,67,67,0,0,1,6.94-.05c3.79.24,4.67,2.66,4.66,6.23a2.51,2.51,0,0,1-1,1.84c-2.37,1.5-2,3.76-1.89,6a6.35,6.35,0,0,0,.26,1.14c1.29.37,2.65.78,4,1.13,2.18.55,3.05,1.65,3,3.93,0,1.35,0,2.71-.09,4.06a3.81,3.81,0,0,1-2.82,3.49c-2.6.91-2.84,1.28-2.79,4a33.45,33.45,0,0,0,1.2,8.92c1.44.13,2.86.3,4.27.39a5.12,5.12,0,0,1,5,4c.64,2.47,1.17,5,1.63,7.49.33,1.81-.63,3.19-2.47,3.87-3.27,1.21-3.47,1.51-3.43,4.95,0,3.25.13,3.4,3.07,4.62,1,.4,1.9.86,2.86,1.23,2.95,1.14,3.92,3.6,4.22,6.43s-4,6.92-7.23,5.8a60,60,0,0,1-7.12-3.32,10.58,10.58,0,0,0-4.83-1.16c-6.07,0-7.74-1.36-9.19-7.23a3.53,3.53,0,0,1,1.25-3.87,16,16,0,0,1,2.21-1.43,3.42,3.42,0,0,0,2-3.93C338.45,361.43,338.14,360,337.85,358.54Z" transform="translate(-0.48 -0.48)"/><path class="cls-1" d="M31.24,446.9l.55-4.06c-.73-.6-1.43-1.13-2.07-1.71-1.79-1.6-1.95-3.82-.16-5.43a31.67,31.67,0,0,1,4.36-2.79c.39-1.44,1-3.42,1.42-5.44a3,3,0,0,0-.46-1.69c-.39-.78-1-1.46-1.36-2.24-1.26-2.66.35-5.08,3.29-5,.55,0,1.1.09,1.8.16.83-1.72,1.66-3.41,2.45-5.05-2.57-2.91-3-4.28-1.78-5.92s2.51-1.67,5.48-.63l3.72-5.37c-.21-.45-.46-.93-.66-1.43a4,4,0,0,1,.8-4.45A3.74,3.74,0,0,1,53,394.64a3.68,3.68,0,0,0,2.73,0c2.42-.74,4-.09,4.84,2.17,1.35,3.56,4.1,5.63,7.34,7.16a3.81,3.81,0,0,1,2.51,2.93,2.92,2.92,0,0,1-1.23,3c-5.17,3.37-7.75,8.61-10,14A68.16,68.16,0,0,0,53.93,443c-.33,2.92.08,5.91.11,8.86a8.05,8.05,0,0,1-.2,2.36,3.16,3.16,0,0,1-4,2.2,30.94,30.94,0,0,1-4.54-1.5c-2.33-.92-4.71-1.7-7.22-1.34-2.13.3-4.21.89-6.3,1.38s-3.34,0-4.35-1.6c-1.55-2.48-.7-5,2.07-6C30,447.22,30.58,447.09,31.24,446.9Z" transform="translate(-0.48 -0.48)"/><path class="cls-1" d="M446.08,459.11c-.4,7.45-1.7,13.55-5.15,19.07-2.61,4.19-5.07,4.27-8,.31a19.74,19.74,0,0,0-10-6.77,9.74,9.74,0,0,1-5.44-4.38c-2.06-3.35-5.18-5.57-8.55-7.47-.9-.51-1.85-.94-2.73-1.49a6.33,6.33,0,0,1-3.1-4.07c-.31-1.39-1-2.71-1.35-4.09a8,8,0,0,0-2.36-3.81c-1.46-1.36-2.92-2.74-4.29-4.2-1.82-1.93-2.13-5.86-.47-8a85.74,85.74,0,0,1,5.83-6.66,3.53,3.53,0,0,1,5.8,1,12.45,12.45,0,0,0,3.07,3.91c2.07,1.87,3.84,4.1,6.07,5.75a63.77,63.77,0,0,0,23.51,10.94c.78.18,1.57.33,2.35.5a4.76,4.76,0,0,1,3.75,3.65C445.6,455.54,445.86,457.84,446.08,459.11Z" transform="translate(-0.48 -0.48)"/><path class="cls-1" d="M205.71,460.58l-7-5.86c-1.17.72-2.3,1.46-3.46,2.13a4,4,0,0,1-4.7-.37c-3.1-2.29-4.83-5.53-6-9.05-.67-2,.51-3.74,2.67-4.37,2.68-.77,5.36-1.58,8.09-2.17a2.77,2.77,0,0,0,2.29-2.08c.7-2.21,1.48-4.39,2.16-6.61.47-1.58,1.3-2.78,3-3s2.85.64,3.68,2.11a33,33,0,0,0,2,3,3.51,3.51,0,0,1,0,4.79c-1.08,1.48-2.1,3-3.18,4.52.38.56.66,1,1,1.46.55.68,1.15,1.32,1.82,2.09,1.3-1,2.4-1.88,3.56-2.68,2.08-1.45,3.13-1.51,5.21,0a50.14,50.14,0,0,1,5.91,4.85c2.15,2.16,1.74,4.29-.8,5.94-.79.52-1.55,1.09-2.44,1.71,1.67,2.86,4.5,3.58,7.3,4.83,1-1.25,2-2.46,2.94-3.73,1.7-2.29,3.84-2.46,5.85-.49,1.37,1.33,2.81,2.59,4.25,3.85A3.48,3.48,0,0,1,241.2,465c-.17.76-.25,1.55-.34,2.09,1.71,1.48,3.22,2.76,4.7,4.09a3.55,3.55,0,0,1,.94,3.94,7.5,7.5,0,0,1-3.45,4.66c-2.13,1.28-4.17,2.65-6.65,3.21-4.29,1-7.8-.7-9.65-4.7-.47-1-.71-2.12-1.18-3.14a2.76,2.76,0,0,0-1.13-1.35c-1.88-.83-3.82-1.52-5.88-2.33-.17.42-.36,1-.62,1.54a3.29,3.29,0,0,1-4.34,1.9,30.33,30.33,0,0,1-9.2-6c-1.31-1.12-1.32-2.66-.64-4.19S205,462,205.71,460.58Z" transform="translate(-0.48 -0.48)"/><path class="cls-1" d="M585.79,396.63l1,.31c2.24.68,3.19,1.84,3.18,4.16a4.7,4.7,0,0,0,1.27,3.44c2.5,2.77,3.36,6,1.78,9.51a6.36,6.36,0,0,0,.45,6.74,6.35,6.35,0,0,1-.36,7.43,32.57,32.57,0,0,1-3,3.7,16,16,0,0,0-2.82,3.49,3.37,3.37,0,0,1-5.36.59c-.52-.48-.95-1.05-1.5-1.67a10.54,10.54,0,0,0-1.23.72,6.27,6.27,0,0,1-6.34.84,3.3,3.3,0,0,1-2.27-2.82c-.33-2.15-1.67-3.2-3.89-3.16-2.64,0-3.54-.59-4.41-3.09-.66-1.91-1.24-3.8-.29-5.81a4.64,4.64,0,0,0,0-1.72c-.62-.27-1.19-.54-1.77-.77-2.4-1-3.3-2.92-3.37-5.3a43.11,43.11,0,0,1,.33-4.59l-1.48-.84c-2.92-1.73-3.73-4.21-2.35-7.36a26.12,26.12,0,0,1,1.66-2.9c1.76-2.91,1.71-3.91-.51-6.38-3-3.39-3.49-7.22-2.06-11.39a5.59,5.59,0,0,1,4.65-3.23,3.2,3.2,0,0,1,2.78,1.62,51.22,51.22,0,0,1,2.88,5.23,12.83,12.83,0,0,1,.83,3.95,4.59,4.59,0,0,0,1.67,3.29,26.34,26.34,0,0,1,3.34,3.42,7.83,7.83,0,0,1,1.65,4.64,107.93,107.93,0,0,0,1.18,10.91c.43,2.69,2.25,4.72,4.13,6.61a4.47,4.47,0,0,0,1,.67c2.64,1.49,4.14.93,5-2a15.18,15.18,0,0,0,.61-3.53,35.18,35.18,0,0,0,0-5c-.2-2.21-.73-4.08-3.4-4.85-2.44-.69-3-3.76-1.31-5.73.51-.61,1.06-1.18,1.57-1.8,1-1.26,2.3-2,4-1.57a3.36,3.36,0,0,1,2.53,3.14C585.6,395.82,585.69,396.13,585.79,396.63Z" transform="translate(-0.48 -0.48)"/><path class="cls-1" d="M241.26,329.66c1.51-1.37,3.18-2,5-.73s1.68,2.95.83,4.85c.81.85,1.58,1.75,2.46,2.54A2.74,2.74,0,0,0,251,337c3.76.48,4.81,2.8,2.69,6-.13.2-.24.41-.41.71l1.08,2.45c2.14-.21,4.27-.32,5.19,2.17.62,1.69,0,2.94-2.48,4.77.15.7.31,1.47.49,2.32.43.1.79.2,1.17.27a4.39,4.39,0,0,1,3.86,3.95c.23,2-.55,3.1-2.83,4.13-.14.07-.27.16-.48.28a7.87,7.87,0,0,0-.09.89c0,.39.06.77.09,1.11,3.64,1,5.27,2.81,4.8,5.24-.42,2.22-2,2.85-5.93,2.27l-1.38,3.09c.52.39,1,.71,1.5,1.11a3.33,3.33,0,0,1,.67,4.52,3.19,3.19,0,0,1-4.23,1.09,5.24,5.24,0,0,0-3.34-.64c-3.22.16-6.31-3.08-6.2-6.3,0-.64.14-1.27.13-1.91a5.69,5.69,0,0,0-1.7-4.33,7.57,7.57,0,0,0-.86-.84c-3.94-2.72-5.46-6.77-6-11.27a24.21,24.21,0,0,0-3.36-9.41,9.51,9.51,0,0,0-3.77-3.85c-6-2.78-4.89-8.69-2.08-12.25,2.94-3.75,7-4.49,11.44-3.64A17.87,17.87,0,0,1,241.26,329.66Z" transform="translate(-0.48 -0.48)"/><path class="cls-1" d="M73.22,383.72h5.47c1-3.15,2.16-4.2,4.11-4s2.87,1.49,3.26,4.73l3.66.87a28.08,28.08,0,0,1,3.18-2.84,2.85,2.85,0,0,1,2.06,0c2,.58,2.56,2,2.14,5.19a47,47,0,0,1,11.28,7.05,25.51,25.51,0,0,1,4.76,5A43.65,43.65,0,0,1,120.22,414a23.24,23.24,0,0,1,.26,12.08,3.3,3.3,0,0,1-3.71,2.66,2.47,2.47,0,0,1-2.48-2.41c-.12-.79-.18-1.59-.27-2.39a7,7,0,0,0-7-6.46c-3-.1-4-.62-4.58-3.19-1.08-5.08-4.76-7.53-9.05-9.43a26,26,0,0,0-12.88-2.09c-4.17.36-7-1.55-9.61-4.35q-2.19-2.37-4.25-4.88a6.85,6.85,0,0,1-2-4.24,37.08,37.08,0,0,1,2.86-6.92,3.36,3.36,0,0,1,4.39-.18A12.82,12.82,0,0,1,73.22,383.72Z" transform="translate(-0.48 -0.48)"/><path class="cls-1" d="M164.88,393.36l-.6-2.35c-1.88-.4-3.61-.69-5.3-1.14-2.33-.6-3.91-4.26-2.82-6.42a3.12,3.12,0,0,1,2.89-1.82,18.18,18.18,0,0,1,2.47.32l-1.15-6.07c-.56-.18-.92-.33-1.31-.41-2.77-.59-4-1.83-4.46-4.56a26.55,26.55,0,0,1-.4-4.52c.06-2.19,1.25-3.49,3.05-3.67s3,.73,3.71,2.94c.5,1.64,1.45,2.17,3.29,1.76,1.32-.3,2.61-.72,3.94-.93,3.33-.55,5,.37,6.11,3.51a13.68,13.68,0,0,1,.72,4.44c0,2.44-1.21,3.54-3.7,3.78-.54,0-1.08.15-1.73.24v5c2,.19,3.91.35,5.79.57a6.61,6.61,0,0,1,2.31.53,4.33,4.33,0,0,1,1.89,1.69,13.78,13.78,0,0,1,1.15,3.88c.29,1.83-1.11,3.45-3.1,4-1,.24-1.92.55-3.16.92.55,1.64,1,3,1.45,4.28,1.42-.19,2.59-.4,3.77-.5a3.57,3.57,0,0,1,3.64,1.83,8.57,8.57,0,0,0,.52.81c2.28,3.11,2.26,3.77-.23,6.81-.4.49-.73,1.05-1.19,1.73l1.36,2.33c1.54-1,3.05-1.94,4.76-1.14a4,4,0,0,1,1.7,1.58c1.1,1.95.2,3.55-3.13,5.64a1.52,1.52,0,0,0,1,1.78c4.35,2.15,5.75,6.28,3.85,11.09-1.42,3.62-6,5.73-10,4.45-2-.65-3.76-1.79-4.39-4.06-.51-1.84-1.19-3.64-1.63-5.5-.82-3.45-.24-4.54,3.22-6.12l-2.71-6.55c-.46-.11-.63-.21-.76-.17-3.49,1.14-4.64.63-6.2-2.74-.13-.29-.26-.59-.38-.88-1.4-3.29-1.3-3.79,1.2-6.28a3.9,3.9,0,0,0-.12-.46c-.49-1.08-1-2.17-1.58-3.45l-2.17.78c-2.25.79-4,.16-4.83-1.69s0-3.39,2-4.49Z" transform="translate(-0.48 -0.48)"/><path class="cls-1" d="M219.45,366.43c-2-1.85-4.29-1.48-5.68.81a7,7,0,0,0-.27,7.5A11.66,11.66,0,0,0,221,380.6c.16,0,.32,0,.47.09,4.67,1.77,7.8-1.11,9.84-3.83a11.43,11.43,0,0,1,2.76-2.87,3.16,3.16,0,0,1,4.67,1.37,4.37,4.37,0,0,1,.77,2.23c-.31,2.71,1.2,4.7,2.42,6.81s1.37,4.2-.09,6.07a10.45,10.45,0,0,1-3.52,2.7,19.66,19.66,0,0,1-8.62,1.74,36.55,36.55,0,0,1-14.53-2.59c-7.13-2.84-14.33-11.27-14.09-20.52a14.62,14.62,0,0,1,4.09-10.21,15.49,15.49,0,0,1,17.7-3.12,9,9,0,0,1,4.45,10.2,5.64,5.64,0,0,1-5.12,4.31,3.73,3.73,0,0,1-3.71-1.7c-.93-1.43-.57-2.71.39-3.95C219.09,367.09,219.22,366.8,219.45,366.43Z" transform="translate(-0.48 -0.48)"/><path class="cls-1" d="M392.24,425.28c-3.61-.15-6-3-6.62-6.19-.25-1.34-.39-2.69-.56-4a14.84,14.84,0,0,0-5.64-9.69,15.43,15.43,0,0,1-5.59-8.41c-.78-3.25-1.72-6.47-2.51-9.73a25.94,25.94,0,0,1-.37-3.32,23.73,23.73,0,0,0-3.2-10.17A23.19,23.19,0,0,1,364,361.28a35.7,35.7,0,0,0-1.63-11.81,19.79,19.79,0,0,0-5-8.31,17.33,17.33,0,0,1-1.33-1.38,3.42,3.42,0,0,1,0-4.76,3.36,3.36,0,0,1,4.76,0c3.55,3.22,6.47,6.93,7.72,11.62A124,124,0,0,1,371.43,360c.69,4.54,1.57,8.9,4.15,12.84a98.8,98.8,0,0,1,8,16c2.13,5.07,4.3,10.16,6.87,15a130.38,130.38,0,0,0,7.42,11.71c1.14,1.7,1.4,3,.24,4.59a23.5,23.5,0,0,1-3,3.7A11,11,0,0,1,392.24,425.28Z" transform="translate(-0.48 -0.48)"/><path class="cls-1" d="M420.07,235.13a26.62,26.62,0,0,1-1.91,9.48A3.17,3.17,0,0,1,415,246.8c-3.11.13-4.53-.66-5.3-3.65-1.66-6.47-5.56-11.55-10.3-15.87a32.67,32.67,0,0,0-15.05-8,7.67,7.67,0,0,1-4.69-2.66c-2.1-2.7-1.11-6.34,2.18-7.29a69.62,69.62,0,0,1,8.15-1.87c2.34-.39,4.61.41,6.8,1.15,9.26,3.15,16,9.39,21.18,17.5C419.69,228.71,420.15,231.72,420.07,235.13Z" transform="translate(-0.48 -0.48)"/><path class="cls-1" d="M97.56,444.41c-3.22-.09-7-.37-10.14-2.42-4.86-3.13-8.31-7.34-8.19-13.47a12.66,12.66,0,0,1,4.15-9.65c3.2-2.78,6.82-3.64,10.15-1.86a3.38,3.38,0,0,1,2,3.91c-.34,1.62-1.57,2.53-3.53,2.59s-2.14.09-2.54,2a7.39,7.39,0,0,0,6.31,8.41c4.07.37,6.13-1.25,6.78-5.31a13.92,13.92,0,0,1,.43-2.35,3.66,3.66,0,0,1,4.18-2.43c1.73.27,2.61,1.33,2.71,3.39a18.69,18.69,0,0,0,0,3.35,20.8,20.8,0,0,0,1.68,4.93c1.71,3.31,1.35,4.88-2,6.48A24.1,24.1,0,0,1,97.56,444.41Z" transform="translate(-0.48 -0.48)"/><path class="cls-1" d="M329.14,393.51a38.77,38.77,0,0,1-2.28,3.35,3.49,3.49,0,0,1-4.9.94,19.88,19.88,0,0,1-2.84-1.78c-3.11-2.41-3.54-5.75-1.26-9,.64-.91,1.21-1.87,1.92-3a30.37,30.37,0,0,0-2.09-2.26c-.77-.69-1.66-1.25-2.64-2l-1.94,1.68a10.45,10.45,0,0,1-1.47,1.22c-1.49.87-3.1,1.54-4.73.45s-2.05-2.81-2.16-4.59a3.08,3.08,0,0,1,1.75-2.69c.74-.46,1.6-.73,2.34-1.19.43-.27,1-.69,1.06-1.13.32-1.5,1.45-2.29,2.54-3.06A49.35,49.35,0,0,1,317.9,367a7.86,7.86,0,0,1,3.18-.65,2.43,2.43,0,0,1,2.36,1.73,67.26,67.26,0,0,0,10.77,17.73,5.52,5.52,0,0,1,1.44,3.7c.05,3.32-2.3,5.19-5.49,4.32C329.85,393.74,329.56,393.64,329.14,393.51Z" transform="translate(-0.48 -0.48)"/><path class="cls-1" d="M385.77,251.83a26,26,0,0,1-8.4-2.39,23.26,23.26,0,0,1-8.57-5.54,8.5,8.5,0,0,1,0-11.34c3.75-4.44,8.37-5.59,13.78-3.7a43,43,0,0,1,9.62,4.2,11.82,11.82,0,0,1,5,7,8.38,8.38,0,0,1-5.32,10C389.94,250.83,387.83,251.27,385.77,251.83ZM376.47,235a2,2,0,0,0-.74,3.95,7.54,7.54,0,0,0,1.87.41,19.22,19.22,0,0,1,7.84,2.75c.28.15.56.32.85.44a2,2,0,1,0,2.07-3.52A23.85,23.85,0,0,0,376.47,235Z" transform="translate(-0.48 -0.48)"/><path class="cls-1" d="M162.34,417c4.16-.24,6.43,1.38,7.09,5,.43,2.39-.49,4.13-2.88,4.78a15.71,15.71,0,0,1-15.72-4,14.38,14.38,0,0,1-3.28-4.67c-1.88-4.42-1.07-8.58,1.92-12.31a3.47,3.47,0,0,1,4.08-1.12,3.33,3.33,0,0,1,2,3.51c-.07.87-.35,1.72-.46,2.59a5.51,5.51,0,0,0,5.59,6.24C161.22,417.05,161.78,417,162.34,417Z" transform="translate(-0.48 -0.48)"/><path d="M376.47,235a23.85,23.85,0,0,1,11.89,4,2,2,0,1,1-2.07,3.52c-.29-.12-.57-.29-.85-.44a19.22,19.22,0,0,0-7.84-2.75,7.54,7.54,0,0,1-1.87-.41,2,2,0,0,1,.74-3.95Z" transform="translate(-0.48 -0.48)"/></svg>