<svg id="Layer_1" data-name="Layer 1" xmlns="http://www.w3.org/2000/svg" viewBox="0 0 720 612"><defs><style>.cls-1{fill:none;stroke:#000;stroke-miterlimit:10;stroke-width:0.01px;}</style></defs><path d="M.48,612.48V.48h720v612ZM164.6,178.77c-4.76.5-9.55.81-14.28,1.54-7.95,1.24-15.39,4.25-22.69,7.49a59.1,59.1,0,0,0-21.42,16.61,10,10,0,0,0-2.26,7.35,28.89,28.89,0,0,0,.45,3.81c1.47,8.05,5.53,14.72,11.14,20.53a6,6,0,0,0,5.42,2,63.06,63.06,0,0,0,7.94-1.72,53.87,53.87,0,0,1,18.89-2.62,18.1,18.1,0,0,1,5.29,1.32c1.82.71,2.16,1.75,1.62,3.67a20.24,20.24,0,0,1-3.59,7.26c-1.49,1.87-3.05,3.7-4.67,5.46a17.93,17.93,0,0,0-4,7c-1.76,5.7.74,12.35,6,15.07a40,40,0,0,0,8.29,3c4,1,8,.31,11.86-.62a43.3,43.3,0,0,1,21.1.35c8.21,2.07,16.45,4,24.65,6.1a34.15,34.15,0,0,0,15.22.06,88.57,88.57,0,0,0,23.1-8.49,46.86,46.86,0,0,0,8.23-5.32,14.42,14.42,0,0,0,5.49-9.54,23.24,23.24,0,0,0-2.13-13.54,37.49,37.49,0,0,0-7.49-9.88,25.88,25.88,0,0,1-3.4-4c-3.41-5.07-7-10-12.13-13.44a84.5,84.5,0,0,0-9.26-5.46,26,26,0,0,1-11-9.95c-4.09-6.78-10.23-11.37-17-15.11a53.51,53.51,0,0,0-15.22-5.63A143.3,143.3,0,0,0,164.6,178.77Zm91.48-11.67a154.17,154.17,0,0,0-31.25,3,95.23,95.23,0,0,0-11,3.26,5.23,5.23,0,0,0-1.36,9.11c2.92,2.23,5.89,4.39,8.75,6.69s5.57,4.7,6.91,8.38A20.75,20.75,0,0,0,231.4,203a19.65,19.65,0,0,0,7.14,5.16c6.25,3,12.72,5.59,18.93,8.73A69.17,69.17,0,0,1,272.29,227a13.2,13.2,0,0,1,3.88,5.95c1.11,3.41,2.34,6.79,3.51,10.19,2.73,7.95,8.24,13.35,15.58,17.1,1.49.76,2.93,1.64,4.42,2.4a48.28,48.28,0,0,0,6,2.89,194.18,194.18,0,0,0,22.63,6.22c7.55,1.58,15.23,1.8,22.9,1.79a42.31,42.31,0,0,0,32.05-13.91c4.75-5.11,7.64-11.28,7.32-18.46-.22-5-2.07-9.32-7.08-11.59-2.33-1.06-4.57-2.3-6.87-3.43-7.53-3.72-15-7.54-21.05-13.59-3.39-3.39-6.77-6.68-9.14-11a82.46,82.46,0,0,1-7-15.73,9.77,9.77,0,0,0-7.7-7.27q-20.85-5.1-42.05-8.5A225.89,225.89,0,0,0,256.08,167.1Zm22,267.2c7-.64,14-1.12,21-2a76.67,76.67,0,0,0,15-3.9c10.54-3.58,17-11,20.51-21.23a16.29,16.29,0,0,0-.36-11.28,11.72,11.72,0,0,0-5.92-6.61,24.36,24.36,0,0,0-8.51-2.32,10.93,10.93,0,0,1-8.42-5.23c-1.59-2.4-3.35-4.68-5.1-7a11.84,11.84,0,0,0-8.46-4.94,18.38,18.38,0,0,0-6.61.57c-5.19,1.54-10.28,3.47-15.42,5.19a56.58,56.58,0,0,1-8,2.41c-4.77.83-9.41.06-12.91-3.48a26.1,26.1,0,0,1-5.13-7.47,75.33,75.33,0,0,1-3.82-11.32,39.28,39.28,0,0,0-4.5-10.53c-2.83-4.49-7.13-6.59-12.16-7.17a30.58,30.58,0,0,0-10.47.67c-7.94,1.87-13.06,8.11-13,16.22a81.29,81.29,0,0,0,.81,9.06c.72,5.63-.71,10.45-5,14.27-1.13,1-2.31,2-3.42,3a8.69,8.69,0,0,0,.46,13.54c.31.25.64.48,1,.73,3.84,3.13,8,5.95,11.43,9.47a110.71,110.71,0,0,0,15.23,12.69c5.15,3.67,10.77,6.21,16.31,9,4,2,8.4,3,12.74,4.13C262.79,432.72,270.24,434.59,278.07,434.3ZM420,266.28c3.29-.65,6.6-1.18,9.85-2,10.37-2.53,20.14-6.68,29.73-11.3,4.55-2.19,8.14-5.35,10.17-10.06a11.64,11.64,0,0,0,.47-9.08,15,15,0,0,1,.76-13c1.59-2.95,3.19-5.91,4.87-8.81a14.82,14.82,0,0,0,1.38-11.35,7.54,7.54,0,0,0-4.33-5.43,72.37,72.37,0,0,0-8-3.23c-5.33-1.69-10.68-3.39-16.4-3.07-10.33-1.64-20.68-3.19-31-4.94-8.6-1.46-16.88-4.21-25.24-6.66s-17.11-4-26-3.16c-4.21.41-8.15,1.35-10.93,5-2.33,3.09-4,6.36-4.06,10.28A17.46,17.46,0,0,0,357.22,203a84.55,84.55,0,0,0,20.15,13.72c4.5,2.23,9.07,4.38,13.39,6.93,6,3.54,9.39,9.06,10.51,15.86.55,3.38.62,6.84.88,10.26a14.64,14.64,0,0,0,2.82,7.77,23.11,23.11,0,0,0,7.11,6.36C414.47,265.21,416.9,266.85,420,266.28Zm-61.33,29.93v-1c.06-5.05-1.81-8.51-7.26-10.15A52.12,52.12,0,0,0,332.47,283c-4.38.32-8.77.64-13.15.92a6.41,6.41,0,0,1-4.92-1.41c-3.62-3.24-7.28-6.44-10.84-9.75a14.12,14.12,0,0,0-11.15-3.94,7.6,7.6,0,0,0-6.38,3.55c-2,3.18-3.13,6.55-2.37,10.45a15.58,15.58,0,0,1-4.39,14.74,30.85,30.85,0,0,1-9.23,6.35,86.58,86.58,0,0,0-10.09,5,31.89,31.89,0,0,0-14.38,19.05,15.55,15.55,0,0,0,.94,11c.27.58.55,1.15.84,1.72,3.43,6.67,7.24,13.16,9.84,20.23a13.23,13.23,0,0,0,1.76,3.13,7.41,7.41,0,0,0,6.29,3.35,19.77,19.77,0,0,0,5-.41c3.68-1,7.31-2.28,10.92-3.54,5.18-1.8,10.36-2.62,15.69-.62.89.34,1.87.41,2.79.67,4.73,1.36,8.56-.12,12-3.47a75.54,75.54,0,0,0,17.51-27.2,29.83,29.83,0,0,1,13.31-15.79c3.47-2,6.83-4.14,10.22-6.24a10.76,10.76,0,0,0,4.42-5.79A24.08,24.08,0,0,0,358.67,296.21Zm279,89.5a32.29,32.29,0,0,1,3.4,1.89c1.86,1.38,3.65,2.84,5.41,4.33a9.38,9.38,0,0,0,7,2.53,4.51,4.51,0,0,0,3.34-7.51,15.76,15.76,0,0,1-1.49-1.88,64.92,64.92,0,0,1-4.51-7.6c-1.42-3.18-3.58-5.37-6.87-6.14a62.27,62.27,0,0,0-24.68-1.91,91.16,91.16,0,0,1-16.52-.35c-3.48-.39-7-.55-10.35-1.84-5.36-2.07-10.76-4.05-16.13-6.1-5.75-2.2-11.46-4.48-17.22-6.63a28.66,28.66,0,0,0-12.25-1.73,51.73,51.73,0,0,0-14.51,3c-2.69,1-5.41,2-8.17,2.79a57,57,0,0,0-17.83,9.11,60.34,60.34,0,0,0-11.62,12.05,6.61,6.61,0,0,0-.42,8c.25.41.46.84.69,1.26a58.42,58.42,0,0,0,12.36,14.88A27.63,27.63,0,0,0,522.74,411a44.06,44.06,0,0,0,15.94-.92c5.83-1.42,11.67-2.77,17.44-4.39,9.69-2.71,19.54-2.84,29.49-2.33,6.78.35,12.93,2.47,19,5.33a63,63,0,0,0,15.1,4.49c7.59,1.44,13-2.31,17.46-7.7,2-2.35,2.29-5.43,2-8.44C638.77,393.44,638.23,389.82,637.7,385.71Zm-587-75.62H51c0,1,0,2.08,0,3.12A115.6,115.6,0,0,0,53.29,337a10.2,10.2,0,0,0,6.35,7.82c6.28,2.7,12.26,1.61,17.93-1.57A35.61,35.61,0,0,0,90.3,331.5c1.29-2,2.76-3.92,4-5.94A63.27,63.27,0,0,1,111,308.14c2.91-2.11,5.83-4.21,8.7-6.38a27.16,27.16,0,0,0,10.88-19c.61-4.76.89-9.55,1.44-14.31A38.22,38.22,0,0,1,135.15,256c1.18-2.44,2.14-5,3.13-7.52,1.1-2.79-.34-5-3.33-5.15a9.41,9.41,0,0,0-1.68,0c-3.33.41-6.65.9-10,1.26-3.17.33-6.36.69-9.54.74a7.08,7.08,0,0,1-6.33-3.25c-.71-1.07-1.51-2.07-2.24-3.12-2.46-3.53-5.6-5.87-10.11-5.93a25.88,25.88,0,0,1-2.63-.21c-6.35-.73-12,1.17-17.17,4.71-3.79,2.59-6.17,6.45-8.48,10.26a105.36,105.36,0,0,0-10.42,23.63c-2.8,9.09-5.34,18.27-5.67,27.88C50.58,302.9,50.68,306.5,50.68,310.09ZM346,335.46c-.25,7.17,3.94,10.32,10.67,9.11a21.75,21.75,0,0,0,10.15-4.63c2.7-2.25,5.44-4.46,8.13-6.73a252.05,252.05,0,0,1,20.57-16.13,25,25,0,0,1,14.07-4,6.17,6.17,0,0,1,2.71.84,15.24,15.24,0,0,1,3.23,2.05,9.29,9.29,0,0,1,2.39,2.89,29.85,29.85,0,0,1,2.54,10.43,7.8,7.8,0,0,1-.4,2.57,13.92,13.92,0,0,1-3.36,5.73,24.2,24.2,0,0,0-6.41,10.8A14,14,0,0,0,419,364.84a18.54,18.54,0,0,0,18.91-3.1,68,68,0,0,0,10.79-10.53A35.37,35.37,0,0,0,456,336.79c1-4.32.76-8.75.48-13.14a32.93,32.93,0,0,0-2.33-10.23c-1.67-4.15-2.4-8.35-.78-12.82,2.52-7,4.79-14.06,7.15-21.1a34.42,34.42,0,0,0,1.09-3.68,8.33,8.33,0,0,0-8.7-10.23,18.25,18.25,0,0,0-8.64,2.57c-3.82,2.33-7.67,4.61-11.6,6.76-2.94,1.61-5.93,3.13-9.53,2.47a23.79,23.79,0,0,1-7.69-2.55c-4.22-2.43-8.43-4.9-13.25-6a20.1,20.1,0,0,0-7.82-.7c-10.38,1.62-17.92,6.85-21.48,17.05-.36,1.05-.63,2.15-.89,3.23a91.21,91.21,0,0,1-5.23,15.42,31.41,31.41,0,0,1-9.58,12.67,34.64,34.64,0,0,0-9.1,11A14.65,14.65,0,0,0,346,335.46ZM276.14,281.9c0-3.23-.92-4.66-3.74-5.3a15.67,15.67,0,0,0-10.32,1c-3.91,1.81-7.73,3.81-11.58,5.74a64,64,0,0,1-27.06,6.43,299.17,299.17,0,0,1-37.87-.93c-2.78-.26-5.59-.28-8.36-.66-4.9-.67-9.77-1.57-14.67-2.31-4-.61-8.06-1.2-11.78-3a4.69,4.69,0,0,0-1.87-.36c-5.43-.19-11,3.2-12.61,7.55-.35,1-.91,1.87-1.25,2.85-2.06,6.08-5.94,10.88-10.5,15.24a42.89,42.89,0,0,0-4.76,5.06,9.2,9.2,0,0,0-.13,11.73,28.6,28.6,0,0,0,8.08,7.77,53.42,53.42,0,0,1,7.5,5.95c1.43,1.27,2.79,2.63,4.24,3.89,4.48,3.86,9.13,7.56,12.92,12.15a21.48,21.48,0,0,0,6.07,5c1.88,1.08,3.77,2.11,5.7,3.08a32.42,32.42,0,0,1,9.35,6.62q2.92,3.17,5.7,6.47c1.69,2,4,2.6,6.38,2.89a5.54,5.54,0,0,0,5.6-2.53,21.25,21.25,0,0,0,3.54-15c-.74-5.37-1.5-10.75-.83-16.22a22.23,22.23,0,0,1,7-13.83,47.62,47.62,0,0,1,15.24-9.32c5.7-2.32,11.49-4.41,17.21-6.69a59.39,59.39,0,0,0,6.71-3.15c4.41-2.43,8.73-5,13.11-7.49a27.34,27.34,0,0,1,3.69-1.69c7.38-2.83,13.54-7.11,17.42-14.24A13.73,13.73,0,0,0,276.14,281.9Zm363.65,80.66c1.36-.07,2.73-.05,4.07-.25,2.2-.33,4.5-.49,6.31-2a39,39,0,0,0,7.83-9c2.52-4,2.25-5.73-1.16-9a18.68,18.68,0,0,1-4.32-6.81,48.77,48.77,0,0,0-3.12-7c-1.89-3.14-3.75-6.45-6.32-9-4.53-4.45-9.86-7.82-16.33-9-3-.55-5.87-1.55-8.8-2.3a20.66,20.66,0,0,1-9.84-6.15,40.88,40.88,0,0,1-8.28-13.1,22.5,22.5,0,0,1-1.15-14.3,10.47,10.47,0,0,0-2.83-10.15,29.87,29.87,0,0,0-7-5.38c-3.17-1.84-6.32-3.72-9.49-5.57-3.86-2.25-7.57-4.85-11.63-6.65-7.17-3.17-14.58-4.13-22-.64a9.18,9.18,0,0,0-5.38,10.41,13.35,13.35,0,0,0,2.79,6.29,54.54,54.54,0,0,0,5.44,5.72q6.65,5.86,13.53,11.47A16.47,16.47,0,0,1,568,290.24a80.61,80.61,0,0,1,1.6,15.21c0,6.65,1.67,12.71,7.92,16.46a8.43,8.43,0,0,1,.74.6,30.57,30.57,0,0,0,10.16,5.26A24.06,24.06,0,0,1,602,337c1.4,2,2.65,4,4.18,5.86,2.7,3.25,5.43,6.49,8.4,9.49s6.93,5,10.9,6.8A36.45,36.45,0,0,0,639.79,362.56ZM470.93,286.67a44.93,44.93,0,0,0,.62,5.46,8,8,0,0,0,6.37,6.43,15.46,15.46,0,0,0,5.21.21,23.82,23.82,0,0,0,11.32-4.89,39.31,39.31,0,0,0,8.07-8.17,7.8,7.8,0,0,1,7.22-3.44,20.44,20.44,0,0,1,5.12,1.1c2.71.94,5.34,2.12,8,3.18,6.17,2.44,12.08,1.5,17.8-1.47a9.77,9.77,0,0,0,2.43-1.91,4.52,4.52,0,0,0,1.11-2.06,7.5,7.5,0,0,0-2.16-7.46c-1.53-1.4-3-2.83-4.68-4.11a14.51,14.51,0,0,1-4.73-6.5c-2.24-5.9-.95-11.32,2.37-16.39.86-1.32,2.1-2.4,3.1-3.64a43.9,43.9,0,0,0,4.18-5.51c1.37-2.4.93-4.05-.95-6.08a35.48,35.48,0,0,1-2.39-2.68c-2.73-3.52-6.24-6.18-9.75-8.81a77.19,77.19,0,0,0-7.31-4.57c-8.22-4.81-16.55-9.38-25.66-12.34-3.18-1-5.35-.5-7.42,2.13a23.7,23.7,0,0,0-1.7,2.6c-1.05,1.79-2.07,3.6-3.1,5.41-3.21,5.65-4.76,11.65-3.69,18.18.64,3.88,1.13,7.78.16,11.66a60.67,60.67,0,0,1-2.39,8.26c-3,7.28-5,14.64-4.22,22.63a11.86,11.86,0,0,1-1,5.1A28.08,28.08,0,0,0,470.93,286.67ZM125.24,405.26c1.69-.26,4.52-.73,7.36-1.15a61.25,61.25,0,0,0,14-3.32c5.86-2.33,11.69-4.73,17.52-7.14a13.43,13.43,0,0,0,2.49-1.44c4.13-2.9,4.84-6.49,2.19-10.78a34.55,34.55,0,0,1-2.07-3.5,26.12,26.12,0,0,0-8-9.75,69,69,0,0,0-18.5-10.46A26.19,26.19,0,0,1,130.12,351c-2.41-2.56-4.87-5.08-7.35-7.58a38.63,38.63,0,0,0-3.56-3.21,20.59,20.59,0,0,0-12.92-4.31c-4.41,0-7.74,1.93-10.93,4.69-3.38,2.93-7,5.63-10.55,8.31a40.9,40.9,0,0,1-13,6.46,8.33,8.33,0,0,1-6.74-.5,22.89,22.89,0,0,0-3.27-1.48,3.55,3.55,0,0,0-3.82.6,3,3,0,0,0-.92,3.47c.87,2.65,1.5,5.39,2.53,8,5.3,13.44,14.86,22.29,28.78,26.31a16.1,16.1,0,0,0,4.48.56,23.23,23.23,0,0,1,7.07,1.12,27.41,27.41,0,0,1,10.43,6.65C114.21,403.82,118.83,405.25,125.24,405.26Zm363.24,83.32a19.73,19.73,0,0,0,8.48-1.82,5.82,5.82,0,0,0,3.41-7.26,12.11,12.11,0,0,0-3.92-6.2c-3.27-2.47-5.33-5.93-7.79-9.05a13.53,13.53,0,0,1-1.91-3.84q-2.75-7.92-5.32-15.89c-1.43-4.41-2.81-8.83-4.09-13.28a30.59,30.59,0,0,1-.56-15.63c.88-3.79,2.3-7.47,3.51-11.19,1-3.19,2.19-6.34,3.17-9.55a12.28,12.28,0,0,0,.42-3.53,4.72,4.72,0,0,0-4.91-5c-2.43-.08-4.52.87-6.69,1.65-6.23,2.24-12.43,4.59-18.71,6.71-4.23,1.43-8.57,2.54-12.86,3.79-2.68.79-4.72,2.24-5.52,5.11-.69,2.46-1.51,4.88-2.24,7.33a20.44,20.44,0,0,0-.17,10.89c.41,1.71,1,3.38,1.42,5.08.85,3.07,2.13,6.1,2.44,9.23,1.05,10.42,2,20.85,2.19,31.33a59.29,59.29,0,0,0,1.51,10.64c.52,2.51,2.7,3.51,5,3.84s3.52-1.2,4.58-2.88c.29-.47.46-1,.73-1.51a29.3,29.3,0,0,1,6.38-8,2.6,2.6,0,0,1,3.3-.38,11.72,11.72,0,0,1,4.47,3.89c1,1.63,2.15,3.17,3.19,4.78C473,485.44,480.47,488.08,488.48,488.58Zm14.87-157.77c-.59,5.66,1.9,12.89,6,19.67,2,3.31,4.86,4.07,8.42,2.47q8.73-3.94,17.53-7.77A26.61,26.61,0,0,1,549,343.29c8.72.93,16.76,4,24.37,8.23a63.75,63.75,0,0,0,14.36,5.92c4.3,1.15,8.6.58,12.82-.35a3.92,3.92,0,0,0,2.16-6.44,46.87,46.87,0,0,0-5.21-5.24c-2.32-2.07-4.76-4-7.2-6-2.13-1.68-4.25-3.4-6.51-4.89q-6.88-4.54-14-8.85a11.44,11.44,0,0,1-4.74-5.24,39.93,39.93,0,0,1-2.46-7c-1.13-5-1.92-10-3-15a21.18,21.18,0,0,0-4.41-9.47c-1.88-2.24-4.19-2.24-6.14-.12-.6.65-1.08,1.4-1.7,2-1.24,1.23-2.35,2.82-3.86,3.52-4.4,2-9,3.14-14,2.05a25.94,25.94,0,0,1-6.19-2.48c-3.14-1.59-6.39-2.13-9.5.18a21,21,0,0,0-8.49,13.69C504.14,314.67,503.82,321.52,503.35,330.81ZM335.57,354.33c-6.73-.19-11.23,3.36-14.94,8.34-1.35,1.82-1.13,3.75-.15,5.66a14.64,14.64,0,0,0,4.89,5.5c1.78,1.2,3.68,2.24,5.54,3.33a9.53,9.53,0,0,1,4,3.72,43.87,43.87,0,0,1,2.13,4.29,9.57,9.57,0,0,0,5.87,5.6c3.2,1.27,4.31,3.54,3.42,6.9a31.21,31.21,0,0,1-1.37,3.83c-.76,1.85-1.63,3.64-2.38,5.49a13.75,13.75,0,0,0-1.16,6.55,3.58,3.58,0,0,0,4.07,3.46,26.77,26.77,0,0,0,3.77-.65c4.35-1,7.84-3.58,11.16-6.32a128.05,128.05,0,0,1,21.95-15,60,60,0,0,0,6.56-4.39,23.38,23.38,0,0,0,7.66-9.95,13.3,13.3,0,0,1,3.53-4.73,29,29,0,0,0,4-4.39c2-2.75,1-5.29-2.25-6.12a6.48,6.48,0,0,1-5.25-6.91,19.48,19.48,0,0,1,3.71-10.47c1.95-2.63,3.86-5.29,5.68-8A14,14,0,0,0,408,329.74c-.57-3.54-2.46-4.71-6-4A25,25,0,0,0,391.33,331a99.17,99.17,0,0,0-8.73,8.18c-3.22,3.33-6.08,7-9.39,10.25-6.68,6.54-14.42,9.76-24,7.33C344.76,355.64,340.13,355.12,335.57,354.33ZM634.8,304l0,.25c2.86-.31,5.74-.44,8.55-1,8.12-1.58,15.34-4.89,20.9-11.29,2.3-2.65,4.61-5.31,7.12-7.76a24.43,24.43,0,0,1,6-4.69c5.61-2.73,9.38-7.37,13.28-11.9,2.41-2.8,1.41-5.84-2.11-6.86a34.52,34.52,0,0,0-4.92-1.07c-9.8-1.4-19.59-3-29.44-4s-19.92-1.44-29.8,1a17.56,17.56,0,0,0-7.47,3.56,25.39,25.39,0,0,0-5.72,7c-1.23,2.24-2.4,4.53-3.78,6.67-2.2,3.42-2.35,7-1.32,10.8a6.39,6.39,0,0,0,3.06,4.1,33.65,33.65,0,0,1,8.78,7.7c3.84,4.51,8.52,7.43,14.69,7.34C633.36,303.91,634.08,304,634.8,304ZM394.6,450.74a33.85,33.85,0,0,0,5.27-1.4,54.3,54.3,0,0,0,7.18-3.83c5.12-3.23,9.11-7.46,11.2-13.31.67-1.88,1.8-3.58,2.51-5.44a69.72,69.72,0,0,0,3.07-9,52,52,0,0,0,.95-14.79,15.87,15.87,0,0,1,2.53-9.32c.79-1.3,1.62-2.58,2.28-3.94,2.17-4.5,1.54-8.87-.87-13.05a3.46,3.46,0,0,0-2.25-1.54c-2.29-.18-4.75-.52-6.89.09-8,2.27-14.32,6.68-16.72,15.22A9.14,9.14,0,0,1,400,395a108,108,0,0,1-10.66,8.51c-4.47,2.9-9.35,5.19-14.06,7.72-2.25,1.21-4.58,2.3-6.77,3.59a15.2,15.2,0,0,0-3.14,2.58,4.5,4.5,0,0,0-1,5.49,24.08,24.08,0,0,0,1.9,3.59,20.78,20.78,0,0,1,4.2,11c.15,3.17,1.84,5,4.49,6.18,3.57,1.6,7.1,3.3,10.77,4.64C388.6,449.41,391.68,450,394.6,450.74Zm103.87-142.9-.19,0c0-.32.07-.63.07-.95,0-2.67-1.41-3.93-4.08-3.73a7.46,7.46,0,0,0-3.74,1.43,57.93,57.93,0,0,1-6.15,3.7,8.6,8.6,0,0,1-8.47.16,11,11,0,0,0-6.72-1.32,4.92,4.92,0,0,0-4.38,5.74c.15,1,.34,2.05.54,3.07a67.56,67.56,0,0,1,1.22,19.76c-.67,6.88-2.87,13.16-7.63,18.23a121,121,0,0,1-9.82,9.12c-3.1,2.65-6.38,5.07-9,8.27a11.14,11.14,0,0,0-2.31,9c.67,4.53,3.47,7.16,8,7.83a15.25,15.25,0,0,0,7.77-1,145.12,145.12,0,0,0,13.59-5.94c7.6-3.89,15.06-8.06,22.57-12.15a23.24,23.24,0,0,0,3.63-2.31c3.4-2.72,5-6.19,3.86-10.57-.87-3.32-1.78-6.63-2.85-9.89a17.36,17.36,0,0,1-1-7.53c.7-5.87,1.37-11.74,2.3-17.57C496.42,316.71,497.53,312.29,498.47,307.84Zm-310.18,96c-.06-1.12,0-2.24-.19-3.35a8.2,8.2,0,0,0-4.37-6.49c-2.5-1.35-3.66-1.32-5.86.55a48.63,48.63,0,0,1-17.54,9.57c-5.34,1.64-10.58,3.54-16.21,4.09a21.86,21.86,0,0,0-9,3.09,7.36,7.36,0,0,0-3.11,3.21c-1.46,3-.91,8,3.14,10.17a27.71,27.71,0,0,1,11,10.14,97.84,97.84,0,0,1,5.09,11.33c.77,1.84,1.31,3.77,1.94,5.67a3.75,3.75,0,0,0,3.48,2.83,57.11,57.11,0,0,0,7.16.13,27.07,27.07,0,0,1,13.79,2.21,12.44,12.44,0,0,0,3.43,1,3.73,3.73,0,0,0,4.47-3,20.05,20.05,0,0,0-.18-9.94c-1.45-5.4-2.76-10.87-2.38-16.54A64.49,64.49,0,0,1,187,410.31,15.64,15.64,0,0,0,188.29,403.79ZM69.92,435.27l.22.05c.06.79.11,1.59.19,2.38.69,7,3.75,13,7.55,18.69a15.48,15.48,0,0,1,1.3,2.27c1,2.14,2.3,3,4.54,2.47a13.33,13.33,0,0,0,4.1-1.86c7.59-5.17,13.87-11.76,19.66-18.83a15.64,15.64,0,0,0,2.17-3.41,34,34,0,0,1,4.16-7.23A43.63,43.63,0,0,0,117,425c1.29-2.24,1.82-4.66.63-7.09a17.81,17.81,0,0,0-6-7,56.74,56.74,0,0,1-6.9-5.54,18.11,18.11,0,0,0-12.37-5.49,5.71,5.71,0,0,0-5,2.33c-4.1,5.3-8.23,10.59-12.33,15.9a15.91,15.91,0,0,0-3.24,6.62C71.09,428.19,70.54,431.73,69.92,435.27ZM625.11,226h-4A23.74,23.74,0,0,0,611,227.63c-4.75,2.09-9.55,4.08-14.31,6.14a98.94,98.94,0,0,1-16.27,5.68,3.22,3.22,0,0,0-2.58,2.8,3.18,3.18,0,0,0,1.52,3.5,17.19,17.19,0,0,0,2.05,1.24c2.1,1,4.23,1.87,6.34,2.81,5.08,2.28,10.51,3.31,16,4.14,5.88.89,11.41-.66,16.73-3.13a122.46,122.46,0,0,0,18.83-10.48,12.83,12.83,0,0,1,7.72-2.8,21.13,21.13,0,0,0,5.67-.87,11.31,11.31,0,0,0,3.86-1.81c2.89-2.16,2.65-5.52-.4-7.4-.54-.34-1.09-.65-1.65-1-4.16-2.27-8.63-2.24-13.1-1.58C636.18,225.67,631,226.77,625.11,226ZM406.25,495.52c.74-.06,1.46,0,2.17-.18a5.94,5.94,0,0,0,4.87-5.85,9.57,9.57,0,0,0-1.47-5.23c-.93-1.48-2.08-2.83-3-4.33a24.65,24.65,0,0,1-2.24-4.44c-1.09-3.16-.26-6.32.41-9.44.44-2,1-4,1.44-6,.35-1.71.29-3.43-1.32-4.55s-3.16-.22-4.66.6a33.25,33.25,0,0,1-5.32,2.7,11.3,11.3,0,0,1-10.51-1.26,33.77,33.77,0,0,0-6.16-3.16,18.49,18.49,0,0,0-4.84-1.27c-2.76-.32-4.72,2.06-3.52,4.38,2.06,4,1.88,7.95.43,12-1.14,3.23-2.26,6.48-3.25,9.76a13.72,13.72,0,0,0-.53,4,3.75,3.75,0,0,0,2.92,3.66,4.22,4.22,0,0,0,4.2-1.11c1.27-1.09,2.4-2.33,3.6-3.5S381,481,382.35,482a20,20,0,0,1,2.58,2.13c3.74,3.51,7.6,6.88,12.44,8.8C400.24,494,403.11,495.27,406.25,495.52Zm-345.76-296c.13,2.62.13,5.27.41,7.88.87,8.14,3.88,15.12,11.06,19.75a8.38,8.38,0,0,1,1,.73,3.7,3.7,0,0,0,4.63.34,25.82,25.82,0,0,1,4.18-1.71,24.68,24.68,0,0,1,9-1,18.72,18.72,0,0,0,3.59-.07c3.4-.53,5.63-4.52,2.94-7.37a16.72,16.72,0,0,0-5-3.57c-2.8-1.36-5.63-2.66-8.31-4.24a16.57,16.57,0,0,1-8.14-11,32.51,32.51,0,0,1-.71-11.9c.69-4.65,1.58-9.29,2.6-13.88a71.71,71.71,0,0,1,2.47-7.74c.75-2.12.26-4.08-1.39-5s-3.49-.49-4.88,1.52S71.26,166,70,168a52,52,0,0,0-7.22,16.62A80.73,80.73,0,0,0,60.49,199.52Zm28.82,287a17.8,17.8,0,0,1,1.62,2.34,7,7,0,0,0,4.17,3.74,16.58,16.58,0,0,0,5.14.93,26.21,26.21,0,0,1,8.49,1.12,13.72,13.72,0,0,0,6.15.53c2.59-.37,4.78-4,3.74-6.44a10.38,10.38,0,0,0-3.58-4.7,8,8,0,0,1-3.82-7.68c.23-3.53-.92-6.6-4.12-8.62a6.67,6.67,0,0,1-2.93-4.72c-.65-3.25-3.11-4.17-5.92-2.37C95,462.77,91.71,465,88.35,467a12.16,12.16,0,0,1-4,1.41c-2.48.46-3.26,1.36-2.85,3.92a43.79,43.79,0,0,1,.23,13.13c-.2,1.43-.44,2.85-.56,4.28a2.63,2.63,0,0,0,1.92,2.94,2.58,2.58,0,0,0,3.14-1.54c.35-.71.49-1.52.81-2.25C87.45,487.94,87.73,486.87,89.31,486.53Zm64.89-10.07c.12,1.83.26,4.22.45,6.61a13.5,13.5,0,0,0,.38,2.36c.85,3.29,3.88,4.74,6.88,3.13a9.89,9.89,0,0,0,3-2.68c1.17-1.5,2.08-3.21,3.12-4.82.89-1.38,1.58-1.44,2.47-.08,1.09,1.67,2,3.48,3.14,5.1a16.31,16.31,0,0,0,3.33,3.69,23.43,23.43,0,0,0,9.42,4,10.34,10.34,0,0,0,3.78-.25,4.27,4.27,0,0,0,2.58-7,40.79,40.79,0,0,1-6.91-15.38,5.15,5.15,0,0,0-2.51-3.59c-2.66-1.47-5.35-2.87-8-4.31a20.21,20.21,0,0,0-17.55.44,5.25,5.25,0,0,0-2.92,4.36C154.67,470.63,154.44,473.26,154.2,476.46ZM688.62,354.24a36.06,36.06,0,0,0-.72-4c-1.14-3.79-4.59-5.33-8.1-3.57-3.14,1.57-6.18,3.35-9.33,4.92a37.86,37.86,0,0,0-12.32,10.46c-3.95,4.86-4,9.18-.07,14.05a58,58,0,0,0,9.37,8.9c3.17,2.5,6.44,2.05,8.6-1.39a39.88,39.88,0,0,0,3.68-7.75,56.66,56.66,0,0,1,3.45-7.61,93.23,93.23,0,0,0,4.17-8.88A33.79,33.79,0,0,0,688.62,354.24ZM109.07,161.79a12.76,12.76,0,0,0-3.31-9.7,14.61,14.61,0,0,0-10.86-4.8,12.48,12.48,0,0,0-10.13,4.55,3.21,3.21,0,0,0-.52,3.79,3.47,3.47,0,0,0,3.4,1.82,8.72,8.72,0,0,0,1.41-.26c5.07-.89,8.65,2,8.76,7.18a14.93,14.93,0,0,1-2,7.56,34.68,34.68,0,0,1-12.73,13.65,3.33,3.33,0,0,0-1.8,4c.65,2.79,2,4.46,3.91,4.6a3,3,0,0,0,1.41-.2,10.92,10.92,0,0,0,2.73-1.43,51.73,51.73,0,0,0,5.41-5q4.38-4.92,8.43-10.13C106.71,172.82,109,167.71,109.07,161.79ZM27.15,164a25.6,25.6,0,0,0,5.56,15.78,20.27,20.27,0,0,1,1.5,2.16,27.4,27.4,0,0,0,13.56,11.31,3.94,3.94,0,0,0,5.58-2.44,17.66,17.66,0,0,0,.83-4c.25-2.44-.5-3.41-2.8-4.37a16.49,16.49,0,0,1-4-2.09,77.83,77.83,0,0,1-6.8-6c-3.78-3.79-6.24-8.25-6.14-13.8a3.82,3.82,0,0,0-.13-.95,3.48,3.48,0,0,0-3.5-2.71,2.88,2.88,0,0,0-3.2,2.6A42,42,0,0,0,27.15,164Z" transform="translate(-0.48 -0.48)"/><path class="cls-1" d="M164.6,178.77a143.3,143.3,0,0,1,24,3.3,53.51,53.51,0,0,1,15.22,5.63c6.78,3.74,12.92,8.33,17,15.11a26,26,0,0,0,11,9.95,84.5,84.5,0,0,1,9.26,5.46c5.15,3.45,8.72,8.37,12.13,13.44a25.88,25.88,0,0,0,3.4,4,37.49,37.49,0,0,1,7.49,9.88,23.24,23.24,0,0,1,2.13,13.54,14.42,14.42,0,0,1-5.49,9.54,46.86,46.86,0,0,1-8.23,5.32,88.57,88.57,0,0,1-23.1,8.49,34.15,34.15,0,0,1-15.22-.06c-8.2-2.07-16.44-4-24.65-6.1a43.3,43.3,0,0,0-21.1-.35c-3.89.93-7.9,1.66-11.86.62a40,40,0,0,1-8.29-3c-5.22-2.72-7.72-9.37-6-15.07a17.93,17.93,0,0,1,4-7c1.62-1.76,3.18-3.59,4.67-5.46a20.24,20.24,0,0,0,3.59-7.26c.54-1.92.2-3-1.62-3.67a18.1,18.1,0,0,0-5.29-1.32,53.87,53.87,0,0,0-18.89,2.62A63.06,63.06,0,0,1,121,238.1a6,6,0,0,1-5.42-2c-5.61-5.81-9.67-12.48-11.14-20.53a28.89,28.89,0,0,1-.45-3.81,10,10,0,0,1,2.26-7.35,59.1,59.1,0,0,1,21.42-16.61c7.3-3.24,14.74-6.25,22.69-7.49C155.05,179.58,159.84,179.27,164.6,178.77Z" transform="translate(-0.48 -0.48)"/><path class="cls-1" d="M256.08,167.1A225.89,225.89,0,0,1,289.71,170q21.19,3.42,42.05,8.5a9.77,9.77,0,0,1,7.7,7.27,82.46,82.46,0,0,0,7,15.73c2.37,4.31,5.75,7.6,9.14,11,6.06,6.05,13.52,9.87,21.05,13.59,2.3,1.13,4.54,2.37,6.87,3.43,5,2.27,6.86,6.54,7.08,11.59.32,7.18-2.57,13.35-7.32,18.46a42.31,42.31,0,0,1-32.05,13.91c-7.67,0-15.35-.21-22.9-1.79a194.18,194.18,0,0,1-22.63-6.22,48.28,48.28,0,0,1-6-2.89c-1.49-.76-2.93-1.64-4.42-2.4-7.34-3.75-12.85-9.15-15.58-17.1-1.17-3.4-2.4-6.78-3.51-10.19a13.2,13.2,0,0,0-3.88-5.95,69.17,69.17,0,0,0-14.82-10.07c-6.21-3.14-12.68-5.69-18.93-8.73A19.65,19.65,0,0,1,231.4,203a20.75,20.75,0,0,1-3.29-5.51c-1.34-3.68-4.05-6.08-6.91-8.38s-5.83-4.46-8.75-6.69a5.23,5.23,0,0,1,1.36-9.11,95.23,95.23,0,0,1,11-3.26A154.17,154.17,0,0,1,256.08,167.1Z" transform="translate(-0.48 -0.48)"/><path class="cls-1" d="M278.07,434.3c-7.83.29-15.28-1.58-22.74-3.45-4.34-1.09-8.73-2.1-12.74-4.13-5.54-2.81-11.16-5.35-16.31-9A110.71,110.71,0,0,1,211.05,405c-3.43-3.52-7.59-6.34-11.43-9.47-.31-.25-.64-.48-1-.73a8.69,8.69,0,0,1-.46-13.54c1.11-1,2.29-2,3.42-3,4.32-3.82,5.75-8.64,5-14.27a81.29,81.29,0,0,1-.81-9.06c-.11-8.11,5-14.35,13-16.22a30.58,30.58,0,0,1,10.47-.67c5,.58,9.33,2.68,12.16,7.17a39.28,39.28,0,0,1,4.5,10.53,75.33,75.33,0,0,0,3.82,11.32,26.1,26.1,0,0,0,5.13,7.47c3.5,3.54,8.14,4.31,12.91,3.48a56.58,56.58,0,0,0,8-2.41c5.14-1.72,10.23-3.65,15.42-5.19a18.38,18.38,0,0,1,6.61-.57,11.84,11.84,0,0,1,8.46,4.94c1.75,2.28,3.51,4.56,5.1,7a10.93,10.93,0,0,0,8.42,5.23,24.36,24.36,0,0,1,8.51,2.32,11.72,11.72,0,0,1,5.92,6.61,16.29,16.29,0,0,1,.36,11.28c-3.51,10.27-10,17.65-20.51,21.23a76.67,76.67,0,0,1-15,3.9C292.08,433.18,285.06,433.66,278.07,434.3Z" transform="translate(-0.48 -0.48)"/><path class="cls-1" d="M420,266.28c-3.1.57-5.53-1.07-7.92-2.43a23.11,23.11,0,0,1-7.11-6.36,14.64,14.64,0,0,1-2.82-7.77c-.26-3.42-.33-6.88-.88-10.26-1.12-6.8-4.51-12.32-10.51-15.86-4.32-2.55-8.89-4.7-13.39-6.93A84.55,84.55,0,0,1,357.22,203a17.46,17.46,0,0,1-5.94-13.38c0-3.92,1.73-7.19,4.06-10.28,2.78-3.7,6.72-4.64,10.93-5,8.9-.88,17.53.67,26,3.16s16.64,5.2,25.24,6.66c10.32,1.75,20.67,3.3,31,4.94,5.72-.32,11.07,1.38,16.4,3.07a72.37,72.37,0,0,1,8,3.23,7.54,7.54,0,0,1,4.33,5.43,14.82,14.82,0,0,1-1.38,11.35c-1.68,2.9-3.28,5.86-4.87,8.81a15,15,0,0,0-.76,13,11.64,11.64,0,0,1-.47,9.08c-2,4.71-5.62,7.87-10.17,10.06-9.59,4.62-19.36,8.77-29.73,11.3C426.6,265.1,423.29,265.63,420,266.28Z" transform="translate(-0.48 -0.48)"/><path class="cls-1" d="M358.67,296.21a24.08,24.08,0,0,1-1.58,8.68,10.76,10.76,0,0,1-4.42,5.79c-3.39,2.1-6.75,4.27-10.22,6.24a29.83,29.83,0,0,0-13.31,15.79,75.54,75.54,0,0,1-17.51,27.2c-3.43,3.35-7.26,4.83-12,3.47-.92-.26-1.9-.33-2.79-.67-5.33-2-10.51-1.18-15.69.62-3.61,1.26-7.24,2.51-10.92,3.54a19.77,19.77,0,0,1-5,.41,7.41,7.41,0,0,1-6.29-3.35,13.23,13.23,0,0,1-1.76-3.13c-2.6-7.07-6.41-13.56-9.84-20.23-.29-.57-.57-1.14-.84-1.72a15.55,15.55,0,0,1-.94-11A31.89,31.89,0,0,1,260,308.83a86.58,86.58,0,0,1,10.09-5,30.85,30.85,0,0,0,9.23-6.35,15.58,15.58,0,0,0,4.39-14.74c-.76-3.9.32-7.27,2.37-10.45a7.6,7.6,0,0,1,6.38-3.55,14.12,14.12,0,0,1,11.15,3.94c3.56,3.31,7.22,6.51,10.84,9.75a6.41,6.41,0,0,0,4.92,1.41c4.38-.28,8.77-.6,13.15-.92a52.12,52.12,0,0,1,18.94,2.14c5.45,1.64,7.32,5.1,7.26,10.15Z" transform="translate(-0.48 -0.48)"/><path class="cls-1" d="M637.7,385.71c.53,4.11,1.07,7.73,1.45,11.36.31,3,0,6.09-2,8.44-4.5,5.39-9.87,9.14-17.46,7.7a63,63,0,0,1-15.1-4.49c-6.07-2.86-12.22-5-19-5.33-10-.51-19.8-.38-29.49,2.33-5.77,1.62-11.61,3-17.44,4.39a44.06,44.06,0,0,1-15.94.92,27.63,27.63,0,0,1-15.39-7.19A58.42,58.42,0,0,1,495,389c-.23-.42-.44-.85-.69-1.26a6.61,6.61,0,0,1,.42-8,60.34,60.34,0,0,1,11.62-12.05,57,57,0,0,1,17.83-9.11c2.76-.82,5.48-1.78,8.17-2.79a51.73,51.73,0,0,1,14.51-3,28.66,28.66,0,0,1,12.25,1.73c5.76,2.15,11.47,4.43,17.22,6.63,5.37,2.05,10.77,4,16.13,6.1,3.34,1.29,6.87,1.45,10.35,1.84a91.16,91.16,0,0,0,16.52.35A62.27,62.27,0,0,1,644,371.33c3.29.77,5.45,3,6.87,6.14a64.92,64.92,0,0,0,4.51,7.6,15.76,15.76,0,0,0,1.49,1.88,4.51,4.51,0,0,1-3.34,7.51,9.38,9.38,0,0,1-7-2.53c-1.76-1.49-3.55-2.95-5.41-4.33A32.29,32.29,0,0,0,637.7,385.71Z" transform="translate(-0.48 -0.48)"/><path class="cls-1" d="M50.68,310.09c0-3.59-.1-7.19,0-10.77.33-9.61,2.87-18.79,5.67-27.88a105.36,105.36,0,0,1,10.42-23.63c2.31-3.81,4.69-7.67,8.48-10.26,5.17-3.54,10.82-5.44,17.17-4.71a25.88,25.88,0,0,0,2.63.21c4.51.06,7.65,2.4,10.11,5.93.73,1.05,1.53,2.05,2.24,3.12a7.08,7.08,0,0,0,6.33,3.25c3.18,0,6.37-.41,9.54-.74,3.33-.36,6.65-.85,10-1.26a9.41,9.41,0,0,1,1.68,0c3,.17,4.43,2.36,3.33,5.15-1,2.53-1.95,5.08-3.13,7.52A38.22,38.22,0,0,0,132,268.46c-.55,4.76-.83,9.55-1.44,14.31a27.16,27.16,0,0,1-10.88,19c-2.87,2.17-5.79,4.27-8.7,6.38a63.27,63.27,0,0,0-16.63,17.42c-1.29,2-2.76,3.92-4,5.94a35.61,35.61,0,0,1-12.73,11.79c-5.67,3.18-11.65,4.27-17.93,1.57A10.2,10.2,0,0,1,53.29,337,115.6,115.6,0,0,1,51,313.21c0-1,0-2.08,0-3.12Z" transform="translate(-0.48 -0.48)"/><path class="cls-1" d="M346,335.46a14.65,14.65,0,0,1,2.12-8,34.64,34.64,0,0,1,9.1-11,31.41,31.41,0,0,0,9.58-12.67A91.21,91.21,0,0,0,372,288.37c.26-1.08.53-2.18.89-3.23,3.56-10.2,11.1-15.43,21.48-17.05a20.1,20.1,0,0,1,7.82.7c4.82,1.15,9,3.62,13.25,6a23.79,23.79,0,0,0,7.69,2.55c3.6.66,6.59-.86,9.53-2.47,3.93-2.15,7.78-4.43,11.6-6.76a18.25,18.25,0,0,1,8.64-2.57,8.33,8.33,0,0,1,8.7,10.23,34.42,34.42,0,0,1-1.09,3.68c-2.36,7-4.63,14.12-7.15,21.1-1.62,4.47-.89,8.67.78,12.82a32.93,32.93,0,0,1,2.33,10.23c.28,4.39.52,8.82-.48,13.14a35.37,35.37,0,0,1-7.27,14.42,68,68,0,0,1-10.79,10.53,18.54,18.54,0,0,1-18.91,3.1,14,14,0,0,1-8.76-16.43,24.2,24.2,0,0,1,6.41-10.8,13.92,13.92,0,0,0,3.36-5.73,7.8,7.8,0,0,0,.4-2.57,29.85,29.85,0,0,0-2.54-10.43,9.29,9.29,0,0,0-2.39-2.89,15.24,15.24,0,0,0-3.23-2.05,6.17,6.17,0,0,0-2.71-.84,25,25,0,0,0-14.07,4,252.05,252.05,0,0,0-20.57,16.13c-2.69,2.27-5.43,4.48-8.13,6.73a21.75,21.75,0,0,1-10.15,4.63C349.9,345.78,345.71,342.63,346,335.46Z" transform="translate(-0.48 -0.48)"/><path class="cls-1" d="M276.14,281.9a13.73,13.73,0,0,1-1.92,6.59c-3.88,7.13-10,11.41-17.42,14.24a27.34,27.34,0,0,0-3.69,1.69c-4.38,2.47-8.7,5.06-13.11,7.49a59.39,59.39,0,0,1-6.71,3.15c-5.72,2.28-11.51,4.37-17.21,6.69a47.62,47.62,0,0,0-15.24,9.32,22.23,22.23,0,0,0-7,13.83c-.67,5.47.09,10.85.83,16.22a21.25,21.25,0,0,1-3.54,15,5.54,5.54,0,0,1-5.6,2.53c-2.4-.29-4.69-.91-6.38-2.89q-2.77-3.3-5.7-6.47a32.42,32.42,0,0,0-9.35-6.62c-1.93-1-3.82-2-5.7-3.08a21.48,21.48,0,0,1-6.07-5c-3.79-4.59-8.44-8.29-12.92-12.15-1.45-1.26-2.81-2.62-4.24-3.89a53.42,53.42,0,0,0-7.5-5.95,28.6,28.6,0,0,1-8.08-7.77,9.2,9.2,0,0,1,.13-11.73,42.89,42.89,0,0,1,4.76-5.06c4.56-4.36,8.44-9.16,10.5-15.24.34-1,.9-1.88,1.25-2.85,1.6-4.35,7.18-7.74,12.61-7.55a4.69,4.69,0,0,1,1.87.36c3.72,1.84,7.75,2.43,11.78,3,4.9.74,9.77,1.64,14.67,2.31,2.77.38,5.58.4,8.36.66a299.17,299.17,0,0,0,37.87.93,64,64,0,0,0,27.06-6.43c3.85-1.93,7.67-3.93,11.58-5.74a15.67,15.67,0,0,1,10.32-1C275.22,277.24,276.11,278.67,276.14,281.9ZM156.65,346.05c3.69-3.07,7.67-6.15,11.37-9.54a49.19,49.19,0,0,0,6.13-7,10.67,10.67,0,0,0,1.57-9.37,6.33,6.33,0,0,0-2.38-3.47c-3.77-3-9-2.05-12,.34-1.62,1.25-3,2.76-4.82,4.4a9.13,9.13,0,0,0-1.18-1.53,17.44,17.44,0,0,0-7.39-4.27c-4.75-1.14-9.93.52-11.47,5.92a9.76,9.76,0,0,0,2.21,9.76c5,5.71,11.12,10.06,17.17,14.52A3.76,3.76,0,0,0,156.65,346.05Z" transform="translate(-0.48 -0.48)"/><path class="cls-1" d="M639.79,362.56a36.45,36.45,0,0,1-14.36-3.39c-4-1.8-7.84-3.7-10.9-6.8s-5.7-6.24-8.4-9.49C604.6,341,603.35,339,602,337a24.06,24.06,0,0,0-13.58-9.25,30.57,30.57,0,0,1-10.16-5.26,8.43,8.43,0,0,0-.74-.6c-6.25-3.75-8-9.81-7.92-16.46a80.61,80.61,0,0,0-1.6-15.21,16.47,16.47,0,0,0-5.89-10.11q-6.87-5.61-13.53-11.47a54.54,54.54,0,0,1-5.44-5.72,13.35,13.35,0,0,1-2.79-6.29,9.18,9.18,0,0,1,5.38-10.41c7.46-3.49,14.87-2.53,22,.64,4.06,1.8,7.77,4.4,11.63,6.65,3.17,1.85,6.32,3.73,9.49,5.57a29.87,29.87,0,0,1,7,5.38,10.47,10.47,0,0,1,2.83,10.15,22.5,22.5,0,0,0,1.15,14.3,40.88,40.88,0,0,0,8.28,13.1,20.66,20.66,0,0,0,9.84,6.15c2.93.75,5.82,1.75,8.8,2.3,6.47,1.2,11.8,4.57,16.33,9,2.57,2.53,4.43,5.84,6.32,9a48.77,48.77,0,0,1,3.12,7,18.68,18.68,0,0,0,4.32,6.81c3.41,3.26,3.68,5,1.16,9a39,39,0,0,1-7.83,9c-1.81,1.52-4.11,1.68-6.31,2C642.52,362.51,641.15,362.49,639.79,362.56ZM591.9,314.2a31.64,31.64,0,0,0-2.26-10.5,27.59,27.59,0,0,0-2.37-4.7,4.84,4.84,0,0,0-5.61-2.19c-2.32.57-4.22,1.66-4.58,4.28-1.08,8,2,14.31,9.61,17.65,2.76,1.2,4.23.48,5-2.41A16.73,16.73,0,0,0,591.9,314.2Z" transform="translate(-0.48 -0.48)"/><path class="cls-1" d="M470.93,286.67a28.08,28.08,0,0,1,2-7.68,11.86,11.86,0,0,0,1-5.1c-.81-8,1.26-15.35,4.22-22.63a60.67,60.67,0,0,0,2.39-8.26c1-3.88.48-7.78-.16-11.66-1.07-6.53.48-12.53,3.69-18.18,1-1.81,2.05-3.62,3.1-5.41a23.7,23.7,0,0,1,1.7-2.6c2.07-2.63,4.24-3.16,7.42-2.13,9.11,3,17.44,7.53,25.66,12.34a77.19,77.19,0,0,1,7.31,4.57c3.51,2.63,7,5.29,9.75,8.81a35.48,35.48,0,0,0,2.39,2.68c1.88,2,2.32,3.68.95,6.08a43.9,43.9,0,0,1-4.18,5.51c-1,1.24-2.24,2.32-3.1,3.64-3.32,5.07-4.61,10.49-2.37,16.39a14.51,14.51,0,0,0,4.73,6.5c1.63,1.28,3.15,2.71,4.68,4.11a7.5,7.5,0,0,1,2.16,7.46,4.52,4.52,0,0,1-1.11,2.06,9.77,9.77,0,0,1-2.43,1.91c-5.72,3-11.63,3.91-17.8,1.47-2.67-1.06-5.3-2.24-8-3.18a20.44,20.44,0,0,0-5.12-1.1,7.8,7.8,0,0,0-7.22,3.44,39.31,39.31,0,0,1-8.07,8.17,23.82,23.82,0,0,1-11.32,4.89,15.46,15.46,0,0,1-5.21-.21,8,8,0,0,1-6.37-6.43A44.93,44.93,0,0,1,470.93,286.67Z" transform="translate(-0.48 -0.48)"/><path class="cls-1" d="M125.24,405.26c-6.41,0-11-1.44-14.93-5.17a27.41,27.41,0,0,0-10.43-6.65,23.23,23.23,0,0,0-7.07-1.12,16.1,16.1,0,0,1-4.48-.56c-13.92-4-23.48-12.87-28.78-26.31-1-2.6-1.66-5.34-2.53-8a3,3,0,0,1,.92-3.47,3.55,3.55,0,0,1,3.82-.6A22.89,22.89,0,0,1,65,354.87a8.33,8.33,0,0,0,6.74.5,40.9,40.9,0,0,0,13-6.46c3.59-2.68,7.17-5.38,10.55-8.31,3.19-2.76,6.52-4.69,10.93-4.69a20.59,20.59,0,0,1,12.92,4.31,38.63,38.63,0,0,1,3.56,3.21c2.48,2.5,4.94,5,7.35,7.58a26.19,26.19,0,0,0,10.08,6.71,69,69,0,0,1,18.5,10.46,26.12,26.12,0,0,1,8,9.75,34.55,34.55,0,0,0,2.07,3.5c2.65,4.29,1.94,7.88-2.19,10.78a13.43,13.43,0,0,1-2.49,1.44c-5.83,2.41-11.66,4.81-17.52,7.14a61.25,61.25,0,0,1-14,3.32C129.76,404.53,126.93,405,125.24,405.26Z" transform="translate(-0.48 -0.48)"/><path class="cls-1" d="M488.48,488.58c-8-.5-15.53-3.14-20.48-10.79-1-1.61-2.2-3.15-3.19-4.78a11.72,11.72,0,0,0-4.47-3.89,2.6,2.6,0,0,0-3.3.38,29.3,29.3,0,0,0-6.38,8c-.27.49-.44,1-.73,1.51-1.06,1.68-2.38,3.19-4.58,2.88s-4.49-1.33-5-3.84a59.29,59.29,0,0,1-1.51-10.64c-.22-10.48-1.14-20.91-2.19-31.33-.31-3.13-1.59-6.16-2.44-9.23-.46-1.7-1-3.37-1.42-5.08A20.44,20.44,0,0,1,433,410.9c.73-2.45,1.55-4.87,2.24-7.33.8-2.87,2.84-4.32,5.52-5.11,4.29-1.25,8.63-2.36,12.86-3.79,6.28-2.12,12.48-4.47,18.71-6.71,2.17-.78,4.26-1.73,6.69-1.65a4.72,4.72,0,0,1,4.91,5,12.28,12.28,0,0,1-.42,3.53c-1,3.21-2.13,6.36-3.17,9.55-1.21,3.72-2.63,7.4-3.51,11.19a30.59,30.59,0,0,0,.56,15.63c1.28,4.45,2.66,8.87,4.09,13.28q2.58,8,5.32,15.89a13.53,13.53,0,0,0,1.91,3.84c2.46,3.12,4.52,6.58,7.79,9.05a12.11,12.11,0,0,1,3.92,6.2,5.82,5.82,0,0,1-3.41,7.26A19.73,19.73,0,0,1,488.48,488.58Z" transform="translate(-0.48 -0.48)"/><path class="cls-1" d="M503.35,330.81c.47-9.29.79-16.14,2-22.94a21,21,0,0,1,8.49-13.69c3.11-2.31,6.36-1.77,9.5-.18a25.94,25.94,0,0,0,6.19,2.48c4.94,1.09,9.58,0,14-2.05,1.51-.7,2.62-2.29,3.86-3.52.62-.62,1.1-1.37,1.7-2,1.95-2.12,4.26-2.12,6.14.12a21.18,21.18,0,0,1,4.41,9.47c1,5,1.84,10,3,15a39.93,39.93,0,0,0,2.46,7,11.44,11.44,0,0,0,4.74,5.24q7.07,4.3,14,8.85c2.26,1.49,4.38,3.21,6.51,4.89,2.44,1.93,4.88,3.88,7.2,6a46.87,46.87,0,0,1,5.21,5.24,3.92,3.92,0,0,1-2.16,6.44c-4.22.93-8.52,1.5-12.82.35a63.75,63.75,0,0,1-14.36-5.92c-7.61-4.18-15.65-7.3-24.37-8.23a26.61,26.61,0,0,0-13.63,1.89Q526.55,349,517.81,353c-3.56,1.6-6.4.84-8.42-2.47C505.25,343.7,502.76,336.47,503.35,330.81Z" transform="translate(-0.48 -0.48)"/><path class="cls-1" d="M335.57,354.33c4.56.79,9.19,1.31,13.65,2.44,9.57,2.43,17.31-.79,24-7.33,3.31-3.23,6.17-6.92,9.39-10.25a99.17,99.17,0,0,1,8.73-8.18A25,25,0,0,1,402,325.76c3.52-.73,5.41.44,6,4A14,14,0,0,1,406,340.09c-1.82,2.73-3.73,5.39-5.68,8a19.48,19.48,0,0,0-3.71,10.47,6.48,6.48,0,0,0,5.25,6.91c3.28.83,4.28,3.37,2.25,6.12a29,29,0,0,1-4,4.39,13.3,13.3,0,0,0-3.53,4.73,23.38,23.38,0,0,1-7.66,9.95,60,60,0,0,1-6.56,4.39,128.05,128.05,0,0,0-21.95,15c-3.32,2.74-6.81,5.34-11.16,6.32a26.77,26.77,0,0,1-3.77.65,3.58,3.58,0,0,1-4.07-3.46,13.75,13.75,0,0,1,1.16-6.55c.75-1.85,1.62-3.64,2.38-5.49a31.21,31.21,0,0,0,1.37-3.83c.89-3.36-.22-5.63-3.42-6.9a9.57,9.57,0,0,1-5.87-5.6,43.87,43.87,0,0,0-2.13-4.29,9.53,9.53,0,0,0-4-3.72c-1.86-1.09-3.76-2.13-5.54-3.33a14.64,14.64,0,0,1-4.89-5.5c-1-1.91-1.2-3.84.15-5.66C324.34,357.69,328.84,354.14,335.57,354.33Z" transform="translate(-0.48 -0.48)"/><path class="cls-1" d="M634.8,304c-.72,0-1.44-.11-2.16-.1-6.17.09-10.85-2.83-14.69-7.34a33.65,33.65,0,0,0-8.78-7.7,6.39,6.39,0,0,1-3.06-4.1c-1-3.8-.88-7.38,1.32-10.8,1.38-2.14,2.55-4.43,3.78-6.67a25.39,25.39,0,0,1,5.72-7,17.56,17.56,0,0,1,7.47-3.56c9.88-2.46,19.86-2.1,29.8-1s19.64,2.62,29.44,4a34.52,34.52,0,0,1,4.92,1.07c3.52,1,4.52,4.06,2.11,6.86-3.9,4.53-7.67,9.17-13.28,11.9a24.43,24.43,0,0,0-6,4.69c-2.51,2.45-4.82,5.11-7.12,7.76-5.56,6.4-12.78,9.71-20.9,11.29-2.81.54-5.69.67-8.55,1Z" transform="translate(-0.48 -0.48)"/><path class="cls-1" d="M394.6,450.74c-2.92-.76-6-1.33-8.9-2.39-3.67-1.34-7.2-3-10.77-4.64-2.65-1.19-4.34-3-4.49-6.18a20.78,20.78,0,0,0-4.2-11,24.08,24.08,0,0,1-1.9-3.59,4.5,4.5,0,0,1,1-5.49,15.2,15.2,0,0,1,3.14-2.58c2.19-1.29,4.52-2.38,6.77-3.59,4.71-2.53,9.59-4.82,14.06-7.72A108,108,0,0,0,400,395a9.14,9.14,0,0,0,2.88-4.61c2.4-8.54,8.71-12.95,16.72-15.22,2.14-.61,4.6-.27,6.89-.09a3.46,3.46,0,0,1,2.25,1.54c2.41,4.18,3,8.55.87,13.05-.66,1.36-1.49,2.64-2.28,3.94a15.87,15.87,0,0,0-2.53,9.32,52,52,0,0,1-.95,14.79,69.72,69.72,0,0,1-3.07,9c-.71,1.86-1.84,3.56-2.51,5.44-2.09,5.85-6.08,10.08-11.2,13.31a54.3,54.3,0,0,1-7.18,3.83A33.85,33.85,0,0,1,394.6,450.74Z" transform="translate(-0.48 -0.48)"/><path class="cls-1" d="M498.47,307.84c-.94,4.45-2.05,8.87-2.77,13.35-.93,5.83-1.6,11.7-2.3,17.57a17.36,17.36,0,0,0,1,7.53c1.07,3.26,2,6.57,2.85,9.89,1.15,4.38-.46,7.85-3.86,10.57a23.24,23.24,0,0,1-3.63,2.31c-7.51,4.09-15,8.26-22.57,12.15a145.12,145.12,0,0,1-13.59,5.94,15.25,15.25,0,0,1-7.77,1c-4.56-.67-7.36-3.3-8-7.83a11.14,11.14,0,0,1,2.31-9c2.59-3.2,5.87-5.62,9-8.27a121,121,0,0,0,9.82-9.12c4.76-5.07,7-11.35,7.63-18.23a67.56,67.56,0,0,0-1.22-19.76c-.2-1-.39-2-.54-3.07a4.92,4.92,0,0,1,4.38-5.74,11,11,0,0,1,6.72,1.32,8.6,8.6,0,0,0,8.47-.16,57.93,57.93,0,0,0,6.15-3.7,7.46,7.46,0,0,1,3.74-1.43c2.67-.2,4.09,1.06,4.08,3.73,0,.32-.05.63-.07.95Z" transform="translate(-0.48 -0.48)"/><path class="cls-1" d="M188.29,403.79a15.64,15.64,0,0,1-1.3,6.52,64.49,64.49,0,0,0-4.05,18.18c-.38,5.67.93,11.14,2.38,16.54a20.05,20.05,0,0,1,.18,9.94,3.73,3.73,0,0,1-4.47,3,12.44,12.44,0,0,1-3.43-1,27.07,27.07,0,0,0-13.79-2.21,57.11,57.11,0,0,1-7.16-.13,3.75,3.75,0,0,1-3.48-2.83c-.63-1.9-1.17-3.83-1.94-5.67a97.84,97.84,0,0,0-5.09-11.33,27.71,27.71,0,0,0-11-10.14c-4-2.21-4.6-7.14-3.14-10.17a7.36,7.36,0,0,1,3.11-3.21,21.86,21.86,0,0,1,9-3.09c5.63-.55,10.87-2.45,16.21-4.09a48.63,48.63,0,0,0,17.54-9.57c2.2-1.87,3.36-1.9,5.86-.55a8.2,8.2,0,0,1,4.37,6.49C188.25,401.55,188.23,402.67,188.29,403.79Z" transform="translate(-0.48 -0.48)"/><path class="cls-1" d="M69.92,435.27c.62-3.54,1.17-7.08,1.87-10.6A15.91,15.91,0,0,1,75,418.05c4.1-5.31,8.23-10.6,12.33-15.9a5.71,5.71,0,0,1,5-2.33,18.11,18.11,0,0,1,12.37,5.49,56.74,56.74,0,0,0,6.9,5.54,17.81,17.81,0,0,1,6,7c1.19,2.43.66,4.85-.63,7.09a43.63,43.63,0,0,1-3.14,4.81,34,34,0,0,0-4.16,7.23,15.64,15.64,0,0,1-2.17,3.41c-5.79,7.07-12.07,13.66-19.66,18.83a13.33,13.33,0,0,1-4.1,1.86c-2.24.56-3.57-.33-4.54-2.47a15.48,15.48,0,0,0-1.3-2.27c-3.8-5.71-6.86-11.72-7.55-18.69-.08-.79-.13-1.59-.19-2.38Z" transform="translate(-0.48 -0.48)"/><path class="cls-1" d="M625.11,226c5.89.81,11.07-.29,16.29-1.05,4.47-.66,8.94-.69,13.1,1.58.56.31,1.11.62,1.65,1,3.05,1.88,3.29,5.24.4,7.4a11.31,11.31,0,0,1-3.86,1.81,21.13,21.13,0,0,1-5.67.87,12.83,12.83,0,0,0-7.72,2.8,122.46,122.46,0,0,1-18.83,10.48c-5.32,2.47-10.85,4-16.73,3.13-5.44-.83-10.87-1.86-16-4.14-2.11-.94-4.24-1.84-6.34-2.81a17.19,17.19,0,0,1-2.05-1.24,3.18,3.18,0,0,1-1.52-3.5,3.22,3.22,0,0,1,2.58-2.8,98.94,98.94,0,0,0,16.27-5.68c4.76-2.06,9.56-4.05,14.31-6.14A23.74,23.74,0,0,1,621.13,226Z" transform="translate(-0.48 -0.48)"/><path class="cls-1" d="M406.25,495.52c-3.14-.25-6-1.48-8.88-2.62-4.84-1.92-8.7-5.29-12.44-8.8a20,20,0,0,0-2.58-2.13c-1.4-.94-1.66-.87-2.87.32s-2.33,2.41-3.6,3.5a4.22,4.22,0,0,1-4.2,1.11,3.75,3.75,0,0,1-2.92-3.66,13.72,13.72,0,0,1,.53-4c1-3.28,2.11-6.53,3.25-9.76,1.45-4.09,1.63-8-.43-12-1.2-2.32.76-4.7,3.52-4.38a18.49,18.49,0,0,1,4.84,1.27,33.77,33.77,0,0,1,6.16,3.16,11.3,11.3,0,0,0,10.51,1.26,33.25,33.25,0,0,0,5.32-2.7c1.5-.82,3-1.77,4.66-.6s1.67,2.84,1.32,4.55c-.41,2-1,4-1.44,6-.67,3.12-1.5,6.28-.41,9.44a24.65,24.65,0,0,0,2.24,4.44c.91,1.5,2.06,2.85,3,4.33a9.57,9.57,0,0,1,1.47,5.23,5.94,5.94,0,0,1-4.87,5.85C407.71,495.47,407,495.46,406.25,495.52Z" transform="translate(-0.48 -0.48)"/><path class="cls-1" d="M60.49,199.52a80.73,80.73,0,0,1,2.26-14.93A52,52,0,0,1,70,168c1.29-1.93,2.59-3.84,3.91-5.75s3.14-2.54,4.88-1.52,2.14,2.92,1.39,5a71.71,71.71,0,0,0-2.47,7.74c-1,4.59-1.91,9.23-2.6,13.88a32.51,32.51,0,0,0,.71,11.9,16.57,16.57,0,0,0,8.14,11c2.68,1.58,5.51,2.88,8.31,4.24a16.72,16.72,0,0,1,5,3.57c2.69,2.85.46,6.84-2.94,7.37a18.72,18.72,0,0,1-3.59.07,24.68,24.68,0,0,0-9,1,25.82,25.82,0,0,0-4.18,1.71,3.7,3.7,0,0,1-4.63-.34,8.38,8.38,0,0,0-1-.73c-7.18-4.63-10.19-11.61-11.06-19.75C60.62,204.79,60.62,202.14,60.49,199.52Z" transform="translate(-0.48 -0.48)"/><path class="cls-1" d="M89.31,486.53c-1.58.34-1.86,1.41-2.27,2.34-.32.73-.46,1.54-.81,2.25a2.58,2.58,0,0,1-3.14,1.54,2.63,2.63,0,0,1-1.92-2.94c.12-1.43.36-2.85.56-4.28a43.79,43.79,0,0,0-.23-13.13c-.41-2.56.37-3.46,2.85-3.92a12.16,12.16,0,0,0,4-1.41c3.36-2,6.61-4.21,9.9-6.32,2.81-1.8,5.27-.88,5.92,2.37a6.67,6.67,0,0,0,2.93,4.72c3.2,2,4.35,5.09,4.12,8.62a8,8,0,0,0,3.82,7.68,10.38,10.38,0,0,1,3.58,4.7c1,2.46-1.15,6.07-3.74,6.44a13.72,13.72,0,0,1-6.15-.53,26.21,26.21,0,0,0-8.49-1.12,16.58,16.58,0,0,1-5.14-.93,7,7,0,0,1-4.17-3.74A17.8,17.8,0,0,0,89.31,486.53Z" transform="translate(-0.48 -0.48)"/><path class="cls-1" d="M154.2,476.46c.24-3.2.47-5.83.63-8.46a5.25,5.25,0,0,1,2.92-4.36,20.21,20.21,0,0,1,17.55-.44c2.66,1.44,5.35,2.84,8,4.31a5.15,5.15,0,0,1,2.51,3.59,40.79,40.79,0,0,0,6.91,15.38,4.27,4.27,0,0,1-2.58,7,10.34,10.34,0,0,1-3.78.25,23.43,23.43,0,0,1-9.42-4,16.31,16.31,0,0,1-3.33-3.69c-1.16-1.62-2.05-3.43-3.14-5.1-.89-1.36-1.58-1.3-2.47.08-1,1.61-1.95,3.32-3.12,4.82a9.89,9.89,0,0,1-3,2.68c-3,1.61-6,.16-6.88-3.13a13.5,13.5,0,0,1-.38-2.36C154.46,480.68,154.32,478.29,154.2,476.46Z" transform="translate(-0.48 -0.48)"/><path class="cls-1" d="M688.62,354.24a33.79,33.79,0,0,1-1.27,5.14,93.23,93.23,0,0,1-4.17,8.88,56.66,56.66,0,0,0-3.45,7.61,39.88,39.88,0,0,1-3.68,7.75c-2.16,3.44-5.43,3.89-8.6,1.39a58,58,0,0,1-9.37-8.9c-3.92-4.87-3.88-9.19.07-14.05a37.86,37.86,0,0,1,12.32-10.46c3.15-1.57,6.19-3.35,9.33-4.92,3.51-1.76,7-.22,8.1,3.57A36.06,36.06,0,0,1,688.62,354.24Z" transform="translate(-0.48 -0.48)"/><path class="cls-1" d="M109.07,161.79c0,5.92-2.36,11-5.89,15.6q-4,5.22-8.43,10.13a51.73,51.73,0,0,1-5.41,5A10.92,10.92,0,0,1,86.61,194a3,3,0,0,1-1.41.2c-1.87-.14-3.26-1.81-3.91-4.6a3.33,3.33,0,0,1,1.8-4,34.68,34.68,0,0,0,12.73-13.65,14.93,14.93,0,0,0,2-7.56c-.11-5.14-3.69-8.07-8.76-7.18a8.72,8.72,0,0,1-1.41.26,3.47,3.47,0,0,1-3.4-1.82,3.21,3.21,0,0,1,.52-3.79,12.48,12.48,0,0,1,10.13-4.55,14.61,14.61,0,0,1,10.86,4.8A12.76,12.76,0,0,1,109.07,161.79Z" transform="translate(-0.48 -0.48)"/><path class="cls-1" d="M27.15,164a42,42,0,0,1,.47-4.51,2.88,2.88,0,0,1,3.2-2.6,3.48,3.48,0,0,1,3.5,2.71,3.82,3.82,0,0,1,.13.95c-.1,5.55,2.36,10,6.14,13.8a77.83,77.83,0,0,0,6.8,6,16.49,16.49,0,0,0,4,2.09c2.3,1,3,1.93,2.8,4.37a17.66,17.66,0,0,1-.83,4,3.94,3.94,0,0,1-5.58,2.44A27.4,27.4,0,0,1,34.21,182a20.27,20.27,0,0,0-1.5-2.16A25.6,25.6,0,0,1,27.15,164Z" transform="translate(-0.48 -0.48)"/><path d="M156.65,346.05a3.76,3.76,0,0,1-.82-.23c-6.05-4.46-12.16-8.81-17.17-14.52a9.76,9.76,0,0,1-2.21-9.76c1.54-5.4,6.72-7.06,11.47-5.92a17.44,17.44,0,0,1,7.39,4.27,9.13,9.13,0,0,1,1.18,1.53c1.78-1.64,3.2-3.15,4.82-4.4,3.08-2.39,8.26-3.32,12-.34a6.33,6.33,0,0,1,2.38,3.47,10.67,10.67,0,0,1-1.57,9.37,49.19,49.19,0,0,1-6.13,7C164.32,339.9,160.34,343,156.65,346.05Z" transform="translate(-0.48 -0.48)"/><path d="M591.9,314.2a16.73,16.73,0,0,1-.25,2.13c-.73,2.89-2.2,3.61-5,2.41-7.64-3.34-10.69-9.65-9.61-17.65.36-2.62,2.26-3.71,4.58-4.28a4.84,4.84,0,0,1,5.61,2.19,27.59,27.59,0,0,1,2.37,4.7A31.64,31.64,0,0,1,591.9,314.2Z" transform="translate(-0.48 -0.48)"/></svg>