<svg id="Layer_1" data-name="Layer 1" xmlns="http://www.w3.org/2000/svg" viewBox="0 0 720 612"><defs><style>.cls-1{fill:none;stroke:#000;stroke-miterlimit:10;stroke-width:0.01px;}</style></defs><path d="M.48,612.48V.48h720v612Zm111.05-202.9c-.18-3.05-.36-7.28-.7-11.5-.23-2.9-3-4.19-5.44-2.65a14.32,14.32,0,0,0-2.35,1.64c-2.26,2.13-5.12,2.48-8,2.79-4.94.53-8.26-2-10.56-6A18.81,18.81,0,0,1,82,385.2,20.9,20.9,0,0,0,77.62,373a6.93,6.93,0,0,0-6.69-2.93,9,9,0,0,0-7.55,5.88c-.56,1.39-1.25,2.74-1.91,4.09A53.77,53.77,0,0,0,59,385c-1.52,4.11-2.86,8.3-4.31,12.44-.64,1.81-1.37,3.58-2.08,5.35a71.45,71.45,0,0,0-2.75,6.85,13.87,13.87,0,0,0,3.94,14.69,7.27,7.27,0,0,1,2.28,4c.18.94.42,1.87.56,2.82,1.17,8.1,3,16,6.66,23.4a24.87,24.87,0,0,0,7.22,9.4c2.43,1.8,4.92,3.53,8.15,3.72a16.36,16.36,0,0,0,11.75-3.92,55.17,55.17,0,0,0,11-12.24,38.07,38.07,0,0,0,5.56-13.17c.92-4.37,1.87-8.74,2.78-13.11A62.4,62.4,0,0,0,111.53,409.58Zm40.29-90.32a30.1,30.1,0,0,0,0-3.27,5,5,0,0,0-4.64-4.39,34.71,34.71,0,0,0-5.49.27c-3.13.43-6,.18-8.64-1.86a8,8,0,0,0-2.24-1.36,27.87,27.87,0,0,0-5.24-1.49,5.6,5.6,0,0,0-5.17,1.93c-.74.84-1.54,1.64-2.19,2.54-3.44,4.79-8.27,6.18-13.86,5.77-2.54-.19-5.09-.51-7.64-.53a10.36,10.36,0,0,0-6.83,2.49,21,21,0,0,0-5.29,6.45c-2.18,4.17-4.2,8.43-6.35,12.62a42.5,42.5,0,0,0-4,11.73,25.72,25.72,0,0,1-.89,3.48,3.74,3.74,0,0,0,1.06,4.16A10.49,10.49,0,0,0,77.72,360,27.67,27.67,0,0,1,84,363.25a13.78,13.78,0,0,1,6.21,10.3,19.51,19.51,0,0,0,1.26,4.84c.74,1.92,1.78,3.74,2.62,5.63a4.09,4.09,0,0,0,2.72,2.5,19.37,19.37,0,0,0,3.49.8c8.51.67,15.79-1.84,21.27-8.62,2.94-3.64,4.25-7.73,3.07-12.5a34.53,34.53,0,0,1-.41-14.49,4.44,4.44,0,0,1,.47-1.6c2.76-4.22,5.64-8.32,10-11.09A43.13,43.13,0,0,1,146,334.18a4.89,4.89,0,0,0,3.07-2.45A20.21,20.21,0,0,0,151.82,319.26ZM537.36,331v.13c-1.44,0-2.88,0-4.31,0a15.19,15.19,0,0,0-12.25,6.48c-2,2.62-2.88,5.66-3.74,8.75a5.64,5.64,0,0,0,1.83,6.06c3.14,2.82,6,6,9.88,7.9a12.64,12.64,0,0,1,2.22,1.82c1.79,1.47,3.57,2.94,5.37,4.39a25,25,0,0,1,2.3,1.72c3.5,3.53,8.05,5.43,12.25,7.87a78.7,78.7,0,0,0,7.08,3.48,36.13,36.13,0,0,0,4.07,1.39c1.44.44,3,.71,4.36,1.25a29.91,29.91,0,0,0,13.9,1.67c1.89-.2,3.35-1.56,3.12-3.3a88.79,88.79,0,0,0-1.87-9.86,60.83,60.83,0,0,0-2.4-6.52,17.63,17.63,0,0,1-.49-10.4c1.73-7.21,5.31-13.37,12.12-17.06a32.48,32.48,0,0,1,5.23-2.31c3.92-1.29,7.6-3,10.38-6.15a8.7,8.7,0,0,0,2.35-7c-.35-2.86-1.42-3.93-4.37-3.9-2.39,0-4.79.17-7.18.3a46.68,46.68,0,0,0-27.55,10.42,10.28,10.28,0,0,1-3.5,2,46.76,46.76,0,0,1-16.59,1.83C545.49,331.64,541.43,331.31,537.36,331ZM194.56,203.86c-4.72-.23-10.61.76-16.46,2.13a3.49,3.49,0,0,0-2.81,3.19,7.53,7.53,0,0,0,1.4,5.66c1.26,1.75,2.48,3.55,3.88,5.18,3.14,3.66,4.26,8,4.26,12.65a10,10,0,0,1-1.35,5c-2.13,3.75-4.28,7.48-6.29,11.28-2.23,4.23-1.9,7.59,1.76,10.17A36.27,36.27,0,0,0,190.68,265c3.72.95,7.41,2,11.12,2.93a12.35,12.35,0,0,0,2.84.36,4.49,4.49,0,0,0,3.7-1.86,8.62,8.62,0,0,0,1.9-5.31c0-1,0-2.08.1-3.12a19.1,19.1,0,0,1,2.9-9.51,7,7,0,0,1,10.17-2,6.27,6.27,0,0,0,1.64,1c5.26,1.42,10.29,1.47,14.53-2.67.52-.5,1-1,1.52-1.53,5.71-6.22,6.1-11,1.54-18.12-2.2-3.43-4.45-6.83-6.49-10.35a9.78,9.78,0,0,0-6.65-5c-3.5-.77-7-1.58-10.45-2.62A83.14,83.14,0,0,0,194.56,203.86Zm288.51,97.93h.12c-.26-2.71-.36-5.43-.81-8.1-.81-4.88-3.16-8.54-8.15-10.28a75.84,75.84,0,0,0-15.83-3.56c-6.19-.76-12.39-1.31-18.58-2a36.13,36.13,0,0,1-7.07-1.18c-5.31-1.72-10.64-3.44-15.55-6.21a19.27,19.27,0,0,0-3.73-1.61,3.34,3.34,0,0,0-4.65,2.44,13.3,13.3,0,0,0-.52,3.77A8.2,8.2,0,0,1,407,279.8c-2,2.88-4.12,5.68-6.22,8.49-.57.77-1.3,1.41-1.85,2.19-1.94,2.73-1.42,5.33,1.42,7.13a22.44,22.44,0,0,0,2.36,1.16c.79.39,1.57.79,2.36,1.17a50.25,50.25,0,0,0,6,2.88c8,2.64,16.12,5.15,24.22,7.62a11.1,11.1,0,0,1,5,3.14,30.51,30.51,0,0,1,5.55,8.05,12.3,12.3,0,0,0,6.73,6.14,18.08,18.08,0,0,0,11.25.82,16.05,16.05,0,0,0,7.11-3.24c2.24-1.92,4.54-3.81,6.59-5.93a18.22,18.22,0,0,0,5.56-11.89C483.15,305.62,483.07,303.7,483.07,301.79Zm-327.44.11c1.68,0,3.35.05,5,0a15,15,0,0,0,9.17-3.06,26.92,26.92,0,0,0,8.38-10.91,14,14,0,0,0,1-6.34c-.43-5.42-2-10.34-6.48-13.89-1.06-.84-2.11-1.71-3.15-2.57a50.6,50.6,0,0,1-8.75-9.8,6.52,6.52,0,0,1,.9-8.36,39.8,39.8,0,0,1,5.87-4.53,9.58,9.58,0,0,0,3.76-4.18c4.16-8,.15-16.36-3.72-20.62a5.35,5.35,0,0,0-5.65-1.79,26.06,26.06,0,0,0-4.51,1.54,34.9,34.9,0,0,0-12.92,10.83c-9.54,13.12-13.76,28.19-15.41,44a65,65,0,0,0,.65,14.79,12.18,12.18,0,0,0,6.49,9.55c1,.53,1.87,1.23,2.85,1.75a35.66,35.66,0,0,0,5.12,2.51A28.56,28.56,0,0,0,155.63,301.9ZM564,265.38c0,.8,0,1.6,0,2.4.39,5.73,3.61,9.45,9.26,10.68a26.42,26.42,0,0,0,3.31.49,35.54,35.54,0,0,0,12.35-1.18c4.12-1.07,8.23-1.79,12.42,0,4,1.73,7.77,3.8,10.52,7.29a16,16,0,0,1,3.43,10.48,8.78,8.78,0,0,0,8.58,8.84c6.75.27,15.91-5.77,18.19-12.07a6.08,6.08,0,0,0,.5-3.26c-1-4.09-2-8.16-4.34-11.86a170.34,170.34,0,0,0-14.7-19.52,91.42,91.42,0,0,0-15.89-14.88,54.43,54.43,0,0,0-18-8.86,11.35,11.35,0,0,0-11.53,2.71,75.31,75.31,0,0,0-5.53,5.63C566.89,248.89,564.4,256.77,564,265.38Zm43.26,122c1.09-.06,2-.08,3-.18a89.88,89.88,0,0,0,25.41-6.72,29.12,29.12,0,0,0,8.49-5.32,13.29,13.29,0,0,0,4.44-10.71,7.45,7.45,0,0,0-.43-1.84c-.29-1-.65-1.95-.92-2.93-.8-2.93-1.44-5.9-2.38-8.77a12.77,12.77,0,0,1-.67-4.69,113.74,113.74,0,0,1,2.55-19,21.25,21.25,0,0,0-.22-11.38c-1.2-3.67-5.53-7.46-11-4.74a14.64,14.64,0,0,0-5.34,4.34,83,83,0,0,0-9.9,16.66,5.19,5.19,0,0,1-2.49,2.78c-1.71.86-3.41,1.75-5.13,2.61-5.68,2.88-11,6.28-14.91,11.42-5,6.45-8.17,13.54-7.83,21.88.36,8.63,6,15.06,14.31,16.36C605.29,387.29,606.34,387.29,607.25,387.35ZM330.4,342c0-1.07-.07-2.27-.17-3.46a17.28,17.28,0,0,0-3.51-9.28,3.49,3.49,0,0,0-3-1.62c-5.44.17-10.71,1.12-15.24,4.32a22.76,22.76,0,0,1-7.25,3.51c-1.23.33-2.47.63-3.7,1-2.75.82-5.59,1.45-8.23,2.53A13.43,13.43,0,0,0,280.79,353c.26,3.19.53,6.38,1,9.53a40.27,40.27,0,0,0,1.58,6.5,7.91,7.91,0,0,0,5.67,5.37q7.59,2.19,15.14,4.53a270.47,270.47,0,0,1,25.91,10.06q11.11,4.77,22.28,9.44a3.36,3.36,0,0,0,4.1-1,3.4,3.4,0,0,0,.09-4,18.22,18.22,0,0,0-2.24-2.8c-5.09-5.18-8.79-11.35-12.57-17.48a80.92,80.92,0,0,0-6.8-9.54c-3.3-4-5.54-8.2-5.2-13.48C329.93,347.43,330.18,344.8,330.4,342Zm236.81-35.3a51.71,51.71,0,0,0-.87-5.15c-.85-3.16-1.84-6.29-2.85-9.4-1.77-5.47-3.54-10.93-5.43-16.36a66.72,66.72,0,0,0-3.07-7.25,4.53,4.53,0,0,0-5.13-2.67c-1.5.24-3,.41-4.46.79-3.83,1-7.21,3-10.62,4.94-2.78,1.57-5.55,3.17-8.44,4.53a8.37,8.37,0,0,1-4.16.82c-3.72-.37-7.41-1.09-11.13-1.58a16.85,16.85,0,0,0-4.74-.22,20.3,20.3,0,0,0-9.49,4.36,9.15,9.15,0,0,0-3.51,7.56c.06,4.78,2.45,8.15,6.4,10.55a23.83,23.83,0,0,0,8.82,2.9,12.81,12.81,0,0,1,8.87,5.07,73.85,73.85,0,0,0,12.47,12.58c4,3.33,8.67,5.15,14,4.27a43.6,43.6,0,0,0,6.28-1.44c4.25-1.38,8.56-2.67,12.23-5.4C565.36,313.43,567.59,310.84,567.21,306.74ZM287.73,328.93l0,.25a48.46,48.46,0,0,0,5.68-.75,6.09,6.09,0,0,0,5-5.21c.6-5,.81-10-1-14.91-.48-1.27-.81-2.6-1.19-3.9-1.67-5.68.21-10.27,4.66-13.8,2.3-1.82,5-3.11,7.48-4.72a17.07,17.07,0,0,0,3.17-2.49c1.27-1.36,1.22-2.78.26-4.4a6,6,0,0,0-4.66-3,50.8,50.8,0,0,0-8.34-.48c-7.61.42-14.3,3-19.58,8.8a94.62,94.62,0,0,1-7.75,7.5,20.38,20.38,0,0,1-4.78,3.09,17,17,0,0,1-4.14,1c-10.51,2-18.8,11.41-18.94,20.47-.08,4.75.51,9,3.31,12.92a11.53,11.53,0,0,1,1.33,2.53c1.71,4.49,5.18,7.4,8.95,10a9.82,9.82,0,0,0,3.33,1.28,15.11,15.11,0,0,0,16.4-6.24,67.59,67.59,0,0,0,3.61-5.94,2.72,2.72,0,0,1,2.42-1.65C284.55,329.17,286.14,329,287.73,328.93ZM550,465.56c3.68,0,7.36.1,11,0,3.36-.13,6.66-.51,9.39-2.94a13.65,13.65,0,0,0,3.53-5.32c1.38-3.48,1.37-6.91-1-10q-7.92-10.53-16-20.94a3.69,3.69,0,0,0-1.89-1.36,40.61,40.61,0,0,0-6.81-1.18,32.58,32.58,0,0,0-18,4.2c-3.51,1.94-6.92,4.1-9.27,7.45a6.19,6.19,0,0,1-4.61,2.64,14.78,14.78,0,0,1-6.16-.32,30,30,0,0,0-15.63-.48c-5.51,1.3-7.77,5.86-5.34,11a16.06,16.06,0,0,0,1.74,2.86,44.33,44.33,0,0,0,9.61,9.63,33.22,33.22,0,0,1,4,3.4c2.35,2.23,3.85,2.45,6.57.68a10.73,10.73,0,0,1,6.77-2c2.54.19,5.1.31,7.63.63C533.79,464.5,541.83,465.91,550,465.56ZM356.4,244.3A27.84,27.84,0,0,0,338,250.82c-5.79,4.79-9,11-10.67,18.26-.83,3.57.32,5.89,3,7.81a23.88,23.88,0,0,0,11.31,4.28,25.52,25.52,0,0,1,8.28,2.26c4.31,2.07,8.6,4.23,12.74,6.62A24.72,24.72,0,0,0,384.72,292a45.33,45.33,0,0,0,5.66-2.48c3.2-1.74,4.63-5,6.27-8a21.66,21.66,0,0,0,2.45-13.18c-.5-4.38-2.59-7.2-6.49-9.31-7.95-4.29-16.11-8.11-24.3-11.92A29.45,29.45,0,0,0,356.4,244.3Zm-17,96a21.27,21.27,0,0,0,0,3c.35,2.6.46,5.31,1.3,7.75a5.5,5.5,0,0,0,7.57,3.41,9.08,9.08,0,0,0,4.58-5c1.23-3.21,2.58-6.38,3.52-9.67a22.71,22.71,0,0,1,4.19-8c2.14-2.69,4.45-5.25,6.57-7.94a21.94,21.94,0,0,1,9.3-6.5c3.82-1.59,7.5-3.55,11.16-5.51a4.89,4.89,0,0,0,2.59-5,5,5,0,0,0-3.64-4.6,10.12,10.12,0,0,0-5.64-.26,47.67,47.67,0,0,1-17.61.88,11.57,11.57,0,0,1-7.76-3.77,57.22,57.22,0,0,0-7.14-6.39,20.37,20.37,0,0,0-10.25-4.32,36.51,36.51,0,0,0-19.45,2.83c-4.87,2.07-8.62,5.34-10.6,10.47-2.1,5.43-.15,10.63,5.14,12.59a14.08,14.08,0,0,0,4.95.55c4.45-.06,8.56.81,12.06,3.75.61.51,1.3.92,2,1.39a14.31,14.31,0,0,1,5.7,7.76C339.13,331.77,340,335.9,339.4,340.33ZM519.67,264.9c2.48,0,5,.05,7.43,0a19.72,19.72,0,0,0,11.22-3.64,97.67,97.67,0,0,0,27-28.21c.33-.54.71-1.06,1-1.63a3.14,3.14,0,0,0-.71-4.31,18.35,18.35,0,0,0-4-2.55c-4.16-1.89-8.65-2.21-13.14-2.14-16.63.25-31.21,6-44,16.51-1.85,1.52-3.7,3-5.59,4.52a75.29,75.29,0,0,0-19.28,23.3c-.85,1.55-.77,3.24.51,4.15,2.63,1.88,5.48,3.51,8.87,2.33a28.3,28.3,0,0,0,6.06-2.81c3.29-2.11,6.95-3.17,10.63-4.21A46.71,46.71,0,0,1,519.67,264.9Zm-79.44,98,.14,0a38.17,38.17,0,0,0,.06,5,4.13,4.13,0,0,0,1.35,2.64,30.83,30.83,0,0,0,5.79,3.33,22.38,22.38,0,0,0,15.28.6c9.93-2.89,16.93-9.35,21.16-18.75a7.6,7.6,0,0,1,5.16-4.59c2.62-.69,5.28-1.23,7.94-1.75a14.59,14.59,0,0,0,10.67-7.68c2.66-5,3.53-10.4,3.83-15.94a27.86,27.86,0,0,0-2.38-12.6,8.44,8.44,0,0,0-12.87-3.46,13.58,13.58,0,0,0-5.23,6.12c-1.6,4.12-4.06,7.78-6,11.69-2.56,5.09-6.72,8.23-11.62,10.61a14.9,14.9,0,0,1-7.9,1.59c-2.3-.2-4.6-.54-6.91-.7a46.17,46.17,0,0,0-6.22-.13c-3.07.2-5.88,1.25-7.43,4.11a29,29,0,0,0-3.43,9.66C441.11,356.1,440.68,359.5,440.23,362.91Zm-43.18,43.65c-2.48,0-3.95,1-4.3,2.74a3.32,3.32,0,0,0,2.23,3.8c3.63,1.24,7.28,2.4,10.93,3.55a75.78,75.78,0,0,1,7.34,2.21c4.62,2,9.11,4.27,13.69,6.36,5.45,2.48,10.89,5,16.43,7.28a119.41,119.41,0,0,1,13.55,6,61.16,61.16,0,0,0,8.83,3.65c2.31.87,4.72,1.48,7.06,2.3,2.07.73,4.15.63,5.59-.9a6.72,6.72,0,0,0,1.86-6.18,3.76,3.76,0,0,0-2.23-2.93,37.39,37.39,0,0,0-5.85-2c-6.54-1.42-12.6-3.64-16.94-9.1-2.22-2.8-4.28-6-3.9-9.55.57-5.23,2.7-9.85,8.1-12.09a65.87,65.87,0,0,0,6.08-2.83c3.76-2,4.23-5.51,2.6-7.83a14.9,14.9,0,0,0-7.49-5.74,37.61,37.61,0,0,0-14.9-1.77,18.56,18.56,0,0,0-9.46,3c-3.26,2.29-6.84,4.15-9.46,7.28A55.32,55.32,0,0,1,415.06,404a15.13,15.13,0,0,1-7.62,2.58C403.85,406.79,400.27,407.28,397.05,406.56ZM261.65,214.09c-.88,0-1.76,0-2.64,0-2.34.1-3.52,1.26-3.69,3.53a11.24,11.24,0,0,0,4.58,10,79.3,79.3,0,0,0,7.9,5.41c2.72,1.67,5.73,2.88,8.35,4.67a41.94,41.94,0,0,1,13.71,15.44,50.8,50.8,0,0,0,7.76,10.9,9.45,9.45,0,0,0,5.59,3c3.19.52,5.82-.7,8.27-2.43,4.83-3.41,8.14-8.12,10.64-13.36a14.8,14.8,0,0,1,9.63-8.32c1.77-.51,3.57-.89,5.31-1.45a3.73,3.73,0,0,0,1.72-6.16,10.84,10.84,0,0,0-4.84-3,236.33,236.33,0,0,0-24.42-7.75q-7.44-1.82-14.85-3.8c-4.4-1.17-8.75-2.56-13.17-3.63A95.16,95.16,0,0,0,261.65,214.09ZM596.32,438.54c-2.11.19-4.26.32-6.4.61a12.09,12.09,0,0,0-2.48.84c-3.27,1.21-3.58,3.44-2.18,6.35a8.13,8.13,0,0,0,1.33,1.68c2.56,3,5.11,5.91,7.71,8.83a12.54,12.54,0,0,0,2.6,2.45,54.83,54.83,0,0,1,8.92,7.22c1,1,2.28,1.74,3.41,2.63s2,1.56,3,2.43c2.27,2.13,4.61,4.2,6.71,6.5,3.44,3.77,7.05,7.46,10,11.63a95.07,95.07,0,0,0,9.28,11.86,11.52,11.52,0,0,0,6.14,3.44,12.54,12.54,0,0,0,9-1.33c3.33-1.78,5-4.6,6-7.94a3.83,3.83,0,0,0-.08-1.64c-.38-2.55-2.06-4.29-3.85-5.9a18.17,18.17,0,0,1-3.35-4.29c-1.73-2.86-3.77-5.53-5.68-8.28-.85-1.24-1.68-2.48-2.55-3.7a15.11,15.11,0,0,0-1.22-1.45,22.53,22.53,0,0,1-2.42-2.57c-1.68-2.52-3.25-5.12-4.81-7.72-3.51-5.89-6.41-12.12-10.18-17.86-.7-1.07-1.28-2.22-2-3.25a6.54,6.54,0,0,0-7.8-2.59,19.19,19.19,0,0,0-2.47.91,20.07,20.07,0,0,1-11.47,1.47C599.73,438.64,598,438.64,596.32,438.54ZM154,381.28a110.46,110.46,0,0,0,18.09-2A38,38,0,0,0,187.76,373a20.49,20.49,0,0,0,6.42-6.68,29.22,29.22,0,0,0,3-16.26,12.77,12.77,0,0,0-3.25-7.56,15.65,15.65,0,0,0-9.32-5,29.82,29.82,0,0,0-15.58,1.11c-3.92,1.35-7.95,2.38-11.9,3.65a45.77,45.77,0,0,0-16,8.48,13.77,13.77,0,0,0-4.63,7.12,21.09,21.09,0,0,0-.44,10.39,23.71,23.71,0,0,0,4.35,8.44,10.11,10.11,0,0,0,7.36,4C150.31,381,152.78,381.16,154,381.28ZM420.94,157c-1.16,0-2.28,0-3.4,0a19.3,19.3,0,0,0-8.67,2.45,3.24,3.24,0,0,0-1.93,2.83c0,2.31.07,4.62,1.48,6.67,1.8,2.63,3.48,5.35,5.28,8a40.15,40.15,0,0,1,5,8.69,19.89,19.89,0,0,0,1.85,3.34,42.42,42.42,0,0,1,4.6,9.72,27.12,27.12,0,0,0,6.12,10.19,11.77,11.77,0,0,0,7.57,3.74,19.08,19.08,0,0,0,14-3.59,30.46,30.46,0,0,0,10.71-14.67,11,11,0,0,1,.74-2c1.87-3,1.59-6.1.55-9.23a14.07,14.07,0,0,0-4.23-6.3c-4.5-3.82-9-7.62-13.75-11.17-4.53-3.41-10.08-4.73-15.25-6.82A23.72,23.72,0,0,0,420.94,157Zm-6.42,197.19a15.78,15.78,0,0,1,.19,2c-.11,2.3-.22,4.62-.41,6.92-.23,2.68,1.29,4.32,3.94,4.13a9.15,9.15,0,0,0,6.79-3.55,35.6,35.6,0,0,0,5.67-9.94,54.58,54.58,0,0,0,3.08-13c.63-6,.65-11.9-1.53-17.71-1.39-3.71-3.58-6.31-7.37-7.56a26.73,26.73,0,0,0-8.44-1.54c-16.51,0-30.88,5.2-42.22,17.64-1.06,1.17-1.69,2.37-1.21,3.89a3.51,3.51,0,0,0,3.2,2.53c2.05.17,4.13.15,6.19.18.67,0,1.33-.09,2.23-.16-.37,1-.65,1.62-.88,2.29a29.6,29.6,0,0,0-1.19,3.63c-.62,3,1.52,5.19,4.57,4.7a8.33,8.33,0,0,0,1.61-.43c2.47-.92,4.93-1.87,7.39-2.79.79-.3,1.59-.57,2.69-1,0,1.3,0,2.23,0,3.16,0,2.48-.21,5-.06,7.43.15,2.68,1.93,3.92,4.59,3.56a20.49,20.49,0,0,0,8.31-2.86C412.47,355.22,413.33,354.81,414.52,354.17ZM377,360c-.09-.87-.15-1.59-.24-2.29-.33-2.46-.57-4.93-1-7.36-.58-3.17-2.41-4.29-5.54-3.55-1.71.4-3.42.81-5.12,1.26a8.44,8.44,0,0,0-6.09,5.54,60.2,60.2,0,0,0-3.36,14.69c-.94,8.36,1.51,15.46,8.58,20.57,1.62,1.17,3.12,2.53,4.83,3.55,6.43,3.86,12.82,7.92,20.74,7.9,3.1,0,6.25.43,9.21-.91a29.23,29.23,0,0,0,9.14-6.08q4.84-5,9.47-10.17a20.56,20.56,0,0,0,2.52-3.78,3.4,3.4,0,0,0-3.82-5c-.78.17-1.53.46-2.3.67-1.74.47-3.49.92-5.2,1.37-.16-.39-.29-.54-.27-.67.18-1.34.41-2.68.57-4,.33-2.83-1.77-4.62-4.46-3.86-1.84.52-3.7,1-5.54,1.5a10.18,10.18,0,0,1-5.63-.07c-.1-.82-.26-1.68-.29-2.53,0-1.36,0-2.72,0-4.08-.08-2.84-1.88-4.18-4.64-3.52-1.63.39-3.26.8-4.91,1.08A14.52,14.52,0,0,1,377,360ZM502.85,228.91a10.71,10.71,0,0,0,6.82-2.83c2.31-2.08,4.68-4.09,7.05-6.1a8.11,8.11,0,0,1,1.59-1,33.27,33.27,0,0,1,9.4-3.48c2.44-.43,4.89-.75,7.33-1.16,2.15-.37,3.41-1.66,3.32-3.71a8,8,0,0,0-.92-3.67,49.36,49.36,0,0,0-4.45-6.23c-2.55-3.05-5.38-5.89-7.91-9a189.48,189.48,0,0,0-15-16.78,9.21,9.21,0,0,0-5.3-2.52c-2.67-.34-4.54,1.14-6.29,2.85a10.62,10.62,0,0,1-2.25,2.11,18.13,18.13,0,0,1-8.21,2.32,21.36,21.36,0,0,0-6.32,1.1,5.44,5.44,0,0,0-3.71,6.83,10.5,10.5,0,0,0,2.27,3.83A32.3,32.3,0,0,0,484,194.8c3.8,3.21,6.44,7,7,12.12.29,2.54.71,5.06,1,7.6.39,3.67.82,7.31,2.8,10.56C496.41,227.69,498.63,229.08,502.85,228.91Zm-2.21,130.85a72.51,72.51,0,0,0-7.25,1.4,8.22,8.22,0,0,0-5.53,5.26,11,11,0,0,0,1.6,10.67,14.72,14.72,0,0,0,8.48,5.48,6.68,6.68,0,0,1,3.51,2.3c4.13,4.84,5.77,10.54,6.25,16.75.45,5.89,1.08,11.77,1.67,17.64a5.53,5.53,0,0,0,1.51,3.44,8.18,8.18,0,0,0,10.25,1.7,34.18,34.18,0,0,0,9-7.43,9.12,9.12,0,0,1,5.4-2.83c1.57-.26,3.14-.6,4.73-.78a4.42,4.42,0,0,0,4.14-3.69c.54-2.2-.57-3.56-2.22-4.86a72.47,72.47,0,0,1-6.66-5.84,32.11,32.11,0,0,1-7.59-11.8c-1.47-4.08-1.53-7.82,2.31-10.77a3.5,3.5,0,0,0,1.15-3.69,4.79,4.79,0,0,0-2.54-3.59c-3-1.57-6.06-3.23-9.19-4.62A51.25,51.25,0,0,0,500.64,359.76Zm-304.52-31a10.35,10.35,0,0,0,9.06-4.29,34.42,34.42,0,0,0,2.39-3.29,4,4,0,0,1,3-2.06c1.74-.26,3.46-.64,5.19-.89a26.72,26.72,0,0,0,13.69-6.42,6.63,6.63,0,0,0,1.21-9.24,11.27,11.27,0,0,0-4.65-4c-4-1.9-8-3.9-12.12-5.67a4.53,4.53,0,0,1-2.7-3,24.09,24.09,0,0,0-2.69-5.82,9,9,0,0,0-10.06-3.79,13.94,13.94,0,0,0-7.82,4.8,50.77,50.77,0,0,0-7.19,11.84,28,28,0,0,1-9.29,12,69.62,69.62,0,0,0-6.05,5.09,11.07,11.07,0,0,0-2.08,2.59,6,6,0,0,0,2.61,8.69A10.5,10.5,0,0,0,173,326.3a74.8,74.8,0,0,0,10.26-.53,7.11,7.11,0,0,1,5,1A14.3,14.3,0,0,0,196.12,328.78Zm46.09-40.84c4.92-.25,9.32-.5,13.55-1.82a32.36,32.36,0,0,0,19.33-16.18c2.93-5.4,2.49-11.11.07-16.42a36,36,0,0,0-6.59-9.37,11.08,11.08,0,0,0-10.16-3.71,6.68,6.68,0,0,0-5,3.22,18.76,18.76,0,0,0-2.32,7,5.37,5.37,0,0,1-2,3.39c-3,2.62-6.6,2.56-10.19,2.63s-7.19-.18-10.75.1a13,13,0,0,0-5.36,1.81c-2.75,1.62-3.78,4.42-4,7.51-.57,7.14,1.29,13.14,7.94,16.91.69.39,1.28,1,2,1.34,2.43,1.34,4.79,2.91,7.65,3.2C238.41,287.75,240.57,287.83,242.21,287.94Zm168.2-161.37a74.62,74.62,0,0,0-17.64,1.63,30.37,30.37,0,0,0-5.95,1.75c-2.72,1.19-3.28,3.62-1.6,6.1,1.33,2,2.73,3.94,4.13,5.88a19.67,19.67,0,0,0,7,6.08c1.63.85,3.31,1.61,4.94,2.45a6.69,6.69,0,0,0,4.64.52c5.78-1.2,11.59-2.29,17.39-3.4a24.65,24.65,0,0,1,11.34.68c5.46,1.5,10,4.57,14.59,7.6,5.26,3.48,10.41,7.13,15.65,10.65a65.92,65.92,0,0,0,6.33,3.85,20.66,20.66,0,0,0,17.38,1,4.38,4.38,0,0,0,3.08-3.89,4.12,4.12,0,0,0-2.29-4.14c-1.28-.82-2.61-1.54-3.95-2.25-6.13-3.27-12.19-6.7-18.44-9.72a69,69,0,0,1-10.38-5.89,156.56,156.56,0,0,0-27.19-16.08,21.82,21.82,0,0,0-7.78-2.23C417.9,127,414.16,126.79,410.41,126.57ZM626.7,527.41c.86.18,1.47.35,2.09.45,3.51.58,5.93-1,6.68-4.52a8.09,8.09,0,0,0,.18-2.85c-.39-2.6-.9-5.18-1.4-7.77-.94-4.75-3.41-8.79-6.34-12.47a32.78,32.78,0,0,0-9.54-8.3,16.64,16.64,0,0,1-5.57-5.5,69,69,0,0,0-10-12.24c-4.8-4.46-9.55-9-14.34-13.45a14.58,14.58,0,0,0-2.51-1.84,4.27,4.27,0,0,0-6.58,3.28,14,14,0,0,0,2.49,9.3c1.44,2.2,3,4.36,4.46,6.51a34.86,34.86,0,0,0,2.34,3,33.84,33.84,0,0,1,7.59,16.06c.72,3.45,0,6.87-.5,10.24a11.34,11.34,0,0,0,4.32,11.25c.73.61,1.43,1.27,2.12,1.93a57.79,57.79,0,0,0,12.7,9,15.62,15.62,0,0,0,7.34,2c2.27,0,3.12-.55,4-2.69C626.39,528.39,626.5,528,626.7,527.41ZM121.88,197a16.73,16.73,0,0,0,3.57-.7,10.4,10.4,0,0,0,6.52-9c.36-3.41.4-6.86.47-10.29a14.82,14.82,0,0,1,6.68-12.58c2.72-1.9,3.68-4.69,2.37-7.68a11.52,11.52,0,0,0-2.4-3.52,50.44,50.44,0,0,0-6.51-5.64c-4.49-3.06-9.28-5.27-15-4.09a12.34,12.34,0,0,1-8.39-1.19,9.15,9.15,0,0,0-2.67-1,15,15,0,0,0-4.23-.18,3.25,3.25,0,0,0-3,3.48,18.08,18.08,0,0,0,.22,3.82A42,42,0,0,0,103.8,161a33.39,33.39,0,0,1,3.11,10.26c.43,2.43-.5,3.72-2.82,4.6l-4.68,1.82a4.09,4.09,0,0,0-2.53,2.95c-1,3.3-.33,6.5.44,9.68a3.2,3.2,0,0,0,2.81,2.28c6.17,1.28,12.33,2.62,18.51,3.91C119.72,196.72,120.83,196.82,121.88,197Zm144.29,173.7A3.13,3.13,0,0,0,269.6,369c1.81-3.74,2.31-7.05-.63-10.75a19.48,19.48,0,0,0-9.75-6.66,57.59,57.59,0,0,1-14.88-6.48,6.77,6.77,0,0,1-2.71-2.88,17.84,17.84,0,0,0-5.77-7.22,14.45,14.45,0,0,1-2.13-1.93c-2.79-3-6.35-4.37-10.26-5.27a12.5,12.5,0,0,0-8.82,1.13c-4.35,2.24-7.48,5.45-7.27,10.85a11.57,11.57,0,0,0,3.77,7.78A10.13,10.13,0,0,1,214,358.05a12,12,0,0,0-.5,2.33c-.16,2.72,1,4.19,3.66,4.74,1.1.22,2.22.29,3.32.46,11.22,1.75,22.48,3.14,33.82,3.77a53.18,53.18,0,0,1,10.45,1.16A9.63,9.63,0,0,0,266.17,370.67Zm208-115.53c2.82.52,4.8-.66,6-3.2a18.15,18.15,0,0,1,4.22-5.16c.63-.61,1.24-1.25,1.85-1.88a9,9,0,0,0,2.27-8.87c-.46-1.94-.92-3.89-1.47-5.8-1.19-4.06-2.52-8.09-3.64-12.17-1-3.77-1.83-7.6-2.79-11.39a14.22,14.22,0,0,0-1.25-3.35c-1.61-2.92-4.64-4.06-7.54-2.67a8.57,8.57,0,0,0-2.94,2.69,71.12,71.12,0,0,0-5.33,7.95,22.48,22.48,0,0,1-7,7.45c-4.07,2.93-8.38,4.65-13.45,2.81a3,3,0,0,0-3.31.79,3.25,3.25,0,0,0-.87,3.52,4.32,4.32,0,0,0,.48,1.1c2.26,3.39,4.35,6.91,6.85,10.11,5.09,6.52,11.8,11.18,18.76,15.48A16.16,16.16,0,0,0,474.13,255.14ZM603.51,432.71l0,.24c1.42-.22,2.84-.38,4.25-.67a3.63,3.63,0,0,0,2.53-2,6.07,6.07,0,0,0-1.58-7.95,81.93,81.93,0,0,0-7.29-5.42c-2.66-1.77-5.52-3.24-8.21-5-7.3-4.63-15.12-8.31-22.85-12.13a6.62,6.62,0,0,1-4-4.69c-.86-3.87-3.4-6.27-7-7.57-4.43-1.6-8.88-3.15-13.4-4.5a14.63,14.63,0,0,0-5.2-.42,3.42,3.42,0,0,0-3.09,4.08,5.77,5.77,0,0,0,1.77,3.83c.84.73,1.61,1.55,2.41,2.34,5.66,5.64,11.39,11.22,17,17a20.33,20.33,0,0,1,3.92,5.67c1.4,3.12,2.29,6.46,3.41,9.7a7.34,7.34,0,0,0,1,2.42c2.15,2.53,4.6,4.63,8,5.37a24.22,24.22,0,0,0,8.1.19c3.49-.42,7-.94,10.49-1C597,432.09,600.24,432.51,603.51,432.71ZM492,141.55c-3,.47-5.8.74-8,2.8-1.72,1.62-1.84,3.55-.23,5.25a12.07,12.07,0,0,0,2.59,2.08c2.54,1.48,5.21,2.73,7.72,4.27,6.67,4.09,13.28,8.27,19.9,12.45a13.4,13.4,0,0,1,2.42,2q6.3,6.38,12.54,12.83a6.12,6.12,0,0,1,.45.56q6.6,8.2,13.2,16.44a16.85,16.85,0,0,1,1.42,2.2q2.71,4.8,5.4,9.6a9.72,9.72,0,0,0,7.5,5.29c3,.41,5-1.62,4.31-4.56a7.87,7.87,0,0,0-.36-1.39c-2.73-6-5.21-12-8.28-17.79-3.95-7.43-9.3-13.9-15.1-20-2.7-2.81-4.63-6.34-8-8.51a5.5,5.5,0,0,1-.91-1.1c-.77-.92-1.51-1.87-2.34-2.73A68.6,68.6,0,0,0,495.8,142.5C494.5,142.12,493.17,141.83,492,141.55Zm-387.75,73.9c-1.32-.32-2.53-.68-3.77-.91A3.23,3.23,0,0,0,97,216a3.74,3.74,0,0,0-.22,3.87,8.47,8.47,0,0,0,1.13,1.54q5.43,6.71,10.86,13.41c.48.59.89,1.24,1.48,2.07-1.17.27-2,.47-2.85.63s-1.75.23-2.59.46a3.35,3.35,0,0,0-1.62,5.79,8.73,8.73,0,0,0,1.11.9l14.78,10.59a4.1,4.1,0,0,0,6.2-2.2,14.82,14.82,0,0,0,.35-1.88A49.81,49.81,0,0,1,132,233a8.53,8.53,0,0,0,.12-9.07c-1.73-3-3.32-6.19-5-9.26a43.93,43.93,0,0,0-3.21-5.32,8,8,0,0,0-3.18-2.75c-3.42-1.33-7-2.26-10.44-3.45-2.56-.89-5.11-1.84-7.57-3-2.25-1-4-.8-5.26,1s-1.08,3.7.84,5.47c1.76,1.62,3.47,3.31,5.16,5A3.06,3.06,0,0,1,104.29,215.45ZM531.13,472.23c-1,.16-2.42.31-3.81.61a3.7,3.7,0,0,0-3,3.07,3.51,3.51,0,0,0,1.75,3.67c2.79,2,5.61,3.95,8.38,6,7.62,5.53,16.17,9.37,24.48,13.63a35.09,35.09,0,0,0,4.89,1.95c4.62,1.54,9.3,2.88,13.53,5.4a6.43,6.43,0,0,0,2,.7,4.34,4.34,0,0,0,5.4-4.86,24.51,24.51,0,0,0-1-4.16c-1.45-4.73-2.88-9.47-4.45-14.16a9.89,9.89,0,0,0-7.84-7,43.77,43.77,0,0,0-8.31-.83c-4.71,0-9.42.37-14.13.47a10.48,10.48,0,0,1-6-1.31C539.53,473.19,535.6,472.58,531.13,472.23ZM399,107.82c.43,1.91,1,5.12,1.92,8.27.78,2.78,3,4,5.91,3.6a16.86,16.86,0,0,1,3.82-.14,147.57,147.57,0,0,1,20.3,3.32c8.17,2.13,15.46,6.07,22.73,10a91.69,91.69,0,0,1,11.38,7.56c4.79,3.64,9.69,2.19,13.74-.56a3.42,3.42,0,0,0,1.34-3.8c-.48-2.62-2.34-3.92-4.45-5-5.13-2.59-10.21-5.3-15.46-7.65q-26.14-11.7-52.4-23.16C403.43,98.38,399,101.57,399,107.82ZM141.8,186.62a21.33,21.33,0,0,0-.16,2.87c.23,3.31-1.18,5.81-3.5,8a31.64,31.64,0,0,0-3.45,4.26,5.06,5.06,0,0,0-.63,4.82,53.78,53.78,0,0,0,3.92,8.17c1.45,2.43,4.34,2.24,5.88-.13a15.46,15.46,0,0,1,1.5-2.14,43,43,0,0,1,19.88-12.36c2.24-.66,3.8-2.3,5.26-4a3.07,3.07,0,0,0,.49-2.25c-.54-2.92-1.32-5.9-3.26-8.14a138.45,138.45,0,0,1-9.79-12.08,33.38,33.38,0,0,0-2.76-3.31,4.83,4.83,0,0,0-1.68-1.28,7.79,7.79,0,0,0-9,3.14,15.21,15.21,0,0,0-1.43,3.52C142,179.31,141.18,182.89,141.8,186.62ZM477.59,403.94c-1.13.09-1.77.09-2.39.2-4.55.78-8.61,2.46-11.35,6.41-2.17,3.12-2.1,5.29.13,8.33a22.28,22.28,0,0,0,1.52,1.85c2.26,2.47,5.33,3.1,8.42,3.59,6.94,1.09,14,.93,20.95,2.37,3.1.65,5.4-1.82,5.15-5-.17-2.15-.26-4.32-.63-6.43-.68-3.85-1.4-7.7-2.37-11.48a65.36,65.36,0,0,0-2.88-8.35,12.55,12.55,0,0,0-4.78-5.57,5.37,5.37,0,0,0-6.08-.35,11.19,11.19,0,0,0-5.67,9.2C477.46,400.38,477.59,402.06,477.59,403.94ZM601,298.67a12.91,12.91,0,1,0-13.06,12.84A12.91,12.91,0,0,0,601,298.67Z" transform="translate(-0.48 -0.48)"/><path class="cls-1" d="M111.53,409.58a62.4,62.4,0,0,1-1.7,15.66c-.91,4.37-1.86,8.74-2.78,13.11a38.07,38.07,0,0,1-5.56,13.17,55.17,55.17,0,0,1-11,12.24,16.36,16.36,0,0,1-11.75,3.92c-3.23-.19-5.72-1.92-8.15-3.72a24.87,24.87,0,0,1-7.22-9.4c-3.63-7.42-5.49-15.3-6.66-23.4-.14-1-.38-1.88-.56-2.82a7.27,7.27,0,0,0-2.28-4,13.87,13.87,0,0,1-3.94-14.69,71.45,71.45,0,0,1,2.75-6.85c.71-1.77,1.44-3.54,2.08-5.35,1.45-4.14,2.79-8.33,4.31-12.44A53.77,53.77,0,0,1,61.47,380c.66-1.35,1.35-2.7,1.91-4.09a9,9,0,0,1,7.55-5.88A6.93,6.93,0,0,1,77.62,373,20.9,20.9,0,0,1,82,385.2a18.81,18.81,0,0,0,2.5,8.65c2.3,4,5.62,6.54,10.56,6,2.86-.31,5.72-.66,8-2.79a14.32,14.32,0,0,1,2.35-1.64c2.46-1.54,5.21-.25,5.44,2.65C111.17,402.3,111.35,406.53,111.53,409.58Z" transform="translate(-0.48 -0.48)"/><path class="cls-1" d="M151.82,319.26a20.21,20.21,0,0,1-2.8,12.47,4.89,4.89,0,0,1-3.07,2.45A43.13,43.13,0,0,0,134.77,339c-4.4,2.77-7.28,6.87-10,11.09a4.44,4.44,0,0,0-.47,1.6,34.53,34.53,0,0,0,.41,14.49c1.18,4.77-.13,8.86-3.07,12.5-5.48,6.78-12.76,9.29-21.27,8.62a19.37,19.37,0,0,1-3.49-.8,4.09,4.09,0,0,1-2.72-2.5c-.84-1.89-1.88-3.71-2.62-5.63a19.51,19.51,0,0,1-1.26-4.84A13.78,13.78,0,0,0,84,363.25,27.67,27.67,0,0,0,77.72,360a10.49,10.49,0,0,1-3.38-2.16,3.74,3.74,0,0,1-1.06-4.16,25.72,25.72,0,0,0,.89-3.48,42.5,42.5,0,0,1,4-11.73c2.15-4.19,4.17-8.45,6.35-12.62a21,21,0,0,1,5.29-6.45,10.36,10.36,0,0,1,6.83-2.49c2.55,0,5.1.34,7.64.53,5.59.41,10.42-1,13.86-5.77.65-.9,1.45-1.7,2.19-2.54a5.6,5.6,0,0,1,5.17-1.93,27.87,27.87,0,0,1,5.24,1.49A8,8,0,0,1,133,310c2.59,2,5.51,2.29,8.64,1.86a34.71,34.71,0,0,1,5.49-.27A5,5,0,0,1,151.8,316,30.1,30.1,0,0,1,151.82,319.26Z" transform="translate(-0.48 -0.48)"/><path class="cls-1" d="M537.36,331c4.07.31,8.13.64,12.2.92a46.76,46.76,0,0,0,16.59-1.83,10.28,10.28,0,0,0,3.5-2,46.68,46.68,0,0,1,27.55-10.42c2.39-.13,4.79-.28,7.18-.3,3,0,4,1,4.37,3.9a8.7,8.7,0,0,1-2.35,7c-2.78,3.2-6.46,4.86-10.38,6.15a32.48,32.48,0,0,0-5.23,2.31c-6.81,3.69-10.39,9.85-12.12,17.06a17.63,17.63,0,0,0,.49,10.4,60.83,60.83,0,0,1,2.4,6.52,88.79,88.79,0,0,1,1.87,9.86c.23,1.74-1.23,3.1-3.12,3.3a29.91,29.91,0,0,1-13.9-1.67c-1.41-.54-2.92-.81-4.36-1.25a36.13,36.13,0,0,1-4.07-1.39,78.7,78.7,0,0,1-7.08-3.48c-4.2-2.44-8.75-4.34-12.25-7.87a25,25,0,0,0-2.3-1.72c-1.8-1.45-3.58-2.92-5.37-4.39a12.64,12.64,0,0,0-2.22-1.82c-3.88-1.9-6.74-5.08-9.88-7.9a5.64,5.64,0,0,1-1.83-6.06c.86-3.09,1.74-6.13,3.74-8.75A15.19,15.19,0,0,1,533,331.14c1.43,0,2.87,0,4.31,0Z" transform="translate(-0.48 -0.48)"/><path class="cls-1" d="M194.56,203.86a83.14,83.14,0,0,1,24.49,3.32c3.44,1,6.95,1.85,10.45,2.62a9.78,9.78,0,0,1,6.65,5c2,3.52,4.29,6.92,6.49,10.35,4.56,7.12,4.17,11.9-1.54,18.12-.49.53-1,1-1.52,1.53-4.24,4.14-9.27,4.09-14.53,2.67a6.27,6.27,0,0,1-1.64-1,7,7,0,0,0-10.17,2,19.1,19.1,0,0,0-2.9,9.51c-.06,1-.08,2.08-.1,3.12a8.62,8.62,0,0,1-1.9,5.31,4.49,4.49,0,0,1-3.7,1.86,12.35,12.35,0,0,1-2.84-.36c-3.71-.95-7.4-2-11.12-2.93A36.27,36.27,0,0,1,179,259.15c-3.66-2.58-4-5.94-1.76-10.17,2-3.8,4.16-7.53,6.29-11.28a10,10,0,0,0,1.35-5c0-4.69-1.12-9-4.26-12.65-1.4-1.63-2.62-3.43-3.88-5.18a7.53,7.53,0,0,1-1.4-5.66A3.49,3.49,0,0,1,178.1,206C184,204.62,189.84,203.63,194.56,203.86Z" transform="translate(-0.48 -0.48)"/><path class="cls-1" d="M483.07,301.79c0,1.91.08,3.83,0,5.74a18.22,18.22,0,0,1-5.56,11.89c-2.05,2.12-4.35,4-6.59,5.93a16.05,16.05,0,0,1-7.11,3.24,18.08,18.08,0,0,1-11.25-.82,12.3,12.3,0,0,1-6.73-6.14,30.51,30.51,0,0,0-5.55-8.05,11.1,11.1,0,0,0-5-3.14c-8.1-2.47-16.18-5-24.22-7.62a50.25,50.25,0,0,1-6-2.88c-.79-.38-1.57-.78-2.36-1.17a22.44,22.44,0,0,1-2.36-1.16c-2.84-1.8-3.36-4.4-1.42-7.13.55-.78,1.28-1.42,1.85-2.19,2.1-2.81,4.22-5.61,6.22-8.49A8.2,8.2,0,0,0,408.3,275a13.3,13.3,0,0,1,.52-3.77,3.34,3.34,0,0,1,4.65-2.44,19.27,19.27,0,0,1,3.73,1.61c4.91,2.77,10.24,4.49,15.55,6.21a36.13,36.13,0,0,0,7.07,1.18c6.19.71,12.39,1.26,18.58,2a75.84,75.84,0,0,1,15.83,3.56c5,1.74,7.34,5.4,8.15,10.28.45,2.67.55,5.39.81,8.1Z" transform="translate(-0.48 -0.48)"/><path class="cls-1" d="M155.63,301.9a28.56,28.56,0,0,1-11.38-1.06,35.66,35.66,0,0,1-5.12-2.51c-1-.52-1.87-1.22-2.85-1.75a12.18,12.18,0,0,1-6.49-9.55,65,65,0,0,1-.65-14.79c1.65-15.84,5.87-30.91,15.41-44a34.9,34.9,0,0,1,12.92-10.83,26.06,26.06,0,0,1,4.51-1.54,5.35,5.35,0,0,1,5.65,1.79c3.87,4.26,7.88,12.64,3.72,20.62a9.58,9.58,0,0,1-3.76,4.18,39.8,39.8,0,0,0-5.87,4.53,6.52,6.52,0,0,0-.9,8.36,50.6,50.6,0,0,0,8.75,9.8c1,.86,2.09,1.73,3.15,2.57,4.47,3.55,6.05,8.47,6.48,13.89a14,14,0,0,1-1,6.34,26.92,26.92,0,0,1-8.38,10.91,15,15,0,0,1-9.17,3.06C159,302,157.31,301.9,155.63,301.9Z" transform="translate(-0.48 -0.48)"/><path class="cls-1" d="M564,265.38c.41-8.61,2.9-16.49,8.62-23.1a75.31,75.31,0,0,1,5.53-5.63,11.35,11.35,0,0,1,11.53-2.71,54.43,54.43,0,0,1,18,8.86,91.42,91.42,0,0,1,15.89,14.88,170.34,170.34,0,0,1,14.7,19.52c2.29,3.7,3.3,7.77,4.34,11.86a6.08,6.08,0,0,1-.5,3.26c-2.28,6.3-11.44,12.34-18.19,12.07a8.78,8.78,0,0,1-8.58-8.84,16,16,0,0,0-3.43-10.48c-2.75-3.49-6.49-5.56-10.52-7.29-4.19-1.8-8.3-1.08-12.42,0A35.54,35.54,0,0,1,576.57,279a26.42,26.42,0,0,1-3.31-.49c-5.65-1.23-8.87-4.95-9.26-10.68C563.94,267,564,266.18,564,265.38Z" transform="translate(-0.48 -0.48)"/><path class="cls-1" d="M607.25,387.35c-.91-.06-2-.06-3-.22-8.3-1.3-13.95-7.73-14.31-16.36-.34-8.34,2.87-15.43,7.83-21.88,4-5.14,9.23-8.54,14.91-11.42,1.72-.86,3.42-1.75,5.13-2.61a5.19,5.19,0,0,0,2.49-2.78,83,83,0,0,1,9.9-16.66,14.64,14.64,0,0,1,5.34-4.34c5.43-2.72,9.76,1.07,11,4.74a21.25,21.25,0,0,1,.22,11.38,113.74,113.74,0,0,0-2.55,19,12.77,12.77,0,0,0,.67,4.69c.94,2.87,1.58,5.84,2.38,8.77.27,1,.63,1.94.92,2.93a7.45,7.45,0,0,1,.43,1.84,13.29,13.29,0,0,1-4.44,10.71,29.12,29.12,0,0,1-8.49,5.32,89.88,89.88,0,0,1-25.41,6.72C609.3,387.27,608.34,387.29,607.25,387.35Z" transform="translate(-0.48 -0.48)"/><path class="cls-1" d="M330.4,342c-.22,2.76-.47,5.39-.64,8-.34,5.28,1.9,9.52,5.2,13.48a80.92,80.92,0,0,1,6.8,9.54c3.78,6.13,7.48,12.3,12.57,17.48a18.22,18.22,0,0,1,2.24,2.8,3.4,3.4,0,0,1-.09,4,3.36,3.36,0,0,1-4.1,1q-11.16-4.68-22.28-9.44a270.47,270.47,0,0,0-25.91-10.06q-7.54-2.36-15.14-4.53a7.91,7.91,0,0,1-5.67-5.37,40.27,40.27,0,0,1-1.58-6.5c-.48-3.15-.75-6.34-1-9.53A13.43,13.43,0,0,1,289.28,339c2.64-1.08,5.48-1.71,8.23-2.53,1.23-.36,2.47-.66,3.7-1a22.76,22.76,0,0,0,7.25-3.51c4.53-3.2,9.8-4.15,15.24-4.32a3.49,3.49,0,0,1,3,1.62,17.28,17.28,0,0,1,3.51,9.28C330.33,339.77,330.35,341,330.4,342Z" transform="translate(-0.48 -0.48)"/><path class="cls-1" d="M567.21,306.74c.38,4.1-1.85,6.69-4.81,8.9-3.67,2.73-8,4-12.23,5.4a43.6,43.6,0,0,1-6.28,1.44c-5.35.88-10-.94-14-4.27a73.85,73.85,0,0,1-12.47-12.58,12.81,12.81,0,0,0-8.87-5.07,23.83,23.83,0,0,1-8.82-2.9c-3.95-2.4-6.34-5.77-6.4-10.55a9.15,9.15,0,0,1,3.51-7.56,20.3,20.3,0,0,1,9.49-4.36,16.85,16.85,0,0,1,4.74.22c3.72.49,7.41,1.21,11.13,1.58a8.37,8.37,0,0,0,4.16-.82c2.89-1.36,5.66-3,8.44-4.53,3.41-1.93,6.79-3.93,10.62-4.94,1.45-.38,3-.55,4.46-.79a4.53,4.53,0,0,1,5.13,2.67,66.72,66.72,0,0,1,3.07,7.25c1.89,5.43,3.66,10.89,5.43,16.36,1,3.11,2,6.24,2.85,9.4A51.71,51.71,0,0,1,567.21,306.74Z" transform="translate(-0.48 -0.48)"/><path class="cls-1" d="M287.73,328.93c-1.59.11-3.18.24-4.77.3a2.72,2.72,0,0,0-2.42,1.65,67.59,67.59,0,0,1-3.61,5.94,15.11,15.11,0,0,1-16.4,6.24,9.82,9.82,0,0,1-3.33-1.28c-3.77-2.62-7.24-5.53-8.95-10a11.53,11.53,0,0,0-1.33-2.53c-2.8-3.89-3.39-8.17-3.31-12.92.14-9.06,8.43-18.46,18.94-20.47a17,17,0,0,0,4.14-1,20.38,20.38,0,0,0,4.78-3.09,94.62,94.62,0,0,0,7.75-7.5c5.28-5.81,12-8.38,19.58-8.8a50.8,50.8,0,0,1,8.34.48,6,6,0,0,1,4.66,3c1,1.62,1,3-.26,4.4a17.07,17.07,0,0,1-3.17,2.49c-2.48,1.61-5.18,2.9-7.48,4.72-4.45,3.53-6.33,8.12-4.66,13.8.38,1.3.71,2.63,1.19,3.9,1.83,4.87,1.62,9.91,1,14.91a6.09,6.09,0,0,1-5,5.21,48.46,48.46,0,0,1-5.68.75Z" transform="translate(-0.48 -0.48)"/><path class="cls-1" d="M550,465.56c-8.2.35-16.24-1.06-24.33-2.09-2.53-.32-5.09-.44-7.63-.63a10.73,10.73,0,0,0-6.77,2c-2.72,1.77-4.22,1.55-6.57-.68a33.22,33.22,0,0,0-4-3.4,44.33,44.33,0,0,1-9.61-9.63,16.06,16.06,0,0,1-1.74-2.86c-2.43-5.1-.17-9.66,5.34-11a30,30,0,0,1,15.63.48,14.78,14.78,0,0,0,6.16.32,6.19,6.19,0,0,0,4.61-2.64c2.35-3.35,5.76-5.51,9.27-7.45a32.58,32.58,0,0,1,18-4.2,40.61,40.61,0,0,1,6.81,1.18,3.69,3.69,0,0,1,1.89,1.36q8,10.43,16,20.94c2.33,3.09,2.34,6.52,1,10a13.65,13.65,0,0,1-3.53,5.32c-2.73,2.43-6,2.81-9.39,2.94C557.39,465.66,553.71,465.56,550,465.56Z" transform="translate(-0.48 -0.48)"/><path class="cls-1" d="M356.4,244.3a29.45,29.45,0,0,1,11.91,2.79c8.19,3.81,16.35,7.63,24.3,11.92,3.9,2.11,6,4.93,6.49,9.31a21.66,21.66,0,0,1-2.45,13.18c-1.64,3-3.07,6.24-6.27,8a45.33,45.33,0,0,1-5.66,2.48,24.72,24.72,0,0,1-22.09-1.91c-4.14-2.39-8.43-4.55-12.74-6.62a25.52,25.52,0,0,0-8.28-2.26,23.88,23.88,0,0,1-11.31-4.28c-2.7-1.92-3.85-4.24-3-7.81,1.67-7.26,4.88-13.47,10.67-18.26A27.84,27.84,0,0,1,356.4,244.3Z" transform="translate(-0.48 -0.48)"/><path class="cls-1" d="M339.4,340.33c.6-4.43-.27-8.56-1.48-12.65a14.31,14.31,0,0,0-5.7-7.76c-.66-.47-1.35-.88-2-1.39-3.5-2.94-7.61-3.81-12.06-3.75a14.08,14.08,0,0,1-4.95-.55c-5.29-2-7.24-7.16-5.14-12.59,2-5.13,5.73-8.4,10.6-10.47a36.51,36.51,0,0,1,19.45-2.83,20.37,20.37,0,0,1,10.25,4.32,57.22,57.22,0,0,1,7.14,6.39,11.57,11.57,0,0,0,7.76,3.77,47.67,47.67,0,0,0,17.61-.88,10.12,10.12,0,0,1,5.64.26,5,5,0,0,1,3.64,4.6,4.89,4.89,0,0,1-2.59,5c-3.66,2-7.34,3.92-11.16,5.51a21.94,21.94,0,0,0-9.3,6.5c-2.12,2.69-4.43,5.25-6.57,7.94a22.71,22.71,0,0,0-4.19,8c-.94,3.29-2.29,6.46-3.52,9.67a9.08,9.08,0,0,1-4.58,5,5.5,5.5,0,0,1-7.57-3.41c-.84-2.44-1-5.15-1.3-7.75A21.27,21.27,0,0,1,339.4,340.33Z" transform="translate(-0.48 -0.48)"/><path class="cls-1" d="M519.67,264.9a46.71,46.71,0,0,0-14,1.3c-3.68,1-7.34,2.1-10.63,4.21a28.3,28.3,0,0,1-6.06,2.81c-3.39,1.18-6.24-.45-8.87-2.33-1.28-.91-1.36-2.6-.51-4.15a75.29,75.29,0,0,1,19.28-23.3c1.89-1.48,3.74-3,5.59-4.52,12.8-10.51,27.38-16.26,44-16.51,4.49-.07,9,.25,13.14,2.14a18.35,18.35,0,0,1,4,2.55,3.14,3.14,0,0,1,.71,4.31c-.3.57-.68,1.09-1,1.63a97.67,97.67,0,0,1-27,28.21,19.72,19.72,0,0,1-11.22,3.64C524.63,265,522.15,264.9,519.67,264.9Z" transform="translate(-0.48 -0.48)"/><path class="cls-1" d="M440.23,362.91c.45-3.41.88-6.81,1.36-10.21A29,29,0,0,1,445,343c1.55-2.86,4.36-3.91,7.43-4.11a46.17,46.17,0,0,1,6.22.13c2.31.16,4.61.5,6.91.7a14.9,14.9,0,0,0,7.9-1.59c4.9-2.38,9.06-5.52,11.62-10.61,2-3.91,4.43-7.57,6-11.69a13.58,13.58,0,0,1,5.23-6.12,8.44,8.44,0,0,1,12.87,3.46,27.86,27.86,0,0,1,2.38,12.6c-.3,5.54-1.17,10.95-3.83,15.94a14.59,14.59,0,0,1-10.67,7.68c-2.66.52-5.32,1.06-7.94,1.75a7.6,7.6,0,0,0-5.16,4.59c-4.23,9.4-11.23,15.86-21.16,18.75a22.38,22.38,0,0,1-15.28-.6,30.83,30.83,0,0,1-5.79-3.33,4.13,4.13,0,0,1-1.35-2.64,38.17,38.17,0,0,1-.06-5Z" transform="translate(-0.48 -0.48)"/><path class="cls-1" d="M397.05,406.56c3.22.72,6.8.23,10.39,0a15.13,15.13,0,0,0,7.62-2.58,55.32,55.32,0,0,0,11.75-10.15c2.62-3.13,6.2-5,9.46-7.28a18.56,18.56,0,0,1,9.46-3,37.61,37.61,0,0,1,14.9,1.77,14.9,14.9,0,0,1,7.49,5.74c1.63,2.32,1.16,5.79-2.6,7.83a65.87,65.87,0,0,1-6.08,2.83c-5.4,2.24-7.53,6.86-8.1,12.09-.38,3.58,1.68,6.75,3.9,9.55,4.34,5.46,10.4,7.68,16.94,9.1a37.39,37.39,0,0,1,5.85,2,3.76,3.76,0,0,1,2.23,2.93,6.72,6.72,0,0,1-1.86,6.18c-1.44,1.53-3.52,1.63-5.59.9-2.34-.82-4.75-1.43-7.06-2.3a61.16,61.16,0,0,1-8.83-3.65,119.41,119.41,0,0,0-13.55-6c-5.54-2.28-11-4.8-16.43-7.28-4.58-2.09-9.07-4.39-13.69-6.36a75.78,75.78,0,0,0-7.34-2.21c-3.65-1.15-7.3-2.31-10.93-3.55a3.32,3.32,0,0,1-2.23-3.8C393.1,407.55,394.57,406.52,397.05,406.56Z" transform="translate(-0.48 -0.48)"/><path class="cls-1" d="M261.65,214.09a95.16,95.16,0,0,1,19.85,3.07c4.42,1.07,8.77,2.46,13.17,3.63q7.41,2,14.85,3.8a236.33,236.33,0,0,1,24.42,7.75,10.84,10.84,0,0,1,4.84,3,3.73,3.73,0,0,1-1.72,6.16c-1.74.56-3.54.94-5.31,1.45a14.8,14.8,0,0,0-9.63,8.32c-2.5,5.24-5.81,9.95-10.64,13.36-2.45,1.73-5.08,2.95-8.27,2.43a9.45,9.45,0,0,1-5.59-3,50.8,50.8,0,0,1-7.76-10.9,41.94,41.94,0,0,0-13.71-15.44c-2.62-1.79-5.63-3-8.35-4.67a79.3,79.3,0,0,1-7.9-5.41,11.24,11.24,0,0,1-4.58-10c.17-2.27,1.35-3.43,3.69-3.53C259.89,214.06,260.77,214.09,261.65,214.09Z" transform="translate(-0.48 -0.48)"/><path class="cls-1" d="M596.32,438.54c1.72.1,3.41.1,5.07.33a20.07,20.07,0,0,0,11.47-1.47,19.19,19.19,0,0,1,2.47-.91,6.54,6.54,0,0,1,7.8,2.59c.75,1,1.33,2.18,2,3.25,3.77,5.74,6.67,12,10.18,17.86,1.56,2.6,3.13,5.2,4.81,7.72a22.53,22.53,0,0,0,2.42,2.57,15.11,15.11,0,0,1,1.22,1.45c.87,1.22,1.7,2.46,2.55,3.7,1.91,2.75,3.95,5.42,5.68,8.28a18.17,18.17,0,0,0,3.35,4.29c1.79,1.61,3.47,3.35,3.85,5.9a3.83,3.83,0,0,1,.08,1.64c-1.09,3.34-2.72,6.16-6,7.94a12.54,12.54,0,0,1-9,1.33,11.52,11.52,0,0,1-6.14-3.44,95.07,95.07,0,0,1-9.28-11.86c-2.9-4.17-6.51-7.86-10-11.63-2.1-2.3-4.44-4.37-6.71-6.5-.93-.87-2-1.65-3-2.43s-2.38-1.65-3.41-2.63a54.83,54.83,0,0,0-8.92-7.22,12.54,12.54,0,0,1-2.6-2.45c-2.6-2.92-5.15-5.88-7.71-8.83a8.13,8.13,0,0,1-1.33-1.68c-1.4-2.91-1.09-5.14,2.18-6.35a12.09,12.09,0,0,1,2.48-.84C592.06,438.86,594.21,438.73,596.32,438.54Z" transform="translate(-0.48 -0.48)"/><path class="cls-1" d="M154,381.28c-1.26-.12-3.73-.33-6.19-.58a10.11,10.11,0,0,1-7.36-4,23.71,23.71,0,0,1-4.35-8.44,21.09,21.09,0,0,1,.44-10.39,13.77,13.77,0,0,1,4.63-7.12,45.77,45.77,0,0,1,16-8.48c4-1.27,8-2.3,11.9-3.65a29.82,29.82,0,0,1,15.58-1.11,15.65,15.65,0,0,1,9.32,5,12.77,12.77,0,0,1,3.25,7.56,29.22,29.22,0,0,1-3,16.26,20.49,20.49,0,0,1-6.42,6.68,38,38,0,0,1-15.63,6.33A110.46,110.46,0,0,1,154,381.28Z" transform="translate(-0.48 -0.48)"/><path class="cls-1" d="M420.94,157a23.72,23.72,0,0,1,10.72,1.84c5.17,2.09,10.72,3.41,15.25,6.82,4.71,3.55,9.25,7.35,13.75,11.17a14.07,14.07,0,0,1,4.23,6.3c1,3.13,1.32,6.24-.55,9.23a11,11,0,0,0-.74,2A30.46,30.46,0,0,1,452.89,209a19.08,19.08,0,0,1-14,3.59,11.77,11.77,0,0,1-7.57-3.74,27.12,27.12,0,0,1-6.12-10.19,42.42,42.42,0,0,0-4.6-9.72,19.89,19.89,0,0,1-1.85-3.34,40.15,40.15,0,0,0-5-8.69c-1.8-2.64-3.48-5.36-5.28-8-1.41-2-1.46-4.36-1.48-6.67a3.24,3.24,0,0,1,1.93-2.83,19.3,19.3,0,0,1,8.67-2.45C418.66,156.93,419.78,157,420.94,157Z" transform="translate(-0.48 -0.48)"/><path class="cls-1" d="M414.52,354.17c-1.19.64-2,1.05-2.86,1.55a20.49,20.49,0,0,1-8.31,2.86c-2.66.36-4.44-.88-4.59-3.56-.15-2.47,0-4.95.06-7.43,0-.93,0-1.86,0-3.16-1.1.4-1.9.67-2.69,1-2.46.92-4.92,1.87-7.39,2.79a8.33,8.33,0,0,1-1.61.43c-3.05.49-5.19-1.68-4.57-4.7a29.6,29.6,0,0,1,1.19-3.63c.23-.67.51-1.32.88-2.29-.9.07-1.56.17-2.23.16-2.06,0-4.14,0-6.19-.18a3.51,3.51,0,0,1-3.2-2.53c-.48-1.52.15-2.72,1.21-3.89,11.34-12.44,25.71-17.6,42.22-17.64a26.73,26.73,0,0,1,8.44,1.54c3.79,1.25,6,3.85,7.37,7.56,2.18,5.81,2.16,11.71,1.53,17.71a54.58,54.58,0,0,1-3.08,13,35.6,35.6,0,0,1-5.67,9.94,9.15,9.15,0,0,1-6.79,3.55c-2.65.19-4.17-1.45-3.94-4.13.19-2.3.3-4.62.41-6.92A15.78,15.78,0,0,0,414.52,354.17Z" transform="translate(-0.48 -0.48)"/><path class="cls-1" d="M377,360a14.52,14.52,0,0,0,6.62.28c1.65-.28,3.28-.69,4.91-1.08,2.76-.66,4.56.68,4.64,3.52,0,1.36,0,2.72,0,4.08,0,.85.19,1.71.29,2.53a10.18,10.18,0,0,0,5.63.07c1.84-.53,3.7-1,5.54-1.5,2.69-.76,4.79,1,4.46,3.86-.16,1.35-.39,2.69-.57,4,0,.13.11.28.27.67,1.71-.45,3.46-.9,5.2-1.37.77-.21,1.52-.5,2.3-.67a3.4,3.4,0,0,1,3.82,5,20.56,20.56,0,0,1-2.52,3.78q-4.63,5.17-9.47,10.17a29.23,29.23,0,0,1-9.14,6.08c-3,1.34-6.11.91-9.21.91-7.92,0-14.31-4-20.74-7.9-1.71-1-3.21-2.38-4.83-3.55-7.07-5.11-9.52-12.21-8.58-20.57A60.2,60.2,0,0,1,359,353.58a8.44,8.44,0,0,1,6.09-5.54c1.7-.45,3.41-.86,5.12-1.26,3.13-.74,5,.38,5.54,3.55.45,2.43.69,4.9,1,7.36C376.88,358.39,376.94,359.11,377,360Z" transform="translate(-0.48 -0.48)"/><path class="cls-1" d="M502.85,228.91c-4.22.17-6.44-1.22-8-3.83-2-3.25-2.41-6.89-2.8-10.56-.28-2.54-.7-5.06-1-7.6-.58-5.07-3.22-8.91-7-12.12a32.3,32.3,0,0,1-3.75-3.33,10.5,10.5,0,0,1-2.27-3.83,5.44,5.44,0,0,1,3.71-6.83,21.36,21.36,0,0,1,6.32-1.1,18.13,18.13,0,0,0,8.21-2.32,10.62,10.62,0,0,0,2.25-2.11c1.75-1.71,3.62-3.19,6.29-2.85a9.21,9.21,0,0,1,5.3,2.52,189.48,189.48,0,0,1,15,16.78c2.53,3.06,5.36,5.9,7.91,9a49.36,49.36,0,0,1,4.45,6.23,8,8,0,0,1,.92,3.67c.09,2-1.17,3.34-3.32,3.71-2.44.41-4.89.73-7.33,1.16a33.27,33.27,0,0,0-9.4,3.48,8.11,8.11,0,0,0-1.59,1c-2.37,2-4.74,4-7.05,6.1A10.71,10.71,0,0,1,502.85,228.91Z" transform="translate(-0.48 -0.48)"/><path class="cls-1" d="M500.64,359.76a51.25,51.25,0,0,1,19,4.74c3.13,1.39,6.14,3.05,9.19,4.62a4.79,4.79,0,0,1,2.54,3.59,3.5,3.5,0,0,1-1.15,3.69c-3.84,3-3.78,6.69-2.31,10.77a32.11,32.11,0,0,0,7.59,11.8,72.47,72.47,0,0,0,6.66,5.84c1.65,1.3,2.76,2.66,2.22,4.86a4.42,4.42,0,0,1-4.14,3.69c-1.59.18-3.16.52-4.73.78a9.12,9.12,0,0,0-5.4,2.83,34.18,34.18,0,0,1-9,7.43,8.18,8.18,0,0,1-10.25-1.7,5.53,5.53,0,0,1-1.51-3.44c-.59-5.87-1.22-11.75-1.67-17.64-.48-6.21-2.12-11.91-6.25-16.75a6.68,6.68,0,0,0-3.51-2.3,14.72,14.72,0,0,1-8.48-5.48,11,11,0,0,1-1.6-10.67,8.22,8.22,0,0,1,5.53-5.26A72.51,72.51,0,0,1,500.64,359.76Z" transform="translate(-0.48 -0.48)"/><path class="cls-1" d="M196.12,328.78a14.3,14.3,0,0,1-7.86-2,7.11,7.11,0,0,0-5-1,74.8,74.8,0,0,1-10.26.53,10.5,10.5,0,0,1-4.35-1.08,6,6,0,0,1-2.61-8.69,11.07,11.07,0,0,1,2.08-2.59,69.62,69.62,0,0,1,6.05-5.09,28,28,0,0,0,9.29-12,50.77,50.77,0,0,1,7.19-11.84,13.94,13.94,0,0,1,7.82-4.8,9,9,0,0,1,10.06,3.79,24.09,24.09,0,0,1,2.69,5.82,4.53,4.53,0,0,0,2.7,3c4.09,1.77,8.08,3.77,12.12,5.67a11.27,11.27,0,0,1,4.65,4,6.63,6.63,0,0,1-1.21,9.24,26.72,26.72,0,0,1-13.69,6.42c-1.73.25-3.45.63-5.19.89a4,4,0,0,0-3,2.06,34.42,34.42,0,0,1-2.39,3.29A10.35,10.35,0,0,1,196.12,328.78Z" transform="translate(-0.48 -0.48)"/><path class="cls-1" d="M242.21,287.94c-1.64-.11-3.8-.19-5.94-.41-2.86-.29-5.22-1.86-7.65-3.2-.7-.38-1.29-.95-2-1.34-6.65-3.77-8.51-9.77-7.94-16.91.25-3.09,1.28-5.89,4-7.51a13,13,0,0,1,5.36-1.81c3.56-.28,7.17,0,10.75-.1s7.22,0,10.19-2.63a5.37,5.37,0,0,0,2-3.39,18.76,18.76,0,0,1,2.32-7,6.68,6.68,0,0,1,5-3.22,11.08,11.08,0,0,1,10.16,3.71,36,36,0,0,1,6.59,9.37c2.42,5.31,2.86,11-.07,16.42a32.36,32.36,0,0,1-19.33,16.18C251.53,287.44,247.13,287.69,242.21,287.94Z" transform="translate(-0.48 -0.48)"/><path class="cls-1" d="M410.41,126.57c3.75.22,7.49.46,11.24.64a21.82,21.82,0,0,1,7.78,2.23,156.56,156.56,0,0,1,27.19,16.08A69,69,0,0,0,467,151.41c6.25,3,12.31,6.45,18.44,9.72,1.34.71,2.67,1.43,3.95,2.25a4.12,4.12,0,0,1,2.29,4.14,4.38,4.38,0,0,1-3.08,3.89,20.66,20.66,0,0,1-17.38-1,65.92,65.92,0,0,1-6.33-3.85c-5.24-3.52-10.39-7.17-15.65-10.65-4.59-3-9.13-6.1-14.59-7.6a24.65,24.65,0,0,0-11.34-.68c-5.8,1.11-11.61,2.2-17.39,3.4a6.69,6.69,0,0,1-4.64-.52c-1.63-.84-3.31-1.6-4.94-2.45a19.67,19.67,0,0,1-7-6.08c-1.4-1.94-2.8-3.89-4.13-5.88-1.68-2.48-1.12-4.91,1.6-6.1a30.37,30.37,0,0,1,5.95-1.75A74.62,74.62,0,0,1,410.41,126.57Z" transform="translate(-0.48 -0.48)"/><path class="cls-1" d="M626.7,527.41c-.2.6-.31,1-.46,1.34-.88,2.14-1.73,2.69-4,2.69a15.62,15.62,0,0,1-7.34-2,57.79,57.79,0,0,1-12.7-9c-.69-.66-1.39-1.32-2.12-1.93a11.34,11.34,0,0,1-4.32-11.25c.53-3.37,1.22-6.79.5-10.24A33.84,33.84,0,0,0,588.67,481a34.86,34.86,0,0,1-2.34-3c-1.51-2.15-3-4.31-4.46-6.51a14,14,0,0,1-2.49-9.3,4.27,4.27,0,0,1,6.58-3.28,14.58,14.58,0,0,1,2.51,1.84c4.79,4.47,9.54,9,14.34,13.45a69,69,0,0,1,10,12.24,16.64,16.64,0,0,0,5.57,5.5,32.78,32.78,0,0,1,9.54,8.3c2.93,3.68,5.4,7.72,6.34,12.47.5,2.59,1,5.17,1.4,7.77a8.09,8.09,0,0,1-.18,2.85c-.75,3.49-3.17,5.1-6.68,4.52C628.17,527.76,627.56,527.59,626.7,527.41Z" transform="translate(-0.48 -0.48)"/><path class="cls-1" d="M121.88,197c-1-.15-2.16-.25-3.24-.47-6.18-1.29-12.34-2.63-18.51-3.91a3.2,3.2,0,0,1-2.81-2.28c-.77-3.18-1.43-6.38-.44-9.68a4.09,4.09,0,0,1,2.53-2.95l4.68-1.82c2.32-.88,3.25-2.17,2.82-4.6A33.39,33.39,0,0,0,103.8,161a42,42,0,0,1-4.28-12.65,18.08,18.08,0,0,1-.22-3.82,3.25,3.25,0,0,1,3-3.48,15,15,0,0,1,4.23.18,9.15,9.15,0,0,1,2.67,1,12.34,12.34,0,0,0,8.39,1.19c5.75-1.18,10.54,1,15,4.09a50.44,50.44,0,0,1,6.51,5.64,11.52,11.52,0,0,1,2.4,3.52c1.31,3,.35,5.78-2.37,7.68A14.82,14.82,0,0,0,132.44,177c-.07,3.43-.11,6.88-.47,10.29a10.4,10.4,0,0,1-6.52,9A16.73,16.73,0,0,1,121.88,197Z" transform="translate(-0.48 -0.48)"/><path class="cls-1" d="M266.17,370.67a9.63,9.63,0,0,1-1.43-.16,53.18,53.18,0,0,0-10.45-1.16c-11.34-.63-22.6-2-33.82-3.77-1.1-.17-2.22-.24-3.32-.46-2.67-.55-3.82-2-3.66-4.74a12,12,0,0,1,.5-2.33,10.13,10.13,0,0,0-2.84-10.49,11.57,11.57,0,0,1-3.77-7.78c-.21-5.4,2.92-8.61,7.27-10.85a12.5,12.5,0,0,1,8.82-1.13c3.91.9,7.47,2.26,10.26,5.27a14.45,14.45,0,0,0,2.13,1.93,17.84,17.84,0,0,1,5.77,7.22,6.77,6.77,0,0,0,2.71,2.88,57.59,57.59,0,0,0,14.88,6.48,19.48,19.48,0,0,1,9.75,6.66c2.94,3.7,2.44,7,.63,10.75A3.13,3.13,0,0,1,266.17,370.67Z" transform="translate(-0.48 -0.48)"/><path class="cls-1" d="M474.13,255.14a16.16,16.16,0,0,1-9.12-2.59c-7-4.3-13.67-9-18.76-15.48-2.5-3.2-4.59-6.72-6.85-10.11a4.32,4.32,0,0,1-.48-1.1,3.25,3.25,0,0,1,.87-3.52,3,3,0,0,1,3.31-.79c5.07,1.84,9.38.12,13.45-2.81a22.48,22.48,0,0,0,7-7.45,71.12,71.12,0,0,1,5.33-7.95,8.57,8.57,0,0,1,2.94-2.69c2.9-1.39,5.93-.25,7.54,2.67a14.22,14.22,0,0,1,1.25,3.35c1,3.79,1.76,7.62,2.79,11.39,1.12,4.08,2.45,8.11,3.64,12.17.55,1.91,1,3.86,1.47,5.8a9,9,0,0,1-2.27,8.87c-.61.63-1.22,1.27-1.85,1.88a18.15,18.15,0,0,0-4.22,5.16C478.93,254.48,477,255.66,474.13,255.14Z" transform="translate(-0.48 -0.48)"/><path class="cls-1" d="M603.51,432.71c-3.27-.2-6.54-.62-9.8-.54-3.5.09-7,.61-10.49,1a24.22,24.22,0,0,1-8.1-.19c-3.4-.74-5.85-2.84-8-5.37a7.34,7.34,0,0,1-1-2.42c-1.12-3.24-2-6.58-3.41-9.7a20.33,20.33,0,0,0-3.92-5.67c-5.56-5.75-11.29-11.33-17-17-.8-.79-1.57-1.61-2.41-2.34a5.77,5.77,0,0,1-1.77-3.83,3.42,3.42,0,0,1,3.09-4.08,14.63,14.63,0,0,1,5.2.42c4.52,1.35,9,2.9,13.4,4.5,3.59,1.3,6.13,3.7,7,7.57a6.62,6.62,0,0,0,4,4.69c7.73,3.82,15.55,7.5,22.85,12.13,2.69,1.72,5.55,3.19,8.21,5a81.93,81.93,0,0,1,7.29,5.42,6.07,6.07,0,0,1,1.58,7.95,3.63,3.63,0,0,1-2.53,2c-1.41.29-2.83.45-4.25.67Z" transform="translate(-0.48 -0.48)"/><path class="cls-1" d="M492,141.55c1.13.28,2.46.57,3.76.95a68.6,68.6,0,0,1,30.47,18.73c.83.86,1.57,1.81,2.34,2.73a5.5,5.5,0,0,0,.91,1.1c3.39,2.17,5.32,5.7,8,8.51,5.8,6.07,11.15,12.54,15.1,20,3.07,5.76,5.55,11.84,8.28,17.79a7.87,7.87,0,0,1,.36,1.39c.67,2.94-1.35,5-4.31,4.56a9.72,9.72,0,0,1-7.5-5.29q-2.69-4.8-5.4-9.6a16.85,16.85,0,0,0-1.42-2.2q-6.58-8.24-13.2-16.44a6.12,6.12,0,0,0-.45-.56q-6.25-6.44-12.54-12.83a13.4,13.4,0,0,0-2.42-2c-6.62-4.18-13.23-8.36-19.9-12.45-2.51-1.54-5.18-2.79-7.72-4.27a12.07,12.07,0,0,1-2.59-2.08c-1.61-1.7-1.49-3.63.23-5.25C486.24,142.29,489.06,142,492,141.55Z" transform="translate(-0.48 -0.48)"/><path class="cls-1" d="M104.29,215.45a3.06,3.06,0,0,0-.88-3.75c-1.69-1.7-3.4-3.39-5.16-5-1.92-1.77-2.23-3.52-.84-5.47s3-2.06,5.26-1c2.46,1.12,5,2.07,7.57,3,3.46,1.19,7,2.12,10.44,3.45a8,8,0,0,1,3.18,2.75,43.93,43.93,0,0,1,3.21,5.32c1.7,3.07,3.29,6.21,5,9.26A8.53,8.53,0,0,1,132,233a49.81,49.81,0,0,0-6.36,18.2,14.82,14.82,0,0,1-.35,1.88,4.1,4.1,0,0,1-6.2,2.2l-14.78-10.59a8.73,8.73,0,0,1-1.11-.9,3.35,3.35,0,0,1,1.62-5.79c.84-.23,1.73-.29,2.59-.46s1.68-.36,2.85-.63c-.59-.83-1-1.48-1.48-2.07q-5.41-6.71-10.86-13.41a8.47,8.47,0,0,1-1.13-1.54A3.74,3.74,0,0,1,97,216a3.23,3.23,0,0,1,3.54-1.47C101.76,214.77,103,215.13,104.29,215.45Z" transform="translate(-0.48 -0.48)"/><path class="cls-1" d="M531.13,472.23c4.47.35,8.4,1,11.89,3.16a10.48,10.48,0,0,0,6,1.31c4.71-.1,9.42-.47,14.13-.47a43.77,43.77,0,0,1,8.31.83,9.89,9.89,0,0,1,7.84,7c1.57,4.69,3,9.43,4.45,14.16a24.51,24.51,0,0,1,1,4.16,4.34,4.34,0,0,1-5.4,4.86,6.43,6.43,0,0,1-2-.7c-4.23-2.52-8.91-3.86-13.53-5.4a35.09,35.09,0,0,1-4.89-1.95c-8.31-4.26-16.86-8.1-24.48-13.63-2.77-2-5.59-4-8.38-6a3.51,3.51,0,0,1-1.75-3.67,3.7,3.7,0,0,1,3-3.07C528.71,472.54,530.14,472.39,531.13,472.23Z" transform="translate(-0.48 -0.48)"/><path class="cls-1" d="M399,107.82c0-6.25,4.44-9.44,8.83-7.51q26.24,11.52,52.4,23.16c5.25,2.35,10.33,5.06,15.46,7.65,2.11,1.06,4,2.36,4.45,5a3.42,3.42,0,0,1-1.34,3.8c-4.05,2.75-9,4.2-13.74.56a91.69,91.69,0,0,0-11.38-7.56c-7.27-4-14.56-7.9-22.73-10a147.57,147.57,0,0,0-20.3-3.32,16.86,16.86,0,0,0-3.82.14c-2.93.36-5.13-.82-5.91-3.6C400,112.94,399.42,109.73,399,107.82Z" transform="translate(-0.48 -0.48)"/><path class="cls-1" d="M141.8,186.62c-.62-3.73.21-7.31,1.24-10.85a15.21,15.21,0,0,1,1.43-3.52,7.79,7.79,0,0,1,9-3.14,4.83,4.83,0,0,1,1.68,1.28,33.38,33.38,0,0,1,2.76,3.31,138.45,138.45,0,0,0,9.79,12.08c1.94,2.24,2.72,5.22,3.26,8.14a3.07,3.07,0,0,1-.49,2.25c-1.46,1.68-3,3.32-5.26,4a43,43,0,0,0-19.88,12.36,15.46,15.46,0,0,0-1.5,2.14c-1.54,2.37-4.43,2.56-5.88.13a53.78,53.78,0,0,1-3.92-8.17,5.06,5.06,0,0,1,.63-4.82,31.64,31.64,0,0,1,3.45-4.26c2.32-2.23,3.73-4.73,3.5-8A21.33,21.33,0,0,1,141.8,186.62Z" transform="translate(-0.48 -0.48)"/><path class="cls-1" d="M477.59,403.94c0-1.88-.13-3.56,0-5.21a11.19,11.19,0,0,1,5.67-9.2,5.37,5.37,0,0,1,6.08.35,12.55,12.55,0,0,1,4.78,5.57A65.36,65.36,0,0,1,497,403.8c1,3.78,1.69,7.63,2.37,11.48.37,2.11.46,4.28.63,6.43.25,3.16-2,5.63-5.15,5-6.93-1.44-14-1.28-20.95-2.37-3.09-.49-6.16-1.12-8.42-3.59a22.28,22.28,0,0,1-1.52-1.85c-2.23-3-2.3-5.21-.13-8.33,2.74-3.95,6.8-5.63,11.35-6.41C475.82,404,476.46,404,477.59,403.94Z" transform="translate(-0.48 -0.48)"/><path class="cls-1" d="M601,298.67a12.91,12.91,0,0,1-25.82-.1,12.91,12.91,0,1,1,25.82.1Z" transform="translate(-0.48 -0.48)"/></svg>