<svg id="Layer_1" data-name="Layer 1" xmlns="http://www.w3.org/2000/svg" viewBox="0 0 720 612"><defs><style>.cls-1{fill:none;stroke:#000;stroke-miterlimit:10;stroke-width:0.01px;}</style></defs><path d="M.48,612.48V.48h720v612ZM689.36,183.23c-.44-3.07-.79-6.16-1.34-9.21a4.21,4.21,0,0,0-4.19-3.63,67.46,67.46,0,0,0-10.53-.23c-7.63.76-15.22,1.91-22.83,2.92-8.73,1.18-17.19,3.66-25.75,5.62A153.08,153.08,0,0,0,600.9,186q-17.53,7.15-35,14.53c-3.16,1.33-6.24,2.87-9.33,4.37-1.32.64-2.58,1.48-2.73,3.1-.4,4.17.21,7.52,4.6,9.89,1.9,1,3.78,2.09,5.68,3.11a5.13,5.13,0,0,1,3.08,4.5c.1,2.55.27,5.1.34,7.65.13,5,1.07,9.37,6.49,11.4,2.56,1,4.93,1.25,7.28-.37,2-1.41,4-2.86,6.11-4.24,9.25-6.2,18.69-12.05,29.38-15.51a25.28,25.28,0,0,0,4.45-1.76c2.89-1.59,6-2.61,8.51-5.12a173.45,173.45,0,0,1,13.55-11.82,34.14,34.14,0,0,1,23.26-8c4.56.15,9,.37,13.39,2.14,2.75,1.12,4.24.28,5.51-2.49A38.77,38.77,0,0,0,689.36,183.23ZM517.87,259.08c1,.43,1.6.66,2.17.92,1.77.8,1.79.89,1.66,2.65q-.53,7.17-1,14.35c-.15,2.23-.31,4.47-.39,6.7a3.63,3.63,0,0,0,3.7,4.11,31.15,31.15,0,0,0,9.69-1.27,3.5,3.5,0,0,0,1.58-1,35.68,35.68,0,0,0,4.19-5.52c4.52-8.54,9-17.11,13.23-25.81,3.27-6.76,4.06-14.08,3.73-21.53-.1-2.34-.69-3-2.92-3.8-1-.35-1.91-.82-2.88-1.18a4.4,4.4,0,0,1-3-3.74,56.7,56.7,0,0,1-.48-6.89c0-2.39-.89-3.91-3.23-4.28a11.7,11.7,0,0,0-3.77.21,40.6,40.6,0,0,0-4.15,1.16l-18.18,5.29c-3.68,1.08-7.29,2.46-11,3.21a236.48,236.48,0,0,1-35.17,4.43,3.45,3.45,0,0,0-3.47,3.3,4.34,4.34,0,0,0,1.75,4.22c.85.59,1.63,1.29,2.48,1.89a11.19,11.19,0,0,1,4.74,8.51c.33,3.41.65,6.83.77,10.26a19.7,19.7,0,0,0,1.8,7.88c1,2,1.94,4.05,3.1,6a6.81,6.81,0,0,0,2.32,2.3c2.63,1.54,5.11.45,6-2.48.4-1.38.72-2.78,1.17-4.15a37,37,0,0,1,1.5-3.77,1.87,1.87,0,0,1,2.36-1.21c-.11.56-.19,1-.29,1.47-1,4.85-2,9.71-3,14.54a3.08,3.08,0,0,0,.44,2.95,20.93,20.93,0,0,0,4.43,3.56,3.11,3.11,0,0,0,4.58-1.65,19.87,19.87,0,0,0,1.21-4.35c1-5.16,2-10.34,3-15.51a3.83,3.83,0,0,1,.52-1.58c.35-.44,1-1,1.45-.91a2.15,2.15,0,0,1,1.29,1.18,3.27,3.27,0,0,1,0,1.65c-.12,1.35-.3,2.7-.45,4.05-.61,5.56-1.21,11.12-1.86,16.67-.25,2.17.71,3.85,2.56,4.25a3.82,3.82,0,0,0,4.61-2.81,17.38,17.38,0,0,0,.41-2.6c.68-5.79,1.33-11.59,2-17.38C517.22,262,517.55,260.72,517.87,259.08ZM104.25,346.41c.46-6.8-3.37-15.51-7.47-20.46a23.54,23.54,0,0,0-8.37-6.3c-3.57-1.66-6.43-.09-6.93,3.76-.2,1.56.09,3.18-.07,4.75-.65,6.21-1.26,12.43-3.45,18.34-1.61,4.34-3.25,8.69-5.13,12.92C66.1,374.64,60,390.08,54.24,405.71a50.69,50.69,0,0,1-14.77,21.51,28.24,28.24,0,0,0-4.84,5.61,9.81,9.81,0,0,0-1.49,4.45c-.27,2.85,1.24,4.25,4.15,4.3a16.39,16.39,0,0,0,6.93-1.73c3.73-1.64,7.44-3.32,11.17-5a88.14,88.14,0,0,0,17.38-10.58c4.52-3.43,8.91-7,13.31-10.62a130.17,130.17,0,0,0,21.1-20.87,3.75,3.75,0,0,0-1.14-5.91,26.85,26.85,0,0,0-2.78-1.41c-3.27-1.39-4.34-4-4.28-7.34a14.44,14.44,0,0,1,.22-2.63q.85-4.23,1.85-8.42C102.62,360.47,104.11,353.84,104.25,346.41ZM272,327c-.31-6.65-3.8-11.78-8.44-16.09-5.4-5-12-8.38-18.07-12.58a3.67,3.67,0,0,0-3.65-.38,9.91,9.91,0,0,1-2.05.63,2.89,2.89,0,0,1-3.4-1.59c-3-6.3-8.33-10.22-14-13.73a13.07,13.07,0,0,0-4.7-1.62,3.22,3.22,0,0,0-3.77,3.34,12.17,12.17,0,0,0,.19,2.63,19,19,0,0,1-1.21,11,9.3,9.3,0,0,0-.07,6.77,95.07,95.07,0,0,0,13.32,25.09c2.37,3.29,3.08,6.8,1.06,10.53-3.39,6.26-7,12.4-11.59,17.85a3.82,3.82,0,0,0,1.7,6.35c1.66.58,3.29,1.26,5,1.72,3,.82,6,1.63,9,2.22,3.61.69,7.29,1,10.88,1.73,7.66,1.59,15.3,3.32,22.92,5.09a3.28,3.28,0,0,0,3.59-1.19,3.22,3.22,0,0,0,.26-3.82c-.86-1.53-1.87-3-2.77-4.48a31.83,31.83,0,0,1-3.71-10.56,10.6,10.6,0,0,1,1.26-7.13c1.71-3.34,3.45-6.66,5.11-10A32.35,32.35,0,0,0,272,327Zm392.77-72.17c.94,2.8,1.74,5.3,2.64,7.77.79,2.16,1.94,2.45,3.51.86,1.75-1.76,3.4-3.61,5.06-5.45a2.83,2.83,0,0,0,.75-1.2c1.24-5.11,3-10.11,3.47-15.4.51-6,1-11.94,1.38-17.92.22-2.95.47-5.9.44-8.85a12.28,12.28,0,0,0-1-4.59c-1-2.36-3.35-3.06-5.63-3.63a22.43,22.43,0,0,0-10.21.29A53.85,53.85,0,0,0,638.78,221c-1.1,1.05-2.16,2.14-3.34,3.09q-5.54,4.4-11.16,8.69a13.73,13.73,0,0,1-3.28,1.93q-11.14,4.38-22.35,8.61a4.09,4.09,0,0,0-3.06,3.83c-.11,1.75-.39,3.49-.47,5.24a12.11,12.11,0,0,0,1.16,6.52,5.32,5.32,0,0,1,.09,4.42c-.31.83-.71,1.62-1,2.45-.65,2-.34,2.73,1.48,3.69,1.34.71,2.7,1.38,4.07,2,2.68,1.32,3.13,1.2,4.92-1.27l3.35-4.66c2,1.46,3.75,2.77,5.53,4s2.47.91,3.54-.78,2-3.44,3.06-5.15c.73-1.21,1.47-2.4,2.3-3.74.92.84,1.64,1.47,2.34,2.11,2.77,2.58,3.53,2.42,5.1-1.07.8-1.78,1.64-3.55,2.58-5.59,1.41,1.85,2.53,3.4,3.74,4.88s2,1.36,3.14.06c.47-.53.84-1.16,1.26-1.74l3-4.31c.85,1,1.54,1.88,2.26,2.7,1.48,1.69,2.3,1.72,4,.13.58-.55,1.11-1.14,1.69-1.7s1.42-1.36,2.28-2.17c.57,1.21,1,2.07,1.39,2.92,1,1.91,1.67,2.16,3.61,1.19C661.51,256.56,663,255.73,664.74,254.79ZM462.65,322.67c-4.06.36-8.13.62-12.17,1.09-11.91,1.39-22.92,5.62-33.64,10.73a9.08,9.08,0,0,0-1.28.66,4.3,4.3,0,0,0-1.14,5.74,9.79,9.79,0,0,1,1.25,4,13.37,13.37,0,0,1-3.2,9.29c-2.47,3-1.76,6.36,1.65,8.1,2.81,1.44,4.43,3.59,4.08,6.92a84,84,0,0,1-.86,8.57c-.86,4.13-2,8.2-3.25,12.25s1.45,7,5.51,6.27a12.83,12.83,0,0,0,5.73-2.83c1.64-1.27,3.29-2.55,5-3.78C440.81,382,451.13,374,460.05,364.4c6.71-7.19,13-14.73,19.51-22.13a20.17,20.17,0,0,0,1.93-2.74,16.81,16.81,0,0,0,2.77-7.08,5,5,0,0,0-.34-2.77,9.64,9.64,0,0,0-6.52-5.2A64.79,64.79,0,0,0,462.65,322.67Zm-65.2-101.92c1-.07,2.14-.11,3.25-.23a4.86,4.86,0,0,0,4.64-4.37,13.38,13.38,0,0,0,.06-4.28c-.91-4.93-2.5-9.59-5.92-13.44a19.29,19.29,0,0,1-1.53-2.14c-4-5.9-8.19-11.66-13.47-16.51-2.58-2.37-5.46-4.41-8.14-6.68a53.53,53.53,0,0,0-21-11.17,10.13,10.13,0,0,0-5.43-.35c-2.88.8-4,2.92-2.92,5.7.48,1.27,1.07,2.51,1.47,3.8a68.3,68.3,0,0,1,2.15,31.53c-.61,3.87-1.2,7.76-3,11.31a4.91,4.91,0,0,0,.6,5.76c7.49,9.67,14.89,19.42,22.33,29.12a12.23,12.23,0,0,0,2,2.1,3.32,3.32,0,0,0,5-.81,18.57,18.57,0,0,0,1.11-2.12c4-8,8-16,12-24,1.11-2.26,2.69-3.51,5.29-3.2C396.39,220.79,396.88,220.75,397.45,220.75ZM124.28,302.59c3.35,0,4.94-2.75,3.61-5.56-1.2-2.51-2.36-5.06-3.34-7.67-2.52-6.75-5.17-13.45-9.53-19.27a136.15,136.15,0,0,0-51.79-42A290.51,290.51,0,0,0,29,214.39c-1.75-.57-3.3-.54-4.6.9a4.09,4.09,0,0,0-.3,4.91c1,1.89,2,3.82,3.13,5.66,1.61,2.67,3.51,5.17,4.91,7.94A11.21,11.21,0,0,0,37.22,239c2.06,1,4.17,2,6.21,3.1a19,19,0,0,1,3.44,2.16A65.93,65.93,0,0,1,63,263.92c1.55,3,3.06,6,4.74,8.88a16,16,0,0,0,7.94,7.34c3.42,1.33,6.93,2.43,10.41,3.6q12,4.06,24.08,8.08a5.35,5.35,0,0,1,3.1,2.45c2.22,3.73,5.81,5.85,9.47,7.86A6.47,6.47,0,0,0,124.28,302.59Zm418,86.21v.05a30.91,30.91,0,0,0,3.35-.19c10.91-1.74,21.68-3.89,31.79-8.68,5.32-2.52,9.74-5.68,12.27-11.17a14.91,14.91,0,0,0,1.73-5.66,54.09,54.09,0,0,1,3.49-17.78c.41-1,.69-2.13,1.08-3.18a7.73,7.73,0,0,0,0-5.62c-1.73-4.64-3.48-9.27-5.11-13.95a6,6,0,0,0-3.92-3.9c-2.56-.89-5.16-1.68-7.77-2.45a6,6,0,0,0-5.07.62c-8.26,5-16.57,10-24.84,15a19.33,19.33,0,0,0-9.1,13.49,8.72,8.72,0,0,0,.58,5.85c.62,1.2.95,2.54,1.52,3.78a6.76,6.76,0,0,1,.26,4.87c-2.06,7.47-4,15-6,22.47a11.39,11.39,0,0,0-.42,2.59c-.08,2.43,1.16,3.74,3.55,3.85C540.54,388.83,541.42,388.8,542.3,388.8Zm-6.11,120.74-.36,0c.3,3.33.4,6.7.93,10,.58,3.63,3.1,4.73,6.33,3A5.45,5.45,0,0,0,544.9,521a51.48,51.48,0,0,0,3.77-5.54,165.85,165.85,0,0,0,12.8-28.61A69.92,69.92,0,0,0,565,458.06c-.58-6-1-12.1-1.51-18.14-.59-6.86-1.47-13.65-3.69-20.22-.75-2.23-2.41-3.22-4.63-2.49a5.11,5.11,0,0,0-3.35,2.87c-.38.88-.84,1.73-1.19,2.62a57.42,57.42,0,0,1-10.75,17.18,18.81,18.81,0,0,1-5.12,4.27,41.15,41.15,0,0,0-14.23,13.28,13.59,13.59,0,0,0-1.53,3.22c-1.23,3.57-.17,6.93,1.06,10.26,2.82,7.55,6.08,14.95,8,22.83a7,7,0,0,0,3.67,4.51,22.45,22.45,0,0,0,2.15,1.05,3.77,3.77,0,0,1,2.4,4C536.16,505.38,536.19,507.46,536.19,509.54ZM108.89,373.08a6.63,6.63,0,0,0,2.62,5.7c3,2.4,6.16,1.62,7.42-2a29.48,29.48,0,0,1,5.7-9.37c3.15-3.69,6.83-6.22,12-6.6a78.4,78.4,0,0,0,13.18-2.45,12,12,0,0,0,9-11.4,37.67,37.67,0,0,0-.09-3.83,19.48,19.48,0,0,1,2.91-11.91c.63-1,1.26-2,1.93-3,1-1.54,1.73-3.15.53-4.88s-3-1.58-4.76-1.15a14.82,14.82,0,0,1-3.31.45,35.66,35.66,0,0,1-14-2.79,13.6,13.6,0,0,1-7.11-5.81c-1.1-2-2.76-2.39-4.9-2.07-8,1.2-14.74-1.57-20.56-7a92.83,92.83,0,0,0-6.92-6.26c-6-4.45-12.7-7.38-19.64-9.9a21.78,21.78,0,0,0-2.75-.83c-3-.6-4.89,1.23-4.45,4.19a9.21,9.21,0,0,0,.33,1.4,48.84,48.84,0,0,1,2.21,13c.12,2.82,1.39,4,4.24,4.07a23.58,23.58,0,0,1,4.54.28c6.35,1.47,12.47,3.55,17.79,7.47a20.75,20.75,0,0,1,4.26,3.82,44.87,44.87,0,0,1,8.37,17.89,8.6,8.6,0,0,1-.58,5.6c-1.52,3.35-3,6.73-4.25,10.18A53.61,53.61,0,0,0,108.89,373.08Zm264.43-32.35a9.89,9.89,0,0,0-2.89-7.47c-3.05-3.05-6.2-6-9.31-9a9.32,9.32,0,0,0-6.94-2.71c-3.38.08-6.73.25-9.7,2.1-2.06,1.3-3.45,2.94-3.18,5.68.63,6.45-1.05,12.56-3.4,18.45-3.21,8-9.9,11.52-17.91,13.09a37.79,37.79,0,0,0-4.63,1,3.58,3.58,0,0,0-1.43,6.12,32.83,32.83,0,0,0,3.17,2.56,6.33,6.33,0,0,1,2.73,3.8,68.87,68.87,0,0,1,1.21,7.79,9.91,9.91,0,0,0,4.4,8.12c4,2.62,8.14,5,12.31,7.37,1.78,1,3.36.44,4.59-1.27a14.15,14.15,0,0,0,1.43-2.48c.8-1.74,1.54-3.5,2.28-5.27,1.65-4,1.72-4,6.05-3.53,7.46.79,14.95,1.45,22.41,2.3a6.66,6.66,0,0,0,5.73-2.32,14,14,0,0,0,1.72-2.31,3.47,3.47,0,0,0-.08-4.24c-1-1.37-1.82-2.83-2.85-4.15-2.06-2.63-4.27-5.15-6.31-7.81-2.22-2.91-4-6-2.78-9.93.78-2.6,1.3-5.27,1.86-7.93S372.82,343.39,373.32,340.73Zm-36.11-77c-2.93,1.39-5.8,2.77-8.68,4.12-6.87,3.22-13.72,6.49-20.63,9.62-3.06,1.38-3.78,2.94-2.26,6,1.05,2.15,2.11,4.3,3.24,6.41a63.82,63.82,0,0,0,22.75,24.48,10.78,10.78,0,0,0,5.12,1.87,3.64,3.64,0,0,0,3.76-2c.62-1.12,1.3-2.21,2-3.26,8.59-12.72,17.16-25.46,25.82-38.12a6,6,0,0,0,.75-6.3c-.49-1.09-1-2.19-1.51-3.26-1.6-3.13-3.3-6.21-4.81-9.39a150.78,150.78,0,0,0-11.88-21.34c-1.45-2.1-3-4.12-4.62-6.13a3.11,3.11,0,0,0-3.63-1.15,3.29,3.29,0,0,0-2.36,3,6.93,6.93,0,0,1-.21,1.9c-1.56,3.9-2.05,8-2.73,12.11a57.77,57.77,0,0,0-.56,14.56C337,259.15,337.06,261.38,337.21,263.76ZM502.1,321.85c-2.46-2.36-4.71-4.55-6.09-7.52-1.14-2.46-2.53-4.8-3.75-7.22a17.81,17.81,0,0,1-1.61-3.71,25,25,0,0,1-.15-11.86,3.37,3.37,0,0,0-.5-3.19c-1.57-1.81-3.16-3.61-4.81-5.34a3.29,3.29,0,0,0-3.79-.67,3.23,3.23,0,0,0-2.08,3.21c-.09,4.47-.26,8.95-.21,13.41.12,10.57,5,18.58,13.5,24.58a46.8,46.8,0,0,1,8.79,8.77,2.43,2.43,0,0,1,.15,3.11,31.48,31.48,0,0,1-2.09,2.91c-3.09,3.77-6.36,7.39-9.29,11.28-2.33,3.11-1,5.85,2.81,6.19a54.93,54.93,0,0,0,23.57-3,16.91,16.91,0,0,0,6.19-4,64,64,0,0,0,15-23.4,29.05,29.05,0,0,0,1.37-5.55c.39-2.35.5-4.76.86-7.12a5.64,5.64,0,0,0-2-5.59c-3.34-2.85-6.67-5.72-10-8.52a2.47,2.47,0,0,0-3.3,0,3.7,3.7,0,0,0-1.47,2.88,14.08,14.08,0,0,0,1.16,6.3c1.3,3.18,2.54,6.39,3.77,9.59a17,17,0,0,1,.49,1.81,3.45,3.45,0,0,1-3.9-.57,10.85,10.85,0,0,1-3.33-5.16c-1.3-4.11-2.63-8.21-2.92-12.57-.15-2.19-3.7-4.67-5.86-4.19a2.9,2.9,0,0,0-2.48,2.32,10.5,10.5,0,0,0-.16,3.78c.87,4.13,1.94,8.23,2.93,12.34.15.64.29,1.29.49,2.2a4.85,4.85,0,0,1-3.34-2.94,34.06,34.06,0,0,1-3.8-14.24,4.54,4.54,0,0,0-2.2-4.22c-1.92-1.14-3.76-2.41-5.67-3.56a3.12,3.12,0,0,0-3.8.3,3.34,3.34,0,0,0-1.08,3.68,12.36,12.36,0,0,1,.43,1.85,30.36,30.36,0,0,0,3.21,11.22c1.59,3.13,3.17,6.27,4.8,9.38A2.63,2.63,0,0,1,502.1,321.85ZM324.53,335c0-.1,0-.58,0-1.06-.45-9.52-5.47-16.85-11.62-23.52-2.7-2.93-5.48-5.72-7.63-9.15s-4.86-6.93-7.38-10.32a23.09,23.09,0,0,0-2.68-2.74,4.42,4.42,0,0,0-4.65-1q-7.85,2.22-15.73,4.24c-3.24.83-6.55,1.44-9.81,2.2-2.79.66-3.89,3.36-2.18,5.48,3,3.66,6.42,6.67,11.06,8.07,1.22.36,2.44.76,3.63,1.21,4.55,1.72,7.86,4.55,8.59,9.66.14.95.34,1.89.47,2.84a7.66,7.66,0,0,1-1.23,5.47c-1.54,2.32-2.74,4.95-4.57,7-3.2,3.58-2.17,10.61.6,13.49,2.08,2.16,4.72,2.93,7.46,3.45,4.32.81,8.65,1.57,13,2.12s8.74.83,13.11,1.21a4,4,0,0,0,3.75-1.68A26.22,26.22,0,0,0,324.53,335Zm231,65.5c-.07-2.16.29-3.74-.92-5-1.75-1.82-3.77-2.62-6.28-1.75a37.86,37.86,0,0,1-3.89,1.18,68,68,0,0,1-15.25,1.39c-8.8,0-17.59-.32-26.38-.55a33,33,0,0,1-3.8-.51,7,7,0,0,0-5.75,1.71,32.5,32.5,0,0,0-2.95,3.14,8.94,8.94,0,0,0-1.41,10.25q6.64,14.76,13.26,29.54c1.7,3.79,3.37,7.59,5.13,11.36,1.87,4,5.91,4.42,8.51.83.84-1.16,1.6-2.39,2.35-3.62a63,63,0,0,1,10.53-13,48.62,48.62,0,0,0,6.11-7.37,84.07,84.07,0,0,0,5-8.43,22.07,22.07,0,0,1,10.6-10,7.57,7.57,0,0,0,4.36-5.13C555.19,403,555.38,401.44,555.54,400.52ZM408.28,228a36,36,0,0,0-3.77.5,4.25,4.25,0,0,0-2.27,6.82,19.3,19.3,0,0,0,1.83,1.9l28.61,27c1.9,1.79,1.86,2,.58,4.25-1.78,3.11-3.54,6.25-5.13,9.46a15,15,0,0,0-1.57,7.91,7,7,0,0,0,4.78,6.53,8.7,8.7,0,0,0,7.86-.53,34.68,34.68,0,0,0,6.4-5,60,60,0,0,0,14.95-26.14,108.91,108.91,0,0,1,4.68-12.54c1.25-3,1.26-4-1.17-6.12-3.88-3.33-7.9-6.48-11.95-9.6a5.21,5.21,0,0,0-2.88-.94A118.18,118.18,0,0,0,428,232.58a2.86,2.86,0,0,1-3.3-1.55c-2.11-3.4-4.35-6.7-6.57-10a3.22,3.22,0,0,0-3.71-1.54,3.44,3.44,0,0,0-2.63,3.08c-.18,1.19-.32,2.38-.58,3.55C410.67,228.32,410.63,228.33,408.28,228Zm205.11,93c-1.73-1.82-3.26-3.45-4.82-5-1.35-1.38-2-1.51-3.55-.56s-3.39,2.14-5,3.28c-1.37,1-1.47,1.55-.49,3a46.74,46.74,0,0,0,2.87,3.84c2.49,2.92,5,5.79,7.57,8.67,1.46,1.67,2.71,3.39,1.79,5.81-1.79,4.71-3.53,9.41-6.67,13.48a77.76,77.76,0,0,0-5.14,7.8,28.25,28.25,0,0,0-2.24,5,3.51,3.51,0,0,0,1.14,4.31,3.65,3.65,0,0,0,4.27,0c9.29-5.16,18.7-10.12,27.85-15.52a66.88,66.88,0,0,1,14.79-6.67c5.88-1.78,11.74-3.69,17.52-5.77,5.16-1.85,6.72-4.81,6.68-8.6a45.15,45.15,0,0,0-1.19-8.29c-.46-2.32-1.66-2.68-3.58-1.26-1.12.83-2.22,1.69-3.49,2.65-.37-1.17-.6-2-.91-2.83-.65-1.69-1.52-2.05-3.17-1.32-.93.42-1.83.89-2.88,1.41-.24-.66-.44-1.16-.59-1.68-.35-1.22-.61-2.49-1-3.68-.6-1.66-1.93-1.88-3.1-.56-.43.48-.75,1-1.13,1.56l-2.06,2.86c-.42-1.09-.69-1.75-.94-2.42-1.08-2.86-1.89-3.05-3.92-.88-.82.88-1.6,1.79-2.44,2.65a9.78,9.78,0,0,1-1.33,1c-.8-2-1.48-3.78-2.22-5.54-.88-2.07-1.92-2.27-3.63-.75-.48.43-.92.89-1.38,1.33L627,322c-.5-.65-.91-1.13-1.26-1.64-1-1.51-2-3.05-3.13-4.54-1.2-1.67-1.9-1.72-3.49-.33-.36.31-.68.67-1,1ZM211,313.1c-.25-3-1.82-5.47-5.83-4.39A131.59,131.59,0,0,0,180,317.82a6.62,6.62,0,0,0-3,3c-3.73,7-6.38,14.45-9,21.92a52.13,52.13,0,0,1-5.32,11.21,4.16,4.16,0,0,0,3.26,6.59,42.76,42.76,0,0,0,7.17-.32c3.85-.66,7.63-1.69,11.44-2.58,1.91-.44,2.35-.26,3.24,1.48a9.16,9.16,0,0,1,.64,1.8c.53,2,1.09,4,1.53,6,.39,1.77,1.19,3.16,3,3.69s3.09-.37,4.18-1.66c3.86-4.59,7.82-9.09,11.53-13.8a79.24,79.24,0,0,0,6.15-9.13c3-5,3.12-10.06-.48-15a40.29,40.29,0,0,1-3.46-6.53,6.2,6.2,0,0,1-.53-2.79C210.46,319,210.73,316.41,211,313.1ZM412.76,277a6.24,6.24,0,0,0,5.66-2.86c.34-.44.69-.88,1.05-1.31,3.27-4,3.17-7.79-.33-11.58-.59-.65-1.24-1.25-1.85-1.88-2-2-4-3.93-5.9-6a52,52,0,0,0-12.09-9.35c-3.4-1.94-5.48-1.47-7.91,1.57a18.52,18.52,0,0,0-1.15,1.53c-5.34,8.44-10.8,16.8-16,25.34a345.39,345.39,0,0,0-16.82,32.56,6.5,6.5,0,0,0,.9,7.14,18.7,18.7,0,0,0,6.13,4.9c2.15,1.22,4.33,2.39,6.51,3.53a4.3,4.3,0,0,0,6.05-2,29.69,29.69,0,0,0,1.68-5.22,113.32,113.32,0,0,1,7.83-23.1,25.17,25.17,0,0,1,7.33-9.62c3.65-2.8,7.66-4.61,12.39-4.26C408.34,276.56,410.4,276.79,412.76,277Zm93.88,114.14c1.65-.13,4-.22,6.26-.54a52.65,52.65,0,0,0,6.34-1.26c5.38-1.46,8.69-5.17,10.61-10.22,2.12-5.6,2.28-11.56,3-17.41a6.21,6.21,0,0,0-.2-2.14,3.69,3.69,0,0,0-5.14-2.78c-.75.27-1.46.65-2.21.93-7.91,3-15.84,5.93-23.74,9a9.74,9.74,0,0,1-9.51-1.13,81.87,81.87,0,0,0-9-4.88,9.79,9.79,0,0,0-3.69-.92c-3.54-.22-6,1.73-8.09,4.33a81.4,81.4,0,0,1-5.61,6.53c-5,5-10.05,10.08-16.05,14a3.54,3.54,0,0,0-1.55,4,3.64,3.64,0,0,0,3.37,2.61c1,.09,2.08.05,3.11.17,7,.8,14.05.3,21.07.12s14.2-.63,21.31-.8C499.91,390.63,502.94,391,506.64,391.15Zm-97.51-15.26a39.15,39.15,0,0,0-1.23-5.55c-1.18-3.16-4.13-3.69-6.42-1.26-1.86,2-3.73,4-5.43,6.08q-13,16.3-25.91,32.68a19.72,19.72,0,0,0-3.91,7.61,8.18,8.18,0,0,1-3.35,4.76,152.32,152.32,0,0,0-19.16,17c-.94,1-1.87,2-2.72,3a4.7,4.7,0,0,0-.09,5.38c1,1.59,2.49,2.52,4.48,2a20,20,0,0,0,3.83-1.28c3.27-1.67,6.45-3.53,9.7-5.23a201,201,0,0,0,30-19.24c5.23-4.07,10.41-8.21,15.62-12.3a7,7,0,0,0,2.74-6.08c-.05-1.68-.19-3.36-.38-5a39,39,0,0,1,.4-12.39C408,382.74,408.52,379.36,409.13,375.89Zm-21.27-6.54c2.4.28,4.28-1.22,6-2.93a17.72,17.72,0,0,0,4.51-7.81,48.05,48.05,0,0,0,2.3-16.3A10.22,10.22,0,0,1,403,335a16.18,16.18,0,0,1,3.17-3.23c5-3.48,10-7,15.11-10.16,3.57-2.2,5.33-4.66,4.57-9.19a35.05,35.05,0,0,0-4.35-12.83c-2-3.19-4-6.35-6.08-9.48a7.77,7.77,0,0,0-10.38-2.37,21,21,0,0,0-3.61,2.76c-3.41,3.25-6.81,6.51-10.08,9.91a9.36,9.36,0,0,0-2.3,8c1.05,7.73.86,15.48.54,23.23a9.5,9.5,0,0,1-1.3,4.27,90.75,90.75,0,0,1-5.14,7.52c-3,4-4.65,8.31-3.57,13.43a36.46,36.46,0,0,0,3.73,10.55A3.81,3.81,0,0,0,387.86,369.35ZM564.34,294.6c1.27-.79,2.44-1.44,3.53-2.21,6-4.23,11.4-9,14.88-15.63,1.25-2.4,2.87-4.59,4.25-6.92a5,5,0,0,0,1-2.59c-.3-3.84-1-7.61-3.43-10.78-1.35-1.77-2.52-2.12-4.6-1.46-1.52.48-3.05.92-4.56,1.43-2.34.79-4.31.54-6-1.49a3.15,3.15,0,0,0-4.7-.44,16.89,16.89,0,0,0-3.11,3.52,16.47,16.47,0,0,0-1.42,3,89.27,89.27,0,0,1-15.14,24,20.71,20.71,0,0,0-5.09,8.83,8.22,8.22,0,0,0,1.71,7.81,36.23,36.23,0,0,0,6,5.77,5.11,5.11,0,0,1,2.09,5.66,4,4,0,0,0,2,4.68c1.81.91,3.08,0,4.51-1.09,4-3.14,8.09-6.25,12.84-8.29a4.69,4.69,0,0,0,2.56-6.34,14.92,14.92,0,0,0-2.8-4.1A36.2,36.2,0,0,0,564.34,294.6ZM460.87,313.05a11.52,11.52,0,0,1,2.07.42c2,.77,4,1.65,6,2.45a14.69,14.69,0,0,0,2.91,1,2.85,2.85,0,0,0,3-1.49,3,3,0,0,0-.09-3.6c-1.93-2.15-2.39-4.82-3-7.45-1.55-6.76-1-13.49.31-20.21.66-3.53,1.31-7.07,1.86-10.62.33-2.13-.94-3.84-2.9-3.86a8.27,8.27,0,0,0-5.18,1.52c-1.67,1.23-2,3-2.16,4.86a16.35,16.35,0,0,1-2.11,7.06c-3.52,6-7.72,11.39-13.63,15.21a65.11,65.11,0,0,1-8.49,4.87c-3.63,1.64-4.38,6.59-1.57,8.94,2.2,1.83,4.54,3.5,6.91,5.12a2.9,2.9,0,0,0,3.58-.3C452,314,456.53,313.91,460.87,313.05ZM276.74,358.48c-1.76-.06-3.22.37-4.05,2a3.89,3.89,0,0,0,.84,4.62c2.65,3,5.26,6,8,8.9A16.66,16.66,0,0,0,292,379.25c1.58.19,3.14.55,4.72.73,3,.33,6,.69,9,.85a3.58,3.58,0,0,0,3.83-2.65c.55-1.76-.31-3-1.57-4.21-7.57-7.06-16.53-11.6-26.35-14.58A44.44,44.44,0,0,0,276.74,358.48Z" transform="translate(-0.48 -0.48)"/><path class="cls-1" d="M689.36,183.23a38.77,38.77,0,0,1-3.88,14.11c-1.27,2.77-2.76,3.61-5.51,2.49-4.34-1.77-8.83-2-13.39-2.14a34.14,34.14,0,0,0-23.26,8,173.45,173.45,0,0,0-13.55,11.82c-2.5,2.51-5.62,3.53-8.51,5.12a25.28,25.28,0,0,1-4.45,1.76c-10.69,3.46-20.13,9.31-29.38,15.51-2.06,1.38-4.07,2.83-6.11,4.24-2.35,1.62-4.72,1.33-7.28.37-5.42-2-6.36-6.43-6.49-11.4-.07-2.55-.24-5.1-.34-7.65a5.13,5.13,0,0,0-3.08-4.5c-1.9-1-3.78-2.09-5.68-3.11-4.39-2.37-5-5.72-4.6-9.89.15-1.62,1.41-2.46,2.73-3.1,3.09-1.5,6.17-3,9.33-4.37q17.46-7.35,35-14.53a153.08,153.08,0,0,1,23.82-7.29c8.56-2,17-4.44,25.75-5.62,7.61-1,15.2-2.16,22.83-2.92a67.46,67.46,0,0,1,10.53.23A4.21,4.21,0,0,1,688,174C688.57,177.07,688.92,180.16,689.36,183.23Zm-89.6,31.43a7,7,0,1,0-7.19-7.06A7,7,0,0,0,599.76,214.66Z" transform="translate(-0.48 -0.48)"/><path class="cls-1" d="M517.87,259.08c-.32,1.64-.65,2.92-.81,4.24-.7,5.79-1.35,11.59-2,17.38a17.38,17.38,0,0,1-.41,2.6,3.82,3.82,0,0,1-4.61,2.81c-1.85-.4-2.81-2.08-2.56-4.25.65-5.55,1.25-11.11,1.86-16.67.15-1.35.33-2.7.45-4.05a3.27,3.27,0,0,0,0-1.65,2.15,2.15,0,0,0-1.29-1.18c-.45-.05-1.1.47-1.45.91a3.83,3.83,0,0,0-.52,1.58c-1,5.17-2,10.35-3,15.51a19.87,19.87,0,0,1-1.21,4.35,3.11,3.11,0,0,1-4.58,1.65,20.93,20.93,0,0,1-4.43-3.56,3.08,3.08,0,0,1-.44-2.95c1.07-4.83,2-9.69,3-14.54.1-.45.18-.91.29-1.47a1.87,1.87,0,0,0-2.36,1.21,37,37,0,0,0-1.5,3.77c-.45,1.37-.77,2.77-1.17,4.15-.85,2.93-3.33,4-6,2.48a6.81,6.81,0,0,1-2.32-2.3c-1.16-1.91-2.13-3.94-3.1-6a19.7,19.7,0,0,1-1.8-7.88c-.12-3.43-.44-6.85-.77-10.26a11.19,11.19,0,0,0-4.74-8.51c-.85-.6-1.63-1.3-2.48-1.89a4.34,4.34,0,0,1-1.75-4.22,3.45,3.45,0,0,1,3.47-3.3,236.48,236.48,0,0,0,35.17-4.43c3.74-.75,7.35-2.13,11-3.21L536,214.15a40.6,40.6,0,0,1,4.15-1.16,11.7,11.7,0,0,1,3.77-.21c2.34.37,3.24,1.89,3.23,4.28a56.7,56.7,0,0,0,.48,6.89,4.4,4.4,0,0,0,3,3.74c1,.36,1.91.83,2.88,1.18,2.23.79,2.82,1.46,2.92,3.8.33,7.45-.46,14.77-3.73,21.53-4.21,8.7-8.71,17.27-13.23,25.81a35.68,35.68,0,0,1-4.19,5.52,3.5,3.5,0,0,1-1.58,1,31.15,31.15,0,0,1-9.69,1.27,3.63,3.63,0,0,1-3.7-4.11c.08-2.23.24-4.47.39-6.7q.49-7.17,1-14.35c.13-1.76.11-1.85-1.66-2.65C519.47,259.74,518.88,259.51,517.87,259.08Z" transform="translate(-0.48 -0.48)"/><path class="cls-1" d="M104.25,346.41c-.14,7.43-1.63,14.06-3.2,20.68q-1,4.19-1.85,8.42a14.44,14.44,0,0,0-.22,2.63c-.06,3.3,1,5.95,4.28,7.34a26.85,26.85,0,0,1,2.78,1.41,3.75,3.75,0,0,1,1.14,5.91,130.17,130.17,0,0,1-21.1,20.87c-4.4,3.58-8.79,7.19-13.31,10.62a88.14,88.14,0,0,1-17.38,10.58c-3.73,1.66-7.44,3.34-11.17,5a16.39,16.39,0,0,1-6.93,1.73c-2.91-.05-4.42-1.45-4.15-4.3a9.81,9.81,0,0,1,1.49-4.45,28.24,28.24,0,0,1,4.84-5.61,50.69,50.69,0,0,0,14.77-21.51C60,390.08,66.1,374.64,72.83,359.42c1.88-4.23,3.52-8.58,5.13-12.92,2.19-5.91,2.8-12.13,3.45-18.34.16-1.57-.13-3.19.07-4.75.5-3.85,3.36-5.42,6.93-3.76a23.54,23.54,0,0,1,8.37,6.3C100.88,330.9,104.71,339.61,104.25,346.41Z" transform="translate(-0.48 -0.48)"/><path class="cls-1" d="M272,327a32.35,32.35,0,0,1-3.11,11.79c-1.66,3.36-3.4,6.68-5.11,10a10.6,10.6,0,0,0-1.26,7.13,31.83,31.83,0,0,0,3.71,10.56c.9,1.51,1.91,3,2.77,4.48a3.22,3.22,0,0,1-.26,3.82,3.28,3.28,0,0,1-3.59,1.19c-7.62-1.77-15.26-3.5-22.92-5.09-3.59-.75-7.27-1-10.88-1.73-3-.59-6-1.4-9-2.22-1.69-.46-3.32-1.14-5-1.72a3.82,3.82,0,0,1-1.7-6.35c4.63-5.45,8.2-11.59,11.59-17.85,2-3.73,1.31-7.24-1.06-10.53a95.07,95.07,0,0,1-13.32-25.09,9.3,9.3,0,0,1,.07-6.77,19,19,0,0,0,1.21-11,12.17,12.17,0,0,1-.19-2.63,3.22,3.22,0,0,1,3.77-3.34,13.07,13.07,0,0,1,4.7,1.62c5.67,3.51,11,7.43,14,13.73a2.89,2.89,0,0,0,3.4,1.59,9.91,9.91,0,0,0,2.05-.63,3.67,3.67,0,0,1,3.65.38c6,4.2,12.67,7.55,18.07,12.58C268.17,315.18,271.66,320.31,272,327Z" transform="translate(-0.48 -0.48)"/><path class="cls-1" d="M664.74,254.79c-1.77.94-3.23,1.77-4.72,2.51-1.94,1-2.66.72-3.61-1.19-.42-.85-.82-1.71-1.39-2.92-.86.81-1.58,1.48-2.28,2.17s-1.11,1.15-1.69,1.7c-1.66,1.59-2.48,1.56-4-.13-.72-.82-1.41-1.68-2.26-2.7l-3,4.31c-.42.58-.79,1.21-1.26,1.74-1.13,1.3-2,1.3-3.14-.06s-2.33-3-3.74-4.88c-.94,2-1.78,3.81-2.58,5.59-1.57,3.49-2.33,3.65-5.1,1.07-.7-.64-1.42-1.27-2.34-2.11-.83,1.34-1.57,2.53-2.3,3.74-1,1.71-2,3.46-3.06,5.15s-1.9,1.89-3.54.78-3.5-2.51-5.53-4l-3.35,4.66c-1.79,2.47-2.24,2.59-4.92,1.27-1.37-.67-2.73-1.34-4.07-2-1.82-1-2.13-1.73-1.48-3.69.28-.83.68-1.62,1-2.45a5.32,5.32,0,0,0-.09-4.42,12.11,12.11,0,0,1-1.16-6.52c.08-1.75.36-3.49.47-5.24a4.09,4.09,0,0,1,3.06-3.83q11.21-4.23,22.35-8.61a13.73,13.73,0,0,0,3.28-1.93q5.63-4.29,11.16-8.69c1.18-1,2.24-2,3.34-3.09a53.85,53.85,0,0,1,26.38-14.33,22.43,22.43,0,0,1,10.21-.29c2.28.57,4.61,1.27,5.63,3.63a12.28,12.28,0,0,1,1,4.59c0,3-.22,5.9-.44,8.85-.43,6-.87,12-1.38,17.92-.44,5.29-2.23,10.29-3.47,15.4A2.83,2.83,0,0,1,676,258c-1.66,1.84-3.31,3.69-5.06,5.45-1.57,1.59-2.72,1.3-3.51-.86C666.48,260.09,665.68,257.59,664.74,254.79Z" transform="translate(-0.48 -0.48)"/><path class="cls-1" d="M462.65,322.67a64.79,64.79,0,0,1,14.75,1.81,9.64,9.64,0,0,1,6.52,5.2,5,5,0,0,1,.34,2.77,16.81,16.81,0,0,1-2.77,7.08,20.17,20.17,0,0,1-1.93,2.74c-6.47,7.4-12.8,14.94-19.51,22.13-8.92,9.56-19.24,17.56-29.76,25.28-1.67,1.23-3.32,2.51-5,3.78a12.83,12.83,0,0,1-5.73,2.83c-4.06.68-6.68-2.34-5.51-6.27s2.39-8.12,3.25-12.25a84,84,0,0,0,.86-8.57c.35-3.33-1.27-5.48-4.08-6.92-3.41-1.74-4.12-5.09-1.65-8.1a13.37,13.37,0,0,0,3.2-9.29,9.79,9.79,0,0,0-1.25-4,4.3,4.3,0,0,1,1.14-5.74,9.08,9.08,0,0,1,1.28-.66c10.72-5.11,21.73-9.34,33.64-10.73C454.52,323.29,458.59,323,462.65,322.67Z" transform="translate(-0.48 -0.48)"/><path class="cls-1" d="M397.45,220.75c-.57,0-1.06,0-1.53,0-2.6-.31-4.18.94-5.29,3.2-4,8-8,16-12,24a18.57,18.57,0,0,1-1.11,2.12,3.32,3.32,0,0,1-5,.81,12.23,12.23,0,0,1-2-2.1c-7.44-9.7-14.84-19.45-22.33-29.12a4.91,4.91,0,0,1-.6-5.76c1.79-3.55,2.38-7.44,3-11.31a68.3,68.3,0,0,0-2.15-31.53c-.4-1.29-1-2.53-1.47-3.8-1.06-2.78,0-4.9,2.92-5.7a10.13,10.13,0,0,1,5.43.35,53.53,53.53,0,0,1,21,11.17c2.68,2.27,5.56,4.31,8.14,6.68,5.28,4.85,9.46,10.61,13.47,16.51a19.29,19.29,0,0,0,1.53,2.14c3.42,3.85,5,8.51,5.92,13.44a13.38,13.38,0,0,1-.06,4.28,4.86,4.86,0,0,1-4.64,4.37C399.59,220.64,398.47,220.68,397.45,220.75Z" transform="translate(-0.48 -0.48)"/><path class="cls-1" d="M124.28,302.59a6.47,6.47,0,0,1-1.5-.46c-3.66-2-7.25-4.13-9.47-7.86a5.35,5.35,0,0,0-3.1-2.45q-12-4-24.08-8.08c-3.48-1.17-7-2.27-10.41-3.6a16,16,0,0,1-7.94-7.34c-1.68-2.9-3.19-5.9-4.74-8.88a65.93,65.93,0,0,0-16.17-19.71,19,19,0,0,0-3.44-2.16c-2-1.08-4.15-2.06-6.21-3.1a11.21,11.21,0,0,1-5.12-5.15c-1.4-2.77-3.3-5.27-4.91-7.94-1.11-1.84-2.1-3.77-3.13-5.66a4.09,4.09,0,0,1,.3-4.91c1.3-1.44,2.85-1.47,4.6-.9a290.51,290.51,0,0,1,34.27,13.67,136.15,136.15,0,0,1,51.79,42c4.36,5.82,7,12.52,9.53,19.27,1,2.61,2.14,5.16,3.34,7.67C129.22,299.84,127.63,302.63,124.28,302.59Z" transform="translate(-0.48 -0.48)"/><path class="cls-1" d="M542.3,388.8c-.88,0-1.76,0-2.64,0-2.39-.11-3.63-1.42-3.55-3.85a11.39,11.39,0,0,1,.42-2.59c2-7.5,3.92-15,6-22.47a6.76,6.76,0,0,0-.26-4.87c-.57-1.24-.9-2.58-1.52-3.78a8.72,8.72,0,0,1-.58-5.85,19.33,19.33,0,0,1,9.1-13.49c8.27-5,16.58-10,24.84-15a6,6,0,0,1,5.07-.62c2.61.77,5.21,1.56,7.77,2.45a6,6,0,0,1,3.92,3.9c1.63,4.68,3.38,9.31,5.11,13.95a7.73,7.73,0,0,1,0,5.62c-.39,1.05-.67,2.14-1.08,3.18a54.09,54.09,0,0,0-3.49,17.78,14.91,14.91,0,0,1-1.73,5.66c-2.53,5.49-7,8.65-12.27,11.17-10.11,4.79-20.88,6.94-31.79,8.68a30.91,30.91,0,0,1-3.35.19Z" transform="translate(-0.48 -0.48)"/><path class="cls-1" d="M536.19,509.54c0-2.08,0-4.16,0-6.23a3.77,3.77,0,0,0-2.4-4,22.45,22.45,0,0,1-2.15-1.05,7,7,0,0,1-3.67-4.51c-1.89-7.88-5.15-15.28-8-22.83-1.23-3.33-2.29-6.69-1.06-10.26a13.59,13.59,0,0,1,1.53-3.22,41.15,41.15,0,0,1,14.23-13.28,18.81,18.81,0,0,0,5.12-4.27,57.42,57.42,0,0,0,10.75-17.18c.35-.89.81-1.74,1.19-2.62a5.11,5.11,0,0,1,3.35-2.87c2.22-.73,3.88.26,4.63,2.49,2.22,6.57,3.1,13.36,3.69,20.22.52,6,.93,12.1,1.51,18.14a69.92,69.92,0,0,1-3.48,28.83,165.85,165.85,0,0,1-12.8,28.61A51.48,51.48,0,0,1,544.9,521a5.45,5.45,0,0,1-1.81,1.52c-3.23,1.73-5.75.63-6.33-3-.53-3.3-.63-6.67-.93-10Z" transform="translate(-0.48 -0.48)"/><path class="cls-1" d="M108.89,373.08a53.61,53.61,0,0,1,3.72-17.25c1.27-3.45,2.73-6.83,4.25-10.18a8.6,8.6,0,0,0,.58-5.6,44.87,44.87,0,0,0-8.37-17.89,20.75,20.75,0,0,0-4.26-3.82c-5.32-3.92-11.44-6-17.79-7.47a23.58,23.58,0,0,0-4.54-.28c-2.85-.11-4.12-1.25-4.24-4.07a48.84,48.84,0,0,0-2.21-13,9.21,9.21,0,0,1-.33-1.4c-.44-3,1.49-4.79,4.45-4.19a21.78,21.78,0,0,1,2.75.83c6.94,2.52,13.69,5.45,19.64,9.9a92.83,92.83,0,0,1,6.92,6.26c5.82,5.39,12.54,8.16,20.56,7,2.14-.32,3.8.12,4.9,2.07a13.6,13.6,0,0,0,7.11,5.81,35.66,35.66,0,0,0,14,2.79,14.82,14.82,0,0,0,3.31-.45c1.81-.43,3.55-.59,4.76,1.15s.49,3.34-.53,4.88c-.67,1-1.3,2-1.93,3a19.48,19.48,0,0,0-2.91,11.91,37.67,37.67,0,0,1,.09,3.83,12,12,0,0,1-9,11.4,78.4,78.4,0,0,1-13.18,2.45c-5.18.38-8.86,2.91-12,6.6a29.48,29.48,0,0,0-5.7,9.37c-1.26,3.63-4.38,4.41-7.42,2A6.63,6.63,0,0,1,108.89,373.08Z" transform="translate(-0.48 -0.48)"/><path class="cls-1" d="M373.32,340.73c-.5,2.66-1,5.33-1.52,8s-1.08,5.33-1.86,7.93c-1.17,3.95.56,7,2.78,9.93,2,2.66,4.25,5.18,6.31,7.81,1,1.32,1.88,2.78,2.85,4.15a3.47,3.47,0,0,1,.08,4.24,14,14,0,0,1-1.72,2.31,6.66,6.66,0,0,1-5.73,2.32c-7.46-.85-14.95-1.51-22.41-2.3-4.33-.46-4.4-.45-6.05,3.53-.74,1.77-1.48,3.53-2.28,5.27a14.15,14.15,0,0,1-1.43,2.48c-1.23,1.71-2.81,2.27-4.59,1.27-4.17-2.34-8.31-4.75-12.31-7.37a9.91,9.91,0,0,1-4.4-8.12,68.87,68.87,0,0,0-1.21-7.79,6.33,6.33,0,0,0-2.73-3.8,32.83,32.83,0,0,1-3.17-2.56,3.58,3.58,0,0,1,1.43-6.12,37.79,37.79,0,0,1,4.63-1c8-1.57,14.7-5.05,17.91-13.09,2.35-5.89,4-12,3.4-18.45-.27-2.74,1.12-4.38,3.18-5.68,3-1.85,6.32-2,9.7-2.1a9.32,9.32,0,0,1,6.94,2.71c3.11,3,6.26,5.95,9.31,9A9.89,9.89,0,0,1,373.32,340.73Z" transform="translate(-0.48 -0.48)"/><path class="cls-1" d="M337.21,263.76c-.15-2.38-.22-4.61-.43-6.83a57.77,57.77,0,0,1,.56-14.56c.68-4.1,1.17-8.21,2.73-12.11a6.93,6.93,0,0,0,.21-1.9,3.29,3.29,0,0,1,2.36-3,3.11,3.11,0,0,1,3.63,1.15c1.59,2,3.17,4,4.62,6.13A150.78,150.78,0,0,1,362.77,254c1.51,3.18,3.21,6.26,4.81,9.39.54,1.07,1,2.17,1.51,3.26a6,6,0,0,1-.75,6.3c-8.66,12.66-17.23,25.4-25.82,38.12-.71,1-1.39,2.14-2,3.26a3.64,3.64,0,0,1-3.76,2,10.78,10.78,0,0,1-5.12-1.87,63.82,63.82,0,0,1-22.75-24.48c-1.13-2.11-2.19-4.26-3.24-6.41-1.52-3.09-.8-4.65,2.26-6,6.91-3.13,13.76-6.4,20.63-9.62C331.41,266.53,334.28,265.15,337.21,263.76Z" transform="translate(-0.48 -0.48)"/><path class="cls-1" d="M502.1,321.85a2.63,2.63,0,0,0-.13-3c-1.63-3.11-3.21-6.25-4.8-9.38A30.36,30.36,0,0,1,494,298.23a12.36,12.36,0,0,0-.43-1.85,3.34,3.34,0,0,1,1.08-3.68,3.12,3.12,0,0,1,3.8-.3c1.91,1.15,3.75,2.42,5.67,3.56a4.54,4.54,0,0,1,2.2,4.22,34.06,34.06,0,0,0,3.8,14.24,4.85,4.85,0,0,0,3.34,2.94c-.2-.91-.34-1.56-.49-2.2-1-4.11-2.06-8.21-2.93-12.34a10.5,10.5,0,0,1,.16-3.78,2.9,2.9,0,0,1,2.48-2.32c2.16-.48,5.71,2,5.86,4.19.29,4.36,1.62,8.46,2.92,12.57a10.85,10.85,0,0,0,3.33,5.16,3.45,3.45,0,0,0,3.9.57,17,17,0,0,0-.49-1.81c-1.23-3.2-2.47-6.41-3.77-9.59a14.08,14.08,0,0,1-1.16-6.3,3.7,3.7,0,0,1,1.47-2.88,2.47,2.47,0,0,1,3.3,0c3.38,2.8,6.71,5.67,10,8.52a5.64,5.64,0,0,1,2,5.59c-.36,2.36-.47,4.77-.86,7.12a29.05,29.05,0,0,1-1.37,5.55,64,64,0,0,1-15,23.4,16.91,16.91,0,0,1-6.19,4,54.93,54.93,0,0,1-23.57,3c-3.83-.34-5.14-3.08-2.81-6.19,2.93-3.89,6.2-7.51,9.29-11.28a31.48,31.48,0,0,0,2.09-2.91,2.43,2.43,0,0,0-.15-3.11,46.8,46.8,0,0,0-8.79-8.77c-8.49-6-13.38-14-13.5-24.58-.05-4.46.12-8.94.21-13.41a3.23,3.23,0,0,1,2.08-3.21,3.29,3.29,0,0,1,3.79.67c1.65,1.73,3.24,3.53,4.81,5.34a3.37,3.37,0,0,1,.5,3.19,25,25,0,0,0,.15,11.86,17.81,17.81,0,0,0,1.61,3.71c1.22,2.42,2.61,4.76,3.75,7.22C497.39,317.3,499.64,319.49,502.1,321.85Z" transform="translate(-0.48 -0.48)"/><path class="cls-1" d="M324.53,335a26.22,26.22,0,0,1-5.82,17,4,4,0,0,1-3.75,1.68c-4.37-.38-8.76-.66-13.11-1.21s-8.68-1.31-13-2.12c-2.74-.52-5.38-1.29-7.46-3.45-2.77-2.88-3.8-9.91-.6-13.49,1.83-2.06,3-4.69,4.57-7a7.66,7.66,0,0,0,1.23-5.47c-.13-1-.33-1.89-.47-2.84-.73-5.11-4-7.94-8.59-9.66-1.19-.45-2.41-.85-3.63-1.21-4.64-1.4-8.1-4.41-11.06-8.07-1.71-2.12-.61-4.82,2.18-5.48,3.26-.76,6.57-1.37,9.81-2.2q7.89-2,15.73-4.24a4.42,4.42,0,0,1,4.65,1,23.09,23.09,0,0,1,2.68,2.74c2.52,3.39,5.13,6.75,7.38,10.32s4.93,6.22,7.63,9.15c6.15,6.67,11.17,14,11.62,23.52C324.55,334.44,324.53,334.92,324.53,335Z" transform="translate(-0.48 -0.48)"/><path class="cls-1" d="M555.54,400.52c-.16.92-.35,2.51-.75,4.05a7.57,7.57,0,0,1-4.36,5.13,22.07,22.07,0,0,0-10.6,10,84.07,84.07,0,0,1-5,8.43,48.62,48.62,0,0,1-6.11,7.37,63,63,0,0,0-10.53,13c-.75,1.23-1.51,2.46-2.35,3.62-2.6,3.59-6.64,3.2-8.51-.83-1.76-3.77-3.43-7.57-5.13-11.36q-6.63-14.78-13.26-29.54a8.94,8.94,0,0,1,1.41-10.25,32.5,32.5,0,0,1,2.95-3.14,7,7,0,0,1,5.75-1.71,33,33,0,0,0,3.8.51c8.79.23,17.58.51,26.38.55A68,68,0,0,0,544.45,395a37.86,37.86,0,0,0,3.89-1.18c2.51-.87,4.53-.07,6.28,1.75C555.83,396.78,555.47,398.36,555.54,400.52Z" transform="translate(-0.48 -0.48)"/><path class="cls-1" d="M408.28,228c2.35.34,2.39.33,2.89-1.89.26-1.17.4-2.36.58-3.55a3.44,3.44,0,0,1,2.63-3.08,3.22,3.22,0,0,1,3.71,1.54c2.22,3.32,4.46,6.62,6.57,10a2.86,2.86,0,0,0,3.3,1.55,118.18,118.18,0,0,1,21.27-1.08,5.21,5.21,0,0,1,2.88.94c4.05,3.12,8.07,6.27,11.95,9.6,2.43,2.08,2.42,3.13,1.17,6.12a108.91,108.91,0,0,0-4.68,12.54,60,60,0,0,1-14.95,26.14,34.68,34.68,0,0,1-6.4,5,8.7,8.7,0,0,1-7.86.53,7,7,0,0,1-4.78-6.53,15,15,0,0,1,1.57-7.91c1.59-3.21,3.35-6.35,5.13-9.46,1.28-2.24,1.32-2.46-.58-4.25l-28.61-27a19.3,19.3,0,0,1-1.83-1.9,4.25,4.25,0,0,1,2.27-6.82A36,36,0,0,1,408.28,228Z" transform="translate(-0.48 -0.48)"/><path class="cls-1" d="M613.39,321l4.74-4.53c.35-.33.67-.69,1-1,1.59-1.39,2.29-1.34,3.49.33,1.08,1.49,2.08,3,3.13,4.54.35.51.76,1,1.26,1.64l3.89-3.7c.46-.44.9-.9,1.38-1.33,1.71-1.52,2.75-1.32,3.63.75.74,1.76,1.42,3.55,2.22,5.54a9.78,9.78,0,0,0,1.33-1c.84-.86,1.62-1.77,2.44-2.65,2-2.17,2.84-2,3.92.88.25.67.52,1.33.94,2.42l2.06-2.86c.38-.52.7-1.08,1.13-1.56,1.17-1.32,2.5-1.1,3.1.56.43,1.19.69,2.46,1,3.68.15.52.35,1,.59,1.68,1-.52,1.95-1,2.88-1.41,1.65-.73,2.52-.37,3.17,1.32.31.81.54,1.66.91,2.83,1.27-1,2.37-1.82,3.49-2.65,1.92-1.42,3.12-1.06,3.58,1.26a45.15,45.15,0,0,1,1.19,8.29c0,3.79-1.52,6.75-6.68,8.6-5.78,2.08-11.64,4-17.52,5.77a66.88,66.88,0,0,0-14.79,6.67c-9.15,5.4-18.56,10.36-27.85,15.52a3.65,3.65,0,0,1-4.27,0,3.51,3.51,0,0,1-1.14-4.31,28.25,28.25,0,0,1,2.24-5,77.76,77.76,0,0,1,5.14-7.8c3.14-4.07,4.88-8.77,6.67-13.48.92-2.42-.33-4.14-1.79-5.81-2.53-2.88-5.08-5.75-7.57-8.67a46.74,46.74,0,0,1-2.87-3.84c-1-1.43-.88-2,.49-3,1.64-1.14,3.32-2.24,5-3.28s2.2-.82,3.55.56C610.13,317.53,611.66,319.16,613.39,321Z" transform="translate(-0.48 -0.48)"/><path class="cls-1" d="M211,313.1c-.27,3.31-.54,5.93-.65,8.56a6.2,6.2,0,0,0,.53,2.79,40.29,40.29,0,0,0,3.46,6.53c3.6,5,3.45,10,.48,15a79.24,79.24,0,0,1-6.15,9.13c-3.71,4.71-7.67,9.21-11.53,13.8-1.09,1.29-2.4,2.18-4.18,1.66s-2.61-1.92-3-3.69c-.44-2-1-4-1.53-6a9.16,9.16,0,0,0-.64-1.8c-.89-1.74-1.33-1.92-3.24-1.48-3.81.89-7.59,1.92-11.44,2.58a42.76,42.76,0,0,1-7.17.32,4.16,4.16,0,0,1-3.26-6.59A52.13,52.13,0,0,0,168,342.71c2.63-7.47,5.28-14.9,9-21.92a6.62,6.62,0,0,1,3-3,131.59,131.59,0,0,1,25.19-9.11C209.18,307.63,210.75,310.11,211,313.1Z" transform="translate(-0.48 -0.48)"/><path class="cls-1" d="M412.76,277c-2.36-.22-4.42-.45-6.49-.6-4.73-.35-8.74,1.46-12.39,4.26a25.17,25.17,0,0,0-7.33,9.62,113.32,113.32,0,0,0-7.83,23.1,29.69,29.69,0,0,1-1.68,5.22,4.3,4.3,0,0,1-6.05,2c-2.18-1.14-4.36-2.31-6.51-3.53a18.7,18.7,0,0,1-6.13-4.9,6.5,6.5,0,0,1-.9-7.14,345.39,345.39,0,0,1,16.82-32.56c5.17-8.54,10.63-16.9,16-25.34a18.52,18.52,0,0,1,1.15-1.53c2.43-3,4.51-3.51,7.91-1.57a52,52,0,0,1,12.09,9.35c1.92,2,3.93,4,5.9,6,.61.63,1.26,1.23,1.85,1.88,3.5,3.79,3.6,7.57.33,11.58-.36.43-.71.87-1.05,1.31A6.24,6.24,0,0,1,412.76,277Z" transform="translate(-0.48 -0.48)"/><path class="cls-1" d="M506.64,391.15c-3.7-.18-6.73-.52-9.76-.45-7.11.17-14.2.61-21.31.8s-14.05.68-21.07-.12c-1-.12-2.08-.08-3.11-.17A3.64,3.64,0,0,1,448,388.6a3.54,3.54,0,0,1,1.55-4c6-3.92,11-9,16.05-14a81.4,81.4,0,0,0,5.61-6.53c2.11-2.6,4.55-4.55,8.09-4.33a9.79,9.79,0,0,1,3.69.92,81.87,81.87,0,0,1,9,4.88,9.74,9.74,0,0,0,9.51,1.13c7.9-3,15.83-6,23.74-9,.75-.28,1.46-.66,2.21-.93a3.69,3.69,0,0,1,5.14,2.78,6.21,6.21,0,0,1,.2,2.14c-.72,5.85-.88,11.81-3,17.41-1.92,5.05-5.23,8.76-10.61,10.22a52.65,52.65,0,0,1-6.34,1.26C510.61,390.93,508.29,391,506.64,391.15Z" transform="translate(-0.48 -0.48)"/><path class="cls-1" d="M409.13,375.89c-.61,3.47-1.14,6.85-1.8,10.2a39,39,0,0,0-.4,12.39c.19,1.66.33,3.34.38,5a7,7,0,0,1-2.74,6.08c-5.21,4.09-10.39,8.23-15.62,12.3a201,201,0,0,1-30,19.24c-3.25,1.7-6.43,3.56-9.7,5.23a20,20,0,0,1-3.83,1.28c-2,.52-3.43-.41-4.48-2a4.7,4.7,0,0,1,.09-5.38c.85-1.06,1.78-2.06,2.72-3a152.32,152.32,0,0,1,19.16-17,8.18,8.18,0,0,0,3.35-4.76,19.72,19.72,0,0,1,3.91-7.61q13-16.33,25.91-32.68c1.7-2.12,3.57-4.1,5.43-6.08,2.29-2.43,5.24-1.9,6.42,1.26A39.15,39.15,0,0,1,409.13,375.89Z" transform="translate(-0.48 -0.48)"/><path class="cls-1" d="M387.86,369.35a3.81,3.81,0,0,1-4.51-1.92,36.46,36.46,0,0,1-3.73-10.55c-1.08-5.12.6-9.41,3.57-13.43a90.75,90.75,0,0,0,5.14-7.52,9.5,9.5,0,0,0,1.3-4.27c.32-7.75.51-15.5-.54-23.23a9.36,9.36,0,0,1,2.3-8c3.27-3.4,6.67-6.66,10.08-9.91a21,21,0,0,1,3.61-2.76,7.77,7.77,0,0,1,10.38,2.37c2.07,3.13,4.11,6.29,6.08,9.48a35.05,35.05,0,0,1,4.35,12.83c.76,4.53-1,7-4.57,9.19-5.16,3.19-10.14,6.68-15.11,10.16A16.18,16.18,0,0,0,403,335a10.22,10.22,0,0,0-2.36,7.31,48.05,48.05,0,0,1-2.3,16.3,17.72,17.72,0,0,1-4.51,7.81C392.14,368.13,390.26,369.63,387.86,369.35Z" transform="translate(-0.48 -0.48)"/><path class="cls-1" d="M564.34,294.6a36.2,36.2,0,0,1,4.51,3.38,14.92,14.92,0,0,1,2.8,4.1,4.69,4.69,0,0,1-2.56,6.34c-4.75,2-8.81,5.15-12.84,8.29-1.43,1.12-2.7,2-4.51,1.09a4,4,0,0,1-2-4.68,5.11,5.11,0,0,0-2.09-5.66,36.23,36.23,0,0,1-6-5.77,8.22,8.22,0,0,1-1.71-7.81,20.71,20.71,0,0,1,5.09-8.83,89.27,89.27,0,0,0,15.14-24,16.47,16.47,0,0,1,1.42-3,16.89,16.89,0,0,1,3.11-3.52,3.15,3.15,0,0,1,4.7.44c1.72,2,3.69,2.28,6,1.49,1.51-.51,3-.95,4.56-1.43,2.08-.66,3.25-.31,4.6,1.46,2.43,3.17,3.13,6.94,3.43,10.78a5,5,0,0,1-1,2.59c-1.38,2.33-3,4.52-4.25,6.92-3.48,6.65-8.89,11.4-14.88,15.63C566.78,293.16,565.61,293.81,564.34,294.6Z" transform="translate(-0.48 -0.48)"/><path class="cls-1" d="M460.87,313.05c-4.34.86-8.83,1-12.47,3.91a2.9,2.9,0,0,1-3.58.3c-2.37-1.62-4.71-3.29-6.91-5.12-2.81-2.35-2.06-7.3,1.57-8.94a65.11,65.11,0,0,0,8.49-4.87c5.91-3.82,10.11-9.24,13.63-15.21a16.35,16.35,0,0,0,2.11-7.06c.14-1.84.49-3.63,2.16-4.86a8.27,8.27,0,0,1,5.18-1.52c2,0,3.23,1.73,2.9,3.86-.55,3.55-1.2,7.09-1.86,10.62-1.27,6.72-1.86,13.45-.31,20.21.6,2.63,1.06,5.3,3,7.45a3,3,0,0,1,.09,3.6,2.85,2.85,0,0,1-3,1.49,14.69,14.69,0,0,1-2.91-1c-2-.8-4-1.68-6-2.45A11.52,11.52,0,0,0,460.87,313.05Z" transform="translate(-0.48 -0.48)"/><path class="cls-1" d="M276.74,358.48a44.44,44.44,0,0,1,4.92.91c9.82,3,18.78,7.52,26.35,14.58,1.26,1.18,2.12,2.45,1.57,4.21a3.58,3.58,0,0,1-3.83,2.65c-3-.16-6-.52-9-.85-1.58-.18-3.14-.54-4.72-.73A16.66,16.66,0,0,1,281.52,374c-2.73-2.91-5.34-5.92-8-8.9a3.89,3.89,0,0,1-.84-4.62C273.52,358.85,275,358.42,276.74,358.48Z" transform="translate(-0.48 -0.48)"/><path d="M599.76,214.66a7,7,0,1,1,7-7A7,7,0,0,1,599.76,214.66Z" transform="translate(-0.48 -0.48)"/></svg>