<svg id="Layer_1" data-name="Layer 1" xmlns="http://www.w3.org/2000/svg" viewBox="0 0 720 612"><defs><style>.cls-1{fill:none;stroke:#000;stroke-miterlimit:10;stroke-width:0.01px;}</style></defs><path d="M.48,612.48V.48h720v612Zm156.43-359.8c-.33-.4-.61-.68-.82-1-6-8.92-14.53-12.74-25-12.3s-19.37,5-27.06,12a36.12,36.12,0,0,0-10.19,15.73c-2.78,8.47-2.83,16.85,1.87,24.76a30.31,30.31,0,0,0,6.52,8.22c1.22,1,2.64,1.83,3.77,2.94a20.42,20.42,0,0,0,8.25,4.71,140.94,140.94,0,0,0,27,6.27,68.49,68.49,0,0,1,13.36,2.76,22.83,22.83,0,0,1,8,4.33,10.92,10.92,0,0,1,3.94,6.14c.34,1.64.6,3.3.82,5,.4,3,1.64,4.45,4.49,5.21a19.37,19.37,0,0,0,8.09.31A39.93,39.93,0,0,0,194,332.48c9-5.33,14.8-13.11,16.49-23.52a53.31,53.31,0,0,0,.31-11.23c-.48-9.12-5.19-15.55-13.15-19.75-.54-.29-1.06-.63-1.64-1,.29-.89.54-1.64.78-2.4a24.68,24.68,0,0,0,1-10.42c-1.05-9.11-7.38-16.09-16.4-17.64-8-1.37-15.4.42-22.25,4.67C158.43,251.68,157.71,252.16,156.91,252.68ZM90.79,325.2c.53,4.72.84,9.6,1.67,14.39a229.83,229.83,0,0,0,14.65,49.56,74.56,74.56,0,0,1,4.85,17c.77,4.82,1.42,9.67,2.59,14.39a133.32,133.32,0,0,0,10.69,28.94,184.36,184.36,0,0,0,11.41,19.14c4.42,6.54,10.73,10.16,18.34,11.59a55.12,55.12,0,0,0,9.06.93,45.64,45.64,0,0,0,8.33-.64,8.27,8.27,0,0,0,7.13-6.85,24.81,24.81,0,0,0,.58-4,21.63,21.63,0,0,0-3-11.68,123.7,123.7,0,0,0-12-18.19c-3.61-4.48-7.29-8.91-11-13.34a8.47,8.47,0,0,1-1.92-4.05c-.54-3.07-1.23-6.12-1.69-9.2a62.23,62.23,0,0,1,.78-24.54c.64-2.55,1.08-5.16,1.66-7.73.43-1.86.87-3.73,1.44-5.56,2-6.34,4-12.68,4.85-19.28,1.36-9.95-1.53-18.12-10-24a45.88,45.88,0,0,0-10.31-5.57q-12.5-4.58-25-9.09a79.41,79.41,0,0,1-16.16-7.79c-2.47-1.58-5.09-.44-5.49,2.55C91.61,316.42,91.26,320.72,90.79,325.2ZM194.25,205.11c-.54,0-.92,0-1.29-.06-11.47-1.2-20.65,2.88-27.64,12-1,1.26-1.83,2.62-2.72,3.94a23.47,23.47,0,0,0-3.77,12.46c-.09,2.24.72,3.39,2.81,4.19a10.16,10.16,0,0,0,6.6.2,76.26,76.26,0,0,0,7.92-2.72,54.18,54.18,0,0,1,18.19-3.87c7.79-.37,15.49.48,23.18,1.49a13.87,13.87,0,0,1,6.58,2.62c10.4,7.6,22.2,9.91,34.77,8.7,9.58-.92,17.31-5.74,24.11-12.26a23.3,23.3,0,0,0,6.18-11.43,15.16,15.16,0,0,0,.22-5.46,9.82,9.82,0,0,0-2.64-6,22.72,22.72,0,0,0-11.11-6.3,66.38,66.38,0,0,0-21.23-.86c-.53.05-1.06,0-1.74,0-.07-.83-.12-1.53-.19-2.23A25.12,25.12,0,0,0,248,187.24a42.81,42.81,0,0,0-7.37-7.83,61.17,61.17,0,0,0-8.19-6.17c-11.22-6.86-23.9-2.22-30.16,4.3-6.91,7.19-9.37,15.78-8.26,25.55C194.13,203.7,194.18,204.31,194.25,205.11Zm278.85,103c-.23-.55-.39-.91-.52-1.27-3.25-8.79-9.84-13.34-18.84-14.61-8.17-1.16-15.72,1.05-22.73,5.11a26.86,26.86,0,0,0-13.13,17c-1.62,6.39-1.51,12.51,3.09,18.1,5.85,7.11,12.49,13.07,21.11,16.48,7.42,2.93,13.72,7.46,19.56,12.75,1.77,1.61,3.43,1.83,5.37.43,1.3-.93,2.48-2,3.72-3,4.69-3.85,9.72-7.08,15.86-8,3.8-.55,7.63-.79,11.44-1.22,4.57-.51,9.05-1.41,12.9-4.08a52.47,52.47,0,0,0,11.36-10.24,23.63,23.63,0,0,0,4.59-8.07,24.12,24.12,0,0,0,.57-9.52c-1.11-9.77-6-18.45-17.2-21.16a26.47,26.47,0,0,0-10.7-.46c-9.38,1.56-18.05,4.79-25.41,11C473.9,307.63,473.62,307.79,473.1,308.14ZM341,224.31l-1-1.47c-.32-.46-.6-1-.95-1.39-5-6.25-11.31-9.91-19.39-8.54a27.71,27.71,0,0,0-21.11,15.65A32.82,32.82,0,0,0,295.15,241a3.63,3.63,0,0,1-1.77,3.13,20.07,20.07,0,0,0-6.55,7.21c-1,1.89-2,3.83-2.93,5.77a25.24,25.24,0,0,0-2.19,13.56,13.91,13.91,0,0,0,12.42,12.6c2.38.26,4.77.56,7.17.59a31,31,0,0,0,7.15-.42,63.17,63.17,0,0,0,25.13-11.37,36,36,0,0,0,9-9.9,5.33,5.33,0,0,1,3.1-2.43c9.49-3.08,18.84-3.12,28,1.26a9,9,0,0,0,9.58-1.48,28.72,28.72,0,0,0,4.07-4.68,35.42,35.42,0,0,0,6.09-17.22c.76-11.27-4.1-20.52-16.07-24.14a33.88,33.88,0,0,0-20.77.48A32,32,0,0,0,341,224.31ZM392.87,169c-.33-.35-.62-.62-.86-.92-3.87-5-9-8.35-14.66-10.94a13.78,13.78,0,0,0-15.72,2.95,17.22,17.22,0,0,0-4.56,7.77,116.55,116.55,0,0,1-10.16,23.77c-1.37,2.53-2.75,5.05-4.1,7.59-.95,1.81-1.36,4.72.18,6.31,1.79,1.82,3.61,1.41,5.72.67,10.87-3.78,22-5.68,33.47-3.51,3.52.67,6.94,1.8,9.38,4.45,7.38,8,12.17,17.2,11.72,28.47a5.39,5.39,0,0,0,1.1,3.58,17.45,17.45,0,0,0,8,5.93,31.66,31.66,0,0,0,13.23,1.65c12.09-.62,24.49-9.06,28.46-21a15.56,15.56,0,0,0,.09-10.8c-3.58-9.27-9.65-16.1-19.34-19.28-1-.34-2.08-.72-3.19-1.11.07-6.75-2.25-12.62-5.81-18.07-5.6-8.59-13.49-12.1-23.62-10.73A28.61,28.61,0,0,0,392.87,169ZM408,345c-.18-1.29-.33-2.31-.47-3.33a28.6,28.6,0,0,0-3.35-10.69,16.71,16.71,0,0,0-11.89-8.48,32.9,32.9,0,0,0-11.91.32c-6.89,1.25-14.34,8.88-13.56,17.69.31,3.5.52,7,1,10.5a19.53,19.53,0,0,0,12.49,16.87,2.86,2.86,0,0,1,1.83,2.53c.19,2.14.69,4.25,1,6.39,1.61,11.72,7.55,20.89,16.6,28.23a29.56,29.56,0,0,0,10.58,5.46c9.88,2.83,19.63,1.88,29.27-1.09a26.2,26.2,0,0,0,8.55-4.72,30.83,30.83,0,0,0,10.34-25,16.06,16.06,0,0,0-6.58-11.77,25.66,25.66,0,0,0-17.54-5.21c-1,.07-2,.1-3.28.16-.64-5.78-2.79-10.61-7.36-14.17S413.87,344.27,408,345ZM252.3,329.88c.87-2.33,1.78-4.3,2.34-6.37,2.86-10.58-1.74-20.06-11.58-23.81a44.55,44.55,0,0,0-14-2.93,16.41,16.41,0,0,0-5.64.81c-3.37,1.08-4.42,2.75-4.41,6.26a29.34,29.34,0,0,0,.2,3.11,20.2,20.2,0,0,1-1.11,9.68c-.69,1.87-1.27,3.79-2.09,5.61a41.33,41.33,0,0,1-15.23,18.41,29,29,0,0,1-7.43,3.81c-3,.9-4.13,3.29-3,6.21a10.4,10.4,0,0,0,2.31,3.58,34.07,34.07,0,0,0,5.08,4.37c10.32,7,21,13.38,32.91,17.53a115.42,115.42,0,0,0,40.22,6.79c4-.07,8-.22,11.78-1.81,3.41-1.44,6.05-3.59,7.17-7.24a40.13,40.13,0,0,0,1.44-5.31c1.1-6.75-1.94-12.17-8.24-14.88a21.87,21.87,0,0,0-10.54-1.76c-.51,0-1,0-1.67,0,.08-1.18.15-2.13.19-3.08.41-9.37-4.21-15.6-13.28-17.9-.78-.19-1.56-.35-2.34-.51C254.37,330.27,253.45,330.1,252.3,329.88Zm43.42-171c-2.72-2-5.2-4.18-8-5.85-8.34-5-17.45-5.91-26.87-4.42a53.51,53.51,0,0,0-7.65,1.92,3.68,3.68,0,0,0-2.71,4.25c.15,1.43.23,2.87.3,4.31.24,4.82,0,9.57-1.92,14.11-.69,1.63-.22,2.73,1.21,4a47.81,47.81,0,0,1,4.25,4.17c2.22,2.51,3.33,5.61,4.42,8.71,1,2.73,2.12,3.37,4.91,2.68a14.28,14.28,0,0,1,6.17-.27,54,54,0,0,1,14.69,5,17.12,17.12,0,0,1,6.93,6.12,9.24,9.24,0,0,0,4.52,3.81c5.1,1.93,10.35,2.94,15.69,1.1a45.93,45.93,0,0,0,8.29-3.69,59.9,59.9,0,0,0,22-22.87,25.34,25.34,0,0,0,3-15.74,12.82,12.82,0,0,0-1.25-4.34,16.58,16.58,0,0,0-10.1-8.65,46.5,46.5,0,0,0-8.43-1.71c-8.44-.94-16.6.08-24.15,4.27C299.19,156.78,297.36,157.89,295.72,158.84ZM187.78,192a21.58,21.58,0,0,1,2.14-9.13c6.29-13.61,17-20.75,32-21.55A55.59,55.59,0,0,1,237.34,163c3.09.71,4.35.19,5.27-2.83a17.44,17.44,0,0,0,1.07-6.32,67,67,0,0,0-2-11.78c-2.1-7.66-7.12-12.84-14.45-15.92A33.79,33.79,0,0,0,209.1,124a71.51,71.51,0,0,0-25.71,8.82c-1.93,1.1-4.08,2.2-5.43,3.86-2,2.48-3.93,2.54-6.79,1.77-9.52-2.59-18.19-.46-25.93,5.57a10.54,10.54,0,0,0-3.34,4.31c-2.1,5-1.46,6.51,3.51,8.62a22.3,22.3,0,0,1,4.85,2.58,32.42,32.42,0,0,1,10.69,13c2.82,6.55,4.65,13.26,3.65,20.49-.15,1-.25,2.06-.45,3.08-.59,3,1.75,5.65,5.33,4.18a55.2,55.2,0,0,1,15.15-3.43c2.38-.27,3.38-1.41,3.28-3.81C187.9,192.85,187.86,192.62,187.78,192Zm357.45,43.09c-.4-2.21-.75-4.16-1.12-6.11-1.2-6.4-1.87-12.8-.83-19.31a16.73,16.73,0,0,0-.14-4.05c-1-11.16-8.11-18.69-15.73-25.75-3.61-3.34-8.72-3.75-12.22-1.3a19.33,19.33,0,0,0-5.39,5.68c-5.12,8.66-7.88,17.78-4.69,27.93,2.81,8.91,5.27,17.94,8.12,26.84a66.92,66.92,0,0,0,7.31,16.12c1.22,1.87,2.49,3.71,3.7,5.6A73.31,73.31,0,0,0,539,277.67a32.85,32.85,0,0,0,9.74,6c5.29,1.92,10.31,2.09,15.3-1.26,4.8-3.22,8.43-7.55,12.3-11.67a2.92,2.92,0,0,0,.27-3.38c-1-2.18-4.89-3.85-7.07-1.53a12.2,12.2,0,0,1-5.47,3.77c-6.77,1.92-13.28,2.06-19-2.83a11.43,11.43,0,0,0-1-.65,8.19,8.19,0,0,1-3.05-4.22c3.69.47,7.22,1,10.77,1.35,5.19.49,10.34.53,15.46-.93a12,12,0,0,0,8.48-12.13c-.17-2-.81-3.68-2.78-4.7a23.33,23.33,0,0,1-3.05-2.23c.21-.78.39-1.38.54-2,1.3-5.05-2.57-9-7.67-7.73a38.21,38.21,0,0,0-3.8,1.35C554.27,231.57,550.57,231,545.23,235.07Zm-216.1,52.6a10.91,10.91,0,0,1-1.24-.25,20.7,20.7,0,0,0-9.26-.41,24.62,24.62,0,0,0-13.53,6.72,6.3,6.3,0,0,0-2.09,6,15.32,15.32,0,0,0,2.32,6.24c7.46,10.31,17.29,16.41,30.25,16.85A19.86,19.86,0,0,0,348.42,319c1.35-1,2.61-2.13,4-3a8.88,8.88,0,0,1,3.68-1.53,11.68,11.68,0,0,1,10.24,4.16c1.84,2.2,2.95,2.57,5.6,1.36,1.38-.63,2.59-1.61,4-2.21a29,29,0,0,1,17.62-1.65c2.41.5,4.73,1.45,7.09,2.19,2.21.69,3.67.33,5.08-1.51a27.57,27.57,0,0,0,2.86-4.42A12.44,12.44,0,0,0,406,297.83a21,21,0,0,0-16.59-6.09c-1,.07-2,0-3.12,0-.12-1.44-.18-2.71-.33-4a19.17,19.17,0,0,0-3.07-9.24,26.59,26.59,0,0,0-17.27-10.73,16.93,16.93,0,0,0-4.77-.14,39.34,39.34,0,0,0-23.48,10.95C334.46,281.32,332,284.49,329.13,287.67ZM441.9,493.34c.14,1.84.29,3.75.44,5.66a11.52,11.52,0,0,0,3.85,7.77,22.34,22.34,0,0,0,5.13,3.46,26,26,0,0,0,14,2.27c3.81-.34,7.62-.81,11.42-1.36a30.78,30.78,0,0,0,5.33-1.33c2.16-.71,2.89-2.12,2.19-4.29a22.9,22.9,0,0,0-1.88-4.13c-.83-1.46-1.81-2.82-2.76-4.21-7.61-11.11-9.95-23.15-6.46-36.26.89-3.31,1.6-6.68,2.28-10.05a28,28,0,0,0-3.41-20.77q-1.29-2.16-2.48-4.38a48.09,48.09,0,0,0-9.18-12.2c-3.7-3.57-5.27-4-10.45-1.72-.58.26-1.14.56-1.72.83-2,.89-3.87,1.91-5.9,2.61-2.64.92-5.36,1.56-8.05,2.34-3.22.94-6.49,1.75-9.64,2.87s-4.07,3.59-2.27,6.46c1.61,2.56,3.57,4.89,5.31,7.37a48,48,0,0,1,4.21,6.37c2.72,5.51,5.17,11.16,7.73,16.75a39.81,39.81,0,0,1,2.79,9.39,47.15,47.15,0,0,1,.46,14.52C442.38,485.27,442.21,489.27,441.9,493.34ZM595.14,313.81a24.38,24.38,0,0,0,15-9.18,28.29,28.29,0,0,0,5.59-13.6,19,19,0,0,0-4.92-16,13.08,13.08,0,0,0-9.53-4.39,25.39,25.39,0,0,0-10.56,1.81c-8.36,3.28-14.47,9.27-19.47,16.48-1,1.42-1.86,2.05-3.62,2a31.89,31.89,0,0,0-20.89,5.57A23.47,23.47,0,0,0,537,310.23c-1.57,6.15.09,11.36,5.15,15.39a26,26,0,0,0,9.4,4.61c2.23.62,4.49,1.11,6.79,1.67.3,1.82.46,3.66.92,5.42,1.93,7.47,8.82,11.37,15.85,9.05a19.92,19.92,0,0,0,8.28-5.13c6.95-7.25,11.09-15.76,11.63-25.88C595,314.89,595.07,314.42,595.14,313.81ZM508,361.28c-1.36-.37-2.64-.78-3.94-1.07-12.51-2.75-23.29.11-31.84,10a37.49,37.49,0,0,0-6.54,11.65,9.27,9.27,0,0,0-.57,2.32c-.3,3.29,2.41,5.24,5.44,4a14.62,14.62,0,0,1,2.4-1.08,19.6,19.6,0,0,1,5.6-.93,90.05,90.05,0,0,1,10.42,1.57c3.68.71,7.33,1.62,11,2.47a36.48,36.48,0,0,1,4.39,1.2,48.29,48.29,0,0,0,25,2.29c8.11-1.31,15.22-4.29,20.63-10.63a60.67,60.67,0,0,0,6.19-8.21,32.88,32.88,0,0,0,4.78-14.43c.63-8.76-3.54-15.66-11.3-18.28a25.75,25.75,0,0,0-7-1.23,39.26,39.26,0,0,0-19.39,4.59,30.61,30.61,0,0,0-14.45,14.49C508.5,360.34,508.25,360.74,508,361.28ZM563.1,227.17c1.68,0,3.35,0,5,0,5.12.15,7.62,3.3,8.55,7a7.42,7.42,0,0,1,.22,2.85c-.35,2.38.65,4.15,2.21,5.79,2.67,2.81,6,2.47,7.95-.86q5.52-9.54,11-19.09c.44-.76.9-1.51,1.4-2.23a57.1,57.1,0,0,0,7-14.66,10.21,10.21,0,0,0,.4-4,3.32,3.32,0,0,0-5.1-2.66,10.71,10.71,0,0,1-2.61,1.12c-3.89.87-7.91-1.25-10.09-4.14a4.11,4.11,0,0,1-.62-3.9c1.07-3,2.83-5.54,5.94-6.77,2.59-1,3.34-2.24,2.78-5-.45-2.19-1.08-4.35-1.36-6.55-.38-3-.78-3.62-3.55-4.25a103.92,103.92,0,0,0-21.36-2.7A44.49,44.49,0,0,1,558.69,165a8.76,8.76,0,0,1-3.43-2c-2.72-2.66-4.88-2.42-6.49,1a32.63,32.63,0,0,1-7.44,10.2c-2.77,2.56-2.85,3.83-.41,6.59.21.24.43.47.63.72a40.09,40.09,0,0,1,8.79,17.35,44.88,44.88,0,0,1,.37,16.9,34.52,34.52,0,0,0-.17,6.67c.09,2.23,1.32,3.6,3.54,4.27A21.3,21.3,0,0,0,563.1,227.17Zm-408-11.06c-.11-1.75-.21-3.51-.34-5.26-.43-5.49-.92-11-1.29-16.48A54.62,54.62,0,0,0,146.33,170a26.62,26.62,0,0,0-8.77-9,16.69,16.69,0,0,0-16.69-1.21,28.29,28.29,0,0,0-9.41,6.89,17.22,17.22,0,0,0-4.32,8.69,54.29,54.29,0,0,0,.73,22.84,4.77,4.77,0,0,1-1.46,5.36c-4.86,4.81-8,10.59-8.21,17.59-.16,5.27,1,10.18,4.8,14.15,1.71,1.82,3.28,1.89,5.31.51a58.33,58.33,0,0,1,17-8.07c7.58-2.14,14.87-1.48,21.46,3.31,1.87,1.36,3.68,1.06,4.91-.88a20.54,20.54,0,0,0,1.78-3.65A26.31,26.31,0,0,0,155.1,216.11ZM322.5,356.18c-.46.14-1,.32-1.51.45A39.1,39.1,0,0,0,297.19,374a24.45,24.45,0,0,0-2.49,5.42c-1.5,4.4-.84,6.06,3.1,8.6a20.74,20.74,0,0,0,2.32,1.25A28,28,0,0,0,311,391.76c5.55.23,10.77-1.26,15.89-3.13a4.05,4.05,0,0,1,3.4.15,59.73,59.73,0,0,0,8,3.18c9.38,2.83,17.53.27,24.56-6.19A16.81,16.81,0,0,0,368.7,375a18.06,18.06,0,0,0-5.8-15.59,7.92,7.92,0,0,1-2.7-7.93A28.22,28.22,0,0,0,359,337.3c-3-8.39-10.66-12.07-19.06-9.13a26.76,26.76,0,0,0-14.38,11.75,20.68,20.68,0,0,0-2.53,6.91A80.84,80.84,0,0,0,322.5,356.18Zm159.08-82.64c-.31.49-.53.91-.8,1.29a32.48,32.48,0,0,0-5.46,13.7,3.65,3.65,0,0,0,2.06,4.37c1.75,1,3.17.29,4.65-.7a33.68,33.68,0,0,1,23.78-5.3,30.16,30.16,0,0,1,11.57,4.43,7.93,7.93,0,0,0,5.32.91c2.95-.39,5.75-3.66,5.49-6.6a15.19,15.19,0,0,0-2.46-7.17c-3.49-5.3-8.37-9-13.87-11.91-.83-.45-1.67-.87-2.53-1.31a8.23,8.23,0,0,1,.17-1.08,17,17,0,0,0-.91-11.26,23.12,23.12,0,0,0-6.9-9.38c-2.75-2.2-3.75-5-4.36-8.18,0-.16,0-.32-.08-.47-1.92-7.79-2.66-15.76-3.72-23.68a4.94,4.94,0,0,0-4.74-4.53,17.85,17.85,0,0,0-10.23,1.91c-7.52,3.76-12.07,10.1-14.9,17.74-3.24,8.74-.4,16.7,7.56,21.5a35,35,0,0,0,6,2.37c.78.29,1.6.45,2.53.7-.51,1-.88,1.7-1.22,2.41C475,260.63,476.06,268,481.58,273.54Zm61.86,220.54c1.83-.17,3.65-.42,5.49-.49a8.45,8.45,0,0,0,8-5.86,50.83,50.83,0,0,0,2.28-8,41.6,41.6,0,0,0,.08-14.08,105.92,105.92,0,0,0-2.21-13.45c-2-7.4-3.81-14.81-4.3-22.55a33.05,33.05,0,0,1,2.8-16.55,35.82,35.82,0,0,0,2.52-7.46c.82-3.82,1.28-7.72,1.86-11.59a3.35,3.35,0,0,0-1.73-3.84,3.46,3.46,0,0,0-4.18.75,23.05,23.05,0,0,0-2.31,2.43,17.78,17.78,0,0,1-6.19,4.84c-5.52,2.66-11.31,4.51-17.49,4.44-4.5-.05-6.34,2.36-4.3,6.58A53.38,53.38,0,0,1,528,423.37c1.36,7.67,1.2,15.44,1.36,23.19a16.74,16.74,0,0,1-1.36,7.25,24.15,24.15,0,0,0-1.21,3.63c-1.52,5.58-2.69,11.18-1.77,17a44.07,44.07,0,0,0,5.76,15.14,7,7,0,0,0,2.89,2.37A21,21,0,0,0,543.44,494.08Zm-304-207.4a4.81,4.81,0,0,1,.49.69c2.09,3.75,5.3,6.34,8.86,8.58,3.87,2.43,8.21,3,12.64,3.12,7.22.22,12-3.11,14.39-9.92,1.61-4.62.85-8.65-2.64-12.11a6.26,6.26,0,0,0-.52-.51,2.18,2.18,0,0,1-.7-2.32,49.08,49.08,0,0,0,.6-8.1c-.36-8.14-5.94-14.05-14-15.18a23,23,0,0,0-12.64,1.87c-2.1.92-4.13,2-6.27,3.06-.43-.67-.84-1.35-1.28-2-4.41-6.57-10.21-11.18-18.16-12.66a12.4,12.4,0,0,0-11.33,3.13,16.14,16.14,0,0,0-4,5.91c-2,5-1.8,10-.61,15.07,2.45,10.45,13,19.62,24.18,20.77C232,286.44,235.59,286.48,239.44,286.68ZM603.63,135a46.12,46.12,0,0,0-.5-4.64c-1.39-6.45-5.77-10.14-11.71-12.2a28.61,28.61,0,0,0-12.79-1.23,4,4,0,0,1-4-1.63c-4-4.56-9-7.2-15.22-6.6-7.84.76-13.85,4.66-18.13,11.19s-2.73,12.61,3.84,16.55l1.84,1.1c-.12,2.17-.33,4.08-.3,6,.1,5.48,3.56,9.44,9,10.12a32.23,32.23,0,0,0,6.44,0,4.34,4.34,0,0,1,3.7,1.09,25.41,25.41,0,0,0,3.87,2.82,20.67,20.67,0,0,0,16.54,2.82,39.86,39.86,0,0,0,12.91-5.6,18.7,18.7,0,0,1,7.32-2.73,27.15,27.15,0,0,0,6.19-1.81c3.89-1.7,5-5.35,2.64-8.88a11.17,11.17,0,0,0-3.59-3.42,44,44,0,0,0-6.19-2.5A15.82,15.82,0,0,0,603.63,135Zm-142,127.79c-.13-1.85-.13-3.45-.36-5a10.07,10.07,0,0,0-7.81-9,18,18,0,0,0-8.31-.31c-8.87,1.67-16.11,6.34-22.65,12.3-.51.47-1,.95-1.48,1.4-1.63-1.95-3-3.88-4.7-5.57a12.16,12.16,0,0,0-10-3.7c-5.78.44-10,3.26-13.1,8.12-3.76,5.94-4.18,15.55,1.42,21.66,6.13,6.7,13.84,9.16,22.6,9,4.39-.09,8.48-1.57,12.4-3.4a30.75,30.75,0,0,1,14.85-3.1,64,64,0,0,1,14.16,2.3,6,6,0,0,0,2.56.29c4.54-.83,9.06-5.56,9.81-10.12.89-5.39-2.14-11.07-7.41-13.88C463,263.37,462.33,263.08,461.63,262.74Zm7.23-66.05c.72,0,1.44,0,2.16,0a9.41,9.41,0,0,0,1.19-.13,40.59,40.59,0,0,0,23.06-11.84,35.3,35.3,0,0,1,11.39-8.19,5.12,5.12,0,0,0,3.08-4,15.11,15.11,0,0,0-.18-8.3,62.65,62.65,0,0,0-3.3-7.94,19.45,19.45,0,0,0-7.81-8.24,21,21,0,0,0-14.85-2.1,38.3,38.3,0,0,0-13.72,5.43c-3.19,2.12-6.37,4.27-9.75,6.06a39.43,39.43,0,0,1-17.38,4.92c-3.35.1-5,2.7-5.05,5.47,0,5.28,1.75,10,4.12,14.61a7.29,7.29,0,0,0,.89,1.12c2.88,3.51,6.52,6.08,10.28,8.54A29,29,0,0,0,468.86,196.69ZM627.57,153.9a20.53,20.53,0,0,0-8.75,1.29,29.06,29.06,0,0,0-11.91,9,15.68,15.68,0,0,0-3.14,8.39c-.44,5.4,1.2,10.21,3.41,15a17.65,17.65,0,0,0,9.92,9.55,67.42,67.42,0,0,0,7.09,2.17,15.67,15.67,0,0,0,4.47.7c3.59-.14,7.19-.37,10.75-.84,9.52-1.29,18.89-3,27.65-7.4,6.05-3,9.81-7.36,11.06-14.06.59-3.22-1.2-5.28-4-5.45a21.12,21.12,0,0,1-7-1.49c-4.39-1.9-8.6-4.2-12.88-6.37-5.27-2.67-10.47-5.49-15.8-8A25.21,25.21,0,0,0,627.57,153.9Zm-579.85,139c-.32,2.84,1.26,5.34,4.62,6.74a31.54,31.54,0,0,0,3.6,1.29,23.79,23.79,0,0,0,8.54.58c6.32-.58,12-2.31,16.5-7.17A6.87,6.87,0,0,0,83,290c.2-2.46.37-4.95.81-7.38a147.51,147.51,0,0,1,6.67-24.22c1-2.69,2.23-5.45,2.4-8.24a109.25,109.25,0,0,0-.5-13.15c-.32-5-.78-10-1.1-15.05a27.17,27.17,0,0,1,.31-3.09,3.1,3.1,0,0,0-5.93-1.61,8.29,8.29,0,0,0-.41,1.12A140.77,140.77,0,0,1,75,240.76c-4.62,7.94-9,16-13.49,24a17.33,17.33,0,0,1-2,2.66,55.37,55.37,0,0,0-8.72,13.13A30.6,30.6,0,0,0,47.72,292.93ZM302,320.63c-.06-.89-.11-1.6-.17-2.31a29.67,29.67,0,0,0-2.69-11.11,15.53,15.53,0,0,0-17.29-8.61,17.74,17.74,0,0,0-8.21,4.75,36.45,36.45,0,0,0-10.44,19c-.52,2.43.47,3.71,2.85,4.41a56.19,56.19,0,0,1,7.18,2.56c5.24,2.32,9.13,8.2,7.18,14.05-.64,1.92.68,3.44,2.7,3.71.79.1,1.59.07,2.39.11,5.86.26,10.62,2,12.42,8.41.75,2.63,3.43,3.14,5.58,1.4a5.47,5.47,0,0,0,.7-.66c3.74-4,7.36-8,9.8-12.95a30.26,30.26,0,0,0,2.55-6.68,11,11,0,0,0-4.26-11.91,18.61,18.61,0,0,0-6.6-3.29C304.55,321.23,303.38,321,302,320.63Zm-105.63,56.1a14.32,14.32,0,0,0-.59-3.5,111.54,111.54,0,0,0-5.61-12.15c-2.44-4.18-6.49-6.56-11.22-7.55a5,5,0,0,0-6.29,3.74c-1.77,5.55-3.46,11.13-5.17,16.7-1,3.35-2.06,6.71-3.06,10.08-2.86,9.68-5.29,19.42-5.06,29.63a32.22,32.22,0,0,0,2.45,10.44,7.91,7.91,0,0,0,1.62,2.35c2.27,2.5,4.3,2.44,6.35-.21a48.1,48.1,0,0,0,3.11-4.55q10.08-17,20.1-34A22.14,22.14,0,0,0,196.38,376.73ZM619.83,244.47c.46-.72.82-1.33,1.23-1.91,6.37-8.73,4.29-19.54-.06-25.92a15.84,15.84,0,0,0-4.08-4c-2.18-1.49-3.56-1.24-5.25.74a30.69,30.69,0,0,0-3.4,4.91c-3.22,5.84-5.21,12.19-7.34,18.47a31.33,31.33,0,0,0-1.86,11.78A23,23,0,0,1,597,259.77a3.31,3.31,0,0,0,.45,3.8,3.68,3.68,0,0,0,3.64,1.22,29.36,29.36,0,0,1,6.42-.19,10.61,10.61,0,0,1,7.47,3.86,10.2,10.2,0,0,0,2.56,2.15c2.6,1.63,5.58,1,7-1.75,1.61-3.14,2.82-6.43,2.49-10.11a20.7,20.7,0,0,0-5-11.73C621.34,246.18,620.6,245.35,619.83,244.47Zm-100-91.3a35.26,35.26,0,0,0-1.16,4,32.63,32.63,0,0,0-.78,6.85,8.29,8.29,0,0,0,8.64,7.87,27.09,27.09,0,0,0,4.75-.53c7.22-1.39,12.76-9.84,10.42-16.75-.41-1.21-.72-2.45-1.15-3.66a11.17,11.17,0,0,0-7.37-7.32,8.23,8.23,0,0,1-1.08-.53c0-.46,0-.85,0-1.24a64.46,64.46,0,0,0,.14-6.94c-.43-5.19-3-10.09-8.73-11.65a12.7,12.7,0,0,0-7.76.42c-6.85,2.41-11.3,7.31-14.29,13.72a4.37,4.37,0,0,0,.63,4.75,20.31,20.31,0,0,0,4.34,4.39,83.06,83.06,0,0,0,8.58,4.73C516.48,152,518.08,152.48,519.82,153.17ZM139.1,485.8v-2.4a6.34,6.34,0,0,0-2.42-5.44,27.74,27.74,0,0,1-4.28-4.18c-3-3.71-5.91-7.53-8.83-11.33-2-2.61-4.5-2.44-5.94.56-1.14,2.37-2.12,4.83-3.08,7.28a39.1,39.1,0,0,0-.78,26.28c1,2.45,2.09,4.75,5.33,4.63a6.06,6.06,0,0,1,1.38.38,46.41,46.41,0,0,0,10.45,1.14c2.91,0,4.56-1.31,5.66-3.86A30.28,30.28,0,0,0,139.1,485.8Zm45.05,24.45a33.76,33.76,0,0,0,3.73-.76,5.38,5.38,0,0,0,4-6.21,9.59,9.59,0,0,0-.81-3.24c-2-4-3.55-8.15-6.5-11.65a5.33,5.33,0,0,0-5.68-2c-1.64.33-3.27.72-4.91,1.07-4.47.95-9,1.77-13.51.64-2.32-.58-4.66-1.13-6.91-1.91-3.17-1.1-5.49,1.77-4.65,4.74a30.23,30.23,0,0,0,6.44,11.87,13.35,13.35,0,0,0,7,4.39C169.52,508.92,176.71,510.38,184.15,510.25Zm301.36,30a30,30,0,0,0,12.55-3.78,3.63,3.63,0,0,0,1.56-2c.93-3.25,1.08-6.59-.85-9.49s-4.36-5.69-6.61-8.48a3.86,3.86,0,0,0-3.45-1.31,14.13,14.13,0,0,0-6.16,1.71c-4.91,2.74-10.11,4.35-15.84,3.54a21,21,0,0,0-2.63-.17c-3.14,0-4.55,2-3.28,4.92a19.36,19.36,0,0,0,4.39,6.21,42.8,42.8,0,0,0,10.16,6.7C478.11,539.52,481,540.22,485.51,540.23Zm69.93-16.12a39.72,39.72,0,0,0,4.53,0c1.73-.19,3.68-.21,5.1-1.05,3.72-2.19,6.28-5.5,4.89-10.58a13.28,13.28,0,0,0-2.59-5.32c-1.41-1.63-2.76-3.31-4.14-5-2.1-2.49-3.91-3-7-1.93A38.84,38.84,0,0,1,540,502.49a8.66,8.66,0,0,0-1.44,0,3.8,3.8,0,0,0-3.79,3.84c-.08,1.19-.08,2.4-.07,3.59,0,6.57,4.38,10.7,9.41,12.5A27,27,0,0,0,555.44,524.11Z" transform="translate(-0.48 -0.48)"/><path class="cls-1" d="M156.91,252.68c.8-.52,1.52-1,2.25-1.46,6.85-4.25,14.27-6,22.25-4.67,9,1.55,15.35,8.53,16.4,17.64a24.68,24.68,0,0,1-1,10.42c-.24.76-.49,1.51-.78,2.4.58.34,1.1.68,1.64,1,8,4.2,12.67,10.63,13.15,19.75A53.31,53.31,0,0,1,210.5,309c-1.69,10.41-7.47,18.19-16.49,23.52a39.93,39.93,0,0,1-14.08,5.22,19.37,19.37,0,0,1-8.09-.31c-2.85-.76-4.09-2.25-4.49-5.21-.22-1.66-.48-3.32-.82-5a10.92,10.92,0,0,0-3.94-6.14,22.83,22.83,0,0,0-8-4.33A68.49,68.49,0,0,0,141.28,314a140.94,140.94,0,0,1-27-6.27A20.42,20.42,0,0,1,106,303c-1.13-1.11-2.55-1.92-3.77-2.94a30.31,30.31,0,0,1-6.52-8.22c-4.7-7.91-4.65-16.29-1.87-24.76A36.12,36.12,0,0,1,104,251.36c7.69-7,16.54-11.54,27.06-12s19,3.38,25,12.3C156.3,252,156.58,252.28,156.91,252.68Z" transform="translate(-0.48 -0.48)"/><path class="cls-1" d="M90.79,325.2c.47-4.48.82-8.78,1.39-13.05.4-3,3-4.13,5.49-2.55a79.41,79.41,0,0,0,16.16,7.79q12.53,4.51,25,9.09a45.88,45.88,0,0,1,10.31,5.57c8.49,5.91,11.38,14.08,10,24-.9,6.6-2.86,12.94-4.85,19.28-.57,1.83-1,3.7-1.44,5.56-.58,2.57-1,5.18-1.66,7.73a62.23,62.23,0,0,0-.78,24.54c.46,3.08,1.15,6.13,1.69,9.2a8.47,8.47,0,0,0,1.92,4.05c3.69,4.43,7.37,8.86,11,13.34a123.7,123.7,0,0,1,12,18.19,21.63,21.63,0,0,1,3,11.68,24.81,24.81,0,0,1-.58,4,8.27,8.27,0,0,1-7.13,6.85,45.64,45.64,0,0,1-8.33.64,55.12,55.12,0,0,1-9.06-.93c-7.61-1.43-13.92-5.05-18.34-11.59a184.36,184.36,0,0,1-11.41-19.14,133.32,133.32,0,0,1-10.69-28.94c-1.17-4.72-1.82-9.57-2.59-14.39a74.56,74.56,0,0,0-4.85-17,229.83,229.83,0,0,1-14.65-49.56C91.63,334.8,91.32,329.92,90.79,325.2Z" transform="translate(-0.48 -0.48)"/><path class="cls-1" d="M194.25,205.11c-.07-.8-.12-1.41-.19-2-1.11-9.77,1.35-18.36,8.26-25.55,6.26-6.52,18.94-11.16,30.16-4.3a61.17,61.17,0,0,1,8.19,6.17,42.81,42.81,0,0,1,7.37,7.83,25.12,25.12,0,0,1,4.44,12.24c.07.7.12,1.4.19,2.23.68,0,1.21,0,1.74,0a66.38,66.38,0,0,1,21.23.86,22.72,22.72,0,0,1,11.11,6.3,9.82,9.82,0,0,1,2.64,6,15.16,15.16,0,0,1-.22,5.46A23.3,23.3,0,0,1,283,231.8c-6.8,6.52-14.53,11.34-24.11,12.26-12.57,1.21-24.37-1.1-34.77-8.7a13.87,13.87,0,0,0-6.58-2.62c-7.69-1-15.39-1.86-23.18-1.49a54.18,54.18,0,0,0-18.19,3.87,76.26,76.26,0,0,1-7.92,2.72,10.16,10.16,0,0,1-6.6-.2c-2.09-.8-2.9-1.95-2.81-4.19A23.47,23.47,0,0,1,162.6,221c.89-1.32,1.75-2.68,2.72-3.94,7-9.12,16.17-13.2,27.64-12C193.33,205.08,193.71,205.08,194.25,205.11Z" transform="translate(-0.48 -0.48)"/><path class="cls-1" d="M473.1,308.14c.52-.35.8-.51,1-.71,7.36-6.24,16-9.47,25.41-11a26.47,26.47,0,0,1,10.7.46c11.17,2.71,16.09,11.39,17.2,21.16a24.12,24.12,0,0,1-.57,9.52,23.63,23.63,0,0,1-4.59,8.07,52.47,52.47,0,0,1-11.36,10.24c-3.85,2.67-8.33,3.57-12.9,4.08-3.81.43-7.64.67-11.44,1.22-6.14.88-11.17,4.11-15.86,8-1.24,1-2.42,2.09-3.72,3-1.94,1.4-3.6,1.18-5.37-.43-5.84-5.29-12.14-9.82-19.56-12.75-8.62-3.41-15.26-9.37-21.11-16.48-4.6-5.59-4.71-11.71-3.09-18.1a26.86,26.86,0,0,1,13.13-17c7-4.06,14.56-6.27,22.73-5.11,9,1.27,15.59,5.82,18.84,14.61C472.71,307.23,472.87,307.59,473.1,308.14Z" transform="translate(-0.48 -0.48)"/><path class="cls-1" d="M341,224.31A32,32,0,0,1,356.56,214a33.88,33.88,0,0,1,20.77-.48c12,3.62,16.83,12.87,16.07,24.14a35.42,35.42,0,0,1-6.09,17.22,28.72,28.72,0,0,1-4.07,4.68,9,9,0,0,1-9.58,1.48c-9.16-4.38-18.51-4.34-28-1.26a5.33,5.33,0,0,0-3.1,2.43,36,36,0,0,1-9,9.9,63.17,63.17,0,0,1-25.13,11.37,31,31,0,0,1-7.15.42c-2.4,0-4.79-.33-7.17-.59a13.91,13.91,0,0,1-12.42-12.6,25.24,25.24,0,0,1,2.19-13.56c1-1.94,1.89-3.88,2.93-5.77a20.07,20.07,0,0,1,6.55-7.21,3.63,3.63,0,0,0,1.77-3.13,32.82,32.82,0,0,1,3.36-12.43,27.71,27.71,0,0,1,21.11-15.65c8.08-1.37,14.43,2.29,19.39,8.54.35.44.63.93.95,1.39Z" transform="translate(-0.48 -0.48)"/><path class="cls-1" d="M392.87,169a28.61,28.61,0,0,1,9.29-3.18c10.13-1.37,18,2.14,23.62,10.73,3.56,5.45,5.88,11.32,5.81,18.07,1.11.39,2.14.77,3.19,1.11,9.69,3.18,15.76,10,19.34,19.28a15.56,15.56,0,0,1-.09,10.8c-4,11.9-16.37,20.34-28.46,21a31.66,31.66,0,0,1-13.23-1.65,17.45,17.45,0,0,1-8-5.93,5.39,5.39,0,0,1-1.1-3.58c.45-11.27-4.34-20.45-11.72-28.47-2.44-2.65-5.86-3.78-9.38-4.45-11.51-2.17-22.6-.27-33.47,3.51-2.11.74-3.93,1.15-5.72-.67-1.54-1.59-1.13-4.5-.18-6.31,1.35-2.54,2.73-5.06,4.1-7.59a116.55,116.55,0,0,0,10.16-23.77,17.22,17.22,0,0,1,4.56-7.77,13.78,13.78,0,0,1,15.72-2.95c5.64,2.59,10.79,5.92,14.66,10.94C392.25,168.39,392.54,168.66,392.87,169Z" transform="translate(-0.48 -0.48)"/><path class="cls-1" d="M408,345c5.86-.68,11.09.15,15.67,3.72s6.72,8.39,7.36,14.17c1.24-.06,2.26-.09,3.28-.16a25.66,25.66,0,0,1,17.54,5.21,16.06,16.06,0,0,1,6.58,11.77,30.83,30.83,0,0,1-10.34,25,26.2,26.2,0,0,1-8.55,4.72c-9.64,3-19.39,3.92-29.27,1.09A29.56,29.56,0,0,1,399.7,405c-9.05-7.34-15-16.51-16.6-28.23-.29-2.14-.79-4.25-1-6.39a2.86,2.86,0,0,0-1.83-2.53A19.53,19.53,0,0,1,367.8,351c-.45-3.49-.66-7-1-10.5-.78-8.81,6.67-16.44,13.56-17.69a32.9,32.9,0,0,1,11.91-.32,16.71,16.71,0,0,1,11.89,8.48,28.6,28.6,0,0,1,3.35,10.69C407.68,342.64,407.83,343.66,408,345Z" transform="translate(-0.48 -0.48)"/><path class="cls-1" d="M252.3,329.88c1.15.22,2.07.39,3,.58.78.16,1.56.32,2.34.51,9.07,2.3,13.69,8.53,13.28,17.9,0,.95-.11,1.9-.19,3.08.64,0,1.16,0,1.67,0a21.87,21.87,0,0,1,10.54,1.76c6.3,2.71,9.34,8.13,8.24,14.88a40.13,40.13,0,0,1-1.44,5.31c-1.12,3.65-3.76,5.8-7.17,7.24-3.78,1.59-7.79,1.74-11.78,1.81a115.42,115.42,0,0,1-40.22-6.79c-11.9-4.15-22.59-10.49-32.91-17.53a34.07,34.07,0,0,1-5.08-4.37,10.4,10.4,0,0,1-2.31-3.58c-1.08-2.92.07-5.31,3-6.21a29,29,0,0,0,7.43-3.81A41.33,41.33,0,0,0,216,322.24c.82-1.82,1.4-3.74,2.09-5.61a20.2,20.2,0,0,0,1.11-9.68,29.34,29.34,0,0,1-.2-3.11c0-3.51,1-5.18,4.41-6.26a16.41,16.41,0,0,1,5.64-.81,44.55,44.55,0,0,1,14,2.93c9.84,3.75,14.44,13.23,11.58,23.81C254.08,325.58,253.17,327.55,252.3,329.88Z" transform="translate(-0.48 -0.48)"/><path class="cls-1" d="M295.72,158.84c1.64-1,3.47-2.06,5.35-3.1,7.55-4.19,15.71-5.21,24.15-4.27a46.5,46.5,0,0,1,8.43,1.71,16.58,16.58,0,0,1,10.1,8.65,12.82,12.82,0,0,1,1.25,4.34,25.34,25.34,0,0,1-3,15.74,59.9,59.9,0,0,1-22,22.87,45.93,45.93,0,0,1-8.29,3.69c-5.34,1.84-10.59.83-15.69-1.1a9.24,9.24,0,0,1-4.52-3.81,17.12,17.12,0,0,0-6.93-6.12,54,54,0,0,0-14.69-5,14.28,14.28,0,0,0-6.17.27c-2.79.69-3.95.05-4.91-2.68-1.09-3.1-2.2-6.2-4.42-8.71a47.81,47.81,0,0,0-4.25-4.17c-1.43-1.24-1.9-2.34-1.21-4,1.92-4.54,2.16-9.29,1.92-14.11-.07-1.44-.15-2.88-.3-4.31a3.68,3.68,0,0,1,2.71-4.25,53.51,53.51,0,0,1,7.65-1.92c9.42-1.49,18.53-.59,26.87,4.42C290.52,154.66,293,156.83,295.72,158.84Z" transform="translate(-0.48 -0.48)"/><path class="cls-1" d="M187.78,192c.08.64.12.87.13,1.11.1,2.4-.9,3.54-3.28,3.81a55.2,55.2,0,0,0-15.15,3.43c-3.58,1.47-5.92-1.16-5.33-4.18.2-1,.3-2.05.45-3.08,1-7.23-.83-13.94-3.65-20.49a32.42,32.42,0,0,0-10.69-13,22.3,22.3,0,0,0-4.85-2.58c-5-2.11-5.61-3.66-3.51-8.62a10.54,10.54,0,0,1,3.34-4.31c7.74-6,16.41-8.16,25.93-5.57,2.86.77,4.78.71,6.79-1.77,1.35-1.66,3.5-2.76,5.43-3.86A71.51,71.51,0,0,1,209.1,124a33.79,33.79,0,0,1,18.12,2.1c7.33,3.08,12.35,8.26,14.45,15.92a67,67,0,0,1,2,11.78,17.44,17.44,0,0,1-1.07,6.32c-.92,3-2.18,3.54-5.27,2.83a55.59,55.59,0,0,0-15.45-1.69c-14.93.8-25.68,7.94-32,21.55A21.58,21.58,0,0,0,187.78,192Z" transform="translate(-0.48 -0.48)"/><path class="cls-1" d="M545.23,235.07c5.34-4.07,9-3.5,13.65-.15a38.21,38.21,0,0,1,3.8-1.35c5.1-1.25,9,2.68,7.67,7.73-.15.62-.33,1.22-.54,2a23.33,23.33,0,0,0,3.05,2.23c2,1,2.61,2.7,2.78,4.7a12,12,0,0,1-8.48,12.13c-5.12,1.46-10.27,1.42-15.46.93-3.55-.33-7.08-.88-10.77-1.35a8.19,8.19,0,0,0,3.05,4.22,11.43,11.43,0,0,1,1,.65c5.76,4.89,12.27,4.75,19,2.83a12.2,12.2,0,0,0,5.47-3.77c2.18-2.32,6.11-.65,7.07,1.53a2.92,2.92,0,0,1-.27,3.38c-3.87,4.12-7.5,8.45-12.3,11.67-5,3.35-10,3.18-15.3,1.26a32.85,32.85,0,0,1-9.74-6,73.31,73.31,0,0,1-14.71-16.95c-1.21-1.89-2.48-3.73-3.7-5.6A66.92,66.92,0,0,1,513.23,239c-2.85-8.9-5.31-17.93-8.12-26.84-3.19-10.15-.43-19.27,4.69-27.93a19.33,19.33,0,0,1,5.39-5.68c3.5-2.45,8.61-2,12.22,1.3,7.62,7.06,14.73,14.59,15.73,25.75a16.73,16.73,0,0,1,.14,4.05c-1,6.51-.37,12.91.83,19.31C544.48,230.91,544.83,232.86,545.23,235.07Zm-27.67-32.48a11.9,11.9,0,0,0,9.66-5.39,3.09,3.09,0,0,0,.41-3.39,44.59,44.59,0,0,0-4.27-6.57c-2.54-2.93-5.53-2.74-7.43.62a48.27,48.27,0,0,0-3.81,9.49c-.69,2.26.82,4.25,3.11,4.87A20.89,20.89,0,0,0,517.56,202.59Z" transform="translate(-0.48 -0.48)"/><path class="cls-1" d="M329.13,287.67c2.86-3.18,5.33-6.35,8.23-9.05a39.34,39.34,0,0,1,23.48-10.95,16.93,16.93,0,0,1,4.77.14,26.59,26.59,0,0,1,17.27,10.73,19.17,19.17,0,0,1,3.07,9.24c.15,1.26.21,2.53.33,4,1.1,0,2.11.06,3.12,0A21,21,0,0,1,406,297.83a12.44,12.44,0,0,1,2.61,14.54,27.57,27.57,0,0,1-2.86,4.42c-1.41,1.84-2.87,2.2-5.08,1.51-2.36-.74-4.68-1.69-7.09-2.19A29,29,0,0,0,376,317.76c-1.38.6-2.59,1.58-4,2.21-2.65,1.21-3.76.84-5.6-1.36a11.68,11.68,0,0,0-10.24-4.16,8.88,8.88,0,0,0-3.68,1.53c-1.43.87-2.69,2-4,3a19.86,19.86,0,0,1-12.84,3.87c-13-.44-22.79-6.54-30.25-16.85a15.32,15.32,0,0,1-2.32-6.24,6.3,6.3,0,0,1,2.09-6A24.62,24.62,0,0,1,318.63,287a20.7,20.7,0,0,1,9.26.41A10.91,10.91,0,0,0,329.13,287.67Z" transform="translate(-0.48 -0.48)"/><path class="cls-1" d="M441.9,493.34c.31-4.07.48-8.07,1-12a47.15,47.15,0,0,0-.46-14.52,39.81,39.81,0,0,0-2.79-9.39c-2.56-5.59-5-11.24-7.73-16.75a48,48,0,0,0-4.21-6.37c-1.74-2.48-3.7-4.81-5.31-7.37-1.8-2.87-.95-5.31,2.27-6.46s6.42-1.93,9.64-2.87c2.69-.78,5.41-1.42,8.05-2.34,2-.7,3.94-1.72,5.9-2.61.58-.27,1.14-.57,1.72-.83,5.18-2.31,6.75-1.85,10.45,1.72a48.09,48.09,0,0,1,9.18,12.2q1.19,2.22,2.48,4.38a28,28,0,0,1,3.41,20.77c-.68,3.37-1.39,6.74-2.28,10.05-3.49,13.11-1.15,25.15,6.46,36.26,1,1.39,1.93,2.75,2.76,4.21a22.9,22.9,0,0,1,1.88,4.13c.7,2.17,0,3.58-2.19,4.29a30.78,30.78,0,0,1-5.33,1.33c-3.8.55-7.61,1-11.42,1.36a26,26,0,0,1-14-2.27,22.34,22.34,0,0,1-5.13-3.46,11.52,11.52,0,0,1-3.85-7.77C442.19,497.09,442,495.18,441.9,493.34Z" transform="translate(-0.48 -0.48)"/><path class="cls-1" d="M595.14,313.81c-.07.61-.14,1.08-.17,1.55-.54,10.12-4.68,18.63-11.63,25.88a19.92,19.92,0,0,1-8.28,5.13c-7,2.32-13.92-1.58-15.85-9.05-.46-1.76-.62-3.6-.92-5.42-2.3-.56-4.56-1-6.79-1.67a26,26,0,0,1-9.4-4.61c-5.06-4-6.72-9.24-5.15-15.39a23.47,23.47,0,0,1,9.78-13.75,31.89,31.89,0,0,1,20.89-5.57c1.76.1,2.63-.53,3.62-2,5-7.21,11.11-13.2,19.47-16.48a25.39,25.39,0,0,1,10.56-1.81,13.08,13.08,0,0,1,9.53,4.39,19,19,0,0,1,4.92,16,28.29,28.29,0,0,1-5.59,13.6A24.38,24.38,0,0,1,595.14,313.81Z" transform="translate(-0.48 -0.48)"/><path class="cls-1" d="M508,361.28c.3-.54.55-.94.75-1.37a30.61,30.61,0,0,1,14.45-14.49,39.26,39.26,0,0,1,19.39-4.59,25.75,25.75,0,0,1,7,1.23c7.76,2.62,11.93,9.52,11.3,18.28a32.88,32.88,0,0,1-4.78,14.43,60.67,60.67,0,0,1-6.19,8.21c-5.41,6.34-12.52,9.32-20.63,10.63a48.29,48.29,0,0,1-25-2.29,36.48,36.48,0,0,0-4.39-1.2c-3.65-.85-7.3-1.76-11-2.47a90.05,90.05,0,0,0-10.42-1.57,19.6,19.6,0,0,0-5.6.93,14.62,14.62,0,0,0-2.4,1.08c-3,1.28-5.74-.67-5.44-4a9.27,9.27,0,0,1,.57-2.32,37.49,37.49,0,0,1,6.54-11.65c8.55-9.84,19.33-12.7,31.84-10C505.31,360.5,506.59,360.91,508,361.28Z" transform="translate(-0.48 -0.48)"/><path class="cls-1" d="M563.1,227.17a21.3,21.3,0,0,1-9-.52c-2.22-.67-3.45-2-3.54-4.27a34.52,34.52,0,0,1,.17-6.67,44.88,44.88,0,0,0-.37-16.9,40.09,40.09,0,0,0-8.79-17.35c-.2-.25-.42-.48-.63-.72-2.44-2.76-2.36-4,.41-6.59a32.63,32.63,0,0,0,7.44-10.2c1.61-3.42,3.77-3.66,6.49-1a8.76,8.76,0,0,0,3.43,2,44.49,44.49,0,0,0,12.23,2.15,103.92,103.92,0,0,1,21.36,2.7c2.77.63,3.17,1.27,3.55,4.25.28,2.2.91,4.36,1.36,6.55.56,2.73-.19,4-2.78,5-3.11,1.23-4.87,3.77-5.94,6.77a4.11,4.11,0,0,0,.62,3.9c2.18,2.89,6.2,5,10.09,4.14a10.71,10.71,0,0,0,2.61-1.12,3.32,3.32,0,0,1,5.1,2.66,10.21,10.21,0,0,1-.4,4,57.1,57.1,0,0,1-7,14.66c-.5.72-1,1.47-1.4,2.23q-5.54,9.54-11,19.09c-1.93,3.33-5.28,3.67-7.95.86-1.56-1.64-2.56-3.41-2.21-5.79a7.42,7.42,0,0,0-.22-2.85c-.93-3.69-3.43-6.84-8.55-7C566.45,227.13,564.78,227.17,563.1,227.17Z" transform="translate(-0.48 -0.48)"/><path class="cls-1" d="M155.1,216.11a26.31,26.31,0,0,1-1.6,10.37,20.54,20.54,0,0,1-1.78,3.65c-1.23,1.94-3,2.24-4.91.88-6.59-4.79-13.88-5.45-21.46-3.31a58.33,58.33,0,0,0-17,8.07c-2,1.38-3.6,1.31-5.31-.51-3.75-4-5-8.88-4.8-14.15.22-7,3.35-12.78,8.21-17.59a4.77,4.77,0,0,0,1.46-5.36,54.29,54.29,0,0,1-.73-22.84,17.22,17.22,0,0,1,4.32-8.69,28.29,28.29,0,0,1,9.41-6.89A16.69,16.69,0,0,1,137.56,161a26.62,26.62,0,0,1,8.77,9,54.62,54.62,0,0,1,7.14,24.38c.37,5.5.86,11,1.29,16.48C154.89,212.6,155,214.36,155.1,216.11Z" transform="translate(-0.48 -0.48)"/><path class="cls-1" d="M322.5,356.18a80.84,80.84,0,0,1,.55-9.35,20.68,20.68,0,0,1,2.53-6.91A26.76,26.76,0,0,1,340,328.17c8.4-2.94,16.06.74,19.06,9.13a28.22,28.22,0,0,1,1.18,14.21,7.92,7.92,0,0,0,2.7,7.93A18.06,18.06,0,0,1,368.7,375a16.81,16.81,0,0,1-5.81,10.74c-7,6.46-15.18,9-24.56,6.19a59.73,59.73,0,0,1-8-3.18,4.05,4.05,0,0,0-3.4-.15c-5.12,1.87-10.34,3.36-15.89,3.13a28,28,0,0,1-10.92-2.45,20.74,20.74,0,0,1-2.32-1.25c-3.94-2.54-4.6-4.2-3.1-8.6a24.45,24.45,0,0,1,2.49-5.42A39.1,39.1,0,0,1,321,356.63C321.52,356.5,322,356.32,322.5,356.18Z" transform="translate(-0.48 -0.48)"/><path class="cls-1" d="M481.58,273.54c-5.52-5.58-6.58-12.91-3.07-20.24.34-.71.71-1.41,1.22-2.41-.93-.25-1.75-.41-2.53-.7a35,35,0,0,1-6-2.37c-8-4.8-10.8-12.76-7.56-21.5,2.83-7.64,7.38-14,14.9-17.74a17.85,17.85,0,0,1,10.23-1.91,4.94,4.94,0,0,1,4.74,4.53c1.06,7.92,1.8,15.89,3.72,23.68,0,.15.05.31.08.47.61,3.17,1.61,6,4.36,8.18a23.12,23.12,0,0,1,6.9,9.38,17,17,0,0,1,.91,11.26,8.23,8.23,0,0,0-.17,1.08c.86.44,1.7.86,2.53,1.31,5.5,3,10.38,6.61,13.87,11.91a15.19,15.19,0,0,1,2.46,7.17c.26,2.94-2.54,6.21-5.49,6.6a7.93,7.93,0,0,1-5.32-.91,30.16,30.16,0,0,0-11.57-4.43A33.68,33.68,0,0,0,482,292.2c-1.48,1-2.9,1.68-4.65.7a3.65,3.65,0,0,1-2.06-4.37,32.48,32.48,0,0,1,5.46-13.7C481.05,274.45,481.27,274,481.58,273.54Z" transform="translate(-0.48 -0.48)"/><path class="cls-1" d="M543.44,494.08a21,21,0,0,1-9.76-2.1,7,7,0,0,1-2.89-2.37A44.07,44.07,0,0,1,525,474.47c-.92-5.85.25-11.45,1.77-17a24.15,24.15,0,0,1,1.21-3.63,16.74,16.74,0,0,0,1.36-7.25c-.16-7.75,0-15.52-1.36-23.19a53.38,53.38,0,0,0-4.27-14.16c-2-4.22-.2-6.63,4.3-6.58,6.18.07,12-1.78,17.49-4.44a17.78,17.78,0,0,0,6.19-4.84,23.05,23.05,0,0,1,2.31-2.43,3.46,3.46,0,0,1,4.18-.75,3.35,3.35,0,0,1,1.73,3.84c-.58,3.87-1,7.77-1.86,11.59a35.82,35.82,0,0,1-2.52,7.46,33.05,33.05,0,0,0-2.8,16.55c.49,7.74,2.33,15.15,4.3,22.55a105.92,105.92,0,0,1,2.21,13.45,41.6,41.6,0,0,1-.08,14.08,50.83,50.83,0,0,1-2.28,8,8.45,8.45,0,0,1-8,5.86C547.09,493.66,545.27,493.91,543.44,494.08Z" transform="translate(-0.48 -0.48)"/><path class="cls-1" d="M239.44,286.68c-3.85-.2-7.44-.24-11-.61-11.21-1.15-21.73-10.32-24.18-20.77-1.19-5.09-1.36-10.12.61-15.07a16.14,16.14,0,0,1,4-5.91,12.4,12.4,0,0,1,11.33-3.13c8,1.48,13.75,6.09,18.16,12.66.44.66.85,1.34,1.28,2,2.14-1.05,4.17-2.14,6.27-3.06a23,23,0,0,1,12.64-1.87c8.07,1.13,13.65,7,14,15.18a49.08,49.08,0,0,1-.6,8.1,2.18,2.18,0,0,0,.7,2.32,6.26,6.26,0,0,1,.52.51c3.49,3.46,4.25,7.49,2.64,12.11-2.39,6.81-7.17,10.14-14.39,9.92-4.43-.14-8.77-.69-12.64-3.12-3.56-2.24-6.77-4.83-8.86-8.58A4.81,4.81,0,0,0,239.44,286.68Z" transform="translate(-0.48 -0.48)"/><path class="cls-1" d="M603.63,135a15.82,15.82,0,0,1,1.8.46,44,44,0,0,1,6.19,2.5,11.17,11.17,0,0,1,3.59,3.42c2.34,3.53,1.25,7.18-2.64,8.88a27.15,27.15,0,0,1-6.19,1.81,18.7,18.7,0,0,0-7.32,2.73,39.86,39.86,0,0,1-12.91,5.6,20.67,20.67,0,0,1-16.54-2.82,25.41,25.41,0,0,1-3.87-2.82,4.34,4.34,0,0,0-3.7-1.09,32.23,32.23,0,0,1-6.44,0c-5.42-.68-8.88-4.64-9-10.12,0-1.91.18-3.82.3-6l-1.84-1.1c-6.57-3.94-8.05-10.12-3.84-16.55s10.29-10.43,18.13-11.19c6.24-.6,11.23,2,15.22,6.6a4,4,0,0,0,4,1.63,28.61,28.61,0,0,1,12.79,1.23c5.94,2.06,10.32,5.75,11.71,12.2A46.12,46.12,0,0,1,603.63,135Z" transform="translate(-0.48 -0.48)"/><path class="cls-1" d="M461.63,262.74c.7.34,1.35.63,2,1,5.27,2.81,8.3,8.49,7.41,13.88-.75,4.56-5.27,9.29-9.81,10.12a6,6,0,0,1-2.56-.29,64,64,0,0,0-14.16-2.3,30.75,30.75,0,0,0-14.85,3.1c-3.92,1.83-8,3.31-12.4,3.4-8.76.18-16.47-2.28-22.6-9-5.6-6.11-5.18-15.72-1.42-21.66,3.08-4.86,7.32-7.68,13.1-8.12a12.16,12.16,0,0,1,10,3.7c1.66,1.69,3.07,3.62,4.7,5.57.47-.45,1-.93,1.48-1.4,6.54-6,13.78-10.63,22.65-12.3a18,18,0,0,1,8.31.31,10.07,10.07,0,0,1,7.81,9C461.5,259.29,461.5,260.89,461.63,262.74Z" transform="translate(-0.48 -0.48)"/><path class="cls-1" d="M468.86,196.69a29,29,0,0,1-15.87-4.6c-3.76-2.46-7.4-5-10.28-8.54a7.29,7.29,0,0,1-.89-1.12c-2.37-4.58-4.12-9.33-4.12-14.61,0-2.77,1.7-5.37,5.05-5.47a39.43,39.43,0,0,0,17.38-4.92c3.38-1.79,6.56-3.94,9.75-6.06a38.3,38.3,0,0,1,13.72-5.43,21,21,0,0,1,14.85,2.1,19.45,19.45,0,0,1,7.81,8.24,62.65,62.65,0,0,1,3.3,7.94,15.11,15.11,0,0,1,.18,8.3,5.12,5.12,0,0,1-3.08,4,35.3,35.3,0,0,0-11.39,8.19,40.59,40.59,0,0,1-23.06,11.84,9.41,9.41,0,0,1-1.19.13C470.3,196.7,469.58,196.69,468.86,196.69Z" transform="translate(-0.48 -0.48)"/><path class="cls-1" d="M627.57,153.9a25.21,25.21,0,0,1,10.88,2.49c5.33,2.54,10.53,5.36,15.8,8,4.28,2.17,8.49,4.47,12.88,6.37a21.12,21.12,0,0,0,7,1.49c2.79.17,4.58,2.23,4,5.45-1.25,6.7-5,11-11.06,14.06-8.76,4.38-18.13,6.11-27.65,7.4-3.56.47-7.16.7-10.75.84a15.67,15.67,0,0,1-4.47-.7,67.42,67.42,0,0,1-7.09-2.17,17.65,17.65,0,0,1-9.92-9.55c-2.21-4.79-3.85-9.6-3.41-15a15.68,15.68,0,0,1,3.14-8.39,29.06,29.06,0,0,1,11.91-9A20.53,20.53,0,0,1,627.57,153.9Z" transform="translate(-0.48 -0.48)"/><path class="cls-1" d="M47.72,292.93a30.6,30.6,0,0,1,3-12.35,55.37,55.37,0,0,1,8.72-13.13,17.33,17.33,0,0,0,2-2.66c4.51-8,8.87-16.09,13.49-24a140.77,140.77,0,0,0,10.31-22.39,8.29,8.29,0,0,1,.41-1.12,3.1,3.1,0,0,1,5.93,1.61,27.17,27.17,0,0,0-.31,3.09c.32,5,.78,10,1.1,15.05a109.25,109.25,0,0,1,.5,13.15c-.17,2.79-1.41,5.55-2.4,8.24a147.51,147.51,0,0,0-6.67,24.22c-.44,2.43-.61,4.92-.81,7.38A6.87,6.87,0,0,1,81,294.37c-4.49,4.86-10.18,6.59-16.5,7.17a23.79,23.79,0,0,1-8.54-.58,31.54,31.54,0,0,1-3.6-1.29C49,298.27,47.4,295.77,47.72,292.93Z" transform="translate(-0.48 -0.48)"/><path class="cls-1" d="M302,320.63c1.37.34,2.54.6,3.69.92a18.61,18.61,0,0,1,6.6,3.29,11,11,0,0,1,4.26,11.91,30.26,30.26,0,0,1-2.55,6.68c-2.44,4.92-6.06,9-9.8,12.95a5.47,5.47,0,0,1-.7.66c-2.15,1.74-4.83,1.23-5.58-1.4-1.8-6.41-6.56-8.15-12.42-8.41-.8,0-1.6,0-2.39-.11-2-.27-3.34-1.79-2.7-3.71,1.95-5.85-1.94-11.73-7.18-14.05a56.19,56.19,0,0,0-7.18-2.56c-2.38-.7-3.37-2-2.85-4.41a36.45,36.45,0,0,1,10.44-19,17.74,17.74,0,0,1,8.21-4.75,15.53,15.53,0,0,1,17.29,8.61,29.67,29.67,0,0,1,2.69,11.11C301.9,319,302,319.74,302,320.63Z" transform="translate(-0.48 -0.48)"/><path class="cls-1" d="M196.38,376.73A22.14,22.14,0,0,1,193,387.66q-10,17.07-20.1,34a48.1,48.1,0,0,1-3.11,4.55c-2.05,2.65-4.08,2.71-6.35.21a7.91,7.91,0,0,1-1.62-2.35,32.22,32.22,0,0,1-2.45-10.44c-.23-10.21,2.2-19.95,5.06-29.63,1-3.37,2-6.73,3.06-10.08,1.71-5.57,3.4-11.15,5.17-16.7a5,5,0,0,1,6.29-3.74c4.73,1,8.78,3.37,11.22,7.55a111.54,111.54,0,0,1,5.61,12.15A14.32,14.32,0,0,1,196.38,376.73Z" transform="translate(-0.48 -0.48)"/><path class="cls-1" d="M619.83,244.47c.77.88,1.51,1.71,2.22,2.55a20.7,20.7,0,0,1,5,11.73c.33,3.68-.88,7-2.49,10.11-1.39,2.72-4.37,3.38-7,1.75a10.2,10.2,0,0,1-2.56-2.15,10.61,10.61,0,0,0-7.47-3.86,29.36,29.36,0,0,0-6.42.19,3.68,3.68,0,0,1-3.64-1.22,3.31,3.31,0,0,1-.45-3.8,23,23,0,0,0,2.07-11.19,31.33,31.33,0,0,1,1.86-11.78c2.13-6.28,4.12-12.63,7.34-18.47a30.69,30.69,0,0,1,3.4-4.91c1.69-2,3.07-2.23,5.25-.74a15.84,15.84,0,0,1,4.08,4c4.35,6.38,6.43,17.19.06,25.92C620.65,243.14,620.29,243.75,619.83,244.47Z" transform="translate(-0.48 -0.48)"/><path class="cls-1" d="M519.82,153.17c-1.74-.69-3.34-1.19-4.82-1.94a83.06,83.06,0,0,1-8.58-4.73,20.31,20.31,0,0,1-4.34-4.39,4.37,4.37,0,0,1-.63-4.75c3-6.41,7.44-11.31,14.29-13.72a12.7,12.7,0,0,1,7.76-.42c5.77,1.56,8.3,6.46,8.73,11.65a64.46,64.46,0,0,1-.14,6.94c0,.39,0,.78,0,1.24a8.23,8.23,0,0,0,1.08.53,11.17,11.17,0,0,1,7.37,7.32c.43,1.21.74,2.45,1.15,3.66,2.34,6.91-3.2,15.36-10.42,16.75a27.09,27.09,0,0,1-4.75.53,8.29,8.29,0,0,1-8.64-7.87,32.63,32.63,0,0,1,.78-6.85A35.26,35.26,0,0,1,519.82,153.17Z" transform="translate(-0.48 -0.48)"/><path class="cls-1" d="M139.1,485.8a30.28,30.28,0,0,1-2.51,13.06c-1.1,2.55-2.75,3.88-5.66,3.86a46.41,46.41,0,0,1-10.45-1.14,6.06,6.06,0,0,0-1.38-.38c-3.24.12-4.38-2.18-5.33-4.63a39.1,39.1,0,0,1,.78-26.28c1-2.45,1.94-4.91,3.08-7.28,1.44-3,3.93-3.17,5.94-.56,2.92,3.8,5.81,7.62,8.83,11.33a27.74,27.74,0,0,0,4.28,4.18,6.34,6.34,0,0,1,2.42,5.44Z" transform="translate(-0.48 -0.48)"/><path class="cls-1" d="M184.15,510.25c-7.44.13-14.63-1.33-21.77-3a13.35,13.35,0,0,1-7-4.39A30.23,30.23,0,0,1,149,491c-.84-3,1.48-5.84,4.65-4.74,2.25.78,4.59,1.33,6.91,1.91,4.56,1.13,9,.31,13.51-.64,1.64-.35,3.27-.74,4.91-1.07a5.33,5.33,0,0,1,5.68,2c2.95,3.5,4.47,7.7,6.5,11.65a9.59,9.59,0,0,1,.81,3.24,5.38,5.38,0,0,1-4,6.21A33.76,33.76,0,0,1,184.15,510.25Z" transform="translate(-0.48 -0.48)"/><path class="cls-1" d="M485.51,540.23c-4.5,0-7.4-.71-10.16-2.15a42.8,42.8,0,0,1-10.16-6.7,19.36,19.36,0,0,1-4.39-6.21c-1.27-2.87.14-4.93,3.28-4.92a21,21,0,0,1,2.63.17c5.73.81,10.93-.8,15.84-3.54a14.13,14.13,0,0,1,6.16-1.71,3.86,3.86,0,0,1,3.45,1.31c2.25,2.79,4.62,5.51,6.61,8.48s1.78,6.24.85,9.49a3.63,3.63,0,0,1-1.56,2A30,30,0,0,1,485.51,540.23Z" transform="translate(-0.48 -0.48)"/><path class="cls-1" d="M555.44,524.11a27,27,0,0,1-11.3-1.72c-5-1.8-9.39-5.93-9.41-12.5,0-1.19,0-2.4.07-3.59a3.8,3.8,0,0,1,3.79-3.84,8.66,8.66,0,0,1,1.44,0,38.84,38.84,0,0,0,16.23-2.26c3.06-1.08,4.87-.56,7,1.93,1.38,1.65,2.73,3.33,4.14,5a13.28,13.28,0,0,1,2.59,5.32c1.39,5.08-1.17,8.39-4.89,10.58-1.42.84-3.37.86-5.1,1.05A39.72,39.72,0,0,1,555.44,524.11Z" transform="translate(-0.48 -0.48)"/><path d="M517.56,202.59a20.89,20.89,0,0,1-2.33-.37c-2.29-.62-3.8-2.61-3.11-4.87a48.27,48.27,0,0,1,3.81-9.49c1.9-3.36,4.89-3.55,7.43-.62a44.59,44.59,0,0,1,4.27,6.57,3.09,3.09,0,0,1-.41,3.39A11.9,11.9,0,0,1,517.56,202.59Z" transform="translate(-0.48 -0.48)"/></svg>