<svg id="Layer_1" data-name="Layer 1" xmlns="http://www.w3.org/2000/svg" viewBox="0 0 720 612"><defs><style>.cls-1{fill:none;stroke:#000;stroke-miterlimit:10;stroke-width:0.01px;}</style></defs><path d="M.48,612.48V.48h720v612ZM670.53,443.57c0-1,.06-1.92,0-2.88A36.49,36.49,0,0,0,666.65,426c-1.68-3.18-3.73-6.15-5.58-9.24-1.58-2.66-3.14-5.2-6-6.84a39,39,0,0,0-8-3.72,12.34,12.34,0,0,0-4.7-.17,45.7,45.7,0,0,0-5.39,1c-6.82,1.52-13.37,3.69-19.25,7.63a112.18,112.18,0,0,0-26.09,24.19c-6.79,8.68-12,18.31-16.63,28.24a13.38,13.38,0,0,0-.9,3.69,4.31,4.31,0,0,0,1.51,3.83,34.13,34.13,0,0,0,10.47,6.63c4.22,1.9,8.46,3.77,12.68,5.67a54.08,54.08,0,0,0,26.33,5,16.73,16.73,0,0,1,3.58-.22c4.47.69,8.75-.23,13-1.43a31.94,31.94,0,0,0,17.4-12.49A60,60,0,0,0,670.53,443.57ZM317.72,359c2.7,1.37,3.57,3.58,2.72,6.68A20.64,20.64,0,0,0,329.11,388a6.27,6.27,0,0,0,6.37.61,23.2,23.2,0,0,0,4.71-2.79c2.56-2.05,4.87-4.39,7.41-6.46a12.12,12.12,0,0,1,4.24-2.52,19.69,19.69,0,0,0,11.8-8.81c3.49-5.5,5.1-11.68,5.94-18.07a20.5,20.5,0,0,0,0-5.25,4.8,4.8,0,0,0-6.1-4.05,9,9,0,0,0-5.21,3.62c-1.73,2.28-3.27,4.72-4.81,7.14-1.35,2.12-3.75,2.14-5.05,0a6.08,6.08,0,0,1,.78-7.42,28.14,28.14,0,0,0,6.4-13.23,9.54,9.54,0,0,0-.36-6.12c-1.32-2.88-3.86-3.83-6.71-4.39-2.11-.42-4.21-.94-6.29-1.49a5.71,5.71,0,0,1-3.37-2.52c-1.39-2.15-2.94-4.19-4.3-6.36a25.78,25.78,0,0,0-4.58-5.15c-3.85-3.53-8.29-3.73-12.75-2.2a30.69,30.69,0,0,0-9.88,5.29,44.42,44.42,0,0,1-3.83,2.87c-5.27,3.6-9.93,7.78-13.21,13.36a10.53,10.53,0,0,1-5.62,4.64,14.2,14.2,0,0,0-6,3.45,6.15,6.15,0,0,0-1.61,5.73c.62,2.93,3.76,4.71,6.66,4.89a22.06,22.06,0,0,0,7.77-1.17l2.8-.83c1.26,1.21.52,2.33.29,3.34-1,4.35-2.24,8.66-3.07,13a45.06,45.06,0,0,0-.89,9.74c.15,3.93,2.88,6,6.82,5.7A7.33,7.33,0,0,0,300,372a40,40,0,0,0,6.72-3.59C310,366,313,363.17,316,360.51,316.62,360,317.19,359.45,317.72,359ZM140.41,277.69c-1.13-1.15-1.92-2-2.79-2.82-1.43-1.29-2.94-2.67-5.07-2.05a6.67,6.67,0,0,0-3.67,2.55,8.49,8.49,0,0,0-1.43,6.15c.5,3.88,1.06,7.76,1.78,11.6a18.69,18.69,0,0,0,1.64,4.48,3.09,3.09,0,0,0,1.62,1.64c3,.79,6.14,1.4,8.75-1.14a25.06,25.06,0,0,0,2.74-3c1.13-1.54,2.07-3.22,3.15-4.81a6.4,6.4,0,0,1,5-3c1,1.84,1.31,3.95,3.35,5.11s4.13.28,6.15.1a3.83,3.83,0,0,1,.18.58c.45,3.77,3,5.54,6.7,4.66a10.82,10.82,0,0,0,5.4-3.38,44,44,0,0,0,7.15-10.16c.75-1.5,1.66-2.92,2.53-4.35,2.72-4.42,5.58-8.77,8.14-13.28a28.47,28.47,0,0,0,2.55-6.67,8.94,8.94,0,0,1,2.15-4.13c4.33-4.53,7.59-13.32,3-21.57-3.77-6.79-8.62-12.64-15.52-16.58-5.47-3.14-11.21-5.06-17.6-4.3a5.7,5.7,0,0,1-4.23-1,4.52,4.52,0,0,0-6.8,2.4c-.27.75-.54,1.51-.76,2.27a4,4,0,0,1-2.59,2.87,9.49,9.49,0,0,0-4.23,3,5,5,0,0,0,.71,7.23,9.79,9.79,0,0,0,6.72,2.09c3,0,6.06-.35,9.08-.65,2.55-.25,4.76.11,6.2,2.55a11.3,11.3,0,0,0,1.43,1.6c3.36,3.88,2.33,8.69-2.38,10.6-1.72-2.39-3.87-4.09-7.06-2.76s-2.54,4.25-2.83,6.9a8.54,8.54,0,0,0-6.37.29,4.82,4.82,0,0,0-2.23,7.15,7.16,7.16,0,0,0,5.63,3.19c2.77.32,5.57.37,8.37.46a2.08,2.08,0,0,1,2,.91c2.17,3.36,5.37,4.29,9.17,3.74.52-.07,1.06-.09,1.74-.14a12,12,0,0,1-.74,5.75,7.65,7.65,0,0,1-5.26,4.84c-1.19.35-2,.17-2.49-1.06a14.69,14.69,0,0,0-1.75-3.12c-2.16-2.85-5.05-3.11-7.67-.77a9,9,0,0,0-1.19,1.49c-.47.65-.85,1.36-1.37,2-1.49,1.73-3.29,1.75-4.9.15a21,21,0,0,0-2.48-2.25c-3.3-2.34-7-1.21-8.59,2.51C141.24,276.13,140.93,276.67,140.41,277.69Zm68.92,4.62c-.38-1.13-.71-2.1-1-3.08-.79-2.43-1.53-4.88-2.35-7.3a9.15,9.15,0,0,0-2.71-4.16,3.68,3.68,0,0,0-5-.18c-1.74,1.18-2.31,3-2.82,4.84a66.33,66.33,0,0,0-1.94,14.22,10.15,10.15,0,0,1-1.8,5.59,57.65,57.65,0,0,0-3.67,6.45,16.9,16.9,0,0,0-1.56,10.49,58.28,58.28,0,0,0,1.31,6.57c1.13,4.13-.9,7-3.78,9.34a31,31,0,0,0-6.9,6.92c-4,6.2-5.94,12.87-3.89,20.28a18.2,18.2,0,0,1,.42,3,3.28,3.28,0,0,0,3.67,3.24,15.31,15.31,0,0,0,2.11-.38c2.27-.47,4.51-1.1,6.8-1.4a17.84,17.84,0,0,0,13.37-8.69c1.7-2.69,3.81-5.12,5.71-7.69a6.28,6.28,0,0,1,3.07-2.15,31.71,31.71,0,0,0,12-7.68,16.86,16.86,0,0,0,4.94-9.13c.44-2.67.78-5.36,1.07-8.06a5.33,5.33,0,0,1,2-3.88,19.34,19.34,0,0,0,6.15-8.69,11.6,11.6,0,0,0,.53-4.7,4.88,4.88,0,0,0-5.25-4.42c-.87.05-1.72.3-2.59.43s-1.49.17-2.19.25C222.31,282.69,217.66,279.69,209.33,282.31ZM118.8,236.92c.32.43.5.69.7.94,2.43,3,5.3,3.23,8,.51a14.63,14.63,0,0,0,3.15-4.47c1.79-4.26,3.28-8.64,4.89-13a5.77,5.77,0,0,0,.24-.93c.36-2.11-.91-3.5-2.28-4.74s-2.84-.93-4.24-.09c-1.85,1.1-3.63,2.32-5.47,3.44a11.61,11.61,0,0,1-3.13,1.68A49.36,49.36,0,0,1,111,222a38.38,38.38,0,0,1-13-1.65c-2.24-.73-4.29-1.82-4.63-4.6a12.31,12.31,0,0,0-.72-2,4.54,4.54,0,0,0-4.85-3.46c-2.79.06-5.7-.12-8.33.6-3.09.85-5.19-.11-7.19-2.14a2.69,2.69,0,0,0-.7-.65,4.52,4.52,0,0,0-1.75-.68c-3.1,0-6.22-.17-9.31.08a78.68,78.68,0,0,0-8,1.35,19,19,0,0,0-11.3,6.26c-1.79,2.09-1.68,4.17-.62,6.43a10.3,10.3,0,0,0,.79,1.2c-1.88,1.14-3.69,2.13-5.39,3.29A13.76,13.76,0,0,0,31,231.15c-1.14,2.29-.33,4.33,2.1,5.13,1,.34,2.13.48,3.22.72a4.12,4.12,0,0,1-.07.79,4.2,4.2,0,0,0,6,5.17c2.75-1.27,5.48-2.59,8.2-3.91.83-.4,1.62-.87,2.57-1.4,0,.82,0,1.36,0,1.9s.09,1.28.19,1.91a3.24,3.24,0,0,0,3.47,2.95,5.77,5.77,0,0,0,4-1.43c1-.92,2-1.85,3.06-2.69.64-.51,1.37-1.19,2.36-.31-.62,1.29-1.34,2.53-1.84,3.86-1.12,3-.26,5.09,2.52,6.62a5.41,5.41,0,0,0,4.86.1,25.5,25.5,0,0,0,5.24-2.84c3-2.16,5.77-4.55,8.63-6.86a5.38,5.38,0,0,1,4-1.6c.08.76.11,1.45.23,2.12.39,2.35,1.39,4.18,3.89,5a8.56,8.56,0,0,0,6.53-.4,77.34,77.34,0,0,0,10.34-6A17.18,17.18,0,0,1,118.8,236.92Zm42.33,191-.31.06c0,.4,0,.8,0,1.19.17,8.75,5.31,15,13.87,16.73a70.77,70.77,0,0,1,16.41,5.93,21.68,21.68,0,0,1,3.74,2.55,30,30,0,0,0,10.28,5.52,9.18,9.18,0,0,0,11.13-4.76,13.86,13.86,0,0,0-.38-14c-.93-1.58-1.76-3.22-2.63-4.84-2.23-4.12-1.63-8,1-11.68.85-1.16,1.79-2.26,2.7-3.37a3.3,3.3,0,0,0,.57-3.78q-1.44-2.88-2.95-5.72c-1.57-3-4-4.64-7.4-4.21a30.43,30.43,0,0,0-6.64,1.82c-5,1.9-9.93,4-14.91,5.95a15.17,15.17,0,0,1-3.48.8,2.51,2.51,0,0,1-3-1.8,18.66,18.66,0,0,1-1-3.42c-.3-2.45-.38-4.93-.59-7.39-.33-3.91-3.37-6.25-7-4.92-5.54,2-9.85,5.54-11.69,11.47a9.65,9.65,0,0,1-1,2.15c-1.15,1.91-1.14,2.78.08,4.61a10,10,0,0,1,1.61,2.89C160.2,422.46,160.62,425.21,161.13,428Zm72.54,28.46c-.06.79-.11,1.59-.17,2.39a11.93,11.93,0,0,0,3.15,9,17.52,17.52,0,0,0,14.5,6.12c4.22-.2,8.42-.8,12.63-1.28a19.75,19.75,0,0,0,3.27-.73c3.75-1.09,5-2.58,5.17-6.47a13.84,13.84,0,0,0-.28-3.33,30.23,30.23,0,0,0-3.81-9.78,5.12,5.12,0,0,1-.91-2.86,29.27,29.27,0,0,1,1.4-6.28c1.29-3.69,2.9-7.26,4.24-10.93a8.81,8.81,0,0,0,.45-5.63,12.15,12.15,0,0,0-10-9.17c-1.17-.23-2.38-.22-3.57-.34-5.55-.59-11.15-.86-16.38-3.21a4.73,4.73,0,0,0-3.25-.16c-5.91,2.24-11.35,5.34-15,10.65a14.52,14.52,0,0,0-1.59,13.74,13.05,13.05,0,0,0,5,6.25C232.77,447.39,234.6,451.28,233.67,456.41Zm-41.79-91.58a12.37,12.37,0,0,0-9.76-.83c-4.31,1.52-7.31,4.75-10,8.25a4.7,4.7,0,0,0-.66,1.79c-.6,2.73-1.18,5.47-1.71,8.21a5.78,5.78,0,0,0,0,1.9c.31,2.15,1.36,3,3.47,3.24a52.26,52.26,0,0,1,6.36,1c2.32.54,4.12,1.77,4.3,4.48a6.88,6.88,0,0,0,.34,1.39,9.52,9.52,0,0,0,9.16,7.08,13.24,13.24,0,0,0,6.26-1.41c2.64-1.33,5.19-2.82,7.8-4.2.68-.35,1.56-.88,2.18-.72,3.17.83,6.35,1.68,8.31,4.74a17.72,17.72,0,0,0,3,3.71c2.86,2.53,6.22,3,8.57-1.95a9.45,9.45,0,0,0,.75-2.27,34.06,34.06,0,0,0,.58-4.26,56.05,56.05,0,0,0-1.68-16.16,9.38,9.38,0,0,1,.26-5.59,21.18,21.18,0,0,0,1.2-6.31c.25-6.71-2.64-10.82-8.95-13.18A17.21,17.21,0,0,0,213,353a33.15,33.15,0,0,0-16.86,8.05C194.7,362.27,193.35,363.52,191.88,364.83Zm82,41.81c.28.95.48,1.64.69,2.32.94,3.05,1.86,6.11,2.84,9.15a5.07,5.07,0,0,0,3.62,3.54,19.52,19.52,0,0,0,4.72.41c2.51,0,4.44-1.34,6-3.05,2.45-2.62,4.79-5.36,7-8.18a4.8,4.8,0,0,1,4.32-2c2.48.11,5,.14,7.43.32a13.68,13.68,0,0,0,8.2-2.17,7.67,7.67,0,0,0,3.14-3.81c1.28-3.06.62-6-.59-8.82-1.32-3.08-2.74-6.12-4.14-9.17-.67-1.46-1.32-2.92-2.08-4.32a5.46,5.46,0,0,0-5.41-3.24,5.57,5.57,0,0,0-3.29,1.2c-2,1.57-4.08,3.07-6.2,4.47a3.47,3.47,0,0,1-3.83.07A10.66,10.66,0,0,0,292,382c-2.85-.15-5.72.07-8.58.16-.2,0-.4.2-.61.31-.83.41-1.65.89-2.51,1.23-3.51,1.37-7,2.7-9.66,5.58a2.55,2.55,0,0,1-1.71.61c-3.19.07-6.39.15-9.57,0A21,21,0,0,1,248,386.1a11.91,11.91,0,0,0-3-1.33,2.83,2.83,0,0,0-3.24,1,6.89,6.89,0,0,0-1.89,4.3,42.27,42.27,0,0,0,.24,4.78,16.56,16.56,0,0,0,13.82,14.3,27.35,27.35,0,0,0,10.24-.42C267.27,408.09,270.46,407.37,273.86,406.64ZM222,181.1a35.24,35.24,0,0,0-1.84-3.44,15.6,15.6,0,0,0-2.62-3.1c-2.93-2.55-7-1.86-8.56,1.66-2,4.39-2.74,9.09-1.21,13.76,1.35,4.09,2.76,8.15,3.92,12.3a10.57,10.57,0,0,1-.86,8.09,19.53,19.53,0,0,1-6.16,6.59,4.78,4.78,0,0,0-1.71,6.3c1.25,2.68,2.54,5.35,4,7.91,2.53,4.39,4.81,8.82,5.25,14a3.17,3.17,0,0,0,3.73,2.89,17.1,17.1,0,0,0,6.95-2.39A35.09,35.09,0,0,0,229,240a15.16,15.16,0,0,0,4.41-9.63c.21-3.57.1-7.17,0-10.75-.08-2.43.17-2.86,2.47-3.63,2.94-1,5.88-2,8.76-3.22,2.36-1,4.36-2.43,5-5.09,1.24-5.12,1.15-10.19-1.15-15s-6.87-6.23-11.65-3.79l-2.64,1.38a37,37,0,0,0-.27-3.83,23.77,23.77,0,0,0-1.18-4.84,4.93,4.93,0,0,0-5.92-2.89A32.39,32.39,0,0,0,222,181.1ZM119,380.92c-1.17.53-2.26,1-3.33,1.51a9.6,9.6,0,0,0-5.34,6.39c-2,7.48,2.22,14.38,9.89,15.75,3.29.59,6.66.68,10,1.13,4.1.56,8.17,1.29,12.27,1.88,2.37.35,4.74.65,7.12.82a3.62,3.62,0,0,0,3.63-2.26,47.29,47.29,0,0,0,4.37-11.87,38.42,38.42,0,0,1,1.82-6.41c1.05-2.75,2.41-5.39,3.55-8.11,1.91-4.59.77-9.12-3.06-12a47,47,0,0,0-5.74-3.88,16.6,16.6,0,0,1-6-5c-1.45-2.08-5.09-2.72-7.37-1.47a10.19,10.19,0,0,0-4.49,4.78c-.6,1.29-1.08,2.64-1.68,4.12l-5.24-1.77a10.08,10.08,0,0,0-5.64-.55,17.67,17.67,0,0,0-7.28,3.5,7,7,0,0,0-.73,10.55C116.72,379,117.81,379.92,119,380.92ZM264.09,278.35a38.1,38.1,0,0,1,1.64-3.9c1.61-2.84,3.46-5.57,5-8.46a18.85,18.85,0,0,0,1.95-5.6c.63-3.86-2.27-6.39-6-5.32a11.22,11.22,0,0,0-3.74,2,17.13,17.13,0,0,0-2.87,3.19,26.69,26.69,0,0,0-4.48,9.46c-.64,2.47-1.69,3-4.23,2.9-.32,0-.64,0-1-.07a12.6,12.6,0,0,0-7.61,1.63,7.51,7.51,0,0,0-2.68,11.23,34.1,34.1,0,0,0,2.75,3.62,4.52,4.52,0,0,1,1,5.27c-.42,1.12-.88,2.22-1.31,3.34-.81,2.17-1.72,4.31-2.4,6.52-.77,2.53.29,4.19,2.87,4.8a11.46,11.46,0,0,0,1.66.25c2.06.17,4.14.22,6.18.53a15.37,15.37,0,0,1,3.86,1.17c3.06,1.36,6,2.9,9.11,4.23a11.71,11.71,0,0,0,3.49.76c5,.51,9.86-.66,14.57-2.26,3.24-1.1,6.38-2.53,9.62-3.64a18.35,18.35,0,0,0,7.19-5c2.68-2.74,2.05-8.32-2-9.42-1.37-.36-2.79-.6-4.19-.84-1.8-.31-3.61-.57-5.42-.82a2.81,2.81,0,0,1-2.29-1.85,18.25,18.25,0,0,0-5.44-6.59,25.34,25.34,0,0,0-9.33-4.72A57.34,57.34,0,0,1,264.09,278.35ZM405.47,442.27c5.22.15,13.35-1.82,16.9-3.76a4.59,4.59,0,0,0,2.74-4.16c0-2-1.34-2.88-3-3.57a14.22,14.22,0,0,1-5.62-4c-1.95-2.3-2-4.66,0-6.88a25.46,25.46,0,0,1,3.31-3.09,32.35,32.35,0,0,0,8.72-9.77,4.49,4.49,0,0,0-2.47-6.64,24.14,24.14,0,0,0-4.41-1c-2.59-.43-5.21-.71-7.81-1.12-3.55-.56-7.08-1.3-10.64-1.75a4.51,4.51,0,0,1-3.59-2.3q-3.27-5.14-6.94-10a12.33,12.33,0,0,0-3.53-3.18c-2.57-1.51-5.92-1.88-7.31,2.28a14.09,14.09,0,0,0-.67,2.3c-.63,3.93-1.3,7.87-1.77,11.83a14.71,14.71,0,0,0,.28,4.53,7.76,7.76,0,0,0,3.16,5.18c2.9,2,3.08,1.41,2,5.92a13.73,13.73,0,0,1-.81,2c-.79,1.83-1.62,3.65-2.36,5.5a8.29,8.29,0,0,0,.44,7.4C387.09,437.06,394.48,442.37,405.47,442.27ZM124.61,184.55c-.61,2.55-.58,4.84.82,6.89s2.67,4,4.19,5.83a10.94,10.94,0,0,0,3.39,2.95,12,12,0,0,1,5,4.95,23.08,23.08,0,0,1,1.63,3.7,4.23,4.23,0,0,0,6.41,2.3,11.09,11.09,0,0,0,2.73-2.28A70.9,70.9,0,0,0,157,196.51a8,8,0,0,0-.47-8.61,37.67,37.67,0,0,0-3.76-4.63,4,4,0,0,1-1.19-3.44c.38-3.08.6-6.19.76-9.3a8.93,8.93,0,0,0-3.11-7.48,2.89,2.89,0,0,1-.93-2.73,32.18,32.18,0,0,0-.05-6.21c-.81-5.06-5.67-6.37-8.95-3.68-1.36,1.12-2.23,2.85-3.24,4.36a17.06,17.06,0,0,0-1.11,2.45c-.47-1.09-.76-1.8-1.08-2.5-1.56-3.32-3.08-6.67-4.71-10a11.27,11.27,0,0,0-2.06-2.92c-2.84-2.86-6-2.11-7.45,1.68a7.51,7.51,0,0,0-.21.94,30.64,30.64,0,0,0,0,16.1c.21.74.38,1.5.63,2.5-1.26,0-2.21,0-3.16,0a18.87,18.87,0,0,0-3.1.23c-3.67.75-5.34,3.66-4,7.18a12.61,12.61,0,0,0,1.94,3.27A37.2,37.2,0,0,0,124.61,184.55ZM251.28,371.06c.08,1.76.09,3.52.27,5.27a6.08,6.08,0,0,0,3.46,5.12,6.46,6.46,0,0,0,4.68.4c2.53-.69,5-1.62,7.49-2.46a9.61,9.61,0,0,1,2.25-.71,4.47,4.47,0,0,0,3.36-1.61,24.71,24.71,0,0,0,3.64-5A69.88,69.88,0,0,0,280.1,362a25,25,0,0,0,.72-6.87c-.05-3.81-1.89-6-5.53-7.22a38.09,38.09,0,0,1-3.93-1.73c-3.49-1.66-5.64-4.59-7.52-7.82a5.36,5.36,0,0,1-.82-2.91,23.48,23.48,0,0,0-.31-4.52c-.78-4-3.4-6.76-6.25-9.41a12.22,12.22,0,0,0-10.82-3.24,7.8,7.8,0,0,0-6.65,5.06,38.7,38.7,0,0,1-4.12,7,6.53,6.53,0,0,1-2.48,1.7c-1.62.83-3.38,1.42-4.95,2.33a5.66,5.66,0,0,0-1,9.48,24.86,24.86,0,0,0,5.84,4.11,102.47,102.47,0,0,0,10.88,4.37,9.6,9.6,0,0,1,6.12,5.64A29.52,29.52,0,0,1,251.28,371.06ZM78.38,196a5.88,5.88,0,0,1,.1,1.07c-.19,1.93.75,3.12,2.39,4a9.7,9.7,0,0,0,5.6.84,15.45,15.45,0,0,1,2.14-.18c3.74.25,7.48.55,11.21.86a4.12,4.12,0,0,1,1.39.3,1.73,1.73,0,0,1,1,2.67c-.47,1.09-1.18,2.07-1.75,3.12-1,1.87-.72,3.21.78,4.72,1.74,1.75,3.84,1.81,6,1.44,4.25-.72,8.49-1.51,12.72-2.3a10.65,10.65,0,0,0,2.29-.7,3.13,3.13,0,0,0,1.92-3.73q-1.1-3.9-2.54-7.7c-1.63-4.33-4.61-7.84-7.37-11.44a52.91,52.91,0,0,0-5.81-6.35,12.64,12.64,0,0,1-3.62-4.94,13.4,13.4,0,0,0-1.75-3.13c-2.23-3.1-5.27-3.75-8.61-1.91-1.19.65-2.33,1.39-3.53,2-4.1,2.18-5.49,1.87-7.85-2-3.34-5.51-8.39-8.68-14.32-10.59-2.73-.88-5.63-.87-8,.92a22.4,22.4,0,0,0-4.15,4.27,5.74,5.74,0,0,0-1.1,4.07,9,9,0,0,0,3.18,6.24c2.29,2,4.72,3.81,7.1,5.69.61.48,1.26.9,2,1.44-1.55,1.72-3,3.32-4.43,4.89s-1.46,3.7-.82,5.63c.58,1.76,2.3,2.06,3.93,2.22a9.57,9.57,0,0,0,2.14,0C71.82,197,75,196.52,78.38,196ZM78,287a11.16,11.16,0,0,0,2.4.68,18.37,18.37,0,0,0,4.45-.17A17,17,0,0,0,88.39,286a12.92,12.92,0,0,0,8-11,28.29,28.29,0,0,0,.21-4.31c-.27-4.94,1.67-9.2,4.07-13.29.78-1.35,1.26-2.59.48-4a3.78,3.78,0,0,0-3.6-1.93c-3.2,0-6.39-.12-9.59-.09-7.36,0-7.37.06-13.45,4.36-2.61,1.85-5.14,3.8-7.74,5.65a5,5,0,0,1-4,1.1c-1.52-.31-1.83-1.52-2.38-2.69a4.67,4.67,0,0,0-4.06-2.57c-1.64-.15-2.65.81-3.4,2.19-.84,1.54-1.84,3-2.66,4.55a28.49,28.49,0,0,0-3.62,14.23c.15,5.93,4.37,9,10.05,7.52a5.11,5.11,0,0,1,1.13-.06c-.51,2.83-1.07,5.48-1.44,8.16a20.61,20.61,0,0,0,1.93,12.57c2.22,4.31,6.78,4.4,9.43,1.37a33.39,33.39,0,0,0,2.18-2.84,54.05,54.05,0,0,0,5.49-11.16ZM465.38,418c1.36,1,2.51,1.91,3.79,2.65,2.07,1.2,4.24,2.21,6.32,3.38a19.79,19.79,0,0,0,9.34,2.75c4.33.07,8.69-.27,12.51-3a29.16,29.16,0,0,0,5.84-4.9c1-1.22,2.19-2.3,3.26-3.49,1.58-1.77,2.34-3.71,1.41-6.13a9.27,9.27,0,0,0-6.26-5.81,5,5,0,0,1-3.06-2.36,6.19,6.19,0,0,0-7.19-3,24,24,0,0,0-3.19,1,12.49,12.49,0,0,1-5.66.63c-3.5-.27-7-.61-10.52-.57-8.7.11-17.41.26-26.1.74a7.48,7.48,0,0,0-6.56,3.77,86.11,86.11,0,0,1-9.82,13.87,15.29,15.29,0,0,0-1.95,3c-1.16,2.41-.33,4.69,1.86,6.2a17.1,17.1,0,0,0,13.51,2.6c8.32-1.59,15.86-4.85,21.94-11A3.41,3.41,0,0,1,465.38,418Zm-278-250.51c-.36-2-.67-4.22-1.19-6.37-.6-2.48-1-5.12-2.19-7.3-2.15-3.9-6.06-4.12-8.86-.38A7.66,7.66,0,0,0,174,156c-.62,2.4-1.1,4.82-1.63,7.24-.17.79-.32,1.58-.58,2.87-.68-1.23-1-2-1.46-2.6a30,30,0,0,0-2.86-3.83,5.8,5.8,0,0,0-6.37-1.57c-2.28.76-3,2.73-3.43,4.81a8.74,8.74,0,0,0-.14,1.91c0,4.56,1.43,8.81,3,13a5.75,5.75,0,0,0,2,2.59c1.61,1.05,2.54,2.61,3.75,4a6.6,6.6,0,0,1,1.5,6.42,11.13,11.13,0,0,0,.47,6.84c2.06,5.22,5.79,8.32,11.48,8.76,2.47.19,4.94.33,7.41.33a4.17,4.17,0,0,1,3.58,2c.32.45.52,1,.83,1.46A6,6,0,0,0,198,213a5.56,5.56,0,0,0,4-4.61,22.88,22.88,0,0,0,.5-4,39.77,39.77,0,0,0-2.4-14.58,8.14,8.14,0,0,1,.15-6.42,17.22,17.22,0,0,0,1.39-8.67c-.36-3.84-3-8.14-7.81-8.29C191.81,166.34,189.78,167,187.41,167.46Zm112.24,262c-2.28-.34-4.31-.68-6.35-.93a9.22,9.22,0,0,0-2.57,0c-3.85.61-7,2.63-9.85,5.14-3.87,3.41-5,7.36-3.27,12.47,2.4,7,7.25,12.16,12.05,17.38,1.94,2.09,4,2.11,5.95.33s4.19-2.6,6.41-3.64a16.07,16.07,0,0,1,11.67-1c2.61.78,5.19.37,7.78.62a3.32,3.32,0,0,0,1.57-.52,21.08,21.08,0,0,0,8.32-7.4c1.3-2,1.72-4.18.24-6.29-1.14-1.62-2.42-3.15-3.65-4.71a14.74,14.74,0,0,1-1.73-2.26A22.8,22.8,0,0,1,324,431c-.15-1.35-.39-2.69-.61-4a12.88,12.88,0,0,0-7.51-10.13c-3.79-1.85-7.46-.88-11.16.11a2.81,2.81,0,0,0-.79.53c-2.74,1.91-3.58,4.78-4,7.87C299.83,426.64,299.77,427.9,299.65,429.42Zm62.53,54.49a10.77,10.77,0,0,1,1.5-.45c1-.08,2.08-.14,3.11-.15,2.39,0,4-1.16,4.09-3.12a3.66,3.66,0,0,0-3.56-3.72,53.59,53.59,0,0,1-8-1.43,26.83,26.83,0,0,1-11.57-5.49,7.42,7.42,0,0,0-4.44-1.61,19.78,19.78,0,0,0-12,2.63c-3.7,2.23-7.73,1.64-11.2-.34a55.42,55.42,0,0,0-7.68-3.2,10.11,10.11,0,0,0-7.28.24,24.4,24.4,0,0,0-8.43,5.81c-1.38,1.35-2.25,3.29-1.2,5.26a13.53,13.53,0,0,0,3,4c3.18,2.67,6.3,5.48,10.12,7.24,2.67,1.23,5.25,2.64,8.28,3a46.89,46.89,0,0,0,15.5-.66,10.7,10.7,0,0,1,6.29.78,21.13,21.13,0,0,1,3.38,1.81c6.13,3.8,12.85,4.22,19.67,3.07,5.18-.88,11.35.42,15.37,3.94a3.38,3.38,0,0,0,5.61-1.45c1.41-4-1.95-9.28-6.15-9.62a16.54,16.54,0,0,1-7.11-1.95C367.17,487.2,364.94,485.67,362.18,483.91Zm-10.43-75a19.9,19.9,0,0,1,1.14,2.22c2.3,6.51,6.24,12,10.74,17.14a7.5,7.5,0,0,0,1.61,1.42,3.35,3.35,0,0,0,5.36-2.17c.42-1.78.81-3.58,1.24-5.36.93-3.89,2-7.74,2.79-11.66.65-3.24.27-6-2.62-8.58a10.5,10.5,0,0,1-3.09-10.74c.54-2.25,1.15-4.48,1.57-6.76a4.3,4.3,0,0,0-.3-2.53,5.32,5.32,0,0,0-6.63-2.84,15.92,15.92,0,0,0-3,1.41c-1.54.84-3,1.8-4.56,2.64a44.12,44.12,0,0,0-12.34,9.4c-3.13,3.53-6.11,7.19-9.35,10.62-3.88,4.11-4.34,9.1-4,14.29a34.37,34.37,0,0,0,1.34,7.75c1.4,4.57,3,9.11,4.78,13.53,1.53,3.73,5.47,3.34,7.92,1.7a9.21,9.21,0,0,0,4.18-8.16c0-4.22.19-8.46.57-12.66A30.5,30.5,0,0,1,351.75,408.89Zm-211.4-98.47c-1-.44-1.8-.74-2.55-1.16-1.54-.86-3-1.81-4.56-2.65a8.89,8.89,0,0,0-10.26,1.1,8.67,8.67,0,0,0-2.4,9.82,11.3,11.3,0,0,0,4.75,5.56c2.07,1.17,4.33,2,6.5,3,1,.46,2.29.76,2.88,1.56,1.51,2,3.19,4.16,3.9,6.52,1.32,4.43,4.12,7.88,6.68,11.51a11.6,11.6,0,0,0,2.17,1.87c1.66,1.35,3.42,2.6,5,4.07a18.58,18.58,0,0,0,5.25,3.68,3.25,3.25,0,0,0,4.67-2.26,9.69,9.69,0,0,0,.19-1.42c.37-3.66.76-7.31,1.08-11a24.56,24.56,0,0,1,8.24-16.79,13.11,13.11,0,0,0,4.16-7.91,8.36,8.36,0,0,0-3.16-8.52,4.33,4.33,0,0,0-5.31-.39,26.62,26.62,0,0,0-6.93,5.84c-.52.6-.91,1.5-2.08,1.46a20.18,20.18,0,0,0-.18-2.68,31.9,31.9,0,0,0-1.47-5.77c-1.84-4.29-6.1-5.42-9.85-2.62a37.78,37.78,0,0,0-4.44,4.33C141.85,308.39,141.22,309.32,140.35,310.42ZM454.48,268a22,22,0,0,0-9.17,2.18,5.52,5.52,0,0,0-3.25,3.63,54.45,54.45,0,0,1-7.35,17.1,5.44,5.44,0,0,0-.5,5.5c2.56,5,5.19,9.91,7.94,14.77a11.4,11.4,0,0,0,3,3.05,3.29,3.29,0,0,0,4,0c1.47-.93,2.95-1.86,4.5-2.64a16.41,16.41,0,0,1,9.27-1.89,23.14,23.14,0,0,0,8-.64,8.84,8.84,0,0,0,4.64-2.72q5.33-5.69,10.68-11.34a3.34,3.34,0,0,0,1.07-3.47,10.21,10.21,0,0,0-4.21-5.67c-4.72-3-9.62-5.65-14.41-8.52-1.78-1.06-3.43-2.35-5.18-3.45a9.79,9.79,0,0,1-3.23-2.78C458.87,269,456.89,267.62,454.48,268ZM564.56,425.49a7.65,7.65,0,0,0-1.21-4.94c-.59-1-1.22-2.06-1.82-3.09-1.68-2.9-3.32-5.83-5.06-8.68-1.07-1.75-2.32-2.15-4.3-1.68a5.48,5.48,0,0,0-3.53,2.32c-2,3.24-3.94,6.55-5.82,9.88a8.7,8.7,0,0,0-.58,2.31,14.58,14.58,0,0,1-.49,2.1,26.24,26.24,0,0,0-1.43,10.14c0,4.73,1.68,9.12,2.92,13.55,2.76,9.88,8.72,17.28,18.18,21.67a5.3,5.3,0,0,0,5.23-.26c2.19-1.24,3.16-3.37,4-5.55,1.08-3,1.89-6.09,2.91-9.12a31.79,31.79,0,0,1,3.63-7.75c2.37-3.54,3.5-5.11.34-10.08-.68-1.08-1.48-2.09-2.07-3.21-1.36-2.61-2.54-3.12-5.45-2.25a3.23,3.23,0,0,1-1.58.27C566.5,430.62,564.49,427.62,564.56,425.49ZM248.47,222c-4.35-2.69-8.28.28-8.35,4.09a9.59,9.59,0,0,0,1.21,4.53,8.06,8.06,0,0,1,1,5.27,37.91,37.91,0,0,1-.81,4,7.17,7.17,0,0,1-6.12,5.63,8.38,8.38,0,0,0-6.26,3.93,16.69,16.69,0,0,1-1.77,2.27,10,10,0,0,1-9.17,3.64,11.83,11.83,0,0,0-2.38,0,5.47,5.47,0,0,0-5,6.78,9.12,9.12,0,0,0,4.41,5.94c3.34,1.9,6.74,4,8.68,7.61a5.11,5.11,0,0,0,4.86,2.46c2.14-.42,2.65-2.08,3-3.88.09-.55.07-1.12.15-1.67a24.35,24.35,0,0,1,.62-3.53c.45-1.45,1-2.95,2.78-3.31,4.53-.93,8.55-3.13,12.61-5.16a18.25,18.25,0,0,0,5.4-3.9c2.65-2.93,2.47-4.84.41-6.93a8.15,8.15,0,0,1-.71-1.05c.85-.28,1.51-.51,2.19-.72,2.74-.85,5.53-1.55,8.2-2.59A5.71,5.71,0,0,0,267.2,240c.14-3.08-.56-5.87-2.91-8-.62-.59-1.25-1.16-1.83-1.69.43-.79.79-1.32,1-1.91a13.4,13.4,0,0,0-1.44-13.21c-2.05-3.09-5.21-3.38-7.92-.72a33.13,33.13,0,0,0-3.12,3.92C250.17,219.49,249.38,220.68,248.47,222ZM375.22,365.53c-.21,4.44,2.85,7.24,7,6.66a31.27,31.27,0,0,1,11.66.65c4.26,1,7.67,3.12,9.39,7.37a8,8,0,0,0,.94,1.93c.88,1.11,1.68,2.49,2.86,3.12,4.51,2.38,9,4.8,14,6.21,2.73.77,4.82-1,4.6-3.79a25.42,25.42,0,0,0-.37-2.6c-.5-2.58-.61-5.32-1.62-7.68A92.18,92.18,0,0,0,417.57,366c-1.09-1.78-2.24-3.77-4.42-4.57-4.33-1.6-7.33-4.73-9.94-8.36a8.2,8.2,0,0,1-1.5-3.71,34.25,34.25,0,0,0-3.23-10.49A12.69,12.69,0,0,0,394,333.7c-3.24-2.05-8.15-1.86-10.44,2.64a17.39,17.39,0,0,0-1.29,3.09q-3.3,11.51-6.49,23A28.34,28.34,0,0,0,375.22,365.53ZM226.3,473.36a48.42,48.42,0,0,0-6.62,1c-4.18,1.17-8.42,2.06-11.72,5.48a17.79,17.79,0,0,0-5.39,14.75,5.84,5.84,0,0,0,3.18,5,11.35,11.35,0,0,0,6,1.2,49.51,49.51,0,0,0,14.73-2.89c3-1.1,6-2.1,9.09-3a7.71,7.71,0,0,1,3.06-.27c7.63.92,14.78-.75,21.62-4a7,7,0,0,1,4.38-.64c3,.49,6,.84,9,1.19,2.85.34,5.7.76,8.57.85a23.14,23.14,0,0,0,6.38-.57c3.08-.78,3.9-3,2.25-5.67a40.12,40.12,0,0,0-4.14-5.56c-2.41-2.67-5.36-4-9-2.79-2.58.83-5.18,1.61-7.77,2.42a43,43,0,0,1-8.85,2c-7.54.74-14.62-.4-21.1-4.56A24.23,24.23,0,0,0,226.3,473.36ZM365.68,312.55c-.37.93-.57,1.53-.84,2.1a11,11,0,0,0-.27,8.83c1.61,4.28,5.75,6.19,9.8,4a29.68,29.68,0,0,0,5.81-4.17c4.13-3.71,7.33-8.23,10.38-12.83a17.88,17.88,0,0,0,1.59-3.47c1.58-4.13,1.66-8.44,1.45-12.78a19.18,19.18,0,0,1,3.22-12,9.06,9.06,0,0,0,1.15-2.36,2.9,2.9,0,0,0-2.74-4,7.83,7.83,0,0,0-5.66,1.52c-3,2.41-6.14,4.6-8.56,7.66a29.31,29.31,0,0,1-3.73,4.06A55.07,55.07,0,0,1,371.9,293c-3.58,2.39-7.74,2.38-11.79,2.52-5.52.2-9.95,2.74-13.95,6.17-2.51,2.16-2.54,5.18-.4,7.67a6.58,6.58,0,0,0,1.5,1.17,13.76,13.76,0,0,0,6.84,2C357.84,312.64,361.59,312.55,365.68,312.55ZM599,407.27h-.26c0-3.27,0-6.54,0-9.82,0-2.93-1.75-4.29-4.35-4.87a18.08,18.08,0,0,0-2.84-.36c-1.19-.07-2.4,0-3.6-.05-4-.07-7.49-.92-9.63-4.92-.81-1.52-1.6-2.82-1.59-4.6,0-4.86-4.28-7.36-8.49-5a3.45,3.45,0,0,0-.41.25c-1.61,1-3.28,2-4.82,3.14a14.49,14.49,0,0,0-3.12,2.93,71.94,71.94,0,0,0-4.19,6.68,3.46,3.46,0,0,0-.31,2.51,11.23,11.23,0,0,0,2,3.72c1.35,1.57,3,2.85,4.49,4.33,3.5,3.55,6.51,7.35,7.34,12.53.57,3.53,2.14,4.58,5.67,4.41,3.23-.17,4.29.4,4.85,3.58.52,3,2.09,5.29,3.8,7.59,1.57,2.13,4,2.11,5.64.05a35.39,35.39,0,0,1,2.42-2.63c1.53-1.52,3.14-2.95,4.63-4.51,1.75-1.82,3.22-3.78,2.41-6.6a6.13,6.13,0,0,1,0-1.91Q598.81,410.51,599,407.27ZM146,452c.22.84.35,1.38.51,1.9a17.14,17.14,0,0,0,9.38,10.94,42.21,42.21,0,0,0,7.51,2.43c3.38.85,6.85.46,10.25,0,2.31-.31,3.29-2.08,2.84-4.41a8.55,8.55,0,0,0-2.35-4.61c-1.42-1.4-3-2.64-4.35-4.11a42.12,42.12,0,0,0-9.11-7.34,5.22,5.22,0,0,1-1.68-1.66c-1.54-2.52-3-5.07-4.44-7.67a11.91,11.91,0,0,1-1-3.17c-.79-3.59-1.62-7.17-2.2-10.8a4.41,4.41,0,0,0-3.09-3.85,11.48,11.48,0,0,0-2.54-.67,18.48,18.48,0,0,1-8.48-3,12.88,12.88,0,0,0-8.39-2.35,6,6,0,0,0-4.6,2.19,7,7,0,0,0,2.31,10.58c1.91,1,3.85,1.88,5.83,2.84-.83,1.66-1.68,3.26-2.45,4.9a13.07,13.07,0,0,0-.28,10.05,5.39,5.39,0,0,0,3.13,3.46C137.09,449.25,141,452,146,452Zm313.15-81.3c2.64.36,4.61-1.18,6.72-2.28a3.84,3.84,0,0,0,2.17-4.36c-.4-3-.63-6-1.07-9-.22-1.48-.46-3.07-1.88-4-1.81-1.18-3.69-2.23-5.46-3.44-3.1-2.11-6.19-4.22-7.37-8.12-.5-1.67-1.32-3.25-1.92-4.9-1.38-3.79-4.17-6.34-7.37-8.54-1.52-1-3.15-1.9-4.62-3s-2.69-1.44-4.21-.65-1.85,2.24-1.76,3.88a30.76,30.76,0,0,0,2.28,9.25,19,19,0,0,1,1.09,2.91c.92,4.61.05,6.34-3.55,8-1.23.58-2.55,1-3.77,1.55a54.84,54.84,0,0,0-4.86,2.56,7.57,7.57,0,0,0-3.23,4,3.4,3.4,0,0,0,1.5,4.52c1.15.72,2.28,1.47,3.43,2.18,4.77,2.93,9.51,6.05,15.13,7C446.62,369.29,452.91,369.9,459.16,370.69ZM437.58,259.3c-.49-4.36-.83-8.74-1.51-13.07a16,16,0,0,0-5.85-10.41,7.51,7.51,0,0,0-10,.4,26.33,26.33,0,0,1-2.34,2.38c-3.08,2.19-4.71,5.32-6.07,8.7-2.43,6-3.67,12.39-5.06,18.69a29.12,29.12,0,0,0-.41,4.29,6.34,6.34,0,0,0,2.25,5.54,6.64,6.64,0,0,1,1.63,1.72c2.54,4.77,6.87,7.95,10.33,11.9a3.27,3.27,0,0,0,5.43-.82c.42-.77.79-1.56,1.19-2.33,2.33-4.45,4.75-8.87,7-13.37A31.49,31.49,0,0,0,437.58,259.3Zm-10,51.15-.3,0a22.9,22.9,0,0,0,0-2.87,9.8,9.8,0,0,0-4.64-7.43,48.21,48.21,0,0,1-7.42-5.22c-2.35-2.23-4.17-5-6.21-7.57a3.46,3.46,0,0,0-3.14-1.37,4.42,4.42,0,0,0-4.53,3.53,11.24,11.24,0,0,0-.54,2.33c-.34,4-.65,7.95-.9,11.94a16.77,16.77,0,0,1-2.61,8.82,4.36,4.36,0,0,0-.66,3.19,9.13,9.13,0,0,0,2.54,5.28A19.38,19.38,0,0,1,404,331.26a27.3,27.3,0,0,0,1,4.88,29.27,29.27,0,0,0,5.83,9,3.1,3.1,0,0,0,4.3.79c1.59-.86,3-2.05,4.53-3.07,3.29-2.2,4.57-5.43,4.6-9.23,0-5,1.07-9.82,1.89-14.69C426.64,316.11,427.1,313.28,427.57,310.45Zm183.26,54.81c-6.71,0-12.32.61-17.73,2.56-1.42.52-3,.73-4.34,1.29a18,18,0,0,0-4.66,2.34c-1.48,1.18-2.77,2.77-2,5,.59,1.65,1.26,3.27,1.81,4.93a6.18,6.18,0,0,0,4.63,4.43,84.79,84.79,0,0,0,9.39,1.44,6.09,6.09,0,0,1,3.86,1.63c1.37,1.33,2.69,2.72,4.13,4,2,1.74,2.09,1.84.83,4.16a13.68,13.68,0,0,0-1.91,7.55c.21,3.15,2.21,5.05,5.33,4.74a21.7,21.7,0,0,0,9.25-3.06,7.28,7.28,0,0,0,3.38-4.19,44.73,44.73,0,0,0,1.53-5.78c.33-1.95.77-4.08.32-5.92a14.17,14.17,0,0,1,.32-7.27c.61-2.31,1.3-4.6,2-6.86a8.5,8.5,0,0,0,.15-5.18c-.48-1.61-2-1.9-3.37-2.36-.52-.18-1-.51-1.52-.71a43.75,43.75,0,0,0-6-2.2A33.39,33.39,0,0,0,610.83,365.26ZM484.72,313c.09,1.62.2,2.73.22,3.85a7.63,7.63,0,0,0,3.51,6.68c4.93,3.25,9.79,6.6,14.81,9.7,3.31,2,6.88,3.68,10.29,5.56a4.17,4.17,0,0,0,4.53-.1,3.56,3.56,0,0,0,1.6-3.94c-.35-2.21-.7-4.41-1-6.62A31.83,31.83,0,0,0,511,311.35a45.71,45.71,0,0,1-4.47-5.92,23.17,23.17,0,0,0-6.3-6.78c-3.32-2.36-6.21-2-8.74,1.19-1.34,1.69-2.61,3.44-4,5.05C485.23,307.36,484.12,310.12,484.72,313Zm3.74,57.63c3.17-.21,5.58-.2,7.94-.56a39.91,39.91,0,0,0,7.17-1.75c2.27-.8,2.93-2.73,1.87-4.83a18.11,18.11,0,0,1-1.66-5.4c-.79-4.9-1.54-9.78-1.22-14.76a4.65,4.65,0,0,0-2.32-4.44,82.19,82.19,0,0,0-7.51-4.19c-2.53-1.24-4.34-.47-5.91,1.85a35.79,35.79,0,0,1-4.54,5.82,54.25,54.25,0,0,1-6.25,4.77c-.95.68-1.81,1.39-1.86,2.62a66.58,66.58,0,0,0-.12,8.11,55.06,55.06,0,0,0,1.54,8.2,5.25,5.25,0,0,0,1.53,2.33,7.79,7.79,0,0,0,5.41,2.22C484.77,370.6,487,370.58,488.46,370.58ZM490.58,252a12.17,12.17,0,0,0-2.48-7.81,21,21,0,0,0-10.18-6.88,6.43,6.43,0,0,0-7.52,2.25,12.81,12.81,0,0,0-1.87,4.85c-.76,3.43-1.2,6.92-1.91,10.36-.41,1.94-1.09,3.83-1.64,5.74a21.07,21.07,0,0,0-.83,3c-.27,2,.51,3.16,2.4,3.88a20.26,20.26,0,0,1,2,.79q5.63,2.93,11.23,5.89c2.63,1.38,5.09.12,5.38-2.83a28.86,28.86,0,0,1,3.2-10.46A20,20,0,0,0,490.58,252ZM112.88,341.2c-.28.65-.51,1.14-.71,1.63a10.42,10.42,0,0,0-.38,7.49,7.32,7.32,0,0,0,5.73,5.2,9.8,9.8,0,0,0,7.34-1.54,27.28,27.28,0,0,1,8-3.05c1.62-.41,2.81-1.12,3.12-2.86a3.48,3.48,0,0,0-1.91-3.8,49.73,49.73,0,0,0-4.42-2.41,6.11,6.11,0,0,1-2.6-2.36c-1.89-2.86-3.81-5.72-5.92-8.42a15.63,15.63,0,0,0-3.92-3.46C113,325,108.86,326,106,330.16s-1.21,8.63,3.48,10.12C110.56,340.61,111.63,340.86,112.88,341.2Zm537.92,50c.12-7.36-6.59-14-12.7-15.26-2.85-.62-4.55,0-5.47,1.79a6.82,6.82,0,0,0-.44,6.23,7.31,7.31,0,0,1-.31,7.83c-1.7,2.73-.06,5.82,3,6.67a11.45,11.45,0,0,0,2.11.33c2.23.16,4.45.31,6.68.39a5.18,5.18,0,0,0,1.87-.28C649.09,397.72,650.83,395.12,650.8,391.22ZM556,358.31a47.1,47.1,0,0,0,1.77,6.65c1.22,2.9,3.11,5.4,6.29,6.47a3.68,3.68,0,0,0,2.47.17,40.83,40.83,0,0,0,6.78-4,5.4,5.4,0,0,0,2.22-5.7c-.34-1.46-.72-2.91-1-4.38-.55-2.81-.92-5.67-1.6-8.44-.73-3-2.59-3.75-5.43-2.51a6.3,6.3,0,0,0-1.48.77c-2.67,2.15-5.37,4.26-7.93,6.53A7.84,7.84,0,0,0,556,358.31Zm-78.09-26.53c-.13-7.63-3.42-11.66-10.63-14.21a6.54,6.54,0,0,0-6.18.94c-3,2.34-4.93,5-3.73,9.6a15.84,15.84,0,0,0,9.09,10.8c2.88,1.28,6,1.43,8.85-.77C477.43,336.46,477.64,334.1,477.89,331.78ZM519,345.62c-2.22.58-4.5,1-6.64,1.8a4.49,4.49,0,0,0-2.84,5,61,61,0,0,0,2.69,7.66c1.05,2.39,4,3.16,5.51,1.34a73.57,73.57,0,0,0,6.06-8.57C525.7,349.69,522.48,345.3,519,345.62Z" transform="translate(-0.48 -0.48)"/><path class="cls-1" d="M670.53,443.57a60,60,0,0,1-11.47,34.23,31.94,31.94,0,0,1-17.4,12.49c-4.24,1.2-8.52,2.12-13,1.43a16.73,16.73,0,0,0-3.58.22,54.08,54.08,0,0,1-26.33-5c-4.22-1.9-8.46-3.77-12.68-5.67a34.13,34.13,0,0,1-10.47-6.63,4.31,4.31,0,0,1-1.51-3.83,13.38,13.38,0,0,1,.9-3.69c4.66-9.93,9.84-19.56,16.63-28.24a112.18,112.18,0,0,1,26.09-24.19c5.88-3.94,12.43-6.11,19.25-7.63a45.7,45.7,0,0,1,5.39-1,12.34,12.34,0,0,1,4.7.17,39,39,0,0,1,8,3.72c2.89,1.64,4.45,4.18,6,6.84,1.85,3.09,3.9,6.06,5.58,9.24a36.49,36.49,0,0,1,3.87,14.72C670.59,441.65,670.53,442.61,670.53,443.57Z" transform="translate(-0.48 -0.48)"/><path class="cls-1" d="M317.72,359c-.53.5-1.1,1-1.69,1.56-3.08,2.66-6,5.48-9.29,7.93A40,40,0,0,1,300,372a7.33,7.33,0,0,1-2.56.5c-3.94.26-6.67-1.77-6.82-5.7a45.06,45.06,0,0,1,.89-9.74c.83-4.38,2.09-8.69,3.07-13,.23-1,1-2.13-.29-3.34l-2.8.83a22.06,22.06,0,0,1-7.77,1.17c-2.9-.18-6-2-6.66-4.89a6.15,6.15,0,0,1,1.61-5.73,14.2,14.2,0,0,1,6-3.45,10.53,10.53,0,0,0,5.62-4.64c3.28-5.58,7.94-9.76,13.21-13.36a44.42,44.42,0,0,0,3.83-2.87,30.69,30.69,0,0,1,9.88-5.29c4.46-1.53,8.9-1.33,12.75,2.2a25.78,25.78,0,0,1,4.58,5.15c1.36,2.17,2.91,4.21,4.3,6.36a5.71,5.71,0,0,0,3.37,2.52c2.08.55,4.18,1.07,6.29,1.49,2.85.56,5.39,1.51,6.71,4.39a9.54,9.54,0,0,1,.36,6.12,28.14,28.14,0,0,1-6.4,13.23,6.08,6.08,0,0,0-.78,7.42c1.3,2.18,3.7,2.16,5.05,0,1.54-2.42,3.08-4.86,4.81-7.14a9,9,0,0,1,5.21-3.62,4.8,4.8,0,0,1,6.1,4.05,20.5,20.5,0,0,1,0,5.25c-.84,6.39-2.45,12.57-5.94,18.07a19.69,19.69,0,0,1-11.8,8.81,12.12,12.12,0,0,0-4.24,2.52c-2.54,2.07-4.85,4.41-7.41,6.46a23.2,23.2,0,0,1-4.71,2.79,6.27,6.27,0,0,1-6.37-.61,20.64,20.64,0,0,1-8.67-22.35C321.29,362.53,320.42,360.32,317.72,359Z" transform="translate(-0.48 -0.48)"/><path class="cls-1" d="M140.41,277.69c.52-1,.83-1.56,1.07-2.13,1.55-3.72,5.29-4.85,8.59-2.51a21,21,0,0,1,2.48,2.25c1.61,1.6,3.41,1.58,4.9-.15.52-.61.9-1.32,1.37-2a9,9,0,0,1,1.19-1.49c2.62-2.34,5.51-2.08,7.67.77a14.69,14.69,0,0,1,1.75,3.12c.53,1.23,1.3,1.41,2.49,1.06a7.65,7.65,0,0,0,5.26-4.84,12,12,0,0,0,.74-5.75c-.68.05-1.22.07-1.74.14-3.8.55-7-.38-9.17-3.74a2.08,2.08,0,0,0-2-.91c-2.8-.09-5.6-.14-8.37-.46a7.16,7.16,0,0,1-5.63-3.19,4.82,4.82,0,0,1,2.23-7.15,8.54,8.54,0,0,1,6.37-.29c.29-2.65-.27-5.61,2.83-6.9s5.34.37,7.06,2.76c4.71-1.91,5.74-6.72,2.38-10.6a11.3,11.3,0,0,1-1.43-1.6c-1.44-2.44-3.65-2.8-6.2-2.55-3,.3-6,.61-9.08.65a9.79,9.79,0,0,1-6.72-2.09,5,5,0,0,1-.71-7.23,9.49,9.49,0,0,1,4.23-3,4,4,0,0,0,2.59-2.87c.22-.76.49-1.52.76-2.27a4.52,4.52,0,0,1,6.8-2.4,5.7,5.7,0,0,0,4.23,1c6.39-.76,12.13,1.16,17.6,4.3,6.9,3.94,11.75,9.79,15.52,16.58,4.58,8.25,1.32,17-3,21.57a8.94,8.94,0,0,0-2.15,4.13,28.47,28.47,0,0,1-2.55,6.67c-2.56,4.51-5.42,8.86-8.14,13.28-.87,1.43-1.78,2.85-2.53,4.35a44,44,0,0,1-7.15,10.16,10.82,10.82,0,0,1-5.4,3.38c-3.68.88-6.25-.89-6.7-4.66a3.83,3.83,0,0,0-.18-.58c-2,.18-4,1.1-6.15-.1s-2.38-3.27-3.35-5.11a6.4,6.4,0,0,0-5,3c-1.08,1.59-2,3.27-3.15,4.81a25.06,25.06,0,0,1-2.74,3c-2.61,2.54-5.71,1.93-8.75,1.14a3.09,3.09,0,0,1-1.62-1.64,18.69,18.69,0,0,1-1.64-4.48c-.72-3.84-1.28-7.72-1.78-11.6a8.49,8.49,0,0,1,1.43-6.15,6.67,6.67,0,0,1,3.67-2.55c2.13-.62,3.64.76,5.07,2.05C138.49,275.66,139.28,276.54,140.41,277.69Z" transform="translate(-0.48 -0.48)"/><path class="cls-1" d="M209.33,282.31c8.33-2.62,13,.38,15.72,10.08.7-.08,1.45-.14,2.19-.25s1.72-.38,2.59-.43a4.88,4.88,0,0,1,5.25,4.42,11.6,11.6,0,0,1-.53,4.7,19.34,19.34,0,0,1-6.15,8.69,5.33,5.33,0,0,0-2,3.88c-.29,2.7-.63,5.39-1.07,8.06a16.86,16.86,0,0,1-4.94,9.13,31.71,31.71,0,0,1-12,7.68,6.28,6.28,0,0,0-3.07,2.15c-1.9,2.57-4,5-5.71,7.69a17.84,17.84,0,0,1-13.37,8.69c-2.29.3-4.53.93-6.8,1.4a15.31,15.31,0,0,1-2.11.38,3.28,3.28,0,0,1-3.67-3.24,18.2,18.2,0,0,0-.42-3c-2-7.41-.15-14.08,3.89-20.28a31,31,0,0,1,6.9-6.92c2.88-2.32,4.91-5.21,3.78-9.34a58.28,58.28,0,0,1-1.31-6.57A16.9,16.9,0,0,1,188,298.69a57.65,57.65,0,0,1,3.67-6.45,10.15,10.15,0,0,0,1.8-5.59,66.33,66.33,0,0,1,1.94-14.22c.51-1.86,1.08-3.66,2.82-4.84a3.68,3.68,0,0,1,5,.18,9.15,9.15,0,0,1,2.71,4.16c.82,2.42,1.56,4.87,2.35,7.3C208.62,280.21,209,281.18,209.33,282.31Z" transform="translate(-0.48 -0.48)"/><path class="cls-1" d="M118.8,236.92a17.18,17.18,0,0,0-8.26,3.05,77.34,77.34,0,0,1-10.34,6,8.56,8.56,0,0,1-6.53.4c-2.5-.78-3.5-2.61-3.89-5-.12-.67-.15-1.36-.23-2.12a5.38,5.38,0,0,0-4,1.6c-2.86,2.31-5.66,4.7-8.63,6.86a25.5,25.5,0,0,1-5.24,2.84,5.41,5.41,0,0,1-4.86-.1c-2.78-1.53-3.64-3.64-2.52-6.62.5-1.33,1.22-2.57,1.84-3.86-1-.88-1.72-.2-2.36.31-1.07.84-2.06,1.77-3.06,2.69a5.77,5.77,0,0,1-4,1.43,3.24,3.24,0,0,1-3.47-2.95c-.1-.63-.15-1.27-.19-1.91s0-1.08,0-1.9c-1,.53-1.74,1-2.57,1.4-2.72,1.32-5.45,2.64-8.2,3.91a4.2,4.2,0,0,1-6-5.17,4.12,4.12,0,0,0,.07-.79c-1.09-.24-2.18-.38-3.22-.72-2.43-.8-3.24-2.84-2.1-5.13A13.76,13.76,0,0,1,36,226c1.7-1.16,3.51-2.15,5.39-3.29a10.3,10.3,0,0,1-.79-1.2c-1.06-2.26-1.17-4.34.62-6.43a19,19,0,0,1,11.3-6.26,78.68,78.68,0,0,1,8-1.35c3.09-.25,6.21-.13,9.31-.08a4.52,4.52,0,0,1,1.75.68,2.69,2.69,0,0,1,.7.65c2,2,4.1,3,7.19,2.14,2.63-.72,5.54-.54,8.33-.6a4.54,4.54,0,0,1,4.85,3.46,12.31,12.31,0,0,1,.72,2c.34,2.78,2.39,3.87,4.63,4.6A38.38,38.38,0,0,0,111,222a49.36,49.36,0,0,0,9.63-1.75,11.61,11.61,0,0,0,3.13-1.68c1.84-1.12,3.62-2.34,5.47-3.44,1.4-.84,2.94-1.07,4.24.09s2.64,2.63,2.28,4.74a5.77,5.77,0,0,1-.24.93c-1.61,4.34-3.1,8.72-4.89,13a14.63,14.63,0,0,1-3.15,4.47c-2.69,2.72-5.56,2.45-8-.51C119.3,237.61,119.12,237.35,118.8,236.92Z" transform="translate(-0.48 -0.48)"/><path class="cls-1" d="M161.13,428c-.51-2.74-.93-5.49-1.58-8.19a10,10,0,0,0-1.61-2.89c-1.22-1.83-1.23-2.7-.08-4.61a9.65,9.65,0,0,0,1-2.15c1.84-5.93,6.15-9.44,11.69-11.47,3.64-1.33,6.68,1,7,4.92.21,2.46.29,4.94.59,7.39a18.66,18.66,0,0,0,1,3.42,2.51,2.51,0,0,0,3,1.8,15.17,15.17,0,0,0,3.48-.8c5-1.95,9.91-4.05,14.91-5.95a30.43,30.43,0,0,1,6.64-1.82c3.38-.43,5.83,1.25,7.4,4.21q1.51,2.83,2.95,5.72a3.3,3.3,0,0,1-.57,3.78c-.91,1.11-1.85,2.21-2.7,3.37-2.66,3.68-3.26,7.56-1,11.68.87,1.62,1.7,3.26,2.63,4.84a13.86,13.86,0,0,1,.38,14,9.18,9.18,0,0,1-11.13,4.76,30,30,0,0,1-10.28-5.52,21.68,21.68,0,0,0-3.74-2.55,70.77,70.77,0,0,0-16.41-5.93c-8.56-1.75-13.7-8-13.87-16.73,0-.39,0-.79,0-1.19Z" transform="translate(-0.48 -0.48)"/><path class="cls-1" d="M233.67,456.41c.93-5.13-.9-9-5.13-12a13.05,13.05,0,0,1-5-6.25,14.52,14.52,0,0,1,1.59-13.74c3.68-5.31,9.12-8.41,15-10.65a4.73,4.73,0,0,1,3.25.16c5.23,2.35,10.83,2.62,16.38,3.21,1.19.12,2.4.11,3.57.34a12.15,12.15,0,0,1,10,9.17,8.81,8.81,0,0,1-.45,5.63c-1.34,3.67-2.95,7.24-4.24,10.93a29.27,29.27,0,0,0-1.4,6.28,5.12,5.12,0,0,0,.91,2.86,30.23,30.23,0,0,1,3.81,9.78,13.84,13.84,0,0,1,.28,3.33c-.19,3.89-1.42,5.38-5.17,6.47a19.75,19.75,0,0,1-3.27.73c-4.21.48-8.41,1.08-12.63,1.28a17.52,17.52,0,0,1-14.5-6.12,11.93,11.93,0,0,1-3.15-9C233.56,458,233.61,457.2,233.67,456.41Z" transform="translate(-0.48 -0.48)"/><path class="cls-1" d="M191.88,364.83c1.47-1.31,2.82-2.56,4.21-3.75A33.15,33.15,0,0,1,213,353a17.21,17.21,0,0,1,8.74.71c6.31,2.36,9.2,6.47,8.95,13.18a21.18,21.18,0,0,1-1.2,6.31,9.38,9.38,0,0,0-.26,5.59A56.05,56.05,0,0,1,230.86,395a34.06,34.06,0,0,1-.58,4.26,9.45,9.45,0,0,1-.75,2.27c-2.35,5-5.71,4.48-8.57,1.95a17.72,17.72,0,0,1-3-3.71c-2-3.06-5.14-3.91-8.31-4.74-.62-.16-1.5.37-2.18.72-2.61,1.38-5.16,2.87-7.8,4.2a13.24,13.24,0,0,1-6.26,1.41,9.52,9.52,0,0,1-9.16-7.08,6.88,6.88,0,0,1-.34-1.39c-.18-2.71-2-3.94-4.3-4.48a52.26,52.26,0,0,0-6.36-1c-2.11-.22-3.16-1.09-3.47-3.24a5.78,5.78,0,0,1,0-1.9c.53-2.74,1.11-5.48,1.71-8.21a4.7,4.7,0,0,1,.66-1.79c2.71-3.5,5.71-6.73,10-8.25A12.37,12.37,0,0,1,191.88,364.83Z" transform="translate(-0.48 -0.48)"/><path class="cls-1" d="M273.86,406.64c-3.4.73-6.59,1.45-9.79,2.08a27.35,27.35,0,0,1-10.24.42A16.56,16.56,0,0,1,240,394.84a42.27,42.27,0,0,1-.24-4.78,6.89,6.89,0,0,1,1.89-4.3,2.83,2.83,0,0,1,3.24-1,11.91,11.91,0,0,1,3,1.33A21,21,0,0,0,259.39,390c3.18.11,6.38,0,9.57,0a2.55,2.55,0,0,0,1.71-.61c2.65-2.88,6.15-4.21,9.66-5.58.86-.34,1.68-.82,2.51-1.23.21-.11.41-.3.61-.31,2.86-.09,5.73-.31,8.58-.16a10.66,10.66,0,0,1,4.3,1.32,3.47,3.47,0,0,0,3.83-.07c2.12-1.4,4.19-2.9,6.2-4.47a5.57,5.57,0,0,1,3.29-1.2,5.46,5.46,0,0,1,5.41,3.24c.76,1.4,1.41,2.86,2.08,4.32,1.4,3,2.82,6.09,4.14,9.17,1.21,2.85,1.87,5.76.59,8.82a7.67,7.67,0,0,1-3.14,3.81,13.68,13.68,0,0,1-8.2,2.17c-2.47-.18-4.95-.21-7.43-.32a4.8,4.8,0,0,0-4.32,2c-2.23,2.82-4.57,5.56-7,8.18-1.59,1.71-3.52,3.08-6,3.05a19.52,19.52,0,0,1-4.72-.41,5.07,5.07,0,0,1-3.62-3.54c-1-3-1.9-6.1-2.84-9.15C274.34,408.28,274.14,407.59,273.86,406.64Z" transform="translate(-0.48 -0.48)"/><path class="cls-1" d="M222,181.1a32.39,32.39,0,0,1,4.83-2.36,4.93,4.93,0,0,1,5.92,2.89,23.77,23.77,0,0,1,1.18,4.84,37,37,0,0,1,.27,3.83l2.64-1.38c4.78-2.44,9.33-1,11.65,3.79s2.39,9.87,1.15,15c-.64,2.66-2.64,4.13-5,5.09-2.88,1.17-5.82,2.22-8.76,3.22-2.3.77-2.55,1.2-2.47,3.63.13,3.58.24,7.18,0,10.75A15.16,15.16,0,0,1,229,240a35.09,35.09,0,0,1-6.13,5.66,17.1,17.1,0,0,1-6.95,2.39,3.17,3.17,0,0,1-3.73-2.89c-.44-5.19-2.72-9.62-5.25-14-1.47-2.56-2.76-5.23-4-7.91a4.78,4.78,0,0,1,1.71-6.3,19.53,19.53,0,0,0,6.16-6.59,10.57,10.57,0,0,0,.86-8.09c-1.16-4.15-2.57-8.21-3.92-12.3-1.53-4.67-.79-9.37,1.21-13.76,1.59-3.52,5.63-4.21,8.56-1.66a15.6,15.6,0,0,1,2.62,3.1A35.24,35.24,0,0,1,222,181.1Z" transform="translate(-0.48 -0.48)"/><path class="cls-1" d="M119,380.92c-1.16-1-2.25-1.91-3.3-2.87a7,7,0,0,1,.73-10.55,17.67,17.67,0,0,1,7.28-3.5,10.08,10.08,0,0,1,5.64.55l5.24,1.77c.6-1.48,1.08-2.83,1.68-4.12a10.19,10.19,0,0,1,4.49-4.78c2.28-1.25,5.92-.61,7.37,1.47a16.6,16.6,0,0,0,6,5,47,47,0,0,1,5.74,3.88c3.83,2.9,5,7.43,3.06,12-1.14,2.72-2.5,5.36-3.55,8.11a38.42,38.42,0,0,0-1.82,6.41,47.29,47.29,0,0,1-4.37,11.87,3.62,3.62,0,0,1-3.63,2.26c-2.38-.17-4.75-.47-7.12-.82-4.1-.59-8.17-1.32-12.27-1.88-3.32-.45-6.69-.54-10-1.13-7.67-1.37-11.92-8.27-9.89-15.75a9.6,9.6,0,0,1,5.34-6.39C116.71,381.91,117.8,381.45,119,380.92Z" transform="translate(-0.48 -0.48)"/><path class="cls-1" d="M264.09,278.35a57.34,57.34,0,0,0,5.91,2.41,25.34,25.34,0,0,1,9.33,4.72,18.25,18.25,0,0,1,5.44,6.59,2.81,2.81,0,0,0,2.29,1.85c1.81.25,3.62.51,5.42.82,1.4.24,2.82.48,4.19.84,4.09,1.1,4.72,6.68,2,9.42a18.35,18.35,0,0,1-7.19,5c-3.24,1.11-6.38,2.54-9.62,3.64-4.71,1.6-9.53,2.77-14.57,2.26a11.71,11.71,0,0,1-3.49-.76c-3.07-1.33-6-2.87-9.11-4.23a15.37,15.37,0,0,0-3.86-1.17c-2-.31-4.12-.36-6.18-.53A11.46,11.46,0,0,1,243,309c-2.58-.61-3.64-2.27-2.87-4.8.68-2.21,1.59-4.35,2.4-6.52.43-1.12.89-2.22,1.31-3.34a4.52,4.52,0,0,0-1-5.27,34.1,34.1,0,0,1-2.75-3.62,7.51,7.51,0,0,1,2.68-11.23,12.6,12.6,0,0,1,7.61-1.63c.31,0,.63.06,1,.07,2.54.13,3.59-.43,4.23-2.9a26.69,26.69,0,0,1,4.48-9.46,17.13,17.13,0,0,1,2.87-3.19,11.22,11.22,0,0,1,3.74-2c3.72-1.07,6.62,1.46,6,5.32a18.85,18.85,0,0,1-1.95,5.6c-1.51,2.89-3.36,5.62-5,8.46A38.1,38.1,0,0,0,264.09,278.35Z" transform="translate(-0.48 -0.48)"/><path class="cls-1" d="M405.47,442.27c-11,.1-18.38-5.21-23.42-14.31a8.29,8.29,0,0,1-.44-7.4c.74-1.85,1.57-3.67,2.36-5.5a13.73,13.73,0,0,0,.81-2c1.12-4.51.94-3.94-2-5.92a7.76,7.76,0,0,1-3.16-5.18,14.71,14.71,0,0,1-.28-4.53c.47-4,1.14-7.9,1.77-11.83a14.09,14.09,0,0,1,.67-2.3c1.39-4.16,4.74-3.79,7.31-2.28a12.33,12.33,0,0,1,3.53,3.18q3.66,4.89,6.94,10a4.51,4.51,0,0,0,3.59,2.3c3.56.45,7.09,1.19,10.64,1.75,2.6.41,5.22.69,7.81,1.12a24.14,24.14,0,0,1,4.41,1,4.49,4.49,0,0,1,2.47,6.64,32.35,32.35,0,0,1-8.72,9.77,25.46,25.46,0,0,0-3.31,3.09c-2,2.22-2,4.58,0,6.88a14.22,14.22,0,0,0,5.62,4c1.69.69,3.06,1.61,3,3.57a4.59,4.59,0,0,1-2.74,4.16C418.82,440.45,410.69,442.42,405.47,442.27Z" transform="translate(-0.48 -0.48)"/><path class="cls-1" d="M124.61,184.55a37.2,37.2,0,0,1-12.89-10.77,12.61,12.61,0,0,1-1.94-3.27c-1.3-3.52.37-6.43,4-7.18a18.87,18.87,0,0,1,3.1-.23c1,0,1.9,0,3.16,0-.25-1-.42-1.76-.63-2.5a30.64,30.64,0,0,1,0-16.1,7.51,7.51,0,0,1,.21-.94c1.42-3.79,4.61-4.54,7.45-1.68a11.27,11.27,0,0,1,2.06,2.92c1.63,3.28,3.15,6.63,4.71,10,.32.7.61,1.41,1.08,2.5a17.06,17.06,0,0,1,1.11-2.45c1-1.51,1.88-3.24,3.24-4.36,3.28-2.69,8.14-1.38,8.95,3.68a32.18,32.18,0,0,1,.05,6.21,2.89,2.89,0,0,0,.93,2.73,8.93,8.93,0,0,1,3.11,7.48c-.16,3.11-.38,6.22-.76,9.3a4,4,0,0,0,1.19,3.44,37.67,37.67,0,0,1,3.76,4.63,8,8,0,0,1,.47,8.61,70.9,70.9,0,0,1-8.17,12.38,11.09,11.09,0,0,1-2.73,2.28,4.23,4.23,0,0,1-6.41-2.3,23.08,23.08,0,0,0-1.63-3.7,12,12,0,0,0-5-4.95,10.94,10.94,0,0,1-3.39-2.95c-1.52-1.84-2.84-3.85-4.19-5.83S124,187.1,124.61,184.55Z" transform="translate(-0.48 -0.48)"/><path class="cls-1" d="M251.28,371.06a29.52,29.52,0,0,0-2-13.15,9.6,9.6,0,0,0-6.12-5.64,102.47,102.47,0,0,1-10.88-4.37,24.86,24.86,0,0,1-5.84-4.11,5.66,5.66,0,0,1,1-9.48c1.57-.91,3.33-1.5,4.95-2.33a6.53,6.53,0,0,0,2.48-1.7,38.7,38.7,0,0,0,4.12-7,7.8,7.8,0,0,1,6.65-5.06,12.22,12.22,0,0,1,10.82,3.24c2.85,2.65,5.47,5.44,6.25,9.41a23.48,23.48,0,0,1,.31,4.52,5.36,5.36,0,0,0,.82,2.91c1.88,3.23,4,6.16,7.52,7.82a38.09,38.09,0,0,0,3.93,1.73c3.64,1.27,5.48,3.41,5.53,7.22a25,25,0,0,1-.72,6.87,69.88,69.88,0,0,1-3.67,10.12,24.71,24.71,0,0,1-3.64,5,4.47,4.47,0,0,1-3.36,1.61,9.61,9.61,0,0,0-2.25.71c-2.49.84-5,1.77-7.49,2.46a6.46,6.46,0,0,1-4.68-.4,6.08,6.08,0,0,1-3.46-5.12C251.37,374.58,251.36,372.82,251.28,371.06Z" transform="translate(-0.48 -0.48)"/><path class="cls-1" d="M78.38,196c-3.41.51-6.56,1-9.72,1.43a9.57,9.57,0,0,1-2.14,0c-1.63-.16-3.35-.46-3.93-2.22-.64-1.93-.75-3.94.82-5.63s2.88-3.17,4.43-4.89c-.76-.54-1.41-1-2-1.44-2.38-1.88-4.81-3.71-7.1-5.69a9,9,0,0,1-3.18-6.24,5.74,5.74,0,0,1,1.1-4.07A22.4,22.4,0,0,1,60.79,163c2.41-1.79,5.31-1.8,8-.92,5.93,1.91,11,5.08,14.32,10.59,2.36,3.9,3.75,4.21,7.85,2,1.2-.64,2.34-1.38,3.53-2,3.34-1.84,6.38-1.19,8.61,1.91a13.4,13.4,0,0,1,1.75,3.13,12.64,12.64,0,0,0,3.62,4.94,52.91,52.91,0,0,1,5.81,6.35c2.76,3.6,5.74,7.11,7.37,11.44q1.44,3.8,2.54,7.7a3.13,3.13,0,0,1-1.92,3.73,10.65,10.65,0,0,1-2.29.7c-4.23.79-8.47,1.58-12.72,2.3-2.18.37-4.28.31-6-1.44-1.5-1.51-1.8-2.85-.78-4.72.57-1.05,1.28-2,1.75-3.12a1.73,1.73,0,0,0-1-2.67,4.12,4.12,0,0,0-1.39-.3c-3.73-.31-7.47-.61-11.21-.86a15.45,15.45,0,0,0-2.14.18,9.7,9.7,0,0,1-5.6-.84c-1.64-.9-2.58-2.09-2.39-4A5.88,5.88,0,0,0,78.38,196Z" transform="translate(-0.48 -0.48)"/><path class="cls-1" d="M78,287l-2.6,6.74a54.05,54.05,0,0,1-5.49,11.16,33.39,33.39,0,0,1-2.18,2.84c-2.65,3-7.21,2.94-9.43-1.37a20.61,20.61,0,0,1-1.93-12.57c.37-2.68.93-5.33,1.44-8.16a5.11,5.11,0,0,0-1.13.06c-5.68,1.5-9.9-1.59-10.05-7.52a28.49,28.49,0,0,1,3.62-14.23c.82-1.55,1.82-3,2.66-4.55.75-1.38,1.76-2.34,3.4-2.19a4.67,4.67,0,0,1,4.06,2.57c.55,1.17.86,2.38,2.38,2.69a5,5,0,0,0,4-1.1c2.6-1.85,5.13-3.8,7.74-5.65,6.08-4.3,6.09-4.31,13.45-4.36,3.2,0,6.39.08,9.59.09a3.78,3.78,0,0,1,3.6,1.93c.78,1.43.3,2.67-.48,4-2.4,4.09-4.34,8.35-4.07,13.29a28.29,28.29,0,0,1-.21,4.31,12.92,12.92,0,0,1-8,11,17,17,0,0,1-3.52,1.47,18.37,18.37,0,0,1-4.45.17A11.16,11.16,0,0,1,78,287Z" transform="translate(-0.48 -0.48)"/><path class="cls-1" d="M465.38,418a3.41,3.41,0,0,0-.53.42c-6.08,6.13-13.62,9.39-21.94,11a17.1,17.1,0,0,1-13.51-2.6c-2.19-1.51-3-3.79-1.86-6.2a15.29,15.29,0,0,1,1.95-3,86.11,86.11,0,0,0,9.82-13.87,7.48,7.48,0,0,1,6.56-3.77c8.69-.48,17.4-.63,26.1-.74,3.51,0,7,.3,10.52.57a12.49,12.49,0,0,0,5.66-.63,24,24,0,0,1,3.19-1,6.19,6.19,0,0,1,7.19,3,5,5,0,0,0,3.06,2.36,9.27,9.27,0,0,1,6.26,5.81c.93,2.42.17,4.36-1.41,6.13-1.07,1.19-2.25,2.27-3.26,3.49a29.16,29.16,0,0,1-5.84,4.9c-3.82,2.69-8.18,3-12.51,3a19.79,19.79,0,0,1-9.34-2.75c-2.08-1.17-4.25-2.18-6.32-3.38C467.89,419.88,466.74,418.94,465.38,418Z" transform="translate(-0.48 -0.48)"/><path class="cls-1" d="M187.41,167.46c2.37-.42,4.4-1.12,6.4-1.05,4.8.15,7.45,4.45,7.81,8.29a17.22,17.22,0,0,1-1.39,8.67,8.14,8.14,0,0,0-.15,6.42,39.77,39.77,0,0,1,2.4,14.58,22.88,22.88,0,0,1-.5,4,5.56,5.56,0,0,1-4,4.61,6,6,0,0,1-6.39-2.8c-.31-.47-.51-1-.83-1.46a4.17,4.17,0,0,0-3.58-2c-2.47,0-4.94-.14-7.41-.33-5.69-.44-9.42-3.54-11.48-8.76a11.13,11.13,0,0,1-.47-6.84,6.6,6.6,0,0,0-1.5-6.42c-1.21-1.37-2.14-2.93-3.75-4a5.75,5.75,0,0,1-2-2.59c-1.58-4.19-3-8.44-3-13a8.74,8.74,0,0,1,.14-1.91c.45-2.08,1.15-4,3.43-4.81a5.8,5.8,0,0,1,6.37,1.57,30,30,0,0,1,2.86,3.83c.45.64.78,1.37,1.46,2.6.26-1.29.41-2.08.58-2.87.53-2.42,1-4.84,1.63-7.24a7.66,7.66,0,0,1,1.22-2.58c2.8-3.74,6.71-3.52,8.86.38,1.19,2.18,1.59,4.82,2.19,7.3C186.74,163.24,187.05,165.45,187.41,167.46Z" transform="translate(-0.48 -0.48)"/><path class="cls-1" d="M299.65,429.42c.12-1.52.18-2.78.33-4,.39-3.09,1.23-6,4-7.87a2.81,2.81,0,0,1,.79-.53c3.7-1,7.37-2,11.16-.11A12.88,12.88,0,0,1,323.41,427c.22,1.34.46,2.68.61,4a22.8,22.8,0,0,0,2.2,7.55,14.74,14.74,0,0,0,1.73,2.26c1.23,1.56,2.51,3.09,3.65,4.71,1.48,2.11,1.06,4.31-.24,6.29a21.08,21.08,0,0,1-8.32,7.4,3.32,3.32,0,0,1-1.57.52c-2.59-.25-5.17.16-7.78-.62a16.07,16.07,0,0,0-11.67,1c-2.22,1-4.53,1.9-6.41,3.64s-4,1.76-5.95-.33c-4.8-5.22-9.65-10.39-12.05-17.38-1.76-5.11-.6-9.06,3.27-12.47,2.86-2.51,6-4.53,9.85-5.14a9.22,9.22,0,0,1,2.57,0C295.34,428.74,297.37,429.08,299.65,429.42Z" transform="translate(-0.48 -0.48)"/><path class="cls-1" d="M362.18,483.91c2.76,1.76,5,3.29,7.32,4.63a16.54,16.54,0,0,0,7.11,1.95c4.2.34,7.56,5.64,6.15,9.62a3.38,3.38,0,0,1-5.61,1.45c-4-3.52-10.19-4.82-15.37-3.94-6.82,1.15-13.54.73-19.67-3.07a21.13,21.13,0,0,0-3.38-1.81,10.7,10.7,0,0,0-6.29-.78,46.89,46.89,0,0,1-15.5.66c-3-.39-5.61-1.8-8.28-3-3.82-1.76-6.94-4.57-10.12-7.24a13.53,13.53,0,0,1-3-4c-1.05-2-.18-3.91,1.2-5.26a24.4,24.4,0,0,1,8.43-5.81,10.11,10.11,0,0,1,7.28-.24,55.42,55.42,0,0,1,7.68,3.2c3.47,2,7.5,2.57,11.2.34a19.78,19.78,0,0,1,12-2.63,7.42,7.42,0,0,1,4.44,1.61A26.83,26.83,0,0,0,359.31,475a53.59,53.59,0,0,0,8,1.43,3.66,3.66,0,0,1,3.56,3.72c-.13,2-1.7,3.11-4.09,3.12-1,0-2.07.07-3.11.15A10.77,10.77,0,0,0,362.18,483.91Z" transform="translate(-0.48 -0.48)"/><path class="cls-1" d="M351.75,408.89a30.5,30.5,0,0,0-2.67,10.66c-.38,4.2-.58,8.44-.57,12.66a9.21,9.21,0,0,1-4.18,8.16c-2.45,1.64-6.39,2-7.92-1.7-1.82-4.42-3.38-9-4.78-13.53a34.37,34.37,0,0,1-1.34-7.75c-.34-5.19.12-10.18,4-14.29,3.24-3.43,6.22-7.09,9.35-10.62a44.12,44.12,0,0,1,12.34-9.4c1.54-.84,3-1.8,4.56-2.64a15.92,15.92,0,0,1,3-1.41,5.32,5.32,0,0,1,6.63,2.84,4.3,4.3,0,0,1,.3,2.53c-.42,2.28-1,4.51-1.57,6.76A10.5,10.5,0,0,0,372,401.9c2.89,2.55,3.27,5.34,2.62,8.58-.79,3.92-1.86,7.77-2.79,11.66-.43,1.78-.82,3.58-1.24,5.36a3.35,3.35,0,0,1-5.36,2.17,7.5,7.5,0,0,1-1.61-1.42c-4.5-5.14-8.44-10.63-10.74-17.14A19.9,19.9,0,0,0,351.75,408.89Z" transform="translate(-0.48 -0.48)"/><path class="cls-1" d="M140.35,310.42c.87-1.1,1.5-2,2.26-2.83a37.78,37.78,0,0,1,4.44-4.33c3.75-2.8,8-1.67,9.85,2.62a31.9,31.9,0,0,1,1.47,5.77,20.18,20.18,0,0,1,.18,2.68c1.17,0,1.56-.86,2.08-1.46a26.62,26.62,0,0,1,6.93-5.84,4.33,4.33,0,0,1,5.31.39,8.36,8.36,0,0,1,3.16,8.52,13.11,13.11,0,0,1-4.16,7.91,24.56,24.56,0,0,0-8.24,16.79c-.32,3.66-.71,7.31-1.08,11a9.69,9.69,0,0,1-.19,1.42,3.25,3.25,0,0,1-4.67,2.26,18.58,18.58,0,0,1-5.25-3.68c-1.56-1.47-3.32-2.72-5-4.07a11.6,11.6,0,0,1-2.17-1.87c-2.56-3.63-5.36-7.08-6.68-11.51-.71-2.36-2.39-4.49-3.9-6.52-.59-.8-1.88-1.1-2.88-1.56-2.17-1-4.43-1.82-6.5-3a11.3,11.3,0,0,1-4.75-5.56,8.67,8.67,0,0,1,2.4-9.82,8.89,8.89,0,0,1,10.26-1.1c1.54.84,3,1.79,4.56,2.65C138.55,309.68,139.37,310,140.35,310.42Z" transform="translate(-0.48 -0.48)"/><path class="cls-1" d="M454.48,268c2.41-.41,4.39.94,5.85,3.12a9.79,9.79,0,0,0,3.23,2.78c1.75,1.1,3.4,2.39,5.18,3.45,4.79,2.87,9.69,5.56,14.41,8.52a10.21,10.21,0,0,1,4.21,5.67,3.34,3.34,0,0,1-1.07,3.47q-5.35,5.65-10.68,11.34A8.84,8.84,0,0,1,471,309.1a23.14,23.14,0,0,1-8,.64,16.41,16.41,0,0,0-9.27,1.89c-1.55.78-3,1.71-4.5,2.64a3.29,3.29,0,0,1-4,0,11.4,11.4,0,0,1-3-3.05c-2.75-4.86-5.38-9.8-7.94-14.77a5.44,5.44,0,0,1,.5-5.5,54.45,54.45,0,0,0,7.35-17.1,5.52,5.52,0,0,1,3.25-3.63A22,22,0,0,1,454.48,268Z" transform="translate(-0.48 -0.48)"/><path class="cls-1" d="M564.56,425.49c-.07,2.13,1.94,5.13,3.82,5.63a3.23,3.23,0,0,0,1.58-.27c2.91-.87,4.09-.36,5.45,2.25.59,1.12,1.39,2.13,2.07,3.21,3.16,5,2,6.54-.34,10.08a31.79,31.79,0,0,0-3.63,7.75c-1,3-1.83,6.12-2.91,9.12-.79,2.18-1.76,4.31-4,5.55a5.3,5.3,0,0,1-5.23.26C552,464.68,546,457.28,543.24,447.4c-1.24-4.43-2.87-8.82-2.92-13.55a26.24,26.24,0,0,1,1.43-10.14,14.58,14.58,0,0,0,.49-2.1,8.7,8.7,0,0,1,.58-2.31c1.88-3.33,3.8-6.64,5.82-9.88a5.48,5.48,0,0,1,3.53-2.32c2-.47,3.23-.07,4.3,1.68,1.74,2.85,3.38,5.78,5.06,8.68.6,1,1.23,2.05,1.82,3.09A7.65,7.65,0,0,1,564.56,425.49Z" transform="translate(-0.48 -0.48)"/><path class="cls-1" d="M248.47,222c.91-1.3,1.7-2.49,2.55-3.63a33.13,33.13,0,0,1,3.12-3.92c2.71-2.66,5.87-2.37,7.92.72a13.4,13.4,0,0,1,1.44,13.21c-.25.59-.61,1.12-1,1.91.58.53,1.21,1.1,1.83,1.69,2.35,2.18,3,5,2.91,8a5.71,5.71,0,0,1-3.79,5.35c-2.67,1-5.46,1.74-8.2,2.59-.68.21-1.34.44-2.19.72a8.15,8.15,0,0,0,.71,1.05c2.06,2.09,2.24,4-.41,6.93a18.25,18.25,0,0,1-5.4,3.9c-4.06,2-8.08,4.23-12.61,5.16-1.74.36-2.33,1.86-2.78,3.31a24.35,24.35,0,0,0-.62,3.53c-.08.55-.06,1.12-.15,1.67-.32,1.8-.83,3.46-3,3.88a5.11,5.11,0,0,1-4.86-2.46c-1.94-3.65-5.34-5.71-8.68-7.61a9.12,9.12,0,0,1-4.41-5.94,5.47,5.47,0,0,1,5-6.78,11.83,11.83,0,0,1,2.38,0,10,10,0,0,0,9.17-3.64,16.69,16.69,0,0,0,1.77-2.27,8.38,8.38,0,0,1,6.26-3.93,7.17,7.17,0,0,0,6.12-5.63,37.91,37.91,0,0,0,.81-4,8.06,8.06,0,0,0-1-5.27,9.59,9.59,0,0,1-1.21-4.53C240.19,222.26,244.12,219.29,248.47,222Z" transform="translate(-0.48 -0.48)"/><path class="cls-1" d="M375.22,365.53a28.34,28.34,0,0,1,.53-3.06q3.21-11.54,6.49-23a17.39,17.39,0,0,1,1.29-3.09c2.29-4.5,7.2-4.69,10.44-2.64a12.69,12.69,0,0,1,4.51,5.18,34.25,34.25,0,0,1,3.23,10.49,8.2,8.2,0,0,0,1.5,3.71c2.61,3.63,5.61,6.76,9.94,8.36,2.18.8,3.33,2.79,4.42,4.57a92.18,92.18,0,0,1,6.08,11.39c1,2.36,1.12,5.1,1.62,7.68a25.42,25.42,0,0,1,.37,2.6c.22,2.84-1.87,4.56-4.6,3.79-5-1.41-9.46-3.83-14-6.21-1.18-.63-2-2-2.86-3.12a8,8,0,0,1-.94-1.93c-1.72-4.25-5.13-6.35-9.39-7.37a31.27,31.27,0,0,0-11.66-.65C378.07,372.77,375,370,375.22,365.53Z" transform="translate(-0.48 -0.48)"/><path class="cls-1" d="M226.3,473.36a24.23,24.23,0,0,1,13.68,3.9c6.48,4.16,13.56,5.3,21.1,4.56a43,43,0,0,0,8.85-2c2.59-.81,5.19-1.59,7.77-2.42,3.67-1.18,6.62.12,9,2.79a40.12,40.12,0,0,1,4.14,5.56c1.65,2.67.83,4.89-2.25,5.67a23.14,23.14,0,0,1-6.38.57c-2.87-.09-5.72-.51-8.57-.85-3-.35-6-.7-9-1.19a7,7,0,0,0-4.38.64c-6.84,3.23-14,4.9-21.62,4a7.71,7.71,0,0,0-3.06.27c-3,.93-6.09,1.93-9.09,3a49.51,49.51,0,0,1-14.73,2.89,11.35,11.35,0,0,1-6-1.2,5.84,5.84,0,0,1-3.18-5A17.79,17.79,0,0,1,208,479.8c3.3-3.42,7.54-4.31,11.72-5.48A48.42,48.42,0,0,1,226.3,473.36Z" transform="translate(-0.48 -0.48)"/><path class="cls-1" d="M365.68,312.55c-4.09,0-7.84.09-11.58,0a13.76,13.76,0,0,1-6.84-2,6.58,6.58,0,0,1-1.5-1.17c-2.14-2.49-2.11-5.51.4-7.67,4-3.43,8.43-6,13.95-6.17,4.05-.14,8.21-.13,11.79-2.52a55.07,55.07,0,0,0,5.38-3.95A29.31,29.31,0,0,0,381,285c2.42-3.06,5.59-5.25,8.56-7.66a7.83,7.83,0,0,1,5.66-1.52,2.9,2.9,0,0,1,2.74,4,9.06,9.06,0,0,1-1.15,2.36,19.18,19.18,0,0,0-3.22,12c.21,4.34.13,8.65-1.45,12.78a17.88,17.88,0,0,1-1.59,3.47c-3.05,4.6-6.25,9.12-10.38,12.83a29.68,29.68,0,0,1-5.81,4.17c-4.05,2.15-8.19.24-9.8-4a11,11,0,0,1,.27-8.83C365.11,314.08,365.31,313.48,365.68,312.55Z" transform="translate(-0.48 -0.48)"/><path class="cls-1" d="M599,407.27q-.18,3.24-.35,6.46a6.13,6.13,0,0,0,0,1.91c.81,2.82-.66,4.78-2.41,6.6-1.49,1.56-3.1,3-4.63,4.51a35.39,35.39,0,0,0-2.42,2.63c-1.67,2.06-4.07,2.08-5.64-.05-1.71-2.3-3.28-4.6-3.8-7.59-.56-3.18-1.62-3.75-4.85-3.58-3.53.17-5.1-.88-5.67-4.41-.83-5.18-3.84-9-7.34-12.53-1.46-1.48-3.14-2.76-4.49-4.33a11.23,11.23,0,0,1-2-3.72,3.46,3.46,0,0,1,.31-2.51,71.94,71.94,0,0,1,4.19-6.68,14.49,14.49,0,0,1,3.12-2.93c1.54-1.14,3.21-2.11,4.82-3.14a3.45,3.45,0,0,1,.41-.25c4.21-2.37,8.53.13,8.49,5,0,1.78.78,3.08,1.59,4.6,2.14,4,5.63,4.85,9.63,4.92,1.2,0,2.41,0,3.6.05a18.08,18.08,0,0,1,2.84.36c2.6.58,4.36,1.94,4.35,4.87,0,3.28,0,6.55,0,9.82Z" transform="translate(-0.48 -0.48)"/><path class="cls-1" d="M146,452c-5,0-8.92-2.74-13.24-4.33a5.39,5.39,0,0,1-3.13-3.46,13.07,13.07,0,0,1,.28-10.05c.77-1.64,1.62-3.24,2.45-4.9-2-1-3.92-1.87-5.83-2.84a7,7,0,0,1-2.31-10.58,6,6,0,0,1,4.6-2.19,12.88,12.88,0,0,1,8.39,2.35,18.48,18.48,0,0,0,8.48,3,11.48,11.48,0,0,1,2.54.67,4.41,4.41,0,0,1,3.09,3.85c.58,3.63,1.41,7.21,2.2,10.8a11.91,11.91,0,0,0,1,3.17c1.39,2.6,2.9,5.15,4.44,7.67a5.22,5.22,0,0,0,1.68,1.66,42.12,42.12,0,0,1,9.11,7.34c1.34,1.47,2.93,2.71,4.35,4.11a8.55,8.55,0,0,1,2.35,4.61c.45,2.33-.53,4.1-2.84,4.41-3.4.46-6.87.85-10.25,0a42.21,42.21,0,0,1-7.51-2.43,17.14,17.14,0,0,1-9.38-10.94C146.36,453.37,146.23,452.83,146,452Z" transform="translate(-0.48 -0.48)"/><path class="cls-1" d="M459.16,370.69c-6.25-.79-12.54-1.4-18.75-2.43-5.62-.93-10.36-4.05-15.13-7-1.15-.71-2.28-1.46-3.43-2.18a3.4,3.4,0,0,1-1.5-4.52,7.57,7.57,0,0,1,3.23-4,54.84,54.84,0,0,1,4.86-2.56c1.22-.58,2.54-1,3.77-1.55,3.6-1.67,4.47-3.4,3.55-8a19,19,0,0,0-1.09-2.91,30.76,30.76,0,0,1-2.28-9.25c-.09-1.64.19-3.07,1.76-3.88s2.87-.35,4.21.65,3.1,2,4.62,3c3.2,2.2,6,4.75,7.37,8.54.6,1.65,1.42,3.23,1.92,4.9,1.18,3.9,4.27,6,7.37,8.12,1.77,1.21,3.65,2.26,5.46,3.44,1.42.92,1.66,2.51,1.88,4,.44,3,.67,6,1.07,9a3.84,3.84,0,0,1-2.17,4.36C463.77,369.51,461.8,371.05,459.16,370.69Z" transform="translate(-0.48 -0.48)"/><path class="cls-1" d="M437.58,259.3a31.49,31.49,0,0,1-3.47,13.62c-2.23,4.5-4.65,8.92-7,13.37-.4.77-.77,1.56-1.19,2.33a3.27,3.27,0,0,1-5.43.82c-3.46-3.95-7.79-7.13-10.33-11.9a6.64,6.64,0,0,0-1.63-1.72,6.34,6.34,0,0,1-2.25-5.54,29.12,29.12,0,0,1,.41-4.29c1.39-6.3,2.63-12.65,5.06-18.69,1.36-3.38,3-6.51,6.07-8.7a26.33,26.33,0,0,0,2.34-2.38,7.51,7.51,0,0,1,10-.4,16,16,0,0,1,5.85,10.41C436.75,250.56,437.09,254.94,437.58,259.3Z" transform="translate(-0.48 -0.48)"/><path class="cls-1" d="M427.57,310.45c-.47,2.83-.93,5.66-1.4,8.49-.82,4.87-1.86,9.71-1.89,14.69,0,3.8-1.31,7-4.6,9.23-1.52,1-2.94,2.21-4.53,3.07a3.1,3.1,0,0,1-4.3-.79,29.27,29.27,0,0,1-5.83-9,27.3,27.3,0,0,1-1-4.88A19.38,19.38,0,0,0,399.14,321a9.13,9.13,0,0,1-2.54-5.28,4.36,4.36,0,0,1,.66-3.19,16.77,16.77,0,0,0,2.61-8.82c.25-4,.56-8,.9-11.94a11.24,11.24,0,0,1,.54-2.33,4.42,4.42,0,0,1,4.53-3.53,3.46,3.46,0,0,1,3.14,1.37c2,2.56,3.86,5.34,6.21,7.57a48.21,48.21,0,0,0,7.42,5.22,9.8,9.8,0,0,1,4.64,7.43,22.9,22.9,0,0,1,0,2.87Z" transform="translate(-0.48 -0.48)"/><path class="cls-1" d="M610.83,365.26a33.39,33.39,0,0,1,5.42.51,43.75,43.75,0,0,1,6,2.2c.52.2,1,.53,1.52.71,1.36.46,2.89.75,3.37,2.36a8.5,8.5,0,0,1-.15,5.18c-.74,2.26-1.43,4.55-2,6.86a14.17,14.17,0,0,0-.32,7.27c.45,1.84,0,4-.32,5.92a44.73,44.73,0,0,1-1.53,5.78,7.28,7.28,0,0,1-3.38,4.19,21.7,21.7,0,0,1-9.25,3.06c-3.12.31-5.12-1.59-5.33-4.74a13.68,13.68,0,0,1,1.91-7.55c1.26-2.32,1.17-2.42-.83-4.16-1.44-1.26-2.76-2.65-4.13-4a6.09,6.09,0,0,0-3.86-1.63,84.79,84.79,0,0,1-9.39-1.44,6.18,6.18,0,0,1-4.63-4.43c-.55-1.66-1.22-3.28-1.81-4.93-.79-2.22.5-3.81,2-5a18,18,0,0,1,4.66-2.34c1.39-.56,2.92-.77,4.34-1.29C598.51,365.87,604.12,365.29,610.83,365.26Z" transform="translate(-0.48 -0.48)"/><path class="cls-1" d="M484.72,313c-.6-2.83.51-5.59,2.71-8.06,1.43-1.61,2.7-3.36,4-5.05,2.53-3.19,5.42-3.55,8.74-1.19a23.17,23.17,0,0,1,6.3,6.78,45.71,45.71,0,0,0,4.47,5.92,31.83,31.83,0,0,1,7.67,16.73c.33,2.21.68,4.41,1,6.62a3.56,3.56,0,0,1-1.6,3.94,4.17,4.17,0,0,1-4.53.1c-3.41-1.88-7-3.52-10.29-5.56-5-3.1-9.88-6.45-14.81-9.7a7.63,7.63,0,0,1-3.51-6.68C484.92,315.68,484.81,314.57,484.72,313Z" transform="translate(-0.48 -0.48)"/><path class="cls-1" d="M488.46,370.58c-1.46,0-3.69,0-5.93,0a7.79,7.79,0,0,1-5.41-2.22,5.25,5.25,0,0,1-1.53-2.33,55.06,55.06,0,0,1-1.54-8.2,66.58,66.58,0,0,1,.12-8.11c.05-1.23.91-1.94,1.86-2.62a54.25,54.25,0,0,0,6.25-4.77,35.79,35.79,0,0,0,4.54-5.82c1.57-2.32,3.38-3.09,5.91-1.85a82.19,82.19,0,0,1,7.51,4.19,4.65,4.65,0,0,1,2.32,4.44c-.32,5,.43,9.86,1.22,14.76a18.11,18.11,0,0,0,1.66,5.4c1.06,2.1.4,4-1.87,4.83A39.91,39.91,0,0,1,496.4,370C494,370.38,491.63,370.37,488.46,370.58Z" transform="translate(-0.48 -0.48)"/><path class="cls-1" d="M490.58,252a20,20,0,0,1-2.22,8.77,28.86,28.86,0,0,0-3.2,10.46c-.29,2.95-2.75,4.21-5.38,2.83q-5.61-3-11.23-5.89a20.26,20.26,0,0,0-2-.79c-1.89-.72-2.67-1.89-2.4-3.88a21.07,21.07,0,0,1,.83-3c.55-1.91,1.23-3.8,1.64-5.74.71-3.44,1.15-6.93,1.91-10.36a12.81,12.81,0,0,1,1.87-4.85,6.43,6.43,0,0,1,7.52-2.25,21,21,0,0,1,10.18,6.88A12.17,12.17,0,0,1,490.58,252Z" transform="translate(-0.48 -0.48)"/><path class="cls-1" d="M112.88,341.2c-1.25-.34-2.32-.59-3.36-.92-4.69-1.49-6.23-6-3.48-10.12s6.93-5.2,11.18-2.54a15.63,15.63,0,0,1,3.92,3.46c2.11,2.7,4,5.56,5.92,8.42a6.11,6.11,0,0,0,2.6,2.36,49.73,49.73,0,0,1,4.42,2.41,3.48,3.48,0,0,1,1.91,3.8c-.31,1.74-1.5,2.45-3.12,2.86a27.28,27.28,0,0,0-8,3.05,9.8,9.8,0,0,1-7.34,1.54,7.32,7.32,0,0,1-5.73-5.2,10.42,10.42,0,0,1,.38-7.49C112.37,342.34,112.6,341.85,112.88,341.2Z" transform="translate(-0.48 -0.48)"/><path class="cls-1" d="M650.8,391.22c0,3.9-1.71,6.5-5.21,7.7a5.18,5.18,0,0,1-1.87.28c-2.23-.08-4.45-.23-6.68-.39a11.45,11.45,0,0,1-2.11-.33c-3.11-.85-4.75-3.94-3-6.67a7.31,7.31,0,0,0,.31-7.83,6.82,6.82,0,0,1,.44-6.23c.92-1.83,2.62-2.41,5.47-1.79C644.21,377.27,650.92,383.86,650.8,391.22Z" transform="translate(-0.48 -0.48)"/><path class="cls-1" d="M556,358.31a7.84,7.84,0,0,1,2.09-4.39c2.56-2.27,5.26-4.38,7.93-6.53a6.3,6.3,0,0,1,1.48-.77c2.84-1.24,4.7-.48,5.43,2.51.68,2.77,1.05,5.63,1.6,8.44.28,1.47.66,2.92,1,4.38a5.4,5.4,0,0,1-2.22,5.7,40.83,40.83,0,0,1-6.78,4,3.68,3.68,0,0,1-2.47-.17c-3.18-1.07-5.07-3.57-6.29-6.47A47.1,47.1,0,0,1,556,358.31Z" transform="translate(-0.48 -0.48)"/><path class="cls-1" d="M477.89,331.78c-.25,2.32-.46,4.68-2.6,6.36-2.82,2.2-6,2.05-8.85.77a15.84,15.84,0,0,1-9.09-10.8c-1.2-4.59.71-7.26,3.73-9.6a6.54,6.54,0,0,1,6.18-.94C474.47,320.12,477.76,324.15,477.89,331.78Z" transform="translate(-0.48 -0.48)"/><path class="cls-1" d="M519,345.62c3.53-.32,6.75,4.07,4.78,7.25a73.57,73.57,0,0,1-6.06,8.57c-1.53,1.82-4.46,1.05-5.51-1.34a61,61,0,0,1-2.69-7.66,4.49,4.49,0,0,1,2.84-5C514.45,346.63,516.73,346.2,519,345.62Z" transform="translate(-0.48 -0.48)"/></svg>