<svg id="Layer_1" data-name="Layer 1" xmlns="http://www.w3.org/2000/svg" viewBox="0 0 720 612"><defs><style>.cls-1{fill:none;stroke:#000;stroke-miterlimit:10;stroke-width:0.01px;}</style></defs><path d="M.48,612.48V.48h720v612Zm440-280.07a8.8,8.8,0,0,1-.66-2.12,30.21,30.21,0,0,1,.25-5.47c.93-5.19,2-10.36,2-15.67,0-2.24-1.08-3.7-3-4a3.66,3.66,0,0,0-4.22,3,11,11,0,0,0-.36,2.85,28,28,0,0,1-4.21,15.54c-3.15,5.23-4.13,11.22-6.55,16.69a3.71,3.71,0,0,0,1,4.57,12.32,12.32,0,0,1,3.38,5.17c1.06,2.84,2,5.73,2.92,8.6.61,1.82,1.12,3.68,1.88,5.43a4.51,4.51,0,0,0,1.89,2c2.08,1.06,4.31-.09,4.95-2.57.72-2.78,1.24-5.62,1.85-8.43,1.59-7.27,4-14.13,9.12-19.8,2.93-3.28,5.81-6.61,8.72-9.91a8.88,8.88,0,0,1,1.08-.94c2-1.63,4-3.16,5.91-4.9a50.72,50.72,0,0,1,8.34-6c3.15-1.91,6.33-3.78,9.31-5.92a39.9,39.9,0,0,0,13.69-16.36,92.34,92.34,0,0,0,4.07-12,42.06,42.06,0,0,0,1.36-11.15,104.76,104.76,0,0,1,.66-11.48c.72-6.28,1.72-12.51,2.52-18.78a116.9,116.9,0,0,1,7-28.56c2.23-5.64,4.78-11.16,7.39-16.64,1.22-2.56,0-5.42-2.92-5.68a20.55,20.55,0,0,0-7.38.23,12.05,12.05,0,0,0-3.4,1.61c-5.79,3.87-9.11,9.5-11.27,15.95-3,8.91-2.4,18-1.08,27.07.95,6.53,1.65,13,.72,19.56a44.22,44.22,0,0,1-1.2,6.82,99.75,99.75,0,0,1-3.55,9.41c-3.31,7.89-7.65,15.07-14,21a119.67,119.67,0,0,0-15,17.16,175.65,175.65,0,0,1-19,22.16A17.53,17.53,0,0,1,440.43,332.41Zm-71.24-1.84c0,2.63-.14,4.56,0,6.46a29.53,29.53,0,0,0,3.71,12.75c2.4,4.07,5.84,4.48,9.87,3.87a7.51,7.51,0,0,0,.93-.25c5.83-1.66,11.76-3,17.48-5.06a100.79,100.79,0,0,0,12.81-5.9c2.23-1.15,4-2.95,4-5.82,0-2,.45-4,.46-6a30.47,30.47,0,0,1,5.93-17.45c3.23-4.58,4.58-9.6,5.19-15s1.24-11,1.74-16.45c.45-4.93.79-9.87,1.07-14.82a3.47,3.47,0,0,0-2.89-3.82c-1.75-.3-3.26.74-3.93,2.73-.15.45-.24.93-.38,1.39a51.36,51.36,0,0,1-2.07,6.62c-1.85,4.06-3.9,8.05-6.05,12a36.44,36.44,0,0,1-3.75,5.26c-.94,1.15-1.57,1.08-2.45-.14a32.86,32.86,0,0,1-2.59-4c-1.9-3.6-4.11-7.11-5.45-10.91-2.44-6.95-3.48-14.28-4.46-21.56a72.23,72.23,0,0,1-.21-9.08,3.67,3.67,0,0,0-2.85-3.9,3.48,3.48,0,0,0-4.09,2.49,16.73,16.73,0,0,0-.73,2.78A69.69,69.69,0,0,0,390,268.7a92.59,92.59,0,0,0,7.66,26.13,14.23,14.23,0,0,1,1.58,7.42c-.24,2.46-.61,4.92-1.09,7.35-1.35,6.75-4.42,12.82-7.86,18.7a32.66,32.66,0,0,1-3.69,5c-1.29,1.47-2.22,1.55-3.4.12a41.92,41.92,0,0,1-5.28-7.35c-1.81-3.52-3-7.36-4.53-11-1.39-3.31-2.86-6.6-4.38-9.85a3.3,3.3,0,0,0-4.25-1.72,3.25,3.25,0,0,0-1.94,4.12,34.54,34.54,0,0,0,1.8,4.43C367.5,318.11,370.23,324.24,369.19,330.57Zm-30.82.14a18.91,18.91,0,0,1-3.33-6.42c-1.39-4.56-1.5-9.3-2-14-.35-3.58-.47-7.18-1-10.74a36.22,36.22,0,0,0-4.72-13.72c-3.49-5.91-6.84-11.92-10.08-18a17.36,17.36,0,0,1-2-5.86c-.43-3.39-.4-6.84-.55-10.27,0-1,.08-2.09-.05-3.11a3.67,3.67,0,0,0-3.31-3.27,3.49,3.49,0,0,0-3.56,2.63c-.1.3-.13.63-.23.93a72.41,72.41,0,0,0-3.19,16.93,56.41,56.41,0,0,0,.6,16.25,70.63,70.63,0,0,0,11.05,24.81,32.6,32.6,0,0,1,4.22,8.55,82,82,0,0,1,3.19,19.35,43.1,43.1,0,0,1-1,12.86c-.74,3.16.09,4.66,3.14,5.59a9.47,9.47,0,0,0,2.34.49c5.26.31,10.52.72,15.78.79,4.55.05,9.11-.31,13.67-.48,2.3-.08,3.36-.89,3.85-3.13a21.37,21.37,0,0,0,.5-3.55c.39-9.94-.73-19.61-4.65-28.87A52.85,52.85,0,0,1,353,304.3c-.69-5.73-1-11.31,1.9-16.59a3.24,3.24,0,0,0,.3-.91,3.37,3.37,0,0,0-3.74-4.26,4.06,4.06,0,0,0-3,1.72c-1.78,2.24-2.53,4.94-3.59,7.53-2.29,5.58-2.52,11.32-1.85,17.2a21,21,0,0,1-.64,9.24c-1.21,3.64-2.18,7.35-3.29,11A9.56,9.56,0,0,1,338.37,330.71ZM178.48,278.94a5,5,0,0,1-.64-.8c-2.16-4.54-4.32-9.08-6.44-13.65-1.31-2.82-2.51-5.7-3.85-8.51a3.1,3.1,0,0,0-3.62-1.7,3.58,3.58,0,0,0-3.06,2.69c-.74,2.78-1.35,5.58-2.08,8.36a5.66,5.66,0,0,0,.88,5c2.67,3.88,5.31,7.79,7.72,11.83,2.92,4.91,5.07,10.14,5.43,15.95a45.54,45.54,0,0,0,.52,5.49,26.92,26.92,0,0,0,1.55,5.76c2.28,5.21,6.2,9.06,10.83,12.21,2.85,1.93,6.12.33,6.44-3.1.13-1.36.17-2.72.21-4.07a44.41,44.41,0,0,1,4.39-18.51,52.73,52.73,0,0,0,4.59-14.33c.56-3.15,1.07-6.31.37-9.52s-1.2-6.27-2.09-9.33a42,42,0,0,1-2-14.39,79.55,79.55,0,0,0-.28-8.86c-.21-3.91-.45-7.82-.75-11.73-.2-2.69-1.95-4.12-4.25-3.61-1.55.35-2.48,1.49-2.69,3.54-.43,4.21-.78,8.43-1.2,12.64-.11,1.14,0,2.43-1.39,3.07a48.16,48.16,0,0,1-7.31-8.92c-3-4.6-4.27-9.77-5.58-15-1.19-4.72-2-9.55-4.28-13.94a18.79,18.79,0,0,0-1.64-2.91,3.2,3.2,0,0,0-3.63-1.21,3.24,3.24,0,0,0-2.45,3.17,13.69,13.69,0,0,0,.18,2.63c.51,3.39,1.1,6.78,1.6,10.18.28,2,.47,4,.63,6,.22,2.54.29,5.1.56,7.64a49.58,49.58,0,0,0,7,20.95c1.79,2.93,3.5,5.92,5.08,9a28.09,28.09,0,0,1,2.77,15.6A2.56,2.56,0,0,1,178.48,278.94Zm104.24,74.25c-1-1.37-1-1.37-.75-2.64.34-2,.79-3.93,1-5.91.56-4.76,1.44-9.53,1.41-14.3,0-6.77-.71-13.55-1.31-20.31a62.8,62.8,0,0,0-1.68-10.4c-1.65-6.25-3.66-12.41-5.53-18.61a9.84,9.84,0,0,0-.6-1.56,3.4,3.4,0,0,0-6.43,2.14,16.9,16.9,0,0,0,.58,2.08c2.77,8.68,5.43,17.38,6.32,26.52,1.08,11.15.91,22.19-2.26,33-.34,1.15-.56,2.33-.86,3.49-2,7.73-3.67,15.54-6.76,23-2.11,5.05-3.33,10.38-2.27,15.91a81.11,81.11,0,0,0,2.26,8.8,3.07,3.07,0,0,0,3.38,2.15,3.39,3.39,0,0,0,3-2.34c.44-1,.89-2,1.4-3,4.24-8.12,10.66-14.32,17.65-20,5.21-4.24,10.5-8.34,15.36-13A28.57,28.57,0,0,0,315,341.8a9.36,9.36,0,0,0,0-3.08c-1.78-10.17-6.44-19-12.75-27-1.43-1.82-2.65-3.79-4-5.65a10.16,10.16,0,0,0-2.06-2.27,3.69,3.69,0,0,0-4.48,0,3.65,3.65,0,0,0-1.54,4c1.42,10.43,2,20.85-.77,31.18-.85,3.16-1.46,6.4-2.44,9.52C286.25,350.55,285.19,352.58,282.72,353.19Zm198-163.71c-1.91.16-4.14.36-6.37.51a7.15,7.15,0,0,0-5.86,3.66,93.65,93.65,0,0,0-5.13,9.46,18.28,18.28,0,0,0-1.51,10.5,91.68,91.68,0,0,1,.32,18.44,33.16,33.16,0,0,1-3.22,13.19c-2.2,4.35-4.43,8.69-6.56,13.07a40.63,40.63,0,0,0-1.74,4.45,83.45,83.45,0,0,0-4.08,18.94c-.69,6.36-.5,12.61,2.27,18.56.7,1.51,1.66,2.58,3.4,2.55s2.71-1.08,3.31-2.66A39.57,39.57,0,0,1,468.7,282.8c6-4.63,10.4-10.34,12.33-17.76,1.38-5.27,1.79-10.6-.24-15.79a69.14,69.14,0,0,1-4.6-31,27.2,27.2,0,0,1,3.49-12.09,62.19,62.19,0,0,1,7.88-10.55,3.6,3.6,0,0,0,.94-4,3.28,3.28,0,0,0-3.42-2.13C483.72,189.5,482.36,189.48,480.68,189.48Zm-54.91,22.84.53-.36a36.76,36.76,0,0,1,6.45,5.87c4.46,5.6,8.2,11.63,9.82,18.74q.72,3.17,1.48,6.3a9.19,9.19,0,0,0,.66,2,3.15,3.15,0,0,0,3.15,1.78,2.89,2.89,0,0,0,2.8-1.92c1.16-3.64,2.85-7.12,3-11.06.15-4.31.54-8.62.76-12.93.47-9.44-2.27-17.95-7.46-25.77a4.22,4.22,0,0,0-4-2.09c-7.67.4-15.34.77-23,1.23-5.18.31-10.35.8-15.53,1.14a3.57,3.57,0,0,0-3.32,2,3.38,3.38,0,0,0,.57,3.8c1.15,1.43,2.35,2.84,3.35,4.37a22.1,22.1,0,0,1,4.06,10.12A48.62,48.62,0,0,1,407.39,234c-.54,1.83-.91,3.71-1.3,5.59-1,4.85-.49,9.7.07,14.55A63.3,63.3,0,0,0,409.9,269a3.36,3.36,0,0,0,3.69,2.4,3.43,3.43,0,0,0,3.05-3.44c.09-1.12.05-2.24.1-3.36.37-8.62,1.57-17,6-24.67a22.93,22.93,0,0,0,2.43-6.24,49.43,49.43,0,0,0,1.18-15.95C426.17,216,426,214.13,425.77,212.32ZM187.08,193.85a11.6,11.6,0,0,1,1.33.59,46.69,46.69,0,0,1,18.82,24.11c2.84,8.35,4.17,17.06,5.91,25.66,1.22,6,2.2,12.1,3.39,18.13a15.5,15.5,0,0,0,1.55,4.25,4,4,0,0,0,2.09,1.76c2.55.84,4.63-1.29,4.13-4.14-.58-3.22-1.22-6.43-1.86-9.64-1.75-8.65-1.43-17.33-.26-26,.72-5.3,1.67-10.57,2.24-15.88.67-6.22.66-12.42-1.14-18.53-2.22-7.56-6.65-13.71-11.75-19.53-3.49-4-7.53-4.84-12.49-3.16a110.06,110.06,0,0,0-15.52,6.29,9.46,9.46,0,0,1-8.06.6,35.47,35.47,0,0,0-6.05-1.42,3.31,3.31,0,0,0-3.65,1.75,3.21,3.21,0,0,0,.36,3.8c1.29,1.63,2.62,3.21,3.91,4.83,4.81,6.09,8.78,12.57,9.56,20.55a3.56,3.56,0,0,0,3.81,3.23c2-.19,3.15-1.81,3-4.12s-.26-4.8-.17-7.19C186.35,197.91,186.77,196,187.08,193.85ZM236,349.39a14.58,14.58,0,0,0,4-5.66c1.76-4.28,3.41-8.61,4.9-13,1-2.91.9-6,.78-9a56.75,56.75,0,0,1,.24-9.31A26.63,26.63,0,0,1,249.17,302a9.73,9.73,0,0,1,2.81-3.41c.15.25.24.34.22.39-.16.53-.36,1.05-.52,1.58a21.72,21.72,0,0,0-.6,12.06,32.63,32.63,0,0,1,.08,15c-1,5.05-3.2,9.69-5.45,14.3a33.71,33.71,0,0,0-3.19,10.73c4.27,2.23,8.35,4.41,12.48,6.49a3.06,3.06,0,0,0,4.05-1,10.21,10.21,0,0,0,1.39-2.24c1.39-3.31,2.91-6.58,4-10a80.54,80.54,0,0,0,3.71-20.47c.24-4.86.54-9.75-.36-14.6-.5-2.67-1-5.34-1.43-8a43.16,43.16,0,0,0-11.2-23.44c-1.11-1.19-2.28-2-4-1.52a3.93,3.93,0,0,0-2.84,3.24c-.35,1.56-.71,3.11-1.1,4.66-1.73,6.89-4.26,13.34-9,18.82a47.56,47.56,0,0,0-9.13,16.74,63.27,63.27,0,0,0-3,19.36c0,2.7,1,4.59,3.5,5.71C231.7,347.21,233.75,348.3,236,349.39ZM456.33,477.57c3,.28,6-.65,9.08-1.62,2.13-.67,4.21-1.55,6.37-2.09a21.37,21.37,0,0,0,10.79-6.81c2.7-3.05,5.24-6.24,7.86-9.36,3.39-4,6.72-8.14,10.21-12.09a41.45,41.45,0,0,1,5.11-4.7,94.08,94.08,0,0,0,10.73-9.53A25.77,25.77,0,0,0,522,422.2a8.94,8.94,0,0,0,.39-3.3,4.24,4.24,0,0,0-3.08-4.12,6.17,6.17,0,0,0-5.71.56c-2.78,1.71-5.6,3.41-8.54,4.84a13.11,13.11,0,0,1-5.26,1.36,36.12,36.12,0,0,0-13.47,3,22.21,22.21,0,0,0-12.37,12.05c-1,2.28-1.64,4.67-2.51,7-2.19,5.84-5.36,10.88-11.18,13.8a50.79,50.79,0,0,0-11.3,8c-3.58,3.25-2.14,8.26.14,10.45C451.08,477.81,453.51,477.82,456.33,477.57ZM372.68,196.81v-.43c-6.78.34-13.57.61-20.35,1.06a87.29,87.29,0,0,0-10.21,1.24c-3.19.59-4.12,2.45-2.84,5.45,2.5,5.88,1.94,11.71-.08,17.54-1.46,4.23-3,8.43-4.41,12.67-3.91,11.72-2.47,23,2.88,34a3.55,3.55,0,0,0,4.06,2.23c1.78-.45,2.66-1.83,2.52-4.06-.09-1.51-.22-3-.38-4.54-.9-8.41-.55-16.59,2.24-24.81,3.08-9.11,6.87-17.7,12.78-25.32,1.08-1.38,2-2.86,3.09-4.27a7.52,7.52,0,0,1,1.46-1.57c1.83-1.39,3.05-1.3,4.57.43a16.54,16.54,0,0,1,2,3c1,1.89,2.07,3.8,2.92,5.78,2.06,4.86,3.73,9.74,3.4,15.25a134,134,0,0,0,.43,14.84,3.38,3.38,0,0,0,6.74.39c.5-2,1.08-4,1.5-6a152.2,152.2,0,0,1,5.92-19.47A24.63,24.63,0,0,0,392,206.42c-.48-2.19-1.09-4.34-1.74-6.48-.72-2.36-1.74-3.11-4.18-3.12C381.64,196.79,377.16,196.81,372.68,196.81ZM235.33,231c-.28,9.2-.8,18.36-2,27.5a70.54,70.54,0,0,1-7.91,25,11.92,11.92,0,0,1-1.41,2.22,2,2,0,0,1-3.4-.17,14.61,14.61,0,0,1-1.43-2.49c-1.11-2.48-2.19-5-3.22-7.48a3.78,3.78,0,0,0-2.44-2.45,3.35,3.35,0,0,0-4.37,3.39c0,2.63.53,5.26.53,7.88,0,8.33-.43,16.55-3.82,24.43-2.07,4.82-3.3,10-5,15a4.38,4.38,0,0,0,2,5.4c3.36,2.3,6.75,4.56,10.29,6.58,2.68,1.53,5.12.06,5.42-3.08a79.33,79.33,0,0,1,3.05-15.5c3.76-12.48,9.85-23.91,16-35.31a43.45,43.45,0,0,0,4.21-10.15c.88-3.56,1.57-7.17,2.41-10.74a69.91,69.91,0,0,0,1.81-18.55,71.26,71.26,0,0,0-2.65-16.77,53.12,53.12,0,0,0-2-5.65c-.83-2-2.4-2.89-4.09-2.43s-2.68,2-2.55,4.09C235,224.83,235.16,227.93,235.33,231ZM152.91,452.7l0-.26c.64,0,1.28,0,1.92,0,6.3-.2,11.93-1.94,16.18-7,1.54-1.82,3.24-3.53,4.8-5.35a15.47,15.47,0,0,0,2.24-3.07c1.89-3.73,3-7.63,1.28-11.73a47,47,0,0,0-3.42-7.07,27.71,27.71,0,0,1-4.6-16.32c.16-4.41.78-8.74,1.24-13.1.34-3.33.62-6.68.83-10a3.13,3.13,0,0,0-2.57-3.51,3.28,3.28,0,0,0-3.9,2.36,7.4,7.4,0,0,0-.29.91c-1.33,5.84-2.83,11.64-3.92,17.52-1,5.49-1.53,11.07-2.42,16.59-.7,4.29-2.06,8.3-6.48,10.23a28,28,0,0,1-4.79,1.4c-3,.7-6.15,1.08-9.11,2-5.39,1.71-10.34,4.18-13.59,9.21a6.94,6.94,0,0,0,.73,8.53,8.08,8.08,0,0,0,6.36,2.26,4.32,4.32,0,0,1,4.38,2,7,7,0,0,0,5.12,3.21Zm358.52-127c.24,3.5.29,6.53.7,9.51.53,3.79,1.29,7.56,2.06,11.31a3.46,3.46,0,0,0,3.35,2.91,3.4,3.4,0,0,0,3.36-2.55,16.07,16.07,0,0,0,.8-2.76c.7-3.94,1.46-7.87,2-11.82a136.68,136.68,0,0,1,6.55-28.7c2.39-6.61,5-13.13,7.84-19.58a79.34,79.34,0,0,0,5-16.46,22.91,22.91,0,0,0,.46-8.81c-.41-2.12-1.95-3.44-3.77-3.26s-2.93,1.56-3.08,3.67a34.06,34.06,0,0,1-.38,4.05,101,101,0,0,1-6.18,18.63,47.25,47.25,0,0,1-7.8,12.59c-4.19,4.94-8.31,9.94-12.47,14.9a11.29,11.29,0,0,1-1.85,1.87c-5.13,3.77-9.34,8.46-13.73,13-6.68,6.92-11.34,15-14.93,23.81a3.14,3.14,0,0,0,.66,3.55,3,3,0,0,0,3.5.88A8.1,8.1,0,0,0,486,351a67.87,67.87,0,0,0,5.87-5.63c3.12-3.53,6-7.26,9.07-10.86A43.57,43.57,0,0,1,511.43,325.66ZM315.26,470.47c7,5.1,14.63,3.26,18.46-4.22a15.22,15.22,0,0,0,1.11-2.64c1.19-4.14,2.42-8.28,3.44-12.46.81-3.31.92-6.59-1.18-9.66-4.4-6.45-10.24-11.36-16.56-15.76-2.52-1.75-4.6-1.11-6.23,1.53a18.44,18.44,0,0,1-2.12,3.17c-4.22,4.29-8.66,8.36-14.34,10.62a3.87,3.87,0,0,0-.82,6.88,41.5,41.5,0,0,1,3.87,3.54,2.4,2.4,0,0,1,.48,3.36,15.91,15.91,0,0,0-1.26,11c.8,3.74,2.88,6.28,7.38,6.57A11.53,11.53,0,0,0,315.26,470.47ZM300.4,416.35c-1.91,3.2-3.77,6.35-5.68,9.47a3.42,3.42,0,0,0-.15,4,3.31,3.31,0,0,0,4,1.22,6,6,0,0,0,2.36-1.86c1.21-1.58,2.22-3.32,3.32-5a50.79,50.79,0,0,1,11-12.61,4.26,4.26,0,0,0,1.69-3.3c.14-2.55.4-5.1.42-7.66.08-9.34.09-18.68.12-28,0-1.92-.6-3-2.15-3.62a3.84,3.84,0,0,0-4.42.86,13.29,13.29,0,0,0-1,1.31,84.08,84.08,0,0,1-15.1,15.64,132.12,132.12,0,0,0-10.1,8.83,44,44,0,0,0-9.33,12.08,8,8,0,0,0,0,7.95,42.07,42.07,0,0,0,6.24,9,3.38,3.38,0,0,0,5.66-.39c.76-1.12,1.57-2.21,2.4-3.28,1.62-2.08,1.14-4.44-1.26-5.52a26.78,26.78,0,0,0-3.27-1,14.79,14.79,0,0,1,2.8-5.69c4.5-6.13,11.52-8.47,17.81-12a4.37,4.37,0,0,1-1,1.54,46.71,46.71,0,0,0-8,11.61c-1.63,3.14-.42,5.53,3,6.13A4.79,4.79,0,0,1,300.4,416.35ZM258.59,258c0,1.92,0,3.84,0,5.76a3.18,3.18,0,0,0,2.84,3.31,3.29,3.29,0,0,0,3.73-2.63c.16-.61.18-1.26.28-1.89.9-6.25,1.74-12.51,2.74-18.74,1-6.55,1.17-13-.72-19.47Q266,219.3,265,214.11c-.78-4-1.23-8.05-2-12.05a52.68,52.68,0,0,0-4.92-15.48,7.5,7.5,0,0,0-2.14-2.48,79.32,79.32,0,0,0-19.72-10.23c-1.73-.63-3.45-1.29-5.21-1.82a3.37,3.37,0,0,0-4.08,1.67,3.42,3.42,0,0,0,.77,4.16c.28.29.62.51.91.78,3,2.82,6.27,5.5,9.11,8.52a54,54,0,0,1,15.13,35.1c.15,2.87.32,5.75.65,8.61.57,4.92,1.22,9.86,3.19,14.46A25.48,25.48,0,0,1,258.59,258ZM391,307.21c-.42-3.53-.39-7.06-1.34-10.3a113,113,0,0,0-5.79-15.69,90.36,90.36,0,0,0-9.09-14.9,35,35,0,0,1-4.09-7,66.75,66.75,0,0,1-3.87-14.55c-.86-5.23-1.41-10.47-.54-15.73a45.69,45.69,0,0,1,1.78-6.18c.62-2,0-3.69-1.62-4.5s-3.35-.25-4.49,1.56c-.54.88-1,1.82-1.46,2.75-3.12,6.13-4.41,12.8-5.65,19.48a34.75,34.75,0,0,0,1.5,18.64,67.88,67.88,0,0,0,8.8,16.42c3.4,4.73,7,9.4,9,14.92,2.42,6.59,4.48,13.3,6.65,20,.51,1.59.8,3.25,1.23,4.87a3.4,3.4,0,0,0,2.89,2.55,3.25,3.25,0,0,0,3.5-1.57,9.3,9.3,0,0,0,1.39-3C390.3,312.36,390.59,309.75,391,307.21ZM74.08,225.34l.51-.07c-.36-2.19-.62-4.41-1.12-6.57A4.5,4.5,0,0,0,72,216.61a4.94,4.94,0,0,0-6-.52,5.44,5.44,0,0,0-3.23,5.12c0,4-.64,8-3.57,11.14a9.57,9.57,0,0,0-1.34,2.25,43.29,43.29,0,0,1-12.21,15.48c-.88.69-1.7,1.45-2.55,2.17a5.25,5.25,0,0,0-2,3.68,21.41,21.41,0,0,0,3.82,14.24,3,3,0,0,0,.47.54,3.29,3.29,0,0,0,3.76.67A3.18,3.18,0,0,0,51,268.07c-.05-.55-.29-1.08-.39-1.63-.27-1.43.08-2,1.54-2.4s2.76-.8,4.14-1.18a5,5,0,0,0,3.6-3.19,17.83,17.83,0,0,1,1.92-3.57,3.14,3.14,0,0,1,3.94-1.36c1.66.54,3.43.77,5.09,1.33,4.6,1.55,8.93.82,13.24-1.13A17.51,17.51,0,0,0,92,247.18c1.23-2.16,0-4.38-2.4-4.91-.7-.15-1.44-.15-2.14-.31-6.87-1.64-11.21-5-12.77-11.43A42.48,42.48,0,0,1,74.08,225.34Zm13.35,48.74a5,5,0,0,1,.89-.46,31.22,31.22,0,0,0,9.78-3.79,4.36,4.36,0,0,1,2.06-.51c3-.08,6.06-.09,9.09-.11a5.07,5.07,0,0,1,3.21,1.34,36.27,36.27,0,0,0,12.21,5.93c2.7.81,4.71-1.26,4.28-4.06-.1-.65-.18-1.3-.28-2.13a9.29,9.29,0,0,0,1.51.28c2.71,0,5.42.12,8.12,0a3.31,3.31,0,0,0,3.11-2.6,3.26,3.26,0,0,0-1.28-3.6l-1.48-1.17c1.37-.45,2.5-.79,3.61-1.2a4,4,0,0,0,2.83-4,3.48,3.48,0,0,0-1.91-2.87c-1.72-1-3.55-1.83-5.21-2.9-2.67-1.71-3.73-1.52-5.91.85-3.87,4.19-8.46,7-14.37,7.18-2.32.08-4.62.42-6.93.58-1.91.14-3.82.25-5.74.29a3,3,0,0,1-2.84-1.42c-1.83-3-2.12-3.14-5.58-2.5l-2.11.45a13.42,13.42,0,0,0-7,3.84A24.65,24.65,0,0,1,83,265.16c-3.45,2.2-7.13,3.69-11.31,2.17-3.47-1.27-6.71-.59-9.95.87A4.38,4.38,0,0,0,59,272.07a12.74,12.74,0,0,0,1.06,6.79,4,4,0,0,0,2.17,2c3.67,1.05,7.39,2,11.15,2.71,3.28.61,4.48-.5,4.86-3.87a3.68,3.68,0,0,1,.22-.73,8.41,8.41,0,0,1,.94.15c1.54.43,3.06,1,4.62,1.29,2.91.59,4.86-1.6,4-4.41C87.86,275.4,87.66,274.82,87.43,274.08ZM570.12,456c-1.75.36-3.25.58-4.7,1a20.61,20.61,0,0,0-12.89,9.62c-1.42,2.45-1.21,4.37.75,6.32a22,22,0,0,0,5.07,4c7.29,3.87,15,4,22.83,1.95a9.3,9.3,0,0,0,6.45-6,37.71,37.71,0,0,0,2.2-16.25c-.55-6.77-1-13.55-1.32-20.33-.21-3.84-1.94-5.13-5.66-4a5.64,5.64,0,0,0-1.32.54c-2.23,1.39-4.51,2.73-6.66,4.24a10.3,10.3,0,0,0-4.79,9.8C570.3,449.87,570.12,452.83,570.12,456ZM519.56,233.59a107.4,107.4,0,0,1-.07,10.77c-.64,6.27-1.47,12.54-2.61,18.74-1.39,7.48-3.24,14.84-8.18,21a3.31,3.31,0,0,0,5.11,4.2,20.57,20.57,0,0,0,3.23-4.13c2.48-4.65,5-9.3,7.08-14.13,3.33-7.75,4.48-16.14,6.27-24.31,1.65-7.56,2.56-15.28,4.1-22.87,1-4.68,2.61-9.21,3.71-13.87.72-3.09,1.07-6.27,1.49-9.43a3.35,3.35,0,0,0-1.69-3.46c-3.51-2.12-6.8-1.5-9.3,1.76a40.4,40.4,0,0,0-7.48,16.42C519.86,220.65,519.81,227.12,519.56,233.59ZM115.44,221c4.08,2,6.07,5.11,7.54,10.06a9.93,9.93,0,0,1-.33,6.59,11.44,11.44,0,0,1-2.56,3.69c-1.62,1.6-2.88,1.16-3.37-1-.2-.93-.14-1.91-.28-2.85a37,37,0,0,0-1-5.16,3.14,3.14,0,0,0-4.43-2,5.81,5.81,0,0,0-3.59,4.2c-.14.7-.31,1.41-.38,2.12a4,4,0,0,1-2.3,3.16c-.41.24-.88.38-1.28.64a3.78,3.78,0,0,0-1.72,4.35c.5,1.61,1.92,2.35,4,2.19,2.29-.17,4.59-.27,7-.41.22.77.43,1.53.67,2.27a5.1,5.1,0,0,0,6.61,3.48,9.45,9.45,0,0,0,6.4-6.33c.91-2.83,2.49-5.29,3.67-7.94a29.2,29.2,0,0,0,2.19-5.72,14.26,14.26,0,0,0-7.8-15.52c-2-.93-4.09-1.71-6.2-2.59-.06-1.49-.08-3.16-1.74-3.86-2.63-1.11-5.24-2.18-8.25-2.17-10.55,0-20.74,8-24,18.23a8.81,8.81,0,0,0-.39,2.6,3.16,3.16,0,0,0,2.58,3.3,9.61,9.61,0,0,0,3.54.14,34.72,34.72,0,0,0,5.73-1.65C102.61,228.1,109.41,225.32,115.44,221ZM560.29,348.5l-.29-.27.84-1.12a77.06,77.06,0,0,1,11.54-12.47,4.32,4.32,0,0,0,1.61-4,24.51,24.51,0,0,1,0-3.32,3.48,3.48,0,0,0-1.5-3.32,3.27,3.27,0,0,0-3.83,0,31,31,0,0,0-3.27,2.42,59.82,59.82,0,0,0-9.58,11,51.47,51.47,0,0,1-10.09,11.16,56.52,56.52,0,0,1-13.54,8.06,42.09,42.09,0,0,1-9.57,3c-2.8.42-3.87,2.39-2.92,5.11a15.86,15.86,0,0,0,1.65,3.16,3.55,3.55,0,0,0,3,1.61,36.78,36.78,0,0,0,10.72-.76c2.87-.7,5.75-1.35,8.65-1.9a44.59,44.59,0,0,0,16.93-7,18,18,0,0,1,1.89-1,25.43,25.43,0,0,1,8.93-2.53c2.56-.3,3.43-1.56,3.17-4.11a24.45,24.45,0,0,0-.44-3.09,3.66,3.66,0,0,0-3.75-3.05,23.83,23.83,0,0,0-5,.71C563.72,347.21,562,347.91,560.29,348.5ZM295.17,237c0-.32,0-.64,0-1,.52-11.87-4.29-21.73-11.65-30.6-1.46-1.75-3.58-2.08-5.09-.9s-1.78,3.08-.46,4.9a40,40,0,0,1,7,19.37,17.39,17.39,0,0,1-2.23,10.8,37.5,37.5,0,0,0-4.73,24.73c1.43,9.23,6.73,16.24,13.71,22.11a3.44,3.44,0,0,0,5.17-4.38c-.74-1.5-1.66-2.93-2.26-4.49-3.2-8.22-4.77-16.61-1.83-25.25A46.73,46.73,0,0,0,295.17,237Zm265,141.59c-1,1.37-1.6,2.27-2.27,3.13a117.54,117.54,0,0,0-11.16,17c-2.67,5-2,4.94.62,9.15,1.9,3,5.5,2.28,6.89-.44A70,70,0,0,1,575,383a12.38,12.38,0,0,0,1.48-1.23,3.68,3.68,0,0,0,1.18-3.65,58.91,58.91,0,0,1-1.19-7.81c-.29-3.53-3.53-5.06-6.12-2.92a13.32,13.32,0,0,1-6.37,2.59c-4.48.76-8.94,1.66-13.39,2.58a61.86,61.86,0,0,0-18.44,7.28c-2.54,1.46-3,3.39-1.38,5.84a40.85,40.85,0,0,0,3.63,4.75c1.6,1.79,3.15,2.05,5.09.72a35,35,0,0,0,4.35-3.73c2.84-2.72,5.78-5.3,9.45-6.87A21.94,21.94,0,0,1,560.21,378.59Zm50.11-93.13c-.16.49-.17.79-.32.91-3,2.27-5.84,4.69-9,6.71-1.95,1.26-2.63,1.74-2.48,4.09s.33,4.46.58,6.68c.34,3.12,2.14,4.32,5.15,3.38,4-1.23,7.15-3.74,10.47-6.14,2.61-1.89,3.33-4.32,3.4-7.22,0-.88,0-1.76-.07-2.63-.15-2.63-.27-5.27-.49-7.89-.34-4.05-.84-8.1-1.09-12.15a3.56,3.56,0,0,0-6.17-2.3,28.91,28.91,0,0,1-3.78,2.63l-.35-.4c.25-.45.47-.92.76-1.34,1.72-2.5,3.5-5,5.17-7.48a7.82,7.82,0,0,0,1.39-3c.52-3.73-.56-7.25-1.95-10.65a3,3,0,0,0-3.21-1.67,3.33,3.33,0,0,0-2.91,2.19,10.42,10.42,0,0,0-.58,1.82,40.29,40.29,0,0,1-6.19,13.67c-1.19,1.69-2.51,3.3-3.81,4.92a4.28,4.28,0,0,0-.82,4.23c1,3.36,1.82,6.77,2.62,10.18.58,2.52,2.05,3.66,4.67,3.22,2.29-.38,4.54-.92,6.81-1.37C608.81,285.7,609.48,285.6,610.32,285.46ZM445.1,385.22a14.18,14.18,0,0,0,1.14,3.53,37.8,37.8,0,0,0,4.17,5.51c2.38,2.63,5.47,1.79,6.56-1.64a34.55,34.55,0,0,1,4.8-9.86c5.57-7.79,8.89-16.39,8.82-26.12a37.75,37.75,0,0,1,2.74-15c.38-.88.78-1.75,1.15-2.64.91-2.2.43-4-1.32-5s-3.82-.55-5.14,1.47c-1,1.54-1.75,3.24-2.79,4.75-2.86,4.14-5.84,8.2-8.71,12.34a87.48,87.48,0,0,0-5.34,8.22C447.16,368.29,446.58,376.68,445.1,385.22Zm154.17-19.46c-1.94,3.1-3.68,6-5.59,8.84a4.21,4.21,0,0,0-.6,4,31.67,31.67,0,0,0,11.55,16.06c1.22.9,2.4,1.86,3.66,2.69a45.22,45.22,0,0,0,11.81,5.7c3,.9,6-2.54,5.59-4.91-.5-2.58-.9-5.19-1.45-7.76a4.92,4.92,0,0,0-2.22-3.55c-3.64-2.08-6.26-5.22-8.58-8.57a17.92,17.92,0,0,1-3.4-11c.06-1.76.1-3.52.13-5.28a3.21,3.21,0,0,0-2.08-3.21,49.42,49.42,0,0,0-13-3.06c-2.07-.24-3.48,1.2-3.63,3.29-.08,1-.07,2.07-.05,3.11a3.35,3.35,0,0,0,3.57,3.62C596.32,365.79,597.67,365.76,599.27,365.76ZM575.21,245l-.31,0c-.13-3.84-.23-7.67-.4-11.51a28.63,28.63,0,0,0-6.4-17.21c-4-5-9.24-8.56-14.22-12.43-.12-.1-.27-.17-.4-.26a3.78,3.78,0,0,0-6,3.45c.16,1.75.18,3.51.19,5.27a13.35,13.35,0,0,0,2.84,8.22c3.4,4.54,6.75,9.12,10,13.77a11.43,11.43,0,0,1,2,4.31c1.25,6.75,2.34,13.53,3.39,20.32.34,2.2.32,4.46.54,6.68a3.31,3.31,0,0,0,2.94,3.27,3.36,3.36,0,0,0,3.74-2.65,6.85,6.85,0,0,0,.32-1.41Q574.33,254.93,575.21,245ZM76.09,170.62c1,.17,1.84.36,2.7.47,4.07.51,8.18.88,12.13-.36a22.82,22.82,0,0,1,14.78.49c3.37,1.17,6.72,2.7,10.32.61a8.2,8.2,0,0,1,2.09-.51c1.7-.43,3.42-.8,5.1-1.3,2.46-.75,3.38-2.31,2.91-4.69s-1.88-3.25-4.38-3-4.93.52-7.4.7a28,28,0,0,1-11.13-.91,20.68,20.68,0,0,0-6.37-.86A13.29,13.29,0,0,1,90,159.47c-1.66-1-3.3-2-4.88-3a24,24,0,0,0-10.62-4.11c-1.27-.17-2.55-.25-3.82-.41-4.31-.57-6.47.84-7.56,5a10.55,10.55,0,0,0-.31,2.37c-.1,5.88,1.93,11.28,3.88,16.69a3,3,0,0,0,3,2,3.35,3.35,0,0,0,3.09-1.91C73.82,174.32,74.91,172.56,76.09,170.62ZM581.93,284.53c.11-3.19-1-4.86-2.78-5.21-2-.4-3.46.64-4.23,2.95-.12.38-.22.77-.33,1.16a50.26,50.26,0,0,1-4.89,12.17,52.48,52.48,0,0,1-11.15,14c-9.22,7.82-17.24,16.86-25.56,25.59a36.9,36.9,0,0,0-3.54,4.52,3.84,3.84,0,0,0,.41,4.85c1.36,1.3,3,1.27,4.74-.09.38-.29.73-.64,1.13-.89,7.18-4.44,13.35-10.13,19.38-16,4.82-4.67,9.5-9.46,15.08-13.29a17.37,17.37,0,0,0,6.86-9.83c1.07-3.76,2.09-7.54,3-11.34C580.85,290,581.46,286.73,581.93,284.53Zm57.28,106.55h-1.68c-3.19,0-4.91,1.84-4.55,5a11,11,0,0,0,1,4.14c2.62,4.65,4.93,6.71,9.7,6.26a34.48,34.48,0,0,0,16.87-6.26c4.4-3.12,8.21-6.94,10.09-12.17a98.35,98.35,0,0,0,2.88-9.85,8.37,8.37,0,0,0-2.16-8c-2-2.17-4.46-3.46-7.48-2.79a7.14,7.14,0,0,0-5.85,5.65c-.48,2.1-1,4.19-1.49,6.28-.9,3.67-2.52,6.83-5.88,8.94C647.14,390.55,643.22,390.94,639.21,391.08ZM53.3,206.51l-1.81.52c-2.53.66-3.45,2.12-2.93,4.59.28,1.32.45,2.67.8,4a7.74,7.74,0,0,0,1.12,2.6,3.24,3.24,0,0,0,5.44-.4,6.5,6.5,0,0,0,.65-1.79A8.91,8.91,0,0,1,61.23,210c2.11-1.11,4.33-2,6.51-3a7.34,7.34,0,0,1,5.6-.07c1.71.6,2,2.14,2.56,3.53a3.35,3.35,0,0,0,3.78,2.25,3.53,3.53,0,0,0,2.8-4.52,8.46,8.46,0,0,1,2.32-8.35,20.79,20.79,0,0,0,5.11-9.87,10.34,10.34,0,0,0-2-8.8,2.13,2.13,0,0,0-1.08-.88,47,47,0,0,0-5.88-1,3.16,3.16,0,0,0-3.17,2.14,3.47,3.47,0,0,0,.88,3.94c.51.48,1.08.9,1.63,1.35-.23,3.24-2.19,5-4.87,6a31.51,31.51,0,0,1-4.65,1.12c-3.52.74-4.57.13-5.74-3.24-.13-.38-.19-.79-.35-1.15a3.29,3.29,0,0,0-4.6-1.66,3.53,3.53,0,0,0-2.2,3.42c.08,2,.26,4,.41,6.31-1-.68-1.88-1.28-2.76-1.79a3.49,3.49,0,0,0-4,.21,3.22,3.22,0,0,0-1.28,3.6,18,18,0,0,0,.82,2.74C51.71,203.58,52.49,205,53.3,206.51Zm258.28,4.07a9.73,9.73,0,0,1,.64,1c3.4,8.16,6.27,16.43,5.43,25.5a3.25,3.25,0,0,0,2.48,3.63,3.4,3.4,0,0,0,4-1.91,15.67,15.67,0,0,0,1-2.42c3-8.9,4.46-18,2.71-27.34-.46-2.51-.64-5.07-1-7.59-.52-3.38-1.56-4.22-4.93-4.17l-1.68,0c-5.43,0-10.88.32-16.28-.08-4-.3-6.52,2-4.78,6.42,1.92,4.86,3.08,9.9,2.45,15.23a3.17,3.17,0,0,0,2.41,3.43,3.3,3.3,0,0,0,3.9-1.6,27.08,27.08,0,0,0,3.1-8C311.14,212.12,311.32,211.53,311.58,210.58ZM203.42,351.78c-1.4-.25-2.8-.57-4.22-.72a28.65,28.65,0,0,0-4.53-.22,3.17,3.17,0,0,0-2.94,3,3.24,3.24,0,0,0,2.14,3.39,18.06,18.06,0,0,0,2.1.37,17.11,17.11,0,0,1,3.23.78c2.72,1.16,5.38,2.45,8,3.72a27,27,0,0,0,11.85,2.5c2.2,0,3.16-.75,3.84-2.88a20.84,20.84,0,0,0,.63-8.78,3.19,3.19,0,0,0-2.07-3,18.38,18.38,0,0,1-7.51-5,17,17,0,0,0-2.48-1.87,125.7,125.7,0,0,0-23.07-12.62,30.65,30.65,0,0,0-6.91-1.71,2.47,2.47,0,0,0-3,1.8,64.58,64.58,0,0,0-1.49,7.5,3.15,3.15,0,0,0,3.49,3.61c5.43-.16,10.39,1.55,15.19,3.77A19.47,19.47,0,0,1,203.42,351.78Zm256.09,52.79c.21,2.33,1.25,3.89,3,4.27a4.28,4.28,0,0,0,4.49-2.48c.12-.21.19-.45.3-.65,1.81-3.29,3.45-6.69,5.47-9.84,6.51-10.16,14.58-18.81,25.24-24.72a30,30,0,0,0,11-10.77,3.24,3.24,0,0,0,0-4,3.74,3.74,0,0,0-3.17-1.32c-7.88-.39-14.51,2.5-20.29,7.65a55.76,55.76,0,0,0-12.79,15.71,13.83,13.83,0,0,1-1.32,2,67.47,67.47,0,0,0-7.27,12.91c-1.13,2.56-2.35,5.07-3.45,7.64C460.19,402.12,459.9,403.36,459.51,404.57ZM156,191.37a26.05,26.05,0,0,0-7.27-18.51c-2.5-2.71-5.88-3.64-9.45-1.21a23.91,23.91,0,0,0-9.32,12.1,6.39,6.39,0,0,0-.38,2.8,20,20,0,0,0,4.7,11c3.51,4.08,8.08,6.72,12.4,9.7a4.26,4.26,0,0,0,6-1.45,18.62,18.62,0,0,0,2.26-5.47C155.54,197.42,155.66,194.38,156,191.37ZM606,331.36a8.37,8.37,0,0,1,6.74,0c2.75,1.07,4.83,0,5.31-2.9.67-4.09,1.25-8.21,1.72-12.33.34-3.06-.87-4.25-3.95-4.3-5.31-.07-10.22,1.65-15.1,3.41a3.24,3.24,0,0,0-2.12,3.42,19.68,19.68,0,0,1-.06,3.35c-1,6.14-2,12.29-3.11,18.41a3.63,3.63,0,0,0,1.58,4.13,22.84,22.84,0,0,0,3.29,2,21.57,21.57,0,0,1,6.73,4.51c2.26,2.28,5.18,1.17,6.29-1.24.66-1.45,1.3-2.92,1.82-4.43,1.11-3.24.59-4.52-2.3-6.43S608.24,334.05,606,331.36Zm-46.66-51.48c-.24-4.57-.29-8.09-.65-11.58s-1-7.13-1.63-10.66c-.9-4.79-1.93-9.55-3-14.3a8.71,8.71,0,0,0-1.21-2.84,3.11,3.11,0,0,0-3.81-1.17,3.36,3.36,0,0,0-2.17,3.61,6.76,6.76,0,0,0,.28,1.16,87.52,87.52,0,0,1,2.85,34.19c-.8,7-2.12,13.72-5.93,19.79-2,3.18-3.69,6.54-5.54,9.8a3.49,3.49,0,0,0,.19,4.22,3.57,3.57,0,0,0,4.16.86,5.22,5.22,0,0,0,1.72-1.25c2.66-3,5.39-5.92,7.86-9,3.27-4.13,5.7-8.72,6.26-14.06C559.11,285.37,559.22,282.1,559.37,279.88Zm8.79,137.57c-1.86,1.48-3.74,2.92-5.55,4.45a7.06,7.06,0,0,0-1.68,2,4.61,4.61,0,0,0,1.15,5.26,3.31,3.31,0,0,0,4.4.22c3.22-2.26,6.93-3.2,10.66-4.07,2.63-.61,5.33-1,8-1.5,3-.6,4-2.07,3.73-5.07A39,39,0,0,0,584,403.31a3.35,3.35,0,0,0-3.92-2c-1.27.18-2.5.52-3.75.79-6.38,1.39-11.47,5.09-16.3,9.2-1.7,1.45-3.33,3-4.88,4.59a3.17,3.17,0,0,0-.66,4,3.12,3.12,0,0,0,3.64,1.64,10.74,10.74,0,0,0,3.21-1.44C563.44,418.76,565.52,417.48,568.16,417.45ZM153.58,230.8c.17-.15.29-.35.45-.38,3.54-.74,4.37-2.52,3-5.87-2-4.9-6-7.59-10.56-9.5a21.84,21.84,0,0,1-7.15-4.23,3.4,3.4,0,0,0-5.09,4.48,26.19,26.19,0,0,0,3.18,3.57,6.47,6.47,0,0,1,2.12,4.92c-.16,5.1.07,10.24-1.38,15.23-.74,2.55-.13,3.87,2.36,4.93A16.17,16.17,0,0,1,148,250a19.38,19.38,0,0,0,1.76,2.27,3.34,3.34,0,0,0,5.62-3.49,30.1,30.1,0,0,0-1.56-2.68c-.71-1.27-1.38-2.56-2.06-3.84a3.75,3.75,0,0,1,1.83.35,3.4,3.4,0,0,0,4.76-2.57,6.8,6.8,0,0,0-.24-3C157.36,234.49,155.51,232.68,153.58,230.8Zm433.25,1.44c-.27,5.17-.55,6.89-3.06,11.48-3.12,5.7-2.77,11.72-1.88,17.78a3.15,3.15,0,0,0,4.68,2.18,9.61,9.61,0,0,0,3.1-2.56,52.08,52.08,0,0,0,4.14-6.15c3.58-6.21,5.47-13.1,7.81-19.81a24.09,24.09,0,0,0,.7-3.52,5.33,5.33,0,0,0-1.05-4c-2.71-4.17-6.71-6.53-11.18-8.24a3.49,3.49,0,0,0-4.84,3.94c.07.47.28.92.35,1.39C586,227.21,586.42,229.73,586.83,232.24Zm-407,166.21a62.46,62.46,0,0,0,5.46,22.32,6.87,6.87,0,0,0,.82,1.45,3.45,3.45,0,0,0,4.1,1,4.54,4.54,0,0,0,2.22-2.69c2-4.62,3.75-9.35,6.56-13.58a17.19,17.19,0,0,0,1.27-2.83,4.39,4.39,0,0,0-.52-4.73c-3.65-4.95-7.22-9.95-10.88-14.89-1.08-1.46-2.64-1.6-4.33-1.2a3.7,3.7,0,0,0-3.08,3.26C180.91,390.55,180.41,394.5,179.87,398.45Zm-8.47-36.14c-.17,3.52.65,4.75,3,5.2a53.69,53.69,0,0,1,13.47,4.85,5.79,5.79,0,0,1,1.78,1.19,68.1,68.1,0,0,1,4.76,5.7,37.71,37.71,0,0,0,9,8.87,10.35,10.35,0,0,0,2.81,1.27,3,3,0,0,0,3.61-1.18,44.72,44.72,0,0,0,2.78-4.19,3.29,3.29,0,0,0-1.39-4.88,11.45,11.45,0,0,0-2.46-.89c-1.61-.45-3.25-.81-4.85-1.3a10.19,10.19,0,0,1-5.38-3.79c-2.19-3-4.49-5.81-6.74-8.71-3.91-5.08-9.29-7.67-15.4-8.94a3.34,3.34,0,0,0-4.06,2.5C171.86,359.69,171.58,361.43,171.4,362.31ZM506,392a11.17,11.17,0,0,0-2.36,1.32,31.56,31.56,0,0,1-9.55,5.88c-2.77,1-5.65,1.7-8.5,2.49-6.75,1.88-11.63,6.14-15.22,12a3.11,3.11,0,0,0-.15,3.42,11.94,11.94,0,0,0,2.87,3.14c2,1.4,3.54.92,5.28-.73,2.61-2.47,5.35-4.79,8.14-7a10.64,10.64,0,0,1,3.21-1.56c3.68-1.31,7.48-2.34,11.06-3.87a47.2,47.2,0,0,0,7.19-4.26,8.24,8.24,0,0,0,3.16-4.41C512,395.82,509.34,392.14,506,392ZM116.67,199c0,.48-.07,1-.08,1.44,0,2.21,1.07,3.71,3,4,2.29.34,5.07-1.14,5.28-3.12.38-3.5.41-6.93-2-10-2.19-2.79-4.61-5.52-5-9.38-.14-1.59-1.79-2.53-3.38-2.44a3.24,3.24,0,0,0-3,2.6,8.17,8.17,0,0,0,.7,5.6,34.68,34.68,0,0,0,2.45,4.1A11.28,11.28,0,0,1,116.67,199Zm-18.8-6-.33.06c0,.88,0,1.75,0,2.63A9.42,9.42,0,0,0,99,200.87a3.39,3.39,0,0,0,3.72,1.55,3.31,3.31,0,0,0,2.48-3.15c.09-1.19.2-2.39.22-3.58A27.76,27.76,0,0,0,102.55,183a3.24,3.24,0,0,0-4-1.71A3.3,3.3,0,0,0,96.29,185c.07.55.26,1.09.36,1.64C97.07,188.77,97.47,190.87,97.87,193Z" transform="translate(-0.48 -0.48)"/><path class="cls-1" d="M440.43,332.41a17.53,17.53,0,0,0,2.27-1.57,175.65,175.65,0,0,0,19-22.16,119.67,119.67,0,0,1,15-17.16c6.36-5.89,10.7-13.07,14-21a99.75,99.75,0,0,0,3.55-9.41,44.22,44.22,0,0,0,1.2-6.82c.93-6.56.23-13-.72-19.56-1.32-9.05-1.91-18.16,1.08-27.07,2.16-6.45,5.48-12.08,11.27-15.95a12.05,12.05,0,0,1,3.4-1.61,20.55,20.55,0,0,1,7.38-.23c2.88.26,4.14,3.12,2.92,5.68-2.61,5.48-5.16,11-7.39,16.64a116.9,116.9,0,0,0-7,28.56c-.8,6.27-1.8,12.5-2.52,18.78a104.76,104.76,0,0,0-.66,11.48,42.06,42.06,0,0,1-1.36,11.15,92.34,92.34,0,0,1-4.07,12,39.9,39.9,0,0,1-13.69,16.36c-3,2.14-6.16,4-9.31,5.92a50.72,50.72,0,0,0-8.34,6c-1.88,1.74-3.94,3.27-5.91,4.9a8.88,8.88,0,0,0-1.08.94c-2.91,3.3-5.79,6.63-8.72,9.91-5.07,5.67-7.53,12.53-9.12,19.8-.61,2.81-1.13,5.65-1.85,8.43-.64,2.48-2.87,3.63-4.95,2.57a4.51,4.51,0,0,1-1.89-2c-.76-1.75-1.27-3.61-1.88-5.43-1-2.87-1.86-5.76-2.92-8.6a12.32,12.32,0,0,0-3.38-5.17,3.71,3.71,0,0,1-1-4.57c2.42-5.47,3.4-11.46,6.55-16.69A28,28,0,0,0,434.45,311a11,11,0,0,1,.36-2.85,3.66,3.66,0,0,1,4.22-3c1.91.27,3,1.73,3,4,0,5.31-1.07,10.48-2,15.67a30.21,30.21,0,0,0-.25,5.47A8.8,8.8,0,0,0,440.43,332.41Z" transform="translate(-0.48 -0.48)"/><path class="cls-1" d="M369.19,330.57c1-6.33-1.69-12.46-4.61-18.55a34.54,34.54,0,0,1-1.8-4.43,3.25,3.25,0,0,1,1.94-4.12,3.3,3.3,0,0,1,4.25,1.72c1.52,3.25,3,6.54,4.38,9.85,1.54,3.66,2.72,7.5,4.53,11a41.92,41.92,0,0,0,5.28,7.35c1.18,1.43,2.11,1.35,3.4-.12a32.66,32.66,0,0,0,3.69-5c3.44-5.88,6.51-11.95,7.86-18.7.48-2.43.85-4.89,1.09-7.35a14.23,14.23,0,0,0-1.58-7.42A92.59,92.59,0,0,1,390,268.7a69.69,69.69,0,0,1,.55-21.95,16.73,16.73,0,0,1,.73-2.78,3.48,3.48,0,0,1,4.09-2.49,3.67,3.67,0,0,1,2.85,3.9,72.23,72.23,0,0,0,.21,9.08c1,7.28,2,14.61,4.46,21.56,1.34,3.8,3.55,7.31,5.45,10.91a32.86,32.86,0,0,0,2.59,4c.88,1.22,1.51,1.29,2.45.14a36.44,36.44,0,0,0,3.75-5.26c2.15-3.91,4.2-7.9,6.05-12a51.36,51.36,0,0,0,2.07-6.62c.14-.46.23-.94.38-1.39.67-2,2.18-3,3.93-2.73a3.47,3.47,0,0,1,2.89,3.82c-.28,5-.62,9.89-1.07,14.82-.5,5.49-1.13,11-1.74,16.45s-2,10.39-5.19,15a30.47,30.47,0,0,0-5.93,17.45c0,2-.43,4-.46,6,0,2.87-1.77,4.67-4,5.82a100.79,100.79,0,0,1-12.81,5.9c-5.72,2-11.65,3.4-17.48,5.06a7.51,7.51,0,0,1-.93.25c-4,.61-7.47.2-9.87-3.87A29.53,29.53,0,0,1,369.22,337C369.05,335.13,369.19,333.2,369.19,330.57Z" transform="translate(-0.48 -0.48)"/><path class="cls-1" d="M338.37,330.71a9.56,9.56,0,0,0,.74-1.46c1.11-3.67,2.08-7.38,3.29-11A21,21,0,0,0,343,309c-.67-5.88-.44-11.62,1.85-17.2,1.06-2.59,1.81-5.29,3.59-7.53a4.06,4.06,0,0,1,3-1.72,3.37,3.37,0,0,1,3.74,4.26,3.24,3.24,0,0,1-.3.91c-2.88,5.28-2.59,10.86-1.9,16.59a52.85,52.85,0,0,0,4.14,14.22c3.92,9.26,5,18.93,4.65,28.87a21.37,21.37,0,0,1-.5,3.55c-.49,2.24-1.55,3.05-3.85,3.13-4.56.17-9.12.53-13.67.48-5.26-.07-10.52-.48-15.78-.79a9.47,9.47,0,0,1-2.34-.49c-3.05-.93-3.88-2.43-3.14-5.59a43.1,43.1,0,0,0,1-12.86,82,82,0,0,0-3.19-19.35,32.6,32.6,0,0,0-4.22-8.55,70.63,70.63,0,0,1-11.05-24.81,56.41,56.41,0,0,1-.6-16.25,72.41,72.41,0,0,1,3.19-16.93c.1-.3.13-.63.23-.93a3.49,3.49,0,0,1,3.56-2.63,3.67,3.67,0,0,1,3.31,3.27c.13,1,0,2.07.05,3.11.15,3.43.12,6.88.55,10.27a17.36,17.36,0,0,0,2,5.86c3.24,6.05,6.59,12.06,10.08,18a36.22,36.22,0,0,1,4.72,13.72c.49,3.56.61,7.16,1,10.74.45,4.68.56,9.42,2,14A18.91,18.91,0,0,0,338.37,330.71Z" transform="translate(-0.48 -0.48)"/><path class="cls-1" d="M178.48,278.94a2.56,2.56,0,0,0,1.6-2.46,28.09,28.09,0,0,0-2.77-15.6c-1.58-3-3.29-6-5.08-9a49.58,49.58,0,0,1-7-20.95c-.27-2.54-.34-5.1-.56-7.64-.16-2-.35-4-.63-6-.5-3.4-1.09-6.79-1.6-10.18a13.69,13.69,0,0,1-.18-2.63,3.24,3.24,0,0,1,2.45-3.17,3.2,3.2,0,0,1,3.63,1.21,18.79,18.79,0,0,1,1.64,2.91c2.25,4.39,3.09,9.22,4.28,13.94,1.31,5.19,2.62,10.36,5.58,15a48.16,48.16,0,0,0,7.31,8.92c1.4-.64,1.28-1.93,1.39-3.07.42-4.21.77-8.43,1.2-12.64.21-2,1.14-3.19,2.69-3.54,2.3-.51,4.05.92,4.25,3.61.3,3.91.54,7.82.75,11.73a79.55,79.55,0,0,1,.28,8.86,42,42,0,0,0,2,14.39c.89,3.06,1.41,6.22,2.09,9.33s.19,6.37-.37,9.52a52.73,52.73,0,0,1-4.59,14.33,44.41,44.41,0,0,0-4.39,18.51c0,1.35-.08,2.71-.21,4.07-.32,3.43-3.59,5-6.44,3.1-4.63-3.15-8.55-7-10.83-12.21a26.92,26.92,0,0,1-1.55-5.76,45.54,45.54,0,0,1-.52-5.49c-.36-5.81-2.51-11-5.43-15.95-2.41-4-5-7.95-7.72-11.83a5.66,5.66,0,0,1-.88-5c.73-2.78,1.34-5.58,2.08-8.36a3.58,3.58,0,0,1,3.06-2.69,3.1,3.1,0,0,1,3.62,1.7c1.34,2.81,2.54,5.69,3.85,8.51,2.12,4.57,4.28,9.11,6.44,13.65A5,5,0,0,0,178.48,278.94Z" transform="translate(-0.48 -0.48)"/><path class="cls-1" d="M282.72,353.19c2.47-.61,3.53-2.64,4.2-4.74,1-3.12,1.59-6.36,2.44-9.52,2.79-10.33,2.19-20.75.77-31.18a3.65,3.65,0,0,1,1.54-4,3.69,3.69,0,0,1,4.48,0,10.16,10.16,0,0,1,2.06,2.27c1.37,1.86,2.59,3.83,4,5.65,6.31,8.05,11,16.86,12.75,27a9.36,9.36,0,0,1,0,3.08,28.57,28.57,0,0,1-8.3,16.36c-4.86,4.67-10.15,8.77-15.36,13-7,5.68-13.41,11.88-17.65,20-.51,1-1,2-1.4,3a3.39,3.39,0,0,1-3,2.34,3.07,3.07,0,0,1-3.38-2.15,81.11,81.11,0,0,1-2.26-8.8c-1.06-5.53.16-10.86,2.27-15.91,3.09-7.42,4.77-15.23,6.76-23,.3-1.16.52-2.34.86-3.49,3.17-10.85,3.34-21.89,2.26-33-.89-9.14-3.55-17.84-6.32-26.52a16.9,16.9,0,0,1-.58-2.08,3.4,3.4,0,0,1,6.43-2.14,9.84,9.84,0,0,1,.6,1.56c1.87,6.2,3.88,12.36,5.53,18.61a62.8,62.8,0,0,1,1.68,10.4c.6,6.76,1.26,13.54,1.31,20.31,0,4.77-.85,9.54-1.41,14.3-.23,2-.68,3.94-1,5.91C281.75,351.82,281.76,351.82,282.72,353.19Z" transform="translate(-0.48 -0.48)"/><path class="cls-1" d="M480.68,189.48c1.68,0,3,0,4.4,0a3.28,3.28,0,0,1,3.42,2.13,3.6,3.6,0,0,1-.94,4,62.19,62.19,0,0,0-7.88,10.55,27.2,27.2,0,0,0-3.49,12.09,69.14,69.14,0,0,0,4.6,31c2,5.19,1.62,10.52.24,15.79-1.93,7.42-6.3,13.13-12.33,17.76a39.57,39.57,0,0,0-13.19,17.35c-.6,1.58-1.58,2.63-3.31,2.66s-2.7-1-3.4-2.55c-2.77-5.95-3-12.2-2.27-18.56a83.45,83.45,0,0,1,4.08-18.94,40.63,40.63,0,0,1,1.74-4.45c2.13-4.38,4.36-8.72,6.56-13.07a33.16,33.16,0,0,0,3.22-13.19,91.68,91.68,0,0,0-.32-18.44,18.28,18.28,0,0,1,1.51-10.5,93.65,93.65,0,0,1,5.13-9.46,7.15,7.15,0,0,1,5.86-3.66C476.54,189.84,478.77,189.64,480.68,189.48Z" transform="translate(-0.48 -0.48)"/><path class="cls-1" d="M425.77,212.32c.19,1.81.4,3.63.58,5.45a49.43,49.43,0,0,1-1.18,15.95,22.93,22.93,0,0,1-2.43,6.24c-4.43,7.65-5.63,16-6,24.67-.05,1.12,0,2.24-.1,3.36a3.43,3.43,0,0,1-3.05,3.44,3.36,3.36,0,0,1-3.69-2.4,63.3,63.3,0,0,1-3.74-14.85c-.56-4.85-1.09-9.7-.07-14.55.39-1.88.76-3.76,1.3-5.59a48.62,48.62,0,0,0,1.68-18.51A22.1,22.1,0,0,0,405,205.41c-1-1.53-2.2-2.94-3.35-4.37a3.38,3.38,0,0,1-.57-3.8,3.57,3.57,0,0,1,3.32-2c5.18-.34,10.35-.83,15.53-1.14,7.66-.46,15.33-.83,23-1.23a4.22,4.22,0,0,1,4,2.09c5.19,7.82,7.93,16.33,7.46,25.77-.22,4.31-.61,8.62-.76,12.93-.14,3.94-1.83,7.42-3,11.06a2.89,2.89,0,0,1-2.8,1.92,3.15,3.15,0,0,1-3.15-1.78,9.19,9.19,0,0,1-.66-2q-.76-3.13-1.48-6.3c-1.62-7.11-5.36-13.14-9.82-18.74A36.76,36.76,0,0,0,426.3,212Z" transform="translate(-0.48 -0.48)"/><path class="cls-1" d="M187.08,193.85c-.31,2.19-.73,4.06-.81,5.94-.09,2.39,0,4.79.17,7.19s-1,3.93-3,4.12a3.56,3.56,0,0,1-3.81-3.23c-.78-8-4.75-14.46-9.56-20.55-1.29-1.62-2.62-3.2-3.91-4.83a3.21,3.21,0,0,1-.36-3.8,3.31,3.31,0,0,1,3.65-1.75,35.47,35.47,0,0,1,6.05,1.42,9.46,9.46,0,0,0,8.06-.6A110.06,110.06,0,0,1,199,171.47c5-1.68,9-.84,12.49,3.16,5.1,5.82,9.53,12,11.75,19.53,1.8,6.11,1.81,12.31,1.14,18.53-.57,5.31-1.52,10.58-2.24,15.88-1.17,8.67-1.49,17.35.26,26,.64,3.21,1.28,6.42,1.86,9.64.5,2.85-1.58,5-4.13,4.14a4,4,0,0,1-2.09-1.76,15.5,15.5,0,0,1-1.55-4.25c-1.19-6-2.17-12.1-3.39-18.13-1.74-8.6-3.07-17.31-5.91-25.66a46.69,46.69,0,0,0-18.82-24.11A11.6,11.6,0,0,0,187.08,193.85Z" transform="translate(-0.48 -0.48)"/><path class="cls-1" d="M236,349.39c-2.21-1.09-4.26-2.18-6.37-3.12-2.52-1.12-3.52-3-3.5-5.71a63.27,63.27,0,0,1,3-19.36,47.56,47.56,0,0,1,9.13-16.74c4.78-5.48,7.31-11.93,9-18.82.39-1.55.75-3.1,1.1-4.66a3.93,3.93,0,0,1,2.84-3.24c1.71-.5,2.88.33,4,1.52a43.16,43.16,0,0,1,11.2,23.44c.41,2.68.93,5.35,1.43,8,.9,4.85.6,9.74.36,14.6a80.54,80.54,0,0,1-3.71,20.47c-1.1,3.42-2.62,6.69-4,10a10.21,10.21,0,0,1-1.39,2.24,3.06,3.06,0,0,1-4.05,1c-4.13-2.08-8.21-4.26-12.48-6.49a33.71,33.71,0,0,1,3.19-10.73c2.25-4.61,4.41-9.25,5.45-14.3a32.63,32.63,0,0,0-.08-15,21.72,21.72,0,0,1,.6-12.06c.16-.53.36-1,.52-1.58,0-.05-.07-.14-.22-.39a9.73,9.73,0,0,0-2.81,3.41,26.63,26.63,0,0,0-3.32,10.44,56.75,56.75,0,0,0-.24,9.31c.12,3.07.21,6.12-.78,9-1.49,4.38-3.14,8.71-4.9,13A14.58,14.58,0,0,1,236,349.39Z" transform="translate(-0.48 -0.48)"/><path class="cls-1" d="M456.33,477.57c-2.82.25-5.25.24-7.27-1.69-2.28-2.19-3.72-7.2-.14-10.45a50.79,50.79,0,0,1,11.3-8c5.82-2.92,9-8,11.18-13.8.87-2.31,1.56-4.7,2.51-7a22.21,22.21,0,0,1,12.37-12.05,36.12,36.12,0,0,1,13.47-3,13.11,13.11,0,0,0,5.26-1.36c2.94-1.43,5.76-3.13,8.54-4.84a6.17,6.17,0,0,1,5.71-.56,4.24,4.24,0,0,1,3.08,4.12,8.94,8.94,0,0,1-.39,3.3,25.77,25.77,0,0,1-5.47,9.17,94.08,94.08,0,0,1-10.73,9.53,41.45,41.45,0,0,0-5.11,4.7c-3.49,3.95-6.82,8-10.21,12.09-2.62,3.12-5.16,6.31-7.86,9.36a21.37,21.37,0,0,1-10.79,6.81c-2.16.54-4.24,1.42-6.37,2.09C462.36,476.92,459.29,477.85,456.33,477.57Z" transform="translate(-0.48 -0.48)"/><path class="cls-1" d="M372.68,196.81c4.48,0,9,0,13.43,0,2.44,0,3.46.76,4.18,3.12.65,2.14,1.26,4.29,1.74,6.48a24.63,24.63,0,0,1-1.12,13.67A152.2,152.2,0,0,0,385,239.56c-.42,2-1,4-1.5,6a3.38,3.38,0,0,1-6.74-.39,134,134,0,0,1-.43-14.84c.33-5.51-1.34-10.39-3.4-15.25-.85-2-1.88-3.89-2.92-5.78a16.54,16.54,0,0,0-2-3c-1.52-1.73-2.74-1.82-4.57-.43a7.52,7.52,0,0,0-1.46,1.57c-1.06,1.41-2,2.89-3.09,4.27-5.91,7.62-9.7,16.21-12.78,25.32-2.79,8.22-3.14,16.4-2.24,24.81.16,1.51.29,3,.38,4.54.14,2.23-.74,3.61-2.52,4.06a3.55,3.55,0,0,1-4.06-2.23c-5.35-10.94-6.79-22.23-2.88-34,1.41-4.24,3-8.44,4.41-12.67,2-5.83,2.58-11.66.08-17.54-1.28-3-.35-4.86,2.84-5.45a87.29,87.29,0,0,1,10.21-1.24c6.78-.45,13.57-.72,20.35-1.06Z" transform="translate(-0.48 -0.48)"/><path class="cls-1" d="M235.33,231c-.17-3.11-.33-6.21-.53-9.32-.13-2.09.8-3.62,2.55-4.09s3.26.39,4.09,2.43a53.12,53.12,0,0,1,2,5.65,71.26,71.26,0,0,1,2.65,16.77A69.91,69.91,0,0,1,244.24,261c-.84,3.57-1.53,7.18-2.41,10.74a43.45,43.45,0,0,1-4.21,10.15c-6.15,11.4-12.24,22.83-16,35.31a79.33,79.33,0,0,0-3.05,15.5c-.3,3.14-2.74,4.61-5.42,3.08-3.54-2-6.93-4.28-10.29-6.58a4.38,4.38,0,0,1-2-5.4c1.68-5,2.91-10.16,5-15,3.39-7.88,3.82-16.1,3.82-24.43,0-2.62-.51-5.25-.53-7.88a3.35,3.35,0,0,1,4.37-3.39A3.78,3.78,0,0,1,216,275.6c1,2.51,2.11,5,3.22,7.48a14.61,14.61,0,0,0,1.43,2.49,2,2,0,0,0,3.4.17,11.92,11.92,0,0,0,1.41-2.22,70.54,70.54,0,0,0,7.91-25C234.53,249.4,235.05,240.24,235.33,231Z" transform="translate(-0.48 -0.48)"/><path class="cls-1" d="M152.91,452.7l-10-1.13a7,7,0,0,1-5.12-3.21,4.32,4.32,0,0,0-4.38-2,8.08,8.08,0,0,1-6.36-2.26,6.94,6.94,0,0,1-.73-8.53c3.25-5,8.2-7.5,13.59-9.21,3-.93,6.08-1.31,9.11-2a28,28,0,0,0,4.79-1.4c4.42-1.93,5.78-5.94,6.48-10.23.89-5.52,1.4-11.1,2.42-16.59,1.09-5.88,2.59-11.68,3.92-17.52a7.4,7.4,0,0,1,.29-.91,3.28,3.28,0,0,1,3.9-2.36,3.13,3.13,0,0,1,2.57,3.51c-.21,3.34-.49,6.69-.83,10-.46,4.36-1.08,8.69-1.24,13.1a27.71,27.71,0,0,0,4.6,16.32,47,47,0,0,1,3.42,7.07c1.7,4.1.61,8-1.28,11.73a15.47,15.47,0,0,1-2.24,3.07c-1.56,1.82-3.26,3.53-4.8,5.35-4.25,5-9.88,6.76-16.18,7-.64,0-1.28,0-1.92,0Z" transform="translate(-0.48 -0.48)"/><path class="cls-1" d="M511.43,325.66a43.57,43.57,0,0,0-10.5,8.88c-3.05,3.6-5.95,7.33-9.07,10.86A67.87,67.87,0,0,1,486,351a8.1,8.1,0,0,1-2.49,1.39,3,3,0,0,1-3.5-.88,3.14,3.14,0,0,1-.66-3.55c3.59-8.81,8.25-16.89,14.93-23.81,4.39-4.56,8.6-9.25,13.73-13a11.29,11.29,0,0,0,1.85-1.87c4.16-5,8.28-10,12.47-14.9a47.25,47.25,0,0,0,7.8-12.59,101,101,0,0,0,6.18-18.63,34.06,34.06,0,0,0,.38-4.05c.15-2.11,1.29-3.49,3.08-3.67s3.36,1.14,3.77,3.26a22.91,22.91,0,0,1-.46,8.81,79.34,79.34,0,0,1-5,16.46c-2.8,6.45-5.45,13-7.84,19.58a136.68,136.68,0,0,0-6.55,28.7c-.52,3.95-1.28,7.88-2,11.82a16.07,16.07,0,0,1-.8,2.76,3.4,3.4,0,0,1-3.36,2.55,3.46,3.46,0,0,1-3.35-2.91c-.77-3.75-1.53-7.52-2.06-11.31C511.72,332.19,511.67,329.16,511.43,325.66Z" transform="translate(-0.48 -0.48)"/><path class="cls-1" d="M315.26,470.47a11.53,11.53,0,0,1-7.77,1.9c-4.5-.29-6.58-2.83-7.38-6.57a15.91,15.91,0,0,1,1.26-11,2.4,2.4,0,0,0-.48-3.36,41.5,41.5,0,0,0-3.87-3.54,3.87,3.87,0,0,1,.82-6.88c5.68-2.26,10.12-6.33,14.34-10.62a18.44,18.44,0,0,0,2.12-3.17c1.63-2.64,3.71-3.28,6.23-1.53,6.32,4.4,12.16,9.31,16.56,15.76,2.1,3.07,2,6.35,1.18,9.66-1,4.18-2.25,8.32-3.44,12.46a15.22,15.22,0,0,1-1.11,2.64C329.89,473.73,322.22,475.57,315.26,470.47Z" transform="translate(-0.48 -0.48)"/><path class="cls-1" d="M300.4,416.35a4.79,4.79,0,0,0-.69-.24c-3.42-.6-4.63-3-3-6.13a46.71,46.71,0,0,1,8-11.61,4.37,4.37,0,0,0,1-1.54c-6.29,3.52-13.31,5.86-17.81,12a14.79,14.79,0,0,0-2.8,5.69,26.78,26.78,0,0,1,3.27,1c2.4,1.08,2.88,3.44,1.26,5.52-.83,1.07-1.64,2.16-2.4,3.28a3.38,3.38,0,0,1-5.66.39,42.07,42.07,0,0,1-6.24-9,8,8,0,0,1,0-7.95,44,44,0,0,1,9.33-12.08,132.12,132.12,0,0,1,10.1-8.83,84.08,84.08,0,0,0,15.1-15.64,13.29,13.29,0,0,1,1-1.31,3.84,3.84,0,0,1,4.42-.86c1.55.61,2.16,1.7,2.15,3.62,0,9.34,0,18.68-.12,28,0,2.56-.28,5.11-.42,7.66a4.26,4.26,0,0,1-1.69,3.3,50.79,50.79,0,0,0-11,12.61c-1.1,1.67-2.11,3.41-3.32,5a6,6,0,0,1-2.36,1.86,3.31,3.31,0,0,1-4-1.22,3.42,3.42,0,0,1,.15-4C296.63,422.7,298.49,419.55,300.4,416.35Z" transform="translate(-0.48 -0.48)"/><path class="cls-1" d="M258.59,258a25.48,25.48,0,0,0-1.9-12.66c-2-4.6-2.62-9.54-3.19-14.46-.33-2.86-.5-5.74-.65-8.61a54,54,0,0,0-15.13-35.1c-2.84-3-6.06-5.7-9.11-8.52-.29-.27-.63-.49-.91-.78a3.42,3.42,0,0,1-.77-4.16,3.37,3.37,0,0,1,4.08-1.67c1.76.53,3.48,1.19,5.21,1.82a79.32,79.32,0,0,1,19.72,10.23,7.5,7.5,0,0,1,2.14,2.48A52.68,52.68,0,0,1,263,202.06c.74,4,1.19,8.06,2,12.05q1,5.17,2.5,10.24c1.89,6.45,1.76,12.92.72,19.47-1,6.23-1.84,12.49-2.74,18.74-.1.63-.12,1.28-.28,1.89a3.29,3.29,0,0,1-3.73,2.63,3.18,3.18,0,0,1-2.84-3.31C258.55,261.85,258.59,259.93,258.59,258Z" transform="translate(-0.48 -0.48)"/><path class="cls-1" d="M391,307.21c-.38,2.54-.67,5.15-1.18,7.72a9.3,9.3,0,0,1-1.39,3,3.25,3.25,0,0,1-3.5,1.57A3.4,3.4,0,0,1,382,317c-.43-1.62-.72-3.28-1.23-4.87-2.17-6.68-4.23-13.39-6.65-20-2-5.52-5.62-10.19-9-14.92a67.88,67.88,0,0,1-8.8-16.42,34.75,34.75,0,0,1-1.5-18.64c1.24-6.68,2.53-13.35,5.65-19.48.47-.93.92-1.87,1.46-2.75,1.14-1.81,2.84-2.37,4.49-1.56s2.24,2.48,1.62,4.5a45.69,45.69,0,0,0-1.78,6.18c-.87,5.26-.32,10.5.54,15.73a66.75,66.75,0,0,0,3.87,14.55,35,35,0,0,0,4.09,7,90.36,90.36,0,0,1,9.09,14.9,113,113,0,0,1,5.79,15.69C390.58,300.15,390.55,303.68,391,307.21Z" transform="translate(-0.48 -0.48)"/><path class="cls-1" d="M74.08,225.34a42.48,42.48,0,0,0,.59,5.19c1.56,6.45,5.9,9.79,12.77,11.43.7.16,1.44.16,2.14.31,2.44.53,3.63,2.75,2.4,4.91a17.51,17.51,0,0,1-7.88,7.76c-4.31,1.95-8.64,2.68-13.24,1.13-1.66-.56-3.43-.79-5.09-1.33a3.14,3.14,0,0,0-3.94,1.36,17.83,17.83,0,0,0-1.92,3.57,5,5,0,0,1-3.6,3.19c-1.38.38-2.76.77-4.14,1.18s-1.81,1-1.54,2.4c.1.55.34,1.08.39,1.63a3.18,3.18,0,0,1-1.87,3.31,3.29,3.29,0,0,1-3.76-.67,3,3,0,0,1-.47-.54,21.41,21.41,0,0,1-3.82-14.24,5.25,5.25,0,0,1,2-3.68c.85-.72,1.67-1.48,2.55-2.17A43.29,43.29,0,0,0,57.87,234.6a9.57,9.57,0,0,1,1.34-2.25c2.93-3.17,3.53-7.13,3.57-11.14A5.44,5.44,0,0,1,66,216.09a4.94,4.94,0,0,1,6,.52,4.5,4.5,0,0,1,1.44,2.09c.5,2.16.76,4.38,1.12,6.57Z" transform="translate(-0.48 -0.48)"/><path class="cls-1" d="M87.43,274.08c.23.74.43,1.32.61,1.92.85,2.81-1.1,5-4,4.41-1.56-.32-3.08-.86-4.62-1.29a8.41,8.41,0,0,0-.94-.15,3.68,3.68,0,0,0-.22.73c-.38,3.37-1.58,4.48-4.86,3.87-3.76-.7-7.48-1.66-11.15-2.71a4,4,0,0,1-2.17-2A12.74,12.74,0,0,1,59,272.07a4.38,4.38,0,0,1,2.76-3.87c3.24-1.46,6.48-2.14,9.95-.87,4.18,1.52,7.86,0,11.31-2.17a24.65,24.65,0,0,0,4.44-3.65,13.42,13.42,0,0,1,7-3.84l2.11-.45c3.46-.64,3.75-.53,5.58,2.5a3,3,0,0,0,2.84,1.42c1.92,0,3.83-.15,5.74-.29,2.31-.16,4.61-.5,6.93-.58,5.91-.19,10.5-3,14.37-7.18,2.18-2.37,3.24-2.56,5.91-.85,1.66,1.07,3.49,1.9,5.21,2.9a3.48,3.48,0,0,1,1.91,2.87,4,4,0,0,1-2.83,4c-1.11.41-2.24.75-3.61,1.2l1.48,1.17a3.26,3.26,0,0,1,1.28,3.6,3.31,3.31,0,0,1-3.11,2.6c-2.7.12-5.41,0-8.12,0a9.29,9.29,0,0,1-1.51-.28c.1.83.18,1.48.28,2.13.43,2.8-1.58,4.87-4.28,4.06a36.27,36.27,0,0,1-12.21-5.93,5.07,5.07,0,0,0-3.21-1.34c-3,0-6.06,0-9.09.11a4.36,4.36,0,0,0-2.06.51,31.22,31.22,0,0,1-9.78,3.79A5,5,0,0,0,87.43,274.08Z" transform="translate(-0.48 -0.48)"/><path class="cls-1" d="M570.12,456c0-3.2.18-6.16,0-9.1a10.3,10.3,0,0,1,4.79-9.8c2.15-1.51,4.43-2.85,6.66-4.24a5.64,5.64,0,0,1,1.32-.54c3.72-1.17,5.45.12,5.66,4,.37,6.78.77,13.56,1.32,20.33a37.71,37.71,0,0,1-2.2,16.25,9.3,9.3,0,0,1-6.45,6c-7.8,2.09-15.54,1.92-22.83-1.95a22,22,0,0,1-5.07-4c-2-1.95-2.17-3.87-.75-6.32A20.61,20.61,0,0,1,565.42,457C566.87,456.61,568.37,456.39,570.12,456Z" transform="translate(-0.48 -0.48)"/><path class="cls-1" d="M519.56,233.59c.25-6.47.3-12.94,1.66-19.32a40.4,40.4,0,0,1,7.48-16.42c2.5-3.26,5.79-3.88,9.3-1.76a3.35,3.35,0,0,1,1.69,3.46c-.42,3.16-.77,6.34-1.49,9.43-1.1,4.66-2.76,9.19-3.71,13.87-1.54,7.59-2.45,15.31-4.1,22.87-1.79,8.17-2.94,16.56-6.27,24.31-2.07,4.83-4.6,9.48-7.08,14.13a20.57,20.57,0,0,1-3.23,4.13,3.31,3.31,0,0,1-5.11-4.2c4.94-6.15,6.79-13.51,8.18-21,1.14-6.2,2-12.47,2.61-18.74A107.4,107.4,0,0,0,519.56,233.59Z" transform="translate(-0.48 -0.48)"/><path class="cls-1" d="M115.44,221c-6,4.34-12.83,7.12-19.69,9.78A34.72,34.72,0,0,1,90,232.41a9.61,9.61,0,0,1-3.54-.14A3.16,3.16,0,0,1,83.9,229a8.81,8.81,0,0,1,.39-2.6c3.31-10.21,13.5-18.19,24-18.23,3,0,5.62,1.06,8.25,2.17,1.66.7,1.68,2.37,1.74,3.86,2.11.88,4.19,1.66,6.2,2.59a14.26,14.26,0,0,1,7.8,15.52,29.2,29.2,0,0,1-2.19,5.72c-1.18,2.65-2.76,5.11-3.67,7.94a9.45,9.45,0,0,1-6.4,6.33,5.1,5.1,0,0,1-6.61-3.48c-.24-.74-.45-1.5-.67-2.27-2.41.14-4.71.24-7,.41-2.1.16-3.52-.58-4-2.19a3.78,3.78,0,0,1,1.72-4.35c.4-.26.87-.4,1.28-.64a4,4,0,0,0,2.3-3.16c.07-.71.24-1.42.38-2.12a5.81,5.81,0,0,1,3.59-4.2,3.14,3.14,0,0,1,4.43,2,37,37,0,0,1,1,5.16c.14.94.08,1.92.28,2.85.49,2.2,1.75,2.64,3.37,1a11.44,11.44,0,0,0,2.56-3.69A9.93,9.93,0,0,0,123,231C121.51,226.09,119.52,222.93,115.44,221ZM104,218.83a3.35,3.35,0,0,0-3.21-3.22,3.28,3.28,0,1,0,3.21,3.22Z" transform="translate(-0.48 -0.48)"/><path class="cls-1" d="M560.29,348.5c1.73-.59,3.43-1.29,5.19-1.73a23.83,23.83,0,0,1,5-.71,3.66,3.66,0,0,1,3.75,3.05,24.45,24.45,0,0,1,.44,3.09c.26,2.55-.61,3.81-3.17,4.11a25.43,25.43,0,0,0-8.93,2.53,18,18,0,0,0-1.89,1,44.59,44.59,0,0,1-16.93,7c-2.9.55-5.78,1.2-8.65,1.9a36.78,36.78,0,0,1-10.72.76,3.55,3.55,0,0,1-3-1.61,15.86,15.86,0,0,1-1.65-3.16c-.95-2.72.12-4.69,2.92-5.11a42.09,42.09,0,0,0,9.57-3,56.52,56.52,0,0,0,13.54-8.06,51.47,51.47,0,0,0,10.09-11.16,59.82,59.82,0,0,1,9.58-11,31,31,0,0,1,3.27-2.42,3.27,3.27,0,0,1,3.83,0,3.48,3.48,0,0,1,1.5,3.32,24.51,24.51,0,0,0,0,3.32,4.32,4.32,0,0,1-1.61,4,77.06,77.06,0,0,0-11.54,12.47l-.84,1.12Z" transform="translate(-0.48 -0.48)"/><path class="cls-1" d="M295.17,237a46.73,46.73,0,0,1-2.32,15.33c-2.94,8.64-1.37,17,1.83,25.25.6,1.56,1.52,3,2.26,4.49a3.44,3.44,0,0,1-5.17,4.38c-7-5.87-12.28-12.88-13.71-22.11a37.5,37.5,0,0,1,4.73-24.73,17.39,17.39,0,0,0,2.23-10.8,40,40,0,0,0-7-19.37c-1.32-1.82-1.05-3.73.46-4.9s3.63-.85,5.09.9c7.36,8.87,12.17,18.73,11.65,30.6C295.16,236.36,295.17,236.68,295.17,237Z" transform="translate(-0.48 -0.48)"/><path class="cls-1" d="M560.21,378.59a21.94,21.94,0,0,0-6.93,1.92c-3.67,1.57-6.61,4.15-9.45,6.87a35,35,0,0,1-4.35,3.73c-1.94,1.33-3.49,1.07-5.09-.72a40.85,40.85,0,0,1-3.63-4.75c-1.59-2.45-1.16-4.38,1.38-5.84a61.86,61.86,0,0,1,18.44-7.28c4.45-.92,8.91-1.82,13.39-2.58a13.32,13.32,0,0,0,6.37-2.59c2.59-2.14,5.83-.61,6.12,2.92a58.91,58.91,0,0,0,1.19,7.81,3.68,3.68,0,0,1-1.18,3.65A12.38,12.38,0,0,1,575,383a70,70,0,0,0-20.7,24.51c-1.39,2.72-5,3.49-6.89.44-2.61-4.21-3.29-4.14-.62-9.15a117.54,117.54,0,0,1,11.16-17C558.61,380.86,559.22,380,560.21,378.59Z" transform="translate(-0.48 -0.48)"/><path class="cls-1" d="M610.32,285.46c-.84.14-1.51.24-2.17.37-2.27.45-4.52,1-6.81,1.37-2.62.44-4.09-.7-4.67-3.22-.8-3.41-1.63-6.82-2.62-10.18a4.28,4.28,0,0,1,.82-4.23c1.3-1.62,2.62-3.23,3.81-4.92A40.29,40.29,0,0,0,604.87,251a10.42,10.42,0,0,1,.58-1.82,3.33,3.33,0,0,1,2.91-2.19,3,3,0,0,1,3.21,1.67c1.39,3.4,2.47,6.92,1.95,10.65a7.82,7.82,0,0,1-1.39,3c-1.67,2.53-3.45,5-5.17,7.48-.29.42-.51.89-.76,1.34l.35.4a28.91,28.91,0,0,0,3.78-2.63,3.56,3.56,0,0,1,6.17,2.3c.25,4.05.75,8.1,1.09,12.15.22,2.62.34,5.26.49,7.89,0,.87.09,1.75.07,2.63-.07,2.9-.79,5.33-3.4,7.22-3.32,2.4-6.5,4.91-10.47,6.14-3,.94-4.81-.26-5.15-3.38q-.37-3.33-.58-6.68c-.15-2.35.53-2.83,2.48-4.09,3.13-2,6-4.44,9-6.71C610.15,286.25,610.16,286,610.32,285.46Z" transform="translate(-0.48 -0.48)"/><path class="cls-1" d="M445.1,385.22c1.48-8.54,2.06-16.93,6.08-24.43a87.48,87.48,0,0,1,5.34-8.22c2.87-4.14,5.85-8.2,8.71-12.34,1-1.51,1.8-3.21,2.79-4.75,1.32-2,3.25-2.53,5.14-1.47s2.23,2.8,1.32,5c-.37.89-.77,1.76-1.15,2.64a37.75,37.75,0,0,0-2.74,15c.07,9.73-3.25,18.33-8.82,26.12a34.55,34.55,0,0,0-4.8,9.86c-1.09,3.43-4.18,4.27-6.56,1.64a37.8,37.8,0,0,1-4.17-5.51A14.18,14.18,0,0,1,445.1,385.22Z" transform="translate(-0.48 -0.48)"/><path class="cls-1" d="M599.27,365.76c-1.6,0-2.95,0-4.3,0a3.35,3.35,0,0,1-3.57-3.62c0-1,0-2.08.05-3.11.15-2.09,1.56-3.53,3.63-3.29a49.42,49.42,0,0,1,13,3.06,3.21,3.21,0,0,1,2.08,3.21c0,1.76-.07,3.52-.13,5.28a17.92,17.92,0,0,0,3.4,11c2.32,3.35,4.94,6.49,8.58,8.57a4.92,4.92,0,0,1,2.22,3.55c.55,2.57,1,5.18,1.45,7.76.45,2.37-2.62,5.81-5.59,4.91a45.22,45.22,0,0,1-11.81-5.7c-1.26-.83-2.44-1.79-3.66-2.69a31.67,31.67,0,0,1-11.55-16.06,4.21,4.21,0,0,1,.6-4C595.59,371.79,597.33,368.86,599.27,365.76Z" transform="translate(-0.48 -0.48)"/><path class="cls-1" d="M575.21,245q-.88,9.9-1.78,19.79a6.85,6.85,0,0,1-.32,1.41,3.36,3.36,0,0,1-3.74,2.65,3.31,3.31,0,0,1-2.94-3.27c-.22-2.22-.2-4.48-.54-6.68-1-6.79-2.14-13.57-3.39-20.32a11.43,11.43,0,0,0-2-4.31c-3.24-4.65-6.59-9.23-10-13.77a13.35,13.35,0,0,1-2.84-8.22c0-1.76,0-3.52-.19-5.27a3.78,3.78,0,0,1,6-3.45c.13.09.28.16.4.26,5,3.87,10.18,7.45,14.22,12.43a28.63,28.63,0,0,1,6.4,17.21c.17,3.84.27,7.67.4,11.51Z" transform="translate(-0.48 -0.48)"/><path class="cls-1" d="M76.09,170.62c-1.18,1.94-2.27,3.7-3.32,5.48A3.35,3.35,0,0,1,69.68,178a3,3,0,0,1-3-2c-2-5.41-4-10.81-3.88-16.69a10.55,10.55,0,0,1,.31-2.37c1.09-4.2,3.25-5.61,7.56-5,1.27.16,2.55.24,3.82.41a24,24,0,0,1,10.62,4.11c1.58,1.08,3.22,2.08,4.88,3a13.29,13.29,0,0,0,6.85,1.77,20.68,20.68,0,0,1,6.37.86,28,28,0,0,0,11.13.91c2.47-.18,4.93-.48,7.4-.7s3.93.76,4.38,3-.45,3.94-2.91,4.69c-1.68.5-3.4.87-5.1,1.3a8.2,8.2,0,0,0-2.09.51c-3.6,2.09-7,.56-10.32-.61a22.82,22.82,0,0,0-14.78-.49c-4,1.24-8.06.87-12.13.36C77.93,171,77.07,170.79,76.09,170.62Z" transform="translate(-0.48 -0.48)"/><path class="cls-1" d="M581.93,284.53c-.47,2.2-1.08,5.42-1.86,8.59-.93,3.8-2,7.58-3,11.34a17.37,17.37,0,0,1-6.86,9.83c-5.58,3.83-10.26,8.62-15.08,13.29-6,5.84-12.2,11.53-19.38,16-.4.25-.75.6-1.13.89-1.76,1.36-3.38,1.39-4.74.09a3.84,3.84,0,0,1-.41-4.85,36.9,36.9,0,0,1,3.54-4.52c8.32-8.73,16.34-17.77,25.56-25.59a52.48,52.48,0,0,0,11.15-14,50.26,50.26,0,0,0,4.89-12.17c.11-.39.21-.78.33-1.16.77-2.31,2.25-3.35,4.23-2.95C580.91,279.67,582,281.34,581.93,284.53Z" transform="translate(-0.48 -0.48)"/><path class="cls-1" d="M639.21,391.08c4-.14,7.93-.53,11.48-2.76,3.36-2.11,5-5.27,5.88-8.94.52-2.09,1-4.18,1.49-6.28a7.14,7.14,0,0,1,5.85-5.65c3-.67,5.5.62,7.48,2.79a8.37,8.37,0,0,1,2.16,8,98.35,98.35,0,0,1-2.88,9.85c-1.88,5.23-5.69,9.05-10.09,12.17a34.48,34.48,0,0,1-16.87,6.26c-4.77.45-7.08-1.61-9.7-6.26a11,11,0,0,1-1-4.14c-.36-3.17,1.36-5,4.55-5Z" transform="translate(-0.48 -0.48)"/><path class="cls-1" d="M53.3,206.51c-.81-1.56-1.59-2.93-2.24-4.36a18,18,0,0,1-.82-2.74,3.22,3.22,0,0,1,1.28-3.6,3.49,3.49,0,0,1,4-.21c.88.51,1.71,1.11,2.76,1.79-.15-2.27-.33-4.29-.41-6.31a3.53,3.53,0,0,1,2.2-3.42,3.29,3.29,0,0,1,4.6,1.66c.16.36.22.77.35,1.15,1.17,3.37,2.22,4,5.74,3.24a31.51,31.51,0,0,0,4.65-1.12c2.68-1,4.64-2.74,4.87-6-.55-.45-1.12-.87-1.63-1.35a3.47,3.47,0,0,1-.88-3.94A3.16,3.16,0,0,1,81,179.18a47,47,0,0,1,5.88,1,2.13,2.13,0,0,1,1.08.88,10.34,10.34,0,0,1,2,8.8,20.79,20.79,0,0,1-5.11,9.87,8.46,8.46,0,0,0-2.32,8.35,3.53,3.53,0,0,1-2.8,4.52,3.35,3.35,0,0,1-3.78-2.25c-.58-1.39-.85-2.93-2.56-3.53a7.34,7.34,0,0,0-5.6.07c-2.18,1-4.4,1.9-6.51,3A8.91,8.91,0,0,0,56.57,216a6.5,6.5,0,0,1-.65,1.79,3.24,3.24,0,0,1-5.44.4,7.74,7.74,0,0,1-1.12-2.6c-.35-1.31-.52-2.66-.8-4-.52-2.47.4-3.93,2.93-4.59Z" transform="translate(-0.48 -0.48)"/><path class="cls-1" d="M311.58,210.58c-.26.95-.44,1.54-.58,2.15a27.08,27.08,0,0,1-3.1,8,3.3,3.3,0,0,1-3.9,1.6,3.17,3.17,0,0,1-2.41-3.43c.63-5.33-.53-10.37-2.45-15.23-1.74-4.4.8-6.72,4.78-6.42,5.4.4,10.85.08,16.28.08l1.68,0c3.37-.05,4.41.79,4.93,4.17.39,2.52.57,5.08,1,7.59,1.75,9.39.29,18.44-2.71,27.34a15.67,15.67,0,0,1-1,2.42,3.4,3.4,0,0,1-4,1.91,3.25,3.25,0,0,1-2.48-3.63c.84-9.07-2-17.34-5.43-25.5A9.73,9.73,0,0,0,311.58,210.58Z" transform="translate(-0.48 -0.48)"/><path class="cls-1" d="M203.42,351.78a19.47,19.47,0,0,0-7.71-6.33c-4.8-2.22-9.76-3.93-15.19-3.77a3.15,3.15,0,0,1-3.49-3.61,64.58,64.58,0,0,1,1.49-7.5,2.47,2.47,0,0,1,3-1.8,30.65,30.65,0,0,1,6.91,1.71A125.7,125.7,0,0,1,211.5,343.1,17,17,0,0,1,214,345a18.38,18.38,0,0,0,7.51,5,3.19,3.19,0,0,1,2.07,3,20.84,20.84,0,0,1-.63,8.78c-.68,2.13-1.64,2.88-3.84,2.88a27,27,0,0,1-11.85-2.5c-2.66-1.27-5.32-2.56-8-3.72a17.11,17.11,0,0,0-3.23-.78,18.06,18.06,0,0,1-2.1-.37,3.24,3.24,0,0,1-2.14-3.39,3.17,3.17,0,0,1,2.94-3,28.65,28.65,0,0,1,4.53.22C200.62,351.21,202,351.53,203.42,351.78Z" transform="translate(-0.48 -0.48)"/><path class="cls-1" d="M459.51,404.57c.39-1.21.68-2.45,1.17-3.61,1.1-2.57,2.32-5.08,3.45-7.64a67.47,67.47,0,0,1,7.27-12.91,13.83,13.83,0,0,0,1.32-2,55.76,55.76,0,0,1,12.79-15.71c5.78-5.15,12.41-8,20.29-7.65a3.74,3.74,0,0,1,3.17,1.32,3.24,3.24,0,0,1,0,4,30,30,0,0,1-11,10.77c-10.66,5.91-18.73,14.56-25.24,24.72-2,3.15-3.66,6.55-5.47,9.84-.11.2-.18.44-.3.65a4.28,4.28,0,0,1-4.49,2.48C460.76,408.46,459.72,406.9,459.51,404.57Z" transform="translate(-0.48 -0.48)"/><path class="cls-1" d="M156,191.37c-.31,3-.43,6-1,9a18.62,18.62,0,0,1-2.26,5.47,4.26,4.26,0,0,1-6,1.45c-4.32-3-8.89-5.62-12.4-9.7a20,20,0,0,1-4.7-11,6.39,6.39,0,0,1,.38-2.8,23.91,23.91,0,0,1,9.32-12.1c3.57-2.43,6.95-1.5,9.45,1.21A26.05,26.05,0,0,1,156,191.37Z" transform="translate(-0.48 -0.48)"/><path class="cls-1" d="M606,331.36c2.21,2.69,3.92,5.67,6.84,7.59s3.41,3.19,2.3,6.43c-.52,1.51-1.16,3-1.82,4.43-1.11,2.41-4,3.52-6.29,1.24a21.57,21.57,0,0,0-6.73-4.51,22.84,22.84,0,0,1-3.29-2,3.63,3.63,0,0,1-1.58-4.13c1.13-6.12,2.13-12.27,3.11-18.41a19.68,19.68,0,0,0,.06-3.35,3.24,3.24,0,0,1,2.12-3.42c4.88-1.76,9.79-3.48,15.1-3.41,3.08.05,4.29,1.24,3.95,4.3-.47,4.12-1,8.24-1.72,12.33-.48,2.92-2.56,4-5.31,2.9A8.37,8.37,0,0,0,606,331.36Z" transform="translate(-0.48 -0.48)"/><path class="cls-1" d="M559.37,279.88c-.15,2.22-.26,5.49-.6,8.73-.56,5.34-3,9.93-6.26,14.06-2.47,3.12-5.2,6.06-7.86,9a5.22,5.22,0,0,1-1.72,1.25,3.57,3.57,0,0,1-4.16-.86,3.49,3.49,0,0,1-.19-4.22c1.85-3.26,3.55-6.62,5.54-9.8,3.81-6.07,5.13-12.83,5.93-19.79a87.52,87.52,0,0,0-2.85-34.19,6.76,6.76,0,0,1-.28-1.16,3.36,3.36,0,0,1,2.17-3.61,3.11,3.11,0,0,1,3.81,1.17,8.71,8.71,0,0,1,1.21,2.84c1,4.75,2.08,9.51,3,14.3.66,3.53,1.26,7.09,1.63,10.66S559.13,275.31,559.37,279.88Z" transform="translate(-0.48 -0.48)"/><path class="cls-1" d="M568.16,417.45c-2.64,0-4.72,1.31-6.82,2.58a10.74,10.74,0,0,1-3.21,1.44,3.12,3.12,0,0,1-3.64-1.64,3.17,3.17,0,0,1,.66-4c1.55-1.6,3.18-3.14,4.88-4.59,4.83-4.11,9.92-7.81,16.3-9.2,1.25-.27,2.48-.61,3.75-.79a3.35,3.35,0,0,1,3.92,2,39,39,0,0,1,4.86,15.41c.24,3-.71,4.47-3.73,5.07-2.66.54-5.36.89-8,1.5-3.73.87-7.44,1.81-10.66,4.07a3.31,3.31,0,0,1-4.4-.22,4.61,4.61,0,0,1-1.15-5.26,7.06,7.06,0,0,1,1.68-2C564.42,420.37,566.3,418.93,568.16,417.45Z" transform="translate(-0.48 -0.48)"/><path class="cls-1" d="M153.58,230.8c1.93,1.88,3.78,3.69,4.52,6.24a6.8,6.8,0,0,1,.24,3,3.4,3.4,0,0,1-4.76,2.57,3.75,3.75,0,0,0-1.83-.35c.68,1.28,1.35,2.57,2.06,3.84a30.1,30.1,0,0,1,1.56,2.68,3.34,3.34,0,0,1-5.62,3.49A19.38,19.38,0,0,1,148,250a16.17,16.17,0,0,0-7.48-6.08c-2.49-1.06-3.1-2.38-2.36-4.93,1.45-5,1.22-10.13,1.38-15.23a6.47,6.47,0,0,0-2.12-4.92,26.19,26.19,0,0,1-3.18-3.57,3.4,3.4,0,0,1,5.09-4.48,21.84,21.84,0,0,0,7.15,4.23c4.59,1.91,8.55,4.6,10.56,9.5,1.37,3.35.54,5.13-3,5.87C153.87,230.45,153.75,230.65,153.58,230.8Z" transform="translate(-0.48 -0.48)"/><path class="cls-1" d="M586.83,232.24c-.41-2.51-.81-5-1.23-7.54-.07-.47-.28-.92-.35-1.39a3.49,3.49,0,0,1,4.84-3.94c4.47,1.71,8.47,4.07,11.18,8.24a5.33,5.33,0,0,1,1.05,4,24.09,24.09,0,0,1-.7,3.52c-2.34,6.71-4.23,13.6-7.81,19.81a52.08,52.08,0,0,1-4.14,6.15,9.61,9.61,0,0,1-3.1,2.56,3.15,3.15,0,0,1-4.68-2.18c-.89-6.06-1.24-12.08,1.88-17.78C586.28,239.13,586.56,237.41,586.83,232.24Z" transform="translate(-0.48 -0.48)"/><path class="cls-1" d="M179.87,398.45c.54-3.95,1-7.9,1.62-11.84a3.7,3.7,0,0,1,3.08-3.26c1.69-.4,3.25-.26,4.33,1.2,3.66,4.94,7.23,9.94,10.88,14.89a4.39,4.39,0,0,1,.52,4.73A17.19,17.19,0,0,1,199,407c-2.81,4.23-4.56,9-6.56,13.58a4.54,4.54,0,0,1-2.22,2.69,3.45,3.45,0,0,1-4.1-1,6.87,6.87,0,0,1-.82-1.45A62.46,62.46,0,0,1,179.87,398.45Z" transform="translate(-0.48 -0.48)"/><path class="cls-1" d="M171.4,362.31c.18-.88.46-2.62.95-4.3a3.34,3.34,0,0,1,4.06-2.5c6.11,1.27,11.49,3.86,15.4,8.94,2.25,2.9,4.55,5.76,6.74,8.71a10.19,10.19,0,0,0,5.38,3.79c1.6.49,3.24.85,4.85,1.3a11.45,11.45,0,0,1,2.46.89,3.29,3.29,0,0,1,1.39,4.88,44.72,44.72,0,0,1-2.78,4.19,3,3,0,0,1-3.61,1.18,10.35,10.35,0,0,1-2.81-1.27,37.71,37.71,0,0,1-9-8.87,68.1,68.1,0,0,0-4.76-5.7,5.79,5.79,0,0,0-1.78-1.19,53.69,53.69,0,0,0-13.47-4.85C172.05,367.06,171.23,365.83,171.4,362.31Z" transform="translate(-0.48 -0.48)"/><path class="cls-1" d="M506,392c3.39.1,6,3.78,5.13,6.4a8.24,8.24,0,0,1-3.16,4.41,47.2,47.2,0,0,1-7.19,4.26c-3.58,1.53-7.38,2.56-11.06,3.87a10.64,10.64,0,0,0-3.21,1.56c-2.79,2.25-5.53,4.57-8.14,7-1.74,1.65-3.32,2.13-5.28.73a11.94,11.94,0,0,1-2.87-3.14,3.11,3.11,0,0,1,.15-3.42c3.59-5.88,8.47-10.14,15.22-12,2.85-.79,5.73-1.49,8.5-2.49a31.56,31.56,0,0,0,9.55-5.88A11.17,11.17,0,0,1,506,392Z" transform="translate(-0.48 -0.48)"/><path class="cls-1" d="M116.67,199a11.28,11.28,0,0,0-2.1-7.22,34.68,34.68,0,0,1-2.45-4.1,8.17,8.17,0,0,1-.7-5.6,3.24,3.24,0,0,1,3-2.6c1.59-.09,3.24.85,3.38,2.44.35,3.86,2.77,6.59,5,9.38,2.42,3.08,2.39,6.51,2,10-.21,2-3,3.46-5.28,3.12-1.88-.28-3-1.78-3-4C116.6,200,116.64,199.48,116.67,199Z" transform="translate(-0.48 -0.48)"/><path class="cls-1" d="M97.87,193c-.4-2.09-.8-4.19-1.22-6.29-.1-.55-.29-1.09-.36-1.64a3.3,3.3,0,0,1,2.23-3.77,3.24,3.24,0,0,1,4,1.71,27.76,27.76,0,0,1,2.88,12.72c0,1.19-.13,2.39-.22,3.58a3.31,3.31,0,0,1-2.48,3.15A3.39,3.39,0,0,1,99,200.87a9.42,9.42,0,0,1-1.47-5.22c0-.88,0-1.75,0-2.63Z" transform="translate(-0.48 -0.48)"/><path class="cls-1" d="M104,218.83a3.26,3.26,0,1,1-3.21-3.22A3.35,3.35,0,0,1,104,218.83Z" transform="translate(-0.48 -0.48)"/></svg>