<svg id="Layer_1" data-name="Layer 1" xmlns="http://www.w3.org/2000/svg" viewBox="0 0 720 612"><defs><style>.cls-1{fill:none;stroke:#000;stroke-miterlimit:10;stroke-width:0.01px;}</style></defs><path d="M.48,612.48V.48h720v612Zm259.9-291.55,0-.23h5l8.4,0a8.45,8.45,0,0,0,7.69-4.48,32.4,32.4,0,0,0,3-6.24,396.9,396.9,0,0,0,10.72-45.71,89.12,89.12,0,0,0,1.51-20c-.16-3.6-1.13-6.74-4-9.14s-5.93-5.13-8.92-7.65c-8.94-7.55-18.31-14.48-28.9-19.62a106,106,0,0,1-10.18-5.35,10,10,0,0,0-6.37-1.36q-4.19.27-8.39.38a62.28,62.28,0,0,0-16.29,2.6c-5.23,1.55-4.23.19-6.84,5.67A249.64,249.64,0,0,0,194.7,240c-1.92,5.93-3.62,11.93-5.61,17.83a183.19,183.19,0,0,0-6.26,22.63c-1.55,7.67-2.77,15.42-4.51,23-.82,3.61.77,5.44,4.12,6.09a22.34,22.34,0,0,1,2.52.68c3.72,1.21,7.37,2.67,11.15,3.61a154.3,154.3,0,0,0,24.83,4C234.08,319,247.23,319.92,260.38,320.93Zm34-8.18.14,0c.07,1.6.07,3.2.25,4.79a6.41,6.41,0,0,0,5.17,5.55c3.68.73,7.37,1.44,11,2.16,8.56,1.67,17.11,3.29,25.84,3.81,3.83.22,7.68.29,11.47.8a15.51,15.51,0,0,0,6.82-.66c1-.3,2-.64,2.94-1l16.88-6.86A186.66,186.66,0,0,0,399,309.07c3.62-2.13,6.37-5,7.25-9.35.54-2.66,1.51-5.23,2.07-7.88.82-3.9,1.62-7.83,2.1-11.78a10.69,10.69,0,0,0-3.78-10.2C391.41,256.58,376,243.51,360,231.15a48.23,48.23,0,0,0-6.72-4.16,8.68,8.68,0,0,0-3.66-.91,91.86,91.86,0,0,0-21.28,1c-5,.94-10,2.06-15,3.14a5.21,5.21,0,0,0-4.09,3.64c-1.44,4.32-3.11,8.57-4.37,12.93-1.15,4-1.8,8.11-2.82,12.14a172,172,0,0,0-4,22.64c-.43,3.73-.81,7.46-1.24,11.19Q295.56,302.77,294.35,312.75Zm11.39-91.63,0-.4c2,0,4,.14,6,0q23.3-1.87,46.58-3.86c3.59-.3,7-1,10.13-3.16,11.62-8.05,23.37-15.92,35.07-23.86,3.7-2.51,7.35-5.11,11.13-7.5,2.65-1.69,4.07-6.91,1.62-9a40.23,40.23,0,0,0-6.46-4.85,55,55,0,0,0-8.56-3.69,266.06,266.06,0,0,0-56.54-13.39,111.87,111.87,0,0,0-19.61-1.09,36.48,36.48,0,0,0-6.62.76,24.35,24.35,0,0,0-5,2.23,173.8,173.8,0,0,0-27.26,17.33c-8.3,6.39-16.31,13.14-23.2,21.08a20.63,20.63,0,0,0-2.2,3.12,4.45,4.45,0,0,0,.27,5.18c1,1.42,2.06,2.85,3.19,4.19,4,4.73,9.31,7.74,14.82,10.34,2.8,1.33,5.76,2.33,8.66,3.46a23,23,0,0,0,4.9,1.79C297,220.38,301.38,220.69,305.74,221.12ZM171.65,188.39c-1,.29-2,.48-3,.86-10.44,4.22-20.86,8.48-31.3,12.7a8.48,8.48,0,0,0-4.64,4.25c-3.05,6.15-6.2,12.26-9.29,18.39q-11.85,23.53-23.72,47.07c-2,4-4,8-4.53,12.53a6.07,6.07,0,0,0,1.15,4.72c5,6.68,12.11,9.65,19.94,10.6,11.25,1.37,22.59,2,33.89,3.05,3.42.3,6.82.75,10.22,1.2a4.88,4.88,0,0,0,5.54-3.52Q178.68,264,191.4,227.69c1.75-5,3.43-10,5.1-15a4.67,4.67,0,0,0-1.56-5.38c-2.05-1.78-4.05-3.62-6.09-5.42q-6.84-6-13.7-12A5.59,5.59,0,0,0,171.65,188.39Zm247.91,75.34c1.32,0,2.11.07,2.9,0q25.64-2.43,51.28-4.92a12.1,12.1,0,0,0,8.28-4.27,21.24,21.24,0,0,0,4.1-7.25c2-6,3.94-12,5.74-18a5.75,5.75,0,0,0-2-6.41c-12.67-11-25.5-21.81-39.62-31-5.91-3.83-12-7.34-19-8.81a8,8,0,0,0-5.11.52,207.85,207.85,0,0,0-48.82,30c-2.89,2.36-5.89,4.66-8.18,7.68-1.76,2.34-1.88,3.26-.1,5.52a46.85,46.85,0,0,0,5.23,5.59c6.46,5.84,13,11.6,19.55,17.35a32.07,32.07,0,0,0,4.75,3.65c5.15,3,10.38,6,15.61,8.88C416,263.35,417.91,264.06,419.56,263.73Zm-28.92,231.2c2.94-.75,4.32-3.26,5.49-5.95a9.73,9.73,0,0,0,.49-1.1c.85-3.17,2.84-5.69,4.75-8.26a5.34,5.34,0,0,1,1.32-1.36q3.92-2.52,7.9-4.93a96.21,96.21,0,0,0,12.11-8.12,49.1,49.1,0,0,0,11-12.85c1.56-2.6,3.09-5.23,4.69-7.81a26.06,26.06,0,0,0,3.72-9.79,165.33,165.33,0,0,0,1.79-24.85,71,71,0,0,0-3.65-22.39c-.74-2.28-1.63-2.9-4-3a12,12,0,0,0-2.16,0c-3.71.54-7.42,1.07-11.11,1.73a20.57,20.57,0,0,0-8.25,3.66A73.49,73.49,0,0,0,396,409.69c-4.63,7-8,14.57-11.39,22.14a54.68,54.68,0,0,1-4.59,8.94,8.75,8.75,0,0,1-3.48,3.11,58.39,58.39,0,0,0-17.8,13.22,56.55,56.55,0,0,0-8.45,12.18c-1.71,3.25-1.76,4.87.92,7.51a4.59,4.59,0,0,1,1.1,2.29,20.07,20.07,0,0,1-2.26,13.44c-1.53,2.86,0,5.42,3.25,5.33a5.1,5.1,0,0,0,2.1-.4c2-1,3.95-2.07,5.91-3.12.79-.43,1.54-1.68,2.43-.85.53.49.5,1.75.44,2.64a9.74,9.74,0,0,1-.75,2.77c-1,2.53-2,5-3.07,7.55-1.13,2.77.54,5.11,3.5,4.83a8.88,8.88,0,0,0,6-2.74c1.78-1.94,3.51-3.93,5.29-5.88,1-1.06,1.56-1.12,2.27,0,1.8,2.89,4.32,5.36,5.23,8.81a3.06,3.06,0,0,0,3.27,2.29,3.26,3.26,0,0,0,3.16-2.48,6.68,6.68,0,0,0,.22-1.41C389.74,505,390.17,500.18,390.64,494.93Zm227.2-210.4a62.37,62.37,0,0,1,6.58,1.15c5,1.41,10.79,6.68,10.22,13.73a17.54,17.54,0,0,1-1.38,6.51,3.22,3.22,0,0,0,.49,3.79,3.36,3.36,0,0,0,3.75.83,4.51,4.51,0,0,0,1.53-.68c2.8-2.24,5.68-4.4,8.29-6.85a15,15,0,0,0,2.82-4.39c.82-1.67.45-3.24-.52-4.95-2.24-3.95-4.15-8.09-6.16-12.16a2.71,2.71,0,0,1,.53-3.3c3.09-3.34,6.49-6.14,11.09-7.17a11.78,11.78,0,0,0,3.51-1.47,3.29,3.29,0,0,0,1.1-4.61,6.45,6.45,0,0,0-1.47-1.87,39,39,0,0,0-4.66-3.36c-2.41-1.41-5-2.53-7.42-3.9A54.29,54.29,0,0,0,630.48,250c-15.85-3.22-31.68-2.52-47.36.87a82.74,82.74,0,0,0-46.71,27.85,9.7,9.7,0,0,0-1.22,1.76c-1,1.88-.62,3.76,1.16,4.82,4,2.38,7.92,4.83,12.57,5.76a12.54,12.54,0,0,1,6.81,3.28,50.6,50.6,0,0,1,5.31,6.47,25.43,25.43,0,0,0,7.16,7.27,10.59,10.59,0,0,0,10.91.77c2.16-1,4.33-2.06,6.54-3a37.27,37.27,0,0,0,16.44-13.15C606,287.36,611.05,284.46,617.84,284.53Zm4,149.82c4.28,1.5,8.19,2.38,11.59,4.64a3.33,3.33,0,0,0,4.71-.68c1.13-1.44.94-3.25-.51-4.75-.44-.46-.94-.87-1.36-1.34-4.69-5.25-9.46-10.43-14-15.8a40.29,40.29,0,0,1-5.83-8.45c-3.61-7.66-6.91-15.48-10.07-23.34a6.75,6.75,0,0,0-4.36-4.36,37.61,37.61,0,0,0-6.52-1.52,135.74,135.74,0,0,0-32.54.46,5,5,0,0,0-3.48,1.87c-1.56,1.93-3.17,3.82-4.75,5.73a16.66,16.66,0,0,0-3.8,11.09,21.34,21.34,0,0,0,2.87,10.77,47.19,47.19,0,0,0,16.75,17.13c2.41,1.44,2.85,3.17,2.72,5.5a15.9,15.9,0,0,1-.33,2.37c-.32,1.49-.7,3-1.07,4.43-.61,2.41-.3,3.81,1.1,4.77s3.22.81,5.06-.6a22,22,0,0,0,2.06-1.66,3.15,3.15,0,0,1,2.86-.86,25.67,25.67,0,0,1,2.59.49c4,1.05,4.43,1.73,4.13,5.84a22.26,22.26,0,0,1-1.82,8.13,3.38,3.38,0,0,0,1.33,4.6c1.52.88,3.09.58,4.45-1s2.47-3.13,3.65-4.74c.73-1,1.36-2.06,2.13-3.25,2.57,2.94,5,5.66,7.36,8.47a3.32,3.32,0,0,0,5.81-.77,6.06,6.06,0,0,0,.32-2.12c0-2.63-.13-5.27-.19-7.91,0-1,0-2,0-3,.44.08.63.06.73.14,2.16,1.78,4.37,3.46,5.24,6.36a3.08,3.08,0,0,0,3.73,2.25,3.2,3.2,0,0,0,2.71-3.42,8.64,8.64,0,0,0-.3-2.36c-.47-1.85-1.11-3.67-1.53-5.53C622.75,439.57,622.37,437.22,621.84,434.35ZM469.09,266v.22c-6.13.38-12.27.85-18.41,1.12a118.77,118.77,0,0,0-21.82,2.85,6.69,6.69,0,0,0-4.83,3.57,56.28,56.28,0,0,0-3.17,7.73,39.43,39.43,0,0,0-1.35,18,7.32,7.32,0,0,0,4.42,6.06c.44.19.85.46,1.3.63a93.28,93.28,0,0,1,13.26,6.64,57.11,57.11,0,0,0,6.28,3c5.61,2.3,11.32,4.38,16.88,6.81,6.09,2.66,12.17,5.2,18.78,6.38a6.19,6.19,0,0,0,5.74-1.42c3.29-3,6.62-6,9.87-9.1a60,60,0,0,0,9.89-11.67c1.92-3.05,2.28-6.82.3-9.31-8.11-10.25-17.77-19-26.48-28.71-.27-.29-.58-.55-.87-.83a6.78,6.78,0,0,0-5-1.93ZM200.92,199.43l9.53-1.08,36.22-4a12,12,0,0,0,6.53-2.59c10.8-8.63,21.71-17.13,32.58-25.67,4-3.16,8-6.35,12.08-9.47a4.71,4.71,0,0,0-1.81-8.58,9.4,9.4,0,0,0-1.18-.21c-4.37-.45-8.74-1.28-13.11-1.26-10.39.05-20.78.41-31.16.81A159,159,0,0,0,224,150.68c-3.91.83-7.85,1.57-11.15,4.08-5.09,3.87-10.28,7.63-14.62,12.37q-6.81,7.41-13.39,15c-1.7,2-1.57,4-.08,6.15a22.73,22.73,0,0,0,6.17,6,27.82,27.82,0,0,1,3.69,2.65A8.8,8.8,0,0,0,200.92,199.43Zm30.31,188c2.94-.26,6.22-.42,9.45-.88,2.85-.4,5.27-3.88,4.9-6.73-1.14-8.72-2.32-17.42-3.44-26.14-.7-5.46-1.59-10.92-1.92-16.41-.39-6.26-4.87-12.37-11.75-13.58-5.75-1-11.44-2.32-17.2-3.21-5.2-.8-10.46-1.36-15.71-1.74-4.62-.34-8.57,2.4-9,7.3a47.54,47.54,0,0,0,0,5.47c.21,7.51.42,15,.69,22.53a54.42,54.42,0,0,0,.51,6c.58,3.87,1.19,7.73,2,11.57.49,2.41,1.23,4.78,2,7.14a5.33,5.33,0,0,0,3.35,3.55,66.72,66.72,0,0,0,8.2,2.61C212.36,386.84,221.62,387.23,231.23,387.39ZM418.4,312.18a12.57,12.57,0,0,0-1.47,0c-.55.08-1.09.23-1.64.34-7,1.5-12.66,5.52-18.08,10a6.56,6.56,0,0,0-.95,1.08,3.92,3.92,0,0,0-.3,5.09c3,4.65,6,9.26,9,13.89a41.86,41.86,0,0,1,2.18,3.71c2.64,5.2,5.33,10.35,9.09,14.9,2.38,2.88,4.44,6,6.63,9.07.84,1.17,1.61,2.39,2.47,3.53a3.44,3.44,0,0,0,4,1.34c1.76-.51,3.56-.91,5.33-1.41,10.71-3,20.05-8.63,28.89-15.18a69.6,69.6,0,0,0,16-16c1.45-2.08,1.11-4.09-1.14-5.44-1.23-.73-2.55-1.31-3.8-2a127.58,127.58,0,0,0-18-8.5q-5.37-2-10.63-4.34a178.71,178.71,0,0,0-24.61-9.35C420.26,312.51,419.08,312.32,418.4,312.18ZM277.53,392.67c4.07-.21,8.14-.39,12.2-.66a51.14,51.14,0,0,0,6.67-.72c5.34-1.1,7.05-3.36,6.53-8a97.4,97.4,0,0,0-2.11-12.73,252.11,252.11,0,0,1-5.7-27.17,13.89,13.89,0,0,0-3.49-7.5c-2.18-2.43-4.64-4.62-6.91-7a8.66,8.66,0,0,0-7.39-2.61c-7.73.57-15.45,1.09-23.18,1.69a17.58,17.58,0,0,0-4,.76,4.19,4.19,0,0,0-3.3,4.42,187.19,187.19,0,0,0,2.84,25.21c1.51,8.24,3.22,16.44,6.47,24.24a13.89,13.89,0,0,0,9.1,8.18A35.2,35.2,0,0,0,277.53,392.67Zm179.09,28.5c1.75-.5,3.55-.88,5.25-1.51,3.37-1.26,6.66-2.71,10-4,12.37-4.8,24.72-9.66,36.48-15.85,9.33-4.91,18.5-10.09,28.34-14,2.91-1.16,5.46-3.26,8.09-5.05a3.4,3.4,0,0,0,1.37-4c-.43-1.4-1.7-2.2-3.59-2.26s-4,0-6-.13c-12.22-.63-24.44-1.18-36.64-2-7.42-.47-14.82-1.22-22.21-2-2.67-.28-5.41-.36-8-1.51a3.3,3.3,0,0,0-2.51.21q-8.22,4.18-16.33,8.58c-1.69.92-2.1,2.43-1.6,4.3s1.07,3.69,1.4,5.57c1.62,9.41,1.62,18.93,1.58,28.44C452.3,419.43,453.35,420.91,456.62,421.17Zm-384-8.65A2.35,2.35,0,0,1,74,415.26c-.16,2.15-.43,4.29-.56,6.44a3.32,3.32,0,0,0,6.21,2,12.38,12.38,0,0,0,1.33-2.8c3.06-9.59,6.14-19.17,9.09-28.79A30.65,30.65,0,0,0,91.6,381.7c-.09-2.21.1-4.57-2.27-5.94a.87.87,0,0,1-.36-.58c-.3-2.3-2.06-3.4-3.8-4.33q-10.76-5.79-21.61-11.39c-1.84-.95-3.81-1.66-5.7-2.5a4.14,4.14,0,0,0-5.2,1.13,40.59,40.59,0,0,0-4,5.07A89.25,89.25,0,0,0,37,390.59c-1.89,8.07-4,16.09-6.07,24.13a3.64,3.64,0,0,0,4.23,4.73,6.05,6.05,0,0,0,3.92-2.11c1-1.25,1.9-2.56,2.88-3.82.51-.65,1.11-1.22,1.85-2,.53.84,1.09,1.34,1.14,1.89a76.16,76.16,0,0,1,.35,7.84c0,1.89.69,3.5,2.3,4a3.5,3.5,0,0,0,4.3-2.12q2.63-5.5,5.29-11c.79-1.63,1.14-1.8,2.77-1.63a2.6,2.6,0,0,1,2.69,2.26,8.67,8.67,0,0,1,.17,1.9c0,2.4,0,4.8,0,7.19,0,.16,0,.32,0,.48,0,2.11.86,3.4,2.57,3.79a3.27,3.27,0,0,0,3.87-2.39c1-2.94,1.87-5.93,2.79-8.91C72.21,414.07,72.42,413.34,72.66,412.52Zm495.42-66c2.86.12,4-.51,4.72-2.15s.19-3.27-1.54-4.6a12.78,12.78,0,0,0-3.08-1.81c-3-1.14-6.15-1.84-9-3.24-8-4-15.88-8.27-23-13.81a42.62,42.62,0,0,1-11-12.17c-1.77-3.06-4.35-3.58-7.27-1.56a12,12,0,0,0-2.43,2.29c-1.21,1.48-2.2,3.14-3.44,4.59-3,3.52-5.93,7.13-9.2,10.39-9.36,9.37-17.83,19.42-24.47,30.93a20.19,20.19,0,0,1-1.35,2c-1.5,1.95-1.4,3.58.34,5.27a14.42,14.42,0,0,0,7.24,3.53,61.69,61.69,0,0,0,19.53,1.23c4.34-.47,8.6-1.7,12.92-2.48a4.73,4.73,0,0,0,3.56-2.51,22,22,0,0,1,5.5-6.26,54.63,54.63,0,0,1,11.52-6.82c8.4-3.95,17.11-5.57,26.32-3.39A37.46,37.46,0,0,0,568.08,346.54ZM323.83,335.42A59,59,0,0,0,309.56,337c-2.44.59-4.19,1.95-4.45,4.66-.25,2.54-.64,5.08-.67,7.63a75.64,75.64,0,0,0,1.82,17.61A114.18,114.18,0,0,0,313.18,389a6.7,6.7,0,0,0,6.75,4c3.59-.13,7.18-.35,10.78-.43A219.82,219.82,0,0,0,354.62,391c3.11-.41,4.22-1.35,4.45-4.52a37.93,37.93,0,0,0-.2-6.21c-.36-4-.78-7.95-1.3-11.91a75.09,75.09,0,0,0-1.66-10.15c-1.33-4.93-3.11-9.73-4.71-14.59a7.66,7.66,0,0,0-5.41-5A75.31,75.31,0,0,0,323.83,335.42Zm-195,2.64h-.4c-.11-8.56-.21-17.11-.35-25.66,0-3.15-1.13-4.59-4.19-5.22-9.07-1.89-18.15-3.7-27.24-5.49a4.24,4.24,0,0,0-4.79,2.4A58,58,0,0,0,88.35,312c-3,9.28-4,18.9-4.25,28.59-.14,4.71.14,9.44,0,14.15a7,7,0,0,0,2.65,6.07c6.68,5.34,14.58,7.37,22.83,8.47,4.64.62,9.23.06,13.83-.58,4-.56,5.29-1.81,5.33-5.92C128.82,354.52,128.78,346.29,128.78,338.06ZM178.7,348h.19q0-12.93,0-25.86a4.47,4.47,0,0,0-.22-1.41c-1.74-5.31-4.41-8.49-10.45-9-1.91-.17-3.82-.31-5.73-.45l-17.92-1.32a6.53,6.53,0,0,0-4.26,1.29c-3.07,2.1-4,5-3.54,8.53a38.45,38.45,0,0,1,.39,4.28c0,3.91,0,7.81,0,11.72.13,9.42.44,18.85.38,28.28,0,3.39,1.56,5.53,3.88,7.51s5.3,2.82,8.32,3.34q11.67,2,23.34,4.15a4.79,4.79,0,0,0,5.85-4.94c0-1-.23-2.07-.23-3.1C178.69,363.31,178.7,355.65,178.7,348Zm437,5.55c2.15-.14,5.59-.26,9-.64,2.91-.32,4.38-2,4.62-4.91a18.85,18.85,0,0,0-.07-3.83c-.86-6.73-1.85-13.46-1.37-20.28.27-3.86-1-5-5.22-5.53-.31,0-.63,0-.95,0-2.64,0-5.28.07-7.91-.11a23.05,23.05,0,0,1-14.88-6.41,5.07,5.07,0,0,0-6.24-1.16c-5.06,2.18-10.13,4.32-15.2,6.47-.66.28-1.34.54-2,.77a5.94,5.94,0,0,1-6.43-1.29c-.93-.87-1.78-1.83-2.64-2.77-5.11-5.54-10.31-10.79-17.72-13.45-5-1.8-9.68-4.55-14.47-6.94-1.5-.75-2.88-.93-4.24.17a3.5,3.5,0,0,0-.82,4.37c2.17,5.09,4.71,9.94,8.62,14a65.61,65.61,0,0,0,13.7,10.42,123.78,123.78,0,0,0,18.64,9.32c2.89,1.15,5.7,2.5,8.56,3.75a6.54,6.54,0,0,1,4,5,11.93,11.93,0,0,0,1.59,3.69c1.6,2.64,4.11,4.16,6.91,5.31C598.63,352.52,606.42,353.55,615.68,353.53Zm20.35-15c0,1.16,0,2.68,0,4.2.06,3.61,2.54,5.41,6.11,4.72a18.39,18.39,0,0,1,5.44-.24,38.21,38.21,0,0,1,7,1.49c4.31,1.35,8,3.49,9.75,8.08a3.1,3.1,0,0,0,5.09,1.41,24.34,24.34,0,0,0,5-5.44c6.65-11.25,10.28-23.31,9.07-36.55a5.07,5.07,0,0,0-2-3.91,35.67,35.67,0,0,0-4.37-2.91,6.77,6.77,0,0,1-3.53-4.31,10.79,10.79,0,0,1,2.34-10.74c2.42-2.67,2.57-5.11.89-8a13,13,0,0,0-.87-1.43c-2.71-3.54-5.18-7.33-8.26-10.53-3.29-3.42-5.67-3.64-9-1-1.93,1.56-3.74,3.25-5.67,4.81a5.26,5.26,0,0,0-1.94,5.08,20.85,20.85,0,0,0,2.78,8.08c1.27,2.3,2.86,4.41,4.19,6.68,1,1.8.89,2.58-.64,4-6.53,6-13.19,11.86-20.86,16.42-2.24,1.33-2.65,2.36-2.15,5A67.79,67.79,0,0,1,636,338.51ZM118.52,376.62v.1c-1.44,0-2.88,0-4.32,0-2,0-4-.06-6,.06a4.2,4.2,0,0,0-4,3c-.62,1.84-.54,3.66,1.06,5.07a17.26,17.26,0,0,0,2.25,1.76q6.61,4.13,13.28,8.16c7.47,4.51,15,8.81,23.54,11.13,6.39,1.74,12.84,3.37,19,5.67a234.37,234.37,0,0,0,30.11,8.74c2.8.63,5.55,1.47,8.36,2.08a3.49,3.49,0,0,0,4-1.85c.74-1.4.35-2.95-1-4.31-2.43-2.43-4.94-4.79-7.24-7.33a51.77,51.77,0,0,1-7.24-9.52,39.67,39.67,0,0,0-6.93-9.72,6.32,6.32,0,0,0-3-1.74c-3.44-.64-6.95-1-10.42-1.48a158.46,158.46,0,0,1-27.53-6.22A75.24,75.24,0,0,0,130,377.14C126.23,376.57,122.35,376.76,118.52,376.62ZM384,329.68A19.75,19.75,0,0,0,381,330c-5.16,1.4-10.3,2.86-15.44,4.33a6.74,6.74,0,0,0-4.23,4,14.84,14.84,0,0,0-1,9.6c1.57,7.51,3.2,15,4.81,22.5a82.87,82.87,0,0,0,2.07,9.33c2,6,6.6,8.47,12.76,7.35a126.16,126.16,0,0,0,28.89-8.51c2.05-.91,3.05-2.14,3.06-4.32a19.51,19.51,0,0,0-2.08-9.5c-1.43-2.68-3-5.28-4.39-8a160.46,160.46,0,0,0-15.26-24.06C388.61,330.72,386.82,329.23,384,329.68ZM363.23,438.19v.13c3.27-.17,6.55-.3,9.82-.5a3.91,3.91,0,0,0,3.83-3.06,18.81,18.81,0,0,0,.44-2.11,43,43,0,0,1,2.5-10,77.91,77.91,0,0,1,12.1-20.05c1.52-1.83,2.76-3.89,4.18-5.81,1.74-2.34.71-5.6-3.08-6a11.17,11.17,0,0,0-4.19.71c-3.51,1.06-6.94,2.45-10.49,3.34A94,94,0,0,1,366.81,397c-7.3.87-14.63,1.46-21.94,2.23-4.13.44-8.24,1.33-12.36,1.39a6.85,6.85,0,0,0-6.09,6c-.08,3.1,1.67,5.22,3.52,7.35,2.26,2.59,4.55,5.15,6.71,7.81,3.64,4.49,7.39,8.84,12.49,11.79a12.59,12.59,0,0,1,1.62,1.41c2.34,2,4.82,3.66,8.16,3.33A41.27,41.27,0,0,1,363.23,438.19Zm-80.35-38.68c-5.66.28-11.33.48-17,.87a4.59,4.59,0,0,0-3.78,7.14,33.35,33.35,0,0,0,2.87,4.41c8.2,10.14,17.85,18.48,29.89,23.79a29.52,29.52,0,0,0,6.45,2.43c8.89,1.55,17.8,3.06,26.85,3.27,4.24.09,8.47.15,12.71.08,2.48-.05,4-1.91,3.56-4.07a4,4,0,0,0-2.24-2.94c-2.1-1-4.19-2-6.3-2.94a33,33,0,0,1-10.52-7.38,140.06,140.06,0,0,1-12.7-16.23,9.48,9.48,0,0,1-1.17-2.59,5.37,5.37,0,0,0-4.76-4.07A151.45,151.45,0,0,0,282.88,399.51Zm318.64-27.88v-.06c4.32.15,8.63.34,12.94.47,8.55.26,17.1.44,25.65.75a22.35,22.35,0,0,0,12.54-3.09,18.34,18.34,0,0,0,6.57-6.13,3.23,3.23,0,0,0-1.39-5,20.08,20.08,0,0,0-4.3-1.42,27.53,27.53,0,0,0-11.43.21c-4.38.88-8.74,1.88-13.11,2.82a21.75,21.75,0,0,1-10.21,0c-2.08-.54-4.23-.82-6.35-1.2a138.81,138.81,0,0,1-16.83-3.7c-14.06-4.37-28.44-4.83-43-2.87A41.59,41.59,0,0,0,534.81,359a26.07,26.07,0,0,0-4.12,3.6,3.35,3.35,0,0,0-.77,4.17c.84,1.52,2.2,1.84,3.85,1.85,2.79,0,5.59.17,8.37.38,8.69.65,17.36,1.59,26.05,2C579.29,371.39,590.41,371.41,601.52,371.63ZM70.79,273.73c.2,1.57.36,3.15.59,4.72a4.59,4.59,0,0,0,3.4,4,38.7,38.7,0,0,0,6.54,1.33,5.68,5.68,0,0,0,5.86-2.94c1.27-2.22,2.61-4.4,3.8-6.65,5.68-10.72,11.56-21.34,16.9-32.23,4.63-9.45,8.65-19.21,12.91-28.84,1.39-3.13,2.79-6.25,4-9.44a4.37,4.37,0,0,0-1.6-5.49c-1.88-1.29-3.95-1.07-5.9.64a325.57,325.57,0,0,0-25.81,25c-2.3,2.54-4.8,5-6.55,7.92A150.52,150.52,0,0,0,77,247C73.12,255.43,71.61,264.48,70.79,273.73ZM214.43,393.07c-5.2,0-9,0-12.71,0a3.46,3.46,0,0,0-3.51,4.69,7.86,7.86,0,0,0,1.45,2.72c2.38,2.87,4.81,5.71,7.33,8.46,2.75,3,5.66,5.86,8.44,8.84a31.1,31.1,0,0,0,15.81,9.45c5.6,1.3,11.23,2.47,16.86,3.63q10.78,2.24,21.6,4.35a3.42,3.42,0,0,0,4.06-1.76,3.67,3.67,0,0,0-1.12-4.5c-3.19-2.91-6.35-5.84-9.53-8.76a46,46,0,0,1-9.73-13c-.91-1.78-1.84-3.55-2.66-5.37-1.54-3.36-4-5.54-7.71-6.08-.4,0-.78-.17-1.18-.25A127.61,127.61,0,0,0,214.43,393.07Zm286-160.26c-2.28.13-3.65.87-4.52,2.36a23.85,23.85,0,0,0-2,3.83c-2.36,6.61-4.72,13.22-6.89,19.89a11.82,11.82,0,0,0-.23,7.32,24.4,24.4,0,0,0,2.73,5.57A44.91,44.91,0,0,0,505.92,287c3,1.69,6.35,2.56,9.88,1.18,4.81-1.89,9.17-4.68,11.64-9.16,3.52-6.4,4.51-10.81-.74-16.84l-.32-.36c-5.2-6.57-10.47-13.08-15.59-19.72a40.7,40.7,0,0,0-7.65-7.86A15.27,15.27,0,0,0,500.47,232.81ZM80.23,311.62c0-3.52,0-7,0-10.56a8.41,8.41,0,0,0-.65-3c-1.67-4-5.25-6.08-8.56-8.4a3,3,0,0,0-3.8.17,7.56,7.56,0,0,0-1.38,1.64,56,56,0,0,0-7.76,16.91,128.66,128.66,0,0,0-5.4,29.88,7.8,7.8,0,0,0,2,5.9c.32.36.62.73.95,1.09,3.89,4.23,8.7,7.25,13.52,10.24a7.21,7.21,0,0,0,2.74.76c2.46.34,3.79-.51,4.43-2.94A41.88,41.88,0,0,0,77.67,347C78.93,335.23,80.37,323.48,80.23,311.62ZM137.62,194.9a8,8,0,0,0,1.81-.23c3.14-.94,6.31-1.79,9.36-2.95,8.36-3.18,16.67-6.48,25-9.77a6.63,6.63,0,0,0,2-1.26c3.91-3.65,7.75-7.39,11.69-11,1.82-1.67,3.79-3.18,5.76-4.67s2.69-3.31,2-5.42a4.57,4.57,0,0,0-4.65-3.08A45.88,45.88,0,0,0,178,158.05a86.21,86.21,0,0,0-26.07,11.83A83.41,83.41,0,0,0,133.29,187a4.65,4.65,0,0,0-.74,5.35C133.46,194.19,135,195,137.62,194.9Zm478.89,96A10.57,10.57,0,1,0,616.4,312a10.57,10.57,0,0,0,.11-21.14Z" transform="translate(-0.48 -0.48)"/><path class="cls-1" d="M260.38,320.93c-13.15-1-26.3-2-39.44-3.05a154.3,154.3,0,0,1-24.83-4c-3.78-.94-7.43-2.4-11.15-3.61a22.34,22.34,0,0,0-2.52-.68c-3.35-.65-4.94-2.48-4.12-6.09,1.74-7.63,3-15.38,4.51-23a183.19,183.19,0,0,1,6.26-22.63c2-5.9,3.69-11.9,5.61-17.83a249.64,249.64,0,0,1,12.17-30.22c2.61-5.48,1.61-4.12,6.84-5.67a62.28,62.28,0,0,1,16.29-2.6q4.2-.11,8.39-.38a10,10,0,0,1,6.37,1.36,106,106,0,0,0,10.18,5.35c10.59,5.14,20,12.07,28.9,19.62,3,2.52,5.93,5.12,8.92,7.65s3.81,5.54,4,9.14a89.12,89.12,0,0,1-1.51,20,396.9,396.9,0,0,1-10.72,45.71,32.4,32.4,0,0,1-3,6.24,8.45,8.45,0,0,1-7.69,4.48l-8.4,0h-5Z" transform="translate(-0.48 -0.48)"/><path class="cls-1" d="M294.35,312.75q1.2-10,2.4-20c.43-3.73.81-7.46,1.24-11.19a172,172,0,0,1,4-22.64c1-4,1.67-8.15,2.82-12.14,1.26-4.36,2.93-8.61,4.37-12.93a5.21,5.21,0,0,1,4.09-3.64c5-1.08,10-2.2,15-3.14a91.86,91.86,0,0,1,21.28-1,8.68,8.68,0,0,1,3.66.91,48.23,48.23,0,0,1,6.72,4.16c16,12.36,31.46,25.43,46.73,38.71a10.69,10.69,0,0,1,3.78,10.2c-.48,3.95-1.28,7.88-2.1,11.78-.56,2.65-1.53,5.22-2.07,7.88-.88,4.36-3.63,7.22-7.25,9.35a186.66,186.66,0,0,1-24.13,12.27L358,328.2c-1,.39-1.95.73-2.94,1a15.51,15.51,0,0,1-6.82.66c-3.79-.51-7.64-.58-11.47-.8-8.73-.52-17.28-2.14-25.84-3.81-3.68-.72-7.37-1.43-11-2.16a6.41,6.41,0,0,1-5.17-5.55c-.18-1.59-.18-3.19-.25-4.79Z" transform="translate(-0.48 -0.48)"/><path class="cls-1" d="M305.74,221.12c-4.36-.43-8.73-.74-13.07-1.36a23,23,0,0,1-4.9-1.79c-2.9-1.13-5.86-2.13-8.66-3.46-5.51-2.6-10.79-5.61-14.82-10.34-1.13-1.34-2.16-2.77-3.19-4.19a4.45,4.45,0,0,1-.27-5.18,20.63,20.63,0,0,1,2.2-3.12c6.89-7.94,14.9-14.69,23.2-21.08a173.8,173.8,0,0,1,27.26-17.33,24.35,24.35,0,0,1,5-2.23,36.48,36.48,0,0,1,6.62-.76,111.87,111.87,0,0,1,19.61,1.09,266.06,266.06,0,0,1,56.54,13.39,55,55,0,0,1,8.56,3.69,40.23,40.23,0,0,1,6.46,4.85c2.45,2.11,1,7.33-1.62,9-3.78,2.39-7.43,5-11.13,7.5-11.7,7.94-23.45,15.81-35.07,23.86-3.13,2.17-6.54,2.86-10.13,3.16q-23.28,2-46.58,3.86c-2,.16-4,0-6,0Z" transform="translate(-0.48 -0.48)"/><path class="cls-1" d="M171.65,188.39a5.59,5.59,0,0,1,3.5,1.53q6.84,6,13.7,12c2,1.8,4,3.64,6.09,5.42a4.67,4.67,0,0,1,1.56,5.38c-1.67,5-3.35,10-5.1,15Q178.7,264,165.94,300.24a4.88,4.88,0,0,1-5.54,3.52c-3.4-.45-6.8-.9-10.22-1.2-11.3-1-22.64-1.68-33.89-3.05-7.83-.95-15-3.92-19.94-10.6a6.07,6.07,0,0,1-1.15-4.72c.56-4.54,2.5-8.52,4.53-12.53q11.92-23.51,23.72-47.07c3.09-6.13,6.24-12.24,9.29-18.39a8.48,8.48,0,0,1,4.64-4.25c10.44-4.22,20.86-8.48,31.3-12.7C169.63,188.87,170.66,188.68,171.65,188.39Z" transform="translate(-0.48 -0.48)"/><path class="cls-1" d="M419.56,263.73c-1.65.33-3.6-.38-5.43-1.4-5.23-2.92-10.46-5.84-15.61-8.88a32.07,32.07,0,0,1-4.75-3.65c-6.55-5.75-13.09-11.51-19.55-17.35a46.85,46.85,0,0,1-5.23-5.59c-1.78-2.26-1.66-3.18.1-5.52,2.29-3,5.29-5.32,8.18-7.68a207.85,207.85,0,0,1,48.82-30,8,8,0,0,1,5.11-.52c7,1.47,13.1,5,19,8.81,14.12,9.14,27,20,39.62,31a5.75,5.75,0,0,1,2,6.41c-1.8,6-3.73,12-5.74,18a21.24,21.24,0,0,1-4.1,7.25,12.1,12.1,0,0,1-8.28,4.27q-25.64,2.49-51.28,4.92C421.67,263.8,420.88,263.73,419.56,263.73Z" transform="translate(-0.48 -0.48)"/><path class="cls-1" d="M390.64,494.93c-.47,5.25-.9,10.1-1.34,14.95a6.68,6.68,0,0,1-.22,1.41,3.26,3.26,0,0,1-3.16,2.48,3.06,3.06,0,0,1-3.27-2.29c-.91-3.45-3.43-5.92-5.23-8.81-.71-1.14-1.3-1.08-2.27,0-1.78,2-3.51,3.94-5.29,5.88a8.88,8.88,0,0,1-6,2.74c-3,.28-4.63-2.06-3.5-4.83,1-2.52,2.08-5,3.07-7.55a9.74,9.74,0,0,0,.75-2.77c.06-.89.09-2.15-.44-2.64-.89-.83-1.64.42-2.43.85-2,1.05-3.91,2.14-5.91,3.12a5.1,5.1,0,0,1-2.1.4c-3.22.09-4.78-2.47-3.25-5.33a20.07,20.07,0,0,0,2.26-13.44,4.59,4.59,0,0,0-1.1-2.29c-2.68-2.64-2.63-4.26-.92-7.51a56.55,56.55,0,0,1,8.45-12.18,58.39,58.39,0,0,1,17.8-13.22,8.75,8.75,0,0,0,3.48-3.11,54.68,54.68,0,0,0,4.59-8.94c3.43-7.57,6.76-15.18,11.39-22.14a73.49,73.49,0,0,1,18.67-19.76,20.57,20.57,0,0,1,8.25-3.66c3.69-.66,7.4-1.19,11.11-1.73a12,12,0,0,1,2.16,0c2.39.11,3.28.73,4,3a71,71,0,0,1,3.65,22.39,165.33,165.33,0,0,1-1.79,24.85,26.06,26.06,0,0,1-3.72,9.79c-1.6,2.58-3.13,5.21-4.69,7.81a49.1,49.1,0,0,1-11,12.85,96.21,96.21,0,0,1-12.11,8.12q-4,2.4-7.9,4.93a5.34,5.34,0,0,0-1.32,1.36c-1.91,2.57-3.9,5.09-4.75,8.26a9.73,9.73,0,0,1-.49,1.1C395,491.67,393.58,494.18,390.64,494.93Z" transform="translate(-0.48 -0.48)"/><path class="cls-1" d="M617.84,284.53c-6.79-.07-11.89,2.83-15.75,8.22a37.27,37.27,0,0,1-16.44,13.15c-2.21.9-4.38,1.94-6.54,3a10.59,10.59,0,0,1-10.91-.77,25.43,25.43,0,0,1-7.16-7.27,50.6,50.6,0,0,0-5.31-6.47,12.54,12.54,0,0,0-6.81-3.28c-4.65-.93-8.6-3.38-12.57-5.76-1.78-1.06-2.14-2.94-1.16-4.82a9.7,9.7,0,0,1,1.22-1.76,82.74,82.74,0,0,1,46.71-27.85c15.68-3.39,31.51-4.09,47.36-.87a54.29,54.29,0,0,1,15.66,5.82c2.44,1.37,5,2.49,7.42,3.9a39,39,0,0,1,4.66,3.36,6.45,6.45,0,0,1,1.47,1.87,3.29,3.29,0,0,1-1.1,4.61,11.78,11.78,0,0,1-3.51,1.47c-4.6,1-8,3.83-11.09,7.17a2.71,2.71,0,0,0-.53,3.3c2,4.07,3.92,8.21,6.16,12.16,1,1.71,1.34,3.28.52,4.95a15,15,0,0,1-2.82,4.39c-2.61,2.45-5.49,4.61-8.29,6.85a4.51,4.51,0,0,1-1.53.68,3.36,3.36,0,0,1-3.75-.83,3.22,3.22,0,0,1-.49-3.79,17.54,17.54,0,0,0,1.38-6.51c.57-7.05-5.27-12.32-10.22-13.73A62.37,62.37,0,0,0,617.84,284.53Z" transform="translate(-0.48 -0.48)"/><path class="cls-1" d="M621.84,434.35c.53,2.87.91,5.22,1.43,7.54.42,1.86,1.06,3.68,1.53,5.53a8.64,8.64,0,0,1,.3,2.36,3.2,3.2,0,0,1-2.71,3.42,3.08,3.08,0,0,1-3.73-2.25c-.87-2.9-3.08-4.58-5.24-6.36-.1-.08-.29-.06-.73-.14,0,1,0,2,0,3,.06,2.64.16,5.28.19,7.91a6.06,6.06,0,0,1-.32,2.12,3.32,3.32,0,0,1-5.81.77c-2.35-2.81-4.79-5.53-7.36-8.47-.77,1.19-1.4,2.25-2.13,3.25-1.18,1.61-2.37,3.22-3.65,4.74s-2.93,1.91-4.45,1a3.38,3.38,0,0,1-1.33-4.6,22.26,22.26,0,0,0,1.82-8.13c.3-4.11-.16-4.79-4.13-5.84a25.67,25.67,0,0,0-2.59-.49,3.15,3.15,0,0,0-2.86.86,22,22,0,0,1-2.06,1.66c-1.84,1.41-3.6,1.61-5.06.6s-1.71-2.36-1.1-4.77c.37-1.47.75-2.94,1.07-4.43a15.9,15.9,0,0,0,.33-2.37c.13-2.33-.31-4.06-2.72-5.5a47.19,47.19,0,0,1-16.75-17.13,21.34,21.34,0,0,1-2.87-10.77,16.66,16.66,0,0,1,3.8-11.09c1.58-1.91,3.19-3.8,4.75-5.73a5,5,0,0,1,3.48-1.87,135.74,135.74,0,0,1,32.54-.46,37.61,37.61,0,0,1,6.52,1.52,6.75,6.75,0,0,1,4.36,4.36c3.16,7.86,6.46,15.68,10.07,23.34a40.29,40.29,0,0,0,5.83,8.45c4.54,5.37,9.31,10.55,14,15.8.42.47.92.88,1.36,1.34,1.45,1.5,1.64,3.31.51,4.75a3.33,3.33,0,0,1-4.71.68C630,436.73,626.12,435.85,621.84,434.35Z" transform="translate(-0.48 -0.48)"/><path class="cls-1" d="M469.09,266h4.79a6.78,6.78,0,0,1,5,1.93c.29.28.6.54.87.83,8.71,9.67,18.37,18.46,26.48,28.71,2,2.49,1.62,6.26-.3,9.31A60,60,0,0,1,496,318.46c-3.25,3.08-6.58,6.07-9.87,9.1a6.19,6.19,0,0,1-5.74,1.42c-6.61-1.18-12.69-3.72-18.78-6.38-5.56-2.43-11.27-4.51-16.88-6.81a57.11,57.11,0,0,1-6.28-3,93.28,93.28,0,0,0-13.26-6.64c-.45-.17-.86-.44-1.3-.63a7.32,7.32,0,0,1-4.42-6.06,39.43,39.43,0,0,1,1.35-18,56.28,56.28,0,0,1,3.17-7.73,6.69,6.69,0,0,1,4.83-3.57,118.77,118.77,0,0,1,21.82-2.85c6.14-.27,12.28-.74,18.41-1.12Z" transform="translate(-0.48 -0.48)"/><path class="cls-1" d="M200.92,199.43a8.8,8.8,0,0,1-6.31-2.51,27.82,27.82,0,0,0-3.69-2.65,22.73,22.73,0,0,1-6.17-6c-1.49-2.13-1.62-4.18.08-6.15q6.57-7.62,13.39-15c4.34-4.74,9.53-8.5,14.62-12.37,3.3-2.51,7.24-3.25,11.15-4.08a159,159,0,0,1,26.61-3.34c10.38-.4,20.77-.76,31.16-.81,4.37,0,8.74.81,13.11,1.26a9.4,9.4,0,0,1,1.18.21,4.71,4.71,0,0,1,1.81,8.58c-4.05,3.12-8.05,6.31-12.08,9.47-10.87,8.54-21.78,17-32.58,25.67a12,12,0,0,1-6.53,2.59l-36.22,4Z" transform="translate(-0.48 -0.48)"/><path class="cls-1" d="M231.23,387.39c-9.61-.16-18.87-.55-28-2.55a66.72,66.72,0,0,1-8.2-2.61,5.33,5.33,0,0,1-3.35-3.55c-.73-2.36-1.47-4.73-2-7.14-.77-3.84-1.38-7.7-2-11.57a54.42,54.42,0,0,1-.51-6c-.27-7.51-.48-15-.69-22.53a47.54,47.54,0,0,1,0-5.47c.42-4.9,4.37-7.64,9-7.3,5.25.38,10.51.94,15.71,1.74,5.76.89,11.45,2.21,17.2,3.21,6.88,1.21,11.36,7.32,11.75,13.58.33,5.49,1.22,10.95,1.92,16.41,1.12,8.72,2.3,17.42,3.44,26.14.37,2.85-2.05,6.33-4.9,6.73C237.45,387,234.17,387.13,231.23,387.39Z" transform="translate(-0.48 -0.48)"/><path class="cls-1" d="M418.4,312.18c.68.14,1.86.33,3,.65A178.71,178.71,0,0,1,446,322.18q5.25,2.32,10.63,4.34a127.58,127.58,0,0,1,18,8.5c1.25.71,2.57,1.29,3.8,2,2.25,1.35,2.59,3.36,1.14,5.44a69.6,69.6,0,0,1-16,16c-8.84,6.55-18.18,12.19-28.89,15.18-1.77.5-3.57.9-5.33,1.41a3.44,3.44,0,0,1-4-1.34c-.86-1.14-1.63-2.36-2.47-3.53-2.19-3-4.25-6.19-6.63-9.07-3.76-4.55-6.45-9.7-9.09-14.9a41.86,41.86,0,0,0-2.18-3.71c-3-4.63-6-9.24-9-13.89a3.92,3.92,0,0,1,.3-5.09,6.56,6.56,0,0,1,.95-1.08c5.42-4.43,11.06-8.45,18.08-10,.55-.11,1.09-.26,1.64-.34A12.57,12.57,0,0,1,418.4,312.18Z" transform="translate(-0.48 -0.48)"/><path class="cls-1" d="M277.53,392.67a35.2,35.2,0,0,1-12.26-1.87,13.89,13.89,0,0,1-9.1-8.18c-3.25-7.8-5-16-6.47-24.24a187.19,187.19,0,0,1-2.84-25.21,4.19,4.19,0,0,1,3.3-4.42,17.58,17.58,0,0,1,4-.76c7.73-.6,15.45-1.12,23.18-1.69a8.66,8.66,0,0,1,7.39,2.61c2.27,2.36,4.73,4.55,6.91,7a13.89,13.89,0,0,1,3.49,7.5,252.11,252.11,0,0,0,5.7,27.17,97.4,97.4,0,0,1,2.11,12.73c.52,4.64-1.19,6.9-6.53,8a51.14,51.14,0,0,1-6.67.72C285.67,392.28,281.6,392.46,277.53,392.67Z" transform="translate(-0.48 -0.48)"/><path class="cls-1" d="M456.62,421.17c-3.27-.26-4.32-1.74-4.31-5.18,0-9.51,0-19-1.58-28.44-.33-1.88-.91-3.72-1.4-5.57s-.09-3.38,1.6-4.3q8.1-4.4,16.33-8.58a3.3,3.3,0,0,1,2.51-.21c2.56,1.15,5.3,1.23,8,1.51,7.39.77,14.79,1.52,22.21,2,12.2.78,24.42,1.33,36.64,2,2,.1,4,.06,6,.13s3.16.86,3.59,2.26a3.4,3.4,0,0,1-1.37,4c-2.63,1.79-5.18,3.89-8.09,5.05-9.84,3.9-19,9.08-28.34,14-11.76,6.19-24.11,11.05-36.48,15.85-3.36,1.29-6.65,2.74-10,4C460.17,420.29,458.37,420.67,456.62,421.17Z" transform="translate(-0.48 -0.48)"/><path class="cls-1" d="M72.66,412.52c-.24.82-.45,1.55-.68,2.28-.92,3-1.77,6-2.79,8.91a3.27,3.27,0,0,1-3.87,2.39c-1.71-.39-2.59-1.68-2.57-3.79,0-.16,0-.32,0-.48,0-2.39,0-4.79,0-7.19a8.67,8.67,0,0,0-.17-1.9A2.6,2.6,0,0,0,60,410.48c-1.63-.17-2,0-2.77,1.63q-2.67,5.49-5.29,11a3.5,3.5,0,0,1-4.3,2.12c-1.61-.51-2.34-2.12-2.3-4a76.16,76.16,0,0,0-.35-7.84c-.05-.55-.61-1.05-1.14-1.89-.74.81-1.34,1.38-1.85,2-1,1.26-1.89,2.57-2.88,3.82a6.05,6.05,0,0,1-3.92,2.11,3.64,3.64,0,0,1-4.23-4.73c2-8,4.18-16.06,6.07-24.13a89.25,89.25,0,0,1,11.65-27.43,40.59,40.59,0,0,1,4-5.07,4.14,4.14,0,0,1,5.2-1.13c1.89.84,3.86,1.55,5.7,2.5q10.85,5.63,21.61,11.39c1.74.93,3.5,2,3.8,4.33a.87.87,0,0,0,.36.58c2.37,1.37,2.18,3.73,2.27,5.94a30.65,30.65,0,0,1-1.54,10.38c-3,9.62-6,19.2-9.09,28.79a12.38,12.38,0,0,1-1.33,2.8,3.32,3.32,0,0,1-6.21-2c.13-2.15.4-4.29.56-6.44A2.35,2.35,0,0,0,72.66,412.52Z" transform="translate(-0.48 -0.48)"/><path class="cls-1" d="M568.08,346.54a37.46,37.46,0,0,1-4.12-.6c-9.21-2.18-17.92-.56-26.32,3.39a54.63,54.63,0,0,0-11.52,6.82,22,22,0,0,0-5.5,6.26,4.73,4.73,0,0,1-3.56,2.51c-4.32.78-8.58,2-12.92,2.48a61.69,61.69,0,0,1-19.53-1.23,14.42,14.42,0,0,1-7.24-3.53c-1.74-1.69-1.84-3.32-.34-5.27a20.19,20.19,0,0,0,1.35-2c6.64-11.51,15.11-21.56,24.47-30.93,3.27-3.26,6.2-6.87,9.2-10.39,1.24-1.45,2.23-3.11,3.44-4.59a12,12,0,0,1,2.43-2.29c2.92-2,5.5-1.5,7.27,1.56a42.62,42.62,0,0,0,11,12.17c7.09,5.54,14.95,9.84,23,13.81,2.84,1.4,6,2.1,9,3.24a12.78,12.78,0,0,1,3.08,1.81c1.73,1.33,2.21,2.95,1.54,4.6S570.94,346.66,568.08,346.54Z" transform="translate(-0.48 -0.48)"/><path class="cls-1" d="M323.83,335.42a75.31,75.31,0,0,1,22,3.26,7.66,7.66,0,0,1,5.41,5c1.6,4.86,3.38,9.66,4.71,14.59a75.09,75.09,0,0,1,1.66,10.15c.52,4,.94,7.93,1.3,11.91a37.93,37.93,0,0,1,.2,6.21c-.23,3.17-1.34,4.11-4.45,4.52a219.82,219.82,0,0,1-23.91,1.59c-3.6.08-7.19.3-10.78.43a6.7,6.7,0,0,1-6.75-4,114.18,114.18,0,0,1-6.92-22.14,75.64,75.64,0,0,1-1.82-17.61c0-2.55.42-5.09.67-7.63.26-2.71,2-4.07,4.45-4.66A59,59,0,0,1,323.83,335.42Z" transform="translate(-0.48 -0.48)"/><path class="cls-1" d="M128.78,338.06c0,8.23,0,16.46,0,24.69,0,4.11-1.33,5.36-5.33,5.92-4.6.64-9.19,1.2-13.83.58-8.25-1.1-16.15-3.13-22.83-8.47a7,7,0,0,1-2.65-6.07c.12-4.71-.16-9.44,0-14.15.29-9.69,1.26-19.31,4.25-28.59a58,58,0,0,1,3.46-7.88,4.24,4.24,0,0,1,4.79-2.4c9.09,1.79,18.17,3.6,27.24,5.49,3.06.63,4.14,2.07,4.19,5.22.14,8.55.24,17.1.35,25.66Z" transform="translate(-0.48 -0.48)"/><path class="cls-1" d="M178.7,348c0,7.67,0,15.33,0,23,0,1,.19,2.07.23,3.1a4.79,4.79,0,0,1-5.85,4.94q-11.65-2.13-23.34-4.15c-3-.52-5.92-1.29-8.32-3.34s-3.9-4.12-3.88-7.51c.06-9.43-.25-18.86-.38-28.28-.06-3.91,0-7.81,0-11.72a38.45,38.45,0,0,0-.39-4.28c-.47-3.54.47-6.43,3.54-8.53a6.53,6.53,0,0,1,4.26-1.29l17.92,1.32c1.91.14,3.82.28,5.73.45,6,.53,8.71,3.71,10.45,9a4.47,4.47,0,0,1,.22,1.41q0,12.93,0,25.86Z" transform="translate(-0.48 -0.48)"/><path class="cls-1" d="M615.68,353.53c-9.26,0-17-1-24.51-4-2.8-1.15-5.31-2.67-6.91-5.31a11.93,11.93,0,0,1-1.59-3.69,6.54,6.54,0,0,0-4-5c-2.86-1.25-5.67-2.6-8.56-3.75a123.78,123.78,0,0,1-18.64-9.32A65.61,65.61,0,0,1,537.74,312c-3.91-4.05-6.45-8.9-8.62-14a3.5,3.5,0,0,1,.82-4.37c1.36-1.1,2.74-.92,4.24-.17,4.79,2.39,9.46,5.14,14.47,6.94,7.41,2.66,12.61,7.91,17.72,13.45.86.94,1.71,1.9,2.64,2.77a5.94,5.94,0,0,0,6.43,1.29c.68-.23,1.36-.49,2-.77,5.07-2.15,10.14-4.29,15.2-6.47a5.07,5.07,0,0,1,6.24,1.16,23.05,23.05,0,0,0,14.88,6.41c2.63.18,5.27.08,7.91.11.32,0,.64-.05.95,0,4.2.49,5.49,1.67,5.22,5.53-.48,6.82.51,13.55,1.37,20.28a18.85,18.85,0,0,1,.07,3.83c-.24,2.92-1.71,4.59-4.62,4.91C621.27,353.27,617.83,353.39,615.68,353.53Z" transform="translate(-0.48 -0.48)"/><path class="cls-1" d="M636,338.51a67.79,67.79,0,0,0-1.67-15.08c-.5-2.62-.09-3.65,2.15-5,7.67-4.56,14.33-10.41,20.86-16.42,1.53-1.4,1.69-2.18.64-4-1.33-2.27-2.92-4.38-4.19-6.68a20.85,20.85,0,0,1-2.78-8.08,5.26,5.26,0,0,1,1.94-5.08c1.93-1.56,3.74-3.25,5.67-4.81,3.34-2.69,5.72-2.47,9,1,3.08,3.2,5.55,7,8.26,10.53a13,13,0,0,1,.87,1.43c1.68,2.89,1.53,5.33-.89,8a10.79,10.79,0,0,0-2.34,10.74,6.77,6.77,0,0,0,3.53,4.31,35.67,35.67,0,0,1,4.37,2.91,5.07,5.07,0,0,1,2,3.91c1.21,13.24-2.42,25.3-9.07,36.55a24.34,24.34,0,0,1-5,5.44,3.1,3.1,0,0,1-5.09-1.41c-1.73-4.59-5.44-6.73-9.75-8.08a38.21,38.21,0,0,0-7-1.49,18.39,18.39,0,0,0-5.44.24c-3.57.69-6-1.11-6.11-4.72C636,341.19,636,339.67,636,338.51Z" transform="translate(-0.48 -0.48)"/><path class="cls-1" d="M118.52,376.62c3.83.14,7.71-.05,11.47.52a75.24,75.24,0,0,1,12.54,3.07,158.46,158.46,0,0,0,27.53,6.22c3.47.5,7,.84,10.42,1.48a6.32,6.32,0,0,1,3,1.74,39.67,39.67,0,0,1,6.93,9.72,51.77,51.77,0,0,0,7.24,9.52c2.3,2.54,4.81,4.9,7.24,7.33,1.37,1.36,1.76,2.91,1,4.31a3.49,3.49,0,0,1-4,1.85c-2.81-.61-5.56-1.45-8.36-2.08a234.37,234.37,0,0,1-30.11-8.74c-6.2-2.3-12.65-3.93-19-5.67-8.53-2.32-16.07-6.62-23.54-11.13q-6.67-4-13.28-8.16a17.26,17.26,0,0,1-2.25-1.76c-1.6-1.41-1.68-3.23-1.06-5.07a4.2,4.2,0,0,1,4-3c2-.12,4,0,6-.06,1.44,0,2.88,0,4.32,0Z" transform="translate(-0.48 -0.48)"/><path class="cls-1" d="M384,329.68c2.78-.45,4.57,1,6.1,3.06A160.46,160.46,0,0,1,405.4,356.8c1.38,2.71,3,5.31,4.39,8a19.51,19.51,0,0,1,2.08,9.5c0,2.18-1,3.41-3.06,4.32a126.16,126.16,0,0,1-28.89,8.51c-6.16,1.12-10.71-1.37-12.76-7.35a82.87,82.87,0,0,1-2.07-9.33c-1.61-7.5-3.24-15-4.81-22.5a14.84,14.84,0,0,1,1-9.6,6.74,6.74,0,0,1,4.23-4c5.14-1.47,10.28-2.93,15.44-4.33A19.75,19.75,0,0,1,384,329.68Z" transform="translate(-0.48 -0.48)"/><path class="cls-1" d="M363.23,438.19a41.27,41.27,0,0,0-4.31,0c-3.34.33-5.82-1.31-8.16-3.33a12.59,12.59,0,0,0-1.62-1.41c-5.1-3-8.85-7.3-12.49-11.79-2.16-2.66-4.45-5.22-6.71-7.81-1.85-2.13-3.6-4.25-3.52-7.35a6.85,6.85,0,0,1,6.09-6c4.12-.06,8.23-.95,12.36-1.39,7.31-.77,14.64-1.36,21.94-2.23a94,94,0,0,0,11.54-2.09c3.55-.89,7-2.28,10.49-3.34a11.17,11.17,0,0,1,4.19-.71c3.79.41,4.82,3.67,3.08,6-1.42,1.92-2.66,4-4.18,5.81a77.91,77.91,0,0,0-12.1,20.05,43,43,0,0,0-2.5,10,18.81,18.81,0,0,1-.44,2.11,3.91,3.91,0,0,1-3.83,3.06c-3.27.2-6.55.33-9.82.5Z" transform="translate(-0.48 -0.48)"/><path class="cls-1" d="M282.88,399.51a151.45,151.45,0,0,1,23.88,1.77,5.37,5.37,0,0,1,4.76,4.07,9.48,9.48,0,0,0,1.17,2.59,140.06,140.06,0,0,0,12.7,16.23,33,33,0,0,0,10.52,7.38c2.11,1,4.2,1.95,6.3,2.94a4,4,0,0,1,2.24,2.94c.44,2.16-1.08,4-3.56,4.07-4.24.07-8.47,0-12.71-.08-9.05-.21-18-1.72-26.85-3.27a29.52,29.52,0,0,1-6.45-2.43c-12-5.31-21.69-13.65-29.89-23.79a33.35,33.35,0,0,1-2.87-4.41,4.59,4.59,0,0,1,3.78-7.14C271.55,400,277.22,399.79,282.88,399.51Z" transform="translate(-0.48 -0.48)"/><path class="cls-1" d="M601.52,371.63c-11.11-.22-22.23-.24-33.33-.71-8.69-.37-17.36-1.31-26.05-2-2.78-.21-5.58-.37-8.37-.38-1.65,0-3-.33-3.85-1.85a3.35,3.35,0,0,1,.77-4.17,26.07,26.07,0,0,1,4.12-3.6,41.59,41.59,0,0,1,17.84-6.57c14.51-2,28.89-1.5,43,2.87a138.81,138.81,0,0,0,16.83,3.7c2.12.38,4.27.66,6.35,1.2a21.75,21.75,0,0,0,10.21,0c4.37-.94,8.73-1.94,13.11-2.82a27.53,27.53,0,0,1,11.43-.21,20.08,20.08,0,0,1,4.3,1.42,3.23,3.23,0,0,1,1.39,5,18.34,18.34,0,0,1-6.57,6.13,22.35,22.35,0,0,1-12.54,3.09c-8.55-.31-17.1-.49-25.65-.75-4.31-.13-8.62-.32-12.94-.47Z" transform="translate(-0.48 -0.48)"/><path class="cls-1" d="M70.79,273.73c.82-9.25,2.33-18.3,6.17-26.77a150.52,150.52,0,0,1,8-15.26c1.75-2.9,4.25-5.38,6.55-7.92a325.57,325.57,0,0,1,25.81-25c2-1.71,4-1.93,5.9-.64a4.37,4.37,0,0,1,1.6,5.49c-1.23,3.19-2.63,6.31-4,9.44-4.26,9.63-8.28,19.39-12.91,28.84-5.34,10.89-11.22,21.51-16.9,32.23-1.19,2.25-2.53,4.43-3.8,6.65a5.68,5.68,0,0,1-5.86,2.94,38.7,38.7,0,0,1-6.54-1.33,4.59,4.59,0,0,1-3.4-4C71.15,276.88,71,275.3,70.79,273.73Z" transform="translate(-0.48 -0.48)"/><path class="cls-1" d="M214.43,393.07a127.61,127.61,0,0,1,27.4,2.45c.4.08.78.2,1.18.25,3.75.54,6.17,2.72,7.71,6.08.82,1.82,1.75,3.59,2.66,5.37a46,46,0,0,0,9.73,13c3.18,2.92,6.34,5.85,9.53,8.76a3.67,3.67,0,0,1,1.12,4.5,3.42,3.42,0,0,1-4.06,1.76q-10.8-2.13-21.6-4.35c-5.63-1.16-11.26-2.33-16.86-3.63a31.1,31.1,0,0,1-15.81-9.45c-2.78-3-5.69-5.84-8.44-8.84-2.52-2.75-5-5.59-7.33-8.46a7.86,7.86,0,0,1-1.45-2.72,3.46,3.46,0,0,1,3.51-4.69C205.47,393.05,209.23,393.07,214.43,393.07Z" transform="translate(-0.48 -0.48)"/><path class="cls-1" d="M500.47,232.81a15.27,15.27,0,0,1,2.67,1.38,40.7,40.7,0,0,1,7.65,7.86c5.12,6.64,10.39,13.15,15.59,19.72l.32.36c5.25,6,4.26,10.44.74,16.84-2.47,4.48-6.83,7.27-11.64,9.16-3.53,1.38-6.85.51-9.88-1.18a44.91,44.91,0,0,1-16.32-15.17,24.4,24.4,0,0,1-2.73-5.57,11.82,11.82,0,0,1,.23-7.32c2.17-6.67,4.53-13.28,6.89-19.89a23.85,23.85,0,0,1,2-3.83C496.82,233.68,498.19,232.94,500.47,232.81Z" transform="translate(-0.48 -0.48)"/><path class="cls-1" d="M80.23,311.62c.14,11.86-1.3,23.61-2.56,35.37a41.88,41.88,0,0,1-1.36,6.32c-.64,2.43-2,3.28-4.43,2.94a7.21,7.21,0,0,1-2.74-.76c-4.82-3-9.63-6-13.52-10.24-.33-.36-.63-.73-.95-1.09a7.8,7.8,0,0,1-2-5.9,128.66,128.66,0,0,1,5.4-29.88,56,56,0,0,1,7.76-16.91,7.56,7.56,0,0,1,1.38-1.64,3,3,0,0,1,3.8-.17c3.31,2.32,6.89,4.42,8.56,8.4a8.41,8.41,0,0,1,.65,3C80.27,304.58,80.23,308.1,80.23,311.62Z" transform="translate(-0.48 -0.48)"/><path class="cls-1" d="M137.62,194.9c-2.6.09-4.16-.71-5.07-2.55a4.65,4.65,0,0,1,.74-5.35,83.41,83.41,0,0,1,18.65-17.12A86.21,86.21,0,0,1,178,158.05a45.88,45.88,0,0,1,12.57-1.54,4.57,4.57,0,0,1,4.65,3.08c.69,2.11-.06,4-2,5.42s-3.94,3-5.76,4.67c-3.94,3.62-7.78,7.36-11.69,11a6.63,6.63,0,0,1-2,1.26c-8.32,3.29-16.63,6.59-25,9.77-3,1.16-6.22,2-9.36,2.95A8,8,0,0,1,137.62,194.9Z" transform="translate(-0.48 -0.48)"/><path class="cls-1" d="M616.51,290.89a10.57,10.57,0,1,1-10.68,10.64A10.63,10.63,0,0,1,616.51,290.89Z" transform="translate(-0.48 -0.48)"/></svg>