<?xml version="1.0" encoding="utf-8"?>
<!-- Generator: Adobe Illustrator 26.0.1, SVG Export Plug-In . SVG Version: 6.00 Build 0)  -->
<svg version="1.1" id="Layer_1" xmlns="http://www.w3.org/2000/svg" xmlns:xlink="http://www.w3.org/1999/xlink" x="0px" y="0px"
	 viewBox="0 0 720 612" style="enable-background:new 0 0 720 612;" xml:space="preserve">
<style type="text/css">
	.st0{fill:none;stroke:#000000;stroke-width:0.01;stroke-miterlimit:10;}
</style>
<g>
	<g>
		<path d="M0.48,612.48c0-204,0-408,0-612c240,0,480,0,720,0c0,204,0,408,0,612C480.48,612.48,240.48,612.48,0.48,612.48z
			 M349.71,418.88c-2.78,1.91-5.32,2.51-7.99,1.96c-3.2-0.67-6.39-1.44-9.5-2.44c-7.01-2.27-13.17-6.07-18.78-10.82
			c-3.37-2.85-6.38-6.04-8.8-9.75c-2.72-4.17-5.71-8.08-9.72-11.14c-2.73-2.08-5.4-4.26-8.05-6.44c-2.09-1.73-4.08-3.57-6.17-5.29
			c-1.76-1.46-3.66-1.43-4.92-0.03c-1.27,1.4-1.06,3.32,0.54,4.88c1.38,1.34,2.78,2.64,4.14,4c1.87,1.86,3.74,3.73,5.54,5.65
			c0.92,0.98,1.78,2.07,0.93,3.83c-1.31-0.27-2.6-0.61-3.92-0.8c-1.53-0.23-2.78,0.44-3.42,1.67c-0.6,1.18-0.42,2.75,0.57,3.78
			c0.49,0.51,1.11,0.91,1.72,1.27c1.32,0.75,2.71,1.37,4.01,2.15c4.94,2.95,9.82,5.99,14.79,8.9c2.47,1.45,5.11,2.61,7.6,4.03
			c6.94,3.95,13.65,8.26,21.16,11.18c6.18,2.41,12.47,4.04,19.09,4.17c2.99,0.06,5.88,0.48,8.75,1.21c1.32,0.33,2.63,0.69,3.96,0.96
			c2.11,0.43,4.21,0.8,6.37,0.08c2.81-0.93,3.7-3.19,1.86-5.57c-1.1-1.44-2.42-2.79-3.89-3.85c-2.77-2-5.95-3.43-8.46-5.83
			c-2.13-2.04-4.21-4.17-6.48-6.05c-4.45-3.67-9.25-6.84-14.25-9.71c-5.68-3.27-11.35-6.56-16.92-9.99
			c-4.88-3.01-8.94-6.95-12.31-11.6c-0.98-1.35-1.81-2.82-2.78-4.18c-1.09-1.52-2.71-1.92-4.21-1.14c-1.55,0.81-2.14,2.56-1.42,4.33
			c0.15,0.37,0.37,0.71,0.57,1.05c2.08,3.5,4.24,6.95,6.24,10.5c1.87,3.33,4.23,6.27,7.18,8.61c6.73,5.35,14.12,9.61,22.25,12.49
			c3.54,1.26,7.07,2.58,10.22,4.67C346.65,416.57,348.01,417.64,349.71,418.88z M118.23,240.36c-1.86-0.01-2.83,0.62-3.43,1.77
			c-0.66,1.26-0.52,2.51,0.38,3.59c0.5,0.6,1.21,1.03,1.8,1.56c1.71,1.55,3.52,3,5.08,4.69c2.09,2.27,3.17,5.15,4.17,8.03
			c0.44,1.28,0.81,2.62,1.44,3.8c2.37,4.45,5.02,8.73,8.68,12.28c2.24,2.17,4.4,4.41,6.62,6.6c7.58,7.47,16.57,12.11,27.18,13.56
			c5.07,0.69,10.12,1.53,14.76,3.92c5.4,2.78,10.94,5.34,14.72,10.4c0.14,0.19,0.33,0.35,0.52,0.49c1.3,0.99,3.02,0.94,4.19-0.11
			c1.18-1.07,1.39-2.39,0.44-3.88c-1.81-2.83-3.7-5.54-6.49-7.6c-5.75-4.23-10.88-9.11-15.61-14.48
			c-7.49-8.5-15.91-15.94-25.88-21.49c-1.25-0.7-2.41-1.57-3.63-2.33c-2.99-1.85-5.9-3.85-9-5.49c-8.28-4.38-16.43-8.93-24.03-14.44
			C119.44,240.74,118.57,240.51,118.23,240.36z M476.27,282.59c-4.39-0.14-8.64,0.56-13.24,2.77c-4.27,2.04-8.65,3.69-13.14,5.15
			c-3.64,1.18-6.7,3.36-9.37,6.07c-1.66,1.69-2.8,3.68-3.3,6.01c-0.91,4.27-1,8.58-0.33,12.87c0.88,5.67,3.24,10.52,8.26,13.72
			c1.01,0.64,2.04,1.26,3.11,1.79c3.56,1.79,6.93,3.99,10.93,4.78c4.1,0.81,8.16,0.37,11.55-1.88c6.19-4.12,8.83-10.44,6.11-17.93
			c-1.28-3.52-2.67-7.01-4.18-10.45c-1.57-3.57-0.99-7.02,0.12-10.51c0.82-2.57,3.15-3.47,5.11-4.79c0.33-0.22,0.69-0.41,1.06-0.57
			c0.66-0.29,1.36-0.48,1.99-0.82c1.51-0.81,2.21-2.31,1.84-3.79c-0.36-1.44-1.47-2.33-3.18-2.43
			C478.51,282.54,477.39,282.59,476.27,282.59z M558.03,288.58c-0.04-0.64-0.07-1.28-0.13-1.91c-0.26-2.58-1.89-3.89-4.43-3.3
			c-1.12,0.26-2.22,0.88-3.19,1.53c-1.85,1.25-3.48,2.84-5.41,3.95c-2.83,1.63-5.8,3.04-8.78,4.4c-2.9,1.32-5.88,2.49-8.84,3.68
			c-4.88,1.95-9.05,5.04-13.23,8.12c-1.72,1.27-2.93,3.02-3,5.24c-0.06,2.05-0.04,4.13,0.2,6.16c0.51,4.41,2.43,8.41,3.98,12.5
			c1.96,5.16,2.59,10.33,0.91,15.68c-0.14,0.46-0.23,0.93-0.33,1.4c-0.47,2.06,0.1,3.86,1.61,4.88c1.55,1.05,3.1,0.72,4.46-0.31
			c3.63-2.73,7.46-5.27,10.73-8.39c4.99-4.76,7.49-10.83,7.61-17.8c0.04-2.24,0-4.48,0.19-6.7c0.28-3.28,1.58-6.23,3.88-8.54
			c2.19-2.2,4.66-4.12,7.07-6.09C555.93,299.31,557.87,294.36,558.03,288.58z M392.22,338.11c0,1.12-0.1,2.25,0.02,3.36
			c0.26,2.37,0.58,4.73,0.98,7.08c0.25,1.44,1.08,2.49,2.6,2.8c1.51,0.31,2.63-0.37,3.53-1.52c0.44-0.57,0.91-1.12,1.33-1.7
			c1.41-1.95,3.25-3.27,5.56-3.95c2.15-0.63,4.28-1.31,6.42-1.95c1.76-0.52,3.58-0.87,5.27-1.54c3.03-1.19,5.47-3.32,7.71-5.6
			c2.26-2.29,3.64-5.13,3.67-8.38c0.05-5.07-1.06-9.86-4.34-13.91c-6.12-7.57-14.11-12.15-23.51-14.27c-2.03-0.46-4.31-0.3-6.4,0.04
			c-4.23,0.7-6.68,3.29-7.23,7.51c-0.3,2.28-0.5,4.67-0.14,6.91c0.63,3.93,1.53,7.84,2.69,11.65
			C391.75,329.07,392.48,333.51,392.22,338.11z M238.9,251.88c-3.28-0.02-5.18,0.54-6.76,1.85c-2.57,2.13-2.57,3.98,0.14,6
			c1.27,0.95,2.73,1.65,4.03,2.56c5.21,3.65,9.01,8.53,12.22,13.96c1.87,3.17,2.72,6.55,3.03,10.21c0.47,5.48,1.34,10.92,2.06,16.37
			c0.06,0.47,0.22,0.94,0.42,1.37c0.6,1.3,1.94,2.11,3.28,1.96c1.39-0.15,2.46-0.86,2.84-2.22c0.25-0.89,0.23-1.88,0.19-2.82
			c-0.08-2.22-0.59-4.49-0.29-6.65c0.33-2.32,1.2-4.63,2.17-6.79c1.94-4.34,5.29-7.18,9.99-8.17c3.12-0.65,6.29-1.03,9.44-1.59
			c8.08-1.42,14.96-4.52,18.2-12.86c1.47-3.77,0.53-7.86-2.64-10.36c-1.41-1.11-2.93-1.23-4.46-0.33c-0.89,0.53-1.66,1.25-2.56,1.77
			c-1.09,0.64-2.19,1.41-3.39,1.68c-4.51,1.04-9.03,2.12-13.6,2.77c-5.3,0.76-10.48-0.6-15.61-1.8c-1.62-0.38-3.2-1.02-4.72-1.71
			c-2.61-1.19-5.17-2.5-7.74-3.78C243.03,252.28,240.79,251.83,238.9,251.88z M660.45,245.04c1.98-0.21,3.98-0.3,5.93-0.67
			c0.95-0.18,2.03-0.69,2.64-1.4c1.91-2.25,3.72-4.6,5.38-7.04c2.7-3.96,5.19-8.06,7.88-12.03c4.4-6.48,8.79-12.97,11.76-20.28
			c0.45-1.11,0.88-2.24,1.14-3.4c0.41-1.81-0.28-3.42-1.63-4.15c-1.39-0.76-2.85-0.3-4.31,0.97c-3.38,2.92-6.72,5.91-10.31,8.55
			c-4.78,3.49-10.12,6.03-15.43,8.66c-6.78,3.36-13.88,5.68-21.11,7.73c-1.4,0.4-2.34,1.09-3.12,2.34
			c-1.04,1.65-1.38,3.31-1.27,5.22c0.31,5.35-0.86,10.3-4.29,14.58c-1,1.24-1.02,2.82-0.21,4.02c0.9,1.33,2.58,1.86,4.26,1.36
			c2.75-0.81,5.48-1.69,8.27-2.38C650.76,245.95,655.52,244.92,660.45,245.04z M282.98,338.09c1.41-0.17,2.77-0.26,4.1-0.5
			c4.17-0.74,8.32-1.6,12.49-2.3c5.87-0.98,11.75-1.37,17.62,0.11c0.54,0.14,1.11,0.17,1.67,0.18c1.97,0.04,3.37-0.93,4.02-2.77
			c0.76-2.14,1.16-4.29,0.36-6.55c-0.64-1.81-1.09-3.67-1.66-5.5c-1.24-3.98-3.67-7.14-7.15-9.32c-2.48-1.56-5.15-2.94-7.89-3.96
			c-4.22-1.56-8.42-2.96-11.55-6.49c-1.26-1.42-3.24-1.29-4.55-0.14c-1.23,1.08-1.53,2.79-0.55,4.36c2.72,4.35,1.54,10.2-3.6,12.84
			c-1.65,0.85-3.32,1.15-5.09,0.97c-5.65-0.57-11.26-1.24-16.49-3.79c-2.9-1.42-6.06,0.94-5.41,4.01c0.7,3.28,1.62,6.58,3.84,9.21
			C268.32,334.6,275.03,337.68,282.98,338.09z M256.49,223.81c-0.08-4.31-1.15-7.32-3.94-9.68c-1.32-1.12-2.48-2.5-3.48-3.93
			c-1.22-1.74-1.52-3.69-0.36-5.64c1.71-2.86,0-5.5-3.05-5.98c-3.32-0.51-6.62-0.99-10-0.86c-11.32,0.42-22.53-0.36-33.54-3.19
			c-2.55-0.65-4.4,0.87-4.35,3.61c0.12,6.28,2.68,11.29,8.11,14.61c1.55,0.95,3.28,1.68,5,2.27c2.64,0.91,5.34,1.67,8.04,2.39
			c3.27,0.87,6.09,2.42,8.14,5.16c1.38,1.86,2.63,3.82,4.05,5.65c5.52,7.12,13.32,7.63,20.66,4.21c1.79-0.83,3.05-2.38,3.66-4.27
			C255.96,226.51,256.26,224.77,256.49,223.81z M481.11,371.59c1.36-0.17,3.11-0.34,4.84-0.62c4.73-0.77,8.63-3.37,12.27-6.2
			c2.18-1.7,3.5-4.34,4.46-7.01c1.95-5.43,1.06-10.35-2.63-14.79c-2.07-2.48-4.77-4.02-7.76-5c-5.47-1.79-10.54-1.12-14.93,2.92
			c-1.29,1.19-2.56,2.49-4.08,3.32c-5.31,2.92-10.82,4.31-16.62,1.24c-3.41-1.81-7.09-2.37-10.9-2.24
			c-1.42,0.05-2.46,0.75-2.99,2.03c-0.54,1.29-0.26,2.54,0.71,3.55c0.55,0.57,1.26,0.98,1.83,1.53c1.53,1.49,3.44,2.8,4.44,4.6
			c1.35,2.42,3.07,4.46,4.89,6.45c2.67,2.92,5.73,5.38,9.46,6.78C469.44,370.16,475.02,371.16,481.11,371.59z M332.22,326.06
			c0,0.58-0.02,1.14,0,1.7c0.1,2.52,1.61,4.07,4.12,3.93c4.53-0.26,8.7,1.06,12.79,2.71c3.91,1.58,7.18,4.13,10.19,7.05
			c2.12,2.06,4.17,4.21,6.43,6.09c2.68,2.23,5.79,3.84,9.3,4.11c4.85,0.37,7.23-1.34,8.2-5.77c0.55-2.54,0.11-4.9-0.91-7.23
			c-0.74-1.68-1.48-3.36-2.06-5.1c-3.03-9.03-8.1-16.55-15.77-22.36c-3.24-2.45-6.42-2.81-10.1-1.57c-3.17,1.07-6.39,2.03-9.62,2.91
			c-3.74,1.02-7.49,1.6-11.3,0.15c-1.31-0.5-2.53,0.03-3.46,1.06c-0.95,1.06-1.05,2.31-0.59,3.59c0.21,0.59,0.62,1.11,0.93,1.67
			C331.57,321.21,332.49,323.49,332.22,326.06z M540.12,376.78c-0.04-0.41,0.09-1.45-0.26-2.29c-1.67-3.99-4.01-7.44-8.15-9.29
			c-0.88-0.39-1.76-0.77-2.6-1.23c-6.15-3.32-12.22-3.06-18.28,0.31c-5.26,2.93-7.99,9.02-6.59,14.89c1.07,4.5,2.36,8.94,2.83,13.57
			c0.52,5.16,0.2,10.07-3.28,14.29c-0.1,0.12-0.18,0.26-0.26,0.4c-1.01,1.69-0.97,3.22,0.1,4.44c1.01,1.15,2.47,1.45,4.17,0.72
			c1.17-0.5,2.3-1.11,3.41-1.75c7.7-4.39,14.49-9.94,20.68-16.23c1.67-1.7,3.13-3.63,4.53-5.57
			C538.95,385.58,539.95,381.57,540.12,376.78z M319.51,232.01c-0.56-1.81-0.83-3.78-1.74-5.38c-1.57-2.77-3.45-5.41-6.18-7.23
			c-1.38-0.92-2.83-1.81-4.38-2.39c-5.98-2.23-12.01-4.33-18.02-6.49c-2.03-0.73-4.05-1.48-6.08-2.2
			c-7.71-2.73-15.8-3.89-23.75-5.67c-2.25-0.5-3.87,0.7-4.32,3.05c-0.41,2.16-0.12,4.28,0.64,6.36c2.83,7.64,8.04,13.15,15.25,16.75
			c3.48,1.74,7.22,2.06,10.93,0.64c1.78-0.68,3.46-1.63,5.2-2.42c3.43-1.57,8.17-2.35,11.59,2.26c0.85,1.14,1.4,2.5,2.06,3.77
			c0.7,1.34,1.28,2.76,2.06,4.05c2.07,3.42,7.31,5.2,10.71,3.62C317.13,239.04,319.35,236.36,319.51,232.01z M594.74,267.07
			c0.13-0.01,0.26-0.03,0.4-0.04c-0.67-4.9-1.13-9.83-2.07-14.68c-0.63-3.26-1.49-6.62-3.01-9.54c-3.63-6.97-9.21-12.2-16.06-16.01
			c-3.42-1.9-6.87-3.78-10.45-5.33c-3.42-1.49-6.98-2.78-10.58-3.74c-2.78-0.74-4.82,1.83-3.83,4.56c0.51,1.41,1.15,2.86,2.05,4.04
			c3.09,4.05,6.33,7.98,9.52,11.96c0.05,0.06,0.11,0.12,0.17,0.17c2.78,2.07,4.85,4.81,7.09,7.42c2.66,3.09,4.19,6.56,4.66,10.56
			c0.17,1.43,0.2,2.89,0.53,4.28c0.51,2.08,0.77,4.42,1.95,6.08c3.27,4.65,7.53,8.24,13.14,9.9c2.75,0.82,6.28-1.48,6.48-4.34
			C594.84,270.59,594.74,268.83,594.74,267.07z M109.68,255.56c1.97-0.03,3.5-0.79,4.35-2.54c0.82-1.69,0.05-3.09-1.09-4.35
			c-0.75-0.83-1.48-1.68-2.26-2.48c-3.29-3.39-6.92-6.38-10.66-9.27c-4.61-3.56-8.96-7.48-13.52-11.11
			c-3.25-2.58-6.7-4.91-10.01-7.41c-3.69-2.79-7.5-5.5-9.73-9.74c-1.3-2.48-2.68-4.92-3.79-7.48c-2.31-5.31-4.99-10.33-9.01-14.6
			c-2.3-2.45-5.05-3.91-8.2-4.67c-2.35-0.57-4.09,0.98-4.12,3.4c-0.01,1.04,0.09,2.08,0.2,3.11c0.69,6.63,2.18,12.94,7.21,17.82
			c0.46,0.44,0.8,1,1.21,1.49c5.53,6.71,11.86,12.5,19.38,16.92c0.34,0.2,0.69,0.41,0.99,0.68c3.55,3.24,6.84,6.7,9.55,10.7
			c2.14,3.16,4.19,6.4,7.26,8.86c5.76,4.62,12.26,7.77,19.23,10.03C107.63,255.23,108.67,255.35,109.68,255.56z M69.72,185.95
			c-0.67,0.07-1.23,0.11-1.78,0.18c-2.98,0.34-4.36,2.37-3.52,5.21c0.32,1.07,0.72,2.12,1.16,3.15c1.68,3.97,3.31,7.94,6.24,11.25
			c4.48,5.08,9.69,9.32,15.29,13.01c4.11,2.71,8.54,5,13.01,7.1c9.6,4.53,19.31,8.81,28.97,13.23c4.63,2.12,8.85,4.78,11.84,9.06
			c0.44,0.63,1.07,1.21,1.74,1.59c1.12,0.64,2.32,0.5,3.41-0.19c1.08-0.68,1.07-1.82,0.77-2.79c-0.45-1.5-0.96-3.07-1.82-4.36
			c-1.69-2.51-3.46-5.03-5.55-7.2c-1.97-2.04-4.2-4.01-6.67-5.36c-4.33-2.38-8.92-4.27-13.41-6.35c-1.45-0.67-2.98-1.2-4.35-2
			c-4.04-2.39-8.4-4.27-11.93-7.5c-2.7-2.47-5.56-4.78-8.35-7.16c-3.08-2.62-5.3-5.94-7.62-9.19c-0.97-1.37-2.04-2.66-3.07-3.98
			c-3.4-4.33-8.17-6.23-13.29-7.5C70.41,186.03,70.01,186,69.72,185.95z M483.75,421.03c4.63-0.31,8.55-2.56,11.06-7.02
			c0.85-1.52,1.43-3.2,2.1-4.83c1.03-2.48,1.41-5.05,1.07-7.74c-0.42-3.32-0.72-6.66-1.22-9.98c-0.55-3.63-1.28-7.24-3.04-10.53
			c-1.92-3.58-5.02-5.07-8.96-4.24c-1.32,0.28-2.61,0.72-3.91,1.1c-2.78,0.81-5.55,1.44-8.46,0.6c-1.49-0.43-2.89-0.03-3.83,1.29
			c-0.96,1.34-0.65,2.65,0.09,4.03c0.62,1.17,1.2,2.46,1.39,3.75c0.39,2.59-0.54,4.95-2.27,6.83c-1.83,1.98-3.85,3.81-5.91,5.56
			c-1.32,1.12-2.19,2.32-1.96,4.09c0.22,1.71,1.29,2.69,2.89,3.14c2.13,0.6,3.98,1.75,5.53,3.24c1.95,1.87,3.84,3.85,5.45,6.02
			C476.19,419.62,479.46,420.81,483.75,421.03z M78.73,168.86c-5.5,0.21-10.53,0.38-15.56,0.59c-3.72,0.15-7.28,1.08-10.62,2.67
			c-1.4,0.67-2.67,1.73-3.8,2.82c-1.05,1.02-1.16,2.44-0.52,3.79c0.65,1.37,1.83,1.97,3.32,1.92c0.8-0.02,1.6-0.11,2.39-0.22
			c4.8-0.67,9.56-0.3,14.33,0.35c10.09,1.37,19.9,3.99,29.59,6.99c6.48,2,12.96,4.08,19.01,7.24c0.78,0.41,1.51,0.9,2.3,1.28
			c2.98,1.43,5.29,0.6,6.67-2.41c0.33-0.72,0.61-1.48,0.78-2.25c0.71-3.25,0.47-6.48-0.15-9.74c-0.6-3.17-2.38-5.18-5.29-6.25
			c-2.32-0.86-4.69-1.6-7.05-2.33c-6.77-2.08-13.76-2.83-20.78-3.34C88.32,169.61,83.31,169.21,78.73,168.86z M420.25,427.72
			c-3.97,0.01-6.09,0.57-8.59,2.01c-0.76,0.44-1.48,0.96-2.27,1.35c-4.46,2.21-6.34,6.12-7.06,10.76c-0.27,1.74,0.07,3.37,1.63,4.49
			c4.1,2.93,8.19,5.9,12.81,7.96c5.99,2.66,12.04,5.18,18.03,7.84c2.47,1.1,4.89,2.34,7.28,3.6c2.05,1.08,4.02,2.31,6.06,3.41
			c1.66,0.89,3.1,0.78,4.22-0.25c1.28-1.18,1.54-2.66,0.76-4.15c-0.8-1.54-1.74-3.04-2.79-4.42c-1.12-1.47-2.41-2.82-2.81-4.68
			c-0.54-2.5-0.98-5.01-1.48-7.52c-0.31-1.56-0.45-3.2-1.03-4.67c-1.56-4.01-3.73-7.59-7.89-9.5c-3.19-1.47-6.34-3.06-9.54-4.5
			C424.94,428.25,422.12,427.74,420.25,427.72z M406.37,425.96c1.05-0.32,2.14-0.55,3.14-0.98c1.9-0.83,3.2-2.37,4.25-4.09
			c0.67-1.08,1.47-1.76,2.76-2.06c2.17-0.5,3.73-1.93,4.32-4.07c0.42-1.51,0.52-3.13,0.6-4.71c0.23-4.16,1.42-7.78,4.95-10.41
			c2.52-1.88,2.34-4.77-0.23-6.57c-0.58-0.41-1.24-0.75-1.9-1c-4.49-1.67-8.98-3.32-13.49-4.94c-9.24-3.32-18.49-6.6-27.73-9.93
			c-1.63-0.59-3.13-0.74-4.39,0.66c-1.25,1.4-1.06,2.96-0.21,4.45c0.87,1.52,1.64,3.17,2.84,4.39c2.22,2.27,4.59,4.45,7.14,6.35
			c3.85,2.88,6.91,6.35,9.34,10.47c1.05,1.77,1.41,3.53,0.73,5.48c-0.32,0.9-0.62,1.81-1.03,2.67
			C394.49,417.89,399.39,425.69,406.37,425.96z M332.6,308.19c0.01-0.14,0.02-0.28,0.04-0.41c1.12,0,2.25,0.11,3.35-0.02
			c2.13-0.27,4.29-0.52,6.36-1.06c2.28-0.6,3.13-2.57,2.15-4.69c-0.42-0.92-1.05-1.8-1.76-2.53c-3.32-3.45-6.83-6.73-10.03-10.29
			c-3.94-4.38-8.72-7.53-14.04-9.8c-5.68-2.43-11.55-2.08-17.36-0.22c-2.05,0.66-4.06,1.49-6.15,2.01c-4.8,1.2-9.6,2.49-14.64,2.15
			c-1.46-0.1-2.67,0.58-3.31,1.96c-0.63,1.36-0.42,2.72,0.61,3.78c0.76,0.79,1.65,1.52,2.61,2.04c2.14,1.16,4.53,1.46,6.92,1.77
			c2.6,0.34,5.36,0.45,7.72,1.46c3.12,1.34,5.93,3.43,8.85,5.22c1.15,0.71,2.22,1.56,3.39,2.24c4.9,2.83,10.16,4.63,15.8,5.29
			C326.28,307.45,329.44,307.82,332.6,308.19z M385.72,279.82c-0.23,7.56,2.99,11.37,9.46,12.36c0.55,0.08,1.11,0.11,1.67,0.15
			c2.63,0.18,5.28,0.25,7.9,0.55c3.09,0.36,6.19,0.77,9.22,1.44c2.99,0.66,5.74,1.93,7.73,4.47c0.78,1,1.74,1.87,2.69,2.73
			c1.68,1.54,3.95,1.23,5.1-0.73c0.44-0.75,0.69-1.61,1-2.43c1.38-3.62,3.35-6.71,7.12-8.29c1.52-0.64,2.5-1.78,2.48-3.49
			c-0.02-1.76-1.17-2.71-2.71-3.27c-0.23-0.08-0.46-0.14-0.68-0.23c-8-3.45-16.02-6.84-23.28-11.77c-1.9-1.29-4.09-2.17-6.22-3.05
			c-2.84-1.17-5.85-1.66-8.93-1.38c-5.83,0.53-10.86,3.85-12.15,10.1C385.87,278.06,385.8,279.18,385.72,279.82z M304.42,426.93
			c-0.08,0.01-0.17,0.02-0.25,0.03c0.45,3.64,0.69,7.33,1.41,10.92c1.01,5.01,2.25,9.98,3.66,14.89c1.73,6.04,4.32,11.69,8.53,16.48
			c2.68,3.05,5.85,5.01,9.95,5.71c2.62,0.45,5.31-1.36,4.95-4.51c-0.15-1.27-0.4-2.54-0.42-3.81c-0.12-7.92-0.14-15.83,1.32-23.66
			c0.42-2.27,0.71-4.57,1.03-6.86c0.18-1.3-0.25-2.4-1.34-3.14c-0.92-0.62-1.91-1.16-2.91-1.66c-1.29-0.64-2.62-1.2-3.91-1.82
			c-5.69-2.73-11.37-5.49-17.07-8.2c-2.35-1.11-4.64,0.17-4.92,2.74C304.33,425,304.42,425.97,304.42,426.93z M181.38,209.84
			c1-0.05,2.13-0.02,3.24-0.16c3.05-0.38,5.76-1.45,7.46-4.19c2.17-3.5,2.74-7.28,1.71-11.28c-0.38-1.47-1.22-2.45-2.65-3.17
			c-6.61-3.32-13.57-5.62-20.76-7.23c-8.1-1.82-16.23-3.52-24.35-5.26c-3.82-0.82-7.65-1.63-11.49-2.4
			c-2.61-0.52-4.39,0.52-4.77,2.69c-0.35,1.99,1.04,3.48,3.46,4.06c1.69,0.4,3.37,0.97,4.94,1.72c3.67,1.77,6.53,4.55,9.13,7.63
			c4.87,5.79,10.66,10.32,17.79,13.03c0.75,0.28,1.5,0.57,2.18,0.99C171.56,208.93,176.33,209.68,181.38,209.84z M469.95,425.81
			c-0.2-0.99-0.65-2.77-0.89-4.58c-0.4-2.97-2.16-4.66-4.62-6.22c-8.03-5.08-15.9-10.41-23.87-15.58c-0.82-0.53-1.92-0.77-2.91-0.84
			c-1.72-0.12-3.29,0.54-4.73,1.45c-6.92,4.39-8.09,14.36-2.4,20.22c2.32,2.4,5.16,3.97,8.12,5.41c2.43,1.18,4.85,2.44,7.07,3.98
			c3.43,2.37,6.11,5.25,6.1,9.93c-0.01,2.53,2.74,3.7,4.96,2.42c0.41-0.24,0.75-0.65,1.18-0.8c3.67-1.3,6.34-3.94,8.86-6.71
			C468.82,432.32,469.92,429.67,469.95,425.81z M309.49,259.2c-0.02,3.13,0.27,4.45,1.74,6.73c2.3,3.57,5.51,5.84,9.65,6.98
			c8,2.2,16.46-2.03,19.38-7.89c1.56-3.13,2.87-6.4,4.15-9.67c0.87-2.22,0.95-4.59-0.02-6.79c-1.28-2.92-2.83-5.72-4.16-8.62
			c-0.83-1.8-1.77-3.62-2.11-5.53c-0.38-2.14-1.36-3.78-2.96-5.01c-1.76-1.36-3.68-2.54-5.61-3.65c-1.26-0.73-2.82-0.37-3.77,0.58
			c-0.96,0.96-1.22,2.41-0.59,3.77c0.26,0.57,0.7,1.06,1.02,1.62c0.43,0.76,0.93,1.5,1.19,2.32c1.07,3.31-0.19,6.15-2.14,8.69
			c-1.92,2.5-4.52,4.23-7.22,5.84c-1.84,1.1-3.61,2.34-5.31,3.65C310.35,254.06,309.28,256.55,309.49,259.2z M579.38,294.24
			c0.11-0.01,0.22-0.01,0.33-0.02c0-1.04-0.01-2.08,0-3.11c0.04-3.71-0.38-7.32-1.81-10.79c-1.13-2.74-3.12-4.57-5.76-5.78
			c-1.12-0.51-2.24-0.41-3.18,0.3c-1.2,0.91-2.46,1.85-3.37,3.03c-0.68,0.89-1,2.15-1.17,3.29c-0.16,1.08,0.09,2.23,0.13,3.34
			c0.16,4.46,0.4,8.93,0.43,13.39c0.01,2.37-0.86,4.46-2.68,6.19c-2.08,1.98-3.91,4.22-5.96,6.24c-2.09,2.06-3.17,4.59-3.73,7.37
			c-1.61,7.99,3.38,14.37,11.15,13.69c3.77-0.33,6.95-1.69,9.03-5.06c0.59-0.95,1.24-1.87,1.96-2.72
			c4.25-5.06,5.69-10.96,5.32-17.42C579.86,302.19,579.61,298.21,579.38,294.24z M226.03,312.42c-0.23-0.46-0.55-1.38-1.11-2.12
			c-1.83-2.42-3.73-4.79-5.65-7.15c-0.45-0.55-1.03-1.01-1.63-1.4c-2.64-1.72-4.48-4.05-5.55-7.01c-0.27-0.75-0.61-1.48-0.92-2.21
			c-3.31-7.97-8.21-14.56-15.95-18.8c-1.94-1.06-3.81-2.43-5.36-4c-2.29-2.33-4.18-5.04-6.39-7.45c-3.99-4.35-7.72-9.07-12.25-12.78
			c-4.98-4.07-10.72-7.22-16.19-10.66c-1.58-0.99-3.34-0.59-4.37,0.62c-1.09,1.28-1.08,2.81,0.06,4.4c0.23,0.32,0.52,0.6,0.78,0.91
			c2.85,3.45,5.65,6.94,8.54,10.35c4.77,5.63,9.86,10.92,16.14,14.91c6.29,3.99,12.29,8.34,17.61,13.59
			c2.53,2.5,4.71,5.26,6.26,8.43c3,6.15,7.12,11.33,12.49,15.56c2,1.57,3.8,3.39,5.66,5.14c0.81,0.76,1.48,1.68,2.28,2.45
			c1,0.96,2.19,1.28,3.53,0.71C225.25,315.37,226.04,314.19,226.03,312.42z M515.86,199.85c0.36,5.97,0.61,11.36,3.24,16.21
			c1.75,3.22,3.58,6.45,5.79,9.37c5.89,7.79,12.39,15.04,20.13,21.08c1.01,0.79,1.95,1.65,2.91,2.5c3.84,3.36,7.67,6.73,11.52,10.09
			c1.32,1.15,2.86,1.26,4.17,0.31c1.3-0.94,1.83-2.61,0.97-4.04c-1.18-1.97-2.46-3.91-3.93-5.66c-3.85-4.57-8.42-8.49-11.78-13.52
			c-1.94-2.89-3.41-5.94-4.69-9.13c-1.43-3.55-2.68-7.19-4.36-10.61c-1.97-4.02-4.42-7.84-7.73-10.9c-2.67-2.47-4.85-5.3-7.03-8.15
			c-0.7-0.92-1.19-2.05-1.57-3.16c-0.7-2.01-1.75-2.92-3.61-2.83c-1.89,0.09-3.13,1.22-3.45,3.33
			C516.15,196.63,516,198.55,515.86,199.85z M586.31,309.42c-0.57,9.38-0.24,6.5-4.03,14.6c-0.07,0.14-0.12,0.3-0.21,0.43
			c-2.11,3.13-4.44,6.1-7.67,8.11c-2.22,1.38-4.7,2.35-7.07,3.49c-1.29,0.62-2.66,1.12-3.9,1.83c-5.26,3.01-7.07,8.53-4.92,14.15
			c1.02,2.67,3.08,4.21,5.23,5.72c1.94,1.36,3.45,1.18,5.1-0.58c1.25-1.34,2.46-2.74,3.57-4.2c2.37-3.11,4.69-6.26,6.97-9.43
			c2.98-4.14,6.27-8.11,8.79-12.51c5.53-9.64,9.92-19.82,12.76-30.61c0.21-0.81,0.25-1.77,0.04-2.58c-1.24-4.71-4.6-7.58-8.84-9.43
			c-2.55-1.11-4.5-0.2-5.79,2.27c-0.39,0.75-0.67,1.66-0.69,2.5c-0.07,2.79-0.06,5.59,0.05,8.37
			C585.81,304.19,586.1,306.8,586.31,309.42z M386.75,405.68c-0.05-2.19-0.7-4.13-1.93-5.88c-2.3-3.27-5.23-5.78-8.93-7.38
			c-1.59-0.68-3.23-1.06-4.9-0.62c-2.38,0.63-4.74,1.37-7.06,2.19c-3.57,1.27-5.69,4.03-6.98,7.44c-1.05,2.77-1.65,5.64,0.82,8.03
			c2.93,2.82,5.83,5.69,9.02,8.2c4.27,3.36,8.63,6.56,12.01,10.9c1.27,1.63,2.84,3.03,4.33,4.47c1.58,1.52,3.46,2.52,5.61,3.05
			c5.09,1.24,8.02-2.94,7.18-7.03c-0.64-3.11-2.03-5.82-4.63-7.88c-1.68-1.33-3.2-2.89-4.61-4.51c-0.64-0.72-1.09-1.8-1.19-2.76
			c-0.12-1.24,0.14-2.53,0.35-3.78C386.09,408.63,386.44,407.16,386.75,405.68z M99.78,194.3c-1.89,0.06-2.94,0.72-3.59,1.93
			c-0.65,1.22-0.7,2.55,0.22,3.61c1.72,1.99,3.39,4.09,5.39,5.76c8.43,6.99,18.1,11.98,27.94,16.6c5.12,2.4,10.52,4.21,15.75,6.39
			c6.13,2.56,11.93,5.75,17.64,9.14c5.96,3.54,11.55,7.44,15.54,13.26c0.4,0.58,0.92,1.13,1.49,1.54c1.13,0.82,2.89,0.69,3.78-0.18
			c1.03-1.01,0.59-2.11,0.01-3.07c-1.15-1.91-2.32-3.83-3.68-5.59c-4.17-5.37-9.59-9.36-15.18-13.04
			c-4.89-3.22-9.45-6.85-13.82-10.68c-4.84-4.24-10.27-7.18-16.31-9.31c-7.68-2.71-15.26-5.7-22.8-8.76
			c-3.86-1.56-7.37-3.8-10.49-6.61C101.05,194.73,100.16,194.49,99.78,194.3z M375.36,276.03c0.43-0.16,1.04-0.33,1.6-0.61
			c1.9-0.97,3.12-2.6,3.56-4.6c0.86-3.9,3.1-6.38,6.9-7.52c0.08-0.02,0.15-0.07,0.22-0.1c1.44-0.57,2.46-1.5,2.58-3.14
			c0.11-1.54-0.75-2.54-1.97-3.32c-1.48-0.94-2.97-1.87-4.44-2.84c-5.75-3.76-11.4-7.7-17.28-11.25c-4.5-2.72-9.28-4.98-13.97-7.4
			c-1.6-0.83-3.13-0.49-4.41,0.73c-1.26,1.2-1.28,2.62-0.75,4.2c1.11,3.31,2.63,6.31,5.26,8.72c2.51,2.31,2.73,3.9,1.3,7.07
			c-0.56,1.24-1.22,2.43-1.83,3.64c-0.36,0.71-0.79,1.4-1.06,2.15c-1.06,2.85,0.07,5.12,3,5.93c1.07,0.3,2.2,0.42,3.31,0.54
			c1.99,0.2,3.98,0.41,5.98,0.46c2.07,0.05,3.69,0.92,5.05,2.38c0.54,0.58,1,1.24,1.51,1.86
			C371.28,274.59,372.97,275.72,375.36,276.03z M600.74,286.7c-0.16,2.29,0.4,3.45,1.8,4.13c1.35,0.66,2.97,0.49,3.96-0.68
			c2.11-2.5,4.26-4.99,6.1-7.68c1.89-2.76,3.58-5.69,5.08-8.68c0.96-1.93,2.25-2.62,4.31-2.68c8.38-0.21,16.16-2.83,23.69-6.26
			c5.82-2.65,11.22-6.08,16.57-9.57c1.48-0.96,2.09-2.33,1.67-3.88c-0.38-1.41-1.55-2.29-3.21-2.4c-0.32-0.02-0.64-0.03-0.96,0.01
			c-3.08,0.42-6.19,0.72-9.24,1.33c-3.28,0.66-6.49,1.68-9.74,2.46c-7.25,1.73-14.31,3.99-21.19,6.85c-5.27,2.2-10.18,4.9-14.3,9.01
			c-3.57,3.56-5.48,7.6-5.05,12.66C600.4,283.25,600.6,285.15,600.74,286.7z M356.67,385.56c3.81,0,7.46-0.76,10.86-2.5
			c4.04-2.07,4.68-6.44,1.45-9.66c-0.28-0.28-0.61-0.51-0.93-0.75c-3.51-2.68-7.27-4.92-11.3-6.71c-5.69-2.53-11.4-4.96-16.83-8.06
			c-6.08-3.47-12.74-5.51-19.7-6.4c-1.88-0.24-3.85-0.31-5.72-0.08c-2.8,0.35-3.82,3.23-2.03,5.4c0.5,0.6,1.17,1.08,1.83,1.52
			c2.5,1.66,5.36,2.46,8.22,3.16c4.89,1.18,9.16,3.24,11.86,7.77c0.69,1.16,1.47,2.29,2.35,3.33c2.26,2.68,4.52,5.37,6.92,7.92
			C347.17,384.21,351.68,385.55,356.67,385.56z M486.93,463.88c0.08-0.01,0.15-0.01,0.23-0.02c-0.31-2.53-0.35-5.13-1-7.57
			c-1.31-4.93-4.04-8.92-9.17-10.48c-3.87-1.17-7.71-0.76-10.67,2.29c-3.18,3.27-5.1,7.27-6.02,11.78c-1,4.93,0.48,9.02,3.93,12.43
			c3.38,3.34,7.24,6.01,11.91,7.31c4.54,1.26,9.07,2.53,13.61,3.78c1.38,0.38,2.77,0.75,4.18,1.04c1.83,0.37,3.33-0.45,3.85-2.02
			c0.54-1.61-0.12-3.18-1.7-4.02c-0.42-0.22-0.89-0.35-1.33-0.54c-5.05-2.15-8.1-7.04-7.82-12.53
			C486.95,464.83,486.93,464.35,486.93,463.88z M458.1,385.99c-0.16-6.93-2.91-12.98-6.55-18.7c-1.37-2.15-2.89-4.21-4.41-6.27
			c-1.09-1.47-2.18-2.96-3.44-4.28c-1.55-1.62-3.15-1.8-4.73-0.82c-1.44,0.9-1.74,2.22-1.35,4.41c0.27,1.54,0.61,3.24,0.23,4.69
			c-1.05,4-3.36,7.2-7.15,9.14c-1.21,0.62-2.46,1.15-3.63,1.84c-1.44,0.85-2.91,1.7-4.18,2.76c-2.32,1.95-1.85,5.4,0.86,6.76
			c1.21,0.6,2.48,1.12,3.77,1.51c7.22,2.22,13.91,5.58,20.41,9.37c3,1.75,6.59,0.73,8.34-2.33
			C457.7,391.57,458.23,388.87,458.1,385.99z M192.52,230.29c0.47-0.06,1.1-0.17,1.73-0.23c5.31-0.55,9.55-6.42,6.74-10.87
			c-0.21-0.33-0.27-0.75-0.39-1.13c-1.1-3.3-5.58-6.68-9.58-5.09c-1.18,0.47-2.46,0.7-3.7,0.98c-8.39,1.88-16.34,0.88-23.76-3.6
			c-1.85-1.11-3.64-2.38-5.6-3.22c-5.36-2.29-9.91-5.78-14.52-9.22c-2.27-1.7-4.3-3.42-5.18-6.33c-0.6-1.96-2.85-2.41-4.55-1.07
			c-0.91,0.71-1.63,1.75-2.21,2.77c-0.75,1.31-1.28,2.75-1.88,4.14c-1.19,2.78-0.37,5.07,2.34,6.35c0.86,0.4,1.81,0.59,2.72,0.89
			c3.72,1.21,7.65,1.99,11.11,3.71c7.5,3.72,14.74,7.98,22.15,11.91c4.79,2.55,9.62,5.05,14.56,7.3
			C185.58,228.98,188.84,230.18,192.52,230.29z M228.75,300.23c-2.98,0.03-4.5,2.66-3.28,4.83c0.23,0.41,0.6,0.74,0.89,1.12
			c2.32,3.06,4.64,6.1,5.76,9.87c1.71,5.77,4.01,11.28,7.37,16.3c2.88,4.31,5.7,8.67,8.71,12.89c1.52,2.14,3.31,4.12,5.16,5.99
			c2.24,2.26,4.49,4.58,7.05,6.45c6.78,4.94,13.73,9.65,20.62,14.42c0.78,0.54,1.64,1.01,2.52,1.35c1.43,0.55,2.82,0.18,3.69-0.9
			c0.95-1.18,1.08-2.5,0.36-3.8c-0.37-0.68-0.97-1.25-1.55-1.78c-1.23-1.13-2.52-2.22-3.79-3.31c-3.63-3.12-7.2-6.32-10.92-9.33
			c-4.09-3.32-8.36-6.42-12.48-9.7c-2.31-1.84-4.53-3.79-6.66-5.83c-1.25-1.19-2.58-2.5-3.26-4.03c-1.29-2.9-2.41-5.93-3.13-9.02
			c-2.29-9.83-6.86-18.18-15-24.36C230.06,300.81,229.17,300.46,228.75,300.23z M544.9,493.15c7.77-0.48,12.76-3.04,16.29-8.52
			c1.6-2.48,1.67-4.84,0.27-7.43c-1.8-3.3-4.51-5.83-7.73-7.31c-10.08-4.65-20.34-8.93-30.55-13.3c-1.32-0.56-2.69-0.34-3.8,0.69
			c-1.04,0.97-1.4,2.25-0.88,3.51c1,2.43,1.9,4.95,3.99,6.74c2.31,1.97,4.59,3.98,7.41,5.25c1.01,0.46,1.89,1.22,2.9,1.69
			c3.89,1.81,4.84,5.25,5.13,9.07c0.04,0.56-0.02,1.13,0.06,1.68c0.14,1.02,0.21,2.08,0.53,3.05
			C539.42,491.1,542.29,493.23,544.9,493.15z M379.96,300.63c0.29-7.23-4.39-17.18-11.35-21.09c-2.56-1.44-5.23-2.75-7.95-3.85
			c-4.96-2.01-9.61-0.9-13.81,2.08c-1.1,0.78-1.95,2.14-2.5,3.41c-1.38,3.21-0.55,6.3,1.14,9.15c2.8,4.71,7,7.38,12.32,8.76
			c5.7,1.47,11.44,3,15.8,7.5c1.97,2.03,4.79,1.23,5.65-1.5C379.71,303.68,379.74,302.12,379.96,300.63z M230.93,292.31
			c-0.1-0.28-0.28-0.89-0.55-1.46c-0.83-1.73-2.29-2.82-3.86-3.82c-3.2-2.06-6-4.57-7.81-7.95c-3.1-5.78-5.95-11.7-7.87-17.97
			c-2.37-7.77-6.53-14.19-13.11-18.95c-3.36-2.43-6.89-4.63-10.33-6.96c-2.12-1.43-4.2-2.91-6.3-4.36c-1.49-1.02-3-0.99-4.19,0.06
			c-1.05,0.93-1.16,2.08-0.33,3.69c0.18,0.35,0.36,0.72,0.62,1.02c2.74,3.22,5.46,6.46,8.27,9.63c3.86,4.37,7.82,8.64,11.65,13.04
			c0.92,1.06,1.56,2.4,2.15,3.7c1.48,3.29,3.01,6.51,5.29,9.36c1.24,1.55,2.26,3.29,3.24,5.03c2.45,4.35,5.44,8.27,9.07,11.7
			c1.22,1.15,2.36,2.38,3.64,3.46c1.65,1.39,3.36,2.7,5.12,3.95c1.12,0.8,2.39,0.86,3.62,0.14
			C230.36,294.97,230.95,293.98,230.93,292.31z M598.33,256.65c-0.28,3.38,1.09,5.01,3.83,4.42c2.64-0.57,5.43-1.13,7.73-2.45
			c4.49-2.57,8.93-5.31,12.86-8.75c4.25-3.72,6.62-8.57,8.28-13.8c0.45-1.42,0.49-3,0.53-4.51c0.07-2.41-1.32-3.86-3.72-4.18
			c-1.61-0.21-2.98,0.41-4.34,1.1c-5.27,2.69-10.52,5.4-15.8,8.06c-1.06,0.54-2.2,0.99-3.35,1.29c-2.04,0.53-4.06,0.71-5.99-0.59
			c-1.34-0.91-2.75-0.69-3.99,0.34c-1.66,1.37-1.85,3.54-0.33,5.3c2.04,2.36,3.45,5,3.84,8.1
			C598.12,252.85,598.19,254.75,598.33,256.65z M237.23,359.51c-0.04-2.32-1.29-4.02-2.8-5.64c-2.34-2.51-4.67-5.03-6.91-7.63
			c-2.08-2.41-3.84-5.14-6.11-7.34c-8.25-8.01-16.65-15.86-25-23.77c-2.49-2.36-4.97-4.74-7.5-7.07c-1.47-1.35-2.97-2.68-4.54-3.9
			c-1.57-1.22-3.55-1.06-4.79,0.24c-1.24,1.3-1.24,2.9,0,4.55c0.24,0.32,0.53,0.6,0.78,0.91c2.17,2.66,4.33,5.33,6.51,7.98
			c3.15,3.82,6.24,7.68,9.49,11.42c2.41,2.77,5.18,5.23,7.48,8.08c2.35,2.9,5.07,5.32,8.1,7.4c6.46,4.45,12.31,9.61,17.88,15.12
			c1.09,1.08,2.55,1.98,4,2.46C235.81,362.97,237.23,361.63,237.23,359.51z M257.77,328.49c-0.09-0.36-0.26-1.05-0.45-1.74
			c-1.94-6.84-3.88-13.68-5.82-20.52c-0.15-0.54-0.32-1.07-0.51-1.6c-1.92-5.51-3.85-11.01-5.76-16.52
			c-1.89-5.46-4.12-10.8-7.59-15.43c-3.57-4.76-8.35-8.36-12.88-12.16c-1.39-1.16-3.15-1.05-4.43-0.01c-1.2,0.97-1.55,2.5-0.95,4.12
			c0.75,2.02,1.55,4.02,2.24,6.06c1.89,5.57,4.84,10.44,9.43,14.19c2.75,2.25,4.48,5.1,5.83,8.35c1.44,3.46,3.27,6.75,4.83,10.16
			c1.49,3.26,3.76,6.11,4.72,9.67c1.4,5.17,3.03,10.27,4.58,15.39c0.21,0.69,0.42,1.39,0.77,2.01c0.72,1.26,2.17,1.85,3.48,1.52
			C256.73,331.61,257.72,330.36,257.77,328.49z M273.7,383.95c-0.29-0.63-0.63-1.83-1.33-2.74c-2.33-3.04-4.67-6.08-7.22-8.93
			c-3.94-4.4-7.94-8.76-12.13-12.93c-2.46-2.45-4.52-5.12-6.32-8.08c-3.71-6.1-8-11.74-13.44-16.46c-2.53-2.19-4.81-4.68-7.1-7.12
			c-2.18-2.33-4.22-4.79-6.35-7.17c-1.15-1.29-2.72-1.54-4.12-0.72c-1.44,0.84-2.01,2.54-1.28,4.16c0.36,0.79,0.86,1.54,1.39,2.23
			c1.31,1.7,2.66,3.37,4.01,5.04c4.56,5.67,9.21,11.25,14.45,16.33c4.64,4.49,8.6,9.46,10.75,15.66c0.92,2.65,2.86,4.61,4.71,6.57
			c3.5,3.72,7.11,7.33,10.68,10.99c2.76,2.83,6.14,4.54,9.93,5.51c0.46,0.12,0.95,0.18,1.42,0.16
			C273.07,386.38,273.65,385.77,273.7,383.95z M403.49,377.89c3.65,0.05,6.1-0.25,8.5-1.64c4-2.31,7.86-4.87,11.76-7.37
			c0.73-0.47,1.36-1.11,2.01-1.71c3.09-2.86,4.96-6.35,5.89-10.48c0.94-4.13-1.33-8.04-6.08-8.94c-1.22-0.23-2.57-0.16-3.79,0.09
			c-5.81,1.18-10.36,4.44-14.08,8.94c-0.92,1.11-1.66,2.36-2.56,3.47c-3.04,3.73-6.23,7.3-10.78,9.29c-1.2,0.53-1.82,1.52-1.85,2.85
			c-0.04,1.43,0.62,2.46,1.89,3.07C397.54,376.95,400.88,377.7,403.49,377.89z M492.08,458.31c0.02,0,0.03,0,0.05,0
			c0,1.76-0.13,3.53,0.02,5.27c0.48,5.34,4.37,7.91,9.46,6.35c0.23-0.07,0.45-0.16,0.68-0.24c3.85-1.5,6.9-4.02,9.14-7.45
			c2.81-4.31,1.87-9.18-2.21-12.25c-0.38-0.29-0.77-0.57-1.16-0.86c-4.77-3.5-9.46-7.05-13.87-11.04c-3.9-3.52-8.31-6.48-12.57-9.59
			c-1.64-1.2-3.36-0.9-4.52,0.46c-2.07,2.43-1.68,6.82,0.83,8.85c0.87,0.7,1.76,1.41,2.75,1.91c3.74,1.88,6.5,4.87,9.27,7.87
			c1.3,1.4,2.05,3.06,2.1,4.97C492.12,454.48,492.08,456.39,492.08,458.31z M325.98,338.29c-1.28,0.06-2.57,0.03-3.83,0.19
			c-2.61,0.34-5.27,0.57-7.51,2.19c-1.51,1.09-2,2.65-1.34,4.19c0.7,1.64,2.25,2.37,4.14,1.94c0.93-0.21,1.86-0.52,2.81-0.59
			c5.8-0.43,11.5,0.16,17.04,2c3.82,1.27,7.19,3.32,10.46,5.71c4.38,3.19,9.03,6.03,13.7,8.79c7.03,4.16,14.52,5.02,22.41,2.71
			c2.31-0.68,3.75-2.08,4.52-4.21c0.81-2.26-0.76-4.44-3.17-4.5c-0.55-0.01-1.1,0.15-1.66,0.2c-3.57,0.33-7.14,0.81-10.72,0.95
			c-4.05,0.15-7.65-1.58-11.02-3.56c-2.47-1.45-4.64-3.39-6.94-5.12c-3.53-2.65-7.26-4.91-11.29-6.75
			C337.97,339.85,332.18,338.27,325.98,338.29z M267.11,254.77c3.5-0.1,6.69-1.22,9.89-2.15c4.74-1.38,8.95-3.78,12.56-7.17
			c1.6-1.5,2.78-3.29,3.48-5.37c0.66-2,0.11-4.44-1.21-5.53c-1.92-1.59-3.67-1.79-5.94-0.42c-1.36,0.81-2.67,1.77-3.81,2.86
			c-1.73,1.66-3.78,2.07-5.96,1.72c-1.47-0.23-2.89-0.86-4.3-1.4c-1.86-0.71-3.64-1.66-5.54-2.25c-4.76-1.47-8.98-0.55-12.46,3.17
			c-3.17,3.41-3.24,7.74-0.18,11.22c1.4,1.6,3.07,2.87,5.1,3.43C261.5,253.63,264.32,254.15,267.11,254.77z M486.04,301.94
			c0.02,0-0.22-0.02-0.46-0.04c-3.41-0.21-5.06,1.36-4.49,4.71c0.56,3.29,1.14,6.61,2.71,9.65c2.52,4.9,6.02,9.07,9.97,12.79
			c2.56,2.41,5.17,4.75,7.35,7.52c1,1.27,2.24,2.12,3.94,1.5c1.77-0.65,3.16-1.81,3.16-3.8c-0.01-1.81-0.26-3.65-0.7-5.41
			c-0.73-2.94-1.82-5.8-2.51-8.75c-0.75-3.19-1.19-6.44-0.26-9.71c0.47-1.65-0.13-3.07-1.55-3.94c-1.48-0.92-3.03-1.9-4.69-2.34
			C494.52,303.06,490.5,301.94,486.04,301.94z M348.4,401.78c0.21-0.01,0.85,0.02,1.48-0.08c2.12-0.33,3.99-2.37,4.28-4.61
			c0.28-2.15-0.6-3.54-3.09-4.46c-2.02-0.75-4.12-1.27-6.15-2c-1.34-0.49-2.66-1.07-3.89-1.79c-1.51-0.89-2.92-1.96-4.36-2.96
			c-2.45-1.7-4.82-3.5-6.02-6.35c-2.07-4.89-5.32-8.85-9.28-12.34c-2.03-1.79-4.4-2.57-6.92-3.01c-1.98-0.35-3.81,0.88-3.79,2.71
			c0.03,1.95,0.1,4.21,1.06,5.78c2.04,3.31,4.4,6.51,7.11,9.3c4.57,4.71,9.86,8.6,15.44,12.09c1.88,1.18,3.59,2.65,5.31,4.08
			C342.03,400.18,344.66,401.72,348.4,401.78z M228.15,239.94c-0.18-1.01-0.16-2.96-0.89-4.58c-2.8-6.27-7.6-10.56-13.94-13.12
			c-1.49-0.6-2.89-0.24-3.88,1.02c-0.62,0.8-1.23,1.75-1.42,2.71c-0.39,2.09-1.52,3.66-2.95,5.09c-1.01,1.02-2.07,2-3.07,3.03
			c-2.26,2.35-1.97,4.62,0.76,6.31c4.28,2.64,8.55,5.31,12.85,7.92c1.29,0.79,2.61,1.56,4,2.15c2.59,1.1,5.86-0.2,7.09-2.73
			C227.8,245.56,228.06,243.18,228.15,239.94z M552.14,340.26c-0.04-0.01-0.08-0.02-0.11-0.02c0-0.32,0.02-0.64,0-0.96
			c-0.1-1.8-1.04-2.99-2.58-3.3c-1.58-0.31-2.89,0.39-3.68,2c-0.21,0.43-0.35,0.89-0.53,1.34c-1.52,3.56-3.39,6.88-6.42,9.41
			c-1.29,1.07-2.56,2.17-3.86,3.23c-1.91,1.55-2.12,3.69-0.31,5.36c0.91,0.84,2.06,1.6,3.24,1.96c2.33,0.71,4.03,2.05,5.55,3.92
			c2.71,3.34,3.81,6.88,2.45,11.11c-0.89,2.79,1.54,5.2,4.36,4.42c0.59-0.16,1.19-0.52,1.63-0.95c2.46-2.4,4.92-4.8,7.26-7.31
			c0.74-0.79,1.25-1.86,1.65-2.88c0.8-2.03,0.13-3.65-1.84-4.53c-1.31-0.59-2.69-0.98-4.02-1.53c-0.56-0.23-1.18-0.54-1.55-0.99
			c-1.64-2.03-2.75-4.32-2.83-6.98c-0.09-3.04,0.05-6.07,0.84-9.04C551.74,343.12,551.89,341.68,552.14,340.26z M367.44,173.56
			c-3.86-0.17-6.73,1.45-8.89,4.63c-2.6,3.82-1.45,10.44,3.93,12.3c2.17,0.75,4.44,1.43,6.71,1.61c5.1,0.41,8.17,3.18,9.95,7.73
			c0.23,0.59,0.4,1.23,0.71,1.77c0.74,1.31,2.27,2.04,3.65,1.76c1.54-0.31,2.63-1.19,2.94-2.78c0.16-0.85,0.21-1.76,0.12-2.62
			c-0.51-4.79-1.52-9.45-3.57-13.84C379.89,177.52,374.72,173.98,367.44,173.56z M405.61,212.68c-0.42,0.07-1.05,0.15-1.67,0.28
			c-6.75,1.42-11.68,5.67-16.19,10.51c-1.72,1.85-1.79,3.75-0.55,5.17c1.26,1.43,2.86,1.46,5.14,0.02
			c3.94-2.49,7.78-2.77,11.88-0.14c1.83,1.18,4.07,1.76,6.17,2.46c1.76,0.59,3.48,0.14,5.05-0.77c5.07-2.93,5.4-10.17,0.63-14
			C413.09,213.82,409.58,212.92,405.61,212.68z M526.55,491.55c3.63,0.09,5.17-1.92,4.06-5.34c-0.05-0.15-0.12-0.3-0.17-0.45
			c-0.74-2.59-2.26-4.65-4.08-6.63c-2.82-3.06-6.04-5.5-9.86-7c-1.65-0.65-3.6-0.96-5.37-0.82c-4.62,0.36-9.5,4.6-6.39,11.06
			c0.31,0.64,0.73,1.24,1.13,1.83c0.49,0.73,1.06,1.4,1.49,2.16c0.77,1.35,1.88,2.07,3.41,2.35c3.69,0.68,7.36,1.48,11.05,2.18
			C523.38,491.18,524.97,491.33,526.55,491.55z M306.37,359.06c-0.16-0.39-0.34-1.19-0.77-1.82c-2.69-3.87-6.15-6.87-10.35-9.03
			c-4.78-2.46-9.84-4.15-15.04-5.43c-1.31-0.32-2.67-0.52-4.01-0.61c-1.78-0.12-2.97,0.62-3.49,1.94c-0.55,1.4-0.13,2.91,1.2,4.07
			c1.02,0.89,2.16,1.66,3.12,2.61c2.71,2.66,5.82,4.73,9.14,6.5c3.8,2.03,7.61,4.03,11.45,5.96c0.67,0.34,1.57,0.5,2.29,0.36
			c1.48-0.27,2.94-0.73,4.37-1.23C305.6,361.91,306.29,360.88,306.37,359.06z M281.83,306.3c-0.24-8.78-6.54-12.69-13.76-13.46
			c-1.89-0.2-3.31,1.21-3.46,3.24c-0.1,1.33,0.13,2.7,0.32,4.03c0.9,6.15,4.59,10.12,10.56,11.58c4.25,1.04,5.73-0.23,6.34-4.68
			C281.86,306.79,281.83,306.54,281.83,306.3z"/>
		<path class="st0" d="M349.71,418.88c-1.7-1.24-3.06-2.31-4.5-3.27c-3.16-2.09-6.68-3.41-10.22-4.67
			c-8.14-2.88-15.52-7.14-22.25-12.49c-2.95-2.34-5.3-5.28-7.18-8.61c-2-3.55-4.16-7-6.24-10.5c-0.2-0.34-0.42-0.68-0.57-1.05
			c-0.72-1.77-0.14-3.52,1.42-4.33c1.49-0.78,3.11-0.38,4.21,1.14c0.97,1.36,1.8,2.82,2.78,4.18c3.36,4.65,7.43,8.59,12.31,11.6
			c5.58,3.44,11.24,6.73,16.92,9.99c5,2.88,9.8,6.05,14.25,9.71c2.28,1.88,4.35,4,6.48,6.05c2.51,2.4,5.69,3.83,8.46,5.83
			c1.46,1.06,2.78,2.41,3.89,3.85c1.83,2.38,0.95,4.64-1.86,5.57c-2.16,0.72-4.26,0.35-6.37-0.08c-1.33-0.27-2.64-0.63-3.96-0.96
			c-2.87-0.73-5.76-1.15-8.75-1.21c-6.61-0.14-12.9-1.76-19.09-4.17c-7.5-2.93-14.22-7.23-21.16-11.18
			c-2.49-1.42-5.13-2.58-7.6-4.03c-4.96-2.91-9.85-5.95-14.79-8.9c-1.3-0.78-2.69-1.4-4.01-2.15c-0.62-0.35-1.24-0.76-1.72-1.27
			c-0.99-1.03-1.18-2.61-0.57-3.78c0.63-1.24,1.89-1.9,3.42-1.67c1.31,0.2,2.61,0.53,3.92,0.8c0.85-1.76-0.01-2.85-0.93-3.83
			c-1.81-1.92-3.67-3.79-5.54-5.65c-1.36-1.35-2.76-2.66-4.14-4c-1.6-1.55-1.81-3.47-0.54-4.88c1.26-1.39,3.16-1.42,4.92,0.03
			c2.09,1.73,4.08,3.57,6.17,5.29c2.65,2.19,5.31,4.36,8.05,6.44c4.01,3.06,7,6.96,9.72,11.14c2.42,3.71,5.43,6.89,8.8,9.75
			c5.6,4.74,11.77,8.55,18.78,10.82c3.11,1,6.3,1.78,9.5,2.44C344.39,421.4,346.93,420.79,349.71,418.88z"/>
		<path class="st0" d="M118.23,240.36c0.34,0.15,1.21,0.38,1.89,0.87c7.6,5.5,15.75,10.06,24.03,14.44c3.1,1.64,6.01,3.64,9,5.49
			c1.22,0.76,2.38,1.63,3.63,2.33c9.97,5.55,18.4,12.99,25.88,21.49c4.73,5.37,9.87,10.26,15.61,14.48c2.79,2.05,4.69,4.77,6.49,7.6
			c0.96,1.5,0.75,2.81-0.44,3.88c-1.17,1.05-2.89,1.1-4.19,0.11c-0.19-0.14-0.38-0.31-0.52-0.49c-3.78-5.06-9.33-7.62-14.72-10.4
			c-4.64-2.39-9.69-3.22-14.76-3.92c-10.61-1.46-19.59-6.09-27.18-13.56c-2.22-2.19-4.38-4.43-6.62-6.6
			c-3.67-3.55-6.31-7.83-8.68-12.28c-0.63-1.19-1-2.52-1.44-3.8c-1-2.88-2.08-5.76-4.17-8.03c-1.55-1.69-3.37-3.14-5.08-4.69
			c-0.59-0.53-1.3-0.96-1.8-1.56c-0.9-1.07-1.03-2.33-0.38-3.59C115.4,240.98,116.37,240.35,118.23,240.36z"/>
		<path class="st0" d="M476.27,282.59c1.12,0,2.24-0.05,3.36,0.01c1.71,0.1,2.82,0.99,3.18,2.43c0.37,1.48-0.33,2.99-1.84,3.79
			c-0.63,0.34-1.33,0.53-1.99,0.82c-0.37,0.16-0.73,0.34-1.06,0.57c-1.96,1.32-4.3,2.22-5.11,4.79c-1.11,3.5-1.69,6.95-0.12,10.51
			c1.51,3.43,2.9,6.92,4.18,10.45c2.73,7.49,0.08,13.81-6.11,17.93c-3.39,2.26-7.45,2.7-11.55,1.88c-4-0.79-7.38-2.99-10.93-4.78
			c-1.07-0.54-2.1-1.15-3.11-1.79c-5.02-3.2-7.38-8.05-8.26-13.72c-0.67-4.29-0.58-8.6,0.33-12.87c0.5-2.33,1.64-4.32,3.3-6.01
			c2.67-2.71,5.73-4.89,9.37-6.07c4.48-1.46,8.87-3.11,13.14-5.15C467.63,283.16,471.88,282.45,476.27,282.59z"/>
		<path class="st0" d="M558.03,288.58c-0.17,5.78-2.1,10.73-6.68,14.49c-2.41,1.97-4.88,3.89-7.07,6.09
			c-2.3,2.31-3.6,5.26-3.88,8.54c-0.19,2.22-0.16,4.47-0.19,6.7c-0.12,6.97-2.62,13.04-7.61,17.8c-3.27,3.12-7.1,5.66-10.73,8.39
			c-1.36,1.03-2.91,1.35-4.46,0.31c-1.51-1.02-2.08-2.81-1.61-4.88c0.11-0.47,0.19-0.94,0.33-1.4c1.68-5.34,1.05-10.51-0.91-15.68
			c-1.55-4.09-3.47-8.09-3.98-12.5c-0.23-2.04-0.26-4.11-0.2-6.16c0.07-2.22,1.28-3.97,3-5.24c4.17-3.08,8.35-6.17,13.23-8.12
			c2.96-1.19,5.94-2.35,8.84-3.68c2.98-1.36,5.94-2.77,8.78-4.4c1.92-1.11,3.56-2.7,5.41-3.95c0.97-0.66,2.06-1.27,3.19-1.53
			c2.54-0.59,4.17,0.72,4.43,3.3C557.97,287.3,557.99,287.94,558.03,288.58z"/>
		<path class="st0" d="M392.22,338.11c0.26-4.6-0.47-9.05-1.81-13.46c-1.16-3.81-2.06-7.72-2.69-11.65
			c-0.36-2.24-0.15-4.63,0.14-6.91c0.55-4.22,3-6.81,7.23-7.51c2.09-0.35,4.36-0.5,6.4-0.04c9.4,2.11,17.39,6.69,23.51,14.27
			c3.27,4.05,4.39,8.84,4.34,13.91c-0.03,3.25-1.42,6.09-3.67,8.38c-2.25,2.28-4.69,4.4-7.71,5.6c-1.7,0.67-3.52,1.02-5.27,1.54
			c-2.15,0.64-4.28,1.32-6.42,1.95c-2.31,0.68-4.15,2.01-5.56,3.95c-0.42,0.58-0.88,1.14-1.33,1.7c-0.9,1.15-2.02,1.83-3.53,1.52
			c-1.52-0.31-2.36-1.36-2.6-2.8c-0.4-2.35-0.72-4.71-0.98-7.08C392.12,340.36,392.22,339.23,392.22,338.11z"/>
		<path class="st0" d="M238.9,251.88c1.89-0.05,4.13,0.39,6.26,1.44c2.57,1.27,5.13,2.59,7.74,3.78c1.52,0.69,3.1,1.33,4.72,1.71
			c5.13,1.2,10.3,2.56,15.61,1.8c4.57-0.65,9.09-1.73,13.6-2.77c1.2-0.28,2.3-1.04,3.39-1.68c0.89-0.52,1.67-1.25,2.56-1.77
			c1.53-0.91,3.05-0.79,4.46,0.33c3.17,2.5,4.11,6.59,2.64,10.36c-3.24,8.34-10.12,11.44-18.2,12.86c-3.14,0.55-6.32,0.94-9.44,1.59
			c-4.71,0.98-8.05,3.83-9.99,8.17c-0.97,2.16-1.84,4.47-2.17,6.79c-0.31,2.16,0.2,4.43,0.29,6.65c0.04,0.94,0.06,1.93-0.19,2.82
			c-0.37,1.36-1.45,2.07-2.84,2.22c-1.34,0.14-2.68-0.67-3.28-1.96c-0.2-0.43-0.36-0.9-0.42-1.37c-0.72-5.45-1.59-10.9-2.06-16.37
			c-0.32-3.67-1.16-7.04-3.03-10.21c-3.2-5.43-7-10.31-12.22-13.96c-1.3-0.91-2.76-1.62-4.03-2.56c-2.71-2.02-2.72-3.87-0.14-6
			C233.72,252.42,235.62,251.86,238.9,251.88z"/>
		<path class="st0" d="M660.45,245.04c-4.93-0.11-9.69,0.92-14.42,2.08c-2.78,0.68-5.52,1.57-8.27,2.38
			c-1.69,0.5-3.36-0.03-4.26-1.36c-0.81-1.2-0.79-2.78,0.21-4.02c3.43-4.28,4.6-9.22,4.29-14.58c-0.11-1.91,0.23-3.57,1.27-5.22
			c0.79-1.25,1.72-1.95,3.12-2.34c7.23-2.05,14.33-4.37,21.11-7.73c5.3-2.63,10.65-5.16,15.43-8.66c3.6-2.63,6.94-5.62,10.31-8.55
			c1.47-1.27,2.93-1.73,4.31-0.97c1.34,0.73,2.04,2.35,1.63,4.15c-0.27,1.16-0.69,2.29-1.14,3.4c-2.97,7.31-7.35,13.8-11.76,20.28
			c-2.69,3.96-5.18,8.07-7.88,12.03c-1.66,2.44-3.47,4.79-5.38,7.04c-0.6,0.71-1.69,1.22-2.64,1.4
			C664.44,244.74,662.43,244.83,660.45,245.04z"/>
		<path class="st0" d="M282.98,338.09c-7.96-0.41-14.66-3.49-19.84-9.64c-2.22-2.63-3.15-5.93-3.84-9.21
			c-0.65-3.08,2.51-5.43,5.41-4.01c5.22,2.56,10.84,3.23,16.49,3.79c1.78,0.18,3.45-0.13,5.09-0.97c5.15-2.65,6.33-8.49,3.6-12.84
			c-0.98-1.57-0.68-3.28,0.55-4.36c1.31-1.15,3.29-1.28,4.55,0.14c3.14,3.53,7.33,4.93,11.55,6.49c2.75,1.01,5.41,2.39,7.89,3.96
			c3.48,2.19,5.91,5.34,7.15,9.32c0.57,1.83,1.03,3.7,1.66,5.5c0.79,2.26,0.4,4.41-0.36,6.55c-0.65,1.84-2.05,2.81-4.02,2.77
			c-0.56-0.01-1.13-0.05-1.67-0.18c-5.87-1.48-11.75-1.09-17.62-0.11c-4.18,0.7-8.32,1.56-12.49,2.3
			C285.75,337.83,284.39,337.92,282.98,338.09z"/>
		<path class="st0" d="M256.49,223.81c-0.23,0.97-0.53,2.7-1.07,4.36c-0.61,1.89-1.87,3.44-3.66,4.27
			c-7.34,3.42-15.14,2.91-20.66-4.21c-1.42-1.83-2.66-3.79-4.05-5.65c-2.05-2.75-4.86-4.29-8.14-5.16c-2.7-0.72-5.4-1.48-8.04-2.39
			c-1.73-0.59-3.45-1.32-5-2.27c-5.43-3.32-7.99-8.33-8.11-14.61c-0.05-2.74,1.8-4.27,4.35-3.61c11.02,2.83,22.23,3.61,33.54,3.19
			c3.39-0.13,6.68,0.35,10,0.86c3.06,0.47,4.76,3.12,3.05,5.98c-1.16,1.95-0.87,3.91,0.36,5.64c1,1.42,2.15,2.81,3.48,3.93
			C255.35,216.49,256.42,219.5,256.49,223.81z"/>
		<path class="st0" d="M481.11,371.59c-6.09-0.43-11.66-1.43-17-3.43c-3.73-1.4-6.8-3.86-9.46-6.78c-1.82-1.99-3.54-4.04-4.89-6.45
			c-1.01-1.8-2.91-3.11-4.44-4.6c-0.57-0.55-1.28-0.96-1.83-1.53c-0.97-1.01-1.25-2.25-0.71-3.55c0.54-1.29,1.58-1.98,2.99-2.03
			c3.81-0.13,7.49,0.43,10.9,2.24c5.8,3.07,11.31,1.68,16.62-1.24c1.51-0.83,2.78-2.13,4.08-3.32c4.39-4.03,9.45-4.71,14.93-2.92
			c2.99,0.98,5.69,2.51,7.76,5c3.7,4.44,4.58,9.36,2.63,14.79c-0.96,2.67-2.28,5.31-4.46,7.01c-3.64,2.83-7.54,5.43-12.27,6.2
			C484.21,371.25,482.47,371.42,481.11,371.59z"/>
		<path class="st0" d="M332.22,326.06c0.28-2.57-0.64-4.85-1.86-7.05c-0.31-0.56-0.71-1.08-0.93-1.67
			c-0.46-1.28-0.37-2.54,0.59-3.59c0.93-1.03,2.15-1.56,3.46-1.06c3.81,1.45,7.57,0.86,11.3-0.15c3.23-0.88,6.45-1.84,9.62-2.91
			c3.68-1.24,6.86-0.88,10.1,1.57c7.68,5.81,12.74,13.33,15.77,22.36c0.58,1.73,1.33,3.42,2.06,5.1c1.02,2.33,1.47,4.69,0.91,7.23
			c-0.96,4.43-3.34,6.14-8.2,5.77c-3.51-0.27-6.62-1.88-9.3-4.11c-2.27-1.89-4.31-4.04-6.43-6.09c-3.01-2.91-6.28-5.47-10.19-7.05
			c-4.09-1.65-8.26-2.97-12.79-2.71c-2.51,0.14-4.02-1.41-4.12-3.93C332.2,327.2,332.22,326.64,332.22,326.06z"/>
		<path class="st0" d="M540.12,376.78c-0.18,4.79-1.17,8.79-3.69,12.27c-1.41,1.93-2.86,3.87-4.53,5.57
			c-6.19,6.29-12.99,11.84-20.68,16.23c-1.11,0.63-2.24,1.25-3.41,1.75c-1.7,0.73-3.16,0.42-4.17-0.72
			c-1.07-1.22-1.11-2.75-0.1-4.44c0.08-0.14,0.16-0.28,0.26-0.4c3.48-4.22,3.8-9.13,3.28-14.29c-0.47-4.63-1.76-9.08-2.83-13.57
			c-1.4-5.87,1.33-11.95,6.59-14.89c6.06-3.38,12.12-3.64,18.28-0.31c0.84,0.45,1.73,0.84,2.6,1.23c4.14,1.85,6.48,5.3,8.15,9.29
			C540.21,375.33,540.08,376.38,540.12,376.78z"/>
		<path class="st0" d="M319.51,232.01c-0.16,4.34-2.38,7.03-6.02,8.71c-3.4,1.58-8.64-0.2-10.71-3.62
			c-0.78-1.29-1.36-2.71-2.06-4.05c-0.66-1.27-1.22-2.63-2.06-3.77c-3.42-4.61-8.15-3.83-11.59-2.26c-1.74,0.8-3.42,1.75-5.2,2.42
			c-3.71,1.41-7.45,1.09-10.93-0.64c-7.21-3.6-12.42-9.1-15.25-16.75c-0.77-2.07-1.05-4.19-0.64-6.36c0.45-2.35,2.07-3.55,4.32-3.05
			c7.94,1.78,16.03,2.94,23.75,5.67c2.03,0.72,4.05,1.47,6.08,2.2c6.01,2.15,12.04,4.25,18.02,6.49c1.54,0.58,3,1.47,4.38,2.39
			c2.72,1.82,4.6,4.46,6.18,7.23C318.68,228.24,318.95,230.21,319.51,232.01z"/>
		<path class="st0" d="M594.74,267.07c0,1.76,0.1,3.52-0.02,5.27c-0.2,2.86-3.73,5.16-6.48,4.34c-5.61-1.67-9.87-5.26-13.14-9.9
			c-1.17-1.66-1.44-4.01-1.95-6.08c-0.34-1.39-0.37-2.85-0.53-4.28c-0.46-4-2-7.46-4.66-10.56c-2.24-2.61-4.31-5.34-7.09-7.42
			c-0.06-0.05-0.12-0.11-0.17-0.17c-3.18-3.98-6.42-7.91-9.52-11.96c-0.9-1.18-1.54-2.63-2.05-4.04c-0.99-2.73,1.04-5.3,3.83-4.56
			c3.61,0.96,7.16,2.25,10.58,3.74c3.58,1.56,7.04,3.43,10.45,5.33c6.85,3.82,12.44,9.05,16.06,16.01c1.52,2.92,2.38,6.28,3.01,9.54
			c0.94,4.85,1.4,9.78,2.07,14.68C595.01,267.04,594.88,267.06,594.74,267.07z"/>
		<path class="st0" d="M109.68,255.56c-1.01-0.21-2.05-0.32-3.03-0.64c-6.97-2.26-13.47-5.41-19.23-10.03
			c-3.07-2.46-5.12-5.69-7.26-8.86c-2.71-4.01-6-7.47-9.55-10.7c-0.29-0.27-0.64-0.48-0.99-0.68c-7.52-4.43-13.86-10.21-19.38-16.92
			c-0.41-0.49-0.75-1.05-1.21-1.49c-5.03-4.88-6.52-11.19-7.21-17.82c-0.11-1.03-0.21-2.07-0.2-3.11c0.03-2.43,1.77-3.97,4.12-3.4
			c3.14,0.76,5.89,2.22,8.2,4.67c4.02,4.27,6.71,9.29,9.01,14.6c1.11,2.56,2.49,5.01,3.79,7.48c2.23,4.25,6.04,6.95,9.73,9.74
			c3.31,2.51,6.76,4.83,10.01,7.41c4.57,3.63,8.91,7.54,13.52,11.11c3.74,2.89,7.37,5.88,10.66,9.27c0.78,0.8,1.51,1.66,2.26,2.48
			c1.14,1.26,1.91,2.66,1.09,4.35C113.18,254.77,111.66,255.52,109.68,255.56z"/>
		<path class="st0" d="M69.72,185.95c0.28,0.04,0.69,0.07,1.07,0.17c5.12,1.27,9.9,3.17,13.29,7.5c1.03,1.32,2.1,2.62,3.07,3.98
			c2.31,3.25,4.54,6.57,7.62,9.19c2.79,2.38,5.65,4.68,8.35,7.16c3.53,3.23,7.89,5.12,11.93,7.5c1.37,0.81,2.9,1.33,4.35,2
			c4.49,2.09,9.08,3.98,13.41,6.35c2.47,1.36,4.7,3.32,6.67,5.36c2.09,2.17,3.86,4.69,5.55,7.2c0.86,1.28,1.37,2.85,1.82,4.36
			c0.29,0.97,0.31,2.11-0.77,2.79c-1.09,0.69-2.29,0.83-3.41,0.19c-0.67-0.38-1.3-0.96-1.74-1.59c-3-4.28-7.22-6.94-11.84-9.06
			c-9.65-4.41-19.37-8.7-28.97-13.23c-4.46-2.11-8.89-4.39-13.01-7.1c-5.6-3.69-10.81-7.92-15.29-13.01
			c-2.92-3.32-4.55-7.28-6.24-11.25c-0.44-1.03-0.84-2.08-1.16-3.15c-0.85-2.84,0.54-4.87,3.52-5.21
			C68.49,186.07,69.05,186.02,69.72,185.95z"/>
		<path class="st0" d="M483.75,421.03c-4.29-0.22-7.56-1.41-9.98-4.66c-1.61-2.16-3.5-4.14-5.45-6.02c-1.55-1.49-3.4-2.64-5.53-3.24
			c-1.59-0.45-2.67-1.44-2.89-3.14c-0.23-1.77,0.64-2.97,1.96-4.09c2.06-1.75,4.08-3.58,5.91-5.56c1.73-1.88,2.65-4.24,2.27-6.83
			c-0.19-1.3-0.77-2.58-1.39-3.75c-0.74-1.39-1.05-2.7-0.09-4.03c0.95-1.32,2.34-1.72,3.83-1.29c2.92,0.84,5.69,0.22,8.46-0.6
			c1.3-0.38,2.59-0.82,3.91-1.1c3.94-0.83,7.04,0.65,8.96,4.24c1.76,3.29,2.49,6.9,3.04,10.53c0.5,3.31,0.79,6.65,1.22,9.98
			c0.34,2.68-0.04,5.25-1.07,7.74c-0.67,1.62-1.24,3.3-2.1,4.83C492.3,418.47,488.38,420.72,483.75,421.03z"/>
		<path class="st0" d="M78.73,168.86c4.57,0.35,9.59,0.75,14.61,1.12c7.03,0.51,14.01,1.26,20.78,3.34
			c2.37,0.73,4.73,1.47,7.05,2.33c2.91,1.07,4.69,3.08,5.29,6.25c0.62,3.26,0.86,6.49,0.15,9.74c-0.17,0.77-0.45,1.53-0.78,2.25
			c-1.38,3.01-3.68,3.84-6.67,2.41c-0.79-0.38-1.52-0.88-2.3-1.28c-6.05-3.16-12.53-5.23-19.01-7.24c-9.7-3-19.5-5.62-29.59-6.99
			c-4.77-0.65-9.53-1.02-14.33-0.35c-0.79,0.11-1.59,0.19-2.39,0.22c-1.49,0.04-2.67-0.56-3.32-1.92c-0.64-1.35-0.53-2.77,0.52-3.79
			c1.12-1.09,2.4-2.15,3.8-2.82c3.34-1.59,6.9-2.52,10.62-2.67C68.2,169.24,73.23,169.07,78.73,168.86z"/>
		<path class="st0" d="M420.25,427.72c1.86,0.02,4.69,0.53,7.35,1.73c3.2,1.45,6.35,3.03,9.54,4.5c4.16,1.91,6.33,5.49,7.89,9.5
			c0.57,1.47,0.71,3.1,1.03,4.67c0.5,2.5,0.94,5.02,1.48,7.52c0.4,1.86,1.69,3.22,2.81,4.68c1.05,1.38,1.99,2.88,2.79,4.42
			c0.78,1.49,0.52,2.97-0.76,4.15c-1.13,1.04-2.57,1.15-4.22,0.25c-2.04-1.1-4.01-2.33-6.06-3.41c-2.4-1.26-4.81-2.51-7.28-3.6
			c-5.99-2.65-12.04-5.17-18.03-7.84c-4.63-2.06-8.71-5.03-12.81-7.96c-1.56-1.11-1.9-2.74-1.63-4.49c0.72-4.64,2.6-8.55,7.06-10.76
			c0.79-0.39,1.51-0.91,2.27-1.35C414.16,428.29,416.28,427.73,420.25,427.72z"/>
		<path class="st0" d="M406.37,425.96c-6.98-0.27-11.88-8.07-8.91-14.27c0.41-0.86,0.72-1.77,1.03-2.67
			c0.68-1.95,0.32-3.71-0.73-5.48c-2.43-4.11-5.49-7.59-9.34-10.47c-2.54-1.9-4.91-4.08-7.14-6.35c-1.2-1.22-1.97-2.88-2.84-4.39
			c-0.85-1.49-1.05-3.05,0.21-4.45c1.26-1.41,2.76-1.25,4.39-0.66c9.23,3.33,18.49,6.61,27.73,9.93c4.51,1.62,9,3.27,13.49,4.94
			c0.67,0.25,1.32,0.59,1.9,1c2.57,1.8,2.75,4.69,0.23,6.57c-3.53,2.64-4.72,6.25-4.95,10.41c-0.09,1.58-0.18,3.2-0.6,4.71
			c-0.59,2.14-2.15,3.57-4.32,4.07c-1.29,0.3-2.1,0.97-2.76,2.06c-1.06,1.72-2.35,3.26-4.25,4.09
			C408.51,425.41,407.42,425.64,406.37,425.96z"/>
		<path class="st0" d="M332.6,308.19c-3.16-0.37-6.33-0.74-9.49-1.11c-5.64-0.66-10.9-2.46-15.8-5.29
			c-1.17-0.68-2.24-1.53-3.39-2.24c-2.92-1.8-5.73-3.89-8.85-5.22c-2.35-1.01-5.11-1.12-7.72-1.46c-2.39-0.31-4.78-0.61-6.92-1.77
			c-0.96-0.52-1.85-1.25-2.61-2.04c-1.02-1.07-1.24-2.42-0.61-3.78c0.64-1.37,1.85-2.05,3.31-1.96c5.04,0.34,9.84-0.94,14.64-2.15
			c2.09-0.52,4.09-1.36,6.15-2.01c5.81-1.86,11.68-2.2,17.36,0.22c5.32,2.27,10.1,5.42,14.04,9.8c3.2,3.56,6.71,6.84,10.03,10.29
			c0.71,0.73,1.33,1.61,1.76,2.53c0.98,2.12,0.13,4.09-2.15,4.69c-2.07,0.54-4.23,0.8-6.36,1.06c-1.1,0.14-2.23,0.02-3.35,0.02
			C332.63,307.91,332.61,308.05,332.6,308.19z"/>
		<path class="st0" d="M385.72,279.82c0.08-0.64,0.15-1.76,0.38-2.86c1.3-6.25,6.32-9.57,12.15-10.1c3.08-0.28,6.09,0.21,8.93,1.38
			c2.14,0.88,4.33,1.77,6.22,3.05c7.27,4.93,15.28,8.32,23.28,11.77c0.22,0.09,0.45,0.15,0.68,0.23c1.55,0.56,2.69,1.51,2.71,3.27
			c0.02,1.71-0.95,2.85-2.48,3.49c-3.77,1.58-5.74,4.67-7.12,8.29c-0.31,0.82-0.56,1.69-1,2.43c-1.16,1.96-3.42,2.27-5.1,0.73
			c-0.94-0.86-1.9-1.73-2.69-2.73c-1.99-2.54-4.73-3.81-7.73-4.47c-3.03-0.67-6.13-1.08-9.22-1.44c-2.62-0.3-5.26-0.37-7.9-0.55
			c-0.56-0.04-1.12-0.07-1.67-0.15C388.71,291.19,385.48,287.38,385.72,279.82z"/>
		<path class="st0" d="M304.42,426.93c0-0.96-0.09-1.93,0.02-2.88c0.28-2.57,2.57-3.86,4.92-2.74c5.7,2.71,11.38,5.47,17.07,8.2
			c1.3,0.62,2.63,1.17,3.91,1.82c1,0.5,1.99,1.03,2.91,1.66c1.08,0.73,1.52,1.84,1.34,3.14c-0.32,2.29-0.6,4.59-1.03,6.86
			c-1.45,7.83-1.43,15.75-1.32,23.66c0.02,1.27,0.27,2.54,0.42,3.81c0.36,3.15-2.33,4.96-4.95,4.51c-4.1-0.7-7.27-2.67-9.95-5.71
			c-4.21-4.79-6.8-10.44-8.53-16.48c-1.41-4.91-2.64-9.88-3.66-14.89c-0.73-3.59-0.96-7.27-1.41-10.92
			C304.25,426.95,304.33,426.94,304.42,426.93z"/>
		<path class="st0" d="M181.38,209.84c-5.04-0.16-9.81-0.91-14.12-3.56c-0.67-0.42-1.43-0.71-2.18-0.99
			c-7.13-2.7-12.92-7.24-17.79-13.03c-2.6-3.09-5.46-5.87-9.13-7.63c-1.56-0.75-3.25-1.32-4.94-1.72c-2.41-0.58-3.81-2.07-3.46-4.06
			c0.38-2.17,2.16-3.21,4.77-2.69c3.84,0.76,7.66,1.58,11.49,2.4c8.12,1.74,16.25,3.45,24.35,5.26c7.19,1.61,14.15,3.91,20.76,7.23
			c1.43,0.72,2.27,1.69,2.65,3.17c1.03,4,0.46,7.78-1.71,11.28c-1.7,2.74-4.41,3.82-7.46,4.19
			C183.51,209.82,182.38,209.8,181.38,209.84z"/>
		<path class="st0" d="M469.95,425.81c-0.03,3.86-1.14,6.51-3.12,8.69c-2.52,2.77-5.19,5.41-8.86,6.71
			c-0.43,0.15-0.77,0.56-1.18,0.8c-2.22,1.28-4.97,0.11-4.96-2.42c0.01-4.68-2.67-7.56-6.1-9.93c-2.22-1.53-4.64-2.8-7.07-3.98
			c-2.97-1.44-5.8-3.01-8.12-5.41c-5.69-5.86-4.53-15.83,2.4-20.22c1.44-0.92,3.01-1.57,4.73-1.45c0.99,0.07,2.09,0.31,2.91,0.84
			c7.98,5.17,15.84,10.5,23.87,15.58c2.46,1.55,4.22,3.25,4.62,6.22C469.31,423.04,469.76,424.82,469.95,425.81z"/>
		<path class="st0" d="M309.49,259.2c-0.21-2.65,0.86-5.14,3.24-6.98c1.7-1.31,3.47-2.56,5.31-3.65c2.7-1.61,5.3-3.34,7.22-5.84
			c1.95-2.54,3.21-5.38,2.14-8.69c-0.26-0.82-0.77-1.56-1.19-2.32c-0.31-0.55-0.75-1.05-1.02-1.62c-0.63-1.36-0.37-2.81,0.59-3.77
			c0.95-0.95,2.5-1.31,3.77-0.58c1.93,1.11,3.84,2.3,5.61,3.65c1.6,1.23,2.58,2.87,2.96,5.01c0.34,1.91,1.28,3.74,2.11,5.53
			c1.33,2.9,2.87,5.7,4.16,8.62c0.97,2.2,0.89,4.57,0.02,6.79c-1.28,3.27-2.59,6.53-4.15,9.67c-2.92,5.86-11.38,10.08-19.38,7.89
			c-4.14-1.14-7.35-3.41-9.65-6.98C309.76,263.65,309.47,262.33,309.49,259.2z"/>
		<path class="st0" d="M579.38,294.24c0.24,3.98,0.48,7.95,0.7,11.93c0.37,6.46-1.07,12.36-5.32,17.42
			c-0.72,0.85-1.37,1.77-1.96,2.72c-2.08,3.37-5.27,4.73-9.03,5.06c-7.77,0.68-12.76-5.7-11.15-13.69c0.56-2.78,1.64-5.31,3.73-7.37
			c2.04-2.02,3.88-4.26,5.96-6.24c1.82-1.73,2.69-3.81,2.68-6.19c-0.03-4.46-0.27-8.93-0.43-13.39c-0.04-1.12-0.3-2.26-0.13-3.34
			c0.17-1.14,0.49-2.4,1.17-3.29c0.9-1.18,2.16-2.12,3.37-3.03c0.94-0.71,2.06-0.81,3.18-0.3c2.65,1.21,4.64,3.04,5.76,5.78
			c1.42,3.47,1.85,7.09,1.81,10.79c-0.01,1.04,0,2.08,0,3.11C579.59,294.23,579.49,294.23,579.38,294.24z"/>
		<path class="st0" d="M226.03,312.42c0.01,1.77-0.78,2.95-2.01,3.47c-1.34,0.57-2.52,0.25-3.53-0.71c-0.8-0.77-1.47-1.68-2.28-2.45
			c-1.85-1.75-3.66-3.56-5.66-5.14c-5.37-4.23-9.49-9.41-12.49-15.56c-1.55-3.17-3.73-5.93-6.26-8.43
			c-5.32-5.25-11.32-9.6-17.61-13.59c-6.29-3.99-11.38-9.28-16.14-14.91c-2.89-3.41-5.7-6.9-8.54-10.35
			c-0.25-0.31-0.55-0.59-0.78-0.91c-1.14-1.59-1.15-3.12-0.06-4.4c1.03-1.21,2.79-1.61,4.37-0.62c5.47,3.45,11.21,6.59,16.19,10.66
			c4.54,3.71,8.26,8.42,12.25,12.78c2.21,2.41,4.1,5.12,6.39,7.45c1.55,1.57,3.42,2.94,5.36,4c7.75,4.24,12.65,10.83,15.95,18.8
			c0.31,0.74,0.65,1.46,0.92,2.21c1.07,2.96,2.92,5.29,5.55,7.01c0.6,0.39,1.18,0.85,1.63,1.4c1.92,2.35,3.82,4.73,5.65,7.15
			C225.48,311.03,225.8,311.95,226.03,312.42z"/>
		<path class="st0" d="M515.86,199.85c0.14-1.31,0.29-3.22,0.58-5.11c0.32-2.12,1.56-3.25,3.45-3.33c1.86-0.09,2.91,0.82,3.61,2.83
			c0.38,1.11,0.87,2.24,1.57,3.16c2.18,2.85,4.36,5.68,7.03,8.15c3.31,3.06,5.75,6.88,7.73,10.9c1.68,3.43,2.93,7.06,4.36,10.61
			c1.28,3.19,2.75,6.24,4.69,9.13c3.37,5.03,7.94,8.95,11.78,13.52c1.47,1.75,2.75,3.69,3.93,5.66c0.86,1.43,0.33,3.1-0.97,4.04
			c-1.31,0.95-2.85,0.85-4.17-0.31c-3.84-3.36-7.68-6.73-11.52-10.09c-0.96-0.84-1.91-1.71-2.91-2.5
			c-7.74-6.04-14.23-13.3-20.13-21.08c-2.21-2.92-4.04-6.15-5.79-9.37C516.47,211.22,516.22,205.82,515.86,199.85z"/>
		<path class="st0" d="M586.31,309.42c-0.21-2.62-0.49-5.23-0.6-7.85c-0.12-2.79-0.12-5.58-0.05-8.37c0.02-0.84,0.29-1.75,0.69-2.5
			c1.29-2.47,3.24-3.38,5.79-2.27c4.24,1.84,7.6,4.71,8.84,9.43c0.21,0.8,0.17,1.76-0.04,2.58c-2.84,10.79-7.23,20.97-12.76,30.61
			c-2.52,4.4-5.81,8.37-8.79,12.51c-2.29,3.17-4.61,6.32-6.97,9.43c-1.11,1.46-2.32,2.85-3.57,4.2c-1.64,1.76-3.15,1.94-5.1,0.58
			c-2.16-1.51-4.21-3.05-5.23-5.72c-2.15-5.62-0.34-11.14,4.92-14.15c1.24-0.71,2.6-1.21,3.9-1.83c2.37-1.14,4.85-2.11,7.07-3.49
			c3.23-2.01,5.56-4.99,7.67-8.11c0.09-0.13,0.14-0.29,0.21-0.43C586.07,315.92,585.74,318.8,586.31,309.42z"/>
		<path class="st0" d="M386.75,405.68c-0.31,1.48-0.66,2.95-0.9,4.44c-0.2,1.25-0.47,2.54-0.35,3.78c0.09,0.96,0.55,2.04,1.19,2.76
			c1.42,1.61,2.94,3.18,4.61,4.51c2.6,2.06,3.99,4.77,4.63,7.88c0.84,4.09-2.09,8.27-7.18,7.03c-2.15-0.52-4.03-1.53-5.61-3.05
			c-1.49-1.44-3.06-2.84-4.33-4.47c-3.39-4.34-7.75-7.54-12.01-10.9c-3.18-2.51-6.09-5.38-9.02-8.2c-2.48-2.38-1.87-5.26-0.82-8.03
			c1.29-3.41,3.41-6.16,6.98-7.44c2.32-0.83,4.68-1.57,7.06-2.19c1.66-0.44,3.31-0.07,4.9,0.62c3.7,1.59,6.63,4.11,8.93,7.38
			C386.05,401.55,386.69,403.49,386.75,405.68z"/>
		<path class="st0" d="M99.78,194.3c0.38,0.19,1.27,0.43,1.88,0.98c3.12,2.81,6.64,5.05,10.49,6.61c7.55,3.06,15.13,6.05,22.8,8.76
			c6.04,2.13,11.47,5.07,16.31,9.31c4.38,3.83,8.93,7.46,13.82,10.68c5.59,3.68,11.01,7.68,15.18,13.04
			c1.36,1.76,2.53,3.68,3.68,5.59c0.58,0.96,1.02,2.06-0.01,3.07c-0.89,0.87-2.65,1-3.78,0.18c-0.57-0.41-1.09-0.95-1.49-1.54
			c-3.99-5.82-9.58-9.72-15.54-13.26c-5.71-3.39-11.51-6.58-17.64-9.14c-5.23-2.19-10.63-3.99-15.75-6.39
			c-9.84-4.62-19.51-9.6-27.94-16.6c-2.01-1.67-3.68-3.77-5.39-5.76c-0.91-1.06-0.87-2.39-0.22-3.61
			C96.84,195.02,97.89,194.35,99.78,194.3z"/>
		<path class="st0" d="M375.36,276.03c-2.4-0.31-4.08-1.44-5.46-3.09c-0.51-0.61-0.97-1.27-1.51-1.86
			c-1.36-1.46-2.98-2.33-5.05-2.38c-1.99-0.05-3.99-0.26-5.98-0.46c-1.11-0.11-2.24-0.24-3.31-0.54c-2.93-0.82-4.06-3.08-3-5.93
			c0.28-0.74,0.7-1.43,1.06-2.15c0.61-1.21,1.27-2.4,1.83-3.64c1.43-3.17,1.21-4.76-1.3-7.07c-2.62-2.42-4.15-5.42-5.26-8.72
			c-0.53-1.58-0.51-3,0.75-4.2c1.28-1.22,2.81-1.56,4.41-0.73c4.68,2.42,9.46,4.68,13.97,7.4c5.88,3.55,11.53,7.49,17.28,11.25
			c1.47,0.96,2.96,1.89,4.44,2.84c1.22,0.77,2.08,1.78,1.97,3.32c-0.11,1.64-1.13,2.57-2.58,3.14c-0.07,0.03-0.14,0.07-0.22,0.1
			c-3.8,1.13-6.04,3.62-6.9,7.52c-0.44,2-1.66,3.63-3.56,4.6C376.4,275.7,375.79,275.87,375.36,276.03z"/>
		<path class="st0" d="M600.74,286.7c-0.15-1.56-0.35-3.46-0.51-5.36c-0.43-5.06,1.48-9.1,5.05-12.66c4.12-4.11,9.03-6.81,14.3-9.01
			c6.87-2.87,13.94-5.13,21.19-6.85c3.26-0.78,6.46-1.8,9.74-2.46c3.04-0.62,6.15-0.91,9.24-1.33c0.31-0.04,0.64-0.03,0.96-0.01
			c1.67,0.11,2.83,0.99,3.21,2.4c0.42,1.55-0.19,2.91-1.67,3.88c-5.36,3.48-10.75,6.92-16.57,9.57c-7.53,3.43-15.31,6.04-23.69,6.26
			c-2.06,0.05-3.35,0.75-4.31,2.68c-1.5,2.99-3.19,5.92-5.08,8.68c-1.84,2.69-3.99,5.18-6.1,7.68c-0.99,1.17-2.61,1.34-3.96,0.68
			C601.14,290.16,600.58,288.99,600.74,286.7z"/>
		<path class="st0" d="M356.67,385.56c-5-0.01-9.51-1.35-13.02-5.07c-2.41-2.55-4.66-5.24-6.92-7.92c-0.87-1.03-1.65-2.16-2.35-3.33
			c-2.7-4.53-6.97-6.58-11.86-7.77c-2.87-0.7-5.72-1.5-8.22-3.16c-0.66-0.44-1.33-0.92-1.83-1.52c-1.79-2.17-0.77-5.05,2.03-5.4
			c1.88-0.24,3.84-0.17,5.72,0.08c6.96,0.89,13.62,2.93,19.7,6.4c5.43,3.1,11.14,5.53,16.83,8.06c4.03,1.79,7.79,4.04,11.3,6.71
			c0.32,0.24,0.65,0.47,0.93,0.75c3.24,3.22,2.6,7.59-1.45,9.66C364.13,384.8,360.48,385.56,356.67,385.56z"/>
		<path class="st0" d="M486.93,463.88c0,0.48,0.02,0.96,0,1.44c-0.28,5.49,2.76,10.38,7.82,12.53c0.44,0.19,0.91,0.32,1.33,0.54
			c1.59,0.84,2.24,2.42,1.7,4.02c-0.53,1.57-2.02,2.39-3.85,2.02c-1.4-0.29-2.79-0.65-4.18-1.04c-4.54-1.25-9.07-2.53-13.61-3.78
			c-4.67-1.29-8.53-3.97-11.91-7.31c-3.45-3.41-4.94-7.5-3.93-12.43c0.92-4.51,2.84-8.51,6.02-11.78c2.96-3.05,6.8-3.46,10.67-2.29
			c5.14,1.56,7.87,5.55,9.17,10.48c0.65,2.44,0.68,5.04,1,7.57C487.08,463.86,487,463.87,486.93,463.88z"/>
		<path class="st0" d="M458.1,385.99c0.13,2.88-0.4,5.58-1.83,8.09c-1.75,3.05-5.33,4.08-8.34,2.33c-6.5-3.79-13.19-7.15-20.41-9.37
			c-1.29-0.4-2.56-0.91-3.77-1.51c-2.71-1.36-3.18-4.81-0.86-6.76c1.27-1.07,2.74-1.92,4.18-2.76c1.17-0.69,2.42-1.22,3.63-1.84
			c3.79-1.94,6.1-5.14,7.15-9.14c0.38-1.45,0.05-3.15-0.23-4.69c-0.39-2.19-0.09-3.51,1.35-4.41c1.58-0.98,3.18-0.8,4.73,0.82
			c1.26,1.32,2.35,2.81,3.44,4.28c1.51,2.06,3.04,4.11,4.41,6.27C455.18,373.01,457.94,379.06,458.1,385.99z"/>
		<path class="st0" d="M192.52,230.29c-3.68-0.11-6.94-1.31-10.04-2.73c-4.94-2.25-9.77-4.75-14.56-7.3
			c-7.4-3.93-14.64-8.19-22.15-11.91c-3.46-1.72-7.39-2.5-11.11-3.71c-0.91-0.29-1.86-0.48-2.72-0.89
			c-2.71-1.28-3.54-3.57-2.34-6.35c0.6-1.4,1.14-2.83,1.88-4.14c0.58-1.02,1.3-2.06,2.21-2.77c1.7-1.34,3.95-0.89,4.55,1.07
			c0.89,2.91,2.91,4.64,5.18,6.33c4.61,3.44,9.17,6.93,14.52,9.22c1.97,0.84,3.76,2.11,5.6,3.22c7.43,4.48,15.38,5.49,23.76,3.6
			c1.25-0.28,2.52-0.51,3.7-0.98c4-1.58,8.49,1.79,9.58,5.09c0.13,0.38,0.18,0.8,0.39,1.13c2.81,4.45-1.44,10.32-6.74,10.87
			C193.61,230.12,192.98,230.22,192.52,230.29z"/>
		<path class="st0" d="M228.75,300.23c0.42,0.23,1.31,0.58,2.04,1.14c8.14,6.18,12.71,14.53,15,24.36c0.72,3.09,1.84,6.12,3.13,9.02
			c0.68,1.53,2.02,2.84,3.26,4.03c2.13,2.04,4.36,3.99,6.66,5.83c4.12,3.29,8.39,6.38,12.48,9.7c3.72,3.01,7.29,6.21,10.92,9.33
			c1.27,1.09,2.55,2.18,3.79,3.31c0.58,0.53,1.18,1.11,1.55,1.78c0.72,1.3,0.59,2.63-0.36,3.8c-0.87,1.08-2.26,1.45-3.69,0.9
			c-0.88-0.34-1.74-0.81-2.52-1.35c-6.9-4.78-13.84-9.49-20.62-14.42c-2.56-1.86-4.81-4.18-7.05-6.45
			c-1.85-1.87-3.64-3.85-5.16-5.99c-3.01-4.22-5.83-8.58-8.71-12.89c-3.36-5.02-5.66-10.53-7.37-16.3
			c-1.12-3.77-3.44-6.81-5.76-9.87c-0.29-0.38-0.66-0.71-0.89-1.12C224.26,302.89,225.77,300.26,228.75,300.23z"/>
		<path class="st0" d="M544.9,493.15c-2.61,0.08-5.48-2.05-6.39-4.87c-0.32-0.97-0.39-2.03-0.53-3.05
			c-0.07-0.55-0.01-1.12-0.06-1.68c-0.29-3.83-1.24-7.26-5.13-9.07c-1.01-0.47-1.88-1.23-2.9-1.69c-2.82-1.28-5.1-3.28-7.41-5.25
			c-2.1-1.79-2.99-4.32-3.99-6.74c-0.52-1.26-0.17-2.54,0.88-3.51c1.11-1.04,2.49-1.26,3.8-0.69c10.21,4.37,20.47,8.64,30.55,13.3
			c3.22,1.49,5.93,4.01,7.73,7.31c1.41,2.59,1.33,4.95-0.27,7.43C557.66,490.1,552.66,492.67,544.9,493.15z"/>
		<path class="st0" d="M379.96,300.63c-0.22,1.49-0.25,3.04-0.7,4.46c-0.87,2.72-3.69,3.53-5.65,1.5c-4.36-4.5-10.1-6.03-15.8-7.5
			c-5.32-1.38-9.52-4.04-12.32-8.76c-1.69-2.85-2.52-5.94-1.14-9.15c0.55-1.27,1.4-2.63,2.5-3.41c4.2-2.97,8.85-4.09,13.81-2.08
			c2.72,1.1,5.39,2.41,7.95,3.85C375.57,283.45,380.24,293.41,379.96,300.63z"/>
		<path class="st0" d="M230.93,292.31c0.02,1.68-0.57,2.66-1.7,3.32c-1.23,0.72-2.5,0.66-3.62-0.14c-1.75-1.25-3.47-2.57-5.12-3.95
			c-1.28-1.08-2.43-2.31-3.64-3.46c-3.62-3.43-6.61-7.35-9.07-11.7c-0.98-1.73-2-3.48-3.24-5.03c-2.27-2.85-3.81-6.07-5.29-9.36
			c-0.58-1.3-1.23-2.64-2.15-3.7c-3.82-4.4-7.79-8.68-11.65-13.04c-2.8-3.17-5.52-6.41-8.27-9.63c-0.25-0.3-0.43-0.67-0.62-1.02
			c-0.83-1.61-0.73-2.76,0.33-3.69c1.19-1.05,2.7-1.08,4.19-0.06c2.11,1.45,4.19,2.93,6.3,4.36c3.44,2.33,6.97,4.53,10.33,6.96
			c6.58,4.76,10.74,11.18,13.11,18.95c1.92,6.27,4.77,12.2,7.87,17.97c1.81,3.38,4.61,5.89,7.81,7.95c1.57,1.01,3.03,2.09,3.86,3.82
			C230.66,291.42,230.83,292.03,230.93,292.31z"/>
		<path class="st0" d="M598.33,256.65c-0.14-1.89-0.21-3.8-0.45-5.68c-0.39-3.11-1.8-5.74-3.84-8.1c-1.52-1.76-1.33-3.93,0.33-5.3
			c1.24-1.02,2.65-1.25,3.99-0.34c1.92,1.31,3.95,1.12,5.99,0.59c1.15-0.3,2.28-0.75,3.35-1.29c5.28-2.66,10.53-5.38,15.8-8.06
			c1.36-0.69,2.73-1.31,4.34-1.1c2.4,0.32,3.79,1.77,3.72,4.18c-0.04,1.51-0.08,3.09-0.53,4.51c-1.67,5.24-4.03,10.08-8.28,13.8
			c-3.93,3.45-8.37,6.18-12.86,8.75c-2.3,1.31-5.09,1.88-7.73,2.45C599.42,261.66,598.06,260.02,598.33,256.65z"/>
		<path class="st0" d="M237.23,359.51c0,2.12-1.42,3.45-3.39,2.8c-1.45-0.48-2.91-1.38-4-2.46c-5.58-5.5-11.42-10.66-17.88-15.12
			c-3.02-2.08-5.75-4.51-8.1-7.4c-2.31-2.84-5.08-5.31-7.48-8.08c-3.24-3.73-6.34-7.6-9.49-11.42c-2.18-2.65-4.34-5.32-6.51-7.98
			c-0.25-0.31-0.54-0.59-0.78-0.91c-1.25-1.65-1.25-3.26,0-4.55c1.24-1.3,3.22-1.46,4.79-0.24c1.57,1.22,3.07,2.55,4.54,3.9
			c2.53,2.33,5.01,4.7,7.5,7.07c8.35,7.91,16.75,15.76,25,23.77c2.27,2.2,4.02,4.93,6.11,7.34c2.25,2.59,4.57,5.12,6.91,7.63
			C235.93,355.49,237.18,357.19,237.23,359.51z"/>
		<path class="st0" d="M257.77,328.49c-0.05,1.87-1.05,3.12-2.52,3.49c-1.31,0.33-2.76-0.25-3.48-1.52
			c-0.35-0.62-0.56-1.32-0.77-2.01c-1.55-5.12-3.18-10.23-4.58-15.39c-0.96-3.55-3.22-6.41-4.72-9.67
			c-1.56-3.41-3.39-6.7-4.83-10.16c-1.35-3.24-3.08-6.1-5.83-8.35c-4.59-3.75-7.54-8.62-9.43-14.19c-0.69-2.04-1.49-4.04-2.24-6.06
			c-0.6-1.62-0.25-3.16,0.95-4.12c1.28-1.04,3.04-1.15,4.43,0.01c4.53,3.8,9.31,7.4,12.88,12.16c3.47,4.63,5.7,9.97,7.59,15.43
			c1.91,5.51,3.84,11.01,5.76,16.52c0.18,0.53,0.35,1.06,0.51,1.6c1.94,6.84,3.89,13.68,5.82,20.52
			C257.52,327.44,257.68,328.13,257.77,328.49z"/>
		<path class="st0" d="M273.7,383.95c-0.05,1.81-0.63,2.43-1.94,2.49c-0.47,0.02-0.96-0.04-1.42-0.16
			c-3.79-0.96-7.17-2.67-9.93-5.51c-3.57-3.66-7.18-7.27-10.68-10.99c-1.85-1.97-3.79-3.93-4.71-6.57
			c-2.16-6.2-6.12-11.17-10.75-15.66c-5.24-5.07-9.89-10.65-14.45-16.33c-1.34-1.67-2.7-3.34-4.01-5.04
			c-0.53-0.69-1.03-1.44-1.39-2.23c-0.73-1.62-0.16-3.32,1.28-4.16c1.4-0.82,2.97-0.57,4.12,0.72c2.12,2.38,4.17,4.84,6.35,7.17
			c2.29,2.45,4.57,4.93,7.1,7.12c5.44,4.72,9.73,10.36,13.44,16.46c1.8,2.96,3.86,5.62,6.32,8.08c4.18,4.17,8.19,8.52,12.13,12.93
			c2.55,2.85,4.9,5.89,7.22,8.93C273.07,382.13,273.4,383.32,273.7,383.95z"/>
		<path class="st0" d="M403.49,377.89c-2.62-0.19-5.95-0.93-9.09-2.42c-1.27-0.6-1.93-1.64-1.89-3.07c0.03-1.33,0.65-2.32,1.85-2.85
			c4.55-1.99,7.74-5.56,10.78-9.29c0.91-1.12,1.65-2.37,2.56-3.47c3.72-4.5,8.27-7.76,14.08-8.94c1.23-0.25,2.57-0.32,3.79-0.09
			c4.75,0.9,7.02,4.81,6.08,8.94c-0.94,4.12-2.8,7.62-5.89,10.48c-0.65,0.6-1.28,1.24-2.01,1.71c-3.89,2.5-7.75,5.06-11.76,7.37
			C409.59,377.63,407.15,377.93,403.49,377.89z"/>
		<path class="st0" d="M492.08,458.31c0-1.91,0.04-3.83-0.01-5.74c-0.05-1.92-0.81-3.57-2.1-4.97c-2.77-3-5.53-5.99-9.27-7.87
			c-0.99-0.5-1.88-1.21-2.75-1.91c-2.51-2.02-2.91-6.42-0.83-8.85c1.15-1.35,2.88-1.65,4.52-0.46c4.26,3.11,8.67,6.06,12.57,9.59
			c4.41,3.98,9.1,7.54,13.87,11.04c0.39,0.28,0.77,0.57,1.16,0.86c4.08,3.08,5.02,7.94,2.21,12.25c-2.23,3.43-5.29,5.95-9.14,7.45
			c-0.22,0.09-0.45,0.17-0.68,0.24c-5.09,1.56-8.98-1.02-9.46-6.35c-0.16-1.74-0.02-3.51-0.02-5.27
			C492.12,458.31,492.1,458.31,492.08,458.31z"/>
		<path class="st0" d="M325.98,338.29c6.2-0.02,11.99,1.56,17.59,4.12c4.02,1.84,7.76,4.11,11.29,6.75c2.3,1.73,4.47,3.67,6.94,5.12
			c3.37,1.98,6.97,3.72,11.02,3.56c3.58-0.13,7.15-0.61,10.72-0.95c0.55-0.05,1.11-0.21,1.66-0.2c2.41,0.06,3.98,2.24,3.17,4.5
			c-0.77,2.14-2.21,3.54-4.52,4.21c-7.88,2.3-15.38,1.44-22.41-2.71c-4.67-2.76-9.32-5.6-13.7-8.79c-3.28-2.38-6.64-4.43-10.46-5.71
			c-5.53-1.84-11.23-2.42-17.04-2c-0.94,0.07-1.87,0.38-2.81,0.59c-1.89,0.42-3.44-0.3-4.14-1.94c-0.66-1.54-0.17-3.1,1.34-4.19
			c2.24-1.62,4.9-1.85,7.51-2.19C323.42,338.31,324.71,338.34,325.98,338.29z"/>
		<path class="st0" d="M267.11,254.77c-2.79-0.62-5.61-1.14-8.36-1.9c-2.03-0.56-3.7-1.83-5.1-3.43c-3.06-3.48-2.99-7.82,0.18-11.22
			c3.47-3.73,7.7-4.65,12.46-3.17c1.9,0.59,3.68,1.53,5.54,2.25c1.41,0.54,2.83,1.17,4.3,1.4c2.18,0.34,4.23-0.06,5.96-1.72
			c1.14-1.09,2.45-2.05,3.81-2.86c2.28-1.36,4.03-1.17,5.94,0.42c1.32,1.09,1.87,3.54,1.21,5.53c-0.69,2.09-1.88,3.87-3.48,5.37
			c-3.62,3.39-7.82,5.8-12.56,7.17C273.8,253.54,270.61,254.67,267.11,254.77z"/>
		<path class="st0" d="M486.04,301.94c4.46,0,8.48,1.12,12.49,2.18c1.66,0.44,3.2,1.42,4.69,2.34c1.42,0.87,2.02,2.29,1.55,3.94
			c-0.93,3.28-0.5,6.52,0.26,9.71c0.69,2.95,1.78,5.8,2.51,8.75c0.43,1.76,0.69,3.6,0.7,5.41c0.01,1.99-1.39,3.15-3.16,3.8
			c-1.71,0.63-2.94-0.23-3.94-1.5c-2.19-2.77-4.79-5.11-7.35-7.52c-3.96-3.73-7.45-7.9-9.97-12.79c-1.57-3.04-2.15-6.36-2.71-9.65
			c-0.57-3.34,1.08-4.92,4.49-4.71C485.81,301.92,486.05,301.94,486.04,301.94z"/>
		<path class="st0" d="M348.4,401.78c-3.73-0.06-6.37-1.59-8.83-3.64c-1.71-1.43-3.42-2.9-5.31-4.08
			c-5.58-3.49-10.87-7.38-15.44-12.09c-2.7-2.79-5.07-5.99-7.11-9.3c-0.96-1.57-1.03-3.82-1.06-5.78c-0.02-1.84,1.81-3.06,3.79-2.71
			c2.52,0.44,4.9,1.22,6.92,3.01c3.95,3.49,7.21,7.45,9.28,12.34c1.21,2.85,3.57,4.65,6.02,6.35c1.45,1,2.85,2.07,4.36,2.96
			c1.22,0.72,2.55,1.31,3.89,1.79c2.02,0.73,4.13,1.25,6.15,2c2.49,0.93,3.37,2.31,3.09,4.46c-0.29,2.24-2.17,4.28-4.28,4.61
			C349.25,401.8,348.61,401.77,348.4,401.78z"/>
		<path class="st0" d="M228.15,239.94c-0.09,3.24-0.36,5.61-1.44,7.82c-1.24,2.53-4.5,3.83-7.09,2.73c-1.39-0.59-2.71-1.36-4-2.15
			c-4.3-2.62-8.57-5.28-12.85-7.92c-2.73-1.68-3.02-3.95-0.76-6.31c1-1.04,2.05-2.02,3.07-3.03c1.43-1.44,2.56-3,2.95-5.09
			c0.18-0.96,0.8-1.91,1.42-2.71c0.98-1.27,2.39-1.63,3.88-1.02c6.34,2.57,11.14,6.85,13.94,13.12
			C227.99,236.99,227.97,238.94,228.15,239.94z"/>
		<path class="st0" d="M552.14,340.26c-0.25,1.41-0.39,2.85-0.76,4.23c-0.78,2.98-0.92,6-0.84,9.04c0.07,2.66,1.18,4.95,2.83,6.98
			c0.37,0.46,0.99,0.76,1.55,0.99c1.32,0.55,2.71,0.95,4.02,1.53c1.98,0.89,2.65,2.51,1.84,4.53c-0.41,1.02-0.91,2.09-1.65,2.88
			c-2.35,2.51-4.81,4.91-7.26,7.31c-0.44,0.43-1.04,0.79-1.63,0.95c-2.82,0.78-5.25-1.63-4.36-4.42c1.36-4.23,0.26-7.77-2.45-11.11
			c-1.52-1.87-3.22-3.21-5.55-3.92c-1.17-0.36-2.32-1.11-3.24-1.96c-1.81-1.66-1.6-3.8,0.31-5.36c1.3-1.06,2.57-2.15,3.86-3.23
			c3.03-2.53,4.9-5.85,6.42-9.41c0.19-0.44,0.32-0.91,0.53-1.34c0.8-1.61,2.11-2.31,3.68-2c1.54,0.31,2.48,1.5,2.58,3.3
			c0.02,0.32,0,0.64,0,0.96C552.06,340.25,552.1,340.26,552.14,340.26z"/>
		<path class="st0" d="M367.44,173.56c7.29,0.42,12.45,3.96,15.54,10.57c2.06,4.39,3.06,9.06,3.57,13.84
			c0.09,0.86,0.04,1.77-0.12,2.62c-0.31,1.58-1.4,2.47-2.94,2.78c-1.38,0.28-2.9-0.46-3.65-1.76c-0.31-0.55-0.48-1.18-0.71-1.77
			c-1.79-4.55-4.85-7.31-9.95-7.73c-2.27-0.18-4.54-0.86-6.71-1.61c-5.38-1.86-6.53-8.48-3.93-12.3
			C360.7,175.01,363.57,173.39,367.44,173.56z"/>
		<path class="st0" d="M405.61,212.68c3.96,0.25,7.48,1.14,10.46,3.54c4.77,3.82,4.44,11.06-0.63,14c-1.57,0.91-3.29,1.35-5.05,0.77
			c-2.1-0.7-4.34-1.28-6.17-2.46c-4.09-2.63-7.94-2.34-11.88,0.14c-2.28,1.44-3.88,1.41-5.14-0.02c-1.24-1.41-1.17-3.32,0.55-5.17
			c4.5-4.85,9.44-9.09,16.19-10.51C404.57,212.83,405.2,212.75,405.61,212.68z"/>
		<path class="st0" d="M526.55,491.55c-1.58-0.22-3.17-0.37-4.74-0.67c-3.69-0.7-7.36-1.5-11.05-2.18c-1.53-0.28-2.64-1-3.41-2.35
			c-0.43-0.76-1.01-1.43-1.49-2.16c-0.4-0.6-0.82-1.19-1.13-1.83c-3.11-6.46,1.77-10.7,6.39-11.06c1.77-0.14,3.72,0.17,5.37,0.82
			c3.83,1.5,7.04,3.94,9.86,7c1.83,1.98,3.34,4.04,4.08,6.63c0.04,0.15,0.12,0.3,0.17,0.45
			C531.72,489.64,530.18,491.64,526.55,491.55z"/>
		<path class="st0" d="M306.37,359.06c-0.08,1.82-0.77,2.85-2.1,3.31c-1.43,0.5-2.88,0.96-4.37,1.23c-0.73,0.13-1.63-0.03-2.29-0.36
			c-3.84-1.93-7.65-3.94-11.45-5.96c-3.32-1.77-6.43-3.85-9.14-6.5c-0.96-0.95-2.1-1.72-3.12-2.61c-1.33-1.15-1.75-2.67-1.2-4.07
			c0.52-1.32,1.71-2.06,3.49-1.94c1.35,0.09,2.7,0.29,4.01,0.61c5.2,1.28,10.26,2.97,15.04,5.43c4.2,2.16,7.67,5.15,10.35,9.03
			C306.03,357.86,306.21,358.67,306.37,359.06z"/>
		<path class="st0" d="M281.83,306.3c0,0.24,0.03,0.48,0,0.72c-0.61,4.45-2.09,5.72-6.34,4.68c-5.97-1.46-9.66-5.42-10.56-11.58
			c-0.2-1.34-0.42-2.7-0.32-4.03c0.15-2.03,1.57-3.44,3.46-3.24C275.3,293.61,281.59,297.52,281.83,306.3z"/>
	</g>
</g>
</svg>
